<svg width="13" height="13" viewBox="0 0 13 13" fill="none" xmlns="http://www.w3.org/2000/svg">
<g clip-path="url(#clip0)">
<path d="M3.25 0.808889V0H0.404444C0.187778 0 0 0.187778 0 0.404444V3.25H0.808889V1.38667L4.57889 5.15667L5.15667 4.57889L1.38667 0.808889H3.25Z" fill="black"/>
<path d="M12.596 0H9.75042V0.808889H11.6137L7.84375 4.59333L8.42153 5.17111L12.1915 1.38667V3.25H13.0004V0.404444C13.0004 0.187778 12.8126 0 12.596 0Z" fill="black"/>
<path d="M12.1913 11.6133L8.40688 7.84326L7.8291 8.42104L11.5991 12.191H9.75021V12.9999H12.5958C12.8269 12.9999 13.0002 12.8121 13.0002 12.5955V9.74993H12.1913V11.6133Z" fill="black"/>
<path d="M4.59333 7.84326L0.808889 11.6133V9.74993H0V12.5955C0 12.8121 0.187778 12.9999 0.404444 12.9999H3.25V12.191H1.38667L5.15667 8.42104L4.59333 7.84326Z" fill="black"/>
</g>
<defs>
<clipPath id="clip0">
<rect width="13" height="13" fill="white"/>
</clipPath>
</defs>
</svg>
