<svg width="498" height="531" viewBox="0 0 498 531" fill="none" xmlns="http://www.w3.org/2000/svg">
<g clip-path="url(#clip0)">
<path d="M34.6191 366.222C25.3578 366.222 17.6934 372.384 17.6934 379.821C17.6934 387.364 25.2514 393.42 34.6191 393.42C43.8803 393.42 51.5447 387.258 51.5447 379.821C51.4383 372.277 43.8803 366.222 34.6191 366.222ZM34.6191 391.295C26.5288 391.295 19.8224 386.089 19.8224 379.821C19.8224 373.446 26.4223 368.346 34.6191 368.346C42.7093 368.346 49.4157 373.552 49.4157 379.821C49.3093 386.195 42.7093 391.295 34.6191 391.295Z" fill="#F8F8F8"/>
<path d="M52.1836 427.099C52.1836 433.793 60.3803 439.211 70.3867 439.211C80.3931 439.211 88.5898 433.793 88.5898 427.099C88.5898 420.406 80.3931 414.987 70.3867 414.987C60.2739 414.987 52.1836 420.406 52.1836 427.099ZM86.4608 427.099C86.4608 432.624 79.2221 437.086 70.3867 437.086C61.5513 437.086 54.3126 432.624 54.3126 427.099C54.3126 421.575 61.5513 417.112 70.3867 417.112C79.2221 417.112 86.4608 421.575 86.4608 427.099Z" fill="#F8F8F8"/>
<path d="M8.21924 453.129C8.21924 461.31 18.1192 470.446 31.4255 470.446C37.2803 470.446 41.4319 468.747 46.1158 466.94C49.2028 465.772 52.6093 464.391 56.9738 463.222C75.2833 458.547 79.5414 461.31 84.5445 464.391C88.0574 466.622 91.9961 469.065 100.938 469.065C111.264 469.065 119.673 463.434 119.673 456.635C119.673 449.835 111.37 444.098 101.044 444.098C95.2961 444.098 91.251 445.692 87.4187 447.285C80.393 450.154 73.793 452.81 57.7189 445.904C55.0576 444.842 53.0351 443.567 51.119 442.398C46.7545 439.742 42.6029 437.298 33.661 436.98C24.7191 436.767 17.2676 439.105 12.6902 443.567C9.70955 446.329 8.21924 449.623 8.21924 453.129ZM32.1707 439.105C32.5965 439.105 33.0223 439.105 33.3417 439.105C41.7513 439.317 45.4771 441.548 49.7351 444.204C51.7577 445.479 53.8867 446.754 56.6544 447.923C73.5801 455.147 80.9252 452.173 88.0574 449.304C91.9961 447.71 95.6154 446.223 100.938 446.223C110.093 446.223 117.544 450.898 117.544 456.529C117.544 462.159 110.093 466.834 100.938 466.834C92.6348 466.834 89.1219 464.603 85.7155 462.478C80.4994 459.185 75.6027 456.104 56.4415 460.991C51.8641 462.159 48.3512 463.541 45.2642 464.816C40.4739 466.728 36.7481 468.215 31.3191 468.215C21.5256 468.215 10.2418 461.522 10.2418 453.023C10.2418 450.154 11.5192 447.392 13.8611 445.054C18.0127 441.229 24.3998 439.105 32.1707 439.105Z" fill="#F8F8F8"/>
<path d="M376.539 500.726C381.968 499.876 386.972 497.645 390.378 494.564C393.997 491.376 395.701 487.445 395.062 483.727C393.891 476.184 383.565 471.509 372.175 473.315C366.107 474.271 360.785 476.927 356.101 479.265C347.798 483.408 342.262 486.064 337.365 478.309C332.362 470.447 319.375 466.409 305.856 468.64C297.872 469.915 290.633 473.103 285.524 477.777C280.308 482.452 277.859 488.083 278.711 493.395C279.563 498.814 283.608 503.382 290.101 506.144C294.466 508.057 299.575 509.013 304.898 509.013C307.346 509.013 309.795 508.8 312.243 508.375C319.482 507.207 326.188 504.444 331.191 500.513C342.156 491.908 349.394 491.058 358.549 497.539C362.914 500.62 369.62 501.788 376.539 500.726ZM359.614 495.732C349.501 488.72 341.411 489.57 329.701 498.814C325.017 502.532 318.63 505.188 311.817 506.251C304.153 507.419 296.701 506.676 290.846 504.126C285.098 501.576 281.479 497.645 280.733 492.97C279.988 488.295 282.117 483.408 286.801 479.265C291.591 474.909 298.511 471.934 306.069 470.659C308.411 470.234 310.753 470.128 313.095 470.128C322.994 470.128 331.723 473.634 335.449 479.477C341.411 488.827 348.649 485.321 356.952 481.177C361.53 478.946 366.639 476.396 372.388 475.44C382.714 473.846 391.868 477.671 392.933 484.046C393.465 487.021 391.975 490.208 388.994 492.97C385.801 495.839 381.223 497.857 376.22 498.601C369.833 499.557 363.659 498.495 359.614 495.732Z" fill="#F8F8F8"/>
<path d="M303.727 222.687C303.727 215.143 296.169 209.087 286.801 209.087C277.54 209.087 269.875 215.25 269.875 222.687C269.875 230.23 277.433 236.286 286.801 236.286C296.062 236.286 303.727 230.23 303.727 222.687ZM272.111 222.687C272.111 216.312 278.711 211.212 286.908 211.212C294.998 211.212 301.704 216.418 301.704 222.687C301.704 229.061 295.104 234.161 286.908 234.161C278.711 234.161 272.111 229.061 272.111 222.687Z" fill="#F8F8F8"/>
<path d="M248.692 257.959C245.924 256.684 243.05 255.303 236.237 255.303C231.447 255.303 227.082 257.003 224.421 260.084C222.399 262.422 221.44 265.29 221.866 268.265C222.824 275.277 230.595 281.014 239.324 281.014C245.073 281.014 247.734 278.996 250.289 276.977C253.056 274.852 255.611 272.833 262.318 273.046C268.705 273.258 272.856 276.021 277.114 278.889C281.479 281.864 286.056 284.839 292.976 284.839C293.508 284.839 294.146 284.839 294.785 284.733C307.346 283.883 312.882 276.021 313.946 268.902C315.224 260.084 310.327 251.585 301.917 248.397C290.421 243.935 283.608 249.035 277.008 253.816C272.218 257.322 267.853 260.615 261.572 260.509C254.44 260.509 251.46 259.234 248.692 257.959ZM278.392 255.516C284.779 250.841 290.846 246.379 301.279 250.31C308.73 253.178 313.201 260.722 311.924 268.584C310.54 278.146 302.13 282.077 294.679 282.608C287.44 283.139 282.969 280.164 278.285 277.083C273.921 274.108 269.343 271.134 262.318 270.921C261.998 270.921 261.572 270.921 261.253 270.921C254.547 270.921 251.566 273.258 248.905 275.277C246.456 277.189 244.221 278.889 239.218 278.889C231.553 278.889 224.634 274.002 223.889 268.052C223.57 265.609 224.315 263.378 225.911 261.465C228.147 258.916 231.873 257.428 236.131 257.428C242.411 257.428 244.966 258.597 247.627 259.872C250.608 261.253 253.695 262.634 261.572 262.74C268.598 262.74 273.601 259.128 278.392 255.516Z" fill="#F8F8F8"/>
<path d="M311.072 365.159C311.179 361.122 309.05 356.447 305.324 352.941C300.321 348.054 293.295 345.504 285.63 345.823C276.369 346.142 269.343 349.116 262.531 351.879C256.037 354.535 249.863 357.085 242.518 357.085H242.411C234.64 357.085 229.318 353.366 223.037 349.116C215.053 343.698 205.899 337.536 189.718 337.536C171.834 337.536 162.999 344.335 155.228 350.285C145.86 357.51 138.409 363.247 117.864 353.579C109.986 349.86 94.764 349.86 86.2479 355.279C81.9899 358.041 79.6479 361.866 79.6479 366.434C79.6479 371.003 81.8834 374.934 86.2479 377.59C94.764 383.008 109.986 383.008 117.864 379.29C149.693 364.522 157.996 370.79 167.789 378.227C174.176 383.008 181.309 388.426 195.679 388.639C195.999 388.639 196.318 388.639 196.638 388.639C211.754 388.639 217.928 384.495 223.782 380.458C232.618 374.402 240.921 368.665 283.501 381.521C293.827 384.602 300.214 382.264 303.834 379.715C308.198 376.527 310.859 371.109 311.072 365.159ZM284.034 379.608C240.495 366.434 231.66 372.49 222.399 378.758C216.65 382.689 210.689 386.833 195.467 386.62C181.841 386.514 175.134 381.521 168.747 376.633C162.999 372.277 157.676 368.24 148.309 368.24C140.964 368.24 131.17 370.684 116.586 377.483C109.135 380.883 94.9769 380.989 86.9931 375.89C83.2673 373.552 81.4576 370.365 81.4576 366.434C81.4576 362.503 83.3737 359.422 86.9931 356.978C94.9769 351.879 109.241 351.985 116.586 355.385C138.302 365.478 146.606 359.21 156.186 351.773C163.744 346.035 172.26 339.448 189.399 339.448C204.941 339.448 213.776 345.398 221.547 350.604C227.828 354.854 233.789 358.891 242.198 358.891C242.305 358.891 242.305 358.891 242.411 358.891C250.289 358.891 256.569 356.235 263.276 353.472C269.876 350.71 276.795 347.841 285.63 347.523C292.763 347.31 299.256 349.541 303.727 354.004C307.027 357.191 308.837 361.228 308.837 364.734C308.73 370.046 306.282 374.827 302.343 377.696C297.979 381.308 291.592 381.839 284.034 379.608Z" fill="#F8F8F8"/>
<path d="M207.708 126.748C207.708 133.442 215.905 138.86 225.911 138.86C235.918 138.86 244.114 133.442 244.114 126.748C244.114 120.055 235.918 114.637 225.911 114.637C215.799 114.637 207.708 120.055 207.708 126.748ZM241.879 126.748C241.879 132.273 234.64 136.735 225.805 136.735C216.969 136.735 209.731 132.273 209.731 126.748C209.731 121.224 216.969 116.762 225.805 116.762C234.747 116.762 241.879 121.224 241.879 126.748Z" fill="#F8F8F8"/>
<path d="M165.66 147.785C159.912 147.785 155.867 149.379 152.034 150.972C145.009 153.841 138.409 156.497 122.335 149.591C119.673 148.529 117.651 147.254 115.735 146.085C111.37 143.429 107.219 140.985 98.2767 140.667C89.3348 140.454 81.8833 142.791 77.3059 147.254C74.5382 149.91 73.0479 153.31 73.0479 156.709C73.0479 164.89 82.9478 174.027 96.2542 174.027C102.109 174.027 106.261 172.327 110.944 170.521C114.031 169.352 117.438 167.971 121.802 166.802C140.112 162.128 144.37 164.89 149.373 167.971C152.886 170.202 156.825 172.646 165.767 172.646C176.092 172.646 184.502 167.015 184.502 160.215C184.502 153.416 175.986 147.785 165.66 147.785ZM165.66 170.627C157.357 170.627 153.844 168.396 150.438 166.271C145.222 162.978 140.325 159.897 121.164 164.784C116.586 165.953 113.073 167.334 109.986 168.609C105.196 170.521 101.47 172.008 96.0413 172.008C86.2478 172.008 74.964 165.315 74.964 156.816C74.964 153.947 76.2414 151.185 78.5833 148.847C82.522 145.023 89.0155 142.898 96.7864 142.898C97.2122 142.898 97.638 142.898 97.9574 142.898C106.367 143.11 110.093 145.341 114.351 147.997C116.373 149.272 118.502 150.547 121.27 151.716C138.196 158.94 145.541 155.966 152.673 153.097C156.612 151.503 160.231 150.016 165.554 150.016C174.708 150.016 182.16 154.691 182.16 160.322C182.267 165.952 174.815 170.627 165.66 170.627Z" fill="#F8F8F8"/>
<path d="M241.453 442.611C241.453 434.324 220.163 424.124 195.36 424.124C170.557 424.124 149.267 434.324 149.267 442.611C149.267 449.41 165.447 456.529 195.36 456.529C225.273 456.529 241.453 449.41 241.453 442.611ZM151.289 442.611C151.289 436.874 169.386 426.249 195.254 426.249C221.121 426.249 239.218 436.874 239.218 442.611C239.218 449.517 216.012 454.404 195.254 454.404C174.496 454.404 151.289 449.623 151.289 442.611Z" fill="#F8F8F8"/>
<path d="M153.099 208.237C151.396 207.494 149.799 206.75 148.202 206.113C140.857 202.819 134.47 199.844 123.506 199.844C103.28 199.844 86.78 210.575 86.78 223.855C86.78 237.136 103.28 247.866 123.506 247.866C134.044 247.866 144.051 244.891 150.97 239.792C175.667 221.624 187.589 228.424 201.534 236.286C211.647 242.023 223.037 248.398 240.602 244.891C258.485 241.279 265.405 230.974 264.127 222.899C262.743 214.081 251.46 204.838 223.995 207.6C214.202 208.556 207.495 210.787 201.428 212.7C188.973 216.737 179.818 219.712 153.099 208.237ZM202.173 214.825C208.028 212.912 214.734 210.787 224.315 209.831C248.585 207.388 260.827 214.825 262.105 223.324C263.595 232.886 252.205 240.429 240.176 242.873C223.357 246.273 212.818 240.323 202.599 234.48C188.654 226.618 175.56 219.181 149.693 238.198C143.093 243.085 133.512 245.848 123.506 245.848C104.451 245.848 88.909 236.073 88.909 223.962C88.909 211.956 104.451 202.075 123.506 202.075C133.938 202.075 140.112 204.838 147.244 208.131C148.841 208.875 150.438 209.619 152.141 210.256C179.712 221.943 189.186 218.968 202.173 214.825Z" fill="#F8F8F8"/>
<path d="M200.789 179.02C201.641 184.439 205.686 189.007 212.179 191.77C216.544 193.682 221.653 194.638 226.976 194.638C229.424 194.638 231.873 194.426 234.321 194.001C241.56 192.832 248.266 190.07 253.269 186.139C264.234 177.533 271.472 176.683 280.627 183.164C285.098 186.245 291.805 187.414 298.617 186.351C304.046 185.501 309.05 183.27 312.456 180.189C316.075 177.002 317.779 173.071 317.14 169.352C315.969 161.809 305.643 157.134 294.253 158.94C288.185 159.897 282.863 162.553 278.179 164.89C269.876 169.034 264.34 171.69 259.444 163.934C254.44 156.072 241.453 152.035 227.934 154.266C219.95 155.541 212.712 158.728 207.602 163.403C202.386 168.077 199.937 173.602 200.789 179.02ZM208.986 164.996C213.776 160.64 220.695 157.665 228.253 156.391C230.595 155.966 232.937 155.859 235.173 155.859C245.073 155.859 253.802 159.365 257.527 165.209C263.489 174.558 270.727 170.946 279.03 166.909C283.608 164.678 288.717 162.128 294.466 161.171C304.685 159.578 313.946 163.403 315.011 169.777C315.543 172.752 314.053 175.939 311.072 178.702C307.879 181.57 303.301 183.589 298.298 184.333C292.017 185.289 285.843 184.333 281.798 181.464C271.792 174.452 263.595 175.302 251.885 184.545C247.202 188.264 240.815 190.92 234.002 191.982C226.337 193.151 218.886 192.407 213.031 189.857C207.283 187.307 203.663 183.376 202.918 178.702C202.173 174.027 204.302 169.14 208.986 164.996Z" fill="#F8F8F8"/>
<path d="M263.382 294.507C236.876 294.188 221.334 301.307 210.689 307.469C182.267 322.024 165.128 315.225 147.031 308C136.918 303.963 126.593 299.926 114.138 299.926C90.1865 299.926 71.3447 309.275 71.3447 321.281C71.3447 333.286 90.1865 342.636 114.138 342.636C127.87 342.636 140.857 338.173 153.418 333.924C173.857 326.911 193.125 320.431 215.266 330.949C226.231 336.155 242.944 339.236 261.253 339.236C293.614 339.236 319.056 329.886 319.056 317.881C319.162 305.238 294.147 294.826 263.382 294.507ZM261.36 337.005C243.689 337.005 226.87 334.03 216.331 328.93C193.338 317.987 172.792 324.999 152.886 331.799C140.431 336.048 127.657 340.404 114.244 340.404C91.7833 340.404 73.5802 331.799 73.5802 321.174C73.5802 310.55 91.7833 301.944 114.244 301.944C126.167 301.944 136.386 305.981 146.286 309.913C164.063 316.925 182.373 324.255 211.647 309.275C222.079 303.219 237.302 296.313 263.276 296.632C278.179 296.738 292.018 299.288 302.13 303.644C311.498 307.681 316.927 312.781 316.927 317.881C317.033 328.186 291.485 337.005 261.36 337.005Z" fill="#F8F8F8"/>
<path d="M160.125 256.578C143.412 266.353 134.151 263.909 121.27 260.616C115.522 259.128 109.028 257.428 101.045 256.685C93.8059 256.047 86.3543 258.384 81.3511 262.953C78.0511 265.928 76.3479 269.328 76.3479 272.621C76.3479 281.227 86.0349 288.77 96.9994 288.77C107.325 288.77 113.499 286.645 118.928 284.733C128.615 281.333 135.002 279.102 157.996 293.02C163.425 296.42 171.515 298.757 180.67 298.757C188.441 298.757 197.063 297.057 205.366 292.807C213.989 288.345 219.205 282.395 219.631 276.233C220.057 269.54 216.331 263.59 208.879 259.022C194.828 250.416 172.58 249.247 160.125 256.578ZM217.502 276.127C217.182 281.439 212.392 286.858 204.408 291.001C191.847 297.376 172.26 299.501 159.06 291.32C144.902 282.82 136.599 280.164 130.212 280.164C125.741 280.164 122.228 281.439 118.183 282.82C112.861 284.627 106.899 286.751 96.9994 286.751C86.1414 286.751 78.4769 279.314 78.4769 272.727C78.4769 270.071 80.0737 267.096 82.8414 264.547C87.5252 260.297 94.2317 258.172 100.938 258.809C108.815 259.553 115.202 261.253 120.844 262.74C133.725 266.034 143.838 268.69 161.296 258.491C172.899 251.691 194.721 252.86 207.921 260.934C212.392 263.697 217.928 268.69 217.502 276.127Z" fill="#F8F8F8"/>
<path d="M294.466 406.063C289.888 393.42 274.453 387.895 262.637 386.939C248.905 385.877 234.428 393.101 225.699 397.351C224.528 397.882 223.463 398.413 222.505 398.945C202.279 408.507 187.696 402.132 172.154 395.439C158.422 389.489 144.264 383.327 124.996 387.045C101.683 391.614 94.2317 402.663 94.9769 411.269C95.8285 420.831 107.219 431.243 130.212 431.774C130.531 431.774 130.744 431.774 131.064 431.774C141.177 431.774 150.544 427.949 160.338 423.912C178.009 416.687 197.915 408.507 228.253 420.725C269.556 437.299 285.63 427.949 290.634 423.062C295.424 418.6 296.808 412.438 294.466 406.063ZM229.105 418.812C197.915 406.275 177.583 414.669 159.593 421.999C149.693 426.037 140.325 429.861 130.319 429.649C108.603 429.224 97.9575 419.768 97.1059 411.056C96.2543 401.282 107.325 392.676 125.422 389.064C129.361 388.32 133.086 387.895 136.706 387.895C149.906 387.895 160.764 392.676 171.409 397.245C187.376 404.151 202.386 410.738 223.57 400.751C224.528 400.326 225.592 399.795 226.87 399.157C235.386 395.014 249.544 388.002 262.637 388.958C277.327 390.02 289.143 397.032 292.55 406.594C294.572 412.119 293.401 417.537 289.25 421.468C279.456 431.03 256.995 429.968 229.105 418.812Z" fill="#F8F8F8"/>
<path d="M253.908 455.785C253.908 462.478 262.105 467.897 272.111 467.897C282.117 467.897 290.314 462.478 290.314 455.785C290.314 449.092 282.117 443.673 272.111 443.673C262.105 443.673 253.908 449.092 253.908 455.785ZM288.185 455.785C288.185 461.31 280.947 465.772 272.111 465.772C263.276 465.772 256.037 461.31 256.037 455.785C256.037 450.26 263.276 445.798 272.111 445.798C280.947 445.798 288.185 450.26 288.185 455.785Z" fill="#F8F8F8"/>
<path d="M233.044 496.051C236.556 498.282 240.495 500.726 249.437 500.726C259.763 500.726 268.172 495.095 268.172 488.295C268.172 481.496 259.763 475.865 249.437 475.865C243.689 475.865 239.644 477.459 235.811 479.052C228.786 481.921 222.186 484.577 206.111 477.671C203.45 476.609 201.428 475.334 199.512 474.165C195.147 471.509 190.995 469.065 182.054 468.747C173.112 468.534 165.66 470.871 161.083 475.334C158.315 477.99 156.825 481.39 156.825 484.789C156.825 492.97 166.725 502.107 180.031 502.107C185.886 502.107 190.037 500.407 194.721 498.601C197.808 497.432 201.215 496.051 205.579 494.882C223.782 490.208 228.04 492.864 233.044 496.051ZM193.763 496.582C188.973 498.495 185.247 499.982 179.818 499.982C170.025 499.982 158.741 493.289 158.741 484.789C158.741 481.921 160.018 479.158 162.36 476.821C166.299 472.996 172.792 470.871 180.563 470.871C180.989 470.871 181.415 470.871 181.734 470.871C190.144 471.084 193.87 473.315 198.128 475.971C200.15 477.246 202.279 478.521 205.047 479.69C221.973 486.914 229.318 483.939 236.45 481.071C240.389 479.477 244.008 477.99 249.331 477.99C258.485 477.99 265.937 482.664 265.937 488.295C265.937 493.926 258.485 498.601 249.331 498.601C241.027 498.601 237.515 496.37 234.108 494.245C228.892 490.952 223.995 487.87 204.834 492.758C200.47 493.926 196.957 495.307 193.763 496.582Z" fill="#F8F8F8"/>
<path d="M68.8964 209.937C78.1576 209.937 85.8221 203.775 85.8221 196.338C85.8221 188.795 78.2641 182.739 68.8964 182.739C59.6352 182.739 51.9707 188.901 51.9707 196.338C51.9707 203.775 59.5287 209.937 68.8964 209.937ZM68.8964 184.758C76.9867 184.758 83.6931 189.963 83.6931 196.232C83.6931 202.606 77.0931 207.706 68.8964 207.706C60.8061 207.706 54.0997 202.5 54.0997 196.232C54.0997 189.963 60.6997 184.758 68.8964 184.758Z" fill="#F8F8F8"/>
<path d="M66.1285 386.727C57.9318 386.727 51.2253 391.826 51.2253 397.988C51.2253 404.257 57.9318 409.25 66.1285 409.25C74.3252 409.25 81.0316 404.15 81.0316 397.988C80.9252 391.72 74.3252 386.727 66.1285 386.727ZM66.1285 407.125C59.1027 407.125 53.3544 402.982 53.3544 397.988C53.3544 392.995 59.1027 388.851 66.1285 388.851C73.1542 388.851 78.9026 392.995 78.9026 397.988C78.9026 402.982 73.1542 407.125 66.1285 407.125Z" fill="#F8F8F8"/>
<path d="M327.465 39.9476C327.04 42.9224 327.998 45.8973 330.02 48.1284C332.682 51.2094 336.94 52.9093 341.836 52.9093C348.649 52.9093 351.417 51.6344 354.291 50.2532C357.059 48.9783 359.933 47.5972 367.385 47.5972H367.491C373.559 47.5972 378.03 50.8907 382.713 54.2905C387.504 57.7965 392.4 61.4088 399.213 61.4088C401.768 61.4088 404.536 60.8776 407.623 59.7089C416.033 56.4154 421.036 48.0221 419.652 39.2039C418.587 32.1918 413.052 24.3298 400.491 23.3736C392.507 22.8424 387.61 26.136 382.82 29.3233C378.455 32.1918 374.41 34.9542 368.023 35.1667C361.317 35.3791 358.762 33.3605 355.994 31.2356C353.439 29.217 350.778 27.1984 345.03 27.1984C336.194 27.1984 328.317 32.9355 327.465 39.9476ZM344.923 29.3233C349.927 29.3233 352.056 31.0232 354.61 32.9355C357.378 35.0604 360.572 37.6103 368.023 37.2915C375.049 37.079 379.626 33.998 383.991 31.1294C388.675 28.0483 393.039 25.0735 400.384 25.6047C407.729 26.136 416.139 30.067 417.629 39.6289C418.8 47.4909 414.436 55.0342 406.878 57.9028C396.446 61.94 390.484 57.4778 383.991 52.6968C379.201 49.1908 374.304 45.5785 367.491 45.5785H367.385C359.507 45.6848 356.42 47.0659 353.439 48.4471C350.778 49.722 348.223 50.8907 341.943 50.8907C337.685 50.8907 334.065 49.4033 331.723 46.8534C330.127 44.9411 329.382 42.71 329.701 40.2663C330.34 34.2105 337.259 29.3233 344.923 29.3233Z" fill="#F8F8F8"/>
<path d="M305.004 410.95C305.004 417.643 313.201 423.062 323.207 423.062C333.214 423.062 341.411 417.643 341.411 410.95C341.411 404.257 333.214 398.838 323.207 398.838C313.201 398.838 305.004 404.257 305.004 410.95ZM339.282 410.95C339.282 416.475 332.043 420.937 323.207 420.937C314.372 420.937 307.133 416.475 307.133 410.95C307.133 405.425 314.372 400.963 323.207 400.963C332.043 400.963 339.282 405.425 339.282 410.95Z" fill="#F8F8F8"/>
<path d="M367.172 122.286C367.172 115.38 358.762 109.856 348.437 109.856C339.495 109.856 335.556 112.299 332.043 114.53C327.04 117.718 322.782 120.374 304.472 115.699C300.108 114.53 296.595 113.149 293.614 111.981C288.824 110.068 284.672 108.475 278.924 108.475C265.618 108.475 255.718 117.612 255.718 125.792C255.718 129.192 257.208 132.592 259.976 135.248C264.34 139.498 271.366 141.835 279.669 141.835C280.095 141.835 280.521 141.835 280.947 141.835C289.888 141.623 294.04 139.073 298.405 136.417C300.427 135.248 302.45 133.973 305.005 132.911C321.079 126.111 327.785 128.767 334.704 131.529C338.643 133.123 342.688 134.717 348.33 134.717C358.762 134.717 367.172 129.086 367.172 122.286ZM348.33 132.592C343.008 132.592 339.388 131.104 335.449 129.511C328.317 126.642 320.972 123.667 304.046 130.892C301.279 132.061 299.15 133.336 297.127 134.611C292.869 137.16 289.143 139.498 280.734 139.71C272.431 139.923 265.511 137.798 261.253 133.761C258.911 131.423 257.634 128.661 257.634 125.792C257.634 117.187 269.024 110.599 278.711 110.599C284.14 110.599 287.866 112.087 292.656 113.999C295.743 115.274 299.256 116.655 303.834 117.824C322.995 122.711 327.891 119.63 333.108 116.337C336.514 114.212 340.027 111.981 348.33 111.981C357.485 111.981 364.936 116.655 364.936 122.286C365.043 127.917 357.591 132.592 348.33 132.592Z" fill="#F8F8F8"/>
<path d="M269.45 94.9819C269.45 86.9074 260.827 80.4265 250.182 80.4265C239.537 80.4265 230.915 87.0136 230.915 94.9819C230.915 103.056 239.537 109.537 250.182 109.537C260.827 109.537 269.45 102.95 269.45 94.9819ZM233.044 94.9819C233.044 88.076 240.708 82.5514 250.182 82.5514C259.656 82.5514 267.321 88.1823 267.321 94.9819C267.321 101.888 259.656 107.412 250.182 107.412C240.708 107.412 233.044 101.781 233.044 94.9819Z" fill="#F8F8F8"/>
<path d="M152.993 61.8338C152.993 75.1142 169.493 85.8448 189.718 85.8448C200.683 85.8448 206.963 82.9763 214.415 79.5765C216.012 78.8328 217.608 78.1953 219.312 77.4516C246.137 66.0835 255.186 68.9521 267.853 72.9894C273.814 74.9018 280.627 77.0266 290.421 78.0891C317.885 80.8514 329.169 71.6082 330.553 62.79C331.724 54.8217 324.911 44.5161 307.027 40.7976C289.463 37.1853 278.073 43.6662 267.96 49.4033C254.121 57.2653 242.092 64.0649 217.395 45.8973C210.476 40.7976 200.47 37.8228 189.931 37.8228C169.386 37.8228 152.993 48.5534 152.993 61.8338ZM189.612 39.9476C199.725 39.9476 209.199 42.71 215.799 47.5972C241.56 66.6148 254.76 59.1777 268.705 51.3157C278.924 45.5785 289.463 39.5227 306.282 42.9224C318.311 45.3661 329.595 52.9093 328.104 62.4713C326.827 70.9707 314.585 78.4078 290.314 75.9642C280.734 75.008 274.134 72.8831 268.173 70.9707C255.292 66.721 245.818 63.7462 218.354 75.433C216.65 76.1767 215.054 76.9204 213.457 77.5578C206.325 80.7452 200.15 83.6137 189.718 83.6137C170.664 83.6137 155.122 73.8393 155.122 61.7276C155.122 49.722 170.557 39.9476 189.612 39.9476Z" fill="#F8F8F8"/>
<path d="M363.872 155.541C363.872 147.466 355.249 140.985 344.604 140.985C333.959 140.985 325.336 147.572 325.336 155.541C325.336 163.615 333.959 170.096 344.604 170.096C355.143 170.202 363.872 163.615 363.872 155.541ZM327.359 155.541C327.359 148.635 335.023 143.11 344.498 143.11C353.972 143.11 361.636 148.741 361.636 155.541C361.636 162.446 353.972 167.971 344.498 167.971C335.023 168.077 327.359 162.446 327.359 155.541Z" fill="#F8F8F8"/>
<path d="M130.425 29.4294C121.164 29.4294 113.499 35.5916 113.499 43.0286C113.499 50.5719 121.057 56.6278 130.425 56.6278C139.686 56.6278 147.351 50.4657 147.351 43.0286C147.244 35.4853 139.686 29.4294 130.425 29.4294ZM130.425 54.5029C122.335 54.5029 115.628 49.297 115.628 43.0286C115.628 36.654 122.228 31.5543 130.425 31.5543C138.515 31.5543 145.222 36.7602 145.222 43.0286C145.115 49.4032 138.515 54.5029 130.425 54.5029Z" fill="#F8F8F8"/>
<path d="M6.83545 148.529C6.83545 155.222 15.0322 160.64 25.0386 160.64C35.0449 160.64 43.2417 155.222 43.2417 148.529C43.2417 141.835 35.0449 136.417 25.0386 136.417C14.9257 136.417 6.83545 141.941 6.83545 148.529ZM41.1126 148.529C41.1126 154.053 33.874 158.515 25.0386 158.515C16.2031 158.515 8.96447 154.053 8.96447 148.529C8.96447 143.004 16.2031 138.542 25.0386 138.542C33.874 138.542 41.1126 143.11 41.1126 148.529Z" fill="#F8F8F8"/>
<path d="M61.4447 87.1197C66.4479 79.3639 71.8769 82.1262 80.1801 86.1635C84.8639 88.5008 90.1865 91.1569 96.2542 92.1131C107.644 93.9192 117.97 89.2445 119.141 81.7012C120.312 74.1579 112.009 66.5084 100.619 64.7023C93.8058 63.6398 86.9929 64.8085 82.6284 67.8896C73.3672 74.2642 66.235 73.5205 55.2706 64.9148C50.2674 60.9837 43.561 58.2214 36.3223 57.0527C28.3385 55.7778 20.4611 56.6278 14.0741 59.3901C7.58055 62.2587 3.64187 66.7209 2.68381 72.1393C1.8322 77.5577 4.28057 83.0824 9.49667 87.7571C14.6063 92.3256 21.845 95.6191 29.8288 96.8941C32.2772 97.319 34.7255 97.4253 37.0675 97.4253C47.819 97.4253 57.2931 93.6005 61.4447 87.1197ZM30.2546 94.7692C22.5901 93.6005 15.7773 90.5194 10.987 86.1635C6.30314 81.9137 4.17412 77.1328 4.91928 72.458C5.66444 67.7833 9.28377 63.8523 15.0321 61.3025C19.0773 59.4963 23.8675 58.6464 28.9772 58.6464C31.3191 58.6464 33.661 58.8589 36.0029 59.1776C42.8158 60.24 49.2029 62.8961 53.8867 66.6146C65.5963 75.8578 73.793 76.7078 83.7994 69.6957C87.8445 66.9334 94.0187 65.8709 100.299 66.8271C110.625 68.4208 118.077 75.0079 117.119 81.3825C116.054 87.7571 106.899 91.6881 96.5735 89.9882C90.8252 89.032 85.6091 86.4822 81.1381 84.2511C72.835 80.1076 65.5963 76.6015 59.6351 85.951C55.0577 93.1755 42.9223 96.7878 30.2546 94.7692Z" fill="#F8F8F8"/>
<path d="M184.076 99.6565C165.979 90.4133 146.818 93.0694 136.705 99.444C113.606 113.362 107.219 111.131 97.638 107.731C92.209 105.819 86.0348 103.694 75.7091 103.694C64.7447 103.694 55.0576 111.237 55.0576 119.843C55.0576 123.136 56.8673 126.642 60.0608 129.511C65.1705 134.079 72.5156 136.417 79.7542 135.779C87.7381 135.036 94.2316 133.336 99.9799 131.848C112.86 128.555 122.122 126.111 138.835 135.886C144.37 139.073 151.822 140.666 159.699 140.666C169.492 140.666 179.818 138.223 187.695 133.442C195.147 128.873 198.873 122.924 198.447 116.23C198.021 110.068 192.805 104.012 184.076 99.6565ZM186.525 131.636C173.325 139.71 151.609 140.879 139.899 134.079C130.638 128.661 123.399 126.855 116.799 126.855C110.944 126.855 105.515 128.236 99.4477 129.83C93.8058 131.317 87.4187 133.017 79.5413 133.761C72.8349 134.398 66.1285 132.273 61.4447 128.024C58.6769 125.474 57.0802 122.499 57.0802 119.843C57.0802 113.256 64.6382 105.819 75.6026 105.819C85.609 105.819 91.5703 107.943 96.7864 109.75C106.686 113.149 113.819 115.699 137.77 101.25C150.97 92.9631 170.557 95.088 183.118 101.569C191.102 105.606 195.892 111.025 196.212 116.443C196.744 123.668 191.208 128.661 186.525 131.636Z" fill="#F8F8F8"/>
<path d="M409.22 125.899C409.22 118.887 402.194 113.256 393.572 113.256C384.949 113.256 377.923 118.993 377.923 125.899C377.923 132.911 384.949 138.542 393.572 138.542C402.194 138.542 409.22 132.911 409.22 125.899ZM393.572 136.417C386.12 136.417 380.052 131.636 380.052 125.899C380.052 120.055 386.12 115.38 393.572 115.38C401.023 115.38 407.091 120.161 407.091 125.899C407.091 131.742 401.023 136.417 393.572 136.417Z" fill="#F8F8F8"/>
<path d="M107.964 503.276C114.031 503.063 116.373 504.869 118.822 506.888C121.164 508.694 123.612 510.607 128.828 510.607C136.812 510.607 143.944 505.401 144.796 498.92C145.115 496.157 144.37 493.501 142.454 491.376C140.006 488.614 136.067 487.02 131.702 487.02C125.528 487.02 122.867 488.189 120.419 489.358C117.864 490.527 115.309 491.695 108.602 491.801H108.496C102.961 491.801 98.9155 488.827 94.6574 485.639C88.6962 481.177 82.4156 476.609 71.9834 480.646C64.3189 483.621 59.7415 491.376 61.0189 499.451C61.977 505.932 67.0866 513.05 78.5833 513.9C79.1156 513.9 79.7543 514.006 80.2865 514.006C86.6736 514.006 90.8252 511.244 94.7639 508.588C98.3832 506.038 102.109 503.488 107.964 503.276ZM78.4769 511.882C71.7705 511.35 64.2124 507.844 62.935 499.239C61.8705 492.12 65.8092 485.321 72.6221 482.771C75.1769 481.815 77.4124 481.39 79.5414 481.39C85.0768 481.39 89.122 484.364 93.38 487.445C97.7445 490.633 102.215 493.926 108.496 493.926H108.602C115.735 493.82 118.609 492.545 121.27 491.27C123.719 490.102 125.954 489.039 131.702 489.039C135.535 489.039 138.835 490.42 140.857 492.651C142.347 494.351 142.986 496.37 142.667 498.495C141.922 503.913 135.747 508.269 128.828 508.269C124.357 508.269 122.335 506.782 120.099 504.976C117.544 502.957 114.67 500.726 107.857 500.938C101.47 501.151 97.3187 503.913 93.2735 506.569C89.122 509.65 85.0768 512.307 78.4769 511.882Z" fill="#F8F8F8"/>
<path d="M365.043 446.436C376.859 446.436 386.546 439.211 386.546 430.286C386.546 421.362 376.965 414.137 365.043 414.137C353.12 414.137 343.54 421.362 343.54 430.286C343.54 439.211 353.227 446.436 365.043 446.436ZM365.043 416.156C375.688 416.156 384.417 422.424 384.417 430.18C384.417 437.936 375.794 444.204 365.043 444.204C354.291 444.204 345.669 437.936 345.669 430.18C345.669 422.531 354.398 416.156 365.043 416.156Z" fill="#F8F8F8"/>
<path d="M335.662 203.35C335.662 197.826 330.127 193.257 323.314 193.257C316.501 193.257 310.966 197.719 310.966 203.35C310.966 208.875 316.501 213.443 323.314 213.443C330.127 213.443 335.662 208.875 335.662 203.35ZM313.095 203.35C313.095 198.994 317.672 195.382 323.314 195.382C328.956 195.382 333.533 198.888 333.533 203.35C333.533 207.706 328.956 211.318 323.314 211.318C317.672 211.318 313.095 207.706 313.095 203.35Z" fill="#F8F8F8"/>
<path d="M432.746 88.501C433.171 85.3137 432.213 82.2326 430.084 79.789C427.21 76.6017 422.739 74.6893 417.63 74.6893C410.391 74.6893 407.41 76.0705 404.43 77.4516C401.449 78.8328 398.362 80.214 390.485 80.3202H390.378C383.885 80.3202 379.094 76.8142 374.091 73.0957C367.065 67.8897 359.827 62.5775 347.691 67.2523C338.749 70.652 333.533 79.6828 334.917 89.0322C336.088 96.4692 341.943 104.862 355.249 105.819C355.888 105.819 356.527 105.925 357.165 105.925C364.51 105.925 369.407 102.738 373.985 99.5503C378.562 96.4692 382.926 93.6007 389.846 93.2819C396.978 93.0694 399.746 95.1943 402.726 97.5317C405.494 99.6565 408.262 101.888 414.33 101.888C423.484 101.994 431.787 95.938 432.746 88.501ZM414.223 99.869C408.901 99.869 406.559 98.0629 403.897 96.0443C400.917 93.7069 397.51 91.1571 389.633 91.3695C382.181 91.582 377.391 94.8756 372.707 97.9566C367.704 101.25 363.02 104.438 355.249 103.906C347.372 103.375 338.43 99.1253 336.833 88.9259C335.556 80.5327 340.24 72.4582 348.223 69.3771C351.204 68.2084 353.972 67.6772 356.42 67.6772C362.914 67.6772 367.704 71.1833 372.707 74.9018C377.817 78.6203 383.033 82.5513 390.272 82.5513H390.378C398.681 82.4451 401.981 80.9577 405.175 79.4703C408.049 78.1953 410.71 76.9204 417.417 76.9204C421.888 76.9204 425.933 78.5141 428.275 81.2764C430.084 83.295 430.829 85.7386 430.51 88.2885C429.871 94.5568 422.42 99.869 414.223 99.869Z" fill="#F8F8F8"/>
<path d="M157.889 191.982C157.889 198.675 166.086 204.094 176.092 204.094C186.099 204.094 194.296 198.675 194.296 191.982C194.296 185.289 186.099 179.87 176.092 179.87C165.98 179.87 157.889 185.289 157.889 191.982ZM192.167 191.982C192.167 197.507 184.928 201.969 176.092 201.969C167.257 201.969 160.018 197.507 160.018 191.982C160.018 186.457 167.257 181.995 176.092 181.995C184.928 181.995 192.167 186.457 192.167 191.982Z" fill="#F8F8F8"/>
<path d="M446.478 473.209C436.471 473.209 428.275 478.627 428.275 485.321C428.275 492.014 436.471 497.432 446.478 497.432C456.484 497.432 464.681 492.014 464.681 485.321C464.681 478.627 456.591 473.209 446.478 473.209ZM446.478 495.308C437.642 495.308 430.404 490.845 430.404 485.321C430.404 479.796 437.642 475.334 446.478 475.334C455.313 475.334 462.552 479.796 462.552 485.321C462.552 490.845 455.42 495.308 446.478 495.308Z" fill="#F8F8F8"/>
<path d="M434.768 465.347C450.842 458.547 457.549 461.203 464.468 463.966C468.407 465.559 472.452 467.153 478.094 467.153C488.42 467.153 496.829 461.522 496.829 454.722C496.829 447.923 488.42 442.292 478.094 442.292C469.152 442.292 465.213 444.736 461.7 446.967C456.697 450.154 452.439 452.81 434.13 448.135C429.765 446.967 426.252 445.585 423.272 444.417C418.481 442.504 414.33 440.911 408.581 440.911C395.275 440.911 385.375 450.048 385.375 458.228C385.375 461.628 386.865 465.028 389.633 467.684C393.998 471.934 401.023 474.271 409.326 474.271C409.752 474.271 410.178 474.271 410.604 474.271C419.546 474.059 423.697 471.509 428.062 468.853C430.191 467.684 432.213 466.515 434.768 465.347ZM410.71 472.146C402.301 472.359 395.488 470.234 391.23 466.197C388.888 463.859 387.61 461.097 387.61 458.228C387.61 449.623 399.001 443.036 408.688 443.036C414.117 443.036 417.843 444.523 422.633 446.435C425.72 447.71 429.233 449.092 433.81 450.26C452.971 455.147 457.868 452.066 463.084 448.773C466.491 446.648 470.004 444.417 478.307 444.417C487.461 444.417 494.913 449.092 494.913 454.722C494.913 460.353 487.461 465.028 478.307 465.028C472.984 465.028 469.365 463.541 465.426 461.947C458.294 459.078 450.949 456.104 434.023 463.328C431.255 464.497 429.126 465.772 427.104 467.047C422.739 469.703 419.12 471.934 410.71 472.146Z" fill="#F8F8F8"/>
<path d="M442.326 176.152C467.129 176.152 488.419 165.952 488.419 157.665C488.419 150.866 472.239 143.748 442.326 143.748C412.413 143.748 396.233 150.866 396.233 157.665C396.126 166.059 417.417 176.152 442.326 176.152ZM442.326 145.979C463.19 145.979 486.29 150.866 486.29 157.772C486.29 163.509 468.194 174.133 442.326 174.133C416.458 174.133 398.362 163.509 398.362 157.772C398.255 150.76 421.462 145.979 442.326 145.979Z" fill="#F8F8F8"/>
<path d="M348.011 349.01C355.994 348.267 362.488 346.567 368.236 345.079C381.117 341.679 390.378 339.342 407.091 349.116C412.626 352.304 420.078 353.897 427.955 353.897C437.749 353.897 448.074 351.454 455.952 346.673C463.403 342.104 467.129 336.155 466.703 329.461C466.278 323.299 461.061 317.243 452.439 312.887C434.342 303.644 415.181 306.3 405.068 312.675C381.968 326.593 375.581 324.362 366.001 320.962C360.572 319.05 354.398 316.925 344.072 316.925C333.107 316.925 323.42 324.468 323.42 333.074C323.42 336.367 325.23 339.873 328.424 342.742C333.427 347.417 340.772 349.754 348.011 349.01ZM325.443 333.074C325.443 326.487 333.001 319.05 343.965 319.05C353.972 319.05 359.933 321.174 365.149 322.981C375.049 326.38 382.181 328.93 406.133 314.481C419.333 306.194 438.92 308.319 451.481 314.8C459.465 318.837 464.255 324.255 464.574 329.674C465.107 337.005 459.571 341.998 454.887 344.973C441.687 353.047 419.971 354.216 408.262 347.417C399.001 341.998 391.762 340.192 385.162 340.192C379.307 340.192 373.878 341.573 367.81 343.167C362.169 344.654 355.781 346.354 347.904 347.098C341.198 347.735 334.491 345.61 329.807 341.361C327.04 338.705 325.443 335.73 325.443 333.074Z" fill="#F8F8F8"/>
<path d="M496.19 83.2949C496.19 75.2204 487.568 68.7395 476.923 68.7395C466.278 68.7395 457.655 75.3266 457.655 83.2949C457.655 91.3694 466.278 97.8502 476.923 97.8502C487.568 97.8502 496.19 91.2631 496.19 83.2949ZM459.784 83.2949C459.784 76.389 467.449 70.8644 476.923 70.8644C486.397 70.8644 494.061 76.4953 494.061 83.2949C494.061 90.2007 486.397 95.7254 476.923 95.7254C467.449 95.7254 459.784 90.0945 459.784 83.2949Z" fill="#F8F8F8"/>
<path d="M156.612 513.263C148.628 512.731 143.731 516.025 138.941 519.212C134.577 522.081 130.532 524.843 124.144 525.056C117.438 525.268 114.883 523.249 112.116 521.125C109.561 519.106 106.899 517.087 101.151 517.087C92.4221 517.087 84.6512 522.825 83.6931 529.837C83.6931 530.049 83.6931 530.368 83.5867 530.58H85.7157C85.7157 530.368 85.7157 530.262 85.7157 530.049C86.4608 524.099 93.3802 519.212 101.045 519.212C106.048 519.212 108.177 520.912 110.732 522.825C113.499 524.949 116.693 527.499 124.144 527.181C131.17 526.968 135.748 523.887 140.112 521.018C144.796 517.937 149.16 514.962 156.506 515.494C163.851 516.025 172.26 519.956 173.751 529.518C173.857 529.837 173.857 530.262 173.857 530.58H175.986C175.986 530.155 175.88 529.624 175.88 529.199C174.709 521.975 169.067 514.112 156.612 513.263Z" fill="#F8F8F8"/>
<path d="M323.527 517.937C305.43 508.694 286.269 511.35 276.156 517.725C253.056 531.643 246.669 529.412 237.089 526.012C231.66 524.1 225.486 521.975 215.16 521.975C207.708 521.975 200.789 525.481 197.17 530.474H199.937C203.131 526.862 208.56 524.1 215.16 524.1C225.166 524.1 231.128 526.224 236.344 528.031C239.324 529.093 242.092 530.049 245.073 530.474H251.779C257.74 529.624 265.511 526.649 277.327 519.531C290.527 511.244 310.114 513.369 322.675 519.85C328.53 522.825 332.682 526.543 334.598 530.474H336.94C334.811 525.799 330.233 521.337 323.527 517.937Z" fill="#F8F8F8"/>
<path d="M378.349 516.662C368.023 516.662 359.614 522.824 359.082 530.474H361.211C361.743 523.993 369.194 518.787 378.349 518.787C387.504 518.787 394.955 523.993 395.488 530.474H397.617C397.084 522.718 388.675 516.662 378.349 516.662Z" fill="#F8F8F8"/>
<path d="M97.9575 12.5368C104.77 12.5368 107.538 11.2619 110.412 9.88069C113.18 8.60577 116.054 7.2246 123.506 7.2246H123.612C129.68 7.2246 134.151 10.5182 138.835 13.9179C143.625 17.424 148.522 21.0363 155.335 21.0363C157.889 21.0363 160.657 20.505 163.744 19.3364C171.834 16.2553 176.625 8.28704 175.88 -0.106201H173.751C174.496 7.43709 170.238 14.5554 162.999 17.3177C152.567 21.355 146.606 16.8928 140.112 12.1118C135.322 8.60577 130.425 4.99349 123.612 4.99349H123.506C115.628 5.09973 112.541 6.4809 109.561 7.86207C106.899 9.13699 104.345 10.3057 98.0639 10.3057C93.8059 10.3057 90.1866 8.81826 87.8447 6.26841C86.2479 4.46227 85.5027 2.23116 85.8221 -0.106201H83.6931C83.4802 2.76237 84.3318 5.41846 86.2479 7.64958C88.9092 10.8369 93.1672 12.5368 97.9575 12.5368Z" fill="#F8F8F8"/>
<path d="M199.512 17.6364C204.621 22.2049 211.966 24.5423 219.205 23.9048C227.189 23.1611 233.682 21.4612 239.431 19.9738C252.311 16.6802 261.572 14.2366 278.285 24.011C283.821 27.1984 291.272 28.792 299.15 28.792C308.943 28.792 319.269 26.3484 327.146 21.5674C334.598 16.999 338.324 11.0493 337.898 4.35599C337.791 2.86858 337.472 1.48741 336.833 0H334.491C335.236 1.48741 335.769 2.97482 335.769 4.46223C336.301 11.793 330.766 16.7865 326.082 19.7613C312.882 27.8358 291.166 29.0045 279.456 22.2049C270.195 16.7865 262.956 14.9803 256.356 14.9803C250.502 14.9803 245.073 16.3615 239.005 17.9552C233.363 19.4426 226.976 21.1425 219.099 21.8862C212.392 22.5236 205.686 20.3988 201.002 16.149C198.234 13.5992 196.637 10.6244 196.637 7.96827C196.637 5.20593 197.915 2.4436 200.15 0H197.383C195.573 2.33736 194.508 5.09969 194.508 7.96827C194.402 11.2618 196.212 14.6616 199.512 17.6364Z" fill="#F8F8F8"/>
<path d="M378.349 15.6178C388.994 15.6178 397.617 9.0307 397.617 1.06244C397.617 0.743705 397.617 0.318731 397.51 0H395.381C395.381 0.318731 395.488 0.743705 395.488 1.06244C395.488 7.96827 387.823 13.4929 378.349 13.4929C368.875 13.4929 361.211 7.86202 361.211 1.06244C361.211 0.743705 361.211 0.318731 361.317 0H359.188C359.188 0.318731 359.082 0.743705 359.082 1.06244C359.082 9.13695 367.704 15.6178 378.349 15.6178Z" fill="#F8F8F8"/>
<path d="M461.594 513.263C456.165 511.35 449.991 509.225 439.665 509.225C428.7 509.225 419.013 516.769 419.013 525.374C419.013 527.074 419.439 528.774 420.397 530.474H422.846C421.781 528.774 421.142 527.074 421.142 525.374C421.142 518.787 428.7 511.35 439.665 511.35C449.671 511.35 455.633 513.475 460.849 515.281C470.11 518.575 477.029 520.912 497.894 509.119V506.676C477.136 518.681 470.855 516.45 461.594 513.263Z" fill="#F8F8F8"/>
<path d="M318.417 457.591C328.424 457.591 336.62 452.173 336.62 445.479C336.62 438.786 328.424 433.367 318.417 433.367C308.411 433.367 300.214 438.786 300.214 445.479C300.214 452.173 308.411 457.591 318.417 457.591ZM318.417 435.599C327.253 435.599 334.491 440.061 334.491 445.585C334.491 451.11 327.253 455.572 318.417 455.572C309.582 455.572 302.343 451.11 302.343 445.585C302.343 440.061 309.582 435.599 318.417 435.599Z" fill="#F8F8F8"/>
<path d="M139.26 456.741C132.448 456.741 126.912 461.203 126.912 466.834C126.912 472.359 132.448 476.927 139.26 476.927C146.073 476.927 151.609 472.465 151.609 466.834C151.609 461.31 146.073 456.741 139.26 456.741ZM139.26 474.696C133.619 474.696 129.041 471.19 129.041 466.728C129.041 462.372 133.619 458.76 139.26 458.76C144.902 458.76 149.48 462.266 149.48 466.728C149.48 471.19 144.902 474.696 139.26 474.696Z" fill="#F8F8F8"/>
<path d="M24.5063 16.0428C34.2998 16.0428 44.6255 13.5992 52.5029 8.81822C56.548 6.26837 59.5286 3.29355 61.3383 0H58.8899C56.9738 3.08106 53.9932 5.31218 51.3319 7.01207C38.132 15.0866 16.416 16.2553 4.70641 9.45568C2.36449 8.07451 0.129019 6.90583 -2 5.94964V8.287C-0.190334 9.13695 1.72578 10.0931 3.6419 11.2618C9.17735 14.5554 16.6289 16.0428 24.5063 16.0428Z" fill="#F8F8F8"/>
<path d="M45.1578 51.847C51.119 53.7594 57.9319 55.8842 67.7254 56.9467C95.1897 59.709 106.473 50.4658 107.857 41.6476C109.028 33.6793 102.215 23.3737 84.3317 19.6552C66.7673 16.0429 55.3771 22.5238 45.2642 28.2609C32.0643 35.698 20.5676 42.2851 -1.89355 27.0922V29.7483C20.8869 44.6224 33.2353 37.6104 46.3287 30.1733C56.548 24.4362 67.0866 18.3803 83.9059 21.7801C95.9349 24.2237 107.219 31.767 105.835 41.3289C104.557 49.8284 92.3155 57.2654 68.0447 54.8218C58.4641 53.8656 51.8642 51.7407 45.9029 49.8284C33.1288 45.7911 23.8676 42.9225 -2 53.4406V55.778C23.7611 45.0474 32.703 47.916 45.1578 51.847Z" fill="#F8F8F8"/>
<path d="M18.9708 127.492C29.2966 127.492 37.7062 121.861 37.7062 115.062C37.7062 108.262 29.2966 102.631 18.9708 102.631C10.029 102.631 6.09027 105.075 2.57739 107.306C1.08708 108.262 -0.296785 109.112 -2 109.75V111.981C0.235469 111.237 1.93868 110.175 3.74835 109.006C7.15478 106.881 10.6677 104.65 18.9708 104.65C28.1256 104.65 35.5772 109.325 35.5772 114.956C35.5772 120.693 28.1256 125.261 18.9708 125.261C13.6483 125.261 10.029 123.774 6.09027 122.18C3.53545 121.118 0.980626 120.162 -2 119.524V121.649C0.661273 122.18 2.89674 123.136 5.23866 124.093C9.17735 125.899 13.2225 127.492 18.9708 127.492Z" fill="#F8F8F8"/>
<path d="M10.4548 214.506C22.2708 213.656 37.7062 208.131 42.2836 195.382C44.6255 189.007 43.2416 182.739 38.4513 178.277C34.4062 174.452 23.3353 167.652 -2 173.602V175.833C15.8838 171.69 29.8288 172.965 36.961 179.764C41.0062 183.695 42.2836 189.114 40.261 194.638C36.7481 204.306 25.0385 211.212 10.3483 212.275C6.30317 212.593 2.15159 212.062 -2 211.212V213.337C2.15159 214.293 6.30317 214.825 10.4548 214.506Z" fill="#F8F8F8"/>
<path d="M33.3417 256.791C41.1126 257.109 48.0319 254.56 53.0351 249.672C56.6545 246.06 58.8899 241.492 58.7835 237.454C58.677 231.505 55.9093 226.086 51.4384 222.793C47.9255 220.243 41.5384 217.799 31.1062 220.987C16.5225 225.449 5.87737 227.68 -2.10645 228.424V230.549C6.09028 229.805 16.8418 227.468 31.7449 223.005C39.303 220.774 45.69 221.305 50.161 224.493C54.0996 227.361 56.548 232.142 56.6545 237.454C56.7609 240.96 54.8448 244.998 51.5448 248.185C46.9674 252.647 40.5804 254.985 33.4482 254.666C24.6127 254.347 17.6934 251.479 11.0935 248.716C6.72898 246.91 2.5774 245.21 -1.99999 244.148V246.379C2.25804 247.335 6.19673 249.035 10.2419 250.629C17.0547 253.497 24.1869 256.366 33.3417 256.791Z" fill="#F8F8F8"/>
<path d="M11.0935 312.25C41.8578 311.931 66.8737 301.413 66.8737 288.876C66.8737 276.871 41.5384 267.521 9.0709 267.521C5.34511 267.521 1.61933 267.628 -2 267.946V270.071C1.61933 269.859 5.34511 269.646 9.0709 269.646C39.1965 269.646 64.7447 278.464 64.7447 288.876C64.7447 293.976 59.4222 299.076 49.948 303.113C39.7288 307.469 25.8901 309.913 11.0935 310.125C6.40962 310.125 2.04513 310.019 -2 309.594V311.719C1.61933 312.037 5.45156 312.25 9.60315 312.25C10.1354 312.25 10.6677 312.25 11.0935 312.25Z" fill="#F8F8F8"/>
<path d="M11.9451 378.44C12.9031 372.065 8.75154 364.309 -2 359.528V361.972C5.45156 365.584 10.8806 371.321 9.81605 378.121C9.0709 382.689 5.23866 386.939 -2 389.595V391.932C6.94188 388.958 11.1999 383.645 11.9451 378.44Z" fill="#F8F8F8"/>
<path d="M24.3998 420.618C25.5708 413.075 17.2676 405.425 5.87737 403.619C3.2161 403.194 0.448371 403.088 -2 403.407V405.532C0.448371 405.319 3.00319 405.319 5.55802 405.744C15.8838 407.338 23.3353 413.925 22.3773 420.3C21.3128 426.674 12.158 430.605 1.83223 428.905C0.554822 428.693 -0.722589 428.374 -2 428.055V430.287C-0.82904 430.605 0.34192 430.818 1.51288 431.03C12.9031 432.836 23.2289 428.162 24.3998 420.618Z" fill="#F8F8F8"/>
<path d="M24.2934 482.771C24.2934 474.696 15.6708 468.215 5.02575 468.215C2.57738 468.215 0.235464 468.534 -1.89355 469.172V471.403C0.235464 470.765 2.57738 470.34 5.02575 470.34C14.4999 470.34 22.1644 475.971 22.1644 482.771C22.1644 489.677 14.4999 495.201 5.02575 495.201C2.57738 495.201 0.235464 494.776 -1.89355 494.139V496.37C0.235464 497.007 2.57738 497.326 5.02575 497.326C15.5644 497.432 24.2934 490.845 24.2934 482.771Z" fill="#F8F8F8"/>
<path d="M11.7322 345.079C17.9063 345.079 22.3773 348.373 27.1675 351.772C31.9578 355.278 36.8546 358.891 43.6674 358.891C46.2223 358.891 48.99 358.36 52.0771 357.191C60.4867 353.897 65.4899 345.504 64.106 336.686C63.0415 329.674 57.5061 321.812 44.9448 320.856C36.961 320.324 32.0643 323.618 27.274 326.805C22.9095 329.674 18.8644 332.436 12.4773 332.649C5.77091 332.861 3.21608 330.842 0.44836 328.718C-0.296796 328.186 -1.04195 327.549 -1.78711 327.018V329.568C-1.46776 329.78 -1.1484 330.099 -0.829051 330.311C1.93867 332.436 5.1322 334.986 12.5838 334.667C19.6095 334.455 24.1869 331.374 28.5514 328.505C33.2352 325.424 37.5997 322.449 44.9448 322.98C52.29 323.512 60.6996 327.443 62.1899 337.005C63.3609 344.867 58.9964 352.41 51.4384 355.278C41.0062 359.316 35.0449 354.854 28.5514 350.073C23.7611 346.567 18.8644 342.954 12.0515 342.954H11.9451C4.28059 343.06 1.19352 344.335 -1.68066 345.717V348.054C-1.46776 347.948 -1.25485 347.841 -1.04195 347.735C1.40642 346.46 4.28059 345.185 11.7322 345.079Z" fill="#F8F8F8"/>
<path d="M48.8835 505.188C30.7869 495.945 11.6257 498.601 1.51288 504.976C0.34192 505.719 -0.82904 506.357 -2 506.994V509.438C-0.509687 508.588 0.980626 507.738 2.57739 506.782C15.7773 498.495 35.3643 500.62 47.9255 507.101C55.9093 511.138 60.6996 516.556 61.0189 521.975C61.2318 525.268 60.2738 528.137 58.677 530.474H61.2318C62.7222 527.818 63.4673 524.843 63.2544 521.762C62.7222 515.6 57.5061 509.544 48.8835 505.188Z" fill="#F8F8F8"/>
<path d="M484.906 482.771C484.906 489.145 490.336 494.564 498 496.582V494.351C491.613 492.545 487.036 487.977 487.036 482.771C487.036 477.459 491.613 472.996 498 471.19V468.959C490.336 470.978 484.906 476.396 484.906 482.771Z" fill="#F8F8F8"/>
<path d="M459.678 403.726C454.674 399.795 447.968 397.032 440.729 395.864C432.745 394.589 424.868 395.439 418.481 398.201C411.988 401.069 408.049 405.532 407.091 410.95C406.239 416.369 408.688 421.893 413.904 426.568C419.013 431.136 426.252 434.324 434.236 435.705C436.684 436.13 439.133 436.236 441.474 436.236C452.12 436.236 461.594 432.411 465.745 425.93C470.748 418.175 476.177 420.937 484.481 424.974C488.419 426.887 492.784 429.118 497.681 430.286V428.055C493.21 426.887 489.058 424.868 485.332 423.062C477.029 418.918 469.79 415.412 463.829 424.762C459.252 431.986 447.116 435.599 434.449 433.58C426.784 432.411 419.971 429.33 415.181 424.974C410.497 420.724 408.368 415.944 409.113 411.269C409.859 406.594 413.478 402.663 419.226 400.113C423.271 398.307 428.062 397.457 433.171 397.457C435.513 397.457 437.855 397.67 440.197 397.988C447.01 399.051 453.397 401.707 458.081 405.425C469.79 414.669 477.987 415.519 487.994 408.506C490.548 406.807 493.848 405.744 497.574 405.425V403.301C493.423 403.619 489.59 404.788 486.716 406.807C477.881 413.181 470.748 412.438 459.678 403.726Z" fill="#F8F8F8"/>
<path d="M471.174 337.43C470.748 340.404 471.706 343.379 473.729 345.61C476.39 348.691 480.648 350.391 485.545 350.391C492.358 350.391 495.126 349.116 498 347.735C498 347.735 498 347.735 498.106 347.735V345.398C497.787 345.504 497.468 345.717 497.148 345.823C494.487 347.098 491.932 348.266 485.652 348.266C481.393 348.266 477.774 346.779 475.432 344.229C473.835 342.317 473.09 340.086 473.41 337.642C474.155 331.692 481.074 326.805 488.739 326.805C493.529 326.805 495.658 328.399 498.106 330.205V327.549C495.977 325.955 493.316 324.68 488.739 324.68C479.903 324.68 472.026 330.418 471.174 337.43Z" fill="#F8F8F8"/>
<path d="M474.261 108.475C469.897 107.306 466.384 105.925 463.403 104.756C458.613 102.844 454.461 101.25 448.713 101.25C435.407 101.25 425.507 110.387 425.507 118.568C425.507 121.968 426.997 125.368 429.765 128.024C434.129 132.273 441.155 134.611 449.458 134.611C449.884 134.611 450.31 134.611 450.736 134.611C459.678 134.398 463.829 131.848 468.194 129.192C470.216 128.024 472.239 126.749 474.794 125.686C485.971 120.905 492.677 120.799 498 122.074V119.949C492.465 118.674 485.439 118.887 473.942 123.774C471.174 124.943 469.045 126.217 467.023 127.492C462.765 130.042 459.039 132.38 450.629 132.592C442.22 132.805 435.407 130.68 431.149 126.642C428.807 124.305 427.529 121.543 427.529 118.674C427.529 110.068 438.92 103.481 448.607 103.481C454.036 103.481 457.761 104.969 462.552 106.881C465.639 108.156 469.152 109.537 473.729 110.706C487.142 114.106 493.529 113.681 497.894 111.981V109.431C493.742 111.237 487.887 111.875 474.261 108.475Z" fill="#F8F8F8"/>
<path d="M466.384 16.7866C446.158 16.7866 429.658 27.5172 429.658 40.7977C429.658 54.0781 446.158 64.8087 466.384 64.8087C477.348 64.8087 483.629 61.9401 491.081 58.5403C492.677 57.7966 494.274 57.1592 495.977 56.4155C496.722 56.0967 497.361 55.778 498.106 55.5655V53.2282C497.148 53.6531 496.19 53.9719 495.232 54.3968C493.529 55.1405 491.932 55.8843 490.335 56.5217C483.203 59.709 477.029 62.5776 466.597 62.5776C447.542 62.5776 432 52.8032 432 40.6914C432 28.5797 447.542 18.8052 466.597 18.8052C476.71 18.8052 486.184 21.5676 492.784 26.4548C494.593 27.836 496.403 29.0046 498.106 30.1733V27.6235C496.829 26.7735 495.445 25.8173 493.955 24.7549C486.929 19.6552 476.923 16.7866 466.384 16.7866Z" fill="#F8F8F8"/>
<path d="M480.861 2.23107C475.007 2.23107 469.578 3.61224 463.51 5.20589C457.868 6.6933 451.481 8.3932 443.604 9.1369C436.897 9.77437 430.191 7.64949 425.507 3.39975C424.336 2.33732 423.378 1.16864 422.739 0.106201H420.291C421.142 1.8061 422.42 3.506 424.123 4.9934C429.233 9.56188 436.578 11.8992 443.816 11.2618C451.8 10.5181 458.294 8.81817 464.042 7.33076C475.539 4.35594 484.161 2.12483 497.894 8.71193V6.26833C491.4 3.29351 485.971 2.23107 480.861 2.23107Z" fill="#F8F8F8"/>
<path d="M400.491 272.94C387.93 268.69 374.836 264.228 361.211 264.228C337.259 264.228 318.417 273.577 318.417 285.583C318.417 297.588 337.259 306.938 361.211 306.938C373.559 306.938 383.991 302.794 394.104 298.863C412.201 291.639 429.339 284.945 457.761 299.394C466.597 304.494 478.839 310.337 498 311.931V309.806C479.371 308.213 467.342 302.582 458.72 297.588C446.158 291.107 435.513 288.77 426.146 288.77C413.691 288.77 403.365 292.914 393.252 296.845C383.352 300.776 373.133 304.813 361.211 304.813C338.749 304.813 320.546 296.207 320.546 285.583C320.546 274.958 338.749 266.353 361.211 266.353C374.517 266.353 387.397 270.709 399.852 274.958C419.759 281.758 440.41 288.77 463.297 277.827C471.707 273.79 484.268 271.027 497.894 270.177V268.053C483.842 269.009 471.174 271.771 462.339 276.021C440.197 286.433 420.929 279.846 400.491 272.94Z" fill="#F8F8F8"/>
<path d="M470.642 221.943C464.574 217.799 458.4 213.55 442.539 213.762C428.168 213.975 420.93 219.393 414.649 224.174C404.962 231.505 396.552 237.879 364.723 223.005C356.846 219.287 341.624 219.287 333.108 224.705C328.849 227.467 326.508 231.292 326.508 235.861C326.508 240.429 328.743 244.36 333.108 247.016C341.624 252.435 356.846 252.328 364.723 248.716C385.268 239.154 392.72 244.785 402.088 252.01C409.859 257.959 418.694 264.759 436.578 264.759C452.758 264.759 461.913 258.597 469.897 253.178C476.178 248.929 481.607 245.316 489.271 245.21H489.377C492.358 245.21 495.126 245.635 497.894 246.273V244.36C495.232 243.723 492.465 243.298 489.377 243.298C489.377 243.298 489.271 243.298 489.165 243.298C480.755 243.298 474.9 247.335 468.513 251.585C460.742 256.791 451.907 262.74 436.365 262.74C419.226 262.74 410.71 256.153 403.152 250.416C397.191 245.848 391.656 241.598 383.033 241.598C377.923 241.598 371.643 243.085 363.552 246.91C356.101 250.31 341.943 250.416 333.959 245.316C330.233 242.979 328.424 239.792 328.424 235.861C328.424 231.93 330.34 228.849 333.959 226.405C341.943 221.305 356.101 221.412 363.552 224.811C396.552 240.11 405.388 233.417 415.607 225.661C421.994 220.88 428.594 215.887 442.326 215.674C457.549 215.462 463.51 219.605 469.258 223.536C475.432 227.786 481.394 231.823 497.787 230.124V227.999C482.245 229.911 476.603 225.98 470.642 221.943Z" fill="#F8F8F8"/>
<path d="M407.41 177.427C397.297 173.283 387.717 169.352 377.285 169.565C354.291 169.99 342.901 180.508 342.049 190.07C341.304 198.782 348.756 209.725 372.069 214.293C376.22 215.143 380.052 215.462 383.778 215.462C397.404 215.462 408.475 210.681 419.226 205.9C434.768 199.1 449.352 192.726 469.578 202.394C470.536 202.819 471.6 203.35 472.771 203.988C478.945 207.069 488.207 211.531 497.894 213.55V211.425C488.632 209.512 479.69 205.156 473.729 202.182C472.558 201.544 471.494 201.013 470.429 200.588C449.352 190.601 434.236 197.188 418.268 204.094C404.855 209.937 390.91 215.993 372.388 212.275C354.291 208.662 343.22 200.057 344.072 190.282C344.817 181.677 355.569 172.221 377.285 171.69C377.498 171.69 377.817 171.69 378.03 171.69C387.717 171.69 396.872 175.408 406.559 179.339C424.549 186.67 444.987 195.063 476.071 182.526C483.842 179.445 491.081 177.108 497.894 175.514V173.283C491.4 174.771 483.842 177.108 475.326 180.508C444.987 192.832 424.975 184.651 407.41 177.427Z" fill="#F8F8F8"/>
<path d="M448.607 365.159C434.768 373.021 422.739 379.821 398.042 361.653C391.123 356.553 381.117 353.579 370.578 353.579C350.352 353.579 333.853 364.309 333.853 377.59C333.853 390.87 350.352 401.601 370.578 401.601C381.543 401.601 387.823 398.732 395.275 395.332C396.872 394.589 398.468 393.951 400.171 393.208C426.997 381.839 436.045 384.708 448.713 388.745C454.674 390.658 461.487 392.783 471.281 393.845C482.99 395.014 491.826 394.057 498.106 391.826V389.489C491.932 391.826 483.097 392.995 471.494 391.826C461.913 390.87 455.313 388.745 449.352 386.833C436.365 382.689 426.891 379.715 399.426 391.401C397.723 392.145 396.126 392.889 394.53 393.526C387.397 396.714 381.223 399.582 370.791 399.582C351.736 399.582 336.194 389.808 336.194 377.696C336.194 365.584 351.736 355.81 370.791 355.81C380.904 355.81 390.378 358.572 396.978 363.459C422.739 382.477 435.939 375.04 449.884 367.178C460.103 361.441 470.642 355.385 487.461 358.785C491.187 359.528 494.913 360.803 498.213 362.503V360.059C495.339 358.678 491.826 357.616 487.887 356.766C470.11 352.941 458.72 359.422 448.607 365.159Z" fill="#F8F8F8"/>
</g>
<defs>
<clipPath id="clip0">
<rect width="500" height="530.474" fill="white" transform="translate(-2)"/>
</clipPath>
</defs>
</svg>
