<svg width="320" height="320" viewBox="0 0 320 320" fill="none" xmlns="http://www.w3.org/2000/svg">
<circle cx="160" cy="160" r="160" fill="#B48D49"/>
<path d="M91.1367 101.997H90.7068C90.7068 98.773 89.7397 96.086 87.8054 93.9364C85.8711 91.7868 83.3995 90.712 80.2831 90.712H79.1011V124.245H85.3338V124.675H65.9909V124.245H72.2236V90.712H71.0415C67.9252 90.712 65.4536 91.7868 63.5193 93.9364C61.585 96.086 60.6178 98.773 60.6178 101.997H60.188V90.2821H91.1367V101.997ZM67.9252 90.712H60.6178V98.4505C61.6924 94.3663 64.164 91.7868 67.9252 90.712ZM78.6712 124.245V90.712H72.6534V124.245H78.6712ZM90.7068 98.558V90.712H83.3995C87.1606 91.7868 89.6322 94.4738 90.7068 98.558Z" fill="white"/>
<path d="M132.509 124.675H114.026V124.245H119.399V107.694H106.504V124.245H111.877V124.675H93.3933V124.245H99.626V90.712H93.3933V90.2821H111.877V90.712H106.504V107.264H119.399V90.712H114.026V90.2821H132.509V90.712H126.276V124.245H132.509V124.675ZM106.074 124.245V90.712H100.056V124.245H106.074ZM125.846 124.245V90.712H119.829V124.245H125.846Z" fill="white"/>
<path d="M163.565 124.675H134.121V124.245H140.354V90.712H134.121V90.2821H162.061V101.03H161.631C161.631 98.1281 160.664 95.7636 158.622 93.7215C156.58 91.6794 154.109 90.712 151.315 90.712H147.231V107.264H148.306C150.133 107.264 151.53 106.619 152.712 105.437C153.894 104.254 154.431 102.857 154.431 101.245H154.753V113.605H154.431C154.431 112.1 153.894 110.703 152.712 109.521C151.53 108.339 150.025 107.694 148.306 107.694H147.231V124.245H150.992C154.323 124.245 157.225 123.063 159.589 120.699C161.953 118.334 163.135 115.432 163.135 112.1H163.565V124.675ZM146.801 124.245V90.712H140.783V124.245H146.801ZM154.323 111.133V103.717C153.464 105.652 151.959 106.941 149.918 107.479C151.959 108.016 153.464 109.198 154.323 111.133ZM161.631 97.9131V90.712H154.216C156.043 91.2494 157.547 92.1093 158.837 93.399C160.234 94.5813 161.094 96.1935 161.631 97.9131ZM163.135 124.245V115.432C162.598 117.582 161.523 119.409 159.911 121.021C158.3 122.633 156.473 123.708 154.323 124.245H163.135Z" fill="white"/>
<path d="M86.7308 171.966V171.751C86.4084 170.891 85.6561 170.461 84.7965 170.461C83.6144 170.461 82.4323 171.106 81.3577 171.429C79.7458 171.966 78.1339 172.288 76.3071 172.288H76.1996C75.3399 172.288 74.8026 172.288 74.1579 172.073C66.0983 170.999 60.8327 162.723 60.8327 154.769C60.8327 146.816 66.2058 138.97 73.8355 137.358C74.6952 137.143 75.5548 137.143 76.522 137.143C80.6055 137.143 82.3249 138.648 83.6144 138.648C84.5815 138.648 85.4412 138.325 85.6561 137.573H85.9785V148.106H85.5487C85.5487 142.302 81.4652 137.573 76.6295 137.573C75.7698 137.573 74.8026 137.68 73.9429 137.788C69.752 138.648 69.1072 142.409 68.7848 147.138C68.5699 149.718 68.5699 152.082 68.5699 154.662C68.5699 157.241 68.5699 159.606 68.7848 162.185C69.1072 166.914 69.6445 170.891 74.2653 171.644C74.9101 171.751 75.5548 171.858 76.3071 171.858C77.1668 171.858 78.0264 171.751 78.8861 171.644C83.1845 170.676 85.7636 167.129 86.8382 161.003H87.2681V171.966H86.7308Z" fill="white"/>
<path d="M89.7397 171.966V171.536H95.9724V138.003H89.7397V137.573H109.083V138.003H102.85V171.536H109.083V171.966H89.7397Z" fill="white"/>
<path d="M146.586 170.139C145.082 171.644 143.363 172.396 141.321 172.396C137.237 172.396 134.013 169.172 134.013 165.087V158.961C134.013 156.704 133.261 154.877 129.93 154.877H123.912V171.644H130.037V171.966H110.694V171.536H116.927V138.003H110.694V137.573H128.103C136.378 137.573 139.924 141.872 139.924 146.171C139.924 149.825 136.915 153.48 131.649 154.339H130.79H131.005C138.742 154.554 140.783 158.854 140.783 163.153V169.386C140.783 170.676 141.751 171.536 143.148 171.536C144.33 171.536 145.942 170.569 145.942 169.172C145.942 168.849 146.157 168.634 146.479 168.634C146.801 168.634 147.016 168.849 147.016 169.064C147.016 169.494 146.909 169.816 146.586 170.139ZM126.061 138.003H123.912V154.339H128.426C131.112 154.339 132.831 152.19 133.046 150.255C133.154 148.966 133.261 147.246 133.261 146.279C133.154 140.582 132.402 138.003 126.061 138.003Z" fill="white"/>
<path d="M172.162 171.966V171.751C171.84 170.891 171.087 170.461 170.228 170.461C169.046 170.461 167.864 171.106 166.789 171.429C165.177 171.966 163.565 172.288 161.738 172.288H161.631C160.771 172.288 160.234 172.288 159.589 172.073C151.53 170.999 146.264 162.723 146.264 154.769C146.264 146.816 151.637 138.97 159.267 137.358C160.126 137.143 160.986 137.143 161.953 137.143C166.037 137.143 167.756 138.648 169.046 138.648C170.013 138.648 170.872 138.325 171.087 137.573H171.41V148.106H170.98C170.98 142.302 166.896 137.573 162.061 137.573C161.201 137.573 160.234 137.68 159.374 137.788C155.183 138.648 154.538 142.409 154.216 147.138C154.001 149.718 154.001 152.082 154.001 154.662C154.001 157.241 154.001 159.606 154.216 162.185C154.538 166.914 155.076 170.891 159.697 171.644C160.341 171.751 160.986 171.858 161.738 171.858H161.846C162.705 171.858 163.565 171.751 164.425 171.644C168.723 170.676 171.302 167.129 172.377 161.003H172.807V171.966H172.162Z" fill="white"/>
<path d="M175.278 171.966V171.536H181.511V138.003H175.278V137.573H194.621V138.003H188.389V171.536H191.72C198.382 171.536 203.863 166.162 203.863 159.391H204.293V171.966H175.278Z" fill="white"/>
<path d="M206.549 171.966V171.536H212.782V138.003H206.549V137.573H234.489V148.321H234.059C234.059 142.624 229.331 138.003 223.636 138.003H219.552V154.554H220.519C224.173 154.554 226.752 151.652 226.752 148.536H227.074V160.896H226.752C226.752 157.886 224.173 154.984 220.519 154.984H219.552V171.536H223.313C229.976 171.536 235.456 166.162 235.456 159.391H235.886V171.966H206.549Z" fill="white"/>
<path d="M80.1757 219.257C79.101 219.472 78.0264 219.687 76.8444 219.687C75.6623 219.687 74.4802 219.579 73.4056 219.257C66.2058 217.537 60.8327 210.443 60.8327 202.06C60.8327 193.677 66.2058 186.583 73.2982 184.863C74.4802 184.648 75.5548 184.434 76.7369 184.434C77.919 184.434 78.9936 184.541 80.0682 184.863C87.2681 186.583 92.6411 193.677 92.6411 202.06C92.6411 210.443 87.3755 217.537 80.1757 219.257ZM84.7965 194.537C84.4741 189.915 83.9368 186.476 80.0682 185.293C78.9936 184.971 77.919 184.863 76.8444 184.863C75.6623 184.863 74.5877 184.971 73.4056 185.293C69.4296 186.476 68.9997 189.915 68.6774 194.537C68.4624 196.579 68.4624 199.91 68.4624 202.06C68.4624 204.21 68.4624 207.649 68.6774 209.584C68.9997 214.205 69.4296 217.644 73.4056 218.827C74.5877 219.149 75.5548 219.257 76.7369 219.257C77.919 219.257 78.9936 219.149 80.0682 218.827C83.9368 217.644 84.4741 214.205 84.7965 209.584C84.9039 207.541 85.0114 204.21 85.0114 202.06C85.0114 199.91 84.9039 196.579 84.7965 194.537Z" fill="white"/>
<path d="M120.903 196.579C120.903 190.345 115.853 185.293 109.62 185.293H105.859V201.845H106.826C110.48 201.845 113.059 198.943 113.059 195.826H113.381V208.186H113.059C113.059 205.177 110.48 202.275 106.826 202.275H105.859V218.827H112.091V219.257H92.7486V218.827H98.9813V185.293H92.7486V184.863H121.333V196.579H120.903Z" fill="white"/>
<path d="M163.458 196.579H163.028C163.028 193.354 162.061 190.667 160.126 188.518C158.192 186.368 155.721 185.293 152.604 185.293H151.422V218.827H157.655V219.257H138.312V218.827H144.545V185.293H143.363C140.246 185.293 137.775 186.368 135.84 188.518C133.906 190.667 132.939 193.354 132.939 196.579H132.509V184.863H163.458V196.579ZM140.246 185.293H132.939V193.032C134.013 188.948 136.485 186.368 140.246 185.293ZM150.992 218.827V185.293H144.974V218.827H150.992ZM163.028 193.139V185.293H155.721C159.482 186.368 161.953 189.055 163.028 193.139Z" fill="white"/>
<path d="M185.057 219.257H165.714V218.827H171.947V185.293H165.714V184.863H185.057V185.293H178.825V218.827H185.057V219.257ZM178.395 218.827V185.293H172.377V218.827H178.395Z" fill="white"/>
<path d="M229.438 219.257H210.096V218.827H216.328V186.153L205.045 219.257H204.615L193.332 186.691V218.827H199.564V219.257H186.669V218.827H192.902V185.293H186.669V184.863H199.994L208.161 208.724L216.328 184.863H229.438V185.293H223.206V218.827H229.438V219.257ZM207.946 209.369L199.672 185.293H193.332L204.83 218.612L207.946 209.369ZM222.776 218.827V185.293H216.758V218.827H222.776Z" fill="white"/>
<path d="M260.495 219.257H231.05V218.827H237.283V185.293H231.05V184.863H258.99V195.611H258.56C258.56 192.709 257.593 190.345 255.551 188.303C253.51 186.261 251.038 185.293 248.244 185.293H244.161V201.845H245.128C246.955 201.845 248.352 201.2 249.534 200.018C250.716 198.836 251.253 197.438 251.253 195.826H251.575V208.186H251.253C251.253 206.682 250.716 205.284 249.534 204.102C248.352 202.92 246.847 202.275 245.128 202.275H244.161V218.827H247.922C251.253 218.827 254.154 217.644 256.519 215.28C258.883 212.915 260.065 210.013 260.065 206.682H260.495V219.257ZM243.731 218.827V185.293H237.713V218.827H243.731ZM251.253 205.714V198.298C250.393 200.233 248.889 201.523 246.847 202.06C248.889 202.597 250.393 203.78 251.253 205.714ZM258.56 192.494V185.293H251.146C252.972 185.831 254.477 186.691 255.766 187.98C257.056 189.163 258.023 190.775 258.56 192.494ZM260.065 218.827V210.013C259.527 212.163 258.453 213.99 256.841 215.602C255.229 217.215 253.402 218.289 251.253 218.827H260.065Z" fill="white"/>
<path d="M272.853 215.817C272.853 216.892 272.53 217.752 271.778 218.504C271.026 219.257 270.166 219.579 269.091 219.579C268.017 219.579 267.157 219.257 266.405 218.504C265.653 217.752 265.33 216.892 265.33 215.817C265.33 214.743 265.653 213.883 266.405 213.13C267.157 212.378 268.017 212.056 269.091 212.056C270.166 212.056 271.026 212.378 271.778 213.13C272.53 213.883 272.853 214.85 272.853 215.817ZM272.423 215.817C272.423 214.85 272.1 214.098 271.456 213.453C270.811 212.808 269.951 212.485 269.091 212.485C268.232 212.485 267.372 212.808 266.727 213.453C266.083 214.098 265.76 214.957 265.76 215.817C265.76 216.677 266.083 217.537 266.727 218.182C267.372 218.827 268.232 219.149 269.091 219.149C269.951 219.149 270.811 218.827 271.456 218.182C272.1 217.537 272.423 216.785 272.423 215.817Z" fill="white"/>
</svg>
