<svg xmlns="http://www.w3.org/2000/svg" width="61" height="45" viewBox="0 0 61 45" fill="none"><style>.a{fill:#FCAF17;}.b{fill:white;}</style><g clip-path="url(#clip0)"><path d="M41.8 11.5C41.8 11.4 41.8 11.4 41.8 11.4 41.8 11.4 41.8 11.4 41.8 11.5ZM41.8 11.8C41.8 11.8 41.9 11.8 41.8 11.8 41.9 11.8 41.9 11.8 41.8 11.8ZM42 11.8C42.1 11.8 42 11.8 42 11.8V11.8ZM43.3 11.8C43.2 11.8 43.1 11.8 43 11.7 43.1 11.8 43.2 11.8 43.3 11.8 43.3 11.8 43.3 11.8 43.4 11.8 43.3 11.8 43.3 11.8 43.3 11.8ZM43.5 11.9C43.5 11.8 43.5 11.8 43.5 11.9V11.9ZM40.9 12H41 40.9ZM40.7 12C41 12 40.7 12 40.7 12 40.7 12 40.8 12 40.7 12ZM40.8 12.1C40.8 12.1 40.9 12.1 40.8 12.1 40.9 12.1 40.8 12.1 40.8 12.1ZM44.6 12.4C43.8 11.6 43.9 12.4 44.6 12.4V12.4ZM44 12.4C44.1 12.4 44.2 12.4 44 12.4V12.4ZM44.4 13.6C44.4 13.5 44.4 13.5 44.4 13.6V13.6ZM44.5 13.7C44.5 13.6 44.4 13.6 44.5 13.7 44.5 13.6 44.5 13.6 44.5 13.7 44.6 13.7 44.5 13.7 44.5 13.7ZM38.4 14C38.4 13.9 38.4 13.9 38.4 14 38.4 13.9 38.4 13.9 38.4 14 38.4 13.9 38.4 13.9 38.4 14ZM44.5 14.2C44.4 14.2 44.4 14.1 44.5 14.2 44.4 14.1 44.5 14.1 44.5 14.2ZM43.1 14.6C43 14.6 43 14.6 43.1 14.6 43 14.5 43 14.6 43.1 14.6ZM44.1 14.7C44 14.7 44 14.7 44 14.6 44 14.5 44 14.5 43.9 14.5 43.9 14.4 43.9 14.4 43.8 14.4 43.8 14.4 43.8 14.4 43.7 14.4 43.8 14.5 44.1 14.5 44.1 14.7ZM43.9 14.8C43.9 14.8 44 14.8 43.9 14.8V14.8ZM44 15.1C44 15 44 15 44 15.1V15.1ZM39.1 15.2C39.1 15.1 39.1 15.1 39.1 15.2 39.1 15.1 39.2 15.1 39.1 15.2 39.2 15.1 39.2 15.1 39.1 15.2ZM38.8 15.6C38.8 15.6 38.9 15.6 38.8 15.6 38.9 15.6 38.8 15.6 38.8 15.6ZM41 14.5C41 14.5 40.5 14.6 40.7 14.6 40.4 14.6 40.1 14.7 39.8 14.8 39.8 14.9 39.7 14.9 39.5 14.9 39.5 14.9 39.5 14.9 39.4 14.9 39.1 15.2 39 15 39 14.9 39 15 39 15 38.9 15 39 15 39.1 15.1 38.9 15.1L38.8 15C38.7 15 38.5 15.1 38.3 15.1 38.3 14.9 38.3 15 38.2 15 38.4 15 38.2 14.8 38 14.5 38 14.4 38 14.4 38 14.3 38 14.3 38.2 14 38.3 14 37.7 14.2 37.9 13.8 38 13.5 38 13.4 38 13.4 38.1 13.4H38C38.2 13.6 38.2 13.8 38 13.8 38 13.8 38 13.8 38 13.9 37.8 13.7 37.8 13.5 38.1 13.2 39.2 13.2 41.8 11.5 41.5 11.6 41.5 11.3 41.6 11.7 41.6 11.7 41.8 11.6 41.9 11.4 41.9 11.7 42.1 11.8 42.1 11.7 42.1 11.6 43.1 11.6 43.9 12 44.4 12.8 44.3 12.9 44.2 12.9 44.1 12.8 44 12.5 44 12.8 44 12.8 44 12.9 44 12.8 44.1 12.9 44.1 12.9 44.1 13 44.1 13.2 44.1 13.2 44.1 13.2 44 13.2 44.2 13.4 44.1 13.5 43.8 13.5 43.8 13.5 43.8 13.5 43.9 13.5H43.8C43.9 13.6 43.9 13.6 43.9 13.5 43.9 13.6 44 13.9 44 13.9 43.9 13.9 44.7 14.2 43.7 14 44 14.3 44 14.5 43.5 14.4 43.6 14.6 43.7 14.7 43.7 14.8 43.6 14.9 43.4 14.9 43.1 14.8 43.1 14.7 43.1 14.7 43 14.7 43 14.6 42.9 14.6 42.7 14.6 42.7 14.5 42.7 14.5 42.6 14.5 42.4 14.2 42.2 14.1 42.1 14.4 42 14.1 41.5 14.1 41 14.5Z" fill="#709742"/><path d="M42.8 15.8C42.8 15.7 42.8 15.7 42.8 15.8V15.8ZM42.5 15.9C42.5 15.8 42.5 15.8 42.5 15.9V15.9ZM42.5 16C42.5 16 42.5 15.9 42.5 16V16ZM42.4 16.2C42.5 16.2 42.5 16.2 42.4 16.2 42.5 16.2 42.5 16.2 42.4 16.2ZM42.8 16.8C42.8 16.7 42.8 16.6 42.8 16.5 42.8 16.6 42.8 16.7 42.8 16.8ZM42.4 17.3C42.4 17.2 42.6 17 42.5 17 42.5 16.9 42.5 16.6 42.6 16.4 42.5 16.2 42.4 17.1 42.4 17.3ZM42.4 17.7C42.5 17 42.6 17.5 42.4 17.7 42.5 17.7 42.5 17.7 42.4 17.7ZM40.9 18.2C40.9 18.1 40.9 18.1 40.9 18.2 40.9 18.2 40.9 18.1 40.9 18.2ZM42.7 18.5C42.7 18.5 42.7 18.4 42.7 18.5 42.7 18.4 42.7 18.4 42.7 18.5 42.7 18.4 42.7 18.5 42.7 18.5ZM42.4 18.5C42.4 18.3 42.6 17.5 42.5 17.8 42.7 18.1 42.4 18.2 42.4 18.5ZM42.8 19.7C42.8 19.5 42.8 19.4 42.8 19.4 42.8 19.5 42.8 19.6 42.8 19.7ZM42.6 19.7C42.6 19.7 42.6 19.6 42.6 19.7V19.7ZM42.8 20.8C42.8 20.7 42.8 20.7 42.8 20.8V20.8ZM42.8 20.9C42.8 20.8 42.8 20.8 42.8 20.8 42.8 20.8 42.8 20.8 42.8 20.9ZM42.8 21.1V21.2 21.1ZM42.9 21.9C42.9 21.8 42.9 21.8 42.9 21.8V21.9ZM42.6 21.9C42.6 21.8 42.6 21.8 42.6 21.8 42.6 21.8 42.6 21.8 42.6 21.9ZM42.6 22.1V22 22.1ZM42.9 22.1C42.9 22 42.9 22 42.9 21.9 42.9 22 42.9 22.1 42.9 22.1ZM41.5 22.3C41.5 22.2 41.5 22.2 41.5 22.3V22.3ZM42.6 22.4C42.6 22.3 42.6 22.3 42.6 22.3V22.4ZM42.9 22.5C42.9 22.4 42.9 22.2 42.9 22.2 42.9 22.2 42.9 22.4 42.9 22.5ZM42 22.6C42 22.5 42 22.5 42 22.6V22.6ZM42.1 23.3C42.1 22.8 42.1 22.3 41.9 23 41.9 22.5 41.8 22.6 41.8 23 41.8 22.9 41.6 21.9 41.6 22.5 41.6 22.2 41.6 22.2 41.3 22.4 41.2 21.3 41.2 19.7 41.2 18.8V18.9C41.2 18.6 41.2 18.6 41.2 18.5 41.2 18.5 41.4 16.5 41.2 16.5 41.3 16.4 41.3 16.4 41.2 16.4H41.3 41.2C41.3 16.3 41.3 16.1 41.2 15.9 41.2 15.8 41.2 15.7 41.2 15.6 41.2 15.2 41.1 15 42.7 15.1 42.7 15.1 42.7 16 42.6 16 42.7 16 42.8 15.9 42.7 15.7 42.7 16.7 42.7 17.6 42.7 18.6 42.5 19.1 42.6 19.9 42.6 20.8V20.7C42.6 20.8 42.6 20.8 42.6 20.7 42.7 20.9 42.7 21 42.7 20.8 42.7 20.9 42.7 21.1 42.7 21.2 42.7 20.5 42.8 22.1 42.8 22.3 42.8 22 42.5 22.9 42.5 23 42.5 22.7 42.5 22.5 42.5 22.2V22.3C42.5 22.2 42.5 22.2 42.5 22.1 42.5 22.6 42.2 22.6 42.2 23.2 42.2 23.1 42.1 22.9 42.1 22.8 42.2 23.2 42.1 22.7 42.1 23.3Z" class="a"/><path d="M26.4 24C26.4 24 26.5 24 26.4 24 26.5 24 26.4 24 26.4 24ZM30 23.9C30.1 23.9 30.1 23.9 30 23.9V23.9ZM29.5 23.7C29.6 23.7 29.6 23.7 29.6 23.7 29.5 23.6 29.5 23.6 29.5 23.7ZM29.6 23.6C29.6 23.6 29.7 23.6 29.6 23.6 29.7 23.6 29.7 23.6 29.6 23.6 29.7 23.6 29.7 23.6 29.6 23.6ZM23.9 23.5C23.9 23.5 23.9 23.6 23.9 23.5 24.2 23.5 24.5 23.5 23.9 23.5ZM36 22.2C36 22.3 36 22.2 36 22.2V22.2ZM36 21.7C36.1 21.6 36.1 21.6 36 21.6 36 21.6 36 21.6 36 21.7ZM37.3 21.4C37.4 21.4 37.4 21.4 37.3 21.4V21.4ZM36.2 21.4C36.3 21.4 36.3 21.4 36.2 21.4 36.2 21.3 36.2 21.3 36.2 21.4ZM36.8 21.4C36.9 21.4 36.9 21.4 37 21.3 36.9 21.4 36.9 21.4 36.8 21.4ZM36.3 21.3C36.3 21.3 36.4 21.3 36.3 21.3 36.4 21.3 36.4 21.3 36.3 21.3ZM37.6 21.1C37.6 21 37.6 21 37.6 21.1V21.1ZM23.7 20C23.8 20 23.8 20 23.7 20V20ZM23.8 19.8C23.9 19.8 23.9 19.8 23.8 19.8V19.8ZM24 19.2C24 19.3 24 19.3 24 19.2V19.2ZM37.4 18.7C37.3 18.7 37.3 18.7 37.3 18.7 37.4 18.7 37.4 18.7 37.4 18.7 37.7 18.7 37.8 19 37.4 18.7ZM23 18.1C23.1 18.1 23.1 18.1 23 18.1V18.1ZM23.3 16.3C23.4 16.3 23.4 16.3 23.4 16.4 23.3 16.3 23.3 16.3 23.3 16.3ZM23.4 16C23.8 16 23.5 16 23.4 16V16ZM23.6 15C23.7 15 23.7 15 23.7 15H23.6ZM36.9 14.8C36.8 14.9 36.8 14.9 36.7 14.9 37.4 14.7 37.5 14.7 36.9 14.8ZM23.1 14.3C23.2 14.3 23.2 14.3 23.1 14.3V14.3ZM36.9 14.3C36.9 14.2 36.9 14.2 36.9 14.3V14.3ZM37 14.3C37.1 14.3 37.1 14.3 37 14.3 37 14.2 37 14.2 37 14.3ZM37.1 14.1C37.2 14.2 37.2 14.2 37.1 14.1V14.1ZM22.9 12.8C22.9 12.8 22.8 12.8 22.9 12.8 23 12.8 22.9 12.8 22.9 12.8ZM27.4 23.9H27.3C27.3 23.8 27.3 23.8 27.4 23.9ZM29.1 23.9L29.2 23.8C29.1 23.8 29.1 23.9 29.1 23.9ZM27.4 23.8C27.6 23.8 27.7 23.8 27.4 23.8 27.5 23.8 27.5 23.8 27.4 23.8 27.5 23.8 27.5 23.8 27.4 23.8ZM28 23.8C27.9 23.9 27.7 23.9 27.6 23.9 27.7 23.8 28 23.8 28 23.8ZM25.9 23.7C25.9 21.9 27.4 25.2 25.9 23.7V23.7ZM24.7 23.5C24.7 23.5 24.8 23.5 24.7 23.5 24.8 23.5 24.8 23.5 24.7 23.5 24.7 23.6 24.7 23.5 24.7 23.5 24.7 23.5 24.6 23.5 24.7 23.5ZM35.5 22C35.8 22 35.5 22.1 35.5 22V22ZM24.3 21.2C24.4 21.2 24.4 21.3 24.3 21.3 24.3 21.2 24.3 21.2 24.3 21.2ZM24.3 20.6C24.2 20.5 25 20.6 24.3 20.6V20.6ZM36.5 19.4C36.6 19.4 36.6 19.4 36.7 19.4 36.6 19.4 36.6 19.4 36.5 19.4ZM37.5 16.6C37.6 16.6 37.5 16.8 37.5 16.8 37.5 16.8 37.5 16.7 37.5 16.6ZM23.6 16.4C23.7 16.4 23.7 16.4 23.6 16.4V16.4ZM36 15.8C36.2 15.8 36.2 15.8 36 15.8V15.8ZM35.4 12C35.5 12 35.5 12 35.4 12 35.5 12 35.5 12 35.4 12 35.5 12 35.5 12 35.4 12ZM34.8 10.6C31.6 10.6 28.4 11.1 25.5 11.1 25.5 11.2 25.5 11.2 25.4 11.2 25.4 11.3 25.4 11.3 25.2 11.3 24.2 11.7 23 12.6 22.9 12.9 22.9 13.1 22.7 13.6 22.5 13.6 22.6 13.7 23.4 14.1 23.2 14.1 23.5 14.1 24 14 23.7 14.2 23.6 14.1 23.6 14.2 23.4 14.2 23.6 14.2 24.2 14.2 23.8 14.3 24.2 14.3 23.7 14.4 23.6 14.4 23.6 14.4 23.6 14.4 23.6 14.3 23.6 14.6 24.1 14.4 23.7 14.8 23.7 14.7 23.8 16 23.4 16 23.8 16 23.2 16.8 23 16.9 23.3 17.2 23.3 18.1 23.3 19.1 23.7 18.9 24 19.6 24.3 19.6 23.6 19.6 24.9 20.8 24.2 20.8 24.5 20.8 24 21.1 24.3 21.1 24.2 21.2 24.1 21.2 24.2 21 24.1 21 24.1 21.1 24.1 21.2 24.1 21 24 21.5 24 21.7V21.6C24 22.4 24.4 22.9 25.2 22.9 25.6 23.2 26.5 23.3 26.6 23.3 26.7 23.3 26.7 23.3 26.9 23.3H26.8C26.9 23.4 27.2 23.4 27.2 23.2 28.4 23.2 30.4 22.9 30.7 22.9 32.2 23.3 32.5 23.4 33.5 23.3 33.9 23.3 34 22.9 34.5 22.9 34.4 22.9 34.4 22.9 34.5 22.8 34.7 22.8 34.8 22.8 35 22.8 35.2 22.8 35.4 22.8 35.6 22.9 35.3 22.9 35.4 22.6 35.1 22.6 35.2 22.6 35.3 22.7 35.4 22.7 36.1 22.2 35.4 22.7 36 22.2 36.1 22 36 21.3 36.1 21.3 36.3 21 36.7 20.9 37.1 21.1 37.1 20.9 37.3 20.4 37.2 20.4 37.2 20.4 37.2 20.4 37.3 20.4 37.2 20.4 37.3 20.4 37.2 20.3 37.2 20.3 37.2 20.3 37.3 20.3 37.3 20.3 37.2 20.3 37.2 20.2 37.2 19.8 37.3 18.8 37.1 18.8 36.8 18.8 37.2 18.2 37.5 18.2H37.4C38.3 18.2 37.4 15.2 36.2 15.2 36.3 15.2 36.4 15.2 36.5 15.2 36.4 15.2 36.3 15.2 36.2 15.2 36.2 15.2 36.4 13.5 37.2 13.5 37 13.5 37 13.6 36.8 13.4 36.3 13.4 37.6 11.7 35.8 11.7 36.4 11 35.6 11.2 35.5 11.2 35.4 11.2 35.4 11.2 35.3 11.2 36.1 11.2 36.6 10.5 35.4 10.5 34.8 11 35 10.8 34.8 10.6Z" fill="#0183CF"/><path d="M20.2 0C20.2 0 20.1 0 20.2 0 18.2 0 19 0.5 17.6 0.5 17.8 0.3 18.1-0.1 17.5 0.5 17.9 0.1 17.8 0.2 17.4 0.4 17.4 0.4 17.4 0.4 17.3 0.4 17.3 0.4 17.3 0.4 17.2 0.4 17.2 0.3 17.2 0.3 17 0.5 17 0.4 17 0.4 16.9 0.4 16.8 0.4 16.1 0.7 15.8 0.7 15.8 0.6 15.8 0.5 15.7 0.5 16.3 0 16.6 0 16 0 15.9 0 15.5 0.1 15.2 0.2 15.2 0.3 15.1 0.4 15.2 0.4 15 0.4 14.9 0.4 14.7 0.6 14.7 0.7 14.7 0.7 14.6 0.7 14.6 1 14.5 0.9 14.5 1.2 14.5 1.2 14.2 1.4 14 1.5V1.6C14.1 1.2 14 2 13.8 2 13.8 2.1 14 2.6 14.1 2.6 14.1 2.8 14.2 3.3 14.1 3.3 14.2 3.3 14.2 3.3 14.2 3.2 14.2 3.2 14.2 3.3 14.3 3.3 14.3 3.3 14.3 3.4 14.3 3.6 14.3 3.5 14.3 3.5 14.2 3.5 14.1 3.6 13.8 4 13.9 4 13.3 4 13.9 4.9 14 5 14 5 14 5 13.9 5 14 5 13.9 5.1 13.9 5.1 14 5.1 14 5.1 14 5.2 14.1 5.3 14.1 5.6 14 5.7H14.1 14C14 5.9 13.7 6.2 13.7 6.5 13.7 6.4 13.8 6.8 13.5 6.8 13.4 6.8 13.7 7 13.7 7 13.5 7 13.7 7.1 13.6 7.1 13.6 7.2 13.6 7.6 13.6 7.8 13.7 8 13.8 9 13.8 9 13.9 9.2 14 9.2 14.3 9.2 14.3 9.2 14.2 9.4 14.1 9.4 13.9 10 14.1 9.9 14.6 9.9 14.7 9.9 14.7 9.9 14.6 9.9 14.5 10.3 14.7 10.7 15.1 10.7H15C15.3 10.6 15.4 10.7 15.5 10.7 15.5 10.7 15.8 10.8 15.6 10.8 16.2 10.5 15.7 10.9 15.9 10.9 16.1 10.9 16.1 10.9 15.8 10.9 15.9 10.7 16.3 10.3 16.3 10.3 16.8 10.3 17.2 10.2 17.5 10.2 17.5 10.1 17.4 10.1 17.3 10.1 17.5 9.8 17.5 10 17.7 10 17.6 10 17.7 10.1 17.6 10.1 17.8 10.1 18.1 10.3 18.3 10.6H18.2C18.3 10.6 18.5 10.6 18.7 10.6 18.5 10.6 18.9 10.8 18.7 10.7 18.7 10.7 19.4 10.9 19.1 10.9H19C19.3 10.9 19.6 10.9 19.6 10.9 19.7 10.9 19.6 10.9 19.6 11 19.6 10.8 20.4 10.8 20.6 10.9 20.5 11 20.4 11 20.2 11 20.6 11 20.8 11 21 11.3 21.1 11 21.4 11 21.7 11.2 22 11.1 22.4 11.2 22.7 11.3 22.7 11.2 22.6 10.8 22.9 11.1 22.8 11.1 22.8 11.1 22.8 11 22.8 10.9 22.8 10.9 22.9 10.9 22.8 10.9 22.8 10.9 22.8 10.9 23.4 10.4 23.4 10.8 24 10.8 24.5 10.8 24.4 11.1 24.8 10.9 24.8 10.9 25.2 10.7 24.9 10.7 24.8 10.6 24.6 10.3 24.6 10.3 24.5 10.3 24.5 10.3 24.5 10.2 24.3 10.1 24.2 9.9 24.2 10 24.2 9.9 24.5 9.7 24.5 9.7 24.5 9.5 24.7 9.6 24.8 9.6 24.2 9.6 25.4 9.1 25.1 9.1 25.2 9 25.6 8.7 25.1 8.8 25.2 8.9 25.3 8.8 25.3 8.7 25.3 8.7 25.3 8.4 25.3 8.3 25.4 8.2 25.4 8.1 25.2 8.1 25.2 8.1 25.4 7.9 25.3 7.9 25.3 8 25.3 8 25.2 8 25.2 8.1 25.2 8.1 25.1 8.1 25 8 25.1 7.9 25.2 7.8 25.3 7.8 25.2 7.7 25.2 7.7 25.3 7.7 25.4 7.6 25.3 7.6 25.4 7.5 25.4 7.5 25.3 7.5 25.5 7.1 25.5 7 25 7.4 25.1 7.2 25.3 7 25.3 6.9 25.3 6.8 25.2 6.7 25.1 6.7 25.2 6.7 25.2 6.6 25.2 6.6 25.3 6.5 25.5 6.3 25.6 6 25.6 6.1 25.6 6.1 25.5 6.1 25.5 6.1 25.5 6.1 25.4 6.1 25.4 6.2 25.4 6.2 25.5 6.2 25.4 6.2 25.4 6.3 25.3 6.3 25.3 6.4 25.3 6.4 25.4 6.4 24.3 6.4 25.2 5.6 25.7 5.6 25.4 5.6 25.6 5.5 25.6 5.5 25.6 5.5 25.7 5.5 25.7 5.4 25.8 6.1 25.8 6.2 25.7 6 25.7 5.9 25.8 5.7 25.8 5.7H25.7C25.7 5.7 25.7 5.7 25.8 5.7 25.6 5.6 25.6 5.4 25.5 5.4 25.4 5.5 25.4 5.5 25.3 5.5 25.3 5.4 25.3 5.3 25.4 5.2 25.1 5.2 25.4 5 25.1 5 25.1 4.9 25.2 4.5 25 4.5 25 4.5 25 4.5 24.9 4.5 24.9 4.4 24.9 4.4 24.8 4.5 24.8 4.3 24.9 4 24.9 3.9 24 3.9 25.7 3.6 24.8 3.6 24.9 3.5 25.1 3.5 25.1 3.3V3.4C25.1 3.1 25.1 3.4 25 3.4 25 3.3 25 3.3 24.9 3.3 24.9 3.3 24.9 3.3 24.8 3.3 25.1 3.2 25.3 3 25 3 24.9 2.9 25 2.6 25 2.6 25 2.5 25 2.5 24.9 2.6 24.9 2.5 24.9 2.5 24.8 2.5 24.8 2.5 24.8 2.5 24.9 2.5H24.8C25 2.5 25.4 2 25.5 2H25.4C25.4 2.1 25.3 2.1 25.2 2.1 25.3 1.9 25.3 1.9 25.3 1.6 25.5 1.6 25.5 1.2 25.6 1.2H25.5C25.5 1.2 25.5 1.2 25.5 1.1 25.5 1.2 25.5 1.2 25.5 1.2 25.5 1.2 25.5 1.2 25.5 1.3 25.6 1.2 25.7 1.1 25.5 1.1 24.2 1.1 25.2 0.4 24.5 0.4 23.7 1.1 22.8 1.2 21.8 0.6 21.5 0.7 21 0.6 20.9 0.6 20 0.6 20.2 0.7 20.2 0.1 20.2 0 20.2 0 20.2 0Z" fill="#F25824"/><path d="M27.7 21.3C27.7 21.4 27.6 21.4 27.6 21.5 27.7 21.4 27.7 21.4 27.7 21.3Z" class="b"/><path d="M31.9 21.9C31.9 21.8 31.9 21.6 31.8 21.6L31.9 21.9Z" class="b"/><path d="M31.7 21.4C31.7 21.5 31.7 21.5 31.8 21.6 31.8 21.5 31.8 21.5 31.7 21.4Z" class="b"/><path d="M36.6 20.2C36.5 20.2 36.5 20.2 36.5 20.1 36.5 20.1 36.5 20.1 36.4 20.1 36.4 20 36.4 20.1 36.4 20 36.4 19.9 36.4 20 36.3 19.9L36.2 19.8C36.2 19.7 36.2 19.8 36.2 19.8 36.2 19.8 36.3 19.8 36.3 19.9 36.4 19.8 36.4 20 36.4 20V20H36.5C36.5 20 36.4 20 36.4 19.9 36.4 19.9 36.4 19.9 36.3 19.9 36.3 19.9 36.3 19.9 36.4 19.9 36.4 19.9 36.4 19.8 36.3 19.8 36.2 19.7 36.2 19.7 36.2 19.7 36.2 19.7 36.2 19.7 36.1 19.7 36.2 19.7 36.2 19.8 36.3 19.8 36.3 19.8 36.3 19.7 36.4 19.7H36.5C36.5 19.7 36.5 19.7 36.4 19.7L36.3 19.6H36.4C36.4 19.5 36 19.4 35.9 19.4 35.9 19.4 35.9 19.4 36 19.4L35.5 19.3H35.4 35.5C35.5 19.2 35.1 19.3 35 19.3H34.8 34.7 34.6L34.3 19.4H34.2C34.2 19.4 34.1 19.4 34.1 19.5 34 19.4 33.9 19.4 33.8 19.4 33.8 19.3 33.7 19.3 33.7 19.3 33.6 19.3 33.6 19.3 33.6 19.3H33.5C33.5 19.3 33.5 19.3 33.4 19.3 33.3 19.3 33.3 19.3 33.3 19.2 33.2 19.2 33.2 19.2 33.2 19.2 33.2 19.2 33.1 19.2 33 19.1 33 19 32.9 18.9 32.9 18.8 32.8 18.6 32.8 18.3 32.8 18.2 32.8 18.1 32.8 18.1 32.8 18.1V18C32.8 17.9 32.7 17.9 32.7 17.9 32.7 17.9 32.7 17.9 32.7 17.8 32.7 17.8 32.7 17.8 32.6 17.8 32.6 17.7 32.6 17.6 32.5 17.6 32.5 17.6 32.5 17.4 32.4 17.4 32.4 17.2 32.3 17 32.3 16.9H32.2C32.2 16.8 32.2 16.8 32.1 16.7 32 16.7 31.9 16.1 31.9 16 31.9 16 31.9 16 31.8 16 32 16 32 16 32 15.8 31.9 15.7 31.9 15.2 31.9 15.1 31.8 14.8 31.8 14.6 31.8 14.4 31.7 14.3 31.7 14.2 31.7 14.2H31.8C31.8 14.2 31.8 14.2 31.8 14.1 31.8 14.2 31.8 14.2 31.8 14.2V14.3 14.4 14.5C31.8 14.5 31.8 14.5 31.8 14.6 31.8 14.7 31.8 14.7 31.8 14.8 31.8 14.9 31.9 15 31.9 15.1 31.9 15.2 32 15.4 32 15.6 31.9 15.1 31.8 14.7 31.7 14.3 31.7 14.3 31.7 14.3 31.7 14.2V14.3H31.6C31.6 14.2 31.6 14.2 31.6 14.2 31.6 14.2 31.6 14.2 31.6 14.1V14 13.7C31.5 13.7 31.5 13.7 31.5 13.7V13.6C31.4 13.5 31.4 13.4 31.4 13.3 31.3 12.9 31.1 12.6 31.1 12.2 31.1 12.1 31 12.1 31 12V12C31 11.9 30.9 11.9 30.9 11.9 30.8 11.9 30.8 12 30.8 12 30.7 11.9 30.7 11.8 30.7 11.7 30.8 11.8 30.7 12 30.7 12.1 30.7 12 30.7 12 30.7 12H30.6C30.6 12.1 30.5 12.1 30.5 12.1H30.4V12.2H30.3C30.3 12.1 30.3 11.9 30.3 11.9 30.3 11.8 30.3 11.8 30.3 11.8 30.2 11.8 30.2 11.9 30.2 12 30.2 11.9 30.2 11.9 30.2 11.9H30.1C30.1 11.9 30.1 12 30 12 30.1 11.9 30 11.9 30 11.8 29.9 11.8 29.9 11.8 29.9 11.8 30 11.9 30 12 30 12 30 12 29.9 12 29.9 11.9H29.8C29.8 11.9 29.8 12 29.9 12L29.8 12.1C29.8 12.1 29.7 12.4 29.6 12.4 29.5 12.4 29.4 12.9 29.3 12.9V13L29.2 13.2 29.1 13.5C29.1 13.6 29 13.9 28.9 14 28.9 14 28.8 14.2 28.8 14.3 28.8 14.3 28.7 14.7 28.6 14.7 28.6 14.8 28.5 14.8 28.5 14.9 28.4 15 28.2 15.8 28.2 15.8 28.2 15.8 28.2 15.8 28.1 15.9 28.1 16 27.9 16.3 27.9 16.4 27.9 16.5 27.9 16.5 27.8 16.5 27.8 16.6 27.7 16.8 27.7 16.9 27.7 16.9 27.7 16.9 27.6 16.9 27.6 17 27.5 17 27.5 17V17.1C27.4 17.4 27.3 17.6 27.2 17.8 27.2 17.9 27.1 18.1 27.1 18.3 27 18.4 26.9 18.8 26.9 19L27 19.2C27 19.2 27 19.4 26.9 19.4V19.5C26.9 19.5 26.9 19.5 26.8 19.5 26.8 19.6 26.7 19.8 26.7 19.9 26.7 19.9 26.7 20.2 26.6 20.2 26.6 20.3 26.5 20.7 26.5 20.9 26.5 21 26.5 21.2 26.5 21.2 26.5 21.3 26.5 21.4 26.5 21.5 26.5 21.5 26.5 21.5 26.4 21.5 26.4 21.7 26.3 22 26.3 22.2 26.3 22.1 26.3 22.1 26.4 22 26.3 21.9 26.4 21.9 26.4 21.9 26.4 21.8 26.4 21.8 26.4 21.8 26.4 21.7 26.4 21.7 26.5 21.6 26.5 21.6 26.5 21.6 26.6 21.6 26.6 21.5 26.6 21.5 26.6 21.5V21.6C26.6 21.6 26.5 21.7 26.6 21.7 26.6 21.7 26.6 21.8 26.5 21.8 26.5 21.9 26.4 22 26.6 22.1 26.5 22.1 26.5 22.1 26.5 22.2V22.1H26.6C26.6 22.1 26.6 22.1 26.6 22.2 26.6 22.2 26.6 22.2 26.6 22.3 26.8 22.2 26.8 22.6 26.7 22.6V22.7C26.7 22.8 26.7 22.8 26.8 22.8 27 22.7 26.9 22.5 26.9 22.4V22L27 21.9C27 21.8 27 21.8 27.1 21.8 27.1 21.7 27.2 21.7 27.2 21.5 27.2 21.5 27.2 21.5 27.3 21.5 27.3 21.5 27.3 21.5 27.4 21.5 27.4 21.5 27.5 21.5 27.5 21.6 27.6 21.6 27.6 21.5 27.6 21.4V21.3 21.2C27.6 21.2 27.6 21.2 27.7 21.2V21.3C27.7 21.3 27.7 21.3 27.8 21.3 27.8 21.2 27.8 21.2 27.9 21.2V21.3 21.2H28C28 21.2 28 21.2 28.1 21.2H28.2 28C28 21.1 28.1 21.2 28.1 21.2 28.2 21.2 28.2 21.2 28.2 21.1H28.3 28.4 28.5 28.6 28.7 28.8L28.9 21H29C29 21 29.1 20.9 29.2 20.9H29C29.1 20.8 29.1 20.9 29.1 20.9 29.2 20.9 29.4 20.8 29.4 20.9 29.5 20.9 29.5 20.9 29.5 20.9 29.6 20.9 29.6 20.9 29.6 20.9 29.7 20.9 29.7 21 29.7 21 29.7 21 29.7 21 29.6 21 29.7 21 29.7 21 29.7 21 29.8 21 29.8 21.1 29.8 21.1 29.8 21.1 29.8 21.1 29.8 21.2 29.8 21.2 29.9 21.2 29.9 21.3V21.4C30 21.4 30 21.4 30 21.4H30.1 30.2C30.3 21.4 30.3 21.4 30.3 21.3 30.3 21.3 30.3 21.3 30.3 21.2H30.4C30.5 21.2 30.6 21.1 30.6 21.1L30.7 21C30.8 20.9 30.8 20.9 30.8 20.9 30.9 20.9 30.9 20.8 30.9 20.8L31 21C31.1 21 31.1 21 31.1 21 31.2 21 31.2 21 31.2 20.9 31.2 20.9 31.2 20.9 31.3 20.9 31.4 20.9 31.4 20.8 31.4 20.8H31.5 31.6C31.6 20.9 31.7 21 31.7 21.1 31.7 21.1 31.7 21.2 31.8 21.2 31.7 21.1 31.8 20.9 31.8 20.8 31.8 20.9 31.9 21 31.9 21 31.9 20.9 31.8 20.7 31.8 20.7H31.9C31.9 20.8 32 20.9 32 21 32 21 32.1 21.3 32.1 21.4 32.1 21.4 32.1 21.6 32.2 21.7 32.2 21.8 32.2 21.8 32.3 21.9 32.3 22 32.3 22 32.3 22 32.3 22 32.3 22.1 32.4 22.1 32.4 22.2 32.5 22.4 32.5 22.5 32.5 22.5 32.5 22.5 32.6 22.5V22.6C32.6 22.7 32.7 22.8 32.7 22.9 32.8 22.9 32.8 22.9 32.8 23 32.8 23 32.8 23.1 32.9 23.1 32.9 23.1 32.9 23 33 23 33 22.9 33 22.9 33.1 22.9 33 22.8 33.1 22.8 33.2 22.8 33.1 22.7 33.1 22.5 33.1 22.4 33.2 22.3 33 22.3 33.1 22.2H33.2C33.2 22.3 33.2 22.3 33.3 22.3 33.3 22.3 33.4 22.5 33.4 22.6 33.4 22.5 33.3 22.1 33.3 22.1 33.3 22.1 33.4 22.1 33.4 22.2 33.4 22.1 33.4 22 33.4 21.9V21.8C33.4 21.7 33.4 21.7 33.4 21.6V21.7 21.6C33.4 21.7 33.5 21.7 33.5 21.9V21.8C33.5 21.7 33.5 21.7 33.5 21.7 33.5 21.6 33.4 21.5 33.5 21.5 33.5 21.4 33.4 21.4 33.5 21.3 33.5 21.4 33.6 21.6 33.6 21.7 33.6 21.4 33.5 21 33.5 20.8 33.6 20.8 33.7 20.9 33.8 20.9H33.7C33.7 20.9 33.7 20.9 33.8 20.9 33.9 20.9 33.9 21 33.9 21 34 21 34 21 34 21 34 21 34 21 34.1 21H34.2C34.3 21 34.3 21 34.3 21.1H34.4C34.4 21.1 34.4 21.1 34.3 21.1 34.3 21.1 34.3 21.1 34.4 21.1 34.4 21 34.5 21 34.5 21 34.5 21 34.6 21 34.6 20.9 34.7 20.9 34.7 20.9 34.7 20.9 34.8 20.9 34.8 20.8 34.8 20.8 34.8 20.8 34.8 20.8 34.9 20.8 35 20.8 35 20.7 35.1 20.7 35.3 20.6 35.4 20.6 35.6 20.6 35.7 20.5 35.9 20.7 35.9 20.6 36 20.6 36 20.6 36.1 20.6 36 20.6 35.9 20.6 35.8 20.6H35.7C35.6 20.6 35.6 20.6 35.4 20.6 35.3 20.6 35.3 20.6 35.2 20.7 35.2 20.7 35.1 20.7 35.1 20.8H35 34.9C34.9 20.8 34.8 20.8 34.8 20.9 34.7 20.9 34.7 20.9 34.7 20.9H34.6C34.6 20.9 34.5 21 34.5 20.9 34.6 20.8 34.6 20.8 34.6 20.8 34.7 20.8 34.7 20.8 34.7 20.8H34.8 34.9C34.9 20.8 34.9 20.8 35 20.8 35.1 20.8 35.1 20.7 35.1 20.7 35.2 20.7 35.2 20.7 35.3 20.7 35.3 20.7 35.3 20.7 35.2 20.7 35.3 20.7 35.3 20.7 35.3 20.7H35.2C35.3 20.7 35.3 20.7 35.3 20.7H35.4 35.5 35.6C35.6 20.7 35.6 20.7 35.5 20.7H35.6C35.6 20.6 35.9 20.7 35.9 20.7 35.9 20.7 36.4 20.8 36.5 20.8 36.6 20.8 36.6 20.8 36.6 20.8H36.5C36.6 20.8 36.6 20.8 36.6 20.8 36.7 20.8 36.7 20.9 36.7 20.9 36.8 20.9 36.8 20.9 36.8 20.9 36.9 20.8 36.7 20.8 36.7 20.8H36.8 36.9C36.9 20.8 36.9 20.8 37 20.8 37 20.7 37 20.7 36.9 20.7 36.7 20.5 36.3 20.6 36 20.4 35.9 20.4 35.7 20.4 35.5 20.4 35.5 20.4 35.4 20.4 35.3 20.4 35.3 20.3 35.4 20.4 35.4 20.4 35.4 20.4 35.4 20.4 35.5 20.4 35.5 20.4 35.5 20.4 35.4 20.4H35.5 35.8 35.9C36 20.4 36 20.4 36 20.4H36.1 36.2C36.3 20.4 36.3 20.4 36.2 20.4 36.3 20.4 36.3 20.4 36.4 20.4H36.3C36.4 20.4 36.4 20.4 36.5 20.4 36.6 20.4 36.8 20.5 36.8 20.5H37 37.1C37.1 20.4 37 20.4 37 20.4 37.1 20.4 37.1 20.4 37.1 20.4 37.1 20.4 37.1 20.4 37.1 20.3H37.2C37.2 20.3 37.2 20.3 37.2 20.2H37.3C37.3 20.1 37.3 20.2 37.2 20.1 37.2 20.1 37.2 20.1 37.1 20 37.1 20 37.1 20 37.2 20H37.3C37.3 19.9 37.3 20 37.2 19.9 37.3 19.9 37.3 19.9 37.3 19.9 36.5 20.2 36.5 20.2 36.6 20.2 36.7 20.3 36.8 20.3 36.9 20.3 36.8 20.2 36.6 20.2 36.6 20.2ZM36.4 19.8C36.4 19.9 36.4 19.9 36.4 19.8 36.4 19.9 36.4 19.8 36.4 19.8ZM32.6 18.6L32.7 18.9C32.7 18.9 32.7 18.9 32.7 19 32.7 19.1 32.7 19.1 32.7 19.1 32.7 19.1 32.7 19.1 32.6 19.1 32.5 19 32.5 18.8 32.5 18.8 32.5 18.8 32.5 18.8 32.4 18.8 32.6 18.7 32.6 18.7 32.6 18.6ZM31.4 19.6C31.3 19.6 31.3 19.5 31.3 19.5 31.3 19.5 31.3 19.5 31.4 19.6 31.3 19.5 31.3 19.5 31.3 19.4 31.3 19.1 31.2 18.7 31.1 18.5V18.4C31.1 18.3 31.1 18.3 31 18.3 31 18.3 31 18.3 31 18.2 31 18.1 31 18.1 31 18.1 31.1 18 31.1 18.4 31.2 18.5 31.2 18.5 31.3 18.7 31.3 18.8 31.2 18.7 31.3 19.2 31.4 19.6 31.4 19.5 31.4 19.5 31.4 19.6ZM30.1 19.3C30.1 19.3 30 19.2 29.9 19.2 29.8 19.2 29.8 19.2 29.7 19.2 29.7 19.2 29.3 19.3 29.2 19.3 29.1 19.3 29.1 19.3 29.1 19.4H29C29 19.4 29 19.4 28.9 19.5L28.8 19.6C28.8 19.6 28.8 19.6 28.7 19.6H28.6C28.6 19.6 28.5 19.6 28.5 19.7 28.5 19.7 28.4 19.7 28.4 19.8L28.3 19.9C28.4 19.7 28.4 19.6 28.4 19.6 28.4 19.5 28.8 18.6 28.8 18.4 28.8 18.3 28.9 18.1 28.9 18.1 28.8 18 28.9 18 29 18V17.9C29 17.8 29 17.7 29.1 17.7 29.1 17.6 29.1 17.6 29.2 17.6 29.2 17.5 29.3 17.5 29.3 17.3 29.2 17.2 29.3 17.3 29.3 17.3 29.3 17.2 29.3 17.2 29.3 17.2 29.3 17.1 29.4 16.9 29.4 16.9L29.5 16.7C29.5 16.6 29.5 16.6 29.6 16.6 29.7 16.5 29.7 16.4 29.7 16.3 29.7 16.2 29.7 16.2 29.7 16.2 29.7 16.1 29.7 16.1 29.8 16.1 29.8 16 29.8 16 29.9 16V16C29.9 15.9 30 15.8 30 15.8 30 15.7 30 15.7 30.1 15.7 30.1 15.6 30.1 15.6 30.1 15.6 30.1 15.6 30.1 15.6 30.2 15.6 30.2 15.7 30.3 15.9 30.3 16.2 30.3 16.2 30.3 16.2 30.3 16.1 30.3 16.2 30.4 16.6 30.4 16.6 30.4 16.7 30.5 17 30.5 17 30.5 17.1 30.6 17.3 30.6 17.4L30.7 17.5 30.8 17.8C30.8 17.8 30.9 18 30.9 18.1L31 18.2C31 18.2 31.3 19 31.3 19.1 31.4 19.2 31.4 19.6 31.5 19.9 31.5 19.9 31.5 19.9 31.4 19.9V20C31.4 20.1 31.4 20.1 31.3 20.1L31.2 20.2C31.1 20.2 31.1 20.3 31.1 20.3 31.1 20.3 31.1 20.3 31 20.3 31 20.3 30.9 20.3 30.9 20.4 30.9 20.3 30.8 20.3 30.8 20.3 30.8 20.3 30.8 20.3 30.8 20.4 30.9 20.4 30.8 20.5 30.8 20.5 30.8 20.5 30.8 20.5 30.7 20.6 30.7 20.6 30.6 20.6 30.6 20.7 30.6 20.6 30.6 20.6 30.7 20.6 30.7 20.5 30.7 20.5 30.7 20.5 30.7 20.4 30.7 20.4 30.7 20.4 30.8 20.4 30.8 20.4 30.8 20.4V20.3 20.2C30.8 20.1 30.7 20.1 30.7 20.1 30.8 20 30.7 20 30.7 20 30.6 19.9 30.6 19.9 30.6 19.9 30.7 19.8 30.7 20 30.7 20 30.8 20 30.8 19.9 30.7 19.9V19.7C30.7 19.6 30.7 19.6 30.6 19.6 30.5 19.5 30.4 19.5 30.3 19.4 30.4 19.4 30.2 19.3 30.1 19.3ZM31.3 20.5C31.2 20.6 31.2 20.5 31.2 20.6 31.2 20.6 31.2 20.6 31.1 20.6 31.1 20.6 31.1 20.6 31 20.6V20.6L30.9 20.7C30.9 20.7 30.9 20.7 30.8 20.7 30.7 20.7 30.7 20.8 30.7 20.8 30.6 20.8 30.6 20.8 30.6 20.8 30.5 20.8 30.5 20.8 30.5 20.9H30.4 30.5C30.6 20.9 30.6 20.9 30.6 20.9 30.7 20.9 30.7 20.9 30.7 20.9 30.7 20.8 30.7 20.9 30.7 20.8 30.8 20.8 30.8 20.7 30.8 20.7 30.8 20.7 30.8 20.7 30.9 20.7 31 20.7 31 20.7 30.9 20.7 30.9 20.7 30.9 20.7 31 20.7 31.1 20.7 31.1 20.6 31.1 20.6L31.2 20.5H31.3C31.2 20.6 31.2 20.6 31.3 20.5 31.3 20.5 31.3 20.4 31.3 20.5 31.4 20.4 31.4 20.4 31.4 20.4 31.3 20.4 31.3 20.4 31.3 20.5 31.4 20.4 31.4 20.4 31.3 20.5 31.4 20.4 31.4 20.4 31.3 20.5 31.4 20.5 31.4 20.5 31.3 20.5ZM34.3 20.5C34.3 20.5 34.4 20.4 34.3 20.5 34.4 20.5 34.4 20.5 34.3 20.5 34.3 20.5 34.4 20.5 34.3 20.5ZM34.4 20.3C34.4 20.3 34.5 20.3 34.4 20.3 34.5 20.3 34.4 20.3 34.4 20.3ZM35.7 20.6C35.6 20.6 35.6 20.6 35.7 20.6 35.6 20.6 35.6 20.6 35.7 20.6ZM36.2 19.8C36.3 19.8 36.3 19.8 36.2 19.8 36.3 19.9 36.2 19.9 36.2 19.8Z" class="b"/><path d="M35.3 20.8C35.4 20.8 35.6 20.9 35.8 20.9 35.9 20.9 35.9 20.9 35.9 21H36C36 20.9 35.5 20.8 35.3 20.8Z" class="b"/><path d="M35.6 20.9C35.7 20.9 35.8 21 35.8 21 35.9 20.9 35.7 20.9 35.6 20.9Z" class="b"/><path d="M5.1 11.8C4.8 11.6 5 11.8 5.1 11.8V11.8ZM5.3 11.9C5.3 11.8 5.3 11.8 5.3 11.9 5.3 11.8 5.3 11.9 5.3 11.9ZM4.1 11.9C4.2 11.8 4.2 11.8 4.2 11.8L4.1 11.9ZM5.2 11.9C5.2 11.9 5.4 11.8 5.2 11.9V11.9ZM4 12C4 12 4 11.9 4 12 4.1 11.9 4.1 11.9 4 12ZM6.1 12C6 12 6 11.9 5.9 11.9 6 11.9 6 11.9 6.1 12ZM3.7 12.1C3.7 12 3.8 12 3.9 12 3.8 12 3.8 12 3.7 12.1ZM6.1 12.8C6.1 12.7 6.1 12.7 6.1 12.8 6.1 12.7 6.1 12.7 6.1 12.8 6.1 12.7 6.1 12.7 6.1 12.8ZM6.8 12.9C6.7 12.8 6.7 12.7 6.6 12.7 6.6 12.7 6.7 12.8 6.8 12.9ZM6.1 12.9C6 12.8 6 12.8 6 12.8 6.1 12.9 6.1 12.9 6.1 12.9ZM2.9 13C3 12.9 3 12.9 2.9 13V13ZM6.8 13.1C6.7 13 6.7 13 6.7 12.9 6.8 12.9 6.8 13 6.8 13.1ZM6.3 13.3C6.2 13.2 6.2 13.2 6.3 13.3V13.3ZM6.3 13.4C6.3 13.3 6.3 13.3 6.3 13.4V13.4ZM7 13.7C6.9 13.7 7 13.6 7 13.6 7 13.7 7 13.7 7 13.7ZM4.1 14.3C4 14.2 4 14.2 4.1 14.3 4 14.2 4.1 14.2 4.1 14.3 4.1 14.2 4.1 14.2 4.1 14.3 4.1 14.2 4.1 14.2 4.1 14.3ZM0.7 16.3C0.7 16.3 0.7 16.2 0.7 16.3V16.3ZM0.6 16.5C0.6 16.4 0.7 16.3 0.6 16.5V16.5ZM0.5 16.7C0.5 16.7 0.6 16.6 0.5 16.7V16.7ZM0.3 17.5C0.4 17.5 0.4 17.5 0.3 17.5V17.5ZM0.2 18C0.7 16.4 0.7 17.5 0.2 18V18ZM0.3 18.1C0.3 18 0.3 18 0.3 18.1V18.1ZM0.2 18.3C0.3 18.3 0.2 18.3 0.2 18.3V18.3ZM0.1 18.6C0.1 18.5 0.1 18.5 0.1 18.4 0.1 18.4 0.2 18.5 0.1 18.6ZM0.1 18.7C0.1 18.6 0.1 18.7 0.1 18.7V18.7ZM2 19.8C2 19.8 1.9 19.8 2 19.8V19.8ZM0.8 20C0.8 19.9 0.8 19.9 0.8 20V20ZM0.7 20.4C0.6 20.3 0.7 20.3 0.7 20.3 0.7 20.3 0.7 20.3 0.7 20.4ZM0.7 20.5C0.7 20.4 0.7 20.4 0.7 20.5 0.7 20.4 0.7 20.4 0.7 20.5 0.7 20.4 0.7 20.4 0.7 20.5ZM1 20.8C0.9 20.7 0.9 20.7 1 20.8 1 20.8 1 20.7 1 20.8ZM1 20.8C0.9 20.8 0.9 20.8 1 20.8V20.8ZM0.7 21C0.7 20.9 0.7 20.9 0.7 21V21ZM0.7 21.1C0.7 21 0.7 21 0.7 21.1 0.7 21 0.7 21 0.7 21.1 0.8 21 0.7 20.8 0.7 21.1ZM1 21.2C1 21.2 1 20.7 1 21.2V21.2ZM0.8 21.4C0.8 21.3 0.8 21.3 0.8 21.4 0.8 21.3 0.7 21 0.7 21.2 0.8 21.1 1 21.2 0.8 21.4ZM1.5 21.5C1.5 21.5 1.6 21.5 1.5 21.5V21.5ZM1.6 21.7C1.5 21.6 1.6 21.6 1.6 21.7 1.6 21.6 1.6 21.6 1.6 21.7 1.6 21.6 1.6 21.6 1.6 21.7 1.6 21.5 1.6 21.6 1.6 21.7 1.6 21.6 1.6 21.6 1.6 21.7 1.6 21.6 1.6 21.7 1.6 21.7ZM1 21.7C0.8 21.7 0.7 21.1 1 21.7 0.9 21.5 1 21.6 1 21.7ZM1.6 21.7C1.7 21.7 1.7 21.7 1.6 21.7V21.7ZM1.2 21.8C1.3 21.8 1.2 21.8 1.2 21.8V21.8ZM1.2 21.9C1.2 21.8 1.2 21.8 1.3 21.8 1.3 21.8 1.1 21.3 1.2 21.3 1.4 21.2 1.4 21.4 1.4 21.6 1.4 21.6 1.7 21.9 1.2 21.9ZM2 22.2C2 22.2 1.9 22.2 2 22.2V22.2ZM2.5 22.3C2.4 22.3 2.4 22.3 2.4 22.2 2.4 22.3 2.4 22.3 2.5 22.3 2.4 22.2 2.4 22.2 2.4 22.2 1.5 20.9 2.2 22.1 2.9 22.1H2.8C3 22.1 3 22.2 2.5 22.3ZM2.1 22.5C2 22.4 1.9 22.4 1.8 22.4 1.9 22.3 2.1 22.2 2.1 22.5ZM1.2 22.5C1.2 22.4 1.1 22.3 1.1 22.3 0.6 21.7 1.1 22.5 1.2 22.5ZM3.2 22.8C3.2 22.7 3.2 22.8 3.2 22.8V22.8ZM2.3 22.9C1.6 22.5 1.8 22 1.3 22 1.3 22 1.3 22 1.2 22 1.2 21.9 1.2 21.9 1.1 21.9 1.1 21.8 1.1 21.7 1 21.7 1 21.7 1 21.7 1.1 21.7 1.6 23.6 1 21.9 0.5 21.9 0.5 21.7 0.4 21.6 0.3 21.5 0.3 21.5 0.3 21.4 0.2 21.3 0.3 21.3 0.3 21.2 0.2 21.2 0.3 21.2 0.3 21.2 0.2 21.1 0.2 21 0.2 21 0.1 21 0.2 21 0.2 20.9 0.2 20.8 0.2 20.9 0.2 21 0.3 20.9 0.2 20.9 0.2 20.9 0.2 21 0.2 20.1 0.3 19.3 0.3 18.4 0.3 18.7 0.1 18.9 0.2 19.1 0.1 19.1 0 19.2 0.1 19.4 0.1 19.3 0 18.9-0.1 18.9 -0.1 18.7 0 18.2 0 17.8 0 17.8 0 17.9-0.1 17.9 1.6 13.8 3.6 11.7 5.1 11.7 5.3 11.8 6 11.9 5.6 11.9 5.8 12 5.9 12.1 5.9 11.8 5.9 11.8 6 12.4 6 12.5 6 13.1 6.1 13 6 13.9 6 14.1 5.7 15 5.7 15 5.7 15.1 5.7 15.1 5.7 15.1 5.7 15 5.6 15 5.6 14.9 5.6 15.2 5.5 15.4 5.3 15.4 5.1 16.5 4.8 17 4.3 16.3 4.4 16.6 4.1 16.8 4.1 17.2 4.1 17.1 3.6 15.6 4 15.6 2.7 12.5 3.2 17.2 1.8 18.6 1.8 19.6 1.5 21.8 2.8 21.8 3.1 21.6 4 21.3 4 21.3 5.1 21 5 21.2 4.3 21.8 4 22.1 3.5 22.4 3 22.6 2.7 22.5 2.4 22.6 2.3 22.9ZM3 23C3 23 3.1 23 3.1 22.9 3 22.9 3 22.9 3 23ZM2.4 23.3C2.5 23.3 2.8 23 2.9 23 2.8 23.1 2.5 23.3 2.4 23.3Z" class="a"/><path d="M10.2 12.6C10.3 12.6 10.3 12.6 10.2 12.6 10.3 12.6 10.3 12.6 10.2 12.6ZM10.1 12.6C10.1 12.5 10.2 12.6 10.1 12.6 10.2 12.6 10.2 12.6 10.1 12.6ZM9.3 12.5C9.3 12.4 9.3 12.4 9.3 12.5 9.3 12.4 9.3 12.4 9.3 12.5 9.3 12.4 9.3 12.4 9.3 12.5 9.3 12.4 9.3 12.4 9.3 12.5 9.3 12.4 9.3 12.4 9.3 12.5ZM9.1 12.4C9.2 12.4 9.2 12.4 9.3 12.4 9.3 12.4 9.3 12.4 9.3 12.5 9.3 12.4 9.2 12.5 9.1 12.4 9.2 12.4 9.2 12.5 9.1 12.4ZM10.6 12.7C10.6 12.7 10.6 12.8 10.6 12.7 10.6 12.8 10.6 12.8 10.6 12.7ZM10.8 12.9C10.7 12.8 10.7 12.8 10.7 12.8 10.7 12.8 10.8 12.8 10.8 12.9ZM10.9 12.9C10.9 12.9 10.8 12.9 10.9 12.9 10.8 12.9 10.8 12.9 10.9 12.9 11 12.9 11 12.9 10.9 12.9 11 12.9 11 12.9 10.9 12.9ZM9 12.6C9.1 12.6 9.1 12.5 9 12.6 9.1 12.5 9.1 12.5 9 12.6 9.1 12.6 9.1 12.6 9 12.6ZM9 12.6C9 12.6 9 12.5 9 12.6 9 12.5 9 12.5 9 12.6 9 12.5 9 12.5 9 12.6ZM11.3 13.1C11.2 13.1 11.2 13.1 11.3 13.1 11.2 13 11.1 13 11.1 13 11 13 11 12.9 11 12.9 11 12.8 11.1 13 11.2 13L11.3 13.1ZM11.4 13.1C11.4 13.1 11.3 13.1 11.4 13.1 11.3 13.1 11.4 13.1 11.4 13.1ZM9.9 12.9C9.9 12.9 9.9 12.8 9.9 12.9 9.9 12.8 9.9 12.8 9.9 12.9 9.9 12.8 10 12.8 9.9 12.9 10 12.8 10 12.9 9.9 12.9ZM9.6 12.9C9.6 12.7 9.5 12.7 9.8 12.8 9.8 12.7 9.9 12.8 9.9 12.8 9.9 12.8 9.9 12.8 9.9 12.9 9.9 12.9 9.9 12.9 9.9 13 9.8 12.7 9.7 12.8 9.6 12.9 9.6 12.8 9.6 12.8 9.6 12.9ZM11.7 13.3C11.6 13.2 11.6 13.2 11.6 13.2 11.5 13.2 11.4 13.1 11.4 13.1L11.2 13C11.2 12.9 10.7 12.8 10.7 12.8 10.8 12.8 11 12.9 11.1 12.9 11.2 13 11.4 13.1 11.6 13.2 11.7 13.2 11.7 13.3 11.7 13.3 11.8 13.3 11.8 13.3 11.7 13.3ZM11.4 13.3C11.4 13.3 11.5 13.3 11.4 13.3V13.3ZM11.7 13.5L11.6 13.4C11.6 13.3 11.6 13.3 11.7 13.5 11.7 13.4 11.7 13.4 11.7 13.5 11.7 13.4 11.7 13.4 11.7 13.5 11.7 13.4 11.7 13.4 11.7 13.5ZM11.8 13.5C11.7 13.5 11.8 13.5 11.8 13.5V13.5ZM12.4 13.7C12.3 13.7 12.3 13.7 12.4 13.7V13.7ZM12.1 13.9C12.1 13.8 12 13.8 12.1 13.9L12 13.7C12 13.7 12 13.7 12.1 13.7 12.1 13.8 12.1 13.8 12.1 13.9 12.1 13.8 12.1 13.7 12.1 13.9 12.1 13.8 12.1 13.8 12.1 13.9ZM12.6 14C12.5 13.9 12.5 13.9 12.4 13.8 12.4 13.8 12.6 13.9 12.6 14ZM12.3 14.4C12.3 14.4 12.3 14.3 12.3 14.4 12.2 14.3 12.2 14 12.2 13.9 12.3 13.9 12.3 14 12.3 14 12.3 14.1 12.3 14.3 12.3 14.4ZM12.4 14.5C12.4 14.5 12.4 14.4 12.3 14.4 12.3 14.3 12.3 14.3 12.3 14.3V14.2 14.3C12.4 14.3 12.4 14.5 12.4 14.5ZM12.4 14.8C12.4 14.7 12.4 14.7 12.4 14.7 12.3 14.6 12.3 14.6 12.3 14.6 12.3 14.5 12.3 14.5 12.3 14.5 12.4 14.5 12.4 14.7 12.4 14.8ZM10.4 14.5C10.4 14.5 10.5 14.5 10.4 14.5 10.5 14.5 10.5 14.5 10.4 14.5ZM9.4 14.4C9.4 14.3 9.4 14.3 9.4 14.4 9.4 14.3 9.5 14.3 9.5 14.3 9.5 14.3 9.5 14.4 9.4 14.4 9.5 14.4 9.5 14.4 9.4 14.4ZM10.7 14.8C10.6 14.7 10.6 14.7 10.6 14.7 10.6 14.8 10.7 14.8 10.7 14.8ZM10.4 14.8C10.4 14.8 10.3 14.8 10.4 14.8 10.3 14.8 10.3 14.8 10.4 14.8 10.3 14.8 10.3 14.8 10.4 14.8ZM10.7 15C10.7 14.9 10.6 14.9 10.7 15 10.7 14.8 10.7 14.9 10.7 15 10.7 14.9 10.7 14.9 10.7 15 10.7 14.9 10.7 14.9 10.7 15 10.7 14.9 10.7 14.9 10.7 15ZM9.4 14.6C9.4 14.5 9.4 14.5 9.4 14.5H9.5C9.5 14.6 9.4 14.6 9.4 14.6ZM9.4 14.7C9.4 14.7 9.5 14.7 9.4 14.7 9.5 14.7 9.4 14.7 9.4 14.7ZM10.3 15C10.3 15 10.3 14.9 10.3 15 10.2 14.9 10.2 14.9 10.2 14.9 10.2 14.9 10.2 14.9 10.2 14.8 10.3 14.8 10.3 14.8 10.3 14.8 10.3 14.9 10.3 15 10.3 15ZM11 15.2C11 15.2 11 15.1 11 15.2 11 15.1 11 15.1 11 15.2 11 15.1 11 15.2 11 15.2ZM10.5 15.1C10.5 15.1 10.5 15 10.5 15.1 10.5 15 10.5 15 10.5 15.1 10.5 15 10.4 15 10.4 14.9V15C10.5 15 10.5 15 10.5 15.1 10.6 15 10.6 15 10.5 15.1 10.6 15 10.6 15 10.5 15.1 10.6 15.1 10.5 15.1 10.5 15.1ZM9.4 14.9C9.4 14.8 9.4 14.8 9.4 14.9 9.4 14.8 9.4 14.8 9.4 14.9ZM11 15.3C11 15.2 11 15.2 11 15.3 11 15.2 11 15.2 11 15.2 11 15.2 11 15.2 11 15.3ZM12.4 15.7C12.4 15.7 12.4 15.6 12.4 15.7 12.4 15.6 12.4 15.6 12.4 15.7 12.4 15.6 12.4 15.7 12.4 15.7ZM13.1 15.8C13.2 15.8 13.2 15.8 13.1 15.8 13.2 15.8 13.2 15.8 13.1 15.8ZM10.5 15.3C10.5 15.3 10.5 15.2 10.5 15.3 10.5 15.2 10.4 15.2 10.4 15.2 10.5 15.2 10.5 15.2 10.5 15.3 10.6 15.3 10.5 15.3 10.5 15.3ZM10.6 15.4C10.6 15.4 10.7 15.4 10.6 15.4 10.7 15.4 10.7 15.4 10.6 15.4 10.7 15.4 10.7 15.4 10.6 15.4ZM10.9 15.5C10.9 15.4 10.9 15.4 10.9 15.4 11 15.4 11 15.4 10.9 15.5 11 15.5 11 15.5 10.9 15.5ZM10.5 15.5C10.5 15.4 10.5 15.4 10.5 15.5 10.5 15.4 10.3 15.4 10.3 15.4H10.2 10.1C10.1 15.3 10.1 15.3 10.1 15.2V15.1C10.2 15.1 10.3 15.1 10.4 15.2 10.4 15.2 10.5 15.4 10.5 15.5ZM10.6 15.6C10.6 15.5 10.6 15.5 10.6 15.6 10.7 15.5 10.6 15.5 10.6 15.5 10.6 15.5 10.6 15.4 10.5 15.4H10.6C10.6 15.4 10.6 15.4 10.6 15.6 10.6 15.5 10.6 15.6 10.6 15.6ZM10.7 15.6C10.6 15.5 10.7 15.4 10.7 15.4V15.5C10.8 15.5 10.7 15.6 10.7 15.6ZM10.3 15.6C10.2 15.5 10.2 15.5 10.1 15.5 10.1 15.4 10.1 15.4 10.2 15.4 10.2 15.4 10.2 15.4 10.3 15.4 10.2 15.4 10.3 15.5 10.3 15.6ZM10.1 15.7C10.2 15.6 10.2 15.7 10.4 15.7 10.4 15.7 10.4 15.7 10.5 15.7 10.3 15.7 10.1 15.6 10.1 15.7ZM10.6 15.8C10.6 15.7 10.6 15.7 10.6 15.7V15.8C10.7 15.8 10.7 15.8 10.6 15.8ZM10.5 15.8C10.5 15.7 10.5 15.7 10.5 15.7 10.4 15.7 10.5 15.7 10.5 15.8 10.4 15.8 10.4 15.8 10.5 15.8 10.4 15.8 10.4 15.7 10.5 15.8 10.4 15.7 10.4 15.7 10.4 15.7H10.5L10.4 15.6C10.4 15.5 10.3 15.5 10.3 15.4 10.3 15.4 10.3 15.4 10.3 15.3 10.4 15.3 10.4 15.3 10.5 15.4 10.5 15.4 10.5 15.4 10.5 15.5 10.5 15.5 10.6 15.4 10.6 15.5 10.6 15.6 10.5 15.7 10.5 15.8ZM12.3 16.3C12.3 16.2 12.4 16.2 12.4 16.1 12.4 16 12.5 16 12.5 15.9 12.5 16 12.5 16 12.4 16.1 12.4 16.1 12.3 16.2 12.3 16.3ZM10.4 16C10.2 15.8 10 16 10 15.7 10.1 15.7 10.1 15.7 10.3 15.7 10.4 15.7 10.4 15.7 10.4 15.7V15.8H10.5C10.5 15.9 10.5 15.9 10.4 16ZM9.2 15.8C9.2 15.7 9.2 15.5 9.3 15.5 9.3 15.5 9.3 15.6 9.2 15.7 9.2 15.7 9.3 15.7 9.2 15.8 9.3 15.8 9.2 15.8 9.2 15.8ZM9.2 15.9C9.2 15.8 9.2 15.8 9.2 15.9 9.2 15.8 9.2 15.8 9.2 15.9 9.2 15.8 9.2 15.8 9.2 15.9ZM9.2 16C9.2 15.9 9.2 15.9 9.2 16 9.2 15.9 9.2 15.9 9.2 16 9.2 15.9 9.2 15.9 9.2 16ZM9.9 16.4C9.9 16.3 10 16.1 10 16 10.1 16 10.3 16 10.5 16.1L10.4 16.2C10.3 16.2 10.3 16.2 10.3 16.3 10.1 16.2 10 16.3 9.9 16.4ZM9.1 16.4C9.1 16.3 9.2 15.9 9.2 15.9 9.2 15.9 9.2 15.9 9.3 15.9V16C9.3 16 9.3 16 9.2 16 9.2 16.1 9.2 16.1 9.2 16.1 9.2 16.1 9.2 16.1 9.1 16.1 9.1 16.3 9.2 16.3 9.1 16.4ZM11.4 17.3C11.4 17.3 11.5 17.3 11.4 17.3 11.5 17.3 11.5 17.3 11.4 17.3 11.5 17.3 11.4 17.3 11.4 17.3ZM7.8 17C7.8 16.9 7.8 16.9 7.8 17 7.8 16.9 7.8 16.9 7.9 16.9 7.8 16.9 7.8 16.9 7.8 17 7.8 16.9 7.8 16.9 7.8 17 7.8 17 7.8 16.9 7.8 17ZM11.4 17.8C11.4 17.7 11.4 17.8 11.4 17.8V17.8ZM7.7 17.1C7.7 17 7.7 17 7.7 17 7.8 17 7.8 17.1 7.7 17.1 7.8 17.1 7.7 17.1 7.7 17.1ZM7.6 17.2C7.6 17.1 7.6 17.1 7.6 17.2 7.6 17.1 7.6 17.1 7.6 17.2 7.6 17.1 7.6 17.1 7.6 17.2ZM7.7 17.3C7.7 17.2 7.6 17.1 7.8 17.1 7.8 17.2 7.7 17.2 7.7 17.3ZM11.9 18.5C11.8 18.4 11.8 18.4 11.8 18.4 11.8 18.4 11.7 18.3 11.8 18.3 11.7 18.3 11.7 18.2 11.7 18.2 11.7 18.2 11.7 18.2 11.7 18.1 11.7 18.1 11.7 18.1 11.6 18.1 11.5 18 11.5 18 11.5 18 11.4 18 11.4 17.9 11.4 17.9L11.5 18C11.5 18 11.7 18.2 11.7 18.3 11.8 18.3 11.8 18.4 11.8 18.4L11.9 18.5C12 18.5 11.9 18.5 11.9 18.5ZM7.5 17.9C7.5 17.8 7.6 17.6 7.6 17.6V17.5 17.4C7.6 17.3 7.6 17.3 7.7 17.3 7.7 17.3 7.7 17.7 7.6 17.8 7.5 17.8 7.5 17.8 7.5 17.9 7.5 17.9 7.5 17.8 7.5 17.9ZM7.5 18C7.5 17.9 7.5 17.9 7.6 17.9 7.5 17.9 7.5 18 7.5 18ZM10.1 18.7C10.1 18.7 10.1 18.6 10.1 18.7 10.2 18.6 10.2 18.7 10.1 18.7 10.2 18.7 10.2 18.7 10.1 18.7ZM8.7 18.4C8.6 18.3 8.7 18.3 8.7 18.3 8.7 18.3 8.7 18.3 8.8 18.3 8.8 18.3 8.7 18.3 8.7 18.4 8.8 18.4 8.8 18.4 8.7 18.4 8.8 18.4 8.8 18.4 8.7 18.4 8.8 18.4 8.7 18.4 8.7 18.4ZM7.5 18.2C7.5 18.2 7.5 18.1 7.5 18.2 7.5 18.1 7.5 18.2 7.5 18.2 7.5 18.1 7.5 18.2 7.5 18.2ZM8.7 18.6C8.7 18.6 8.7 18.5 8.7 18.6 8.7 18.5 8.7 18.5 8.7 18.6 8.7 18.5 8.7 18.5 8.7 18.5 8.7 18.5 8.7 18.5 8.8 18.5 8.7 18.5 8.7 18.5 8.7 18.6ZM9.7 18.9C9.8 18.9 9.8 18.9 9.7 18.9 9.7 18.9 9.8 18.9 9.7 18.9ZM7.4 18.7C7.5 18.7 7.5 18.7 7.4 18.7V18.7ZM10.1 19.4C10.1 19.3 10.1 19.3 10.1 19.4 10.1 19.3 10.1 19.3 10.1 19.4 10.1 19.3 10.1 19.3 10.1 19.4 10 19.3 10.1 19.3 10.1 19.4L10 19.2H9.9C9.8 19.2 9.8 19.1 9.8 19.1 9.8 19.1 9.7 19.1 9.7 19 9.8 19 9.8 19.1 9.8 19.1 9.9 19.1 10 19.2 10.1 19.4 10.1 19.3 10.1 19.3 10.1 19.4 10.1 19.3 10.1 19.3 10.1 19.4 10.1 19.3 10.1 19.3 10.1 19.4ZM12.8 20C12.7 20 12.7 20 12.8 20 12.7 20 12.8 20 12.8 20ZM12.8 20.2C12.8 20.1 12.8 20.1 12.7 20.1 12.8 20.1 12.8 20.2 12.8 20.2ZM10.4 19.8C10.4 19.7 10.3 19.7 10.3 19.7 10.3 19.6 10.2 19.6 10.2 19.6 10.2 19.6 10.2 19.6 10.2 19.5 10.2 19.5 10.2 19.4 10.1 19.4 10.1 19.4 10.1 19.4 10.1 19.3 10.1 19.3 10.1 19.3 10.1 19.4V19.3C10.1 19.3 10.1 19.3 10 19.3 10 19.2 10.1 19.3 10.1 19.3 10.1 19.3 10.1 19.3 10.2 19.3 10.3 19.3 10.2 19.4 10.2 19.4V19.5C10.2 19.5 10.1 19.5 10.2 19.5H10.3C10.3 19.6 10.3 19.5 10.3 19.6 10.3 19.7 10.4 19.8 10.4 19.8ZM7.4 19.3C7.4 19.2 7.4 19.1 7.5 19.2 7.5 19.2 7.5 19.2 7.5 19.1V19.2C7.4 19.2 7.4 19.2 7.4 19.3 7.4 19.2 7.4 19.2 7.4 19.3ZM13.1 20.6C13.1 20.5 13 20.5 13 20.5 13 20.4 12.9 20.4 12.9 20.4 12.8 20.3 12.8 20.3 12.8 20.3 12.7 20.3 12.7 20.2 12.7 20.2 12.7 20.2 12.7 20.2 12.7 20.1L12.8 20.2C13 20.4 13 20.6 13.1 20.6ZM8.1 19.6C8.1 19.5 8.1 19.5 8.1 19.6V19.6ZM13.2 20.7C13.2 20.7 13.1 20.7 13.2 20.7 13.2 20.6 13.2 20.6 13.2 20.7ZM13.2 20.9C13.1 20.8 13.1 20.8 13.1 20.8 13.1 20.8 13.1 20.8 13.1 20.7 13.2 20.7 13.2 20.8 13.2 20.9 13.3 20.9 13.3 20.9 13.2 20.9 13.3 20.9 13.2 20.9 13.2 20.9ZM8.1 19.9C8.1 19.8 8.1 19.8 8.1 19.8 8.1 19.8 8.1 19.8 8.1 19.9 8.1 19.8 8.1 19.9 8.1 19.9ZM13.3 21.1C13.3 21.1 13.3 21 13.3 21.1 13.3 21 13.3 21 13.3 21.1 13.3 21 13.3 21 13.3 21.1ZM13.3 21.2C13.3 21.1 13.4 21.1 13.3 21.2 13.3 21.2 13.4 21.2 13.3 21.2ZM7.6 20C7.6 20 7.6 19.9 7.6 20 7.6 19.9 7.6 19.9 7.6 20ZM7.6 20.2C7.6 20.1 7.6 20.1 7.6 20.2 7.6 20.1 7.6 20.2 7.6 20.2ZM7.4 20.2C7.4 20.1 7.4 20.1 7.4 20.1 7.4 20 7.4 20 7.4 19.9 7.4 20 7.4 20.2 7.4 20.2ZM8.7 20.6C8.6 20.5 8.7 20.3 8.7 20.3 8.6 20.3 8.7 20.2 8.7 20.2V20.1C8.8 20 8.7 19.8 8.7 19.6 8.6 19.6 8.7 19.6 8.6 19.5 8.6 19.5 8.6 19.5 8.7 19.5 8.7 19.5 8.7 19.5 8.6 19.4 8.6 19.3 8.5 19.1 8.6 19.1 8.6 19 8.6 19 8.6 19 8.5 19 8.6 18.9 8.6 18.9 8.6 18.8 8.6 18.8 8.6 18.8 8.5 18.7 8.6 18.6 8.6 18.5 8.6 18.5 8.7 18.5 8.7 18.6 8.7 18.7 8.6 18.7 8.6 18.7 8.6 18.7 8.5 19 8.6 19V19.1C8.5 19.2 8.6 19.1 8.6 19.2 8.6 19.3 8.6 19.3 8.6 19.5V20C8.8 20.2 8.8 20.6 8.7 20.6ZM11.1 21.2C11 21.1 10.9 20.9 10.9 20.9 10.8 20.8 10.8 20.7 10.8 20.7 10.8 20.7 10.8 20.7 10.8 20.6 10.7 20.6 10.6 20.4 10.6 20.4 10.6 20.4 10.6 20.4 10.6 20.3 10.5 20.3 10.3 20 10.3 20 10.3 20 10.3 20 10.3 19.9V19.8C10.3 19.8 10.2 19.8 10.2 19.7 10.2 19.6 10.2 19.6 10.1 19.6 10.1 19.5 10 19.4 10 19.4 9.9 19.3 9.9 19.3 9.9 19.2V19.2C9.9 19.2 9.9 19.2 9.9 19.1 9.9 19.1 9.9 19.1 9.8 19.1 9.7 19 9.7 19 9.7 19 9.7 19 9.7 19 9.7 18.9 9.6 18.9 9.6 18.8 9.6 18.8 9.7 19 9.7 19 9.7 18.9 9.7 18.9 9.7 18.9 9.6 18.9 9.6 18.8 9.6 18.8 9.5 18.8H9.6L9.7 18.9 9.8 19C9.9 19 9.9 19.1 9.9 19.1 9.9 19.1 9.9 19.1 10 19.1 10 19.2 10 19.2 10.1 19.2 10.1 19.2 10.1 19.2 10.2 19.2 10.2 19.2 10.3 19.3 10.4 19.5L10.5 19.6C10.5 19.6 10.5 19.6 10.6 19.6 10.6 19.6 10.7 19.6 10.7 19.7L10.8 19.8C10.5 20.2 11.1 21.1 11.1 21.2ZM9 20.8C9 20.7 9 20.7 9 20.8V20.8ZM11.9 21.5C11.9 21.4 11.9 21.4 11.9 21.5 11.9 21.4 11.9 21.4 11.9 21.5 11.9 21.4 11.9 21.4 11.9 21.5ZM11.9 21.5C11.9 21.5 12 21.5 11.9 21.5V21.5ZM7.4 20.5C7.4 20.4 7.4 20.4 7.4 20.5 7.4 20.4 7.4 20.4 7.4 20.5 7.4 20.4 7.4 20.5 7.4 20.5ZM11.2 21.4C11.2 21.4 11.2 21.3 11.2 21.4 11.2 21.2 11.2 21.3 11.2 21.4 11.2 21.3 11.2 21.3 11.2 21.4ZM11.3 21.4C11.3 21.2 11 21.1 11 21 11 20.9 11 20.9 10.9 20.9 10.9 20.9 10.9 20.9 10.8 20.9 10.8 20.8 10.7 20.8 10.7 20.7 10.6 20.7 10.6 20.5 10.6 20.5 10.6 20.4 10.5 20.4 10.5 20.4 10.4 20.4 10.4 20.2 10.4 20.2L10.3 20.1 10.4 20C10.4 20 10.5 20 10.5 20.1 10.5 20.1 10.5 20.1 10.6 20.2 10.6 20.2 10.6 20.2 10.7 20.2 10.8 20.2 10.8 20.2 10.8 20.3 10.8 20.3 10.8 20.3 10.9 20.3 10.9 20.4 11 20.6 11.1 20.6L11.2 20.7C11.2 20.7 11.2 20.7 11.1 20.7 11.1 20.7 11.1 20.7 11.2 20.8V20.9C11.2 20.9 11.2 20.9 11.2 21H11.3C11.3 21 11.3 21 11.3 21.1H11.4C11.5 21.1 11.5 21.2 11.5 21.3L11.6 21.4C11.6 21.4 11.6 21.4 11.5 21.4H11.6C11.6 21.4 11.6 21.4 11.6 21.5 11.4 21.3 11.3 21.3 11.3 21.4 11.4 21.4 11.4 21.4 11.3 21.4ZM8.9 20.9C8.9 20.9 9 20.8 8.9 20.9 9 20.8 9 20.9 8.9 20.9 9 20.9 9 20.9 8.9 20.9ZM8.7 20.8C8.7 20.7 8.7 20.7 8.7 20.6 8.7 20.6 8.8 20.8 8.7 20.8ZM7.7 20.7C7.7 20.6 7.7 20.6 7.7 20.7 7.8 20.6 7.7 20.7 7.7 20.7ZM7.4 20.7C7.4 20.6 7.3 20.6 7.3 20.6V20.5C7.3 20.5 7.3 20.5 7.4 20.5 7.4 20.6 7.4 20.6 7.4 20.7 7.4 20.6 7.4 20.7 7.4 20.7ZM11.3 21.6C11.3 21.5 11.3 21.5 11.3 21.6 11.3 21.5 11.3 21.5 11.3 21.6 11.3 21.5 11.3 21.5 11.3 21.6 11.2 21.5 11.2 21.5 11.2 21.4 11.2 21.5 11.3 21.5 11.3 21.5 11.3 21.4 11.3 21.5 11.3 21.6 11.3 21.5 11.3 21.5 11.3 21.6ZM7.7 20.8C7.7 20.8 7.8 20.8 7.7 20.8 7.8 20.8 7.8 20.8 7.7 20.8 7.8 20.8 7.7 20.8 7.7 20.8ZM13.8 22.2C13.8 22.1 13.8 22.1 13.8 22.2V22.2ZM11.5 21.7C11.5 21.6 11.4 21.6 11.4 21.6 11.4 21.5 11.3 21.5 11.3 21.5V21.4C11.3 21.4 11.4 21.4 11.4 21.5L11.5 21.6C11.5 21.7 11.5 21.7 11.5 21.7 11.6 21.7 11.5 21.7 11.5 21.7ZM13.2 22.1C13.2 22 13.2 22 13.2 22.1 13.2 22 13.2 22 13.2 22.1 13.2 22 13.2 22 13.2 22.1 13.2 22 13.2 22 13.2 22.1ZM13.8 22.3C13.8 22.2 13.7 22.2 13.8 22.2V22.3C13.8 22.3 13.9 22.3 13.8 22.3 13.9 22.3 13.9 22.3 13.8 22.3ZM13.2 22.2C13.2 22.1 13.2 22.1 13.2 22.2 13.2 22.1 13.2 22.1 13.2 22.2ZM11.7 21.9C11.7 21.8 11.6 21.8 11.7 21.8 11.7 21.8 11.7 21.8 11.7 21.9ZM11.5 21.8C11.5 21.7 11.4 21.7 11.5 21.8 11.4 21.7 11.4 21.7 11.5 21.8 11.5 21.7 11.4 21.7 11.5 21.8ZM13.3 22.3C13.3 22.2 13.2 22.2 13.3 22.2 13.3 22.2 13.3 22.2 13.4 22.2 13.3 22.2 13.3 22.3 13.3 22.3ZM11.7 22C11.8 22 11.7 22 11.7 22V22ZM14.2 22.7C14.1 22.6 14.1 22.4 14.1 22.4 14.1 22.3 14.1 22.3 14.1 22.3 14.1 22.3 14.3 22.6 14.2 22.7ZM13.3 22.5C13.2 22.4 13.2 22.4 13.2 22.4 13.3 22.5 13.3 22.5 13.3 22.5ZM9 21.6C8.9 21.5 8.9 21.5 8.9 21.5 8.9 21.5 8.9 21.5 8.8 21.5V21.4C8.8 21.3 8.8 21.3 8.8 21.2 8.7 21.2 8.8 21.1 8.8 21.1V21C8.9 20.9 8.9 21.3 8.9 21.4V21.5C8.9 21.5 8.9 21.5 8.8 21.6 9 21.5 9 21.5 9 21.6 9 21.5 9 21.6 9 21.6ZM13.3 22.6C13.3 22.5 13.3 22.5 13.3 22.6 13.4 22.6 13.4 22.6 13.3 22.6ZM9.2 21.8C9.2 21.8 9.2 21.7 9.2 21.8 9.1 21.7 9.1 21.5 9.2 21.5 9.1 21.4 9.1 21.2 9.2 21.1V21C9.2 20.9 9.2 20.9 9.2 20.8 9.2 20.8 9.2 20.8 9.2 20.7V20C9.2 19.9 9.2 19.7 9.3 19.7 9.3 19.7 9.3 19.7 9.3 19.8V20 20.3 20.8C9.3 20.9 9.3 21.1 9.3 21.2 9.3 21.2 9.3 21.2 9.3 21.3 9.3 21.3 9.3 21.3 9.3 21.4 9.3 21.4 9.4 21.5 9.3 21.6 9.2 21.5 9.2 21.7 9.2 21.8 9.2 21.7 9.2 21.7 9.2 21.8 9.2 21.7 9.2 21.7 9.2 21.8ZM12 22.5C11.9 22.4 12 22.4 12 22.5V22.5ZM12.1 22.6C12.1 22.6 12.1 22.5 12.1 22.6V22.6ZM14 23.4C14 23.4 14 23.3 14 23.4 14.1 23.3 14.1 23.3 14 23.4ZM13 23.2C13 23.1 13 23.1 13 23.2 13 23.1 13 23.1 13 23.2ZM9.3 22.4C9.3 22.3 9.3 22.1 9.3 22.1 9.3 22.2 9.3 22.2 9.3 22.2 9.3 22.2 9.3 22.3 9.3 22.4ZM13.3 23.8C13.3 23.7 13.3 23.7 13.2 23.7V23.6C13.2 23.6 13.2 23.6 13.2 23.7 13.2 23.7 13.2 23.7 13.1 23.7V23.6C13.1 23.6 13.1 23.6 13 23.6 13 23.6 13 23.5 12.9 23.5 12.9 23.4 12.9 23.4 12.9 23.4 12.9 23.3 12.9 23.3 12.8 23.3 12.8 23.3 12.8 23.3 12.7 23.3 12.7 23.4 12.8 23.6 12.8 23.7 12.8 23.7 12.8 23.6 12.7 23.6V23.5C12.7 23.5 12.7 23.5 12.7 23.4 12.7 23.3 12.6 23.3 12.6 23.3 12.6 23.2 12.5 23.1 12.5 23.1V23C12.5 23 12.4 23 12.4 22.9 12.4 22.9 12.4 22.9 12.3 22.8 12.3 22.7 12.3 22.7 12.3 22.7 12.3 22.6 12.3 22.6 12.3 22.6 12.3 22.5 12.2 22.4 12.2 22.3V22.2C12.1 22.2 12.1 22.1 12.1 22.1L12 22C12 21.9 11.7 21.5 11.7 21.5V21.4C11.7 21.4 11.7 21.4 11.7 21.5 11.7 21.4 11.6 21.4 11.6 21.4H12C12 21.4 12 21.6 12.1 21.6 12.1 21.6 12.2 21.8 12.2 21.9V22C12.2 22 12.3 22.3 12.3 22.2 12.3 22.2 12.3 22.2 12.3 22.3 12.4 22.3 12.3 22.4 12.4 22.4V22.5C12.4 22.5 12.5 22.6 12.5 22.7 12.5 22.7 12.6 22.8 12.6 22.9 12.6 23 12.7 23 12.7 23 12.7 23 12.6 23.1 12.7 23.1 12.6 23.2 12.6 23 12.6 23 12.6 23 12.6 23 12.6 22.9 12.5 22.9 12.5 22.9 12.5 23V23.1C12.2 23 12.6 23.4 12.6 23.5 12.6 23.5 12.6 23.4 12.5 23.4 12.4 23.2 12.3 22.9 12.2 22.9 12 23 12.1 23 12 23 12 23 12 23 12 22.9 11.9 22.9 12 22.8 11.9 22.8 11.8 22.7 11.8 22.7 11.8 22.6 11.7 22.6 11.7 22.4 11.7 22.4 11.6 22.4 11.6 22.3 11.6 22.3 11.5 22.2 11.5 22.1 11.5 22.1 11.5 22 11.4 22 11.4 22 11.3 21.9 11.3 21.7 11.2 21.8H11.1L11.2 21.9C11.2 21.8 11.1 21.8 11.1 21.8V21.7C11.1 21.6 11 21.5 11 21.5 11 21.5 11 21.5 10.9 21.5 10.9 21.4 10.8 21.4 10.8 21.3 10.7 21.3 10.5 20.9 10.5 20.9 10.4 20.9 10.4 20.8 10.4 20.8 10.4 20.7 10.2 20.5 10.2 20.5 10.2 20.5 10.2 20.5 10.1 20.5 10.1 20.5 10.1 20.5 10.1 20.4 10 20.3 10 20.2 10 20.2 10 20.2 10 20.2 10 20.1 10 20.1 10 20.1 9.9 20.1 9.9 20.1 9.9 20.1 9.9 20 9.9 20 9.9 20 9.8 20 9.8 19.9 9.7 19.9 9.7 19.9L9.6 19.7V19.6L9.5 19.5C9.5 19.5 9.5 19.5 9.4 19.5V19.4C9.3 19.4 9.3 19.3 9.3 19.3 9.3 19.3 9.3 19.2 9.2 19.2L9.1 19.1C9 19 9 19 9 19V19.1 19.2 19.3C9 19.4 9 19.6 9 19.7 9.1 19.7 9 19.8 9 19.8V19.9C9 20.1 9 20.3 9 20.5 9 20.6 9 20.8 8.9 20.8 8.8 20.8 8.8 21.2 8.8 21.3 8.8 21.3 8.9 21.6 8.9 21.8 8.9 21.8 8.9 22 8.9 22.1 8.8 22 8.9 21.9 8.8 21.9 8.8 21.8 8.8 21.7 8.8 21.7 8.8 21.8 8.8 21.8 8.8 22 8.8 22 8.8 22 8.9 22 8.9 22 8.9 21.9 8.8 21.9 8.8 21.9 8.7 21.9 8.7 22 8.7 22.1 8.7 22.1 8.7 22.3 8.7 22.4 8.7 22.6 8.7 22.6 8.7 22.3 8.6 22.1 8.6 21.9V21.8C9 22.1 9 22.1 9 22 9 22.1 9 22.1 9 22.3 9 22.3 9 22.3 9 22.4 8.9 22.4 8.9 22.3 8.9 22.3 8.9 22.2 8.9 22.2 8.9 22.2 8.9 22.1 8.9 22.1 9 22.1 8.9 22 9 21.9 9 21.9V21.8C9 21.7 9 21.7 9 21.7 9 21.6 9 21.6 9 21.6 9 21.6 9 21.6 9 21.5 8.9 21.4 8.9 21.3 8.9 21.3 8.9 21.2 8.9 21.2 8.9 21.2 8.9 21.2 8.8 21.3 8.9 21.3 8.8 21.3 8.8 21.3 8.8 21.4 8.8 21.4 8.8 21.4 8.9 21.4V21.5C8.9 21.6 9 21.6 8.9 21.8 8.9 21.8 8.9 21.8 9 21.9 9 22 9 22.2 8.9 22.4 8.9 22.3 8.9 22.2 8.8 22.2 8.8 22.3 8.8 22.3 8.8 22.4 8.8 22.5 8.8 22.5 8.8 22.6 8.8 22.6 8.8 22.8 8.8 22.9V23.1C8.7 23.1 8.8 23.2 8.7 23.2 8.7 23.2 8.7 23.2 8.6 23.3 8.6 23.4 8.5 23.4 8.5 23.4V23C8.4 23 8.4 22.7 8.4 22.7 8.4 22.7 8.4 22.7 8.4 22.6 8.4 22.6 8.4 22.6 8.3 22.6 8.3 22.5 8.3 22.3 8.3 22.3V22.2C8.3 22.1 8.3 22 8.3 22 8.3 21.9 8.3 21.9 8.3 21.9 8.3 21.9 8.3 21.9 8.3 21.8 8.3 21.7 8.3 21.8 8.4 21.7V21.6C8.4 21.6 8.4 21.6 8.4 21.5 8.5 21.5 8.4 21.2 8.4 21.2 8.4 21.2 8.4 21.2 8.4 21.1 8.4 21.1 8.4 21.1 8.4 21 8.4 20.9 8.5 20.7 8.3 20.9 8.4 20.9 8.2 21.1 8.3 21.2 8.3 21.2 8.3 21.3 8.2 21.3 8.1 21.4 8.2 21.3 8.2 21.4 8.2 21.5 8.2 21.6 8.2 21.7 8.2 21.8 8.2 21.8 8.2 21.8 8.2 21.9 8.2 21.9 8.2 22 8.2 22 8.2 22 8.3 22 8.2 22.1 8.3 22.4 8.3 22.7 8.3 22.7 8.3 22.7 8.3 22.8 8.3 22.7 8.3 22.6 8.2 22.5V22.4C8.1 22.3 8.1 22.3 8.1 22.2 8.1 22.2 8.1 22.2 8.1 22.1 8.1 22.1 8.1 22.1 8.1 22.2 8.1 22.1 8.1 22.1 8.1 22.1 8 22.1 8 22 8 22 8 22 8 22 7.9 21.9V21.8C7.9 21.7 7.9 21.7 7.9 21.6 7.9 21.5 7.9 21.5 7.9 21.5V21.4 21.5C7.9 21.5 8 21.6 7.9 21.6V21.7C7.7 21 7.7 21 7.7 21 7.7 20.9 7.7 20.9 7.7 20.9 7.7 20.8 7.7 20.7 7.7 20.7 7.7 20.6 7.7 20.5 7.7 20.5 7.7 20.4 7.7 20.4 7.7 20.4 7.6 20.5 7.6 20.5 7.7 20.6 7.8 20.7 7.6 21.3 7.8 21.4 7.8 21.4 7.8 21.4 7.8 21.5 7.7 21.4 7.8 21.6 7.7 21.7 7.7 21.6 7.7 21.6 7.7 21.4 7.7 21.3 7.7 21.1 7.6 21.1 7.7 20.9 7.6 20.5 7.6 20.4 7.6 20.2 7.6 20.1 7.6 19.9 7.6 19.8 7.7 19.6 7.7 19.5V19.4C7.7 19.3 7.7 19.3 7.7 19.3 7.7 19.3 7.7 19.3 7.7 19.2 7.7 19.1 7.7 19.1 7.7 19.1V19C7.7 19 7.7 19 7.8 19 7.8 18.8 7.9 18.7 7.9 18.5 7.9 18.5 7.9 18.5 7.9 18.4 7.9 18.3 8 18 8 17.9V17.8C8 17.8 8 17.8 8.1 17.8 8.1 17.7 8.1 17.7 8.1 17.7 8.1 17.6 8.1 17.6 8.1 17.6V17.5 17.4C8.1 17.4 8 17.5 8 17.6 8 17.7 7.9 17.7 8 17.8 8 17.8 8 18.1 7.9 18.1 7.9 18.2 7.8 18.3 7.8 18.4 7.8 18.5 7.7 18.5 7.7 18.6 7.7 18.5 7.7 18.5 7.7 18.5 7.7 18.5 7.7 18.5 7.7 18.4V18.5C7.7 18.6 7.7 18.7 7.6 18.8 7.6 18.7 7.6 18.6 7.6 18.5 7.6 18.2 7.6 17.7 7.7 17.6 7.7 17.6 7.7 17.4 7.8 17.2 7.8 17.1 8 16.1 8 16.1 8.1 16.2 8.1 16 8.1 16 8.2 16 8.2 15.8 8.2 15.8 8.2 15.8 8.2 15.7 8.3 15.7 8.3 15.7 8.4 15.3 8.4 15.2 8.4 15.1 8.5 15.1 8.5 15 8.5 14.9 8.6 14.9 8.6 14.8 8.6 14.7 8.6 14.6 8.6 14.6 8.7 14.4 8.7 14.2 8.7 14.1 8.7 14.1 8.7 14.1 8.7 14 8.7 14 8.7 14 8.7 13.9 8.7 13.7 8.8 13.6 8.8 13.4 8.7 13.3 8.7 13.3 8.7 13.3L8.8 13.4V13.3L8.7 13.1C8.7 13.1 8.7 13.3 8.8 13.2 8.8 13.1 8.9 13 8.9 12.9 8.9 12.9 8.9 12.9 8.9 13 9 12.9 8.9 12.7 9 12.6 9 12.6 9 12.6 8.9 12.6 8.9 12.6 8.9 12.6 9 12.7 8.9 12.8 8.9 13 8.8 13.2 8.8 13.2 8.8 13.2 8.8 13.3 8.9 13.1 9 13 9 12.9V12.8C8.9 12.8 9.1 12.7 9.1 12.7V12.6C9 12.6 9.1 12.5 9.1 12.5V12.4C9.1 12.4 9.1 12.4 9.2 12.4 9.2 12.3 9.2 12.3 9.2 12.3 9.2 12.3 9.2 12.3 9.3 12.3 9 12.5 9 12.6 9 12.7 9 12.7 9 12.7 9 12.8 9 12.8 9.1 12.8 9.1 12.9 9.1 12.9 9.2 12.9 9.3 12.8H9.4V12.7C9.4 12.7 9.4 12.7 9.5 12.7V12.8H9.6C9.6 12.7 9.6 12.7 9.6 12.7 9.7 12.7 9.7 12.8 9.7 12.8 9.7 12.8 9.7 12.8 9.8 12.8 9.8 12.7 9.8 12.7 9.8 12.7 9.7 12.7 9.6 12.7 9.5 12.7 9.4 12.7 9.4 12.7 9.4 12.7 9.4 12.7 9.4 12.7 9.4 12.6 9.5 12.5 9.6 12.6 9.7 12.5 9.6 12.4 9.6 12.4 9.6 12.5 9.5 12.5 9.5 12.5 9.5 12.5H9.2C9.2 12.5 9.5 12.4 9.5 12.5 9.5 12.4 9.6 12.5 9.7 12.5 9.8 12.5 10 12.5 10.2 12.6H10 9.9C9.9 12.6 9.9 12.6 9.9 12.5V12.6C9.8 12.5 9.6 12.5 9.4 12.5 9.4 12.4 9.3 12.5 9.3 12.5 9.3 12.5 9.3 12.5 9.3 12.4 9.3 12.4 9.3 12.4 9.4 12.4 9.5 12.4 9.5 12.4 9.5 12.4 9.5 12.4 9.5 12.4 9.5 12.3 9.5 12.3 9.5 12.3 9.6 12.3H9.7C9.7 12.3 9.7 12.3 9.8 12.3 9.9 12.3 9.9 12.3 9.9 12.4 10 12.4 10.1 12.4 10.2 12.5 10.3 12.5 10.5 12.6 10.6 12.6 10.9 12.7 11.3 12.7 11.5 12.9 11.7 13 11.8 13.1 12 13.2 12 13.2 12 13.2 12.1 13.2 12.2 13.4 12.6 13.4 12.7 13.6 13 13.7 13.2 14.1 13.3 14.3 13.4 14.5 13.4 14.8 13.5 15.1 13.5 15.2 13.5 15.2 13.5 15.2 13.5 15.4 13.5 15.8 13.4 16 13.4 16.1 13.4 16.1 13.4 16.1 13.3 16.2 13.3 16.2 13.2 16.3 13.1 16.4 13.1 16.4 13.1 16.4 13.1 16.4 13.1 16.5 13 16.5H12.9C12.9 16.5 12.9 16.5 13 16.5 13.1 16.5 13.3 16.3 13.3 16.2 13.4 16.2 13.5 15.9 13.5 15.8 13.4 15.9 13.4 15.9 13.4 16 13.4 16 13.4 16 13.3 16 13.3 16 13.3 16 13.4 16V16.1C13.4 16.1 13.3 16.1 13.3 16.2 13.3 16.2 13.3 16.2 13.2 16.2 13.2 16.3 13.2 16.3 13.2 16.3 13.1 16.3 13.1 16.3 13.1 16.4 13.1 16.3 13.1 16.3 13.2 16.3 13.2 16.3 13.1 16.3 13.1 16.4 13.1 16.4 13.1 16.4 13 16.5 13.1 16.4 13.1 16.4 13.1 16.3 13.1 16.3 13.1 16.4 13.2 16.3 13.2 16.3 13.2 16.3 13.2 16.2 13.5 16 13.4 15.5 13.4 15.3 13.4 15.2 13.4 15.2 13.4 15.2 13.4 15.1 13.4 15 13.4 15 13.4 14.9 13.3 14.7 13.3 14.6 13.3 14.6 13.3 14.6 13.4 14.7L13.5 14.8C13.5 14.8 13.6 14.8 13.5 14.9 13.5 14.8 13.5 14.9 13.4 14.9L13.5 15V15.1C13.5 15.2 13.5 15.2 13.5 15.2 13.6 15.2 13.5 15.3 13.5 15.4V15.5 15.6C13.5 15.6 13.5 15.6 13.6 15.6 13.6 15.6 13.6 15.7 13.5 15.7 13.5 15.7 13.5 15.7 13.6 15.7 13.6 15.7 13.5 15.8 13.6 15.9V16C13.6 16.1 13.6 16.1 13.6 16.1 13.6 16.1 13.6 16.1 13.5 16.1 13.5 16.1 13.5 16.1 13.5 16.2 13.6 16.1 13.6 15.9 13.6 15.9 13.6 15.8 13.6 15.2 13.5 15.2 13.5 15 13.4 14.5 13.2 14.4V14L13.1 13.9C13 13.8 12.9 13.6 12.8 13.6 12.7 13.6 12.7 13.5 12.7 13.5 12.7 13.5 12.6 13.5 12.6 13.4 12.5 13.3 12.5 13.3 12.4 13.3 12.4 13.2 12.3 13.2 12.3 13.2 12.3 13.3 12.4 13.3 12.4 13.5 12.4 13.5 12.4 13.5 12.5 13.5 12.5 13.6 12.6 13.6 12.6 13.6 12.6 13.7 12.6 13.7 12.7 13.7L12.8 14.2V14.3C12.8 14.4 12.8 14.4 12.8 14.5 12.8 14.6 12.8 14.6 12.8 14.6 12.8 15.1 12.8 15.6 12.5 16 12.5 16.1 12.4 16.1 12.4 16.1 12.3 16.2 11.9 17 11.8 16.9 11.8 16.9 11.8 16.8 11.9 16.9 11.9 16.9 11.9 16.9 11.9 16.8 12 16.8 12.1 16.5 12.2 16.5 12.2 16.4 12.2 16.4 12.2 16.4 12.1 16.5 11.9 16.6 11.8 16.7H11.7C11.6 17 11.6 17 11.5 17 11.4 17 11.4 17 11.4 17.1 11.5 17.1 11.4 17.2 11.5 17.2 11.5 17.1 11.6 17.1 11.6 17.1 11.6 17.1 11.6 17.1 11.7 17.1 11.6 17.1 11.6 17.1 11.6 17.2L11.5 17.3 11.6 17.4C11.7 17.4 11.8 17.7 11.9 17.8 11.9 17.9 12.4 18.3 12.4 18.5L12.3 18.4C12.2 18.4 12.2 18.3 12.2 18.3 12.2 18.3 12.2 18.3 12.2 18.4 12.2 18.4 12.2 18.4 12.3 18.5 12.3 18.5 12.3 18.5 12.4 18.6 12.4 18.7 12.5 18.7 12.5 18.7 12.5 18.8 12.6 18.8 12.6 18.8L12.7 18.9C12.8 19 12.9 19.2 13 19.4 13 19.4 13 19.5 13.1 19.5 13.1 19.5 13.2 19.6 13.3 19.7 13.3 19.7 13.3 19.7 13.3 19.8 13.3 19.8 13.4 19.8 13.4 19.9 13.4 20 13.4 20 13.5 20 13.6 20.1 13.7 20.3 13.7 20.4 13.7 20.4 13.8 20.4 13.8 20.5 13.8 20.5 13.8 20.5 13.9 20.5 13.9 20.5 13.9 20.6 14 20.6L14.1 20.7C14.1 20.7 14.1 20.7 14.1 20.8 14.1 20.8 14.4 21.3 14.4 21.4 14.4 21.5 14.5 21.5 14.5 21.6 14.5 21.6 14.7 22 14.7 22.1 14.7 22.1 14.7 22.1 14.8 22.1 14.8 22.1 14.8 22.1 14.8 22.2V22.3C14.8 22.3 14.8 22.3 14.9 22.3 14.9 22.4 14.9 22.4 14.9 22.4 15 22.5 15 22.7 15 22.9V23C15 23 15 23.1 15.1 23.1V23.2C15.1 23.2 15.1 23.2 15.2 23.2 15.1 23.2 15.1 23.2 15.1 23.2L15 23.1V23.2 23.3C15 23.3 15 23.4 15.1 23.4V23.5C15.2 23.6 15.1 23.6 15.2 23.8H15.1C15.1 23.8 15.1 23.8 15.1 23.9 15.1 23.8 15.1 23.8 15 23.8 15 23.7 14.9 23.7 14.9 23.7 14.9 23.7 14.9 23.7 14.9 23.8 15 23.9 14.9 24 15 24.1 14.9 24.1 14.9 24 14.9 24 14.8 24 14.8 23.8 14.8 23.7V23.6L14.7 23.5C14.7 23.5 14.7 23.5 14.6 23.6V23C14.5 22.9 14.5 22.9 14.5 22.9 14.5 22.9 14.5 22.9 14.6 22.9V22.8C14.6 22.8 14.6 22.8 14.5 22.8 14.4 22.7 14.4 22.7 14.4 22.7 14.4 22.7 14.4 22.7 14.3 22.7 14.3 22.6 14.2 22.6 14.2 22.5H14.1V22.6C14.1 22.6 14.1 22.7 14.2 22.7V22.8C14.2 22.8 14.2 22.8 14.2 22.9 14.2 23 14.3 23.1 14.3 23.2 14.3 23.2 14.3 23.2 14.4 23.2 14.4 23.3 14.4 23.4 14.4 23.5 14.3 23.5 14.2 23.6 14.3 23.6H14.2C13.4 23.8 13.4 23.8 13.3 23.8Z" class="a"/><path d="M18.1 23L18 23.1C18.1 23 18.1 23 18.1 23ZM18.1 22.7C18 22.8 18 22.8 18.1 22.7V22.7ZM16.6 22.6C16.7 22.7 16.7 22.7 16.6 22.6 16.7 22.7 16.7 22.7 16.6 22.6 16.2 23.1 16.7 22.6 16.6 22.6ZM18.6 22.5C18.5 22.6 18.3 22.9 18.1 22.9 18.2 22.9 18.5 22.5 18.6 22.5ZM17.7 22.5C17.6 22.5 17.4 22.7 17.7 22.5V22.5ZM18.6 22.5C18.5 22.6 18.5 22.6 18.5 22.6 18.6 22.5 18.6 22.5 18.6 22.5ZM18.2 22.3C18.2 22.3 18.2 22.4 18.2 22.3V22.3ZM17 22.3C17 22.4 17.1 22.4 17.1 22.4 17.1 22.3 17 22.3 17 22.3ZM18.4 22.2C18.4 22.3 18.3 22.3 18.3 22.3 18.3 22.3 18.4 22.2 18.4 22.2ZM18.4 22.1C18.4 22.2 18.3 22.2 18.3 22.2 18.4 22.1 18.4 22.1 18.4 22.1ZM20.6 21.9C20.6 22 20.6 22 20.6 21.9 20.6 22 20.6 22 20.6 21.9ZM18.4 21.7C18.3 21.9 18.3 21.9 18.4 21.7V21.7ZM20.6 21.7C20.6 21.7 20.5 21.7 20.6 21.7 20.5 21.7 20.5 21.7 20.6 21.7 20.5 21.7 20.6 21.7 20.6 21.7ZM18.6 21.6C18.6 21.6 18.5 21.7 18.6 21.6V21.6ZM18.9 21.4C18.8 21.5 18.8 21.7 18.7 21.8 18.6 21.8 18.8 21.5 18.9 21.4ZM18.2 21.4C18.2 21.4 18.1 21.4 18.2 21.4 18.1 21.4 18.1 21.4 18.2 21.4ZM21.1 21.3C21.1 21.4 21.1 21.4 21.1 21.3 21.1 21.4 21.1 21.4 21.1 21.3ZM18.6 21.3C18.6 21.4 18.5 21.4 18.6 21.3 18.5 21.3 18.6 21.3 18.6 21.3ZM18.5 21.2C18.5 21.2 18.5 21.3 18.5 21.2 18.5 21.3 18.5 21.2 18.5 21.2ZM21.2 21.2C21.2 21.2 21.2 21.3 21.2 21.2V21.2ZM18.7 21.2C18.5 21.2 18.5 21.2 18.7 21.2V21.2ZM18.6 21.1C18.6 21.1 18.6 21.2 18.6 21.1V21.1ZM18.8 21C18.8 21.1 18.8 21.1 18.8 21 18.8 21.1 18.8 21.1 18.8 21ZM18.7 20.9C18.7 21 18.6 21 18.6 21.1 18.6 21 18.7 21 18.7 20.9ZM19 20.8C19 20.9 19 20.9 18.9 20.9 19 20.9 19 20.8 19 20.8ZM18.8 20.8C18.8 20.9 18.7 20.9 18.7 20.9 18.8 20.8 18.8 20.8 18.8 20.8ZM19.1 20.7C19.1 20.8 19 20.8 19.1 20.7 19 20.8 19.1 20.8 19.1 20.7ZM18 20.6C18 20.7 18 20.7 18 20.6 18 20.7 18 20.7 18 20.6ZM19.2 20.6C19.2 20.7 19.1 20.7 19.1 20.7 19.1 20.6 19.2 20.6 19.2 20.6ZM17.9 20.5C18 20.6 17.9 20.6 17.9 20.6V20.5ZM19.3 20.4C19.2 20.4 19.3 20.4 19.3 20.4V20.4ZM19 20.4C19 20.5 19 20.5 18.9 20.5 19 20.5 19 20.4 19 20.4ZM19 20.3C19 20.4 19 20.4 19 20.3 19 20.4 19 20.4 19 20.3ZM21.5 20.3C21.5 20.4 21.5 20.4 21.5 20.3V20.3ZM21.1 20.3C21.1 20.4 21 20.4 21 20.4 21 20.4 21.1 20.4 21.1 20.3ZM21.3 20.2C21.3 20.2 21.3 20.3 21.3 20.2 21.3 20.3 21.3 20.2 21.3 20.2ZM21.2 20C21.2 20.1 21.2 20.1 21.2 20 21.2 20.4 21.1 20.1 21.2 20 21.2 20.1 21.2 20.1 21.2 20ZM17.8 19.9C17.8 20 17.8 20 17.8 19.9 17.8 20 17.8 20 17.8 19.9ZM21.4 19.9C21.4 20 21.4 20 21.4 19.9 21.4 20 21.4 20 21.4 19.9ZM21.6 19.9C21.6 20 21.6 20 21.6 19.9V19.9ZM19.2 19.8C19.2 20 19.1 20.5 19.1 20.1 19 20.3 19.1 20.2 19.2 19.8ZM21.2 19.7C21.2 19.8 21.2 19.9 21.1 19.8 21.2 19.8 21.2 19.8 21.2 19.7ZM21.2 19.6C21.2 19.6 21.2 19.7 21.2 19.6 21.2 19.7 21.2 19.7 21.2 19.6ZM17.6 19.6C17.7 19.7 17.6 19.7 17.6 19.6 17.7 19.7 17.6 19.6 17.6 19.6ZM21.7 19.5C21.6 19.6 21.6 19.5 21.7 19.5V19.5ZM19.2 19.4C19.2 19.5 19.1 19.7 19.1 19.7 19.2 19.7 19.2 19.4 19.2 19.4ZM21.7 19.3C21.7 19.4 21.7 19.4 21.7 19.3 21.7 19.4 21.7 19.3 21.7 19.3ZM19.2 19.2C19.1 19.4 19.1 19.4 19.2 19.2V19.2ZM15.7 19.2C15.6 19.2 15.6 19.2 15.7 19.2V19.2ZM21.7 19.1C21.7 19.2 21.7 19.2 21.7 19.2 21.7 19.2 21.7 19.1 21.7 19.1ZM19.2 19C19.2 19 19.2 19.1 19.2 19 19.2 19.1 19.2 19.1 19.2 19ZM21.7 18.7C21.7 18.8 21.7 18.8 21.7 18.7V18.7ZM19.3 18.6C19.3 19 19.1 19.9 19.2 18.8 19.3 18.8 19.3 18.8 19.3 18.6L19.2 18.7C19.3 18.7 19.3 18.6 19.3 18.6 19.3 18.7 19.3 18.7 19.3 18.6ZM21.7 18.5C21.7 18.6 21.7 18.6 21.7 18.5 21.7 18.6 21.7 18.6 21.7 18.5ZM19.3 18.3C19.3 18.4 19.3 18.4 19.2 18.4 19.4 18.6 19.3 18.5 19.3 18.3ZM21.7 18C21.7 18 21.7 18.1 21.7 18 21.7 18.1 21.7 18.1 21.7 18 21.7 18.1 21.7 18.1 21.7 18ZM19.4 17.9C19.4 18 19.4 18.1 19.4 18.2 19.4 18.2 19.4 18 19.4 17.9ZM19.4 17.7C19.4 17.9 19.4 18.1 19.4 17.7 19.4 17.7 19.4 17.8 19.4 17.7ZM21.7 17.7C21.7 17.8 21.7 17.8 21.7 17.8 21.7 17.7 21.7 17.7 21.7 17.7ZM19.4 17.4C19.4 17.5 19.4 17.5 19.4 17.4 19.4 17.5 19.4 17.5 19.4 17.4 19.4 17.5 19.4 17.5 19.4 17.4 19.4 17.5 19.4 17.5 19.4 17.4ZM21.5 16.8C21.5 16.9 21.5 16.8 21.5 16.8V16.8ZM21.5 16.6C21.5 16.8 21.5 16.8 21.5 16.6 21.4 16.7 21.4 16.7 21.5 16.6 21.4 16.7 21.5 16.6 21.5 16.6ZM21.4 16.5C21.4 16.6 21.4 16.6 21.4 16.5 21.4 16.6 21.4 16.6 21.4 16.5 21.4 16.6 21.4 16.6 21.4 16.5 21.4 16.6 21.4 16.6 21.4 16.5ZM19.9 16.2C19.9 16.3 19.9 16.3 19.9 16.3 19.9 16.2 19.9 16.2 19.9 16.2ZM15.7 16.1C15.7 16.3 15.7 16.4 15.7 16.1V16.1ZM15.5 16.1C15.7 17 15.5 16.1 15.5 16.1V16.1ZM19.9 16C19.9 16.1 19.9 16.1 19.9 16 19.9 16.1 19.9 16 19.9 16ZM19.9 16C19.8 16.1 19.9 16 19.9 16V16ZM19.9 15.9C19.9 16 19.9 16 19.9 15.9V15.9ZM19.9 15.7C19.9 15.9 19.9 15.9 19.9 15.7 19.9 15.7 19.9 15.8 19.9 15.7ZM15.7 15.2C15.7 15.2 15.7 15.3 15.7 15.2V15.2ZM19.7 15.2C19.8 15.3 19.8 15.3 19.7 15.2 19.7 15.3 19.7 15.2 19.7 15.2ZM19.7 15.1C19.7 15.2 19.7 15.4 19.7 15.1V15.1ZM15.9 15C15.9 15.1 15.9 15.1 15.9 15.2 15.9 15.2 15.9 15.1 15.9 15ZM15.7 14.8C15.7 14.9 15.7 14.9 15.7 14.8 15.7 14.9 15.7 14.9 15.7 14.8ZM19.7 14.7C19.7 14.8 19.7 14.8 19.7 14.7 19.8 15 19.8 15 19.7 14.7ZM19.7 14.6C19.7 14.7 19.7 14.7 19.7 14.6 19.7 14.7 19.7 14.7 19.7 14.6ZM15.9 14.6C15.9 14.7 15.9 14.9 15.9 14.9 15.9 14.9 15.8 14.7 15.9 14.6ZM20.7 14.3C20.8 14.3 20.8 14.3 20.7 14.3 20.8 14.4 20.8 14.4 20.7 14.3ZM20.7 14.2C20.7 14.3 20.7 14.3 20.7 14.2 20.7 14.3 20.7 14.3 20.7 14.2 20.7 14.3 20.7 14.3 20.7 14.2 20.7 14.3 20.7 14.3 20.7 14.2ZM19.5 14.2C19.5 14.2 19.5 14.3 19.5 14.2 19.5 14.3 19.5 14.3 19.5 14.2 19.5 14.3 19.7 14.6 19.6 14.6 19.6 14.6 19.6 14.6 19.5 14.6L19.4 14.4C19.3 14.4 19.4 14.3 19.5 14.2ZM19.5 14.1C19.5 14.1 19.5 14.2 19.5 14.1V14.1ZM19.4 13.9C19.6 14.1 19.4 14.3 19.4 13.9V13.9ZM15.9 13.9C15.9 14.2 15.7 14.1 15.9 13.9V13.9ZM16.1 13.7C16.1 13.8 16.1 13.8 16.1 13.7V13.7ZM18.4 13.6C18.3 13.6 18.4 13.6 18.4 13.6V13.6ZM19 13.6C19.1 13.6 19.1 13.6 19 13.6V13.6ZM16 13.5C16 13.6 16 13.6 16 13.5 16 13.6 16 13.6 16 13.5 16 13.6 16 13.6 16 13.5ZM20.4 13.5C20.4 14.2 20.4 14.3 20.4 13.5V13.5ZM20.1 13C20.1 13 20.2 13 20.1 13 20.2 13.1 20.1 13 20.1 13ZM18.8 12.8C18.6 12.8 18.5 12.9 18.8 12.8V12.8ZM17 12.8C17 12.8 17 12.9 17 12.8V12.8ZM19.7 12.7C19.7 12.9 20.6 13.1 20.2 13.2 20.1 13.1 19.8 12.9 19.7 12.9 19.7 12.8 19.7 12.7 19.7 12.7ZM17.4 12.4C17.4 12.5 17.4 12.5 17.4 12.4V12.4ZM19 12.3C19 12.3 19.1 12.3 19 12.3 19.1 12.3 19 12.3 19 12.3ZM18.8 12.2C19.4 12.4 20.5 12.3 19.4 12.3 19.8 12.3 20.8 13.1 20.8 13.5 20.8 13 20.7 13.7 20.7 13.6 20.8 13.6 20.8 13.7 20.7 13.7 20.8 14 21.9 17.9 21.4 17.9 21.6 18.5 21.3 18.9 21.3 19.5 21.3 19 21.8 16.3 21.4 17.8 21.4 19.3 20.9 21.8 20 21.8 19.4 22.3 18.6 22.7 18.2 22.7 18.2 22.7 18.2 22.7 18.1 22.7 18 22.8 17.9 22.8 17.6 22.9 17.7 22.9 17.7 22.9 17.7 22.9 17.9 22.9 17.1 22.9 17.1 22.9 17.4 22.8 17.5 22.8 17.5 22.5 18.4 22.5 18.3 21.4 18.9 21.4 18.9 21.4 19.8 19.2 19.4 19.2V18.9C19.4 18.8 19.4 18.6 19.3 18.6 19.3 18.7 19.4 17.6 19.2 17.6 19.3 17.5 19.3 17.5 19.2 17.5 19.2 17.3 19.2 17.2 19.1 17.2 19.1 15.9 17.4 12.9 17.4 14.4V14.3C17.4 14.4 17.3 15 17.2 15 17.3 15 17.2 15.2 17.1 15.2 17.1 15.3 17.3 16.2 17.1 16.2 17.1 16.4 17.1 16.9 17.1 17.1V17.2C17.1 17.2 17 17.8 17 18.3 17.1 18.8 17.2 19.3 17.3 19.9 17.3 19.9 17.3 19.8 17.2 19.8 17.1 19.9 17.1 19.9 17.1 19.7 17.2 20 17.9 21.7 17.9 21.7 18.1 21.7 17.8 22.1 17.8 22.1H17.7C17.8 22.1 17.7 22.2 17.6 22.2 17.5 22.3 17.3 22.3 17.1 22.3 16.1 22.5 16.2 20.7 15.6 20.7 15.3 20.3 15.3 19.8 15.2 18.7 15.3 18 15.7 14.2 15.7 14.2 15.8 14.1 15.8 14.1 15.7 14.1 16.2 13.2 17 11.9 16.5 12.9 17 12.9 18.3 12.4 18.8 12.2Z" class="a"/><path d="M47.7 12.4C47.7 12.3 47.7 12.3 47.7 12.4 47.7 12.3 47.7 12.3 47.7 12.4 47.7 12.3 47.7 12.4 47.7 12.4ZM47.8 12.5C47.8 12.4 47.8 12.4 47.8 12.5 47.8 12.5 47.9 12.5 47.8 12.5ZM47.3 12.6C47.3 12.5 47.3 12.5 47.3 12.6 47.4 12.5 47.5 12.4 47.3 12.6ZM47.9 12.6C47.9 12.6 47.8 12.6 47.9 12.6V12.6ZM48.5 19.8C48.5 19.7 48.5 19.6 48.5 19.6V19.8ZM48.2 20.1C48.2 20 48.2 20 48.2 20V20.1ZM46.8 21.1C46.8 21 46.8 21 46.8 21 46.8 21 46.8 21 46.8 21.1ZM47.8 21.2C47.8 20.7 48.1 20.4 47.8 21.2V21.2ZM47.9 21.3C47.9 21.2 47.9 21.2 47.9 21.3V21.3ZM47.4 22.3C47.4 22.1 47.4 22.1 47.4 22.3 47.5 22.3 47.5 22.3 47.4 22.3ZM47.3 22.4C47.3 22.3 47.3 22.3 47.3 22.3 47.3 22.3 47.3 22.3 47.3 22.4ZM48.3 22.5C48.3 22 48.4 22.3 48.3 22.5V22.5ZM48 22.5C48 22.4 48 22.4 48 22.4V22.5ZM48 22.6C48 22.5 48 22.5 48 22.6V22.6ZM47.7 22.7C47.7 22.6 47.7 22.6 47.7 22.6V22.7ZM48.3 23C48.2 23 48.1 22.9 48.2 22.8 48.2 23.2 47.9 22.7 47.9 22.4 47.9 22.5 47.8 22.8 47.8 22.5 47.5 22.7 47.2 22.4 47.2 22.7 47.2 22.6 47.2 22.6 47.2 22.5 47.4 23.5 46.9 21.9 46.9 21.9 46.5 19.9 47.7 12 47.7 12.4 47.4 11.2 47.7 12.5 47.8 12.5 48.1 12.6 48.3 12.9 48.3 13 48.4 12.5 48.8 12.6 48.8 12.9 49 15.9 48.9 20.3 48.5 22.5 48.8 22.9 48.7 23.1 48.3 23ZM47.7 23C47.7 22.9 47.7 22.9 47.7 22.9V23Z" class="a"/><path d="M52.1 40.8C52.1 40.9 52.1 40.9 52.1 40.8 52.2 40.9 52.3 40.9 52.3 40.8 52.3 40.7 52.3 40.7 52.2 40.7 52.1 40.7 52.1 40.7 52.1 40.8ZM50.4 42.2C50.5 42.3 50.6 42.3 50.8 42.3 50.9 42.3 51 42.3 51.1 42.2 51.2 42.1 51.2 42.1 51.2 42 51.1 41.8 50.8 41.7 50.6 41.7 50.3 41.8 50.2 42 50.4 42.2ZM49.7 44.9C49.7 45 49.7 45 49.7 44.9 49.8 45 49.9 44.9 49.8 44.9 49.8 44.9 49.8 44.9 49.7 44.9ZM46.7 41C46.7 41.1 46.8 41.2 46.8 41.2 46.9 41.2 46.9 41.2 46.9 41.3 47 41.3 47.1 41.3 47.2 41.2 47.3 41.1 47.3 41.1 47.3 40.9 47.2 40.8 47 40.7 46.8 40.8 46.8 40.8 46.7 40.9 46.7 41ZM42.9 38.6C42.8 38.9 42.9 39.1 43.3 39.1 43.5 39.1 43.7 39 43.8 39 43.9 39 43.9 39 43.9 39 44 39 44 38.9 44 38.9 44 38.8 44 38.8 43.9 38.8 43.9 38.8 43.8 38.8 43.8 38.7 43.7 38.6 43.7 38.6 43.8 38.5 43.9 38.4 43.9 38.4 44 38.4 44.1 38.3 44.1 38.3 44.1 38.1 44 38 43.8 37.8 43.6 38 43.5 38.1 43.4 38.1 43.3 38.1 43.2 38.2 43.1 38.4 42.9 38.6ZM41.7 39.5C41.7 39.6 41.8 39.7 41.8 39.8 41.9 39.8 41.9 39.9 41.9 39.9 42 40 42.2 39.9 42.2 39.8 42.3 39.7 42.2 39.5 42.1 39.5 42 39.4 42 39.4 41.9 39.4 41.8 39.3 41.7 39.4 41.7 39.5ZM40.9 39.2C40.9 39.3 40.9 39.3 40.9 39.2 41 39.3 41 39.3 41 39.2H40.9ZM36 40.5C36 40.6 36.1 40.6 36.1 40.6L36.2 40.5C36.2 40.4 36.1 40.4 36.1 40.4 36.1 40.4 36 40.4 36 40.5ZM35.5 39.6C35.4 39.8 35.3 40 35.4 40.2 35.5 40.3 35.7 40.3 35.8 40.3 35.9 40.3 36 40.2 36.1 40.2 36.3 40.1 36.4 40 36.3 39.8 36.2 39.7 36.3 39.7 36.2 39.6 36.1 39.6 36.1 39.5 36.1 39.5 35.8 39.4 35.6 39.4 35.5 39.6ZM34.8 39.9C34.7 40 34.7 40 34.7 40.2 34.8 40.3 34.8 40.4 35 40.4 35.1 40.4 35.2 40.4 35.2 40.3 35.2 40.2 35.2 40 35.1 40 35 39.8 34.9 39.8 34.8 39.9ZM35.2 38.8C35.2 38.7 35.1 38.7 35.2 38.8 35.1 38.7 35 38.8 35 38.8 35 38.8 35.1 38.8 35.2 38.8 35.2 38.8 35.1 38.9 35.2 38.8ZM30.5 39.2C30.5 39.3 30.6 39.3 30.5 39.2 30.6 39.3 30.6 39.3 30.6 39.2 30.6 39.2 30.6 39.2 30.5 39.2 30.5 39.2 30.6 39.2 30.5 39.2ZM24.4 37.5C24.5 37.6 24.5 37.5 24.5 37.5 24.5 37.5 24.4 37.4 24.4 37.5ZM15.6 37.6C15.6 37.7 16 37.9 16.1 37.8L15.8 37.7C15.7 37.6 15.7 37.6 15.6 37.6ZM7.5 38.1C7.3 37.9 7.2 37.8 6.9 37.8 6.8 37.9 6.8 38 6.6 38 6.5 38.1 6.5 38.2 6.5 38.3 6.6 38.3 6.6 38.4 6.6 38.4 6.6 38.5 6.7 38.5 6.7 38.6H6.8C7 39 7.6 38.6 7.5 38.1ZM14.1 30.2C14.1 30.1 14 29.9 14 29.9 14 29.8 13.9 29.7 13.9 29.7 13.6 29.5 13.4 29.2 13.2 29 13.1 28.9 12.9 28.8 12.7 28.8 12.4 28.8 12.1 28.8 11.8 28.9 11.3 29 10.9 29.3 10.6 29.6 10.5 29.7 10.3 29.9 10.2 29.9 9.9 30.1 9.6 30.4 9.2 30.6 9 30.5 8.9 30.7 9 30.8 9 31.1 8.9 31.1 8.7 31.2 8.6 31.3 8.5 31.3 8.4 31.3 8.3 31.4 8.1 31.4 8.1 31.5 8 31.6 7.9 31.8 8 31.9 8.1 32.1 8.2 32.2 8.4 32.2 8.5 32.2 8.7 32.2 8.9 32.1 9 32.1 9.1 32 9.2 32 9.2 32.1 9.2 32.1 9.2 32.2 9.1 32.5 9 32.7 9 33 9 33.3 8.9 33.7 8.9 34 8.8 34.8 8.9 35.5 9.2 36.2V36.3C9.2 36.3 9.2 36.3 9.1 36.3 9 36.4 9 36.3 8.9 36.3 8.8 36.4 8.7 36.6 8.6 36.7 8.7 37 8.9 37 9.2 37V37C9.2 37 9.2 37 9.2 36.9 9.2 36.9 9.3 36.9 9.3 36.8 9.4 36.9 9.5 37.1 9.6 37.3 9.7 37.4 9.8 37.4 9.9 37.4 10 37.3 10.1 37.3 10.1 37.1 10.2 36.6 10.2 36 10.2 35.5 10.2 35 10.3 34.6 10.4 34.1 10.5 33.9 10.5 33.8 10.7 33.8 10.8 33.8 10.9 33.8 11 33.8 11.5 33.7 12 33.6 12.4 33.5 12.6 33.4 12.7 33.4 12.8 33.2 13 32.9 13.3 32.7 13.6 32.5 13.7 32.5 13.8 32.4 13.8 32.4 13.8 32.3 13.7 32.3 13.6 32.3H13.5C13.2 32.3 12.9 32.3 12.6 32.3 12.1 32.3 11.6 32.4 11.1 32.4 10.7 32.3 10.7 32.3 10.8 31.9 10.9 31.4 11.1 30.8 11.2 30.3 11.3 30 11.4 29.9 11.7 29.9 12.3 29.9 12.9 29.9 13.5 30.2 13.6 30.3 13.8 30.3 13.8 30.3 14.1 30.4 14.1 30.4 14.1 30.2ZM18.4 35.9C18.3 35.9 18.3 36 18.2 36 18 36.1 17.8 36.3 17.6 36.4 17.5 36.5 17.4 36.5 17.3 36.6 17.2 36.7 17.1 36.6 17.1 36.5 17.1 36.4 17.1 36.4 17.1 36.3 17.2 36 17.2 35.8 17.2 35.5 17.3 35.2 17.3 34.9 17.3 34.6 17.4 34.3 17.4 34 17.5 33.7 17.6 33.6 17.6 33.4 17.6 33.2 17.6 33.1 17.6 32.9 17.7 32.7 17.7 32.6 17.8 32.6 17.8 32.4 17.8 32.2 17.7 32.1 17.5 31.9 17.3 31.8 17.1 31.8 16.9 31.8 16.8 31.8 16.6 31.9 16.6 32 16.6 32 16.6 32.1 16.5 32.1 16.3 32.4 16.2 32.8 16 33.1 15.9 33.4 15.8 33.6 15.7 33.8 15.6 34 15.5 34.3 15.4 34.5 15.3 34.7 15.1 35 15 35.2 14.9 35.3 14.8 35.5 14.7 35.7 14.7 35.8 14.6 35.8 14.6 35.8L14.5 35.7C14.5 35.6 14.5 35.4 14.5 35.4 14.5 35.1 14.6 34.9 14.6 34.5 14.7 34.2 14.7 33.9 14.8 33.6 14.9 33.3 14.9 33 15 32.7 15 32.6 15 32.4 15 32.2 15 32.1 15 32.1 15 32 15 31.9 15 31.9 14.9 31.9 14.8 31.8 14.7 31.8 14.6 31.8 14.5 31.9 14.5 31.9 14.4 31.9 14.3 32 14.3 32.1 14.2 32.2 13.9 32.6 13.7 33.1 13.5 33.4 13.4 33.7 13.2 34 13.2 34.3 13.2 34.4 13.1 34.5 13.1 34.6 13 34.9 13 35.3 13 35.7 13 35.8 13 35.9 13 36 13 36.2 13.1 36.3 13.1 36.5 12.9 36.5 12.7 36.7 12.6 36.9 12.5 37.1 12.8 37.4 12.8 37.4 12.9 37.3 13.1 37.6 13.2 37.4 13.3 37.5 13.4 37.5 13.4 37.6 13.4 37.7 13.3 37.7 13.3 37.8 13.3 37.7 13.4 37.7 13.4 37.7V37.9C13.5 37.9 13.5 37.9 13.5 37.9 13.4 37.8 13.4 37.8 13.5 37.8 13.6 37.8 13.4 37.9 13.5 37.9L13.6 37.8C13.7 37.9 13.7 38.1 13.7 38.2 13.7 38.2 13.8 38.2 13.7 38.3L14 37.9C14.1 37.9 14.1 38 14.1 38 14.3 38 14.2 38 14.3 38.1 14.3 38.1 14.4 37.6 14.6 37.9 14.6 37.8 14.5 37.6 14.7 37.8 14.6 37.3 14.9 37.5 15.3 37.5 15.2 37.3 14.8 37.4 14.7 37.2 14.5 37 15 37.1 15 37 15 37 14.6 36.9 14.5 36.7 14.6 36.6 14.6 36.6 14.6 36.6 14.7 36.4 14.9 36.2 15 36 15.1 35.8 15.2 35.7 15.3 35.5 15.3 35.4 15.4 35.4 15.4 35.4 15.5 35.3 15.5 35.4 15.5 35.5 15.5 35.6 15.5 35.6 15.5 35.7 15.5 35.8 15.5 36 15.6 36.2 15.7 36.3 15.7 36.5 15.7 36.7 15.8 36.9 15.9 37 16 37.2 16.1 37.3 16.3 37.5 16.5 37.5 16.6 37.6 16.7 37.5 16.8 37.5 16.9 37.5 16.9 37.4 17 37.4 17.3 37.3 17.5 37 17.6 36.8 17.7 36.7 17.8 36.6 17.8 36.5 17.9 36.4 17.9 36.2 18 36.2 18 36.1 18.1 36.1 18.1 36.1 18.4 35.9 18.4 35.9 18.4 35.9ZM15.2 36.7C15.3 36.6 15.1 36.6 15.1 36.6 15.1 36.6 15.2 36.6 15.2 36.7ZM21.1 28.9C21.1 28.8 21.1 28.8 21.1 28.7 21.1 28.4 21 28.2 20.7 28 20.6 27.9 20.4 27.9 20.3 28.1 20.2 28.2 20.2 28.3 20.2 28.4 19.9 29 19.7 29.5 19.6 30.1 19.5 30.5 19.3 30.9 19.1 31.3 19.1 31.4 19 31.4 19 31.6 19 31.7 18.9 31.8 18.9 31.9 18.9 32 18.8 32.1 18.8 32.2 18.5 32 18.1 32.1 18.3 32.7 18.4 32.8 18.6 32.8 18.8 32.8 18.7 33.1 18.7 33.5 18.7 33.9 18.6 34.2 18.6 34.6 18.6 35 18.6 35.2 18.6 35.5 18.7 35.7 18.7 35.8 18.7 36 18.7 36 18.7 36.1 18.8 36.2 18.8 36.3 18.8 36.5 18.9 36.6 18.9 36.8 19 37 19.1 37.2 19.3 37.4 19.4 37.5 19.5 37.5 19.6 37.6H19.7C19.8 37.6 19.8 37.5 19.8 37.5 19.7 37.4 19.7 37.3 19.7 37.2 19.6 37 19.7 36.8 19.7 36.6 19.7 36.4 19.8 36.3 19.8 36.1 19.8 35.8 19.9 35.6 19.9 35.3 20 35.1 20 35 20.1 34.8 20.2 34.6 20.2 34.3 20.3 34.1 20.4 33.9 20.4 33.7 20.4 33.5 20.5 33.2 20.5 32.9 20.6 32.6 20.7 32.1 20.9 31.7 20.9 31.2 20.9 31.1 21 31.1 21 31 21 30.9 21 30.8 21.1 30.7 21.2 30.4 21.2 30 21.3 29.6 21.1 29.2 21.1 29 21.1 28.9ZM21.3 31.9C21.3 31.8 21.2 31.6 21.1 31.6 21 31.6 20.8 31.7 20.8 31.7 20.8 31.8 20.9 32 21 32 21.2 32.1 21.3 32 21.3 31.9ZM23.6 28.4C23.6 28.3 23.6 28.3 23.6 28.3 23.6 28 23.5 27.8 23.3 27.5 23.3 27.4 23.2 27.4 23.2 27.4 23 27.3 22.7 27.4 22.7 27.7 22.7 27.8 22.7 27.8 22.7 27.9 22.7 28 22.7 28.1 22.6 28.2 22.5 28.3 22.5 28.5 22.5 28.6 22.4 28.9 22.3 29.2 22.2 29.5 22.1 30 21.9 30.4 21.7 30.9 21.6 31.3 21.5 31.7 21.4 32 21.3 32.5 21.1 32.9 21.1 33.3 21 33.6 21 33.9 20.9 34.2 20.9 34.4 20.9 34.6 20.8 34.8 20.8 34.9 20.8 35.1 20.8 35.2 20.8 35.4 20.8 35.5 20.8 35.7 20.8 35.8 20.8 35.8 20.8 35.9 20.9 36.2 20.9 36.5 21.1 36.8 21.2 37.1 21.3 37.3 21.5 37.5 21.6 37.6 21.7 37.6 21.8 37.6H21.9C22 37.6 22 37.5 22 37.5 22 37.5 22 37.5 22 37.4 22 37.3 22 37.3 22 37.3 22 37.3 22 37.3 21.9 37.3 21.8 37.2 21.8 37.1 21.9 37 21.9 36.9 21.9 36.9 21.9 36.8 21.9 36.7 21.9 36.5 21.9 36.3 21.9 36 22 35.8 22 35.5 22 35.3 22.1 35.1 22.1 34.9 22.2 34.6 22.2 34.3 22.4 34 22.5 33.7 22.5 33.5 22.6 33.2 22.7 33 22.7 32.7 22.7 32.5 22.8 32.2 22.8 31.8 23 31.4 23.1 31 23.2 30.5 23.3 30.2 23.4 29.9 23.4 29.5 23.6 29.2 23.5 29.1 23.6 28.8 23.6 28.4ZM23.5 35.9C23.5 36 23.5 36 23.5 35.9 23.5 36 23.5 36 23.5 35.9 23.6 36 23.6 36 23.5 35.9ZM24.5 36.9C24.5 36.9 24.6 36.9 24.5 36.9 24.6 36.8 24.6 36.8 24.6 36.8 24.6 36.7 24.5 36.7 24.5 36.7 24.4 36.8 24.3 36.7 24.2 36.6 24 36.4 23.8 36.3 23.5 36.2 23 36.1 22.6 36.3 22.5 36.9 22.5 37 22.5 37 22.4 37.1 22.2 37 22.1 37.1 22 37.3 21.9 37.6 22.1 37.6 22.3 37.8 22.4 37.7 22.6 37.7 22.6 37.5 22.8 37.7 23 37.8 23.2 37.8 23.4 37.8 23.5 37.8 23.7 37.9 23.8 38 24.1 37.8 24.1 37.8 24.1 37.6 24.2 37.6 24.4 37.6 24.5 37.6 24.5 37.5 24.5 37.5 24.5 37.4 24.4 37.3 24.4 37.2 24.4 36.9 24.4 36.9 24.5 36.9ZM26.1 35.7C26.2 35.6 26.2 35.6 26.1 35.6 26 35.6 26 35.6 26 35.7 25.9 35.8 25.9 35.8 25.8 35.8 25.7 35.8 25.6 35.9 25.6 36.1 25.6 36.3 25.7 36.4 25.9 36.4 26 36.4 26.2 36.3 26.2 36.1 26.1 35.9 26 35.8 26.1 35.7ZM26.4 36C26.4 35.9 26.3 35.9 26.3 35.9 26.2 35.9 26.2 36 26.2 36L26.3 36.1C26.3 36.1 26.4 36.1 26.4 36ZM29.3 34.2C29.3 34.4 29.3 34.6 29.3 34.8 29.2 35 29.2 35.2 29.1 35.4 29 35.7 28.8 36.1 28.5 36.4 28.4 36.5 28.3 36.6 28.2 36.7 28.1 36.8 28 36.8 27.9 36.6 27.8 36.5 27.8 36.4 27.9 36.3 27.9 36.1 28 35.8 28 35.6 28 35.4 28.1 35.2 28.2 35.1 28.3 35 28.3 34.8 28.3 34.6 28.4 34.2 28.5 33.7 28.7 33.4 28.8 33.2 28.8 33.1 29 32.9 29 32.8 29.1 32.8 29.1 32.8 29.2 32.7 29.2 32.7 29.2 32.8L29.3 32.9C29.4 33.1 29.4 33.2 29.4 33.4 29.3 33.6 29.3 33.9 29.3 34.2ZM30.6 35C30.7 34.9 30.7 34.7 30.7 34.5 30.7 34.3 30.7 34.1 30.6 33.9 30.6 33.8 30.6 33.8 30.5 33.7 30.5 33.6 30.4 33.5 30.4 33.4 30.4 33.3 30.4 33.2 30.3 33.1 30.2 33 30.2 32.8 30.1 32.7 30 32.6 30 32.4 29.9 32.3 29.8 32.1 29.7 32 29.5 32 29.4 32 29.4 32 29.3 31.9 29.2 31.9 29.2 31.8 29.2 31.8 29.2 31.8 29.2 31.7 29.3 31.7 29.3 31.6 29.3 31.4 29.2 31.4 29.1 31.4 29.1 31.4 29.1 31.4 28.8 31.4 28.6 31.4 28.5 31.7 28.2 32 28 32.4 27.7 32.8 27.5 33.1 27.3 33.5 27.2 33.9 27.1 34.2 27 34.4 26.9 34.7 27 34.9 27 35.1 27 35.5 27 35.6 27 35.6 27 35.7 27 35.9 27 36 27.1 36.2 27.2 36.5 27.2 36.7 27.4 36.9 27.6 37.1 27.8 37.2 28 37.3 28.2 37.4 28.5 37.4 28.6 37.4 28.7 37.3 28.9 37.3 29.1 37.3 29.3 37.2 29.6 37.1 29.7 37 30 36.7 30.2 36.5 30.3 36.1 30.3 35.8 30.5 35.4 30.6 35ZM33.3 35C33.3 35.3 33.3 35.5 33.2 35.8 33.1 36.2 33.1 36.6 33 37 32.9 37.3 32.9 37.5 32.8 37.7 32.7 38 32.6 38.3 32.5 38.6 32.4 38.7 32.4 38.8 32.4 38.9 32.4 39 32.3 39 32.3 39 32.2 39 32.2 38.9 32.2 38.9 32.1 38.8 32.1 38.6 32.1 38.4 32.1 38.1 32.1 37.7 32.2 37.4 32.3 37.1 32.3 36.7 32.3 36.3 32.4 36 32.4 35.7 32.5 35.4 32.6 35.1 32.6 34.8 32.7 34.5 32.7 34.4 32.8 34.2 32.8 34.1 32.8 34 32.8 34 32.9 33.9 33 33.8 33 33.8 33.1 33.8 33.2 33.8 33.2 33.9 33.3 33.9 33.3 34.1 33.4 34.3 33.4 34.5 33.3 34.7 33.3 34.8 33.3 35ZM36.1 32.9C36.2 32.8 36.1 32.8 36 32.8 35.9 32.8 35.9 32.8 35.9 32.8 35.6 32.9 35.4 32.9 35.1 32.9 34.6 33 34 33 33.4 33.1H33.3C33.2 33.1 33.2 33 33.2 33V32.9C33.2 32.8 33.3 32.6 33.3 32.6 33.4 32.4 33.4 32.1 33.5 31.9 33.6 31.7 33.6 31.5 33.7 31.3 33.7 31.2 33.8 31.1 33.8 31 33.9 30.8 33.9 30.6 34 30.4 34.1 30.2 34.1 30.1 34.2 29.9 34.3 29.8 34.3 29.6 34.4 29.4 34.5 29.2 34.5 29.1 34.6 28.9 34.7 28.8 34.7 28.6 34.7 28.4 34.8 28.3 34.7 28.2 34.6 28.1 34.5 28 34.5 28 34.5 28 34.4 28 34.2 28 34.2 28 34.1 28 34 28 33.9 28 33.8 28.1 33.7 28.1 33.6 28.2 33.5 28.4 33.3 28.6 33.2 28.9 33.1 29.1 33 29.3 32.9 29.5 32.7 29.9 32.6 30.2 32.4 30.6 32.4 30.7 32.3 30.7 32.3 30.8 32.2 31 32.1 31.3 32 31.5 31.9 31.8 31.7 32.2 31.7 32.6 31.6 32.7 31.6 32.9 31.6 33.1 31.6 33.2 31.5 33.3 31.5 33.4 31.5 33.5 31.4 33.5 31.3 33.6 31.2 33.6 31.2 33.6 31.2 33.7 31.1 33.7 31.1 33.8 31.2 33.8 31.2 33.8 31.2 33.8 31.3 33.9 31.4 34 31.4 34.1 31.4 34.2 31.4 34.3 31.3 34.5 31.3 34.6 31.2 34.8 31.2 35 31.1 35.3 31 35.4 31 35.6 31 35.8 31.1 35.8 31 36 31 36.3 31 36.5 30.9 36.7 30.9 36.9 30.9 37 30.9 37 30.9 37.1 30.8 37 30.8 36.9 30.8 36.9 30 36.5 30.2 38 31 37.4 31 37.6 31 37.9 31.1 38.1 31.2 38.5 31.3 38.9 31.5 39.2 31.6 39.4 31.8 39.6 32 39.7 32.2 39.8 32.4 39.9 32.6 39.9 32.7 39.9 32.8 39.9 32.9 40 33 40 33.1 40.1 33.2 40.1H33.3C33.4 40.1 33.6 40 33.7 39.8L33.8 39.7C33.9 39.7 33.9 39.7 33.9 39.7 33.9 40 34.1 40 34.4 40 34.5 39.9 34.5 39.7 34.5 39.6 34.4 39.5 34.2 39.4 34 39.5 34 39.4 34 39.4 33.9 39.4 34 39.3 34 39.1 34 39 34.1 38.7 34.2 38.5 34.3 38.2 34 38.2 34 38 34 38 34.1 37.7 34.2 37.3 34.2 37 34.3 37.1 34.5 37 34.5 36.9 34.5 36.8 34.6 36.8 34.5 36.7 34.4 36.6 34.2 36.6 34.2 36.6 34.2 36.5 34.2 36.3 34.1 36.1V36C34.1 35.9 34.1 35.7 34 35.5 34 35.3 33.9 35.1 33.9 34.9 33.8 34.6 33.7 34.3 33.5 34L33.4 33.9C33.4 33.9 33.4 33.8 33.5 33.8 33.6 33.8 33.7 33.7 33.8 33.7 34.1 33.6 34.5 33.6 34.8 33.5 34.9 33.4 35.1 33.4 35.1 33.4 35.3 33.3 35.6 33.3 35.7 33.1 35.9 33 36 33 36.1 32.9 36 32.9 36.1 32.9 36.1 32.9ZM37.1 37.4C36.9 37.1 36.5 36.9 36.1 37.1 35.8 37.3 35.8 37.6 36.1 37.8 36.2 37.9 36.4 38 36.6 38 36.7 38 36.7 38 36.7 38 37.1 38 37.2 37.7 37.1 37.4ZM38.2 36.1C38.1 36 37.9 35.9 37.7 36 37.6 36 37.6 36.1 37.6 36.1 37.6 36.1 37.6 36.2 37.7 36.3 37.8 36.3 37.8 36.4 37.9 36.4 38 36.4 38 36.3 38.1 36.3 38.3 36.2 38.3 36.1 38.2 36.1ZM39.7 39.6C39.6 39.5 39.6 39.3 39.4 39.4 39.3 39.4 39.1 39.4 38.9 39.3 38.7 39.2 38.5 39.3 38.3 39.4 38 39.1 37.6 39 37.1 39.2 37 39.3 37 39.2 36.9 39.1 37 39.1 36.9 39 36.8 39 36.5 38.9 36.3 38.9 36.2 39.2 36.2 39.3 36.1 39.5 36.3 39.6 36.5 39.8 36.8 39.9 37.1 39.7 37.2 39.8 37.2 40 37.3 40.2 37.7 40.7 38.4 40.6 38.7 40.1 38.8 40 38.8 40 38.9 40 39.1 40.1 39.3 40 39.5 39.9 39.5 39.9 39.6 39.7 39.7 39.6 39.7 39.7 39.7 39.7 39.7 39.6ZM40.1 39.3C40 39.2 40 39.2 39.8 39.2 39.7 39.1 39.7 39.2 39.7 39.3 39.6 39.4 39.7 39.4 39.8 39.4 39.9 39.4 39.9 39.5 39.9 39.6 39.9 39.7 40 39.7 40.1 39.8 40.2 39.8 40.3 39.8 40.4 39.7 40.5 39.6 40.3 39.5 40.3 39.4 40.2 39.3 40.1 39.3 40.1 39.3ZM40 36.8C40.1 36.8 40.2 36.8 40.2 36.7 40.2 36.6 40.1 36.6 40 36.6 39.9 36.6 39.9 36.6 39.9 36.7 39.9 36.7 39.9 36.8 40 36.8ZM42.7 28.8C42.7 28.7 42.7 28.7 42.7 28.6 42.7 28.5 42.7 28.3 42.6 28.1 42.5 28 42.4 27.8 42.3 27.8 42.2 27.7 42 27.7 42 27.9 42 28 41.9 28 41.9 28.1 41.8 28.5 41.6 28.9 41.4 29.3 41.2 29.8 40.9 30.4 40.8 31 40.7 31.3 40.6 31.6 40.5 31.9 40.4 32.2 40.4 32.6 40.3 32.9 40.2 33.2 40.2 33.5 40.2 33.8 40 33.7 39.8 33.9 39.9 34.1 40 34.2 40.1 34.2 40.2 34.1 40.2 34.2 40.2 34.2 40.2 34.3 40 34.7 40 35 40 35.4 40 35.5 40 35.5 40 35.6 40 35.7 40.1 35.9 40.1 36.1 40.2 36.4 40.2 36.7 40.3 37 40.4 37.2 40.4 37.4 40.6 37.5 40.7 37.6 40.8 37.8 41 37.8 41.1 37.8 41.1 37.9 41.2 37.9 41.3 37.9 41.3 37.8 41.3 37.8 41.3 37.8 41.3 37.7 41.2 37.7 41.1 37.6 41.1 37.4 41.1 37.3 41.1 37.2 41.1 37.2 41.1 37.1 41.1 37 41.1 36.9 41.1 36.8 41.2 36.8 41.2 36.7 41.2 36.7L41 36.6V36.3C41 36 41.1 35.6 41.2 35.4 41.3 35.1 41.4 34.9 41.5 34.6 41.6 34 41.8 33.4 41.9 32.8 42 32.4 42.1 32 42.2 31.6 42.3 31.2 42.4 30.8 42.5 30.4 42.6 30.1 42.6 29.7 42.7 29.3 42.6 29.2 42.7 29 42.7 28.8ZM43.5 32C43.3 32.2 43.2 32.4 43 32.7 42.8 33.1 42.6 33.5 42.5 33.9 42.5 34 42.4 34.1 42.4 34.2 42.4 34.4 42.3 34.7 42.3 34.9 42.3 35 42.2 35.2 42.2 35.4 42.2 35.5 42.2 35.5 42.2 35.6 42.2 35.7 42.2 35.9 42.3 36.1 42.4 36.5 42.6 36.9 42.9 37.2L43 37.3C43.2 37.4 43.5 37.5 43.6 37.6 43.7 37.6 43.7 37.6 43.9 37.6 44 37.5 44.2 37.4 44.2 37.3 44.3 37.2 44.3 37.2 44.3 37.1 44.3 37 44.2 36.9 44.1 36.9 44 36.9 44 37 43.9 37 43.8 37 43.7 37.1 43.6 37.1 43.5 37.1 43.4 37 43.4 36.9 43.4 36.7 43.4 36.5 43.4 36.4 43.4 36.4 43.4 36.4 43.4 36.3 43.5 35.9 43.6 35.5 43.7 35.1 43.8 34.9 43.8 34.7 43.8 34.4 43.9 34.2 43.9 34 43.9 33.8 44 33.6 44 33.3 44 33.1 44 33 44.1 33 44 32.8 43.9 32.5 43.9 32.2 43.6 32 43.5 31.9 43.5 31.9 43.4 31.9 43.7 31.9 43.6 31.9 43.5 32ZM44.9 30.7C45 30.6 45 30.4 44.8 30.3 44.6 30.2 44.4 30.2 44.3 30.1 44.2 30.1 44.1 30.1 44 30.2 43.7 30.3 43.6 30.5 43.5 30.8 43.4 30.9 43.5 31.1 43.6 31.1H43.7C43.8 31.2 43.9 31.2 44 31.2 44.2 31.1 44.3 31.1 44.5 31 44.8 30.9 44.9 30.9 44.9 30.7ZM50.4 34.2C50.4 34.1 50.5 34 50.5 33.9 50.6 33.6 50.8 33.3 51 33 51 33 51 33 51 32.9L51.1 32.8C51.2 32.8 51.1 32.9 51.1 32.9 51.1 33 51.1 33.1 51 33.2 50.9 33.5 50.8 33.7 50.7 33.9 50.6 34 50.6 34.2 50.4 34.2 50.4 34.3 50.4 34.3 50.4 34.2ZM52.5 35.5C52.4 35.5 52.4 35.6 52.3 35.6 52.1 35.7 52 35.9 51.8 35.9 51.5 36.1 51.3 36.2 51 36.4 50.7 36.5 50.5 36.6 50.3 36.7 50.2 36.8 50 36.7 50 36.5 50 36.4 50 36.2 50 36.1 50 36 50.1 35.8 50.2 35.8 50.4 35.7 50.6 35.5 50.7 35.3 50.8 35.2 51 35 51 34.9 51.2 34.6 51.4 34.3 51.6 34 51.8 33.7 51.9 33.5 52 33.1 52 33 52 33 52 33 52 32.7 51.9 32.5 51.7 32.4 51.6 32.3 51.4 32.1 51.2 32 51.1 31.9 50.9 31.7 50.6 31.7 50.5 31.7 50.4 31.7 50.3 31.8 50.2 31.9 50.2 31.9 50.1 32 50 32.2 49.8 32.4 49.6 32.6 49.5 32.7 49.4 32.9 49.2 32.9 49.1 33 48.9 33 48.7 33 48.6 33.1 48.4 33.1 48.2 33.1 47.9 33.2 47.5 33.2 47.2 33.2 47.1 33.2 47.1 33.2 47.1 33.2 47 33.2 47 33.1 47 33 47 32.9 47 32.9 47 32.9 47 32.7 47.1 32.5 47.1 32.3 47.2 32 47.3 31.6 47.4 31.2 47.4 31.1 47.5 31.1 47.5 31 47.6 30.8 47.6 30.6 47.7 30.3 47.8 30.1 47.8 30 47.9 29.8 48 29.5 48.2 29.1 48.3 28.8 48.4 28.7 48.4 28.5 48.4 28.3 48.5 28.1 48.4 28 48.3 27.9 48.2 28 48.1 28 48 27.9 47.7 27.8 47.6 27.9 47.5 28.1 47.4 28.3 47.2 28.6 47.1 28.8 47 29 46.9 29.2 46.8 29.4 46.7 29.7 46.5 30.1 46.4 30.4 46.3 30.7 46.1 31.1 46 31.4 45.9 31.7 45.8 32 45.7 32.3 45.5 32.8 45.4 33.3 45.2 33.8 45.1 34.1 45.1 34.3 45 34.7 44.9 35.1 44.8 35.4 44.7 35.8 44.6 36.1 44.6 36.3 44.6 36.5 44.5 36.8 44.5 37.1 44.5 37.4V37.5C44.5 37.8 44.6 38 44.6 38.4 44.6 38.5 44.7 38.7 44.7 38.8 44.7 38.9 44.7 38.9 44.7 38.9 44.7 39 44.8 39.2 44.9 39.2 44.9 39.3 45 39.3 45 39.3 45.2 39.6 45.5 39.9 45.7 40.1 45.8 40.1 45.8 40.2 45.8 40.2 45.9 40.3 46 40.3 46.1 40.1L46.2 40C46.3 39.9 46.3 39.9 46.3 39.7 46.3 39.5 46.3 39.2 46.2 39 46.1 38.6 46 38.1 46 37.7 46 37.4 46.1 37.1 46.1 36.8 46.2 36.4 46.2 36 46.3 35.6 46.4 35.4 46.4 35.1 46.4 34.9 46.5 34.6 46.5 34.4 46.5 34.2 46.6 34.1 46.6 34 46.8 34 47 34 47.1 34 47.3 34 47.6 34 47.8 33.9 48 33.8 48.1 33.7 48.1 33.7 48.2 33.7 48.5 33.6 48.8 33.5 49 33.4 49.1 33.4 49.1 33.3 49.1 33.4 49.2 33.5 49.1 33.5 49.1 33.5 49 33.7 49 33.8 48.9 34 48.8 34.3 48.6 34.6 48.6 34.9 48.6 35 48.6 35 48.6 35.1 48.5 35.3 48.5 35.5 48.6 35.6 48.6 35.7 48.7 35.9 48.7 36.1 48.8 36.3 49 36.6 49.1 36.8 49.2 36.9 49.3 37 49.5 37.1 49.6 37.2 49.8 37.2 50 37.2 50.1 37.3 50.2 37.3 50.3 37.3 50.4 37.4 50.6 37.3 50.8 37.2 51 37.1 51.2 36.9 51.4 36.7 51.7 36.4 52 36 52.4 35.6 52.5 35.5 52.5 35.5 52.5 35.4 52.6 35.5 52.6 35.5 52.5 35.5Z" fill="#003764"/><path d="M55.6 21.6C55.5 21.3 55.4 21 55.4 20.7 55.3 21 55.4 21.3 55.6 21.6Z" class="a"/><path d="M50.7 19.8C50.7 20 50.6 20.2 50.6 20.6 50.6 20.8 50.7 20.4 50.7 19.8Z" class="a"/><path d="M51.6 15.4C51.6 15.3 51.7 15.2 51.7 15.2 51.9 14 51.7 14.7 51.6 15.4Z" class="a"/><path d="M57 21.7C56.4 18.5 55.2 15.2 53.6 12.4 53.5 12.4 53.4 12.4 53.2 12.4 53.2 12.4 53.2 12.4 53.2 12.5 53.2 12 53.1 12.7 53.1 12.7 52.5 12.3 52.2 13.5 51.8 14.7 51.8 14.7 52 15 51.8 15 51.8 15 51.7 15.1 51.7 15.2 51.7 15.4 51.6 15.7 51.6 16 51.6 15.8 51.6 15.6 51.6 15.5 51.3 16.4 50.9 18.7 50.7 19.9 51 18 50.6 22.1 50.6 22.4 50.6 22.1 50.7 22 50.7 22.2V22.1C50.7 23.1 51.2 22.5 51.2 23.4 51.8 23.2 52 21.8 52.1 20.7 52.1 20.8 52 20.9 52 21 52 21.1 52 21.1 52 21.1V21C52 20.9 52.1 20.6 52.1 20.4 52.2 19.5 52.2 18.9 52.4 18.9 52.4 19 52.4 19.1 52.3 19.3 52.3 19.4 52.3 19.6 52.2 20.1 52.2 20 52.2 20 52.2 19.9 52.2 20.1 52.1 20.3 52.1 20.4 52.1 20.5 52.1 20.6 52.1 20.7 52.4 19.7 53.3 17.3 53.3 16.4 53.3 15.1 53.5 16.5 53.7 16.5 54.3 17.9 55.6 20.3 55.6 21.7 55.9 22.3 56.6 22.5 57 22.4 57 21.6 57 21.8 57.1 22.5 57.1 22.1 57.2 21.5 57 21.7ZM51.8 22.3C51.8 22.2 51.8 22 51.9 22L51.8 22.3ZM51.9 21.7V21.6C51.9 21.5 52 21.6 51.9 21.7ZM52.4 19C52 17.6 53.4 18 52.4 19V19ZM52.8 17.6C52.8 17.5 52.8 17.5 52.8 17.5 52.8 17.5 52.9 17.5 52.8 17.6Z" class="a"/><path d="M52.2 19.8C52.2 19.6 52.3 19.4 52.3 19.2 52.3 19.1 52.2 19.4 52.2 19.8Z" class="a"/><path d="M60.5 19.8C60.6 19.8 60.6 19.8 60.5 19.8V19.8ZM60.4 19.4C60.5 19.5 60.6 19.5 60.7 19.5 60.5 19.4 60.4 19.4 60.4 19.4ZM59.8 20.8C59.9 20.8 59.9 20.8 59.9 20.8 59.9 20.8 59.9 20.8 59.8 20.8ZM59.8 20.8C59.9 20.8 60.1 20.9 60 20.9 60 20.9 59.8 20.8 59.8 20.8ZM59.7 20.5C59.8 20.5 59.8 20.5 59.7 20.5 59.8 20.5 59.8 20.5 59.7 20.5 59.8 20.5 59.7 20.5 59.7 20.5ZM59.6 20.8C59.7 20.8 59.7 20.8 59.7 20.8 59.7 20.8 59.7 20.8 59.6 20.8ZM59.5 20.5C59.6 20.5 59.6 20.5 59.5 20.5V20.5ZM58.7 20.7C58.8 20.7 58.8 20.7 58.7 20.7V20.7ZM58.7 20.2C59.2 20.2 59.7 20.3 60.2 20.3 59.7 20.4 59.1 20.2 58.7 20.2ZM58.5 20.2C58.6 20.2 58.6 20.2 58.5 20.2 58.6 20.2 58.6 20.2 58.5 20.2ZM58.4 20.4C58.5 20.4 58.5 20.4 58.4 20.4 58.5 20.4 58.5 20.4 58.4 20.4 58.5 20.4 58.4 20.4 58.4 20.4ZM58.4 20.8C58.4 20.8 58.4 20.7 58.4 20.8 58.4 20.7 58.4 20.8 58.4 20.8ZM58.1 20.8C58.1 20.8 58.2 20.8 58.1 20.8 58.2 20.8 58.1 20.8 58.1 20.8ZM57.7 19.5C57.7 19.5 57.8 19.6 57.7 19.5 57.8 19.6 57.7 19.5 57.7 19.5ZM54.5 21C54.6 21 54.6 21 54.7 21 54.8 21 54.8 20.9 55 20.9 55.3 20.7 55.6 20.6 55.9 20.5 55.8 20.5 55.8 20.6 55.7 20.6 55.6 20.6 55.6 20.7 55.5 20.7 55.3 20.6 54.5 20.9 54.5 21ZM54.3 21.3C54.3 21.3 54.4 21.2 54.3 21.3V21.3ZM51.3 21.3C51.3 21.3 51.7 20.3 51.8 20.3 51.9 20.2 52.4 19.6 52.8 19.6 54.1 19.3 55.2 20.3 54.7 20.3 54.8 20.2 54.8 20.2 54.8 20 54.8 19 58.9 19.3 59.4 19.3 59.5 19.3 60.1 19.4 60 19.4 60.5 19.5 60.6 19.6 60.4 19.6 60.4 19.7 60.5 19.7 60.5 19.7 60.4 19.8 60.4 19.7 60.2 19.7 60.3 19.7 60.5 19.9 60.4 19.9 60.3 19.9 60.9 20.1 60.5 20.2 60.6 20.2 60.5 20.3 60.4 20.3 60.5 20.4 60.6 20.4 60.5 20.4 60.5 20.5 60.5 20.5 60.4 20.5 60.4 20.5 60.5 20.5 60.4 20.5 60.4 20.8 60.1 20.6 59.6 20.6H59.7C59.4 20.5 59.1 20.5 58.8 20.5 59 20.5 58.8 20.5 58.7 20.5 59.1 20.5 60.2 20.8 60.2 20.8H60.1C60.1 20.8 60.2 20.8 60.1 20.8 60.2 21 60 20.8 59.9 20.8 59.9 20.8 59.9 20.8 60 20.8 59.6 20.8 59.3 20.7 58.9 20.7 58.9 20.7 58.9 20.7 59 20.7 58.8 20.7 58.7 20.7 58.5 20.7H58.6C58.5 20.7 58.5 20.7 58.5 20.7 58.5 20.7 58.5 20.7 58.6 20.7 58.5 20.7 58.4 20.7 58.3 20.8 57.6 20.8 62.3 20.8 58.2 20.8 58 20.8 57.8 20.9 57.7 21 57.7 21 57.7 21 57.6 21 57.7 21 57.5 20.9 57.4 20.9 57.2 20.9 57.3 20.8 57.1 20.8 57.1 20.8 57.1 20.8 57 20.8H57.1C56 20.8 55.3 20.5 54.4 21.2 54.3 21.3 54.2 21.4 54 21.3 54 21.1 53.9 21 53.8 21H53.9C53.4 21 52.9 20.9 52.4 21.1 52.3 21.2 52.2 21.2 52.1 21.2 52.1 21.2 52.1 21.2 52 21.2H51.9 51.8 51.7C51.6 21.2 51.2 21.2 51.3 21.3Z" fill="#00AEEF"/></g><defs><clipPath><rect width="60.7" height="45" class="b"/></clipPath></defs></svg>