<svg width="160" height="160" viewBox="0 0 160 160" fill="none" xmlns="http://www.w3.org/2000/svg">
<path d="M80.2773 158.267C123.503 158.267 158.544 123.226 158.544 80.0001C158.544 36.7744 123.503 1.73315 80.2773 1.73315C37.0517 1.73315 2.01038 36.7744 2.01038 80.0001C2.01038 123.226 37.0517 158.267 80.2773 158.267Z" fill="white"/>
<path d="M80 0C35.9099 0 0 35.9099 0 80C0 124.09 35.9099 160 80 160C124.09 160 160 124.09 160 80C160 35.9099 124.159 0 80 0ZM80 157.574C37.227 157.574 2.42634 122.773 2.42634 80C2.42634 37.227 37.227 2.42634 80 2.42634C122.773 2.42634 157.574 37.227 157.574 80C157.574 122.773 122.773 157.574 80 157.574Z" fill="#B48D49"/>
<path d="M82.9809 88.6654C88.4575 88.6654 94.0034 85.8232 94.0034 79.4453C94.0034 76.5337 92.201 73.8301 89.3587 72.5129L82.8422 69.532C81.5251 68.9774 78.4055 67.3136 78.4055 64.402C78.4055 62.1836 80.4159 61.0744 82.0797 60.7278C82.4263 60.6585 82.8422 60.5892 83.3968 60.5892C87.071 60.5892 90.1906 64.3327 90.1906 68.7694V69.116H91.2304V59.9653H90.3985L90.3292 60.1732C90.1906 60.7278 89.4973 60.8665 88.9427 60.8665C88.5961 60.8665 88.1109 60.7278 87.6256 60.4505C86.7244 60.1039 85.4765 59.5493 83.5355 59.5493C82.9809 59.5493 82.4956 59.5493 81.941 59.688C77.7816 60.3812 75.0779 63.5008 75.0779 67.5909C75.0779 70.9185 76.8804 73.6914 79.8613 75.0779L86.4471 78.0589C88.1802 78.8907 89.3587 80.6932 89.3587 82.7036C89.3587 87.3483 84.506 87.6949 83.0502 87.6949C79.9999 87.6949 77.5043 86.4471 77.5043 85.4072C77.5043 84.3673 78.0589 83.9514 78.6828 83.4661C79.376 82.9115 80.2079 82.2183 80.2079 80.6932C80.2079 78.5441 78.5441 77.3656 76.8804 77.3656C75.0779 77.3656 73.2755 78.6828 73.2755 81.5251C73.2755 85.7538 77.3656 88.0415 81.3864 88.5268C81.941 88.5961 82.4263 88.6654 82.9809 88.6654Z" fill="#B48D49"/>
<path d="M130.884 59.8959C129.983 59.688 129.081 59.5493 128.111 59.5493C127.14 59.5493 126.239 59.6186 125.269 59.8959C119.237 61.3517 114.87 67.3136 114.87 74.1767C114.87 81.0398 119.237 87.0017 125.269 88.4575C126.17 88.6654 127.071 88.8041 128.111 88.8041C129.081 88.8041 129.983 88.6654 130.884 88.4575C136.915 87.0017 141.283 81.0398 141.283 74.1767C141.283 67.3829 136.915 61.3517 130.884 59.8959ZM128.111 87.8336C127.071 87.8336 126.308 87.7642 125.477 87.5563C122.496 86.7244 122.149 84.2287 121.872 80.3466C121.664 78.6828 121.664 75.8405 121.664 74.246C121.664 72.7209 121.664 69.8093 121.872 68.1455C122.149 64.2634 122.496 61.837 125.477 60.9358C126.308 60.7278 127.071 60.6585 128.18 60.6585C129.22 60.6585 129.983 60.7278 130.745 60.9358C133.657 61.837 134.073 64.3327 134.35 68.1455C134.419 69.74 134.558 72.5129 134.558 74.246C134.558 75.9791 134.419 78.7521 134.35 80.3466C134.073 84.1594 133.657 86.7244 130.745 87.5563C129.983 87.6949 129.151 87.8336 128.111 87.8336Z" fill="#B48D49"/>
<path d="M98.5788 66.7592V81.1092C98.5788 86.1006 102.738 88.7349 106.828 88.7349C107.314 88.7349 107.799 88.7349 108.284 88.5962C111.127 88.1803 114.246 86.3085 114.246 82.2877C114.246 80.208 112.998 78.1976 110.641 78.1976C108.977 78.1976 107.314 79.3761 107.314 81.5252C107.314 83.3276 108.354 84.0209 109.116 84.5061C109.74 84.8527 110.017 85.13 110.017 85.6153C110.017 86.8631 108.977 87.4871 108.146 87.695C107.868 87.7644 107.591 87.7644 107.383 87.7644C105.789 87.7644 104.749 86.7938 104.749 85.2687V67.1751H113.276V66.2046H104.749V57.4697H103.778V57.747C103.778 61.9758 101.282 66.2046 95.6672 66.2046H93.5182V67.1751H95.7366C96.7071 67.1751 97.6776 67.0365 98.5788 66.7592Z" fill="#B48D49"/>
<path d="M34.5928 77.7123C41.3866 77.7123 44.5062 73.2062 44.5062 69.0468C44.5062 64.5407 40.7627 59.896 34.5928 59.896H18.3016V60.8665H23.3623V87.4176H18.3016V88.3882H34.5928V87.4176H29.5321V76.7417C30.78 77.435 32.5131 77.7123 34.5928 77.7123ZM32.5131 60.9359C36.3952 60.9359 37.851 63.1542 37.851 69.2547C37.851 73.2062 37.5737 76.7417 34.1769 76.7417C32.2358 76.7417 30.7107 76.3951 29.5321 75.6326V60.9359H32.5131Z" fill="#B48D49"/>
<path d="M58.6481 88.8041C59.6187 88.8041 60.5199 88.6654 61.4211 88.4575C67.4523 87.0017 71.8197 81.0398 71.8197 74.1767C71.8197 67.3136 67.4523 61.3517 61.4211 59.8959C60.5199 59.688 59.6187 59.5493 58.6481 59.5493C57.6776 59.5493 56.7764 59.6186 55.8058 59.8959C49.7746 61.3517 45.4072 67.3136 45.4072 74.1767C45.4072 81.0398 49.7746 87.0017 55.8058 88.4575C56.7071 88.6654 57.6776 88.8041 58.6481 88.8041ZM65.0953 74.1767C65.0953 75.9098 64.9566 78.6134 64.8873 80.2772C64.61 84.0901 64.1941 86.5857 61.2824 87.4869C60.5199 87.6949 59.7573 87.7642 58.7174 87.7642C57.6776 87.7642 56.915 87.6949 56.0831 87.4869C53.1022 86.655 52.7556 84.1594 52.4783 80.2772C52.2703 78.4748 52.2703 75.4245 52.2703 74.1767C52.2703 72.9289 52.2703 69.8786 52.4783 68.0762C52.7556 64.194 53.1022 61.7677 56.0831 60.8665C56.915 60.6585 57.6776 60.5892 58.7868 60.5892C59.8266 60.5892 60.6585 60.6585 61.3518 60.8665C64.2634 61.7677 64.6793 64.2634 64.9566 68.0762C64.9566 69.74 65.0953 72.4436 65.0953 74.1767Z" fill="#B48D49"/>
<path d="M41.0399 112.097L39.0295 108.769C40.0001 108.353 40.624 107.522 40.624 106.343C40.624 104.61 39.3068 103.709 37.643 103.709H34.6621V112.097H36.0486V108.977H37.5044L39.3761 112.097H41.0399ZM37.5044 107.73H36.0486V104.887H37.5044C38.4749 104.887 39.1682 105.373 39.1682 106.274C39.1682 107.244 38.5443 107.73 37.5044 107.73Z" fill="#B48D49"/>
<path d="M45.6152 108.423H49.0121V107.175H45.6152V104.957H49.4974V103.64H44.2288V112.097H49.5667V110.78H45.6152V108.423Z" fill="#B48D49"/>
<path d="M55.6673 110.918C54.7661 110.918 53.7956 110.572 53.241 109.948L52.4784 111.126C53.3103 111.82 54.3501 112.236 55.598 112.236C57.4697 112.236 58.6482 111.196 58.6482 109.601C58.6482 108.284 57.955 107.591 55.806 107.106C54.4888 106.828 54.0728 106.551 54.0728 105.927C54.0728 105.165 54.6274 104.818 55.4593 104.818C56.3605 104.818 57.0538 105.165 57.5391 105.58L58.3016 104.402C57.6084 103.847 56.6378 103.501 55.4593 103.501C53.7262 103.501 52.617 104.541 52.617 105.996C52.617 107.244 53.3103 108.007 55.39 108.492C56.7072 108.769 57.1924 109.116 57.1924 109.74C57.2618 110.502 56.6378 110.918 55.6673 110.918Z" fill="#B48D49"/>
<path d="M68.4922 103.64H61.3518V104.957H64.1941V112.097H65.6499V104.957H68.4922V103.64Z" fill="#B48D49"/>
<path d="M76.2565 112.097H77.7816L73.8301 103.57H73.7608L69.8093 112.097H71.3345L72.0277 110.572H75.5632L76.2565 112.097ZM72.5823 109.394L73.8301 106.482L75.078 109.394H72.5823Z" fill="#B48D49"/>
<path d="M86.7244 109.116V103.709H85.2686V109.047C85.2686 110.225 84.714 110.988 83.5355 110.988C82.357 110.988 81.8024 110.225 81.8024 109.047V103.709H80.4159V109.116C80.4159 110.988 81.5251 112.236 83.6048 112.236C85.6845 112.236 86.7244 110.988 86.7244 109.116Z" fill="#B48D49"/>
<path d="M94.9046 108.769C95.8752 108.353 96.4991 107.522 96.4991 106.343C96.4991 104.61 95.1819 103.709 93.5182 103.709H90.4679V112.097H91.8544V108.977H93.3102L95.1819 112.097H96.8457L94.9046 108.769ZM93.4488 107.73H91.993V104.887H93.4488C94.4194 104.887 95.1126 105.373 95.1126 106.274C95.1126 107.244 94.4887 107.73 93.4488 107.73Z" fill="#B48D49"/>
<path d="M103.57 103.501L99.6188 112.028H101.144L101.837 110.502H105.373L106.066 112.028H107.591L103.57 103.501ZM102.322 109.393L103.57 106.482L104.818 109.393H102.322Z" fill="#B48D49"/>
<path d="M110.641 103.501V112.097H112.028V106.898L117.158 112.236H117.227V103.639H115.771V108.908L110.641 103.501Z" fill="#B48D49"/>
<path d="M120.347 104.957H123.189V112.097H124.645V104.957H127.487V103.64H120.347V104.957Z" fill="#B48D49"/>
<path d="M46.6551 123.466H45.0606L44.1594 124.645L42.6343 122.912C43.4662 122.426 44.2287 121.872 44.2287 120.832C44.2287 119.723 43.3968 118.96 42.0797 118.96C40.7625 118.96 39.9306 119.723 39.9306 120.901C39.9306 121.664 40.3466 122.288 40.8318 122.842C39.6533 123.605 39.0294 124.159 39.0294 125.269C39.0294 126.794 40.2773 127.626 41.7331 127.626C42.7729 127.626 43.5355 127.21 44.2287 126.586L45.0606 127.487H46.7937L45.0606 125.615L46.6551 123.466ZM42.0103 120.069C42.4956 120.069 42.8422 120.347 42.8422 120.901C42.8422 121.456 42.4956 121.733 41.8024 122.149C41.4558 121.733 41.1091 121.387 41.1091 120.971C41.1785 120.416 41.5251 120.069 42.0103 120.069ZM41.7331 126.447C40.9705 126.447 40.4159 125.962 40.4159 125.199C40.4159 124.506 40.8318 124.09 41.5251 123.605L41.6637 123.744L43.3275 125.615C42.9116 126.101 42.4263 126.447 41.7331 126.447Z" fill="#B48D49"/>
<path d="M60.7973 124.16L58.7869 119.099H58.7176L56.7072 124.16L54.9048 119.099H53.3103L56.6379 127.626H56.7072L58.7176 122.565L60.7973 127.626H60.8666L64.1942 119.099H62.5997L60.7973 124.16Z" fill="#B48D49"/>
<path d="M68.7002 119.099H67.2444V127.487H68.7002V119.099Z" fill="#B48D49"/>
<path d="M77.7816 124.298L72.6516 118.96H72.5823V127.487H74.0381V122.288L79.1681 127.626H79.2374V119.099H77.7816V124.298Z" fill="#B48D49"/>
<path d="M84.5754 123.882H87.903V122.634H84.5754V120.416H88.3883V119.099H83.1196V127.487H88.5269V126.17H84.5754V123.882Z" fill="#B48D49"/>
<path d="M101.144 123.05C101.56 122.773 102.045 122.218 102.045 121.386C102.045 120 101.075 119.168 99.4107 119.168H96.3605V127.556H100.035C101.629 127.556 102.808 126.655 102.808 125.13C102.738 123.882 102.045 123.327 101.144 123.05ZM97.747 120.416H99.2721C100.173 120.416 100.659 120.832 100.659 121.525C100.659 122.149 100.173 122.634 99.3414 122.634H97.747V120.416ZM99.8267 126.17H97.747V123.813H99.7574C100.797 123.813 101.352 124.229 101.352 124.991C101.282 125.823 100.728 126.17 99.8267 126.17Z" fill="#B48D49"/>
<path d="M109.116 118.96L105.165 127.487H106.69L107.383 125.962H110.919L111.612 127.487H113.137L109.116 118.96ZM107.868 124.783L109.116 121.872L110.364 124.783H107.868Z" fill="#B48D49"/>
<path d="M122.149 121.733C122.149 120 120.832 119.099 119.168 119.099H116.118V127.487H117.504V124.368H118.96L120.832 127.487H122.496L120.485 124.16C121.525 123.813 122.149 122.981 122.149 121.733ZM119.099 123.189H117.643V120.347H119.099C120.069 120.347 120.763 120.832 120.763 121.733C120.693 122.704 120.069 123.189 119.099 123.189Z" fill="#B48D49"/>
<path d="M68.0069 39.0989C68.0069 35.2861 65.0953 32.1665 61.4905 32.1665H54.9047H54.4888V33.0677H56.8458V45.0608H54.8354L54.4194 45.1301V46.0313H61.3518C65.0953 46.0313 68.0069 42.9117 68.0069 39.0989ZM60.312 33.0677H61.4905C63.5009 33.0677 64.3328 34.4542 64.3328 37.7124V40.4161C64.3328 43.6743 63.5009 45.0608 61.4905 45.0608H60.312V33.0677Z" fill="#B48D49"/>
<path d="M86.3085 40.832V40.4854H85.4073V40.832C85.4073 43.189 83.5355 45.0608 81.1785 45.0608H80.1387V39.5149C81.3865 39.5149 82.0797 40.4854 82.0797 41.3866L82.2184 41.8026H82.981V36.7419V36.3953H82.0797V36.7419C82.0797 37.7124 81.3172 38.683 80.1387 38.683V33.137H81.3172C83.3276 33.137 84.922 34.7315 84.922 36.6726V37.0192H85.8232V32.1665H74.8007H74.4541V33.0677H76.8111V45.0608H74.8007H74.4541V45.962H86.4472V40.832H86.3085Z" fill="#B48D49"/>
<path d="M106.135 40.832V40.4854H105.165V40.832C105.165 43.189 103.293 45.0608 100.936 45.0608H100.035V33.0677H102.045H102.392V32.1665H94.6274H94.2808V33.0677H96.6378V45.0608H94.6274H94.2808V45.962H106.066V40.832H106.135Z" fill="#B48D49"/>
</svg>
