<svg width="288" height="288" viewBox="0 0 288 288" fill="none" xmlns="http://www.w3.org/2000/svg">
<circle cx="144" cy="144" r="144" fill="#B48D49"/>
<path d="M69.25 115.447V104.8H41.17V115.447H41.521C41.521 109.792 45.343 105.19 50.998 105.19H52.09V135.61H46.435V136H63.985V135.61H58.33V105.19H59.422C65.077 105.19 68.86 109.792 68.86 115.447H69.25Z" fill="white"/>
<path d="M107.871 136V135.61H102.216V105.19H107.871V104.8H91.1007V105.19H95.9757V120.205H84.2757V105.19H89.1507V104.8H72.3807V105.19H78.0357V135.61H72.3807V136H89.1507V135.61H84.2757V120.595H95.9757V135.61H91.1007V136H107.871Z" fill="white"/>
<path d="M127.377 136V135.61H121.722V105.19H127.377V104.8H109.827V105.19H115.482V135.61H109.827V136H127.377Z" fill="white"/>
<path d="M153.982 126.25C153.982 122.974 151.876 120.166 148.951 118.801L141.619 115.486C139.201 114.433 136.432 112.405 136.432 109.402C136.432 106.945 138.538 105.385 140.839 104.956C141.268 104.839 141.814 104.8 142.399 104.8C147.196 104.839 149.185 107.53 149.692 112.171H150.121V104.8H149.809C149.536 105.385 148.99 105.541 148.405 105.541C147.82 105.541 147.196 105.385 146.845 105.229C145.48 104.644 143.803 104.41 142.555 104.41H142.243C141.775 104.41 141.307 104.449 140.839 104.527C136.588 105.268 133.468 108.349 133.468 113.029C133.468 116.656 135.379 119.62 138.616 121.063L145.987 124.378C148.21 125.431 149.419 127.654 149.419 129.877C149.419 132.646 147.82 135.259 143.959 135.883C143.374 135.961 142.75 136 142.126 136C141.385 136 140.722 135.922 139.981 135.805C136.042 135.064 133.663 132.061 132.61 126.094H132.259V136H132.61C132.766 135.103 133.624 134.674 134.443 134.674C135.496 134.674 136.627 135.259 137.563 135.571C138.382 135.844 139.24 136.078 140.137 136.234C140.761 136.351 141.385 136.39 142.126 136.39C142.828 136.39 143.491 136.351 144.076 136.234C149.263 135.493 153.982 131.749 153.982 126.25Z" fill="white"/>
<path d="M185.176 136V135.61H179.521V105.19H185.176V104.8H167.626V105.19H173.281V135.61H167.626V136H185.176Z" fill="white"/>
<path d="M211.782 126.25C211.782 122.974 209.676 120.166 206.751 118.801L199.419 115.486C197.001 114.433 194.232 112.405 194.232 109.402C194.232 106.945 196.338 105.385 198.639 104.956C199.068 104.839 199.614 104.8 200.199 104.8C204.996 104.839 206.985 107.53 207.492 112.171H207.921V104.8H207.609C207.336 105.385 206.79 105.541 206.205 105.541C205.62 105.541 204.996 105.385 204.645 105.229C203.28 104.644 201.603 104.41 200.355 104.41H200.043C199.575 104.41 199.107 104.449 198.639 104.527C194.388 105.268 191.268 108.349 191.268 113.029C191.268 116.656 193.179 119.62 196.416 121.063L203.787 124.378C206.01 125.431 207.219 127.654 207.219 129.877C207.219 132.646 205.62 135.259 201.759 135.883C201.174 135.961 200.55 136 199.926 136C199.185 136 198.522 135.922 197.781 135.805C193.842 135.064 191.463 132.061 190.41 126.094H190.059V136H190.41C190.566 135.103 191.424 134.674 192.243 134.674C193.296 134.674 194.427 135.259 195.363 135.571C196.182 135.844 197.04 136.078 197.937 136.234C198.561 136.351 199.185 136.39 199.926 136.39C200.628 136.39 201.291 136.351 201.876 136.234C207.063 135.493 211.782 131.749 211.782 126.25Z" fill="white"/>
<path d="M78.766 181V180.61H73.111V150.19H78.766V149.8H66.871L59.5 171.406L52.09 149.8H40V150.19H45.616V180.61H40V181H51.7V180.61H46.006V151.438L56.263 181H56.653L66.871 151.009V180.61H61.216V181H78.766Z" fill="white"/>
<path d="M112.428 150.19V149.8H101.391V150.19H106.344L98.3885 166.063L90.4325 150.19H95.3075V149.8H78.3815V150.19H84.0365L92.3825 166.804V180.61H86.7275V181H104.277V180.61H98.6225V166.453L106.773 150.19H112.428Z" fill="white"/>
<path d="M151.043 160.447H150.653C150.653 157.561 149.769 155.13 148.001 153.154C146.259 151.178 143.997 150.19 141.215 150.19H140.123V180.61H145.778V181H128.228V180.61H133.883V150.19H132.791C130.009 150.19 127.734 151.178 125.966 153.154C124.198 155.13 123.314 157.561 123.314 160.447H122.963V149.8H151.043V160.447ZM150.653 157.327V150.19H144.023C147.455 151.178 149.665 153.557 150.653 157.327ZM129.983 150.19H123.353V157.21C124.367 153.544 126.577 151.204 129.983 150.19ZM139.733 180.61V150.19H134.273V180.61H139.733Z" fill="white"/>
<path d="M171.724 181H154.174V180.61H159.829V150.19H154.174V149.8H171.724V150.19H166.069V180.61H171.724V181ZM165.679 180.61V150.19H160.219V180.61H165.679Z" fill="white"/>
<path d="M212.448 181H194.898V180.61H200.553V151.009L190.335 181H189.945L179.688 151.438V180.61H185.382V181H173.682V180.61H179.298V150.19H173.682V149.8H185.772L193.182 171.406L200.553 149.8H212.448V150.19H206.793V180.61H212.448V181ZM206.403 180.61V150.19H200.943V180.61H206.403ZM192.987 171.991L185.499 150.19H179.727L190.14 180.376L192.987 171.991Z" fill="white"/>
<path d="M241.118 181H214.403V180.61H220.058V150.19H214.403V149.8H239.753V159.589H239.402C239.402 156.989 238.479 154.779 236.633 152.959C234.787 151.113 232.564 150.19 229.964 150.19H226.298V165.205H227.195C228.807 165.205 230.146 164.659 231.212 163.567C232.278 162.475 232.811 161.201 232.811 159.745H233.123V170.938H232.811C232.811 169.534 232.278 168.299 231.212 167.233C230.146 166.141 228.807 165.595 227.195 165.595H226.298V180.61H229.73C232.772 180.61 235.359 179.544 237.491 177.412C239.649 175.254 240.728 172.641 240.728 169.573H241.118V181ZM239.363 156.703V150.19H232.655C234.267 150.632 235.658 151.438 236.828 152.608C238.024 153.752 238.869 155.117 239.363 156.703ZM232.733 168.754V162.007C231.953 163.801 230.627 164.932 228.755 165.4C230.601 165.868 231.927 166.986 232.733 168.754ZM240.728 180.61V172.576C240.208 174.526 239.22 176.229 237.764 177.685C236.334 179.115 234.644 180.09 232.694 180.61H240.728ZM225.908 180.61V150.19H220.448V180.61H225.908Z" fill="white"/>
</svg>
