<svg width="18" height="14" viewBox="0 0 18 14" fill="none" xmlns="http://www.w3.org/2000/svg">
<g clip-path="url(#clip0)">
<path d="M12.1775 7.13842L17.5657 3.13184V11.0068L12.1775 7.13842Z" fill="#782620"/>
<path d="M0.157715 3.13184L5.54587 7.13842L0.157715 11.0068V3.13184Z" fill="#782620"/>
<path d="M0.157715 1.1976C0.295873 0.783126 0.572188 0.368652 0.986662 0.368652H16.5985C17.013 0.368652 17.2893 0.644968 17.4275 1.1976L8.86166 7.55286L0.157715 1.1976Z" fill="#782620"/>
<path d="M0.986662 13.6318C0.572188 13.6318 0.295873 13.3555 0.157715 12.941L6.92745 8.10547L8.44719 9.21073C8.58535 9.34889 8.7235 9.34889 8.86166 9.34889C8.99982 9.34889 9.13798 9.34889 9.27613 9.21073L10.7959 8.10547L17.5656 12.941C17.4275 13.3555 17.1511 13.6318 16.7367 13.6318H0.986662Z" fill="#782620"/>
</g>
<defs>
<clipPath id="clip0">
<rect width="17.4079" height="13.2632" fill="white" transform="translate(0.157715 0.368652)"/>
</clipPath>
</defs>
</svg>
