<svg width="151" height="42" viewBox="0 0 151 42" fill="none" xmlns="http://www.w3.org/2000/svg">
<path d="M64.1796 4.87207H69.8333V6.46074H65.9595V8.47306H69.4145V10.0617H65.9595V11.9681H69.8333V13.5568H64.1796V4.87207Z" fill="#034EA2"/>
<path d="M73.2883 12.074C74.3352 12.074 75.0681 11.8622 75.0681 11.1208C75.0681 9.53212 70.6708 10.1676 70.6708 7.30799C70.6708 5.40158 72.1366 4.76611 74.1259 4.76611C74.754 4.76611 75.6963 4.87202 76.2198 5.08385V6.77843C75.9057 6.56661 74.8587 6.35478 74.0212 6.35478C73.393 6.35478 72.5554 6.46069 72.5554 7.09616C72.5554 8.68483 76.848 7.83754 76.848 11.0149C76.848 13.0272 75.3822 13.6627 73.1836 13.6627C72.5554 13.6627 71.299 13.5568 70.7755 13.3449V11.6504C71.1943 11.8622 72.346 12.074 73.2883 12.074Z" fill="#034EA2"/>
<path d="M79.8843 13.5568H78.1044V4.87207H79.8843V13.5568Z" fill="#034EA2"/>
<path d="M81.5594 4.87207H87.2131V6.46074H83.3393V8.79079H86.7943V10.3795H83.3393V13.5568H81.5594V4.87207Z" fill="#034EA2"/>
<path d="M64.1796 16.2046H69.8333V17.7933H65.9595V20.1233H69.4145V21.712H65.9595V24.8893H64.1796V16.2046Z" fill="#034EA2"/>
<path d="M72.6601 24.9953H70.8802V16.3105H72.6601V24.9953Z" fill="#034EA2"/>
<path d="M75.9057 24.9953H74.3353V16.3105H76.3245L80.303 22.4534V16.3105H81.8735V24.9953H79.9889L75.9057 18.6406V24.9953Z" fill="#034EA2"/>
<path d="M88.1553 23.1948H85.0144L84.4909 24.9953H82.7111L85.5379 16.3105H87.6318L90.4587 24.9953H88.6788L88.1553 23.1948ZM85.4332 21.712H87.7365L86.5849 18.0051L85.4332 21.712Z" fill="#034EA2"/>
<path d="M92.9715 24.9953H91.401V16.3105H93.3903L97.3688 22.4534V16.3105H98.9392V24.9953H97.0547L92.9715 18.6406V24.9953Z" fill="#034EA2"/>
<path d="M106.792 24.7834C106.268 24.9952 104.907 25.1011 104.279 25.1011C101.766 25.1011 100.3 23.6184 100.3 20.7588C100.3 17.4755 102.29 16.2046 104.698 16.2046C105.221 16.2046 106.059 16.2046 106.687 16.3105V19.0642H105.012V17.7933C104.802 17.7933 104.593 17.7933 104.488 17.7933C103.127 17.7933 102.08 18.3228 102.08 20.547C102.08 22.877 103.232 23.4066 104.802 23.4066C105.43 23.4066 106.163 23.3006 106.792 23.1947V24.7834Z" fill="#034EA2"/>
<path d="M109.932 24.9953H108.153V16.3105H109.932V24.9953Z" fill="#034EA2"/>
<path d="M113.492 16.2046V23.1947C113.492 25.1011 112.55 26.1603 110.561 26.7957L109.932 25.5248C110.979 24.8893 111.712 24.3598 111.712 23.3006V16.3105H113.492V16.2046Z" fill="#034EA2"/>
<path d="M117.261 23.5125C118.308 23.5125 119.041 23.1947 119.041 22.5593C119.041 20.9706 114.644 21.6061 114.644 18.7465C114.644 16.8401 116.11 16.2046 118.099 16.2046C118.727 16.2046 119.669 16.3105 120.193 16.5223V18.2169C119.774 18.111 118.727 17.8992 117.889 17.8992C117.261 17.8992 116.424 18.0051 116.424 18.6406C116.424 20.2292 120.716 19.3819 120.716 22.5593C120.716 24.5716 119.251 25.2071 117.052 25.2071C116.424 25.2071 115.167 25.1011 114.644 24.8893V23.1947C115.167 23.3006 116.319 23.5125 117.261 23.5125Z" fill="#034EA2"/>
<path d="M123.753 19.8056H124.59L127.103 16.2046H129.092L125.951 20.3351L129.092 24.8893H126.998L124.485 21.2883H123.753V24.8893H121.973V16.2046H123.753V19.8056Z" fill="#034EA2"/>
<path d="M131.71 24.9953H129.93V16.3105H131.71V24.9953Z" fill="#034EA2"/>
<path d="M65.9595 36.3278H64.1796V27.6431H65.9595V36.3278Z" fill="#034EA2"/>
<path d="M69.2051 36.3278H67.6346V27.6431H69.6239L73.6024 33.7859V27.6431H75.1729V36.3278H73.2883L69.2051 29.9731V36.3278Z" fill="#034EA2"/>
<path d="M79.0466 34.845C80.0936 34.845 80.8265 34.5273 80.8265 33.8918C80.8265 32.3031 76.4292 32.9386 76.4292 30.079C76.4292 28.1726 77.895 27.5371 79.8842 27.5371C80.5124 27.5371 81.4547 27.643 81.9782 27.8548V29.5494C81.5594 29.4435 80.5124 29.2317 79.6748 29.2317C79.0466 29.2317 78.2091 29.3376 78.2091 29.9731C78.2091 31.5617 82.5017 30.7144 82.5017 33.8918C82.5017 35.9041 81.0359 36.5396 78.8373 36.5396C78.2091 36.5396 76.9527 36.4337 76.4292 36.2218V34.5273C76.9527 34.6332 78.1044 34.845 79.0466 34.845Z" fill="#034EA2"/>
<path d="M83.0252 27.6431H90.0399V29.2317H87.4225V36.3278H85.6426V29.2317H83.0252V27.6431Z" fill="#034EA2"/>
<path d="M93.7043 33.2564H92.6574V36.3278H90.8775V27.6431H93.9137C96.2171 27.6431 97.0546 28.7022 97.0546 30.3968C97.0546 31.6677 96.5312 32.515 95.5889 32.9386L98.2063 36.3278H96.0077L93.7043 33.2564ZM92.6574 31.7736H93.809C94.7513 31.7736 95.2748 31.5618 95.2748 30.5027C95.2748 29.6554 94.9607 29.3376 93.809 29.3376H92.7621V31.7736H92.6574Z" fill="#034EA2"/>
<path d="M104.069 27.643H105.745V33.2563C105.745 35.5864 103.965 36.4337 102.08 36.4337C100.3 36.4337 98.5204 35.6923 98.5204 33.2563V27.5371H100.3V32.8327C100.3 34.4213 100.928 34.845 102.185 34.845C103.441 34.845 104.174 34.3154 104.174 32.7268V27.643H104.069Z" fill="#034EA2"/>
<path d="M114.853 29.9731L112.969 36.3278H110.77L108.781 29.9731V36.3278H107.315V27.6431H109.723L111.922 34.845L114.12 27.6431H116.528V36.3278H114.853V29.9731Z" fill="#034EA2"/>
<path d="M118.204 27.6431H123.857V29.2317H119.983V31.1381H123.438V32.7268H119.983V34.6332H123.857V36.2219H118.204V27.6431Z" fill="#034EA2"/>
<path d="M126.893 36.3278H125.323V27.6431H127.312L131.291 33.7859V27.6431H132.861V36.3278H130.977L126.893 29.9731V36.3278Z" fill="#034EA2"/>
<path d="M133.699 27.6431H140.714V29.2317H138.096V36.3278H136.316V29.2317H133.699V27.6431Z" fill="#034EA2"/>
<path d="M143.436 36.3278H141.656V27.6431H143.436V36.3278Z" fill="#034EA2"/>
<path d="M149.718 33.3619C149.718 37.3866 146.577 40.5639 142.703 40.5639H7.85232C3.97851 40.5639 0.837585 37.2807 0.837585 33.3619V8.04914C0.837585 4.02451 3.97851 0.847168 7.85232 0.847168H142.703C146.577 0.847168 149.718 4.13042 149.718 8.04914V33.3619Z" stroke="#034EA2" stroke-width="1.6007" stroke-miterlimit="10"/>
<path d="M60.7246 10.9085L58.526 8.57848L46.9045 20.4405L43.4495 17.2632L41.1462 19.8051L46.9045 25.4184L60.7246 10.9085ZM56.3273 21.4997C56.1179 27.2189 51.7206 31.3494 46.3811 31.3494C40.9368 31.3494 36.4348 26.5834 36.4348 20.7583C36.4348 14.9332 40.8321 10.2731 46.3811 10.2731C47.428 10.2731 48.7891 10.5908 49.7314 10.9085L51.8253 8.36666C50.1502 7.51937 48.2656 7.09572 46.3811 7.09572C39.2616 7.09572 33.3986 13.2386 33.3986 20.8642C33.3986 28.4898 39.1569 34.6327 46.3811 34.6327C53.5005 34.6327 59.2589 28.4898 59.2589 20.8642C59.2589 20.3346 59.2589 20.1228 59.1542 19.5933L56.3273 21.4997ZM21.3583 6.8839C29.6294 6.8839 34.0267 8.36666 34.7596 9.10804C34.0267 9.84941 29.7341 11.7558 21.3583 11.7558C13.0872 11.7558 8.68993 9.84941 7.95704 9.10804C8.68993 8.36666 12.9825 6.8839 21.3583 6.8839ZM9.00402 6.46025C7.95704 6.98981 6.17719 7.8371 6.17719 8.89621C6.17719 10.0612 6.17719 14.0859 6.17719 15.145C6.17719 16.31 7.22416 16.8396 9.31811 17.475C11.4121 18.1105 16.6469 18.8519 21.7771 18.8519C26.9073 18.8519 30.7811 18.1105 30.7811 18.1105C30.7811 18.1105 31.0952 15.8864 32.4563 13.5563C33.608 11.544 35.0737 9.95532 35.9113 8.89621C36.1207 8.68439 36.1207 8.36666 36.016 8.36666C35.9113 8.04892 35.5972 7.20163 33.5033 6.35434C31.8281 5.71887 27.9543 4.87158 21.1489 4.87158C14.3436 4.87158 10.1557 6.03661 9.00402 6.46025ZM6.17719 24.2534C6.17719 24.2534 6.38658 24.8888 7.22416 25.3125C8.06174 25.842 12.6684 27.4307 20.4161 27.4307C28.2684 27.4307 31.6187 26.5834 31.6187 26.5834C31.6187 26.5834 30.8858 24.5711 30.6764 23.512C30.467 22.4529 30.5717 20.5465 30.5717 20.5465C30.5717 20.5465 25.7556 21.2878 20.4161 21.2878C15.0765 21.2878 9.63221 20.1228 7.95704 19.3814C6.28188 18.6401 6.17719 17.7928 6.17719 17.7928V24.2534ZM6.17719 32.8322C6.17719 32.8322 6.38658 33.4676 7.22416 33.8913C8.06174 34.4208 12.6684 36.0095 20.4161 36.0095C33.8174 36.0095 36.6442 33.1499 36.6442 33.1499C36.6442 33.1499 35.3878 32.0908 34.4455 31.1376C33.7127 30.3962 32.7704 28.5957 32.7704 28.5957C32.7704 28.5957 29.6294 29.7607 20.4161 29.7607C15.0765 29.7607 9.63221 28.5957 7.95704 27.8543C6.28188 27.113 6.17719 26.2657 6.17719 26.2657V32.8322Z" fill="#034EA2"/>
</svg>
