<svg width="8" height="18" viewBox="0 0 8 18" fill="none" xmlns="http://www.w3.org/2000/svg">
<path d="M1.81564 3.99637C1.81564 4.43014 1.81564 6.25818 1.81564 6.25818H0.142517V9.0777H1.81564V17.3813H5.3168V9.0777H7.57861C7.57861 9.0777 7.85747 7.68343 7.85747 6.25818C7.57861 6.25818 5.19287 6.25818 5.19287 6.25818C5.19287 6.25818 5.19287 4.58506 5.19287 4.27522C5.19287 3.99637 5.62664 3.56259 5.90549 3.56259C6.18434 3.56259 7.0209 3.56259 7.88845 3.56259C7.88845 3.12882 7.88845 1.88947 7.88845 0.619141C6.89697 0.619141 5.78156 0.619141 5.34778 0.619141C1.6917 0.774059 1.81564 3.59358 1.81564 3.99637Z" fill="#ffffff"/>
</svg>
