<svg width="160" height="160" viewBox="0 0 160 160" fill="none" xmlns="http://www.w3.org/2000/svg">
<path d="M80.0692 159.238C123.907 159.238 159.445 123.7 159.445 79.8614C159.445 36.0232 123.907 0.485352 80.0692 0.485352C36.231 0.485352 0.693115 36.0232 0.693115 79.8614C0.693115 123.7 36.231 159.238 80.0692 159.238Z" fill="white"/>
<path d="M58.1629 94.2808C58.1629 103.64 49.9827 107.868 41.9411 107.868C41.1785 107.868 40.4159 107.799 39.6534 107.73C33.6915 107.106 27.7296 103.64 27.7296 97.4697C27.7296 93.2409 30.364 91.3691 32.9289 91.3691C35.3553 91.3691 37.7123 93.0329 37.7123 96.1525C37.7123 98.3709 36.5338 99.3414 35.4246 100.173C34.4541 100.936 33.6222 101.629 33.6222 103.154C33.6222 104.957 37.643 106.62 41.9411 106.62C44.1594 106.62 51.3691 106.066 51.3691 99.0641C51.3691 96.0832 49.636 93.3795 47.0017 92.1317L37.227 87.7643C32.7903 85.8232 30.156 81.6638 30.156 76.8111C30.156 70.7799 34.1075 66.2738 40.208 65.1646C41.0399 65.0953 41.7331 65.026 42.565 65.026C45.4073 65.026 47.279 65.7886 48.5962 66.3431C49.4281 66.6898 50.052 66.8977 50.6066 66.8977C51.4385 66.8977 52.4783 66.6898 52.7556 65.8579L52.825 65.5806H53.8648V78.8908H52.6863V78.5442C52.6863 71.8891 47.9723 66.2738 42.4957 66.2738C41.6638 66.2738 40.9705 66.3432 40.5546 66.4818C37.9896 66.9671 35.0087 68.7002 35.0087 72.0277C35.0087 76.3951 39.6534 78.8908 41.6638 79.7227L51.3691 84.0901C55.5286 86.0312 58.1629 89.9133 58.1629 94.2808ZM81.8717 107.522H57.8856V106.274H65.3726V66.6898H57.8856V65.4419H81.9411C91.0919 65.4419 96.5685 72.305 96.5685 78.8908C96.5685 85.0607 91.9931 91.6464 82.0104 91.6464C79.792 91.6464 76.7418 91.3692 74.3848 90.1906V106.274H81.8717V107.522ZM78.8908 66.6898H74.3848V88.6655C76.1872 89.7747 78.5442 90.3293 81.3865 90.3293C83.8128 90.3293 85.4073 89.0815 86.2392 86.5165C86.9324 84.2288 86.9324 81.3172 86.9324 78.9601C86.9324 70.0173 84.7834 66.6898 78.8908 66.6898ZM135.737 103.847C135.737 104.333 135.459 104.679 135.251 105.026C133.31 107.106 131.23 108.007 128.666 108.007C121.664 108.007 120.555 102.461 120.347 98.4402C117.851 104.194 111.057 107.938 105.789 107.938C100.243 107.938 97.0537 104.402 97.0537 98.1629C97.0537 95.8752 97.8856 93.5182 99.2721 91.8544C102.946 87.3484 108.423 84.9913 115.979 84.6447C116.257 84.6447 116.534 84.6447 116.742 84.6447C117.019 84.6447 117.296 84.6447 117.574 84.6447H120.277V73.8995C120.277 68.7695 119.445 66.3432 114.593 66.2045C113.692 66.2045 112.721 66.2738 111.75 66.4818C109.948 66.8977 106.967 68.0069 106.967 70.2253C106.967 70.8492 107.452 71.5425 107.938 72.3744C108.562 73.4142 109.324 74.5927 109.324 75.9099C109.324 78.4055 107.036 80.6239 104.541 80.6239C101.629 80.6239 99.8267 78.5442 99.8267 75.2166C99.8267 67.9376 109.74 64.9567 115.009 64.9567C124.506 64.9567 129.289 69.2548 129.289 77.643V104.125C129.289 105.65 130.191 106.274 131.161 106.274C132.409 106.274 133.726 105.373 133.726 103.986C133.726 103.432 134.142 103.016 134.697 103.016C135.39 102.946 135.737 103.293 135.737 103.847ZM105.858 96.7071C105.858 101.906 108.7 103.709 111.404 103.709C114.038 103.709 116.672 102.114 118.406 99.4107C120.277 96.6378 120.347 93.5182 120.347 92.9636V85.8232H117.296C116.88 85.8232 116.534 85.8232 116.049 85.8925C112.236 86.2392 105.858 88.0416 105.858 96.7071ZM49.844 124.922L47.8336 119.861H47.7643L45.7539 124.922L43.8821 119.861H42.2877L45.6153 128.388H45.7539L47.8336 123.328L49.9133 128.388L53.2409 119.861H51.6464L49.844 124.922ZM57.8163 124.645H61.2132V123.397H57.8163V121.179H61.6984V119.861H56.3605V128.25H61.7678V126.932H57.8163V124.645ZM66.6204 119.861H65.1646V128.25H70.4333V127.002H66.6204V119.861ZM74.9393 119.861H73.4835V128.25H78.7522V127.002H74.9393V119.861ZM86.9324 125.061L81.8024 119.723V128.25H83.2582V123.05L88.3882 128.388H88.4575V119.861H87.0017V125.061H86.9324ZM93.7262 124.645H97.1231V123.397H93.7262V121.179H97.6083V119.861H92.2704V128.25H97.6776V126.932H93.7262V124.645ZM103.986 123.328C102.669 123.05 102.253 122.773 102.253 122.149C102.253 121.386 102.808 121.04 103.64 121.04C104.541 121.04 105.234 121.386 105.719 121.802L106.482 120.624C105.789 120.069 104.818 119.723 103.64 119.723C101.906 119.723 100.797 120.763 100.797 122.218C100.797 123.466 101.49 124.229 103.57 124.714C104.887 124.991 105.373 125.338 105.373 125.962C105.373 126.724 104.749 127.14 103.778 127.14C102.877 127.14 101.906 126.794 101.352 126.17L100.589 127.348C101.421 128.042 102.461 128.458 103.778 128.458C105.65 128.458 106.828 127.418 106.828 125.823C106.828 124.506 106.066 123.813 103.986 123.328ZM112.86 123.328C111.542 123.05 111.127 122.773 111.127 122.149C111.127 121.386 111.681 121.04 112.513 121.04C113.414 121.04 114.107 121.386 114.593 121.802L115.355 120.624C114.662 120.069 113.692 119.723 112.513 119.723C110.78 119.723 109.671 120.763 109.671 122.218C109.671 123.466 110.364 124.229 112.444 124.714C113.761 124.991 114.246 125.338 114.246 125.962C114.246 126.724 113.622 127.14 112.652 127.14C111.75 127.14 110.78 126.794 110.225 126.17L109.463 127.348C110.225 128.042 111.334 128.458 112.652 128.458C114.523 128.458 115.702 127.418 115.702 125.823C115.702 124.506 115.009 123.813 112.86 123.328ZM35.4246 38.1976C32.0277 38.1976 30.4333 39.5147 30.4333 42.2184V43.1196H27.8683V43.9515H30.4333V52.3397H27.8683V53.1716H36.3951V52.3397H33.8302V43.8821H35.7019V43.0503H33.8302V40.208C33.8302 39.5841 34.0381 38.8908 35.4939 38.8908C35.7712 38.8908 36.2565 38.8908 36.3258 38.9601C36.6724 39.0295 36.8804 39.2374 36.8804 39.4454C36.8804 39.6534 36.7418 39.7227 36.4645 39.8614C36.0485 40.1386 35.4939 40.4853 35.4939 41.4558C35.4939 42.6343 36.3951 43.3276 37.2964 43.3276C38.4055 43.3276 39.2374 42.357 39.2374 41.1092C39.3761 39.7227 37.9203 38.1976 35.4246 38.1976ZM53.9341 45.6846C53.9341 49.2201 51.6464 52.3397 48.5269 53.0329C48.0416 53.1716 47.5563 53.1716 47.0711 53.1716C46.5165 53.1716 46.1005 53.1023 45.6153 53.0329C42.4957 52.2704 40.208 49.2201 40.208 45.6846C40.208 42.149 42.4957 39.0295 45.5459 38.3362C46.5858 38.1282 47.5563 38.1282 48.4575 38.3362C51.6464 39.0988 53.9341 42.149 53.9341 45.6846ZM48.3882 52.2704C49.7747 51.8544 49.9827 50.6759 50.1213 48.7348C50.1906 47.9029 50.26 46.5165 50.26 45.6846C50.26 44.7834 50.1906 43.3969 50.1213 42.565C49.9827 40.6932 49.7747 39.4454 48.3882 39.0295C48.0416 38.9601 47.6256 38.8908 47.1404 38.8908C46.6551 38.8908 46.2392 38.9601 45.8232 39.0295C44.4367 39.4454 44.2288 40.6239 44.0901 42.565C44.0208 43.3969 43.9515 44.8527 43.9515 45.6153C43.9515 46.3778 43.9515 47.8336 44.0901 48.6655C44.2288 50.6066 44.3674 51.7851 45.8232 52.201C46.2392 52.2704 46.5858 52.3397 47.1404 52.3397C47.6256 52.409 48.0416 52.409 48.3882 52.2704ZM68.8388 41.8717C68.8388 39.0988 66.8284 38.1283 65.1646 38.1283C63.5702 38.1283 61.6984 39.0295 60.7279 40.6239V38.2669H54.766V39.0988H57.331V52.201H54.766V53.0329H62.9463V52.201H60.7279V43.3969C60.7279 43.3969 60.8665 40.0693 63.5009 40.0693C64.4021 40.0693 65.3726 40.6239 65.3726 42.2184V53.0329H71.4038V52.201H68.8388V41.8717ZM80.2773 47.6256C79.3761 47.6256 78.4749 48.2496 78.4749 49.4974C78.4749 50.4679 79.0295 50.8839 79.4454 51.1612C79.7227 51.3692 79.8614 51.4385 79.8614 51.5771C79.8614 52.1317 79.3761 52.409 79.0295 52.4783C78.8908 52.4783 78.7522 52.4783 78.6828 52.4783C77.9203 52.4783 77.5043 52.0624 77.5043 51.3691V42.2877H81.8024V41.4558H77.5043V37.0191H76.6724V37.2964C76.6724 39.3068 75.4246 41.3865 72.721 41.3865H71.4731V42.2877H72.721C73.2062 42.2877 73.6222 42.2184 74.0381 42.149V49.2201C74.0381 51.5771 75.8406 53.2409 78.3362 53.2409C78.5442 53.2409 78.8215 53.2409 79.0988 53.1716C81.0399 52.8943 82.2184 51.5771 82.2184 49.844C82.2184 48.5962 81.3865 47.6256 80.2773 47.6256ZM97.8163 51.6464C97.8163 51.8544 97.6776 52.0624 97.6083 52.1317L97.539 52.201C96.9151 52.8943 96.1525 53.2409 95.182 53.2409C92.9636 53.2409 92.409 51.7851 92.201 50.4679C91.1612 52.201 89.0121 53.2409 87.3484 53.2409C85.338 53.2409 84.1594 51.9237 84.1594 49.7054C84.1594 48.8735 84.4367 48.0416 84.922 47.4177C86.2392 45.8232 88.1109 44.9913 90.7452 44.8527C90.8839 44.8527 90.9532 44.8527 91.0225 44.8527C91.0919 44.8527 91.2305 44.8527 91.2998 44.8527H92.0624V41.3865C92.0624 39.7227 91.7851 39.0295 90.3293 38.9601C90.052 38.9601 89.7054 38.9601 89.4281 39.0295C89.0121 39.1681 87.9723 39.4454 87.9723 40.1386C87.9723 40.2773 88.1109 40.5546 88.2496 40.7626C88.4575 41.1092 88.7348 41.5251 88.7348 42.0797C88.7348 43.0503 87.9029 43.8821 86.9324 43.8821C85.8232 43.8821 85.13 43.1196 85.13 41.8717C85.13 39.2374 88.5962 38.1976 90.4679 38.1976C93.7955 38.1976 95.5286 39.7227 95.5286 42.7036V51.7158C95.5286 52.0624 95.6672 52.2704 95.9445 52.2704C96.2912 52.2704 96.6378 52.0624 96.6378 51.6464C96.6378 51.3691 96.8457 51.0919 97.1924 51.0919C97.6083 51.0919 97.8163 51.2998 97.8163 51.6464ZM89.2894 51.3691C90.1213 51.3691 90.9532 50.8839 91.5078 49.9827C91.9931 49.2894 92.1317 48.3882 92.1317 47.9029V45.6846H91.2998C91.1612 45.6846 91.0919 45.6846 90.9532 45.6846C89.4281 45.8232 87.6256 46.5165 87.6256 49.1508C87.6256 50.5373 88.2496 51.3691 89.2894 51.3691ZM113.206 41.8717C113.206 39.0988 111.196 38.1283 109.532 38.1283C108.007 38.1283 106.066 39.0295 105.095 40.6239V38.2669H99.1334V39.0988H101.698V52.201H99.1334V53.0329H107.314V52.201H105.095V43.3969C105.095 43.3969 105.234 40.0693 107.868 40.0693C108.77 40.0693 109.74 40.6239 109.74 42.2184V53.0329H115.771V52.201H113.206V41.8717ZM130.745 51.6464C130.745 51.8544 130.607 52.0624 130.537 52.1317L130.468 52.201C129.775 52.8943 129.012 53.2409 128.111 53.2409C125.893 53.2409 125.338 51.7851 125.13 50.4679C124.09 52.201 121.941 53.2409 120.277 53.2409C118.267 53.2409 117.088 51.9237 117.088 49.7054C117.088 48.8735 117.366 48.0416 117.851 47.4177C119.168 45.8232 121.04 44.9913 123.674 44.8527C123.813 44.8527 123.882 44.8527 123.951 44.8527C124.021 44.8527 124.159 44.8527 124.229 44.8527H124.991V41.3865C124.991 39.7227 124.714 39.0295 123.258 38.9601C122.981 38.9601 122.634 38.9601 122.357 39.0295C121.941 39.1681 120.901 39.4454 120.901 40.1386C120.901 40.2773 121.04 40.5546 121.179 40.7626C121.386 41.1092 121.664 41.5251 121.664 42.0797C121.664 43.0503 120.832 43.8821 119.861 43.8821C118.752 43.8821 118.059 43.1196 118.059 41.8717C118.059 39.2374 121.525 38.1976 123.397 38.1976C126.724 38.1976 128.458 39.7227 128.458 42.7036V51.7158C128.458 52.0624 128.596 52.2704 128.873 52.2704C129.22 52.2704 129.567 52.0624 129.567 51.6464C129.567 51.3691 129.775 51.0919 130.121 51.0919C130.537 51.0919 130.745 51.2998 130.745 51.6464ZM122.288 51.3691C123.12 51.3691 123.951 50.8839 124.506 49.9827C124.991 49.2894 125.13 48.3882 125.13 47.9029V45.6846H124.298C124.159 45.6846 124.021 45.6846 123.882 45.6846C122.357 45.8232 120.555 46.5165 120.555 49.1508C120.555 50.5373 121.248 51.3691 122.288 51.3691ZM160 80C160 124.09 124.09 160 80 160C35.9099 160 0 124.159 0 80C0 35.9099 35.9099 0 80 0C124.159 0 160 35.9099 160 80ZM157.574 80C157.574 37.227 122.773 2.42634 80 2.42634C37.227 2.42634 2.42634 37.227 2.42634 80C2.42634 122.773 37.227 157.574 80 157.574C122.773 157.574 157.574 122.773 157.574 80Z" fill="#B48D49"/>
</svg>
