<svg width="130" height="130" viewBox="0 0 130 130" fill="none" xmlns="http://www.w3.org/2000/svg">
<path d="M129 65C129 100.346 100.346 129 65 129C29.6538 129 1 100.346 1 65C1 29.6538 29.6538 1 65 1C100.346 1 129 29.6538 129 65Z" fill="white" stroke="#857B5D" stroke-width="2"/>
<g clip-path="url(#clip0)">
<path fill-rule="evenodd" clip-rule="evenodd" d="M49.9519 66.3446C52.0229 65.9625 54.2474 64.5108 56.6252 62.0277C58.6963 59.8119 59.8852 57.6726 60.1154 55.5714C60.8824 58.2074 60.077 60.8052 57.7375 63.2884C55.398 65.7715 52.79 66.803 49.9519 66.3446ZM49.9135 46.0208C47.6507 46.5938 45.4646 47.9691 43.3552 50.2231C41.4759 52.2478 40.2486 54.3871 39.7501 56.7175C39.0981 54.0051 39.9418 51.4073 42.243 48.9624C44.6208 46.4028 47.1521 45.4477 49.9135 46.0208ZM54.2857 60.2703C58.0827 56.2591 58.5045 52.859 55.5514 50.1467C52.6749 47.4725 49.2999 48.1983 45.4263 52.3242C41.7827 56.2209 41.3992 59.5063 44.314 62.2187C47.1905 64.8929 50.5272 64.2434 54.2857 60.2703ZM55.4747 61.34C54.0173 62.9063 52.5599 63.976 51.0641 64.5872C49.6067 65.1985 48.226 65.3895 46.922 65.0839C45.618 64.8165 44.3907 64.167 43.3169 63.1737C41.5526 61.531 40.7856 59.6591 41.0157 57.4816C41.2458 55.3422 42.358 53.1647 44.4291 50.9871C46.5385 48.7332 48.6862 47.4343 50.7956 47.1287C52.905 46.8612 54.8227 47.4725 56.5102 49.077C58.2361 50.6815 59.0415 52.5534 58.9264 54.6928C58.8114 56.8321 57.6608 59.0479 55.4747 61.34Z" fill="#837A5D"/>
<path fill-rule="evenodd" clip-rule="evenodd" d="M73.0018 66.3446C75.0729 65.9625 77.2973 64.5108 79.6752 62.0277C81.7462 59.8119 82.9352 57.6726 83.1653 55.5714C83.9323 58.2074 83.1269 60.8052 80.7874 63.2884C78.4479 65.7715 75.8399 66.803 73.0018 66.3446ZM72.9635 46.0208C70.7006 46.5938 68.5145 47.9691 66.4051 50.2231C64.5258 52.2478 63.2986 54.3871 62.8 56.7175C62.148 54.0051 62.9917 51.4073 65.2929 48.9624C67.6708 46.4028 70.2404 45.4477 72.9635 46.0208ZM77.3357 60.2703C81.1326 56.2591 81.5545 52.859 78.6013 50.1467C75.7248 47.4725 72.3498 48.1983 68.4762 52.3242C64.8327 56.2209 64.4491 59.5063 67.364 62.2187C70.2788 64.8929 73.5771 64.2434 77.3357 60.2703ZM78.5246 61.34C77.0672 62.9063 75.6098 63.976 74.114 64.5872C72.6566 65.1985 71.2759 65.3895 69.9719 65.0839C68.6679 64.8165 67.4407 64.167 66.3668 63.1737C64.6026 61.531 63.8355 59.6591 64.0656 57.4816C64.2957 55.3422 65.408 53.1647 67.479 50.9871C69.6268 48.695 71.7362 47.4343 73.8839 47.1287C75.9933 46.8612 77.911 47.4725 79.5985 49.077C81.3244 50.6815 82.1298 52.5534 82.0147 54.6928C81.8613 56.8321 80.7107 59.0479 78.5246 61.34Z" fill="#837A5D"/>
<path fill-rule="evenodd" clip-rule="evenodd" d="M28.2058 64.9693H27.7456V45.9062H34.3039C35.4929 45.9062 36.6818 45.8298 37.8324 45.677C37.8324 45.9062 37.8324 46.3264 37.794 46.9377C37.7557 47.5107 37.7557 48.1984 37.7557 49.0006C37.7557 49.5355 37.7173 50.0703 37.679 50.6051H37.2571C37.2187 49.6119 36.9886 48.8096 36.5284 48.1602C36.0298 47.5107 35.0326 47.1669 33.4602 47.1669H29.2414V60.1176C29.2414 61.6075 29.4331 62.7154 29.8934 63.4794C30.3152 64.2435 30.9672 64.7019 31.8493 64.8929V65.1603C29.7016 65.0457 28.4743 64.9693 28.2058 64.9693Z" fill="#837A5D"/>
<path fill-rule="evenodd" clip-rule="evenodd" d="M22.4146 65.1603V64.8165C23.1433 64.6637 23.7185 64.2435 24.1788 63.6322C24.639 62.9828 24.8691 61.7985 24.8691 60.003V51.713C24.8691 50.2231 24.7924 49.1534 24.6774 48.5804C24.5623 47.9692 24.2938 47.4343 23.9103 46.9759C23.4884 46.4793 22.9898 46.1736 22.4146 46.0208V45.677L26.2882 45.9062V64.9693C24.4472 65.0075 23.1816 65.0839 22.4146 65.1603Z" fill="#837A5D"/>
<path fill-rule="evenodd" clip-rule="evenodd" d="M35.5695 51.522H35.3394C35.186 52.2478 34.8408 52.8209 34.3039 53.1647C33.7669 53.5085 32.8465 53.6995 31.5041 53.6995H29.2797V54.7692H31.3507C32.7314 54.7692 33.6902 54.922 34.2272 55.1894C34.7641 55.4568 35.1093 55.9917 35.301 56.7557H35.5312C35.4161 55.6479 35.3777 54.8456 35.3777 54.3108C35.4161 53.7759 35.4545 52.8591 35.5695 51.522Z" fill="#837A5D"/>
<path d="M102.342 55.6479C102.227 52.5153 101.498 50.1467 100.079 48.5422C98.6598 46.9377 96.7422 46.1737 94.4026 46.2501C94.1725 46.2501 90.414 46.3647 90.1838 46.3647L91.7947 47.7018C92.0248 47.6636 94.1725 47.6636 94.441 47.6254C98.468 47.5108 100.539 50.185 100.731 55.6479C100.923 61.0727 99.005 63.8615 95.0546 63.9761C94.5944 63.9761 92.2165 63.9761 91.7947 63.8997L90.1838 65.3896C90.6057 65.4278 94.5944 65.4278 95.0546 65.3896C96.5504 65.3514 97.8927 64.9312 98.9666 64.2053C100.117 63.4795 100.961 62.4098 101.536 60.9199C102.15 59.5446 102.418 57.7491 102.342 55.6479Z" fill="#837A5D"/>
<path d="M105.295 55.4187C105.18 52.0186 103.914 49.6501 101.498 48.313C102.802 49.9557 103.492 52.2861 103.607 55.3041C103.722 58.7041 103.185 61.3019 101.958 63.021C104.298 61.3401 105.41 58.8187 105.295 55.4187Z" fill="#837A5D"/>
<path fill-rule="evenodd" clip-rule="evenodd" d="M89.0332 46.4028V65.4659C88.1511 65.4659 86.8471 65.5423 85.0446 65.6951V65.3513C85.965 65.1221 86.617 64.5872 87.0005 63.785C87.3841 62.9827 87.5375 61.531 87.5375 59.4681V51.3691C87.5375 49.8028 87.3457 48.6568 86.9622 47.8927C86.5787 47.1669 85.965 46.7084 85.0446 46.4792V46.1736C86.5403 46.2882 87.8443 46.3646 89.0332 46.4028Z" fill="#837A5D"/>
<path d="M91.8331 46.4028H90.1072V65.4277H91.8331V46.4028Z" fill="#837A5D"/>
<path d="M53.672 72.457H58.236C59.3099 72.457 60.192 72.7244 60.8056 73.2211C61.4576 73.7559 61.7644 74.4436 61.7644 75.3222C61.7644 75.8953 61.611 76.3919 61.3042 76.8121C60.9974 77.2324 60.5755 77.5762 60.0386 77.7672C60.7289 77.9582 61.2275 78.302 61.6494 78.7987C62.0329 79.2571 62.2247 79.8301 62.2247 80.4796C62.2247 81.4347 61.8795 82.1987 61.1891 82.7717C60.4988 83.3448 59.5783 83.6122 58.4277 83.6122H53.672V72.457ZM58.1593 73.5267H54.8993V77.3088H58.1593C58.888 77.3088 59.4633 77.1178 59.8851 76.7739C60.307 76.4301 60.5371 75.9717 60.5371 75.3986C60.5371 74.8256 60.307 74.3672 59.8851 74.0233C59.4633 73.6795 58.888 73.5267 58.1593 73.5267ZM58.351 82.5425C59.1564 82.5425 59.8084 82.3515 60.2687 81.9695C60.7673 81.5875 60.9974 81.0908 60.9974 80.4414C60.9974 79.7919 60.7673 79.2953 60.2687 78.9133C59.7701 78.5313 59.1564 78.3402 58.351 78.3402H54.9376V82.5425H58.351Z" fill="#837A5D"/>
<path d="M66.0599 83.6122L70.739 72.457H72.2347L76.8371 83.6504H75.4947L74.0757 80.1358H68.783L67.3639 83.6504H66.0599V83.6122ZM69.2049 79.0661H73.6154L71.4293 73.6031L69.2049 79.0661Z" fill="#837A5D"/>
<path d="M81.3243 83.6122V72.457H86.1184C87.1923 72.457 88.0744 72.7627 88.7648 73.3357C89.4551 73.9087 89.7619 74.711 89.7619 75.6661C89.7619 76.3919 89.5318 77.0413 89.1099 77.5762C88.6881 78.111 88.1128 78.493 87.3841 78.6841L89.9153 83.6504H88.5346L86.1184 78.8369H82.5133V83.6504H81.3243V83.6122ZM86.0417 73.5267H82.5516V77.7672H86.0417C86.8088 77.7672 87.3841 77.5762 87.8443 77.1942C88.3045 76.8121 88.5346 76.2773 88.5346 75.6661C88.5346 75.0166 88.3045 74.52 87.8443 74.1379C87.3841 73.7177 86.8088 73.5267 86.0417 73.5267Z" fill="#837A5D"/>
<path d="M47.6123 83.0392L46.8836 83.8796C46.5768 83.6504 46.27 83.4212 45.9632 83.1538C45.6564 82.8864 45.3112 82.6189 45.0044 82.3515C44.5441 82.8482 44.0072 83.192 43.4319 83.4594C42.8183 83.7268 42.1663 83.8414 41.4759 83.8414C40.3637 83.8414 39.4816 83.574 38.8296 83.001C38.1776 82.4279 37.8324 81.6639 37.8324 80.747C37.8324 80.0976 37.9858 79.5627 38.331 79.1043C38.6762 78.6459 39.2131 78.1874 39.9802 77.7672L40.287 77.5762C39.9034 77.1178 39.6733 76.6975 39.5199 76.3155C39.3665 75.9335 39.2898 75.5132 39.2898 75.093C39.2898 74.3672 39.5583 73.7559 40.0569 73.2593C40.5554 72.7627 41.2074 72.5334 41.9745 72.5334C42.7032 72.5334 43.3168 72.7627 43.7771 73.1829C44.2373 73.6031 44.4674 74.138 44.4674 74.8256C44.4674 75.3222 44.314 75.8189 44.0455 76.2009C43.7387 76.6211 43.3168 77.0032 42.7032 77.347L41.8594 77.7672C42.2813 78.2638 42.7799 78.7605 43.2785 79.2571C43.7771 79.7537 44.314 80.2504 44.8509 80.747C45.1194 80.3268 45.3495 79.8683 45.5029 79.3717C45.6947 78.8751 45.8098 78.3402 45.9248 77.8054L46.9987 77.9964C46.8453 78.6841 46.6919 79.2953 46.4618 79.8683C46.2316 80.4414 45.9632 80.9762 45.6564 81.4729C46.0015 81.7785 46.3467 82.0459 46.6535 82.3133C46.9987 82.5425 47.3055 82.8099 47.6123 83.0392ZM38.9063 80.6706C38.9063 81.32 39.1364 81.8549 39.635 82.2369C40.1336 82.6189 40.7472 82.8099 41.5143 82.8099C42.0128 82.8099 42.5114 82.6953 42.9717 82.5043C43.4319 82.3133 43.8538 82.0077 44.199 81.6257C43.5853 81.0908 43.01 80.5178 42.4347 79.9448C41.8594 79.3717 41.3225 78.7987 40.8623 78.2638L40.5171 78.4549C39.9418 78.7987 39.5199 79.1043 39.2898 79.4481C39.0213 79.8301 38.9063 80.2122 38.9063 80.6706ZM40.3637 75.0548C40.3637 75.3986 40.4404 75.7043 40.5554 76.0099C40.6705 76.3155 40.9006 76.6593 41.2458 77.0414L42.1663 76.5065C42.5498 76.2773 42.8566 76.0099 43.0484 75.7425C43.2401 75.475 43.3552 75.1312 43.3552 74.7874C43.3552 74.4054 43.2018 74.0615 42.9333 73.8323C42.6648 73.5649 42.3197 73.4503 41.9361 73.4503C41.4759 73.4503 41.1307 73.6031 40.8239 73.9087C40.4787 74.1762 40.3637 74.5582 40.3637 75.0548Z" fill="#837A5D"/>
</g>
<defs>
<clipPath id="clip0">
<rect width="82.8803" height="38.2026" fill="white" transform="translate(22.4146 45.677)"/>
</clipPath>
</defs>
</svg>
