<svg width="320" height="320" viewBox="0 0 320 320" fill="none" xmlns="http://www.w3.org/2000/svg">
<circle cx="160" cy="160" r="160" fill="#1E3866"/>
<path d="M83.889 98.3331H79.0557V110H78.7223C78.4557 109.022 77.7668 108.533 76.6557 108.533C75.9446 108.533 75.3112 108.678 74.7557 108.966C73.6001 109.566 72.4446 109.966 71.289 110.166C70.689 110.278 70.0446 110.333 69.3557 110.333C68.4668 110.333 67.6112 110.233 66.789 110.033C63.989 109.344 61.6668 107.755 59.8223 105.266C57.9779 102.778 57.0557 99.9109 57.0557 96.6664C57.0557 93.1553 58.189 90.0331 60.4557 87.2997C62.8557 84.4331 65.7668 82.9997 69.189 82.9997C70.4112 82.9997 71.589 83.1997 72.7223 83.5997C73.8557 83.9997 74.5001 84.1997 74.6557 84.1997C75.5668 84.1997 76.1001 83.9109 76.2557 83.3331H76.5223V91.4664H76.1557C76.1557 89.222 75.4779 87.3109 74.1223 85.7331C72.7668 84.1331 71.1334 83.3331 69.2223 83.3331C68.4446 83.3331 67.7557 83.3997 67.1557 83.5331C65.6668 83.8664 64.6223 84.6997 64.0223 86.0331C63.6223 86.9442 63.3334 88.5331 63.1557 90.7997C63.0223 92.422 62.9557 94.3775 62.9557 96.6664C62.9557 98.8442 63.0223 100.8 63.1557 102.533C63.3334 104.733 63.589 106.266 63.9223 107.133C64.4557 108.466 65.4223 109.322 66.8223 109.7C67.5334 109.9 68.4001 110 69.4223 110C70.1557 110 70.7557 109.955 71.2223 109.866C72.6001 109.6 73.389 108.766 73.589 107.366C73.6779 106.722 73.7223 106.111 73.7223 105.533V98.3331H68.889V97.9997H83.889V98.3331ZM76.189 89.0664V84.0331C75.8334 84.3664 75.3223 84.5331 74.6557 84.5331C74.3446 84.5331 73.9668 84.4553 73.5223 84.2997C73.1001 84.122 72.7001 83.9553 72.3223 83.7997C74.2557 84.8664 75.5446 86.622 76.189 89.0664ZM78.7223 109.266V98.3331H74.0557V105.533C74.0557 107.422 73.7223 108.7 73.0557 109.366C73.589 109.166 74.1001 108.933 74.589 108.666C75.189 108.355 75.8779 108.2 76.6557 108.2C77.2779 108.2 77.7779 108.333 78.1557 108.6C78.4446 108.8 78.6334 109.022 78.7223 109.266ZM64.889 84.2997C62.6668 85.322 60.8557 86.9886 59.4557 89.2997C58.0779 91.6109 57.389 94.0775 57.389 96.6997C57.389 99.4331 58.0779 101.933 59.4557 104.2C60.8112 106.378 62.6001 107.989 64.8223 109.033C64.1334 108.411 63.6334 107.5 63.3223 106.3C63.1223 105.5 62.9557 104.255 62.8223 102.566C62.689 100.878 62.6223 98.922 62.6223 96.6997C62.6223 94.3442 62.689 92.3775 62.8223 90.7997C62.9779 89.0886 63.1557 87.8331 63.3557 87.0331C63.6668 85.8331 64.1779 84.922 64.889 84.2997Z" fill="white"/>
<path d="M112.009 107.866C112.009 108.111 111.898 108.344 111.676 108.566C110.52 109.744 109.154 110.333 107.576 110.333C105.998 110.333 104.654 109.778 103.543 108.666C102.432 107.555 101.876 106.211 101.876 104.633V99.8664C101.876 97.7553 100.809 96.6997 98.676 96.6997H94.0426V109.666H98.876V110H83.876V109.666H88.7093V83.6664H83.876V83.3331H97.4093C100.409 83.3331 102.743 84.022 104.409 85.3997C105.854 86.622 106.576 88.1442 106.576 89.9664C106.576 91.4553 105.998 92.7997 104.843 93.9997C103.687 95.1997 102.12 95.9775 100.143 96.3331L99.4426 96.3664L99.6093 96.3997C104.676 96.5331 107.209 98.8109 107.209 103.233V108.1C107.209 108.589 107.376 108.989 107.709 109.3C108.065 109.589 108.498 109.733 109.009 109.733C109.52 109.733 110.009 109.555 110.476 109.2C110.965 108.822 111.209 108.389 111.209 107.9C111.209 107.633 111.343 107.5 111.609 107.5C111.876 107.5 112.009 107.622 112.009 107.866ZM106.243 89.9664C106.243 88.4109 105.654 87.0775 104.476 85.9664C103.143 84.6997 101.243 83.9553 98.776 83.7331C99.9315 84.1109 100.709 84.8442 101.109 85.9331C101.443 86.822 101.609 88.1997 101.609 90.0664C101.609 90.7553 101.543 91.7886 101.409 93.1664C101.298 94.3664 100.732 95.322 99.7093 96.0331L100.109 95.9997C101.998 95.6664 103.509 94.9109 104.643 93.7331C105.709 92.622 106.243 91.3664 106.243 89.9664ZM101.276 90.0664C101.276 87.6886 100.976 86.0775 100.376 85.2331C99.6204 84.1886 98.076 83.6664 95.7426 83.6664H94.0426V96.3331H97.5093C98.4871 96.3331 99.3093 96.0109 99.976 95.3664C100.643 94.722 101.009 93.9775 101.076 93.1331C101.209 91.6664 101.276 90.6442 101.276 90.0664ZM108.243 109.966C107.332 109.655 106.876 109.033 106.876 108.1V103.233C106.876 99.2997 104.843 97.1553 100.776 96.7997C101.732 97.3109 102.209 98.3331 102.209 99.8664V104.633C102.209 106.122 102.732 107.389 103.776 108.433C104.82 109.478 106.087 110 107.576 110C107.865 110 108.087 109.989 108.243 109.966ZM93.7093 109.666V83.6664H89.0426V109.666H93.7093Z" fill="white"/>
<path d="M134.183 110H111.35V109.666H116.183V83.6664H111.35V83.3331H133.017V91.6997H132.717C132.717 89.4775 131.928 87.5886 130.35 86.0331C128.772 84.4553 126.872 83.6664 124.65 83.6664H121.517V96.4997H122.283C123.661 96.4997 124.805 96.0331 125.717 95.0997C126.628 94.1664 127.083 93.0775 127.083 91.8331H127.35V101.4H127.083C127.083 100.2 126.628 99.1442 125.717 98.2331C124.805 97.2997 123.661 96.8331 122.283 96.8331H121.517V109.666H124.45C127.05 109.666 129.261 108.755 131.083 106.933C132.928 105.089 133.85 102.855 133.85 100.233H134.183V110ZM132.683 89.2331V83.6664H126.95C128.328 84.0442 129.517 84.7331 130.517 85.7331C131.539 86.7109 132.261 87.8775 132.683 89.2331ZM127.017 99.5331V93.7664C126.35 95.2997 125.217 96.2664 123.617 96.6664C125.194 97.0664 126.328 98.022 127.017 99.5331ZM133.85 109.666V102.8C133.405 104.466 132.561 105.922 131.317 107.166C130.094 108.389 128.65 109.222 126.983 109.666H133.85ZM121.183 109.666V83.6664H116.517V109.666H121.183Z" fill="white"/>
<path d="M164.678 110H148.811V109.666H153.978L150.311 100.166H142.011L138.378 109.666H143.211V110H133.178V109.666H138.011L148.611 82.0664H148.945L159.511 109.666H164.678V110ZM159.178 109.666L148.778 82.5664L146.345 88.8997L154.345 109.666H159.178ZM150.178 99.8331L146.178 89.3664L142.145 99.8331H150.178Z" fill="white"/>
<path d="M186.024 92.4331H185.691C185.691 89.9664 184.936 87.8886 183.424 86.1997C181.936 84.5109 180.002 83.6664 177.624 83.6664H176.691V109.666H181.524V110H166.524V109.666H171.358V83.6664H170.424C168.047 83.6664 166.102 84.5109 164.591 86.1997C163.08 87.8886 162.324 89.9664 162.324 92.4331H162.024V83.3331H186.024V92.4331ZM185.691 89.7664V83.6664H180.024C182.958 84.5109 184.847 86.5442 185.691 89.7664ZM168.024 83.6664H162.358V89.6664C163.224 86.5331 165.113 84.5331 168.024 83.6664ZM176.358 109.666V83.6664H171.691V109.666H176.358Z" fill="white"/>
<path d="M80.0557 131.766C80.0557 127.8 76.8557 123.333 70.8557 123.333H55.5557V123.666H60.389V149.666H55.5557V150H70.5557V149.666H65.7223V138.633C67.1557 139.533 69.189 139.766 70.889 139.766C77.089 139.766 80.0557 135.8 80.0557 131.766ZM74.3223 131.933C74.3223 135 74.289 139.4 70.489 139.4C69.289 139.4 67.3223 139.266 65.7223 138.2V123.666H68.889C73.0223 123.666 74.3223 126.2 74.3223 131.766V131.933Z" fill="white"/>
<path d="M102.567 150V140.233H102.234C102.234 145.466 98.0341 149.666 92.8341 149.666H90.2341V123.666H95.0674V123.333H80.0674V123.666H84.9007V149.666H80.0674V150H102.567Z" fill="white"/>
<path d="M133.07 150V149.666H127.903L117.337 122.066H117.003L106.403 149.666H101.57V150H111.603V149.666H106.77L110.403 140.166H118.703L122.37 149.666H117.203V150H133.07ZM118.57 139.833H110.537L114.57 129.366L118.57 139.833Z" fill="white"/>
<path d="M152.977 150V141.533H152.677C151.877 146.3 149.81 149.066 146.51 149.8C145.877 149.933 145.21 150 144.543 150H144.476C143.943 150 143.41 149.966 142.91 149.866C139.377 149.266 138.943 146.233 138.677 142.533C138.51 140.533 138.477 138.666 138.477 136.666C138.477 134.666 138.51 132.8 138.677 130.8C138.943 127.1 139.41 124.233 142.677 123.533C143.343 123.4 144.043 123.333 144.743 123.333C148.543 123.333 151.677 126.933 151.677 131.466H152.043V123.333H151.777C151.61 123.966 150.943 124.2 150.177 124.2C149.177 124.2 147.843 123 144.71 123C144.01 123 143.343 123.066 142.643 123.2C136.71 124.433 132.576 130.5 132.576 136.666C132.576 142.8 136.643 149.233 142.877 150.2C143.377 150.3 143.843 150.333 144.476 150.333H144.543C145.977 150.333 147.21 150.033 148.443 149.633C149.243 149.366 150.21 148.866 151.11 148.866C151.777 148.866 152.41 149.2 152.643 149.866V150H152.977Z" fill="white"/>
<path d="M177.478 150V140.233H177.144C177.144 145.466 172.944 149.666 167.744 149.666H164.811V136.833H165.578C168.411 136.833 170.378 139.1 170.378 141.4H170.644V131.833H170.378C170.378 134.266 168.411 136.5 165.578 136.5H164.811V123.666H167.944C172.378 123.666 176.011 127.266 176.011 131.7H176.311V123.333H154.644V123.666H159.478V149.666H154.644V150H177.478Z" fill="white"/>
<path d="M199.539 141.666C199.539 138.866 197.739 136.466 195.239 135.3L188.972 132.466C186.906 131.566 184.539 129.833 184.539 127.266C184.539 125.166 186.339 123.833 188.306 123.466C188.672 123.366 189.139 123.333 189.639 123.333C193.739 123.366 195.439 125.666 195.872 129.633H196.239V123.333H195.972C195.739 123.833 195.272 123.966 194.772 123.966C194.272 123.966 193.739 123.833 193.439 123.7C192.272 123.2 190.839 123 189.772 123H189.506C189.106 123 188.706 123.033 188.306 123.1C184.672 123.733 182.006 126.366 182.006 130.366C182.006 133.466 183.639 136 186.406 137.233L192.706 140.066C194.606 140.966 195.639 142.866 195.639 144.766C195.639 147.133 194.272 149.366 190.972 149.9C190.472 149.966 189.939 150 189.406 150C188.772 150 188.206 149.933 187.572 149.833C184.206 149.2 182.172 146.633 181.272 141.533H180.972V150H181.272C181.406 149.233 182.139 148.866 182.839 148.866C183.739 148.866 184.706 149.366 185.506 149.633C186.206 149.866 186.939 150.066 187.706 150.2C188.239 150.3 188.772 150.333 189.406 150.333C190.006 150.333 190.572 150.3 191.072 150.2C195.506 149.566 199.539 146.366 199.539 141.666Z" fill="white"/>
<path d="M77.7223 172.433V163.333H55.5557V163.666H60.389V189.666H55.5557V190H70.5557V189.666H65.7223V176.833H66.489C69.3223 176.833 71.289 179.1 71.289 181.4H71.5557V171.833H71.289C71.289 174.266 69.3223 176.5 66.489 176.5H65.7223V163.666H68.6557C73.489 163.666 77.389 167.6 77.389 172.433H77.7223Z" fill="white"/>
<path d="M104.933 176.666C104.933 170.133 100.799 164.633 95.1994 163.3C94.3661 163.1 93.4994 163 92.5994 163C91.6994 163 90.8327 163.1 89.9327 163.3C84.3994 164.633 80.2327 170.133 80.2327 176.666C80.2327 183.2 84.3661 188.7 89.9661 190.033C90.7994 190.233 91.6661 190.333 92.5994 190.333C93.4994 190.333 94.3661 190.233 95.1994 190.033C100.799 188.7 104.933 183.2 104.933 176.666ZM99.0327 176.666C99.0327 178.333 98.9327 180.933 98.8327 182.533C98.5661 186.133 98.1994 188.8 95.1661 189.7C94.3328 189.933 93.4994 190 92.5994 190C91.6994 190 90.8994 189.933 89.9994 189.7C86.8994 188.8 86.5994 186.133 86.3327 182.533C86.1661 180.966 86.1327 178.333 86.1327 176.666C86.1327 175 86.1661 172.366 86.3327 170.8C86.5994 167.2 86.8994 164.533 89.9994 163.633C90.8994 163.4 91.7328 163.333 92.6328 163.333C93.4661 163.333 94.3328 163.4 95.1661 163.633C98.1994 164.533 98.5661 167.2 98.8327 170.8C98.9327 172.4 99.0327 175 99.0327 176.666Z" fill="white"/>
<path d="M134.568 187.866C134.568 187.633 134.435 187.5 134.168 187.5C133.935 187.5 133.768 187.666 133.768 187.9C133.768 188.966 132.501 189.733 131.568 189.733C130.535 189.733 129.768 189.133 129.768 188.1V183.233C129.768 179.933 128.168 176.566 122.168 176.4L122.001 176.366L122.701 176.333C126.768 175.633 129.135 172.833 129.135 169.966C129.135 166.633 126.368 163.333 119.968 163.333H106.435V163.666H111.268V189.666H106.435V190H121.435V189.666H116.601V176.7H121.235C123.835 176.7 124.435 178.1 124.435 179.866V184.633C124.435 187.8 126.968 190.333 130.135 190.333C131.735 190.333 133.101 189.733 134.235 188.566C134.468 188.333 134.568 188.1 134.568 187.866ZM123.835 170.066C123.835 170.833 123.735 172.1 123.635 173.133C123.468 174.7 122.135 176.333 120.068 176.333H116.601V163.666H118.301C123.268 163.666 123.835 165.7 123.835 170.066Z" fill="white"/>
<path d="M168.915 178.333H164.082V190H163.748C163.482 189.022 162.793 188.533 161.682 188.533C160.971 188.533 160.337 188.678 159.782 188.966C158.626 189.566 157.471 189.966 156.315 190.166C155.715 190.278 155.071 190.333 154.382 190.333C153.493 190.333 152.637 190.233 151.815 190.033C149.015 189.344 146.693 187.755 144.848 185.266C143.004 182.778 142.082 179.911 142.082 176.666C142.082 173.155 143.215 170.033 145.482 167.3C147.882 164.433 150.793 163 154.215 163C155.437 163 156.615 163.2 157.748 163.6C158.882 164 159.526 164.2 159.682 164.2C160.593 164.2 161.126 163.911 161.282 163.333H161.548V171.466H161.182C161.182 169.222 160.504 167.311 159.148 165.733C157.793 164.133 156.159 163.333 154.248 163.333C153.471 163.333 152.782 163.4 152.182 163.533C150.693 163.866 149.648 164.7 149.048 166.033C148.648 166.944 148.359 168.533 148.182 170.8C148.048 172.422 147.982 174.378 147.982 176.666C147.982 178.844 148.048 180.8 148.182 182.533C148.359 184.733 148.615 186.266 148.948 187.133C149.482 188.466 150.448 189.322 151.848 189.7C152.559 189.9 153.426 190 154.448 190C155.182 190 155.782 189.955 156.248 189.866C157.626 189.6 158.415 188.766 158.615 187.366C158.704 186.722 158.748 186.111 158.748 185.533V178.333H153.915V178H168.915V178.333ZM161.215 169.066V164.033C160.859 164.366 160.348 164.533 159.682 164.533C159.371 164.533 158.993 164.455 158.548 164.3C158.126 164.122 157.726 163.955 157.348 163.8C159.282 164.866 160.571 166.622 161.215 169.066ZM163.748 189.266V178.333H159.082V185.533C159.082 187.422 158.748 188.7 158.082 189.366C158.615 189.166 159.126 188.933 159.615 188.666C160.215 188.355 160.904 188.2 161.682 188.2C162.304 188.2 162.804 188.333 163.182 188.6C163.471 188.8 163.659 189.022 163.748 189.266ZM149.915 164.3C147.693 165.322 145.882 166.989 144.482 169.3C143.104 171.611 142.415 174.078 142.415 176.7C142.415 179.433 143.104 181.933 144.482 184.2C145.837 186.378 147.626 187.989 149.848 189.033C149.159 188.411 148.659 187.5 148.348 186.3C148.148 185.5 147.982 184.255 147.848 182.566C147.715 180.878 147.648 178.922 147.648 176.7C147.648 174.344 147.715 172.378 147.848 170.8C148.004 169.089 148.182 167.833 148.382 167.033C148.693 165.833 149.204 164.922 149.915 164.3Z" fill="white"/>
<path d="M197.035 187.866C197.035 188.111 196.924 188.344 196.702 188.566C195.546 189.744 194.18 190.333 192.602 190.333C191.024 190.333 189.68 189.778 188.569 188.666C187.458 187.555 186.902 186.211 186.902 184.633V179.866C186.902 177.755 185.835 176.7 183.702 176.7H179.069V189.666H183.902V190H168.902V189.666H173.735V163.666H168.902V163.333H182.435C185.435 163.333 187.769 164.022 189.435 165.4C190.88 166.622 191.602 168.144 191.602 169.966C191.602 171.455 191.024 172.8 189.869 174C188.713 175.2 187.146 175.978 185.169 176.333L184.469 176.366L184.635 176.4C189.702 176.533 192.235 178.811 192.235 183.233V188.1C192.235 188.589 192.402 188.989 192.735 189.3C193.091 189.589 193.524 189.733 194.035 189.733C194.546 189.733 195.035 189.555 195.502 189.2C195.991 188.822 196.235 188.389 196.235 187.9C196.235 187.633 196.369 187.5 196.635 187.5C196.902 187.5 197.035 187.622 197.035 187.866ZM191.269 169.966C191.269 168.411 190.68 167.078 189.502 165.966C188.169 164.7 186.269 163.955 183.802 163.733C184.958 164.111 185.735 164.844 186.135 165.933C186.469 166.822 186.635 168.2 186.635 170.066C186.635 170.755 186.569 171.789 186.435 173.166C186.324 174.366 185.758 175.322 184.735 176.033L185.135 176C187.024 175.666 188.535 174.911 189.669 173.733C190.735 172.622 191.269 171.366 191.269 169.966ZM186.302 170.066C186.302 167.689 186.002 166.078 185.402 165.233C184.646 164.189 183.102 163.666 180.769 163.666H179.069V176.333H182.535C183.513 176.333 184.335 176.011 185.002 175.366C185.669 174.722 186.035 173.978 186.102 173.133C186.235 171.666 186.302 170.644 186.302 170.066ZM193.269 189.966C192.358 189.655 191.902 189.033 191.902 188.1V183.233C191.902 179.3 189.869 177.155 185.802 176.8C186.758 177.311 187.235 178.333 187.235 179.866V184.633C187.235 186.122 187.758 187.389 188.802 188.433C189.846 189.478 191.113 190 192.602 190C192.891 190 193.113 189.989 193.269 189.966ZM178.735 189.666V163.666H174.069V189.666H178.735Z" fill="white"/>
<path d="M219.209 190H196.376V189.666H201.209V163.666H196.376V163.333H218.043V171.7H217.743C217.743 169.478 216.954 167.589 215.376 166.033C213.798 164.455 211.898 163.666 209.676 163.666H206.543V176.5H207.309C208.687 176.5 209.832 176.033 210.743 175.1C211.654 174.166 212.109 173.078 212.109 171.833H212.376V181.4H212.109C212.109 180.2 211.654 179.144 210.743 178.233C209.832 177.3 208.687 176.833 207.309 176.833H206.543V189.666H209.476C212.076 189.666 214.287 188.755 216.109 186.933C217.954 185.089 218.876 182.855 218.876 180.233H219.209V190ZM217.709 169.233V163.666H211.976C213.354 164.044 214.543 164.733 215.543 165.733C216.565 166.711 217.287 167.878 217.709 169.233ZM212.043 179.533V173.766C211.376 175.3 210.243 176.266 208.643 176.666C210.22 177.066 211.354 178.022 212.043 179.533ZM218.876 189.666V182.8C218.432 184.466 217.587 185.922 216.343 187.166C215.12 188.389 213.676 189.222 212.009 189.666H218.876ZM206.209 189.666V163.666H201.543V189.666H206.209Z" fill="white"/>
<path d="M249.704 190H233.837V189.666H239.004L235.337 180.166H227.037L223.404 189.666H228.237V190H218.204V189.666H223.037L233.637 162.066H233.971L244.537 189.666H249.704V190ZM244.204 189.666L233.804 162.566L231.371 168.9L239.371 189.666H244.204ZM235.204 179.833L231.204 169.366L227.171 179.833H235.204Z" fill="white"/>
<path d="M271.05 172.433H270.717C270.717 169.966 269.962 167.889 268.45 166.2C266.962 164.511 265.028 163.666 262.65 163.666H261.717V189.666H266.55V190H251.55V189.666H256.384V163.666H255.45C253.073 163.666 251.128 164.511 249.617 166.2C248.106 167.889 247.35 169.966 247.35 172.433H247.05V163.333H271.05V172.433ZM270.717 169.766V163.666H265.05C267.984 164.511 269.873 166.544 270.717 169.766ZM253.05 163.666H247.384V169.666C248.25 166.533 250.139 164.533 253.05 163.666ZM261.384 189.666V163.666H256.717V189.666H261.384Z" fill="white"/>
<path d="M88.689 230V229.666H83.8557V203.666H88.689V203.333H78.5223L72.2223 221.8L65.889 203.333H55.5557V203.666H60.3557V229.666H55.5557V230H65.5557V229.666H60.689V204.733L69.4557 230H69.789L78.5223 204.366V229.666H73.689V230H88.689Z" fill="white"/>
<path d="M114.894 216.666C114.894 210.133 110.76 204.633 105.16 203.3C104.327 203.1 103.46 203 102.56 203C101.66 203 100.794 203.1 99.8937 203.3C94.3604 204.633 90.1937 210.133 90.1937 216.666C90.1937 223.2 94.327 228.7 99.927 230.033C100.76 230.233 101.627 230.333 102.56 230.333C103.46 230.333 104.327 230.233 105.16 230.033C110.76 228.7 114.894 223.2 114.894 216.666ZM108.994 216.666C108.994 218.333 108.894 220.933 108.794 222.533C108.527 226.133 108.16 228.8 105.127 229.7C104.294 229.933 103.46 230 102.56 230C101.66 230 100.86 229.933 99.9604 229.7C96.8604 228.8 96.5604 226.133 96.2937 222.533C96.127 220.966 96.0937 218.333 96.0937 216.666C96.0937 215 96.127 212.366 96.2937 210.8C96.5604 207.2 96.8604 204.533 99.9604 203.633C100.86 203.4 101.694 203.333 102.594 203.333C103.427 203.333 104.294 203.4 105.127 203.633C108.16 204.533 108.527 207.2 108.794 210.8C108.894 212.4 108.994 215 108.994 216.666Z" fill="white"/>
<path d="M149.529 230V229.666H144.696V203.666H149.529V203.333H139.362L133.062 221.8L126.729 203.333H116.396V203.666H121.196V229.666H116.396V230H126.396V229.666H121.529V204.733L130.296 230H130.629L139.362 204.366V229.666H134.529V230H149.529Z" fill="white"/>
<path d="M172.367 230V220.233H172.034C172.034 225.466 167.834 229.666 162.634 229.666H159.7V216.833H160.467C163.3 216.833 165.267 219.1 165.267 221.4H165.534V211.833H165.267C165.267 214.266 163.3 216.5 160.467 216.5H159.7V203.666H162.834C167.267 203.666 170.9 207.266 170.9 211.7H171.2V203.333H149.534V203.666H154.367V229.666H149.534V230H172.367Z" fill="white"/>
<path d="M200.695 203.666V203.333H190.695V203.666H195.562V221.3L184.095 203.333H173.362V203.666H178.162V229.666H173.362V230H183.362V229.666H178.495V203.633L195.362 230H195.895V203.666H200.695Z" fill="white"/>
<path d="M225.705 212.433V203.333H201.705V212.433H202.005C202.005 207.6 205.272 203.666 210.105 203.666H211.039V229.666H206.205V230H221.205V229.666H216.372V203.666H217.305C222.139 203.666 225.372 207.6 225.372 212.433H225.705Z" fill="white"/>
<path d="M247.781 221.666C247.781 218.866 245.981 216.466 243.481 215.3L237.215 212.466C235.148 211.566 232.781 209.833 232.781 207.266C232.781 205.166 234.581 203.833 236.548 203.466C236.915 203.366 237.381 203.333 237.881 203.333C241.981 203.366 243.681 205.666 244.115 209.633H244.481V203.333H244.215C243.981 203.833 243.515 203.966 243.015 203.966C242.515 203.966 241.981 203.833 241.681 203.7C240.515 203.2 239.081 203 238.015 203H237.748C237.348 203 236.948 203.033 236.548 203.1C232.915 203.733 230.248 206.366 230.248 210.366C230.248 213.466 231.881 216 234.648 217.233L240.948 220.066C242.848 220.966 243.881 222.866 243.881 224.766C243.881 227.133 242.515 229.366 239.215 229.9C238.715 229.966 238.181 230 237.648 230C237.015 230 236.448 229.933 235.815 229.833C232.448 229.2 230.415 226.633 229.515 221.533H229.215V230H229.515C229.648 229.233 230.381 228.866 231.081 228.866C231.981 228.866 232.948 229.366 233.748 229.633C234.448 229.866 235.181 230.066 235.948 230.2C236.481 230.3 237.015 230.333 237.648 230.333C238.248 230.333 238.815 230.3 239.315 230.2C243.748 229.566 247.781 226.366 247.781 221.666Z" fill="white"/>
</svg>
