<svg width="162" height="33" viewBox="0 0 162 33" fill="none" xmlns="http://www.w3.org/2000/svg">
<g clip-path="url(#clip0)">
<path d="M88.3026 32.4945C89.6444 32.4945 90.7798 32.444 91.9152 32.3935C93.1538 32.3429 94.3924 32.1913 95.631 31.9892C96.56 31.8376 97.5405 31.6354 98.4179 31.1806C98.6759 31.029 98.934 30.8774 98.934 30.5742C98.934 30.2709 98.6759 30.1193 98.4179 29.9677C97.747 29.5634 96.9728 29.4118 96.1987 29.2602C94.3924 28.8559 92.5345 28.8054 90.6766 28.6538C89.7476 28.6033 88.8703 28.6033 87.9413 28.6033C86.5479 28.6033 85.206 28.7043 83.8126 28.8054C82.9353 28.9065 82.0579 28.957 81.2322 29.1592C80.2516 29.3613 79.3226 29.5634 78.3421 29.4118C77.4647 29.3108 76.5358 29.1592 75.6584 29.1086C74.7811 29.0581 73.9037 28.957 73.0264 29.0075C72.4587 29.0581 71.891 29.0581 71.3233 29.0581C70.962 29.0581 70.6008 29.1086 70.2395 29.1592C69.3621 29.2602 68.5364 29.4118 67.7107 29.614C67.2978 29.715 66.8333 29.8161 66.5237 30.0688C66.214 30.3215 66.214 30.4731 66.4721 30.7258C66.6269 30.8774 66.8849 31.029 67.0914 31.0795C68.2268 31.4333 69.3621 31.6354 70.6008 31.686C71.1168 31.686 71.6329 31.686 72.149 31.7365C73.2328 31.8376 74.265 31.787 75.3488 31.686C76.1745 31.6354 77.0002 31.4838 77.7744 31.4333C78.6001 31.3827 79.4259 31.4838 80.3032 31.6354C81.387 31.8881 82.4708 32.0397 83.5546 32.1408C84.5351 32.1913 85.5157 32.2924 86.4963 32.3429C87.1156 32.4945 87.8381 32.444 88.3026 32.4945ZM35.5068 21.0734C35.7648 22.9432 35.9196 24.7625 36.0745 26.6324C36.1261 27.3904 36.2293 28.1484 36.2809 28.9065C36.2809 29.1592 36.3325 29.3108 36.6422 29.2602C36.9518 29.2097 37.2615 29.2602 37.6227 29.2602C37.8292 29.2602 37.8808 29.2097 37.8292 29.0075C37.726 28.5022 37.6743 27.9463 37.6227 27.4409C37.3647 25.2679 37.1067 23.1454 36.8486 20.9723C36.7454 20.0627 36.6422 19.1025 36.539 18.1928C36.539 18.1423 36.5906 17.9907 36.4357 17.9907C36.3325 17.9907 36.2809 18.0412 36.2293 18.0918C36.1777 18.1423 36.1777 18.2434 36.1261 18.2939C34.5778 21.0229 33.0812 23.7518 31.5845 26.4807C31.5329 26.5818 31.4813 26.6829 31.3781 26.8345C31.3265 26.7334 31.2749 26.6324 31.2232 26.5818C29.675 23.8023 28.1783 21.0734 26.7849 18.2434C26.7333 18.0918 26.6817 17.9402 26.4752 17.9907C26.3204 18.0412 26.372 18.1928 26.3204 18.2939C26.0624 20.8713 25.7011 23.4486 25.2882 26.0259C25.1334 27.0366 24.9786 27.9968 24.8238 29.0075C24.7721 29.2097 24.8238 29.2602 25.0302 29.2602C25.2882 29.2602 25.4947 29.2602 25.7527 29.2602C25.9075 29.2602 25.9075 29.2097 25.9075 29.1086C25.9592 27.3399 26.1656 25.6216 26.372 23.8529C26.4752 22.9432 26.5785 21.983 26.6817 21.0734C26.7849 21.1239 26.8365 21.225 26.8881 21.3261C28.1783 23.9034 29.5718 26.4302 30.862 29.0075C30.9136 29.1086 30.9136 29.2602 31.0684 29.2602C31.1716 29.2602 31.2232 29.1086 31.2232 29.0581C32.4102 26.3797 33.8553 23.8529 35.3003 21.2755C35.352 21.1745 35.352 21.0734 35.5068 21.0734ZM111.32 23.3475C111.939 23.1454 112.559 22.9432 113.075 22.5389C113.901 21.882 114.107 20.9723 113.952 20.0121C113.797 19.1025 113.075 18.6477 112.197 18.395C111.475 18.1928 110.701 18.1928 109.927 18.2434C109.049 18.2939 108.224 18.3445 107.346 18.2434C107.037 18.1928 106.985 18.2939 107.037 18.5466C107.191 20.9218 107.191 23.2464 107.14 25.6216C107.14 26.7334 107.088 27.8958 107.037 29.0075C107.037 29.2602 107.088 29.3108 107.346 29.3108C107.707 29.2602 108.069 29.3108 108.43 29.3108C109.359 29.3108 110.34 29.4118 111.268 29.2602C112.92 29.0075 114.571 28.0474 114.365 25.8743C114.313 24.8636 113.797 24.1561 112.868 23.7518C112.352 23.4991 111.836 23.3981 111.32 23.3475ZM143.369 23.8529C143.524 23.8023 143.627 23.8023 143.73 23.7518C144.763 23.4991 145.692 23.0948 146.311 22.1852C147.343 20.7196 146.62 18.8498 144.866 18.3445C144.195 18.1423 143.472 18.0918 142.801 18.1423C141.821 18.1928 140.789 18.2434 139.808 18.1423C139.55 18.1423 139.55 18.1928 139.55 18.395C139.602 19.052 139.602 19.7089 139.653 20.3154C139.705 23.1959 139.705 26.0765 139.55 28.9065C139.55 29.1592 139.602 29.1592 139.808 29.1592C140.169 29.1592 140.531 29.1592 140.892 29.1592C141.098 29.1592 141.15 29.1086 141.15 28.9065C141.098 28.0979 141.047 27.2893 141.047 26.5313C141.047 25.7227 141.047 24.9141 141.047 24.1056C141.047 24.0045 140.995 23.8529 141.202 23.8529C141.46 23.8529 141.718 23.8023 141.924 24.1056C142.079 24.3077 142.234 24.4593 142.389 24.6109C143.576 26.0259 144.711 27.4409 145.795 28.957C145.846 29.0581 145.898 29.2097 146.104 29.2097C146.672 29.2097 147.291 29.2097 147.911 29.2097C146.311 27.4915 144.866 25.6722 143.369 23.8529ZM62.1369 26.4807C62.1885 25.7732 62.1885 25.1163 62.1885 24.4088C62.1885 24.2572 62.1885 24.1561 61.9821 24.2066C61.6724 24.2572 61.3112 24.2572 61.0015 24.2066C60.7435 24.1561 60.6919 24.2572 60.6919 24.5098C60.7951 25.6722 60.7435 26.8345 60.7435 27.9968C60.7435 28.3 60.6403 28.4011 60.3822 28.5022C59.35 28.8559 58.3179 28.9065 57.2857 28.8054C55.531 28.6033 54.1892 27.6936 53.5699 26.0259C53.2086 25.0657 53.157 24.055 53.2086 23.0443C53.3634 20.3659 55.2213 18.5971 57.9566 18.5971C59.35 18.5971 60.537 19.052 61.5176 20.0627C61.5692 20.1132 61.6208 20.2143 61.7757 20.2143C61.9305 20.1637 61.8789 20.0627 61.8789 19.9616C61.9305 19.7089 61.9821 19.4562 62.0853 19.2541C62.2401 18.9509 62.0853 18.9004 61.8789 18.7993C60.0726 17.9907 58.163 17.8391 56.2535 18.1928C54.3956 18.5466 52.8989 19.4562 52.0732 21.225C51.5055 22.3873 51.4539 23.6002 51.6087 24.8636C51.9184 26.9861 53.0022 28.5022 55.1697 29.1592C57.4405 29.8667 59.7113 29.5129 61.9821 28.9065C62.1369 28.8559 62.1369 28.7549 62.1369 28.6033C62.1369 27.8452 62.1369 27.1377 62.1369 26.4807ZM133.305 18.7993C133.357 18.4961 133.409 18.2434 133.46 18.0412C133.512 17.7886 133.563 17.5359 133.667 17.3337C133.77 17.1316 133.667 17.0811 133.46 17.0811C133.047 17.0811 132.635 17.0811 132.222 17.1316C129.332 17.637 126.803 18.9003 124.842 21.0229C123.035 22.9938 122.106 25.2679 122.416 27.9463C122.622 29.715 123.861 30.7258 125.667 30.6247C126.596 30.5742 127.474 30.3215 128.351 30.0183C129.848 29.4624 131.241 28.7549 132.428 27.6936C132.531 27.5925 132.686 27.4915 132.686 27.3399C132.738 27.0366 132.789 26.7334 132.841 26.3291C132.583 26.5818 132.376 26.784 132.17 26.9861C130.88 28.1484 129.486 29.1592 127.783 29.5634C125.977 30.0183 124.738 29.2602 124.377 27.4409C124.222 26.5818 124.274 25.7227 124.377 24.9141C124.945 21.5282 126.854 19.3046 130.209 18.2434C131.344 17.8391 132.428 17.8391 133.305 18.7993ZM39.7387 29.2602C40.1 29.2602 40.4096 29.2602 40.7193 29.2602C40.9257 29.2602 40.9773 29.2097 41.0289 29.0581C41.4418 27.7441 41.9579 26.5313 42.4224 25.2679C42.474 25.0657 42.5772 25.0152 42.7836 25.0152C43.9706 25.0152 45.2092 25.0152 46.3962 25.0152C46.6027 25.0152 46.7059 25.0657 46.7575 25.2679C47.2736 26.5313 47.8413 27.7947 48.3058 29.1086C48.3574 29.2097 48.3574 29.3108 48.5122 29.3108C49.0283 29.3108 49.5444 29.3108 50.1121 29.3108C50.0088 29.0581 49.9056 28.8559 49.8024 28.6538C48.2542 25.2679 46.7575 21.7809 45.3125 18.3445C45.2608 18.1928 45.2608 17.9907 45.0028 17.9907C44.7447 17.9907 44.7448 18.1928 44.6931 18.2939C43.5577 20.8207 42.3707 23.3981 41.2354 25.9249C40.8225 26.9861 40.3064 28.0979 39.7387 29.2602ZM12.4893 29.2602C12.7989 29.2602 13.1086 29.2602 13.4182 29.2602C13.6247 29.2602 13.6763 29.2097 13.7279 29.0581C14.1407 27.7441 14.6568 26.4807 15.1729 25.2173C15.2245 25.0657 15.3277 24.9647 15.5342 24.9647C16.7212 24.9647 17.9598 24.9647 19.1468 24.9647C19.3532 24.9647 19.4564 25.0152 19.5081 25.2173C20.0241 26.4807 20.5918 27.7441 21.0563 29.0581C21.1079 29.1592 21.1079 29.2602 21.2628 29.2602C21.7788 29.2602 22.2949 29.2602 22.8626 29.2602C22.7594 29.0075 22.6562 28.8054 22.553 28.6033C21.0047 25.1668 19.5081 21.7304 18.063 18.2434C18.0114 18.1423 18.0114 17.9402 17.805 17.9402C17.5469 17.9402 17.5469 18.1423 17.4953 18.2434C15.8954 21.7809 14.2956 25.369 12.6441 28.9065C12.5409 29.0075 12.4893 29.1086 12.4893 29.2602ZM118.029 23.7013C118.081 25.47 118.029 27.1882 117.926 28.957C117.926 29.2097 117.926 29.2602 118.236 29.2602C118.545 29.2097 118.907 29.2097 119.216 29.2602C119.526 29.3108 119.577 29.2097 119.526 28.9065C119.371 26.4807 119.371 24.055 119.423 21.6798C119.423 20.6186 119.474 19.5068 119.526 18.4455C119.526 18.2434 119.526 18.1423 119.268 18.1928C118.907 18.2939 118.545 18.2434 118.236 18.1928C117.978 18.1423 117.926 18.1928 117.926 18.4455C118.029 20.2143 118.081 21.983 118.029 23.7013Z" fill="white"/>
<path d="M162 24.6108C161.897 24.813 161.897 25.0656 161.845 25.3183C161.277 27.5924 159.574 29.058 157.2 29.4117C155.91 29.5634 154.671 29.5634 153.433 29.1591C151.369 28.5526 149.923 26.7839 149.717 24.6614C149.614 23.5496 149.665 22.4378 150.13 21.3765C150.956 19.4056 152.556 18.3949 154.671 18.0917C156.117 17.8895 157.51 17.9906 158.852 18.597C160.658 19.4056 161.639 20.8712 161.948 22.7915C161.948 22.8926 161.897 22.9431 162 23.0442C162 23.499 162 24.0549 162 24.6108ZM160.4 23.7012C160.4 23.3474 160.348 22.8926 160.297 22.4883C159.987 20.2142 158.542 18.7992 156.271 18.597C154.207 18.3949 152.246 19.3045 151.575 21.6797C151.265 22.741 151.214 23.8528 151.369 24.9646C151.627 26.8849 152.762 28.6537 155.342 28.9064C157.355 29.1085 159.368 28.3 160.142 25.9248C160.348 25.2173 160.4 24.4592 160.4 23.7012Z" fill="#707174"/>
<path d="M-0.000542164 18.1929C0.463937 18.2939 0.928416 18.2939 1.3929 18.2434C1.59933 18.1929 1.59933 18.2939 1.59933 18.4456C1.54772 19.81 1.54772 21.1745 1.49611 22.539C1.49611 22.7916 1.54772 22.8927 1.85737 22.8927C3.92173 22.9433 5.98608 22.9433 8.05043 22.8927C8.30847 22.8927 8.36008 22.8422 8.36008 22.5895C8.36008 21.225 8.30848 19.8606 8.25687 18.4961C8.25687 18.2939 8.25687 18.1423 8.56652 18.2434C8.92778 18.2939 9.28904 18.2939 9.5987 18.2434C9.85674 18.1929 9.85674 18.2939 9.85674 18.4961C9.80513 19.1531 9.80513 19.81 9.75352 20.5175C9.6503 23.3475 9.6503 26.127 9.85674 28.957C9.85674 29.2603 9.80513 29.3613 9.49548 29.3613C9.18582 29.3108 8.87617 29.3613 8.51491 29.3613C8.30848 29.3613 8.25687 29.3108 8.25687 29.1086C8.30848 27.4915 8.41169 25.8743 8.36008 24.2572C8.36008 23.8024 8.36008 23.8024 7.8956 23.8024C5.83125 23.7518 3.81851 23.8024 1.75416 23.8024C1.49611 23.8024 1.4445 23.8529 1.4445 24.1056C1.4445 25.7733 1.49611 27.441 1.54772 29.1086C1.54772 29.3613 1.49611 29.4119 1.23807 29.3613C0.77359 29.3613 0.360719 29.3613 -0.10376 29.3613C-0.10376 29.0076 -0.10376 28.6033 -0.10376 28.2495C-0.000542164 28.199 -0.052151 28.0979 -0.052151 28.0474C0.0510666 25.2679 0.0510666 22.4379 -0.052151 19.6584C-0.052151 19.6079 -0.000542164 19.5068 -0.10376 19.4563C-0.000542164 18.9509 -0.000542164 18.5466 -0.000542164 18.1929Z" fill="#707174"/>
<path d="M125.564 33.0001C125.719 32.4947 125.874 31.9894 125.977 31.484C125.977 31.3324 126.029 31.2819 126.132 31.3829C127.164 32.3431 128.351 32.0905 129.486 31.6862C132.531 30.5238 134.286 28.3508 134.802 25.2176C135.009 24.1563 135.06 23.095 134.699 22.0338C134.286 20.8209 133.202 20.2145 131.912 20.4166C130.106 20.6693 128.712 21.6295 127.371 22.7413C127.009 23.0445 126.7 23.3477 126.39 23.6509C126.338 22.8929 126.596 22.337 127.216 21.9327C128.867 20.7199 130.673 19.9113 132.686 19.507C133.409 19.3554 134.131 19.3554 134.854 19.5575C135.989 19.9618 136.557 20.8209 136.712 21.9327C137.073 24.6617 136.196 26.9863 134.389 29.0078C132.583 31.0292 130.261 32.2421 127.577 32.8485C127.319 32.899 127.009 32.899 126.751 33.0001C126.39 33.0001 125.977 33.0001 125.564 33.0001Z" fill="#BDBFC1"/>
<path d="M0 19.3555C0.103811 19.406 0.0519054 19.5071 0.0519054 19.5576C0.155716 22.3371 0.155716 25.1671 0.0519054 27.9466C0.0519054 27.9971 0.103811 28.0982 0 28.1487C0 25.2176 0 22.2866 0 19.3555Z" fill="white"/>
<path d="M88.3026 32.4947C87.8381 32.4442 87.1156 32.4947 86.4446 32.4442C85.4641 32.3937 84.4835 32.2926 83.5029 32.242C82.3676 32.1915 81.2838 31.9894 80.2516 31.7367C79.4258 31.5345 78.6001 31.484 77.7228 31.5345C76.897 31.5851 76.0713 31.6862 75.2971 31.7872C74.2134 31.8883 73.1812 31.8883 72.0974 31.8378C71.5813 31.7872 71.0652 31.7872 70.5491 31.7872C69.3621 31.7367 68.1751 31.5345 67.0397 31.1808C66.8333 31.1303 66.5753 31.0292 66.4204 30.827C66.1624 30.5744 66.1624 30.4228 66.472 30.1701C66.8333 29.9174 67.2462 29.7658 67.659 29.7152C68.4848 29.5636 69.3621 29.412 70.1879 29.2604C70.5491 29.2099 70.9104 29.1594 71.2717 29.1594C71.8394 29.1594 72.4071 29.1594 72.9747 29.1088C73.8521 29.0583 74.7294 29.1594 75.6068 29.2099C76.5358 29.2604 77.4131 29.412 78.2905 29.5131C79.271 29.6142 80.2 29.412 81.1806 29.2604C82.0579 29.1088 82.8836 29.0077 83.761 28.9067C85.1544 28.7551 86.4963 28.7045 87.8897 28.7045C88.8187 28.7045 89.696 28.654 90.625 28.7551C92.4829 28.9067 94.3408 28.9572 96.1471 29.3615C96.9212 29.5131 97.6954 29.6647 98.3663 30.069C98.6243 30.2206 98.8308 30.3722 98.8824 30.6754C98.8824 30.9786 98.6243 31.1808 98.3663 31.2819C97.4889 31.7367 96.56 31.8883 95.5794 32.0904C94.3408 32.2926 93.1022 32.4442 91.8636 32.4947C90.7798 32.4442 89.6444 32.4947 88.3026 32.4947ZM88.4574 31.7367C89.3863 31.6356 90.3153 31.6356 91.2959 31.5345C92.1732 31.4335 93.0506 31.3324 93.8763 31.0292C94.1344 30.9281 94.444 30.8776 94.444 30.5744C94.444 30.2711 94.1344 30.1701 93.8763 30.069C92.8441 29.7152 91.7604 29.5636 90.6766 29.5131C89.7476 29.4626 88.8187 29.412 87.8897 29.4626C86.7027 29.5131 85.4641 29.5131 84.2771 29.7658C83.7094 29.8669 83.1933 29.9679 82.6772 30.2711C82.3675 30.4733 82.3675 30.6754 82.6772 30.8776C82.9352 31.0292 83.1933 31.1303 83.4513 31.1808C85.1028 31.6356 86.7543 31.6356 88.4574 31.7367ZM73.5941 31.2819C74.0069 31.2313 74.4714 31.2819 74.8843 31.2313C75.4004 31.1808 75.9165 31.0797 76.4325 31.0292C77.0002 30.9786 77.5679 30.827 78.084 30.726C78.1872 30.726 78.3937 30.6754 78.3937 30.5238C78.3937 30.3722 78.2388 30.3217 78.084 30.3217C77.4647 30.1701 76.7938 30.069 76.1745 29.9174C75.71 29.8163 75.2455 29.8669 74.8327 29.7658C74.1618 29.6142 73.4392 29.7658 72.7683 29.6647C72.2006 29.6142 71.6329 29.7152 71.0652 29.7658C70.4975 29.8163 69.9298 29.9174 69.3621 30.1701C69.2073 30.2206 69.0525 30.2711 69.0525 30.4733C69.0525 30.6754 69.2073 30.726 69.3621 30.7765C69.8266 31.0292 70.3943 31.0797 70.9104 31.1808C71.7361 31.2819 72.6651 31.3324 73.5941 31.2819Z" fill="#E0E1E2"/>
<path d="M35.5068 21.0737C35.4036 21.1242 35.352 21.2253 35.3004 21.2759C33.9069 23.8532 32.4103 26.38 31.2233 29.0584C31.1717 29.1595 31.1717 29.2605 31.0685 29.2605C30.9136 29.2605 30.9136 29.1089 30.862 29.0079C29.5718 26.4305 28.1784 23.8532 26.8881 21.3264C26.8365 21.2253 26.8365 21.1242 26.6817 21.0737C26.5785 22.0339 26.4753 22.9435 26.3721 23.8532C26.1656 25.622 25.9592 27.3402 25.9076 29.1089C25.9076 29.21 25.856 29.2605 25.7527 29.2605C25.4947 29.2605 25.2883 29.2605 25.0302 29.2605C24.8238 29.2605 24.7722 29.21 24.8238 29.0079C24.9786 27.9971 25.1334 27.037 25.2883 26.0262C25.7011 23.4489 26.0624 20.8716 26.3204 18.2942C26.3204 18.1932 26.2688 18.0416 26.4753 17.991C26.6817 17.9405 26.7333 18.0921 26.7849 18.2437C28.1784 21.0737 29.675 23.8027 31.2233 26.5821C31.2749 26.6327 31.3265 26.7337 31.3781 26.8348C31.4297 26.6832 31.5329 26.5821 31.5845 26.4811C33.0812 23.7521 34.5779 21.0232 36.1261 18.2942C36.1777 18.2437 36.1777 18.1426 36.2293 18.0921C36.2809 17.991 36.3326 17.9405 36.4358 17.991C36.5906 17.991 36.539 18.0921 36.539 18.1932C36.6422 19.1028 36.7454 20.063 36.8486 20.9726C37.1067 23.1457 37.3647 25.2682 37.6228 27.4412C37.6744 27.9466 37.7776 28.5025 37.8292 29.0079C37.8808 29.21 37.8292 29.2605 37.6228 29.2605C37.3131 29.2605 37.0035 29.21 36.6422 29.2605C36.3326 29.3111 36.2809 29.1595 36.2809 28.9068C36.2293 28.1488 36.1261 27.3907 36.0745 26.6327C35.9197 24.7628 35.7132 22.893 35.5068 21.0737Z" fill="#707174"/>
<path d="M111.32 23.3474C111.836 23.4485 112.352 23.4991 112.868 23.7012C113.849 24.1055 114.313 24.813 114.365 25.8237C114.52 27.9968 112.868 29.0075 111.269 29.2096C110.34 29.3612 109.359 29.2602 108.43 29.2602C108.069 29.2602 107.708 29.2602 107.346 29.2602C107.088 29.2602 107.037 29.2096 107.037 28.9569C107.088 27.8452 107.14 26.6828 107.14 25.571C107.191 23.1958 107.14 20.8712 107.037 18.496C107.037 18.2433 107.088 18.1422 107.346 18.1928C108.224 18.2939 109.049 18.2939 109.927 18.1928C110.701 18.1422 111.423 18.1928 112.197 18.3444C113.075 18.5465 113.746 19.0014 113.952 19.9615C114.107 20.9217 113.952 21.8314 113.075 22.4883C112.559 22.8926 111.991 23.1453 111.32 23.3474ZM109.617 28.7043C109.823 28.7043 109.978 28.7548 110.185 28.7043C111.32 28.6537 112.146 28.2494 112.61 27.1882C113.333 25.6216 112.662 24.2066 111.062 23.8528C110.288 23.7012 109.462 23.7012 108.688 23.7012C108.482 23.7012 108.482 23.8023 108.482 23.9539C108.482 25.3184 108.482 26.6323 108.585 27.9968C108.585 28.6032 108.636 28.6032 109.256 28.6537C109.411 28.7043 109.514 28.7043 109.617 28.7043ZM108.636 21.0228C108.585 21.0228 108.585 21.0228 108.533 21.0228C108.533 21.2755 108.533 21.5787 108.533 21.8314C108.533 22.1851 108.533 22.5389 108.533 22.8926C108.533 23.0948 108.585 23.1453 108.791 23.1453C109.153 23.1453 109.565 23.1453 109.927 23.0948C110.546 23.0442 111.165 22.9432 111.681 22.5894C112.404 22.084 112.765 21.2249 112.559 20.3153C112.352 19.4562 111.785 19.0519 110.959 18.9003C110.288 18.7487 109.565 18.7992 108.895 18.8497C108.74 18.8497 108.688 18.9508 108.688 19.1024C108.636 19.7089 108.636 20.3658 108.636 21.0228Z" fill="#707174"/>
<path d="M143.369 23.8531C144.866 25.6724 146.259 27.4916 147.859 29.2604C147.24 29.2604 146.621 29.2604 146.053 29.2604C145.898 29.2604 145.846 29.1088 145.743 29.0077C144.659 27.5422 143.524 26.0766 142.337 24.6616C142.182 24.51 142.027 24.3584 141.873 24.1563C141.666 23.9036 141.408 23.9036 141.15 23.9036C140.944 23.9036 140.995 24.0552 140.995 24.1563C140.995 24.9648 140.995 25.7734 140.995 26.582C140.995 27.3906 141.047 28.1992 141.098 28.9572C141.098 29.1593 141.047 29.2099 140.84 29.2099C140.479 29.2099 140.118 29.2099 139.757 29.2099C139.55 29.2099 139.499 29.2099 139.499 28.9572C139.653 26.0766 139.653 23.1961 139.602 20.3661C139.602 19.7091 139.55 19.0521 139.499 18.4457C139.499 18.2436 139.499 18.1425 139.757 18.193C140.737 18.2941 141.769 18.2941 142.75 18.193C143.421 18.1425 144.143 18.193 144.814 18.3952C146.569 18.85 147.24 20.7198 146.259 22.2359C145.64 23.1456 144.711 23.5498 143.679 23.8025C143.627 23.752 143.524 23.8025 143.369 23.8531ZM141.15 21.0736C141.098 21.0736 141.098 21.0736 141.047 21.0736C141.047 21.7305 141.047 22.3875 141.047 22.9939C141.047 23.1961 141.098 23.2466 141.305 23.2972C141.718 23.3477 142.131 23.3477 142.543 23.2972C143.214 23.2466 143.834 23.095 144.35 22.6907C145.176 22.0843 145.434 21.2757 145.227 20.3155C145.072 19.4059 144.401 18.9511 143.524 18.7995C142.801 18.6479 142.079 18.7489 141.305 18.7995C141.098 18.7995 141.098 18.9511 141.098 19.0521C141.15 19.7596 141.15 20.4166 141.15 21.0736Z" fill="#707174"/>
<path d="M62.1369 26.4808C62.1369 27.1377 62.1369 27.8452 62.1369 28.5022C62.1369 28.6538 62.1369 28.7549 61.9821 28.8054C59.7629 29.4624 57.4921 29.7656 55.1697 29.0581C53.0538 28.4011 51.9184 26.8851 51.6087 24.7625C51.4539 23.4991 51.5055 22.2863 52.0732 21.124C52.8989 19.3552 54.3956 18.4455 56.2535 18.0918C58.163 17.738 60.0726 17.8896 61.8789 18.6982C62.0853 18.7993 62.2401 18.8498 62.0853 19.153C61.9821 19.3552 61.9305 19.6079 61.8789 19.8606C61.8789 19.9616 61.8789 20.0627 61.7756 20.1132C61.6724 20.1638 61.6208 20.0627 61.5176 19.9616C60.537 19.0014 59.35 18.4961 57.9566 18.4961C55.2213 18.4961 53.3634 20.2648 53.2086 22.9432C53.157 23.954 53.157 24.9647 53.5699 25.9249C54.2408 27.5926 55.531 28.5022 57.2857 28.7043C58.3179 28.856 59.35 28.7549 60.3822 28.4011C60.6403 28.3001 60.7435 28.1484 60.7435 27.8958C60.7435 26.7334 60.7951 25.5711 60.6919 24.4088C60.6919 24.1561 60.6919 24.055 61.0015 24.1056C61.3112 24.1561 61.6724 24.1561 61.9821 24.1056C62.1885 24.055 62.1885 24.1561 62.1885 24.3077C62.1369 25.1163 62.1369 25.7733 62.1369 26.4808Z" fill="#707174"/>
<path d="M133.305 18.7992C132.428 17.839 131.396 17.8896 130.312 18.2433C126.958 19.3046 125.048 21.5787 124.48 24.9141C124.326 25.7732 124.274 26.6323 124.48 27.4409C124.842 29.2096 126.08 29.9677 127.887 29.5634C129.641 29.1591 131.035 28.1989 132.273 26.986C132.48 26.7839 132.686 26.5818 132.944 26.3291C132.893 26.6828 132.841 27.0366 132.789 27.3398C132.789 27.4914 132.635 27.5925 132.531 27.6936C131.344 28.7548 129.951 29.4623 128.454 30.0182C127.577 30.3214 126.7 30.5741 125.771 30.6246C123.964 30.7257 122.726 29.715 122.519 27.9462C122.21 25.2678 123.139 22.9937 124.945 21.0228C126.906 18.8498 129.435 17.5864 132.325 17.1315C132.738 17.081 133.151 17.0305 133.563 17.081C133.77 17.081 133.822 17.1315 133.77 17.3337C133.667 17.5864 133.615 17.7885 133.563 18.0412C133.357 18.2433 133.357 18.496 133.305 18.7992Z" fill="#ED1F25"/>
<path d="M39.7388 29.2603C40.2549 28.0979 40.7709 27.0367 41.287 25.9249C42.4224 23.3981 43.6094 20.8713 44.7448 18.2939C44.7964 18.1423 44.7964 17.9907 45.0545 17.9907C45.3125 17.9907 45.2609 18.1929 45.3641 18.3445C46.8092 21.7809 48.3058 25.2679 49.8541 28.6538C49.9573 28.856 50.0605 29.0581 50.1637 29.3108C49.596 29.3108 49.08 29.3108 48.5639 29.3108C48.409 29.3108 48.409 29.2097 48.3574 29.1086C47.9446 27.7947 47.3253 26.5313 46.8092 25.2679C46.7576 25.0658 46.6543 25.0152 46.4479 25.0152C45.2609 25.0152 44.0223 25.0152 42.8353 25.0152C42.6289 25.0152 42.5256 25.1163 42.474 25.2679C41.9579 26.5313 41.4419 27.7442 41.0806 29.0581C41.029 29.2602 40.9774 29.3108 40.7709 29.2603C40.4097 29.2603 40.1 29.2603 39.7388 29.2603ZM44.6932 20.1638C44.5384 20.5175 44.3836 20.8713 44.2287 21.1745C43.8159 22.1347 43.403 23.0443 42.9901 24.0045C42.9385 24.1056 42.8353 24.2572 43.0933 24.2572C44.1255 24.2572 45.2093 24.2572 46.2415 24.2572C46.3963 24.2572 46.4995 24.2066 46.3963 24.055C45.8286 22.7411 45.2609 21.4777 44.6932 20.1638Z" fill="#707174"/>
<path d="M12.4893 29.2603C12.4893 29.1086 12.5409 29.0076 12.5925 28.957C14.244 25.4195 15.8438 21.882 17.4437 18.2939C17.4953 18.1423 17.4953 17.9907 17.7534 17.9907C17.9598 17.9907 17.9598 18.1929 18.0114 18.2939C19.4564 21.7304 20.9531 25.2174 22.5014 28.6538C22.6046 28.856 22.7078 29.0581 22.811 29.3108C22.2433 29.3108 21.7272 29.3108 21.2111 29.3108C21.0563 29.3108 21.0563 29.2097 21.0047 29.1086C20.5402 27.7947 19.9725 26.5818 19.4564 25.2679C19.4048 25.0658 19.3016 25.0152 19.0952 25.0152C17.9082 25.0152 16.6696 25.0152 15.4826 25.0152C15.2761 25.0152 15.1729 25.0658 15.1213 25.2679C14.6052 26.5313 14.0891 27.7947 13.6763 29.1086C13.6247 29.2602 13.573 29.3108 13.3666 29.3108C13.1602 29.2602 12.8505 29.2603 12.4893 29.2603ZM17.3921 20.1638C16.8244 21.4777 16.2567 22.7916 15.689 24.055C15.5858 24.2572 15.689 24.2572 15.8438 24.2572C16.5664 24.2572 17.3405 24.2572 18.063 24.2572C18.4243 24.2572 18.7855 24.2572 19.1984 24.2572C18.5791 22.8927 18.0114 21.5282 17.3921 20.1638Z" fill="#707174"/>
<path d="M118.029 23.7013C118.081 21.9326 117.978 20.2143 117.926 18.4456C117.926 18.1929 117.926 18.1424 118.236 18.1929C118.597 18.2434 118.958 18.2434 119.268 18.1929C119.526 18.1424 119.526 18.2434 119.526 18.4456C119.474 19.5068 119.423 20.6186 119.423 21.6799C119.423 24.1056 119.371 26.5313 119.526 28.9065C119.526 29.1592 119.474 29.2603 119.216 29.2603C118.907 29.2097 118.545 29.2097 118.236 29.2603C117.978 29.2603 117.926 29.2097 117.926 28.9571C118.029 27.1883 118.081 25.4701 118.029 23.7013Z" fill="#707174"/>
<path d="M160.4 23.7013C160.4 24.5099 160.349 25.2174 160.091 25.9249C159.368 28.3001 157.355 29.1087 155.291 28.9065C152.71 28.6538 151.627 26.8851 151.317 24.9647C151.162 23.8529 151.162 22.7411 151.523 21.6799C152.246 19.3552 154.156 18.4456 156.22 18.5972C158.542 18.7993 159.936 20.2143 160.245 22.4884C160.349 22.8927 160.4 23.297 160.4 23.7013Z" fill="white"/>
<path d="M88.4574 31.7365C86.7543 31.6354 85.1028 31.6354 83.503 31.1806C83.2449 31.13 82.9353 31.029 82.7288 30.8773C82.4192 30.6752 82.4192 30.4731 82.7288 30.2709C83.1933 29.9677 83.761 29.8666 84.3287 29.7656C85.5157 29.5129 86.7027 29.5129 87.9413 29.4623C88.8703 29.4118 89.7992 29.4623 90.7282 29.5129C91.812 29.5634 92.8958 29.715 93.9279 30.0688C94.186 30.1698 94.4956 30.2204 94.4956 30.5741C94.4956 30.9279 94.186 30.9784 93.9279 31.029C93.1022 31.2816 92.2248 31.4332 91.3475 31.5343C90.3669 31.6354 89.3864 31.6354 88.4574 31.7365Z" fill="#BDBFC1"/>
<path d="M73.5942 31.2816C72.6652 31.3321 71.7879 31.3321 70.8589 31.231C70.3428 31.1805 69.7751 31.0794 69.3106 30.8267C69.1558 30.7762 69.001 30.7257 69.001 30.5235C69.001 30.3214 69.1558 30.2708 69.3106 30.2203C69.8267 29.9676 70.3944 29.8666 71.0137 29.816C71.5814 29.7655 72.1491 29.6644 72.7168 29.7149C73.3877 29.7655 74.1102 29.6644 74.7812 29.816C75.2456 29.9171 75.7101 29.8666 76.123 29.9676C76.7423 30.1192 77.4132 30.2203 78.0325 30.3719C78.1357 30.4224 78.3422 30.4224 78.3422 30.5741C78.3422 30.7257 78.1873 30.7762 78.0325 30.7762C77.4648 30.8773 76.9487 31.0289 76.381 31.0794C75.8649 31.13 75.3489 31.2816 74.8328 31.2816C74.4199 31.231 74.007 31.231 73.5942 31.2816Z" fill="#BDBFC1"/>
<path d="M109.617 28.7045C109.514 28.7045 109.359 28.7045 109.256 28.7045C108.637 28.6539 108.585 28.6539 108.585 28.0475C108.533 26.683 108.482 25.3691 108.482 24.0046C108.482 23.853 108.482 23.752 108.688 23.752C109.514 23.752 110.288 23.752 111.062 23.9036C112.662 24.2573 113.333 25.6723 112.61 27.2389C112.146 28.2497 111.269 28.7045 110.185 28.755C109.978 28.7045 109.824 28.7045 109.617 28.7045Z" fill="white"/>
<path d="M108.637 21.0229C108.637 20.3659 108.637 19.709 108.637 19.1025C108.637 18.9509 108.688 18.8499 108.843 18.8499C109.514 18.7993 110.236 18.7488 110.907 18.9004C111.733 19.052 112.301 19.4563 112.507 20.3154C112.714 21.2756 112.404 22.1347 111.63 22.5895C111.114 22.9433 110.494 23.0949 109.875 23.0949C109.514 23.0949 109.153 23.0949 108.74 23.1454C108.533 23.1454 108.482 23.0949 108.482 22.8927C108.482 22.539 108.482 22.1852 108.482 21.8315C108.482 21.5788 108.482 21.2756 108.482 21.0229C108.533 21.0229 108.585 21.0229 108.637 21.0229Z" fill="white"/>
<path d="M141.15 21.0734C141.15 20.4165 141.15 19.7595 141.15 19.1025C141.15 18.9509 141.15 18.8499 141.356 18.8499C142.079 18.7993 142.853 18.7488 143.576 18.8499C144.453 19.0015 145.124 19.4563 145.279 20.3659C145.485 21.3261 145.227 22.1347 144.401 22.7411C143.834 23.1454 143.214 23.2465 142.595 23.3476C142.182 23.3981 141.769 23.3476 141.356 23.3476C141.15 23.3476 141.098 23.2465 141.098 23.0443C141.098 22.3874 141.098 21.7304 141.098 21.124C141.098 21.0734 141.098 21.0734 141.15 21.0734Z" fill="white"/>
<path d="M44.693 20.1641C45.2607 21.478 45.88 22.7414 46.4477 24.0553C46.551 24.2575 46.4477 24.2575 46.2929 24.2575C45.2607 24.2575 44.177 24.2575 43.1448 24.2575C42.8351 24.2575 42.99 24.1059 43.0416 24.0048C43.4544 23.0446 43.8673 22.135 44.2802 21.1748C44.3834 20.8716 44.5382 20.5178 44.693 20.1641Z" fill="white"/>
<path d="M17.3922 20.1641C18.0116 21.5791 18.6309 22.893 19.2502 24.2575C18.8373 24.2575 18.476 24.2575 18.1148 24.2575C17.3922 24.2575 16.6181 24.2575 15.8956 24.2575C15.7408 24.2575 15.6375 24.2575 15.7408 24.0553C16.2569 22.7414 16.7729 21.478 17.3922 20.1641Z" fill="white"/>
<path d="M82.9353 4.80092C83.8127 4.29556 92.8958 0 92.999 0C93.1022 0 102.34 12.6845 102.289 12.7856C102.289 12.7856 100.173 13.7963 99.4501 14.1501C97.0761 15.2619 94.7021 16.4242 92.2765 17.536C92.1733 17.536 92.1217 17.4349 92.0185 17.3338C90.8831 15.7672 89.7477 14.2006 88.6123 12.634C86.7544 10.0567 84.8448 7.42879 82.9353 4.80092Z" fill="#EB2227"/>
<path d="M82.9355 4.80078C84.845 7.42865 86.7029 10.0565 88.6124 12.6844C89.7478 14.251 90.8832 15.8176 92.0186 17.3842C92.0702 17.4853 92.1218 17.5864 92.2767 17.5864C91.0381 18.8498 84.4837 25.7227 84.2773 25.7227C84.2257 25.7227 79.6325 19.4562 77.4133 16.3735C77.4133 16.2725 77.5165 16.1714 77.6198 16.1208C78.6003 15.1101 79.5293 14.0994 80.4582 13.1392C80.5615 13.0381 80.6131 13.0381 80.7163 12.8865C80.7679 12.8865 80.8195 12.8865 80.8195 12.7855C80.8711 12.6339 80.7679 12.5833 80.7163 12.4823C80.0454 11.5726 79.3745 10.6124 78.7036 9.70277C78.6003 9.6017 78.4971 9.50063 78.5487 9.34902C79.8906 7.98455 81.2324 6.62008 82.5742 5.2556C82.6774 5.05346 82.7806 4.90185 82.9355 4.80078Z" fill="#AF1F24"/>
<path d="M71.1686 19.6079C71.0138 19.7595 70.9105 19.81 70.8073 19.6079C69.4139 17.6875 68.0205 15.7672 66.627 13.8468C66.4722 13.6447 66.369 13.493 66.2141 13.2909C66.1109 13.1393 65.9045 12.8361 65.8013 12.735C65.8529 12.6845 66.1109 12.4318 66.1625 12.3813C66.369 12.1791 66.5754 11.9264 66.7818 11.7243C67.2979 11.1684 67.814 10.663 68.3301 10.1071C68.8462 9.60178 69.3623 9.04588 69.8268 8.54052C69.93 8.43945 70.0332 8.28784 70.188 8.2373C70.188 8.28784 70.188 8.28784 70.188 8.33838C71.1686 9.65231 72.1492 11.0168 73.0781 12.3307C73.8006 13.2909 74.4715 14.3016 75.1941 15.2618C74.8328 15.6661 74.4715 16.0704 74.0587 16.4747C73.1297 17.4349 72.2008 18.3445 71.2718 19.3047C71.3234 19.4563 71.2718 19.5068 71.1686 19.6079Z" fill="#939598"/>
<path d="M75.2973 15.3123C74.5748 14.3521 73.9039 13.3414 73.1814 12.3812C72.2008 11.0673 71.2202 9.70279 70.2913 8.38885C70.2913 8.33832 70.2913 8.33832 70.2913 8.28778C70.8073 7.93403 71.375 7.73189 71.9427 7.47921C72.8201 7.07492 73.6458 6.67063 74.5232 6.26634C74.7812 6.16527 74.9877 6.01366 75.2457 5.91259C75.3489 5.86205 75.4005 5.81152 75.5038 5.81152C75.6586 5.76098 75.865 5.60938 75.865 5.60938C75.865 5.60938 76.0198 5.86205 76.1231 5.96313C76.1747 6.01366 76.2263 6.11473 76.2779 6.16527C76.4327 6.41795 76.5875 6.62009 76.794 6.87277C77.3101 7.58028 77.8261 8.33832 78.3938 9.04582C78.4454 9.14689 78.4971 9.24797 78.6519 9.24797C78.6003 9.39957 78.7551 9.50065 78.8067 9.60172C79.4776 10.5114 80.1485 11.4715 80.8195 12.3812C80.8711 12.4823 81.0259 12.5328 80.9227 12.6844C80.8711 12.6844 80.8195 12.6844 80.8195 12.7855C80.6646 12.7855 80.5614 12.8866 80.4582 12.9371C78.6519 13.7457 77.0004 14.5542 75.2973 15.3123Z" fill="#BBBCBF"/>
<path d="M84.2773 25.6723C84.1741 25.5712 90.9864 18.85 92.2766 17.536C92.2766 17.536 102.082 12.7856 102.289 12.7856C101.824 13.3921 101.102 13.9985 100.586 14.5544C98.5729 16.6264 94.4442 20.8209 94.3926 20.8714C94.2894 20.9219 84.3805 25.6218 84.2773 25.6723Z" fill="#8A181A"/>
<path d="M75.2972 15.3125C77.0003 14.5039 78.6518 13.6953 80.3548 12.8868C80.4581 12.8362 80.8709 12.5836 80.8709 12.6341C80.9225 12.6341 80.6129 12.9878 80.5097 13.0889C79.5291 14.0996 78.6001 15.0598 77.6196 16.0705C77.568 16.1716 77.4648 16.2221 77.4131 16.3232C77.2583 16.3232 77.2067 16.4748 77.1035 16.5759C76.7422 17.0307 76.2261 17.3339 75.7101 17.5866C74.2134 18.2941 72.4587 19.1027 70.962 19.8102C70.9104 19.8102 71.2717 19.4564 71.3749 19.3554C72.3039 18.3952 73.2328 17.4855 74.1618 16.5254C74.5747 16.1211 74.9359 15.7168 75.2972 15.3125Z" fill="#6E6E72"/>
<path d="M102.082 12.9375C102.134 12.887 102.134 12.887 102.186 12.8364C102.186 12.9375 102.134 12.9375 102.082 12.9375Z" fill="#8A181A"/>
</g>
<defs>
<clipPath id="clip0">
<rect width="162" height="33" fill="white"/>
</clipPath>
</defs>
</svg>
