<svg width="55" height="35" viewBox="0 0 55 35" fill="none" xmlns="http://www.w3.org/2000/svg">
<g clip-path="url(#clip0)">
<path fill-rule="evenodd" clip-rule="evenodd" d="M25.7915 7.82776V9.89717H28.701C28.9737 9.89717 29.4284 9.86718 29.6405 9.62725C29.8527 9.41731 29.9133 9.14739 29.9133 8.84747C29.9133 8.54756 29.8527 8.30763 29.6405 8.0677C29.4587 7.85776 28.9737 7.82776 28.701 7.82776H25.7915ZM25.7915 17.7249V20.1243H29.0344C29.3374 20.1243 29.7617 20.0943 29.9739 19.8543C30.2163 19.5844 30.3073 19.2845 30.3073 18.9246C30.3073 18.5947 30.2163 18.2948 30.0042 18.0249C29.8223 17.7849 29.3374 17.7549 29.0344 17.7549H25.7915V17.7249ZM31.1256 8.87746C31.1256 9.47729 30.9437 9.98715 30.5194 10.437C30.0648 10.9469 29.3677 11.0968 28.6707 11.0968H24.5792V6.6581H28.701C29.3677 6.6581 30.0951 6.77806 30.5497 7.31791C30.9437 7.73779 31.1256 8.27764 31.1256 8.87746ZM31.4892 18.8946C31.4892 19.5244 31.3074 20.0943 30.8831 20.5741C30.4285 21.114 29.7011 21.2939 29.004 21.2939H24.5792V16.5553H29.0344C29.7314 16.5553 30.4588 16.7052 30.9134 17.2451C31.3074 17.7249 31.4892 18.2948 31.4892 18.8946ZM30.9134 1.31962L33.5198 9.0874H32.2469L29.6102 1.19966C29.4284 1.19966 29.2768 1.19966 29.095 1.19966H20.2756V1.16967H18.7602V1.19966H14.4263V11.1268H7.39497V1.19966H1.21229V26.7824H7.39497V16.5553H14.4566V26.7824H20.6089V11.3068H21.8212V26.7824H29.6405C30.7316 26.7824 31.7923 26.6324 32.8228 26.2725C33.7623 25.9726 34.6412 25.4927 35.3989 24.8029C36.1263 24.1431 36.6718 23.3633 37.0658 22.4636C37.4901 21.4439 37.6719 20.3642 37.6719 19.2845C37.6719 18.0848 37.4901 16.7052 36.7324 15.7455C36.1263 14.9657 35.3686 14.2759 34.52 13.7661L34.3684 13.6761L34.52 13.5861C35.2777 13.1063 35.8838 12.3865 36.4293 11.6667C37.0961 10.7669 37.3385 9.68723 37.3385 8.57755C37.3385 7.22794 37.0658 5.90831 36.399 4.70865C35.7626 3.56898 34.7927 2.72922 33.6108 2.12939C32.7318 1.70951 31.8529 1.43959 30.9134 1.31962ZM38.1265 23.0034L39.3994 26.7824H44.0061L52.5831 1.19966H46.158L41.7331 15.9255L37.2779 1.19966H34.3987C35.6716 1.88946 36.7021 2.84919 37.3992 4.10883C38.1872 5.48843 38.4902 6.988 38.4902 8.54756C38.4902 9.89717 38.1568 11.2168 37.3689 12.3265C37.0355 12.7764 36.7021 13.1962 36.3081 13.5861C36.8233 14.006 37.2476 14.4859 37.6719 14.9957C38.6115 16.1954 38.8539 17.7849 38.8539 19.2545C38.8539 20.5141 38.6721 21.7438 38.1568 22.9135L38.1265 23.0034ZM41.7331 11.7566L45.2487 0H54.25L44.8851 27.952H38.5508L37.3689 24.383C37.0355 24.8629 36.6415 25.3128 36.2172 25.7027C35.3383 26.4824 34.3381 27.0223 33.2168 27.4122C32.0651 27.8021 30.8528 27.982 29.6708 27.982H13.2443V17.7249H8.57695V27.952H0V0H8.57695V9.92716H13.214V0H29.095C29.1253 0 29.1859 0 29.2162 0H38.1568L41.7331 11.7566Z" fill="#3A3939"/>
<path d="M0 34.94H1.15168V33.4405H2.12151V34.94H3.30349V30.9212H2.12151V32.4507H1.15168V30.9212H0V34.94Z" fill="#3A3939"/>
<path d="M5.63728 34.0403C5.2736 34.0403 5.03114 33.7104 5.03114 32.9606C5.03114 32.2408 5.2736 31.8809 5.63728 31.8809C5.97066 31.8809 6.24343 32.2408 6.24343 32.9606C6.24343 33.6804 5.97066 34.0403 5.63728 34.0403ZM5.63728 35C6.78896 35 7.45572 34.2502 7.45572 32.9306C7.45572 31.611 6.78896 30.8612 5.63728 30.8612C4.4553 30.8612 3.81885 31.611 3.81885 32.9306C3.81885 34.2502 4.4553 35 5.63728 35Z" fill="#3A3939"/>
<path d="M8.5767 34.94H9.72837V31.9109H10.6679V30.9212H7.66748V31.9109H8.5767V34.94Z" fill="#3A3939"/>
<path d="M11.062 34.94H13.7897V33.9503H12.244V33.4105H13.3957V32.4507H12.244V31.9109H13.7897V30.9212H11.062V34.94Z" fill="#3A3939"/>
<path d="M14.3354 34.94H16.8206V33.9503H15.4871V30.9212H14.3354V34.94Z" fill="#3A3939"/>
<path d="M18.366 30.9212H17.2144V34.94H18.366V30.9212Z" fill="#3A3939"/>
<path d="M21.3972 34.0703V33.3205H21.8518C22.0943 33.3205 22.1852 33.4105 22.1852 33.7104C22.1852 33.9803 22.0943 34.0703 21.8821 34.0703H21.3972ZM21.3972 32.5407V31.7909H21.8215C22.064 31.7909 22.0943 31.9109 22.0943 32.1508C22.0943 32.3908 22.0337 32.5407 21.7912 32.5407H21.3972ZM20.3062 34.94H22.0034C22.852 34.94 23.3066 34.6101 23.3066 33.8603C23.3066 33.2005 22.9732 32.9906 22.7004 32.9006V32.8706C22.9429 32.7806 23.2156 32.5407 23.2156 32.0009C23.2156 31.2211 22.8217 30.9512 22.064 30.9512H20.3062V34.94Z" fill="#3A3939"/>
<path d="M25.0642 33.3505L25.2461 32.5707C25.3067 32.3308 25.337 32.1208 25.3673 31.9109H25.4279C25.4582 32.1208 25.4885 32.3308 25.5491 32.5707L25.7007 33.3505H25.0642ZM23.5186 34.94H24.7308L24.9127 34.1602H25.8522L26.0341 34.94H27.2463L26.1553 30.9212H24.6702L23.5186 34.94Z" fill="#3A3939"/>
<path d="M30.2772 29.8415H29.3983L29.0043 30.3214H28.974L28.58 29.8415H27.7011V29.9015L28.2466 30.6513H29.7316L30.2469 29.9015V29.8415H30.2772ZM27.398 33.6204C27.398 33.6804 27.3677 33.7404 27.3677 33.8004C27.3677 34.2502 27.5798 35.03 28.883 35.03C29.8529 35.03 30.459 34.5801 30.459 33.7704C30.459 33.0806 30.0347 32.8106 29.5498 32.6307L28.8527 32.3608C28.7012 32.3008 28.6406 32.2108 28.6406 32.0609C28.6406 31.8809 28.7315 31.7609 28.9133 31.7609C29.0952 31.7609 29.1861 31.9109 29.1861 32.1208C29.1861 32.1508 29.1861 32.1808 29.1861 32.2108H30.3378C30.3378 32.1508 30.3681 32.0909 30.3681 32.0309C30.3681 31.611 30.1256 30.9212 28.9437 30.9212C27.9738 30.9212 27.4586 31.401 27.4586 32.1808C27.4586 32.8706 27.8223 33.1405 28.3375 33.3505L28.974 33.5904C29.1558 33.6504 29.2164 33.7704 29.2164 33.9203C29.2164 34.1003 29.0952 34.2202 28.9133 34.2202C28.6709 34.2202 28.5497 34.0103 28.5497 33.7404C28.5497 33.7104 28.5497 33.7104 28.5497 33.6504L27.398 33.6204Z" fill="#3A3939"/>
<path d="M30.9741 34.94H32.1258V33.4704H32.338C32.3986 33.6204 32.8229 34.8201 32.8835 34.94H34.1564V34.8201C34.0655 34.7001 33.4896 33.2005 33.3381 32.9306C33.5199 32.6307 34.0352 31.1611 34.1564 30.9811V30.8912H32.9441C32.8835 31.0411 32.4592 32.2708 32.3683 32.4807L32.1258 32.5107V30.8912H30.9741V34.94Z" fill="#3A3939"/>
<path d="M35.8836 33.3505L36.0654 32.5707C36.126 32.3308 36.1563 32.1208 36.1866 31.9109H36.2472C36.2776 32.1208 36.3079 32.3308 36.3685 32.5707L36.52 33.3505H35.8836ZM34.3379 34.94H35.5502L35.732 34.1602H36.6715L36.8534 34.94H38.0657L36.9746 30.9212H35.4896L34.3379 34.94Z" fill="#3A3939"/>
<path d="M40.3996 34.94H41.7937L42.8545 30.9212H41.6422L41.2785 32.8706C41.2179 33.1705 41.1876 33.4405 41.1573 33.7704H41.0967C41.0664 33.4704 41.0057 33.1705 40.9754 32.8706L40.5814 30.9212H39.3691L40.3996 34.94Z" fill="#3A3939"/>
<path d="M44.794 34.0403C44.4303 34.0403 44.1879 33.7104 44.1879 32.9606C44.1879 32.2408 44.4303 31.8809 44.794 31.8809C45.1274 31.8809 45.4002 32.2408 45.4002 32.9606C45.4002 33.6804 45.1577 34.0403 44.794 34.0403ZM44.794 35C45.9457 35 46.6125 34.2502 46.6125 32.9306C46.6125 31.611 45.9457 30.8612 44.794 30.8612C43.612 30.8612 42.9756 31.611 42.9756 32.9306C42.9756 34.2502 43.6423 35 44.794 35Z" fill="#3A3939"/>
<path d="M48.2796 33.9803V31.9109H48.5827C49.0676 31.9109 49.1888 32.3008 49.1888 32.9606C49.1888 33.6204 49.0676 34.0103 48.5827 34.0103H48.2796V33.9803ZM47.1279 34.94H48.6736C49.8556 34.94 50.4314 34.3102 50.4314 32.9306C50.4314 31.551 49.8556 30.9212 48.6736 30.9212H47.1279V34.94Z" fill="#3A3939"/>
<path d="M52.0979 33.3505L52.2798 32.5707C52.3404 32.3308 52.3707 32.1208 52.401 31.9109H52.4616C52.4919 32.1208 52.5222 32.3308 52.5828 32.5707L52.7344 33.3505H52.0979ZM50.5522 34.94H51.7645L51.9464 34.1602H52.8859L53.0678 34.94H54.2801L53.189 30.9212H51.7039L50.5522 34.94Z" fill="#3A3939"/>
</g>
<defs>
<clipPath id="clip0">
<rect width="54.25" height="35" fill="white"/>
</clipPath>
</defs>
</svg>
