<svg width="79" height="52" viewBox="0 0 79 52" fill="none" xmlns="http://www.w3.org/2000/svg">
<g clip-path="url(#clip0)">
<path fill-rule="evenodd" clip-rule="evenodd" d="M37.5581 11.6298V14.7044H41.795C42.1922 14.7044 42.8542 14.6598 43.1631 14.3033C43.4721 13.9914 43.5603 13.5904 43.5603 13.1448C43.5603 12.6992 43.4721 12.3428 43.1631 11.9863C42.8983 11.6744 42.1922 11.6298 41.795 11.6298H37.5581ZM37.5581 26.3342V29.8989H42.2804C42.7218 29.8989 43.3397 29.8543 43.6486 29.4979C44.0017 29.0968 44.1341 28.6512 44.1341 28.1165C44.1341 27.6264 44.0017 27.1808 43.6927 26.7798C43.4279 26.4233 42.7218 26.3788 42.2804 26.3788H37.5581V26.3342ZM45.3257 13.1894C45.3257 14.0805 45.0609 14.838 44.443 15.5064C43.781 16.2639 42.7659 16.4867 41.7508 16.4867H35.7927V9.89203H41.795C42.7659 9.89203 43.8251 10.0703 44.4872 10.8723C45.0609 11.4961 45.3257 12.2982 45.3257 13.1894ZM45.8553 28.072C45.8553 29.0077 45.5905 29.8543 44.9726 30.5673C44.3106 31.3693 43.2514 31.6367 42.2363 31.6367H35.7927V24.5964H42.2804C43.2955 24.5964 44.3547 24.8192 45.0168 25.6213C45.5905 26.3342 45.8553 27.1808 45.8553 28.072ZM45.0168 1.96058L48.8123 13.5013H46.9587L43.119 1.78235C42.8542 1.78235 42.6335 1.78235 42.3687 1.78235H29.5257V1.73779H27.319V1.78235H21.0078V16.5313H10.7687V1.78235H1.76536V39.7909H10.7687V24.5964H21.052V39.7909H30.0112V16.7986H31.7765V39.7909H43.1631C44.752 39.7909 46.2966 39.5681 47.7972 39.0334C49.1654 38.5878 50.4453 37.8749 51.5486 36.85C52.6078 35.8698 53.4022 34.7112 53.976 33.3745C54.5939 31.8595 54.8587 30.2554 54.8587 28.6512C54.8587 26.8689 54.5939 24.8192 53.4905 23.3933C52.6078 22.2348 51.5045 21.2099 50.2687 20.4524L50.048 20.3188L50.2687 20.1851C51.3721 19.4722 52.2547 18.4027 53.0492 17.3333C54.0201 15.9966 54.3732 14.3925 54.3732 12.7438C54.3732 10.7386 53.976 8.77806 53.005 6.99572C52.0782 5.30249 50.6659 4.05484 48.9447 3.16367C47.6648 2.53985 46.3849 2.13882 45.0168 1.96058ZM55.5207 34.1765L57.3743 39.7909H64.0827L76.5726 1.78235H67.2162L60.7726 23.6607L54.2849 1.78235H50.0922C51.9458 2.8072 53.4464 4.23308 54.4615 6.10454C55.6089 8.15424 56.0503 10.3822 56.0503 12.6992C56.0503 14.7044 55.5648 16.665 54.4173 18.3136C53.9318 18.982 53.4464 19.6058 52.8726 20.1851C53.6229 20.8089 54.2408 21.5219 54.8587 22.2794C56.2268 24.0617 56.5799 26.4233 56.5799 28.6067C56.5799 30.4781 56.3151 32.3051 55.5648 34.0428L55.5207 34.1765ZM60.7726 17.467L65.8922 0H79L65.3626 41.5287H56.1385L54.4173 36.2262C53.9318 36.9392 53.3581 37.6075 52.7402 38.1868C51.4603 39.3453 50.0039 40.1474 48.3709 40.7267C46.6939 41.3059 44.9285 41.5733 43.2073 41.5733H19.2866V26.3342H12.4899V41.5287H0V0H12.4899V14.7489H19.2425V0H42.3687C42.4128 0 42.5011 0 42.5452 0H55.5648L60.7726 17.467Z" fill="#B69052"/>
<path d="M0 51.9108H1.67709V49.6829H3.08939V51.9108H4.81061V45.9399H3.08939V48.2124H1.67709V45.9399H0V51.9108Z" fill="#B69052"/>
<path d="M8.20896 50.5743C7.67935 50.5743 7.32628 50.0841 7.32628 48.9702C7.32628 47.9008 7.67935 47.3661 8.20896 47.3661C8.69443 47.3661 9.09164 47.9008 9.09164 48.9702C9.09164 50.0396 8.69443 50.5743 8.20896 50.5743ZM8.20896 52.0002C9.88605 52.0002 10.857 50.8862 10.857 48.9256C10.857 46.965 9.88605 45.8511 8.20896 45.8511C6.48773 45.8511 5.56091 46.965 5.56091 48.9256C5.56091 50.8862 6.48773 52.0002 8.20896 52.0002Z" fill="#B69052"/>
<path d="M12.49 51.9108H14.1671V47.4104H15.5353V45.9399H11.166V47.4104H12.49V51.9108Z" fill="#B69052"/>
<path d="M16.1089 51.9108H20.0809V50.4404H17.8301V49.6383H19.5072V48.2124H17.8301V47.4104H20.0809V45.9399H16.1089V51.9108Z" fill="#B69052"/>
<path d="M20.8754 51.9108H24.4944V50.4404H22.5525V45.9399H20.8754V51.9108Z" fill="#B69052"/>
<path d="M26.7452 45.9399H25.0681V51.9108H26.7452V45.9399Z" fill="#B69052"/>
<path d="M31.1586 50.6185V49.5045H31.8207C32.1737 49.5045 32.3061 49.6382 32.3061 50.0838C32.3061 50.4848 32.1737 50.6185 31.8648 50.6185H31.1586ZM31.1586 48.346V47.232H31.7765C32.1296 47.232 32.1737 47.4103 32.1737 47.7667C32.1737 48.1232 32.0855 48.346 31.7324 48.346H31.1586ZM29.5698 51.9107H32.0413C33.2771 51.9107 33.9391 51.4205 33.9391 50.3066C33.9391 49.3263 33.4536 49.0144 33.0564 48.8807V48.8361C33.4095 48.7025 33.8067 48.346 33.8067 47.5439C33.8067 46.3854 33.2329 45.9844 32.1296 45.9844H29.5698V51.9107Z" fill="#B69052"/>
<path d="M36.4989 49.5492L36.7637 48.3907C36.852 48.0342 36.8961 47.7223 36.9402 47.4104H37.0285C37.0726 47.7223 37.1168 48.0342 37.205 48.3907L37.4257 49.5492H36.4989ZM34.248 51.9108H36.0134L36.2782 50.7523H37.6464L37.9112 51.9108H39.6765L38.0877 45.9399H35.9251L34.248 51.9108Z" fill="#B69052"/>
<path d="M44.0899 44.3359H42.81L42.2363 45.0489H42.1921L41.6184 44.3359H40.3385V44.4251L41.1329 45.539H43.2955L44.0458 44.4251V44.3359H44.0899ZM39.8972 49.9503C39.8972 50.0394 39.853 50.1285 39.853 50.2177C39.853 50.886 40.162 52.0446 42.0597 52.0446C43.472 52.0446 44.3547 51.3762 44.3547 50.1731C44.3547 49.1483 43.7368 48.7472 43.0307 48.4799L42.0156 48.0789C41.7949 47.9897 41.7067 47.8561 41.7067 47.6333C41.7067 47.3659 41.8391 47.1877 42.1039 47.1877C42.3687 47.1877 42.5011 47.4105 42.5011 47.7224C42.5011 47.7669 42.5011 47.8115 42.5011 47.8561H44.1782C44.1782 47.7669 44.2223 47.6778 44.2223 47.5887C44.2223 46.9649 43.8692 45.94 42.148 45.94C40.7357 45.94 39.9854 46.653 39.9854 47.8115C39.9854 48.8364 40.515 49.2374 41.2653 49.5493L42.1921 49.9058C42.4569 49.9949 42.5452 50.1731 42.5452 50.3959C42.5452 50.6633 42.3687 50.8415 42.1039 50.8415C41.7508 50.8415 41.5743 50.5296 41.5743 50.1285C41.5743 50.084 41.5743 50.084 41.5743 49.9949L39.8972 49.9503Z" fill="#B69052"/>
<path d="M45.1051 51.9109H46.7822V49.7276H47.0911C47.1794 49.9503 47.7973 51.7327 47.8856 51.9109H49.7392V51.7327C49.6068 51.5545 48.7682 49.3265 48.5476 48.9255C48.8124 48.4799 49.5626 46.2965 49.7392 46.0292V45.8955H47.9738C47.8856 46.1183 47.2677 47.9452 47.1353 48.2571L46.7822 48.3017V45.8955H45.1051V51.9109Z" fill="#B69052"/>
<path d="M52.2547 49.5492L52.5195 48.3907C52.6078 48.0342 52.6519 47.7223 52.6961 47.4104H52.7843C52.8285 47.7223 52.8726 48.0342 52.9609 48.3907L53.1816 49.5492H52.2547ZM50.0039 51.9108H51.7693L52.0341 50.7523H53.4022L53.667 51.9108H55.4324L53.8436 45.9399H51.681L50.0039 51.9108Z" fill="#B69052"/>
<path d="M58.8308 51.9108H60.8609L62.4056 45.9399H60.6403L60.1107 48.8362C60.0224 49.2818 59.9783 49.6829 59.9341 50.173H59.8459C59.8017 49.7274 59.7135 49.2818 59.6693 48.8362L59.0956 45.9399H57.3302L58.8308 51.9108Z" fill="#B69052"/>
<path d="M65.2302 50.5743C64.7006 50.5743 64.3475 50.0841 64.3475 48.9702C64.3475 47.9008 64.7006 47.3661 65.2302 47.3661C65.7157 47.3661 66.1129 47.9008 66.1129 48.9702C66.1129 50.0396 65.7598 50.5743 65.2302 50.5743ZM65.2302 52.0002C66.9073 52.0002 67.8782 50.8862 67.8782 48.9256C67.8782 46.965 66.9073 45.8511 65.2302 45.8511C63.509 45.8511 62.5822 46.965 62.5822 48.9256C62.5822 50.8862 63.5531 52.0002 65.2302 52.0002Z" fill="#B69052"/>
<path d="M70.3056 50.4849V47.4104H70.747C71.4531 47.4104 71.6297 47.9896 71.6297 48.9699C71.6297 49.9502 71.4531 50.5295 70.747 50.5295H70.3056V50.4849ZM68.6285 51.9108H70.8794C72.6006 51.9108 73.4391 50.9751 73.4391 48.9254C73.4391 46.8757 72.6006 45.9399 70.8794 45.9399H68.6285V51.9108Z" fill="#B69052"/>
<path d="M75.8664 49.5492L76.1313 48.3907C76.2195 48.0342 76.2637 47.7223 76.3078 47.4104H76.3961C76.4402 47.7223 76.4843 48.0342 76.5726 48.3907L76.7933 49.5492H75.8664ZM73.6156 51.9108H75.381L75.6458 50.7523H77.0139L77.2788 51.9108H79.0441L77.4553 45.9399H75.2927L73.6156 51.9108Z" fill="#B69052"/>
</g>
<defs>
<clipPath id="clip0">
<rect width="79" height="52" fill="none"/>
</clipPath>
</defs>
</svg>
