<svg width="55" height="35" viewBox="0 0 55 35" fill="none" xmlns="http://www.w3.org/2000/svg">
<g clip-path="url(#clip0)">
<path fill-rule="evenodd" clip-rule="evenodd" d="M25.9195 7.82776V9.89717H28.8434C29.1175 9.89717 29.5744 9.86718 29.7876 9.62725C30.0008 9.41731 30.0617 9.14739 30.0617 8.84747C30.0617 8.54756 30.0008 8.30763 29.7876 8.0677C29.6049 7.85776 29.1175 7.82776 28.8434 7.82776H25.9195ZM25.9195 17.7249V20.1243H29.1785C29.483 20.1243 29.9094 20.0943 30.1226 19.8543C30.3663 19.5844 30.4577 19.2845 30.4577 18.9246C30.4577 18.5947 30.3663 18.2948 30.1531 18.0249C29.9704 17.7849 29.483 17.7549 29.1785 17.7549H25.9195V17.7249ZM31.28 8.87746C31.28 9.47729 31.0973 9.98715 30.6709 10.437C30.214 10.9469 29.5135 11.0968 28.813 11.0968H24.7012V6.6581H28.8434C29.5135 6.6581 30.2445 6.77806 30.7013 7.31791C31.0973 7.73779 31.28 8.27764 31.28 8.87746ZM31.6455 18.8946C31.6455 19.5244 31.4628 20.0943 31.0364 20.5741C30.5795 21.114 29.8485 21.2939 29.148 21.2939H24.7012V16.5553H29.1785C29.879 16.5553 30.61 16.7052 31.0668 17.2451C31.4628 17.7249 31.6455 18.2948 31.6455 18.8946ZM31.0668 1.31962L33.6862 9.0874H32.407L29.7571 1.19966C29.5744 1.19966 29.4221 1.19966 29.2394 1.19966H20.3762V1.16967H18.8533V1.19966H14.4979V11.1268H7.43167V1.19966H1.21831V26.7824H7.43167V16.5553H14.5283V26.7824H20.7112V11.3068H21.9295V26.7824H29.7876C30.8841 26.7824 31.9501 26.6324 32.9857 26.2725C33.9298 25.9726 34.8131 25.4927 35.5746 24.8029C36.3055 24.1431 36.8538 23.3633 37.2497 22.4636C37.6761 21.4439 37.8589 20.3642 37.8589 19.2845C37.8589 18.0848 37.6761 16.7052 36.9147 15.7455C36.3055 14.9657 35.5441 14.2759 34.6913 13.7661L34.539 13.6761L34.6913 13.5861C35.4527 13.1063 36.0619 12.3865 36.6101 11.6667C37.2802 10.7669 37.5239 9.68723 37.5239 8.57755C37.5239 7.22794 37.2497 5.90831 36.5797 4.70865C35.9401 3.56898 34.9654 2.72922 33.7776 2.12939C32.8943 1.70951 32.011 1.43959 31.0668 1.31962ZM38.3158 23.0034L39.595 26.7824H44.2245L52.8441 1.19966H46.387L41.9402 15.9255L37.4629 1.19966H34.5695C35.8487 1.88946 36.8842 2.84919 37.5848 4.10883C38.3767 5.48843 38.6812 6.988 38.6812 8.54756C38.6812 9.89717 38.3462 11.2168 37.5543 12.3265C37.2193 12.7764 36.8842 13.1962 36.4883 13.5861C37.0061 14.006 37.4325 14.4859 37.8589 14.9957C38.8031 16.1954 39.0467 17.7849 39.0467 19.2545C39.0467 20.5141 38.864 21.7438 38.3462 22.9135L38.3158 23.0034ZM41.9402 11.7566L45.4733 0H54.5192L45.1078 27.952H38.7422L37.5543 24.383C37.2193 24.8629 36.8233 25.3128 36.3969 25.7027C35.5136 26.4824 34.5085 27.0223 33.3816 27.4122C32.2242 27.8021 31.0059 27.982 29.8181 27.982H13.31V17.7249H8.61952V27.952H0V0H8.61952V9.92716H13.2795V0H29.2394C29.2698 0 29.3307 0 29.3612 0H38.3462L41.9402 11.7566Z" fill="white"/>
<path d="M0 34.94H1.15739V33.4405H2.13204V34.94H3.31989V30.9212H2.13204V32.4507H1.15739V30.9212H0V34.94Z" fill="white"/>
<path d="M5.66518 34.0403C5.29968 34.0403 5.05602 33.7104 5.05602 32.9606C5.05602 32.2408 5.29968 31.8809 5.66518 31.8809C6.00021 31.8809 6.27433 32.2408 6.27433 32.9606C6.27433 33.6804 6.00021 34.0403 5.66518 34.0403ZM5.66518 35C6.82257 35 7.49264 34.2502 7.49264 32.9306C7.49264 31.611 6.82257 30.8612 5.66518 30.8612C4.47733 30.8612 3.83772 31.611 3.83772 32.9306C3.83772 34.2502 4.47733 35 5.66518 35Z" fill="white"/>
<path d="M8.61956 34.94H9.77695V31.9109H10.7211V30.9212H7.70583V31.9109H8.61956V34.94Z" fill="white"/>
<path d="M11.1171 34.94H13.8583V33.9503H12.3049V33.4105H13.4623V32.4507H12.3049V31.9109H13.8583V30.9212H11.1171V34.94Z" fill="white"/>
<path d="M14.4065 34.94H16.904V33.9503H15.5639V30.9212H14.4065V34.94Z" fill="white"/>
<path d="M18.4574 30.9212H17.3V34.94H18.4574V30.9212Z" fill="white"/>
<path d="M21.5031 34.0703V33.3205H21.96C22.2036 33.3205 22.295 33.4105 22.295 33.7104C22.295 33.9803 22.2036 34.0703 21.9904 34.0703H21.5031ZM21.5031 32.5407V31.7909H21.9295C22.1732 31.7909 22.2036 31.9109 22.2036 32.1508C22.2036 32.3908 22.1427 32.5407 21.8991 32.5407H21.5031ZM20.4066 34.94H22.1123C22.9651 34.94 23.422 34.6101 23.422 33.8603C23.422 33.2005 23.0869 32.9906 22.8128 32.9006V32.8706C23.0565 32.7806 23.3306 32.5407 23.3306 32.0009C23.3306 31.2211 22.9346 30.9512 22.1732 30.9512H20.4066V34.94Z" fill="white"/>
<path d="M25.1885 33.3505L25.3712 32.5707C25.4322 32.3308 25.4626 32.1208 25.4931 31.9109H25.554C25.5844 32.1208 25.6149 32.3308 25.6758 32.5707L25.8281 33.3505H25.1885ZM23.6352 34.94H24.8535L25.0362 34.1602H25.9804L26.1631 34.94H27.3814L26.285 30.9212H24.7925L23.6352 34.94Z" fill="white"/>
<path d="M30.4272 29.8415H29.5439L29.148 30.3214H29.1175L28.7216 29.8415H27.8383V29.9015L28.3865 30.6513H29.879L30.3967 29.9015V29.8415H30.4272ZM27.5337 33.6204C27.5337 33.6804 27.5033 33.7404 27.5033 33.8004C27.5033 34.2502 27.7165 35.03 29.0261 35.03C30.0008 35.03 30.6099 34.5801 30.6099 33.7704C30.6099 33.0806 30.1835 32.8106 29.6962 32.6307L28.9957 32.3608C28.8434 32.3008 28.7825 32.2108 28.7825 32.0609C28.7825 31.8809 28.8739 31.7609 29.0566 31.7609C29.2393 31.7609 29.3307 31.9109 29.3307 32.1208C29.3307 32.1508 29.3307 32.1808 29.3307 32.2108H30.4881C30.4881 32.1508 30.5186 32.0909 30.5186 32.0309C30.5186 31.611 30.2749 30.9212 29.0871 30.9212C28.1124 30.9212 27.5946 31.401 27.5946 32.1808C27.5946 32.8706 27.9601 33.1406 28.4779 33.3505L29.1175 33.5904C29.3003 33.6504 29.3612 33.7704 29.3612 33.9203C29.3612 34.1003 29.2393 34.2202 29.0566 34.2202C28.8129 34.2202 28.6911 34.0103 28.6911 33.7404C28.6911 33.7104 28.6911 33.7104 28.6911 33.6504L27.5337 33.6204Z" fill="white"/>
<path d="M31.1277 34.94H32.2851V33.4704H32.4983C32.5592 33.6204 32.9856 34.82 33.0466 34.94H34.3258V34.82C34.2344 34.7001 33.6557 33.2005 33.5034 32.9306C33.6862 32.6307 34.204 31.1611 34.3258 30.9811V30.8912H33.1075C33.0466 31.0411 32.6202 32.2708 32.5288 32.4807L32.2851 32.5107V30.8912H31.1277V34.94Z" fill="white"/>
<path d="M36.0619 33.3505L36.2446 32.5707C36.3055 32.3308 36.336 32.1208 36.3664 31.9109H36.4273C36.4578 32.1208 36.4883 32.3308 36.5492 32.5707L36.7015 33.3505H36.0619ZM34.5085 34.94H35.7268L35.9096 34.1602H36.8538L37.0365 34.94H38.2548L37.1583 30.9212H35.6659L34.5085 34.94Z" fill="white"/>
<path d="M40.6001 34.94H42.0011L43.0671 30.9212H41.8488L41.4833 32.8706C41.4224 33.1705 41.392 33.4405 41.3615 33.7704H41.3006C41.2701 33.4704 41.2092 33.1705 41.1788 32.8706L40.7828 30.9212H39.5645L40.6001 34.94Z" fill="white"/>
<path d="M45.0165 34.0403C44.651 34.0403 44.4074 33.7104 44.4074 32.9606C44.4074 32.2408 44.651 31.8809 45.0165 31.8809C45.3515 31.8809 45.6257 32.2408 45.6257 32.9606C45.6257 33.6804 45.382 34.0403 45.0165 34.0403ZM45.0165 35C46.1739 35 46.844 34.2502 46.844 32.9306C46.844 31.611 46.1739 30.8612 45.0165 30.8612C43.8287 30.8612 43.1891 31.611 43.1891 32.9306C43.1891 34.2502 43.8591 35 45.0165 35Z" fill="white"/>
<path d="M48.5192 33.9803V31.9109H48.8237C49.311 31.9109 49.4329 32.3008 49.4329 32.9606C49.4329 33.6204 49.311 34.0103 48.8237 34.0103H48.5192V33.9803ZM47.3618 34.94H48.9151C50.1029 34.94 50.6816 34.3102 50.6816 32.9306C50.6816 31.551 50.1029 30.9212 48.9151 30.9212H47.3618V34.94Z" fill="white"/>
<path d="M52.3567 33.3505L52.5395 32.5707C52.6004 32.3308 52.6309 32.1208 52.6613 31.9109H52.7222C52.7527 32.1208 52.7831 32.3308 52.8441 32.5707L52.9963 33.3505H52.3567ZM50.8034 34.94H52.0217L52.2044 34.1602H53.1486L53.3314 34.94H54.5497L53.4532 30.9212H51.9608L50.8034 34.94Z" fill="white"/>
</g>
<defs>
<clipPath id="clip0">
<rect width="54.5192" height="35" fill="white"/>
</clipPath>
</defs>
</svg>
