<svg width="350" height="353" viewBox="0 0 350 353" fill="none" xmlns="http://www.w3.org/2000/svg">
<path d="M218.258 353L174.944 333.821L131.517 353L130.842 351.985L174.944 332.58L218.933 351.985L218.258 353Z" fill="#F8F8F8"/>
<path d="M262.247 20.4196L218.258 1.01534L218.933 0L262.247 19.0658L305.673 0L306.236 1.01534L262.247 20.4196Z" fill="#F8F8F8"/>
<path d="M87.5281 20.4196L43.539 1.01534L44.1016 0L87.5281 19.0658L130.842 0L131.517 1.01534L87.5281 20.4196Z" fill="#F8F8F8"/>
<path d="M0.112504 332.58H0V333.934L0.112504 333.821L43.5391 353L44.1016 351.985L0.112504 332.58Z" fill="#F8F8F8"/>
<path d="M350 2.82041L349.662 2.59478L262.247 41.0649L174.944 2.59478L87.5281 41.0649L0.112504 2.59478L0 2.70759V3.94857L0.112504 3.83575L87.5281 42.4187L174.944 3.83575L262.247 42.4187L349.662 3.83575L350 4.06138V2.82041Z" fill="#F8F8F8"/>
<path d="M350 24.8194L349.662 24.5938L262.247 63.0639L174.944 24.5938L87.5281 63.0639L0.112504 24.5938L0 24.7066V25.9476L0.112504 25.8348L87.5281 64.4177L174.944 25.8348L262.247 64.4177L349.662 25.8348L350 26.0604V24.8194Z" fill="#F8F8F8"/>
<path d="M350 46.8185L349.662 46.5928L262.247 85.063L174.944 46.5928L87.5281 85.063L0.112504 46.5928L0 46.7057V47.9466L0.112504 47.8338L87.5281 86.4167L174.944 47.8338L262.247 86.4167L349.662 47.8338L350 48.0594V46.8185Z" fill="#F8F8F8"/>
<path d="M350 68.8175L349.662 68.5919L262.247 107.062L174.944 68.5919L87.5281 107.062L0.112504 68.5919L0 68.7047V69.9457L0.112504 69.8329L87.5281 108.416L174.944 69.8329L262.247 108.416L349.662 69.8329L350 70.0585V68.8175Z" fill="#F8F8F8"/>
<path d="M350 90.8166L349.662 90.5909L262.247 129.061L174.944 90.5909L87.5281 129.061L0.112504 90.5909L0 90.7038V91.9447L0.112504 91.8319L87.5281 130.415L174.944 91.8319L262.247 130.415L349.662 91.8319L350 92.0575V90.8166Z" fill="#F8F8F8"/>
<path d="M350 112.703L349.662 112.59L262.247 151.06L174.944 112.59L87.5281 151.06L0.112504 112.59L0 112.703V113.944L0.112504 113.831L87.5281 152.414L174.944 113.831L262.247 152.414L349.662 113.831L350 114.057V112.703Z" fill="#F8F8F8"/>
<path d="M350 134.702L349.662 134.589L262.247 173.059L174.944 134.589L87.5281 173.059L0.112504 134.589L0 134.702V135.943L0.112504 135.83L87.5281 174.413L174.944 135.83L262.247 174.413L349.662 135.83L350 136.056V134.702Z" fill="#F8F8F8"/>
<path d="M350 156.701L349.662 156.588L262.247 195.058L174.944 156.588L87.5281 195.058L0.112504 156.588L0 156.701V157.942L0.112504 157.829L87.5281 196.412L174.944 157.829L262.247 196.412L349.662 157.829L350 158.055V156.701Z" fill="#F8F8F8"/>
<path d="M350 178.7L349.662 178.587L262.247 217.057L174.944 178.587L87.5281 217.057L0.112504 178.587L0 178.7V179.941L0.112504 179.828L87.5281 218.411L174.944 179.828L262.247 218.411L349.662 179.828L350 180.054V178.7Z" fill="#F8F8F8"/>
<path d="M350 200.699L349.662 200.586L262.247 239.056L174.944 200.586L87.5281 239.056L0.112504 200.586L0 200.699V201.94L0.112504 201.827L87.5281 240.41L174.944 201.827L262.247 240.41L349.662 201.827L350 202.053V200.699Z" fill="#F8F8F8"/>
<path d="M350 222.698L349.662 222.585L262.247 261.055L174.944 222.585L87.5281 261.055L0.112504 222.585L0 222.698V223.939L0.112504 223.826L87.5281 262.409L174.944 223.826L262.247 262.409L349.662 223.826L350 224.052V222.698Z" fill="#F8F8F8"/>
<path d="M350 244.697L349.662 244.584L262.247 283.054L174.944 244.584L87.5281 283.054L0.112504 244.584H0V245.938L0.112504 245.825L87.5281 284.408L174.944 245.825L262.247 284.408L349.662 245.825L350 246.051V244.697Z" fill="#F8F8F8"/>
<path d="M350 266.696L349.662 266.583L262.247 305.053L174.944 266.583L87.5281 305.053L0.112504 266.583H0V267.937L0.112504 267.824L87.5281 306.407L174.944 267.824L262.247 306.407L349.662 267.824L350 268.05V266.696Z" fill="#F8F8F8"/>
<path d="M350 288.695L349.662 288.582L262.247 327.052L174.944 288.582L87.5281 327.052L0.112504 288.582H0V289.936L0.112504 289.823L87.5281 328.406L174.944 289.823L262.247 328.406L349.662 289.823L350 290.049V288.695Z" fill="#F8F8F8"/>
<path d="M350 310.694L349.662 310.581L262.247 349.052L174.944 310.581L87.5281 349.052L0.112504 310.581H0V311.935L0.112504 311.822L87.5281 350.405L174.944 311.822L262.247 350.405L349.662 311.822L350 312.048V310.694Z" fill="#F8F8F8"/>
<path d="M350 332.693L349.662 332.58L305.673 351.985L306.236 353L349.662 333.821L350 334.047V332.693Z" fill="#F8F8F8"/>
</svg>
