<svg width="141" height="70" viewBox="0 0 141 70" fill="none" xmlns="http://www.w3.org/2000/svg">
<g clip-path="url(#clip0)">
<path fill-rule="evenodd" clip-rule="evenodd" d="M65.8901 66.2231L66.371 67.6315L67.846 67.6635L66.6596 68.5597L67.0764 69.968L65.858 69.1358L64.6396 69.968L65.0564 68.5597L63.8701 67.6635L65.345 67.6315L65.8901 66.2231ZM56.8162 66.2231L57.2971 67.6315L58.772 67.6635L57.5857 68.5597L58.0025 69.968L56.7841 69.1358L55.5657 69.968L55.9825 68.5597L54.7962 67.6635L56.2711 67.6315L56.8162 66.2231ZM84.102 66.2231L84.583 67.6315L86.0579 67.6635L84.8715 68.5597L85.2884 69.968L84.07 69.1358L82.8515 69.968L83.2684 68.5597L82.082 67.6635L83.5569 67.6315L84.102 66.2231ZM74.9961 66.2231L75.477 67.6315L76.9519 67.6635L75.7656 68.5597L76.1824 69.968L74.964 69.1358L73.7456 69.968L74.1624 68.5597L72.9761 67.6635L74.451 67.6315L74.9961 66.2231Z" fill="white"/>
<path fill-rule="evenodd" clip-rule="evenodd" d="M93.0476 61.6782C94.8752 61.3261 96.8311 60.0778 98.8831 57.8693C100.711 55.9168 101.737 54.0604 101.929 52.204C102.602 54.5405 101.897 56.781 99.845 58.9895C97.8251 61.198 95.5486 62.0622 93.0476 61.6782ZM93.0156 43.8501C91.0276 44.3622 89.1038 45.5785 87.2762 47.5309C85.6089 49.2913 84.5829 51.2118 84.134 53.2282C83.5569 50.8597 84.2944 48.5872 86.3143 46.4107C88.3985 44.2022 90.6108 43.338 93.0156 43.8501ZM96.8311 56.3649C100.134 52.8441 100.518 49.8675 97.9533 47.4669C95.4203 45.0984 92.4705 45.7385 89.0718 49.3553C85.8654 52.7801 85.5448 55.6608 88.1099 58.0293C90.6429 60.3979 93.5606 59.8537 96.8311 56.3649ZM51.3012 52.3C51.9746 51.2758 52.2952 50.1235 52.2952 48.8752C52.2952 47.723 51.9104 46.6027 51.1409 45.4505C52.8723 46.1866 53.7381 47.3389 53.7381 48.9392C53.7701 50.5076 52.9685 51.6279 51.3012 52.3ZM42.067 44.8743V60.846H41.4258C41.1692 60.846 40.7845 60.878 40.2394 60.942C39.7585 61.006 39.2134 61.038 38.6042 61.038V60.7499C39.2454 60.6859 39.7905 60.3659 40.2073 59.7897C40.6242 59.2136 40.8486 58.1253 40.8486 56.525V48.7472C40.8486 46.5387 40.1112 45.2904 38.6042 44.9703V44.6823C39.2134 44.7463 40.3997 44.8103 42.067 44.8743ZM44.4397 49.0353V52.332C45.0489 52.4921 45.6902 52.5561 46.3956 52.5561C48.6721 52.5561 49.7943 51.3718 49.7943 49.0033C49.7943 46.7948 48.6721 45.6745 46.3956 45.6745C45.6581 45.6745 45.113 45.8345 44.6962 46.1226C44.5359 46.5067 44.4397 47.4989 44.4397 49.0353ZM28.8569 61.6782C30.6846 61.3261 32.6404 60.0778 34.6925 57.8693C36.5201 55.9168 37.5461 54.0604 37.7705 52.204C38.4439 54.5405 37.7385 56.781 35.6864 58.9895C33.6023 61.198 31.3579 62.0622 28.8569 61.6782ZM28.8249 43.8501C26.837 44.3622 24.9132 45.5785 23.0856 47.5309C21.4183 49.2913 20.3602 51.2118 19.9434 53.2282C19.3662 50.8597 20.1037 48.5872 22.1237 46.4107C24.1757 44.2022 26.4201 43.338 28.8249 43.8501ZM32.6404 56.3649C35.9429 52.8441 36.3277 49.8675 33.7626 47.4669C31.2296 45.0984 28.2798 45.7385 24.8811 49.3553C21.6748 52.7801 21.3541 55.6608 23.9192 58.0293C26.4522 60.3979 29.37 59.8537 32.6404 56.3649ZM3.23839 44.8743V60.846L0 61.006V60.7179C0.480949 60.5899 0.897772 60.3338 1.25047 59.9178C1.5711 59.5337 1.79554 59.0856 1.89173 58.5734C1.98792 58.0613 2.05205 57.1971 2.05205 55.9488V48.9713C2.05205 47.4989 1.85967 46.4747 1.47491 45.9306C1.09015 45.3864 0.609202 45.0664 0 44.9383V44.6503C0.641266 44.7783 1.69935 44.8103 3.23839 44.8743ZM15.6789 60.846V44.8743C16.7691 44.8743 17.8592 44.8103 18.9815 44.6823V44.9703C17.6989 45.3224 17.0256 46.5707 16.9615 48.6512L16.9294 50.0915V56.9411C16.9294 59.2136 17.6027 60.4939 18.9815 60.7819V61.07C17.0577 60.91 15.9675 60.846 15.6789 60.846ZM14.5567 44.8743V60.846C14.1078 60.846 12.9856 60.91 11.2221 61.038V60.7499C11.8313 60.6219 12.3444 60.2698 12.7291 59.6937C13.1139 59.1176 13.3063 58.0293 13.3063 56.429V53.2282H5.61107V56.9091C5.61107 58.3174 5.80345 59.2776 6.22028 59.7897C6.6371 60.3018 7.15011 60.6219 7.72725 60.7499V61.038C6.47678 60.942 5.35457 60.878 4.36061 60.846V44.8743C5.25838 44.8743 6.38059 44.8103 7.72725 44.6823V44.9703C6.92567 45.1944 6.38059 45.6105 6.05996 46.2186C5.73933 46.8268 5.61107 47.915 5.61107 49.4194V51.9479H13.3383V49.0673C13.3383 47.819 13.178 46.8588 12.8253 46.1866C12.4726 45.5465 11.9275 45.1304 11.2221 44.9703V44.6823C12.3123 44.8103 13.4345 44.8743 14.5567 44.8743ZM33.6985 57.3252C32.416 58.6695 31.1334 59.6297 29.8509 60.1738C28.5684 60.7179 27.35 60.878 26.1957 60.6219C25.0414 60.3979 23.9833 59.8217 23.0214 58.9255C21.4824 57.4852 20.8091 55.8208 21.0014 53.9324C21.1938 52.044 22.1878 50.1555 23.9833 48.2031C25.843 46.2186 27.7347 45.0664 29.5944 44.8103C31.4541 44.5543 33.1214 45.1304 34.5963 46.5067C36.1032 47.915 36.8086 49.5794 36.7125 51.4358C36.6163 53.3242 35.5902 55.2767 33.6985 57.3252ZM43.6061 60.846H43.1572V44.8743C43.7664 44.8743 44.4076 44.8423 45.113 44.8103C45.9146 44.7463 46.5559 44.7143 47.0368 44.7143C48.4155 44.7143 49.4416 45.1304 50.1149 45.9946C50.7882 46.8268 51.1409 47.851 51.1409 49.0993C51.1409 51.1798 50.2432 52.5241 48.4797 53.1322C49.3454 53.2602 50.1149 53.5163 50.692 53.9324C51.3333 54.3805 52.2952 55.2447 53.5777 56.525C55.5657 58.5414 57.1688 59.5337 58.3872 59.5337C58.6437 59.5337 58.9002 59.4376 59.1567 59.2776L59.2209 59.5657C58.804 60.0778 58.259 60.3659 57.5536 60.3659C56.7841 60.3659 55.9825 60.0778 55.1488 59.5017C54.3473 58.9575 53.193 57.9013 51.6219 56.3009C49.7301 54.3485 47.9025 53.3883 46.1391 53.3883C47.2292 53.7403 48.7362 54.8926 50.6279 56.8451C51.9425 58.2214 53.0327 59.2136 53.8342 59.8537C54.6358 60.4939 55.4053 60.7819 56.1428 60.7819V60.91C55.7901 61.038 55.4695 61.102 55.1168 61.102C54.1228 61.102 53.2892 60.846 52.5517 60.3659C52.1669 60.0778 51.686 59.6617 51.0768 59.1176C50.4676 58.5414 49.7622 57.8373 48.9286 56.9411C47.7102 55.6608 46.8124 54.7646 46.2352 54.3165C45.594 53.8364 44.9848 53.5163 44.4076 53.3243V56.9091C44.4076 59.3096 45.1451 60.6219 46.5879 60.846V61.134C45.4016 60.91 44.4076 60.846 43.6061 60.846ZM63.7739 60.846V44.8743C65.0243 44.8743 66.1465 44.8103 67.1084 44.6823V44.9703C66.4992 45.0664 66.0183 45.4185 65.6335 45.9306C65.2167 46.4747 65.0243 47.627 65.0243 49.3553V56.589C65.0243 58.1574 65.2488 59.1816 65.6656 59.7257C66.0824 60.2698 66.5634 60.5899 67.1084 60.7499V61.038C66.1786 60.91 65.0564 60.846 63.7739 60.846ZM62.6516 44.8743V60.846C61.9142 60.846 60.824 60.91 59.3171 61.038V60.7499C60.0866 60.5579 60.6317 60.1098 60.9523 59.4376C61.2729 58.7655 61.4012 57.5492 61.4012 55.8208V49.0353C61.4012 47.723 61.2409 46.7628 60.9202 46.1226C60.5996 45.5145 60.0866 45.1304 59.3171 44.9383V44.6503C60.5355 44.7783 61.6577 44.8423 62.6516 44.8743ZM70.5071 60.846L82.3064 44.8743H83.7813L72.8478 59.7257H77.7214C79.6452 59.7257 80.9918 59.4056 81.7934 58.7975C82.5629 58.1894 83.1721 57.4212 83.589 56.461H83.9417C83.9096 56.9091 83.7493 57.6772 83.3966 58.7975C83.0439 59.8537 82.8836 60.5899 82.8194 61.006C81.4728 60.878 80.2223 60.814 79.1001 60.814H70.5071V60.846ZM80.8636 44.8743L69.0964 60.846H67.6214L78.6191 45.9946H73.2966C71.6294 45.9946 70.4751 46.1866 69.7697 46.5387C69.0643 46.9228 68.5513 47.691 68.1665 48.8112H67.8138C67.8138 48.3311 67.91 47.5309 68.0703 46.4107C68.1345 45.8666 68.1986 45.4825 68.1986 45.2584C68.1986 45.2264 68.1986 45.0344 68.1665 44.7143C69.1926 44.8423 70.5713 44.9063 72.3348 44.9063H80.8636V44.8743ZM97.8892 57.3252C96.6066 58.6695 95.3241 59.6297 94.0416 60.1738C92.7591 60.7179 91.5406 60.878 90.3864 60.6219C89.2321 60.3979 88.174 59.8217 87.2121 58.9255C85.6731 57.4852 84.9997 55.8208 85.1921 53.9324C85.3845 52.044 86.3785 50.1555 88.174 48.2031C90.0337 46.2186 91.9254 45.0664 93.753 44.8103C95.6127 44.5543 97.28 45.1304 98.7549 46.5067C100.262 47.915 100.967 49.5794 100.871 51.4358C100.807 53.3242 99.7809 55.2767 97.8892 57.3252ZM120.398 58.2854L104.622 44.8743H106.418L119.179 55.7248V49.4194C119.179 48.3631 119.115 47.5629 118.955 46.9868C118.826 46.4427 118.538 45.9946 118.089 45.6425C117.64 45.2904 117.095 45.0664 116.422 44.9383V44.6503C116.422 44.6503 116.614 44.6503 116.967 44.6823C118.281 44.7783 119.179 44.8103 119.66 44.8103C120.109 44.8103 121.135 44.7463 122.77 44.6183V44.9063C122.257 44.9703 121.776 45.1944 121.392 45.5465C121.007 45.8986 120.75 46.3147 120.59 46.8268C120.462 47.3389 120.366 48.0751 120.366 49.0033V58.2854H120.398ZM102.891 44.8743L120.366 59.7897V61.038H120.077L106.322 49.3553V56.3969C106.322 57.9333 106.514 58.9895 106.899 59.5977C107.284 60.2058 107.925 60.5899 108.759 60.7819V61.07C107.22 60.942 106.194 60.878 105.648 60.878C105.039 60.878 104.109 60.942 102.859 61.07V60.7819C103.725 60.5899 104.334 60.1738 104.622 59.5657C104.943 58.9575 105.103 57.8693 105.103 56.3009V48.3951L104.013 47.4669C102.506 46.1866 101.224 45.3544 100.166 45.0024V44.7143L102.891 44.8743ZM132.87 60.846H132.485V44.8743H137.968C138.962 44.8743 139.956 44.8103 140.918 44.6823C140.918 44.8743 140.918 45.2264 140.886 45.7385C140.854 46.2186 140.854 46.7948 140.854 47.4669C140.854 47.915 140.822 48.3631 140.79 48.8112H140.405C140.373 47.979 140.181 47.3069 139.796 46.7307C139.379 46.1866 138.545 45.8986 137.231 45.8986H133.8V56.749C133.8 57.9973 133.96 58.9255 134.345 59.5657C134.698 60.2058 135.243 60.5899 135.98 60.7499V61.038C134.089 60.91 133.095 60.846 132.87 60.846ZM126.329 44.8743H131.331V60.846H130.882C130.241 60.846 129.247 60.91 127.932 61.038V60.7499C128.766 60.5259 129.343 60.1098 129.664 59.4697C129.985 58.8295 130.113 57.7733 130.113 56.3009V45.9626H126.233C125.239 45.9626 124.566 46.1546 124.149 46.5707C123.732 46.9868 123.412 47.755 123.123 48.8752H122.802C122.802 48.7472 122.802 48.5872 122.802 48.4591C122.802 48.2671 122.834 48.011 122.866 47.691C122.995 46.6027 123.059 45.6425 123.059 44.7463C123.604 44.8103 124.277 44.8743 125.079 44.8743H126.329Z" fill="white"/>
<path fill-rule="evenodd" clip-rule="evenodd" d="M81.7294 9.69821C81.6332 10.8825 81.1523 11.5866 80.6072 11.9067C80.1904 11.3946 79.7736 10.9145 79.2926 10.4664C79.9659 10.2103 80.2224 8.77 80.7675 7.84179C81.537 6.5935 83.044 5.47325 84.5189 5.79332C84.4227 5.85733 81.9539 6.91358 81.7294 9.69821ZM83.9738 12.963C83.557 14.0832 82.9478 14.6273 82.3386 14.8194C82.0821 14.2112 81.7615 13.6351 81.4408 13.091C82.1783 13.027 82.7554 11.6827 83.557 10.9465C84.6151 9.92226 86.3786 9.25011 87.7253 9.95427C87.597 9.95427 84.9037 10.3064 83.9738 12.963ZM85.2884 16.7078C84.6151 17.7 83.8777 18.0521 83.2364 18.0521C83.1402 17.412 83.0119 16.7718 82.8196 16.1317C83.557 16.2277 84.4548 15.1074 85.4167 14.5953C86.6992 13.8912 88.591 13.6991 89.6811 14.6914C89.5849 14.7234 86.8916 14.3713 85.2884 16.7078ZM85.6091 20.6447C84.7113 21.4129 83.8777 21.5729 83.2685 21.4129C83.3326 20.9008 83.3646 20.3887 83.3646 19.8765C83.3646 19.7485 83.3646 19.5885 83.3646 19.4604C84.038 19.7485 85.2243 18.8843 86.2503 18.6603C87.6932 18.3082 89.5208 18.5962 90.3544 19.8765C90.2583 19.8445 87.7573 18.8203 85.6091 20.6447ZM84.9037 24.5496C83.8135 25.0617 83.012 24.9977 82.4348 24.6776C82.6913 24.0695 82.8837 23.4614 83.0119 22.8212C83.5891 23.2693 84.9357 22.7572 86.0259 22.7892C87.5008 22.8212 89.2002 23.5894 89.6811 25.0297C89.5849 24.9657 87.4367 23.3333 84.9037 24.5496ZM83.2043 28.1024C82.018 28.3265 81.2485 28.0384 80.7675 27.5903C81.1523 27.0782 81.505 26.5341 81.8256 25.9579C82.2424 26.5341 83.7173 26.406 84.7434 26.6941C86.1541 27.1102 87.597 28.2945 87.6932 29.7988C87.6291 29.7348 85.9618 27.5903 83.2043 28.1024ZM59.1569 30.0549C59.253 28.8706 59.734 28.1664 60.2791 27.8464C60.6959 28.3585 61.1127 28.8386 61.5937 29.2867C60.9203 29.5428 60.6638 30.9831 60.1188 31.9113C59.3492 33.1596 57.8423 34.2798 56.3674 33.9598C56.4635 33.8957 58.9324 32.8395 59.1569 30.0549ZM56.9124 26.7901C57.3292 25.6699 57.9385 25.1257 58.5477 24.9337C58.8042 25.5418 59.1248 26.118 59.4454 26.6621C58.708 26.7261 58.1308 28.0704 57.3293 28.8066C56.2712 29.8308 54.5077 30.503 53.161 29.7988C53.2893 29.7988 55.9826 29.4147 56.9124 26.7901ZM55.5978 23.0453C56.2712 22.053 57.0086 21.701 57.6499 21.701C57.7461 22.3411 57.8743 22.9813 58.0667 23.6214C57.3293 23.5254 56.4315 24.6456 55.4696 25.1577C54.187 25.8619 52.2953 26.054 51.2052 25.0617C51.3013 25.0297 53.9947 25.3498 55.5978 23.0453ZM55.2772 19.1084C56.175 18.3402 57.0086 18.1802 57.6178 18.3402C57.5537 18.8523 57.5216 19.3644 57.5216 19.8765C57.5216 20.0046 57.5216 20.1326 57.5216 20.2926C56.8483 20.0046 55.662 20.8688 54.6359 21.0928C53.1931 21.4449 51.3655 21.1568 50.5318 19.8765C50.628 19.9085 53.129 20.9328 55.2772 19.1084ZM55.9826 15.2035C57.0727 14.6914 57.8743 14.7554 58.4515 15.0754C58.195 15.6836 58.0026 16.2917 57.8743 16.9319C57.2972 16.4838 55.9505 16.9959 54.8604 16.9639C53.3855 16.9319 51.6861 16.1637 51.2052 14.7234C51.3013 14.7874 53.4496 16.4198 55.9826 15.2035ZM57.6819 11.6187C58.8683 11.3946 59.6378 11.6827 60.1188 12.1308C59.734 12.6429 59.3813 13.187 59.0607 13.7631C58.6118 13.187 57.1689 13.315 56.1429 13.027C54.7321 12.6109 53.2893 11.4266 53.1931 9.92226C53.2572 10.0183 54.9245 12.1308 57.6819 11.6187ZM60.247 8.60996C61.4333 8.70599 62.1387 9.1861 62.4594 9.73022C61.9464 10.1463 61.4654 10.5624 61.0165 11.0425C60.76 10.3704 59.3172 10.1143 58.3873 9.57018C57.1369 8.80201 56.0147 7.29766 56.3353 5.82533C56.3994 5.92135 57.4575 8.38591 60.247 8.60996ZM63.5175 6.36945C64.6397 6.78555 65.1848 7.39369 65.3771 8.00183C64.7679 8.25788 64.1908 8.57796 63.6457 8.89803C63.5816 8.16186 62.2349 7.58573 61.4975 6.78555C60.4715 5.72931 59.7981 3.9689 60.5035 2.62459C60.5035 2.75262 60.8883 5.44124 63.5175 6.36945ZM67.2689 5.02514C68.2628 5.6973 68.6155 6.43347 68.6155 7.07361C67.9743 7.16963 67.333 7.29766 66.6917 7.48971C66.7879 6.75354 65.6657 5.85733 65.1527 4.89711C64.4473 3.61682 64.2549 1.7604 65.2489 0.640141C65.2809 0.76817 64.9603 3.45679 67.2689 5.02514ZM71.2127 4.70507C71.9822 5.60128 72.1425 6.43347 71.9822 7.04161C71.4692 6.97759 70.9561 6.94558 70.4431 6.94558C70.3149 6.94558 70.1866 6.94558 70.0263 6.94558C70.3149 6.27343 69.4492 5.08916 69.2247 4.06492C68.872 2.62459 69.1606 0.800177 70.4431 -0.0320129C70.4111 0.0960163 69.385 2.59259 71.2127 4.70507ZM75.1244 5.44124C75.6374 6.52949 75.5733 7.32967 75.2526 7.9058C74.6434 7.64974 74.0342 7.4577 73.393 7.32967C73.8418 6.75354 73.3288 5.40923 73.3609 4.32098C73.393 2.84865 74.1625 1.15226 75.6053 0.672148C75.5412 0.736163 73.906 2.91266 75.1244 5.44124ZM45.1131 36.9044C46.6201 36.8724 48.4157 36.6804 50.628 36.2963C66.3711 33.4156 82.2745 29.3187 98.4023 30.439C106.899 31.0151 108.31 33.5757 107.284 36.3923C107.027 35.3681 106.386 34.4719 105.488 33.7357C105.424 33.6717 105.36 33.6077 105.264 33.5437C104.751 33.1596 104.078 32.7115 102.603 32.3914C102.41 32.3594 102.218 32.2954 102.025 32.2634C101.192 32.1033 100.134 32.0073 98.755 31.9113C82.018 31.0471 69.866 34.2158 54.0267 37.2885C47.2293 38.6008 40.1754 39.9451 33.3138 34.888C35.1415 35.7202 37.2256 36.3603 39.5021 36.7124C41.4259 37.0325 43.3176 37.0645 45.1131 36.9044ZM42.7725 39.465C43.029 39.433 45.6261 39.5931 49.5379 39.177C65.2809 36.1683 81.1843 31.9113 97.3122 32.8395C105.809 33.3516 107.22 35.8802 106.194 38.7289C105.937 37.7046 105.296 36.8084 104.398 36.1043C104.334 36.0402 104.27 35.9762 104.174 35.9122C103.661 35.5281 102.987 35.08 101.512 34.792C101.32 34.7599 101.128 34.7279 100.935 34.6959C100.102 34.5679 99.0436 34.4399 97.6649 34.3759C80.9278 33.6717 68.7758 36.9684 52.9366 40.2012C52.2312 40.3612 50.3395 40.5213 49.6341 40.6813C44.2474 41.0014 43.6062 39.8811 42.7725 39.465ZM78.7155 7.13763C78.9399 8.3219 78.6513 9.09007 78.2025 9.57018C77.6894 9.1861 77.1444 8.83402 76.5672 8.51394C77.1444 8.06584 77.0161 6.62551 77.3047 5.60128C77.7215 4.19295 78.9078 2.72062 80.4148 2.6566C80.3186 2.72062 78.2025 4.385 78.7155 7.13763Z" fill="white"/>
</g>
<defs>
<clipPath id="clip0">
<rect width="140.886" height="70" fill="white"/>
</clipPath>
</defs>
</svg>
