<svg width="18" height="18" viewBox="0 0 18 18" fill="none" xmlns="http://www.w3.org/2000/svg">
<path d="M8.99982 0.157715C4.13666 0.157715 0.157715 4.13666 0.157715 8.99982C0.157715 13.863 4.13666 17.8419 8.99982 17.8419C13.863 17.8419 17.8419 13.863 17.8419 8.99982C17.8419 4.13666 13.863 0.157715 8.99982 0.157715ZM13.0893 10.2156H8.55772C8.11561 10.2156 7.89456 9.88403 7.89456 9.55245V4.13666C7.89456 3.69456 8.22614 3.4735 8.55772 3.4735C8.99982 3.4735 9.22087 3.80508 9.22087 4.13666V8.77877H13.0893C13.5314 8.77877 13.7525 9.11035 13.7525 9.44193C13.863 9.88403 13.5314 10.2156 13.0893 10.2156Z" fill="#E4E4E4"/>
</svg>
