<svg width="28" height="19" viewBox="0 0 28 19" fill="none" xmlns="http://www.w3.org/2000/svg">
<path d="M7.24923 15.2276C7.24923 14.9122 7.00916 14.6565 6.71308 14.6565C6.41699 14.6565 6.18492 14.9122 6.18492 15.2276C6.18492 15.3213 6.17692 15.3298 6.12091 15.4321C5.83283 15.9094 5.83283 16.5316 6.12091 17.0089C6.20093 17.1282 6.20093 17.2816 6.12091 17.4095C5.97687 17.6481 5.89684 17.9209 5.90484 18.2021C5.90484 18.5175 6.14491 18.7732 6.433 18.7732C6.72108 18.7732 6.96915 18.5175 6.96915 18.2021C6.96915 18.1084 6.97715 18.0999 7.03317 17.9976C7.32125 17.5203 7.32125 16.8981 7.03317 16.4208C6.95314 16.3015 6.95314 16.148 7.03317 16.0202C7.17721 15.7816 7.24923 15.5088 7.24923 15.2276Z" fill="#B48D49"/>
<path d="M14.676 15.2276C14.676 14.9122 14.4359 14.6565 14.1478 14.6565C13.8598 14.6565 13.6117 14.9122 13.6117 15.2276C13.6117 15.3213 13.6037 15.3298 13.5477 15.4321C13.2596 15.9094 13.2596 16.5316 13.5477 17.0089C13.6277 17.1282 13.6277 17.2816 13.5477 17.4095C13.4036 17.6481 13.3236 17.9209 13.3316 18.2021C13.3316 18.5175 13.5717 18.7732 13.8678 18.7732C14.1638 18.7732 14.3959 18.5175 14.3959 18.2021C14.3959 18.1084 14.4039 18.0999 14.4599 17.9976C14.748 17.5203 14.748 16.8981 14.4599 16.4208C14.3799 16.3015 14.3799 16.148 14.4599 16.0202C14.604 15.7816 14.676 15.5088 14.676 15.2276Z" fill="#B48D49"/>
<path d="M10.9631 15.2276C10.9631 14.9122 10.723 14.6565 10.4349 14.6565C10.1469 14.6565 9.89879 14.9122 9.89879 15.2276C9.89879 15.3213 9.89079 15.3298 9.83478 15.4321C9.54669 15.9094 9.54669 16.5316 9.83478 17.0089C9.9148 17.1282 9.9148 17.2816 9.83478 17.4095C9.69073 17.6481 9.61071 17.9209 9.61871 18.2021C9.61871 18.5175 9.85878 18.7732 10.1549 18.7732C10.451 18.7732 10.683 18.5175 10.683 18.2021C10.683 18.1084 10.691 18.0999 10.747 17.9976C11.0351 17.5203 11.0351 16.8981 10.747 16.4208C10.667 16.3015 10.667 16.148 10.747 16.0202C10.8911 15.7816 10.9631 15.5088 10.9631 15.2276Z" fill="#B48D49"/>
<path d="M18.3897 15.2276C18.3897 14.9122 18.1496 14.6565 17.8615 14.6565C17.5734 14.6565 17.3334 14.9122 17.3334 15.2276C17.3334 15.3213 17.3254 15.3298 17.2693 15.4321C16.9813 15.9094 16.9813 16.5316 17.2693 17.0089C17.3494 17.1282 17.3494 17.2816 17.2693 17.4095C17.1253 17.6481 17.0453 17.9209 17.0533 18.2021C17.0533 18.5175 17.2933 18.7732 17.5814 18.7732C17.8695 18.7732 18.1096 18.5175 18.1096 18.2021C18.1096 18.1084 18.1176 18.0999 18.1736 17.9976C18.4617 17.5203 18.4617 16.8981 18.1736 16.4208C18.0936 16.3015 18.0936 16.148 18.1736 16.0202C18.3176 15.7816 18.3897 15.5088 18.3897 15.2276Z" fill="#B48D49"/>
<path d="M22.1018 15.2276C22.1018 14.9122 21.8617 14.6565 21.5656 14.6565C21.2695 14.6565 21.0375 14.9122 21.0375 15.2276C21.0375 15.3213 21.0295 15.3298 20.9734 15.4321C20.6854 15.9094 20.6854 16.5316 20.9734 17.0089C21.0535 17.1282 21.0535 17.2816 20.9734 17.4095C20.8294 17.6481 20.7494 17.9209 20.7574 18.2021C20.7574 18.5175 20.9975 18.7732 21.2855 18.7732C21.5736 18.7732 21.8217 18.5175 21.8217 18.2021C21.8217 18.1084 21.8297 18.0999 21.8857 17.9976C22.1738 17.5203 22.1738 16.8981 21.8857 16.4208C21.8057 16.3015 21.8057 16.148 21.8857 16.0202C22.0298 15.7816 22.1018 15.5088 22.1018 15.2276Z" fill="#B48D49"/>
<path d="M27.992 9.29527V3.36315C27.992 1.96535 26.9197 0.823242 25.5993 0.823242H2.39268C1.08031 0.823242 0.00800155 1.96534 0.00800155 3.37167V9.3038C0.00800155 9.32084 0.00800155 9.33789 0.00800155 9.35493H0L0.952272 13.4034C1.00829 13.6591 1.22435 13.8296 1.47242 13.8296H26.5356C26.7837 13.8296 26.9917 13.6506 27.0557 13.4034L27.96 9.5254L28 9.34641H27.992C27.992 9.32937 27.992 9.31232 27.992 9.29527ZM2.40069 1.95682H25.6073C26.3355 1.95682 26.9277 2.58754 26.9357 3.36315V8.72422H1.07231V3.36315C1.07231 2.58754 1.67248 1.95682 2.40069 1.95682ZM1.88854 12.6875L1.22435 9.86632H26.7837L26.1195 12.6875H1.88854Z" fill="#B48D49"/>
<path d="M10.0663 4.00247H17.9325C18.2046 4.00247 18.4207 3.76382 18.4207 3.48256C18.4207 3.20129 18.2046 2.96265 17.9325 2.96265H10.0663C9.79419 2.96265 9.57812 3.19277 9.57812 3.48256C9.57812 3.77234 9.79419 4.00247 10.0663 4.00247Z" fill="#B48D49"/>
</svg>
