<svg width="24" height="26" viewBox="0 0 24 26" fill="none" xmlns="http://www.w3.org/2000/svg">
<path d="M23.032 4.29191H9.77464L9.75916 4.16796C9.39542 1.78959 7.31357 0 4.90667 0C2.19794 0 0 2.20018 0 4.91168C0 7.62318 2.19794 9.82337 4.90667 9.82337C5.9592 9.82337 6.95756 9.49798 7.80113 8.87821L7.90175 8.80849L13.3502 14.3012V23.8922H9.1942C8.85367 23.8922 8.57506 24.1711 8.57506 24.5119C8.57506 24.8528 8.85367 25.1317 9.1942 25.1317H18.7522C19.0927 25.1317 19.3713 24.8528 19.3713 24.5119C19.3713 24.1711 19.0927 23.8922 18.7522 23.8922H14.5962V14.3012L23.4808 5.35327C23.6588 5.17508 23.713 4.91168 23.6124 4.67152C23.504 4.43911 23.2796 4.29191 23.032 4.29191ZM16.7632 10.3424L13.9693 13.1546L11.1754 10.3424H16.7632ZM9.92942 9.10288L6.3926 5.5392H21.5306L17.9937 9.10288H9.92942ZM6.85695 8.01053C6.27651 8.3824 5.59545 8.57608 4.89892 8.57608C2.87898 8.57608 1.23828 6.93368 1.23828 4.91168C1.23828 2.88968 2.87898 1.24729 4.89892 1.24729C6.60155 1.24729 8.10298 2.45584 8.47446 4.12148L8.51316 4.29191H4.89892C4.64353 4.29191 4.4191 4.43911 4.32623 4.67927C4.22562 4.91168 4.27979 5.17509 4.45779 5.36102L7.00401 7.92532L6.85695 8.01053Z" fill="#B48D49"/>
</svg>
