<svg width="22" height="22" viewBox="0 0 22 22" fill="none" xmlns="http://www.w3.org/2000/svg">
<path d="M12.5376 20.437C12.1119 20.437 11.7637 20.7856 11.7637 21.2117C11.7637 21.6378 12.1119 21.9864 12.5376 21.9864C12.9632 21.9864 13.3115 21.6378 13.3115 21.2117C13.3115 20.7856 12.9632 20.437 12.5376 20.437Z" fill="#B48D49"/>
<path d="M12.5376 17.3848C12.1119 17.3848 11.7637 17.7334 11.7637 18.1595C11.7637 18.5856 12.1119 18.9342 12.5376 18.9342C12.9632 18.9342 13.3115 18.5856 13.3115 18.1595C13.3115 17.7334 12.9632 17.3848 12.5376 17.3848Z" fill="#B48D49"/>
<path d="M16.02 20.437C15.5944 20.437 15.2461 20.7856 15.2461 21.2117C15.2461 21.6378 15.5944 21.9864 16.02 21.9864C16.4457 21.9864 16.794 21.6378 16.794 21.2117C16.794 20.7856 16.4457 20.437 16.02 20.437Z" fill="#B48D49"/>
<path d="M12.5376 14.2471C12.1119 14.2471 11.7637 14.5957 11.7637 15.0218C11.7637 15.4479 12.1119 15.7965 12.5376 15.7965C12.9632 15.7965 13.3115 15.4479 13.3115 15.0218C13.3115 14.5957 12.9632 14.2471 12.5376 14.2471Z" fill="#B48D49"/>
<path d="M9.05419 20.437C8.62853 20.437 8.28027 20.7856 8.28027 21.2117C8.28027 21.6378 8.62853 21.9864 9.05419 21.9864C9.47984 21.9864 9.8281 21.6378 9.8281 21.2117C9.8281 20.7856 9.47984 20.437 9.05419 20.437Z" fill="#B48D49"/>
<path d="M9.05419 18.9418C9.48161 18.9418 9.8281 18.5949 9.8281 18.1671C9.8281 17.7392 9.48161 17.3923 9.05419 17.3923C8.62677 17.3923 8.28027 17.7392 8.28027 18.1671C8.28027 18.5949 8.62677 18.9418 9.05419 18.9418Z" fill="#B48D49"/>
<path d="M9.05419 14.2471C8.62853 14.2471 8.28027 14.5957 8.28027 15.0218C8.28027 15.4479 8.62853 15.7965 9.05419 15.7965C9.47984 15.7965 9.8281 15.4479 9.8281 15.0218C9.8281 14.5957 9.47984 14.2471 9.05419 14.2471Z" fill="#B48D49"/>
<path d="M19.5015 14.2471C19.0758 14.2471 18.7275 14.5957 18.7275 15.0218C18.7275 15.4479 19.0758 15.7965 19.5015 15.7965C19.9271 15.7965 20.2754 15.4479 20.2754 15.0218C20.2754 14.5957 19.9271 14.2471 19.5015 14.2471Z" fill="#B48D49"/>
<path d="M19.5015 18.9418C19.9289 18.9418 20.2754 18.5949 20.2754 18.1671C20.2754 17.7392 19.9289 17.3923 19.5015 17.3923C19.074 17.3923 18.7275 17.7392 18.7275 18.1671C18.7275 18.5949 19.074 18.9418 19.5015 18.9418Z" fill="#B48D49"/>
<path d="M19.5015 20.437C19.0758 20.437 18.7275 20.7856 18.7275 21.2117C18.7275 21.6378 19.0758 21.9864 19.5015 21.9864C19.9271 21.9864 20.2754 21.6378 20.2754 21.2117C20.2754 20.7856 19.9271 20.437 19.5015 20.437Z" fill="#B48D49"/>
<path d="M16.02 17.3848C15.5944 17.3848 15.2461 17.7334 15.2461 18.1595C15.2461 18.5856 15.5944 18.9342 16.02 18.9342C16.4457 18.9342 16.794 18.5856 16.794 18.1595C16.794 17.7334 16.4457 17.3848 16.02 17.3848Z" fill="#B48D49"/>
<path d="M16.02 14.2471C15.5944 14.2471 15.2461 14.5957 15.2461 15.0218C15.2461 15.4479 15.5944 15.7965 16.02 15.7965C16.4457 15.7965 16.794 15.4479 16.794 15.0218C16.794 14.5957 16.4457 14.2471 16.02 14.2471Z" fill="#B48D49"/>
<path d="M17.2352 6.97242H14.8206L14.8051 6.76325C14.6504 5.0124 13.9074 3.43198 12.6536 2.17694C11.2528 0.774713 9.38768 0 7.41418 0C5.44068 0 3.58326 0.774713 2.17472 2.17694C0.77392 3.57918 0 5.44624 0 7.42176V21.8624H1.29245V7.42176C1.29245 4.04401 4.03988 1.29377 7.41418 1.29377C10.5253 1.29377 13.1412 3.62566 13.4972 6.72451L13.5282 6.97242H11.1445C9.57342 6.97242 8.2268 7.69291 7.34452 9.00992C6.7873 9.83886 6.49321 10.8305 6.49321 11.8609V12.6201H21.8865V11.8299C21.8865 10.753 21.5692 9.7304 20.9733 8.87822C20.1065 7.65417 18.7753 6.97242 17.2352 6.97242ZM11.1445 8.26619H17.243C18.3807 8.26619 19.2861 8.72328 19.9208 9.62969C20.2226 10.0558 20.4238 10.5361 20.5244 11.0629L20.5786 11.3341H7.80888L7.86305 11.0629C7.96366 10.5826 8.1494 10.1333 8.41253 9.7304C9.06262 8.75426 9.9836 8.26619 11.1445 8.26619Z" fill="#B48D49"/>
</svg>
