<svg width="23" height="23" viewBox="0 0 23 23" fill="none" xmlns="http://www.w3.org/2000/svg">
<path d="M2.73349 11.0797V20.6645C2.73349 21.4609 3.38252 22.1176 4.18509 22.1176H6.92079C7.71637 22.1176 8.37238 21.4679 8.37238 20.6645V11.5688C8.91673 11.3382 9.41921 11.0238 9.86585 10.6466L18.8336 9.76637H22.4626C22.7557 9.76637 23 9.52885 23 9.22845V2.82233C23 2.52892 22.7627 2.28441 22.4626 2.28441H18.8336L9.87283 1.40418C8.79111 0.496003 7.42326 0 6.01354 0C5.77626 0 5.53898 0.0139713 5.30868 0.0419151C3.66168 0.237522 2.15425 1.11775 1.17024 2.45207C0.186221 3.78639 -0.204592 5.49097 0.102476 7.12568C0.388608 8.74642 1.35169 10.1855 2.73349 11.0797ZM10.9545 2.59179L18.2684 3.31135V8.74642L10.9545 9.46598C11.6594 8.45301 12.0293 7.2654 12.0293 6.02888C12.0293 4.78538 11.6594 3.60476 10.9545 2.59179ZM3.80125 20.6645V19.3721H7.29765V20.6645C7.29765 20.8741 7.13015 21.0417 6.92079 21.0417H4.17811C3.97572 21.0417 3.80125 20.8741 3.80125 20.6645ZM7.30462 17.5417V18.2962H3.80823V17.5417H7.30462ZM6.00656 12.0508C6.43925 12.0508 6.87892 12.0019 7.29765 11.9111V16.4659H3.80125V11.6316C4.50611 11.9111 5.24587 12.0508 6.00656 12.0508ZM4.1153 10.6047C2.25893 9.83623 1.05858 8.04084 1.05858 6.02888C1.05858 4.72251 1.58199 3.44408 2.50319 2.52193C3.43836 1.58581 4.67361 1.07584 5.99261 1.07584H6.00656C8.01647 1.07584 9.81002 2.27742 10.5777 4.13569C11.3454 5.99395 10.9266 8.1107 9.50295 9.53584C8.56779 10.472 7.32556 10.9889 5.99958 10.9889C5.35753 10.9819 4.72246 10.8562 4.1153 10.6047ZM19.3431 8.69053V3.36025H21.9253V8.69053H19.3431Z" fill="#B48D49"/>
<path d="M6.00662 2.74561C5.57393 2.74561 5.1552 2.82944 4.75043 2.9971C3.52215 3.50708 2.72656 4.69469 2.72656 6.02901C2.72656 7.83837 4.1991 9.30542 6.00662 9.31241C7.33958 9.31241 8.52598 8.51601 9.03544 7.28648C9.54489 6.05695 9.26574 4.65277 8.3236 3.70967C7.70946 3.08792 6.88596 2.74561 6.00662 2.74561ZM6.00662 8.23657C5.71351 8.23657 5.43435 8.18068 5.16218 8.06891C4.33169 7.7266 3.8013 6.92321 3.8013 6.02901C3.8013 4.81345 4.7923 3.82144 6.00662 3.82144C6.89991 3.82144 7.70248 4.35936 8.04444 5.18371C8.3864 6.01503 8.19798 6.95814 7.56988 7.59386C7.15115 8.00603 6.59982 8.23657 6.00662 8.23657Z" fill="#B48D49"/>
</svg>
