<svg width="24" height="24" viewBox="0 0 24 24" fill="none" xmlns="http://www.w3.org/2000/svg">
<path d="M18.385 14.4405C17.9052 13.9447 17.3325 13.6735 16.7211 13.6735C16.1174 13.6735 15.537 13.9369 15.0417 14.4327L13.4861 15.9822C13.4087 15.9434 13.339 15.9047 13.2539 15.8582C13.2539 15.8582 13.1533 15.804 13.1069 15.7807C12.9289 15.6955 12.7663 15.6103 12.6193 15.5173C11.1643 14.5954 9.8409 13.3869 8.57167 11.8297C7.96027 11.055 7.55009 10.4042 7.24826 9.73798C7.61201 9.40485 7.95254 9.05623 8.28532 8.7231L8.39367 8.61464C8.46333 8.54492 8.53298 8.47519 8.60263 8.40547L8.62585 8.38223C8.68776 8.32025 8.74967 8.25827 8.81158 8.1963C9.31463 7.69273 9.58551 7.0962 9.58551 6.49193C9.58551 5.88765 9.31463 5.29887 8.81158 4.78756L7.46497 3.43956C7.31018 3.28462 7.1554 3.12968 7.00835 2.97473C6.722 2.6726 6.40469 2.35496 6.08738 2.06057C5.60755 1.588 5.04258 1.34009 4.43892 1.34009C3.83526 1.34009 3.26256 1.588 2.76725 2.06057L1.08784 3.75719C0.460961 4.38471 0.0972135 5.15942 0.0198212 6.0426C-0.0962672 7.47581 0.321649 8.81607 0.646697 9.69149C1.44384 11.8529 2.64343 13.8439 4.40797 15.9744C6.55948 18.5542 9.15212 20.584 12.1085 22.0094C13.2462 22.5517 14.7631 23.1792 16.4347 23.2877C16.5353 23.2954 16.6437 23.2954 16.7443 23.2954C17.882 23.2954 18.8339 22.8849 19.5769 22.0791L19.5846 22.0714L19.5923 22.0637L19.6001 22.0559V22.0482C19.84 21.7615 20.1031 21.4981 20.3895 21.227L20.4591 21.1572C20.7145 20.9171 20.9157 20.7157 21.1015 20.522C21.5891 20.0184 21.8444 19.4296 21.8444 18.8176C21.8444 18.2056 21.5813 17.6168 21.086 17.1287L18.385 14.4405ZM18.594 21.2037C18.0987 21.7383 17.5105 21.9862 16.7443 21.9862C16.6669 21.9862 16.5895 21.9862 16.5199 21.9784C15.0572 21.8855 13.7028 21.3122 12.6889 20.8241C9.90282 19.4761 7.46496 17.5626 5.43728 15.1377C3.76561 13.1235 2.64342 11.2487 1.90046 9.23441C1.44384 8.01037 1.27358 7.06522 1.35097 6.15106C1.39741 5.57777 1.62184 5.09745 2.03202 4.68685L3.71144 3.00572C3.95136 2.78105 4.21449 2.6571 4.4544 2.6571C4.70206 2.6571 4.94971 2.78105 5.17415 3.00572L5.18189 3.01347C5.46825 3.28462 5.74685 3.56351 6.06416 3.89664C6.14155 3.97411 6.21894 4.05933 6.29633 4.1368L6.31182 4.15229C6.38147 4.22202 6.45886 4.29949 6.52851 4.36922L7.8674 5.73271C8.13054 5.99611 8.25436 6.24402 8.25436 6.49193C8.25436 6.73984 8.13054 6.98774 7.8674 7.25115C7.82097 7.29763 7.77453 7.34411 7.72809 7.3906C7.63522 7.48356 7.54235 7.58427 7.44174 7.66949C7.00061 8.11883 6.62138 8.49844 6.21121 8.86255L6.18799 8.88579V8.89354C5.77781 9.30414 5.83972 9.70699 5.93259 10.0091L5.94807 10.0479V10.0556C6.2886 10.8923 6.78391 11.6902 7.52687 12.6431V12.6509L7.53461 12.6586C8.89672 14.332 10.3207 15.6335 11.8995 16.6329C12.1008 16.7646 12.3097 16.8653 12.5032 16.966C12.6812 17.0513 12.8437 17.1365 12.983 17.2217L12.9908 17.2295C12.9985 17.2372 13.0063 17.2372 13.0217 17.2527C13.0295 17.2604 13.0372 17.2604 13.0449 17.2682C13.2075 17.3534 13.37 17.3921 13.5325 17.3921C13.9427 17.3921 14.1981 17.1365 14.2832 17.0513L15.9626 15.3701C16.1329 15.1997 16.396 14.9983 16.7056 14.9983C17.0384 14.9983 17.2861 15.2229 17.4099 15.3546L20.1263 18.0739C20.6294 18.5697 20.6294 19.0888 20.1341 19.6156C19.9793 19.786 19.8168 19.9409 19.6465 20.1036L19.5382 20.2121C19.2286 20.5142 18.8958 20.8396 18.594 21.2037Z" fill="#B48D49"/>
<path d="M12.5649 5.54693C13.8496 5.76385 15.0182 6.36812 15.9547 7.30553C16.8834 8.23518 17.4948 9.41275 17.7115 10.6988C17.7657 11.0164 18.0443 11.2488 18.3693 11.2488C18.408 11.2488 18.4312 11.2488 18.4699 11.2411H18.4854C18.6634 11.2101 18.8182 11.1171 18.9188 10.9699C19.0194 10.8227 19.0658 10.6445 19.0349 10.4741C18.7718 8.91693 18.0365 7.49146 16.9066 6.36038C15.7767 5.22929 14.3604 4.49332 12.8048 4.22991C12.7661 4.22217 12.7274 4.22217 12.6965 4.22217C12.3714 4.22217 12.0928 4.45458 12.0386 4.77221C12.0077 4.9504 12.0464 5.12858 12.1547 5.27578C12.2399 5.42297 12.3869 5.51594 12.5649 5.54693Z" fill="#B48D49"/>
<path d="M19.7402 3.5172C17.8828 1.65789 15.5456 0.449332 12.9839 0.00774524C12.9452 -1.8915e-06 12.9065 0 12.8678 0C12.5505 0 12.2719 0.232412 12.2177 0.550044C12.1558 0.91416 12.3957 1.25504 12.7672 1.31701C15.0503 1.70437 17.1399 2.78897 18.8115 4.4546C20.4677 6.11249 21.5512 8.20421 21.9459 10.5051C22.0001 10.8227 22.2787 11.0552 22.6037 11.0552C22.6424 11.0552 22.6656 11.0552 22.7043 11.0474H22.7198C22.8901 11.0242 23.0449 10.9312 23.1455 10.784C23.2461 10.6368 23.2925 10.4664 23.2615 10.2882C22.8049 7.70839 21.5899 5.36876 19.7402 3.5172Z" fill="#B48D49"/>
</svg>
