<svg width="28" height="21" viewBox="0 0 28 21" fill="none" xmlns="http://www.w3.org/2000/svg">
<path d="M10.8881 13.1703C12.374 13.1703 13.7052 12.2794 14.2701 10.9081C14.8429 9.52912 14.5255 7.9642 13.473 6.91059C12.7842 6.2211 11.8632 5.83374 10.8804 5.83374C10.4005 5.83374 9.92845 5.92671 9.47958 6.11264C8.10199 6.68593 7.21973 8.01069 7.21973 9.49813C7.22747 11.5201 8.86817 13.1625 10.8881 13.1703ZM10.8881 6.8951C11.9484 6.8951 12.8926 7.53036 13.295 8.5065C13.6975 9.48264 13.4808 10.5982 12.7301 11.3497C12.2347 11.8455 11.5846 12.1167 10.8881 12.1167C10.5476 12.1167 10.2071 12.0469 9.88976 11.9152C8.91462 11.5124 8.28 10.5672 8.28 9.50588C8.28774 8.06491 9.45635 6.8951 10.8881 6.8951Z" fill="#B48D49"/>
<path d="M10.8879 10.9236C11.4683 10.9236 11.9868 10.575 12.2035 10.0405C12.428 9.50591 12.3042 8.89389 11.894 8.48329C11.6231 8.21214 11.2671 8.06494 10.8879 8.06494C10.7021 8.06494 10.5164 8.10368 10.3461 8.1734C9.81212 8.39807 9.46387 8.90938 9.46387 9.49041C9.46387 10.2884 10.0985 10.9236 10.8879 10.9236ZM10.8879 9.13405C11.0349 9.13405 11.1665 9.21926 11.2284 9.35871C11.2826 9.49816 11.2516 9.6531 11.151 9.75382C11.0813 9.82354 10.9885 9.86228 10.8956 9.86228C10.8492 9.86228 10.8027 9.85453 10.7563 9.83129C10.617 9.77706 10.5319 9.64536 10.5319 9.49041C10.5241 9.29674 10.6867 9.13405 10.8879 9.13405Z" fill="#B48D49"/>
<path d="M18.033 8.23536C18.328 8.23536 18.5671 7.99604 18.5671 7.70081C18.5671 7.40559 18.328 7.16626 18.033 7.16626C17.7381 7.16626 17.499 7.40559 17.499 7.70081C17.499 7.99604 17.7381 8.23536 18.033 8.23536Z" fill="#B48D49"/>
<path d="M19.828 8.23536C20.1229 8.23536 20.362 7.99604 20.362 7.70081C20.362 7.40559 20.1229 7.16626 19.828 7.16626C19.533 7.16626 19.2939 7.40559 19.2939 7.70081C19.2939 7.99604 19.533 8.23536 19.828 8.23536Z" fill="#B48D49"/>
<path d="M21.6151 8.23536C21.91 8.23536 22.1491 7.99604 22.1491 7.70081C22.1491 7.40559 21.91 7.16626 21.6151 7.16626C21.3202 7.16626 21.0811 7.40559 21.0811 7.70081C21.0811 7.99604 21.3202 8.23536 21.6151 8.23536Z" fill="#B48D49"/>
<path d="M18.033 10.0249C18.3271 10.0249 18.5671 9.78475 18.5671 9.49036C18.5671 9.19597 18.3271 8.95581 18.033 8.95581C17.739 8.95581 17.499 9.19597 17.499 9.49036C17.5068 9.78475 17.739 10.0249 18.033 10.0249Z" fill="#B48D49"/>
<path d="M19.828 10.0249C20.122 10.0249 20.362 9.78475 20.362 9.49036C20.362 9.19597 20.122 8.95581 19.828 8.95581C19.5339 8.95581 19.2939 9.19597 19.2939 9.49036C19.2939 9.78475 19.5339 10.0249 19.828 10.0249Z" fill="#B48D49"/>
<path d="M21.6151 10.0249C21.9092 10.0249 22.1491 9.78475 22.1491 9.49036C22.1491 9.19597 21.9092 8.95581 21.6151 8.95581C21.321 8.95581 21.0811 9.19597 21.0811 9.49036C21.0811 9.78475 21.321 10.0249 21.6151 10.0249Z" fill="#B48D49"/>
<path d="M18.033 11.8145C18.3271 11.8145 18.5671 11.5743 18.5671 11.2799C18.5671 10.9855 18.3271 10.7454 18.033 10.7454C17.739 10.7454 17.499 10.9855 17.499 11.2799C17.5068 11.582 17.739 11.8145 18.033 11.8145Z" fill="#B48D49"/>
<path d="M19.828 11.8145C20.122 11.8145 20.362 11.5743 20.362 11.2799C20.362 10.9855 20.122 10.7454 19.828 10.7454C19.5339 10.7454 19.2939 10.9855 19.2939 11.2799C19.2939 11.582 19.5339 11.8145 19.828 11.8145Z" fill="#B48D49"/>
<path d="M21.6151 11.8145C21.9092 11.8145 22.1491 11.5743 22.1491 11.2799C22.1491 10.9855 21.9092 10.7454 21.6151 10.7454C21.321 10.7454 21.0811 10.9855 21.0811 11.2799C21.0811 11.582 21.321 11.8145 21.6151 11.8145Z" fill="#B48D49"/>
<path d="M0.526453 18.996H2.05107L3.23518 20.5764C3.33579 20.7081 3.49057 20.7856 3.66084 20.7856H6.79522C7.08931 20.7856 7.32922 20.5454 7.32922 20.251V18.9882H19.6965V20.251C19.6965 20.5454 19.9364 20.7856 20.2305 20.7856H23.3649C23.5274 20.7856 23.6899 20.7081 23.7905 20.5764L24.9746 18.996H26.4993C26.7933 18.996 27.0333 18.7558 27.0333 18.4614V0.534552C27.0333 0.240161 26.7933 0 26.4993 0H0.534181C0.24009 0 0.00018213 0.240161 0.00018213 0.534552V18.4614C-0.00755709 18.7558 0.232362 18.996 0.526453 18.996ZM20.7568 19.7242V18.996H23.6435L23.094 19.7242H20.7568ZM3.92396 19.7242L3.37447 18.996H6.2612V19.7242H3.92396ZM4.63597 14.8745V12.1862C4.63597 11.8919 4.39606 11.6517 4.10197 11.6517H1.0527V7.33654H4.10197C4.39606 7.33654 4.63597 7.09638 4.63597 6.80199V4.11373C4.63597 3.81934 4.39606 3.57918 4.10197 3.57918H1.0527V1.05361H25.9575V17.9269H1.0527V15.4013H4.10197C4.39606 15.4091 4.63597 15.1689 4.63597 14.8745ZM1.0527 6.28293V4.65603H3.5757V6.28293H1.0527ZM1.0527 14.3477V12.7208H3.5757V14.3477H1.0527Z" fill="#B48D49"/>
</svg>
