<svg width="25" height="24" viewBox="0 0 25 24" fill="none" xmlns="http://www.w3.org/2000/svg">
<path d="M23.86 0.872803H0.534004C0.239913 0.872803 0 1.11296 0 1.40735V17.5137C0 17.808 0.239913 18.0482 0.534004 18.0482H9.13229L8.5441 21.0076H5.76572C5.47163 21.0076 5.23172 21.2478 5.23172 21.5422V23.1536C5.23172 23.448 5.47163 23.6881 5.76572 23.6881H18.6361C18.9301 23.6881 19.1701 23.448 19.1701 23.1536V21.5422C19.1701 21.2478 18.9301 21.0076 18.6361 21.0076H15.8499L15.2618 18.0482H23.86C24.1541 18.0482 24.394 17.808 24.394 17.5137V1.40735C24.394 1.11296 24.1541 0.872803 23.86 0.872803ZM6.29199 22.6113V22.069H18.0943V22.6113H6.29199ZM14.7587 20.9999H9.6276L10.2158 18.0405H14.1628L14.7587 20.9999ZM1.06801 16.9714V1.94191H23.326V16.9791H1.06801V16.9714Z" fill="#B48D49"/>
<path d="M21.8629 2.771H2.51487C2.18208 2.771 1.91895 3.04214 1.91895 3.36752V15.6003C1.91895 15.9334 2.18982 16.1968 2.51487 16.1968H21.8629C22.1957 16.1968 22.4588 15.9256 22.4588 15.6003V3.36752C22.4666 3.04214 22.1957 2.771 21.8629 2.771ZM2.85539 15.2749V3.70065H21.5379V15.2671H2.85539V15.2749Z" fill="#B48D49"/>
</svg>
