<svg width="28" height="22" viewBox="0 0 28 22" fill="none" xmlns="http://www.w3.org/2000/svg">
<path d="M6.60931 16.9507C6.7254 17.0669 6.87245 17.1289 7.03497 17.1289C7.18975 17.1289 7.34454 17.0669 7.45289 16.9584C7.56898 16.85 7.63089 16.695 7.63089 16.5401C7.63089 16.3774 7.56898 16.2302 7.46063 16.114C5.81991 14.4484 4.91442 12.2327 4.91442 9.89305C4.91442 7.55342 5.81991 5.33773 7.46063 3.6721C7.69281 3.43969 7.6928 3.06008 7.45289 2.82766C7.3368 2.7192 7.18975 2.65723 7.03497 2.65723C6.87245 2.65723 6.7254 2.7192 6.60931 2.83541C4.74416 4.72571 3.71484 7.23578 3.71484 9.89305C3.71484 12.5503 4.74416 15.0526 6.60931 16.9507Z" fill="#B48D49"/>
<path d="M22.2897 9.89305C22.2897 12.2327 21.3842 14.4484 19.7435 16.114C19.6352 16.2302 19.5732 16.3774 19.5732 16.5401C19.5732 16.7028 19.6352 16.85 19.7512 16.9584C19.8673 17.0669 20.0144 17.1289 20.1692 17.1289C20.3317 17.1289 20.4787 17.0669 20.5948 16.9507C22.46 15.0604 23.4893 12.5503 23.4893 9.89305C23.4893 7.23578 22.46 4.72571 20.5948 2.83541C20.4787 2.7192 20.3317 2.65723 20.1692 2.65723C20.0144 2.65723 19.8596 2.7192 19.7512 2.82766C19.5191 3.06008 19.5191 3.43969 19.7435 3.6721C21.3842 5.33773 22.2897 7.54567 22.2897 9.89305Z" fill="#B48D49"/>
<path d="M4.40362 19.7862C4.64354 19.7862 4.86023 19.639 4.9531 19.4221C5.04598 19.1974 4.99954 18.9417 4.82928 18.7713C2.48429 16.3929 1.19184 13.2399 1.19184 9.89309C1.19184 6.54633 2.48429 3.40099 4.82928 1.01487C4.94536 0.898668 5.00728 0.751472 4.99954 0.588783C4.99954 0.43384 4.93763 0.278897 4.82154 0.170437C4.71319 0.0619768 4.5584 0 4.39588 0C4.2411 0 4.08631 0.0697244 3.97796 0.178184C1.40854 2.78122 0 6.23644 0 9.89309C0 13.5497 1.41628 17.005 3.97796 19.608C4.08631 19.7165 4.2411 19.7862 4.40362 19.7862Z" fill="#B48D49"/>
<path d="M26.0029 9.89309C26.0184 13.2399 24.726 16.3929 22.3655 18.7713C22.2494 18.8875 22.1875 19.0347 22.1952 19.1974C22.1952 19.3523 22.2572 19.5073 22.3732 19.6157C22.4816 19.7242 22.6364 19.7862 22.7912 19.7862C22.9459 19.7862 23.1007 19.7165 23.2091 19.608C25.7785 17.005 27.187 13.5497 27.187 9.89309C27.187 6.23644 25.7708 2.78122 23.2091 0.178184C23.1007 0.0697244 22.9459 0 22.7834 0C22.6286 0 22.4738 0.0619768 22.3655 0.170437C22.2572 0.278897 22.1875 0.43384 22.1875 0.588783C22.1875 0.751472 22.2494 0.898668 22.3578 1.01487C24.726 3.3855 26.0107 6.53858 26.0029 9.89309Z" fill="#B48D49"/>
<path d="M9.23195 14.2936C9.3403 14.4098 9.49509 14.4718 9.65761 14.4718C9.89753 14.4718 10.1142 14.3246 10.2071 14.1077C10.3 13.883 10.2535 13.6274 10.0833 13.4569C9.13908 12.504 8.62056 11.2335 8.62056 9.89325C8.62056 8.553 9.13908 7.28247 10.0833 6.32957C10.1916 6.21337 10.2535 6.06617 10.2535 5.90348C10.2535 5.74079 10.1916 5.59359 10.0755 5.48513C9.95944 5.37667 9.8124 5.3147 9.65761 5.3147C9.49509 5.3147 9.34804 5.37667 9.23195 5.49288C8.07107 6.67044 7.42871 8.23537 7.42871 9.89325C7.42871 11.5511 8.07107 13.1161 9.23195 14.2936Z" fill="#B48D49"/>
<path d="M17.1185 14.3014C17.2345 14.4098 17.3816 14.4718 17.5364 14.4718C17.6989 14.4718 17.8459 14.4098 17.962 14.2936C19.1229 13.1161 19.7653 11.5511 19.7653 9.89325C19.7653 8.23537 19.1229 6.67044 17.962 5.48513C17.8537 5.37667 17.6989 5.3147 17.5441 5.3147C17.3893 5.3147 17.2345 5.37667 17.1262 5.48513C16.894 5.7098 16.894 6.08941 17.1185 6.32182C18.0626 7.27472 18.5812 8.54525 18.5812 9.88551C18.5812 11.2258 18.0626 12.4963 17.1185 13.4492C16.8785 13.6893 16.8863 14.069 17.1185 14.3014Z" fill="#B48D49"/>
<path d="M13.0027 12.2717V21.2584H14.1946V12.2717C15.3787 11.9773 16.1603 10.8695 16.0365 9.64543C15.9127 8.38265 14.8601 7.4375 13.5986 7.4375C12.3371 7.4375 11.2846 8.3904 11.1608 9.64543C11.0292 10.8695 11.8186 11.9773 13.0027 12.2717ZM13.1111 8.72352C13.2658 8.66155 13.4284 8.63056 13.5909 8.63056C13.9314 8.63056 14.2487 8.76226 14.4809 9.00242C14.8446 9.36654 14.953 9.90109 14.7518 10.3814C14.5583 10.854 14.1017 11.1639 13.5832 11.1639C12.8866 11.1639 12.3217 10.5983 12.3217 9.90109C12.3371 9.37428 12.639 8.9172 13.1111 8.72352Z" fill="#B48D49"/>
</svg>
