<svg width="19" height="19" viewBox="0 0 19 19" fill="none" xmlns="http://www.w3.org/2000/svg">
<path d="M9.01545 0.999072C5.32838 0.999072 1.82722 0.65825 0.494919 4.09745C-0.0627887 5.5227 0.0301625 7.35074 0.0301625 9.98436C0.0301625 12.3081 -0.031805 14.477 0.494919 15.8713C1.82722 19.3105 5.35937 18.9696 9.01545 18.9696C12.5476 18.9696 16.1727 19.3414 17.536 15.8713C18.0937 14.446 18.0007 12.618 18.0007 9.98436C18.0007 6.48319 18.1866 4.1904 16.4825 2.48629C14.7474 0.782185 12.4237 0.999072 9.01545 0.999072ZM8.20987 2.61023C15.8938 2.61023 16.8853 1.74268 16.3276 13.6095C16.1417 17.8232 12.9504 17.3585 9.01545 17.3585C1.8582 17.3585 1.64132 17.1416 1.64132 9.98436C1.61033 2.73416 2.19902 2.61023 8.20987 2.61023ZM13.8179 4.12843C13.2292 4.12843 12.7335 4.62417 12.7335 5.21286C12.7335 5.80155 13.2292 6.29729 13.8179 6.29729C14.4066 6.29729 14.9024 5.80155 14.9024 5.21286C14.8714 4.59319 14.4066 4.12843 13.8179 4.12843ZM9.01545 5.36778C6.47478 5.36778 4.39887 7.44369 4.39887 9.98436C4.39887 12.525 6.47478 14.6009 9.01545 14.6009C11.5561 14.6009 13.632 12.525 13.632 9.98436C13.632 7.44369 11.5561 5.36778 9.01545 5.36778ZM9.01545 7.00992C12.9814 7.00992 12.9814 13.0208 9.01545 13.0208C5.04953 12.9898 5.01854 7.00992 9.01545 7.00992Z" fill="white"/>
</svg>
