<svg width="230" height="230" viewBox="0 0 230 230" fill="none" xmlns="http://www.w3.org/2000/svg">
<path d="M115 228.206C177.302 228.206 227.808 177.7 227.808 115.398C227.808 53.0963 177.302 2.59058 115 2.59058C52.6982 2.59058 2.1925 53.0963 2.1925 115.398C2.1925 177.7 52.6982 228.206 115 228.206Z" fill="white"/>
<path d="M115 0C51.6205 0 0 51.6205 0 115C0 178.38 51.6205 230 115 230C178.38 230 230 178.38 230 115C230 51.6205 178.479 0 115 0ZM115 226.512C53.5139 226.512 3.48787 176.486 3.48787 115C3.48787 53.5139 53.5139 3.48787 115 3.48787C176.486 3.48787 226.512 53.5139 226.512 115C226.512 176.486 176.486 226.512 115 226.512Z" fill="#B48D49"/>
<path d="M69.5577 92.4785H64.0768V75.2384L77.0317 92.4785H71.3515V93.8736H94.9694V92.4785H87.595L69.4581 68.5617L82.5127 54.8095H89.7874V53.3147H74.0421V54.8095H80.5196L64.0768 72.2488V54.8095H70.2553V53.3147H48.0326V54.8095H55.2076V92.4785H48.0326V93.8736H69.5577V92.4785Z" fill="#B48D49"/>
<path d="M103.839 94.272C108.821 94.272 115.199 90.7841 117.691 85.5025C117.89 89.2893 119.185 94.3716 125.663 94.3716C128.154 94.3716 130.147 93.4747 132.041 91.4817C132.24 91.1827 132.539 90.7841 132.539 90.2858C132.539 89.6879 132.14 89.2893 131.542 89.2893C130.945 89.2893 130.546 89.7876 130.546 90.2858C130.546 91.5813 129.35 92.3786 128.154 92.3786C127.158 92.3786 126.46 91.5813 126.46 90.3855V65.0735C126.46 57.0016 121.876 52.8162 112.708 52.8162C107.626 52.8162 98.0589 55.7061 98.0589 62.7815C98.0589 65.9704 99.8527 68.0631 102.643 68.0631C105.035 68.0631 107.327 65.8708 107.327 63.4791C107.327 62.1836 106.629 61.0874 106.031 60.0909C105.533 59.3933 105.134 58.6957 105.134 58.0978C105.134 55.9054 108.323 54.9089 109.619 54.6099C110.615 54.4106 111.512 54.311 112.309 54.311C116.893 54.4106 117.691 56.8023 117.691 61.5857V71.7503H115.199C114.9 71.7503 113.904 71.7503 113.605 71.7503C106.33 72.0493 101.048 74.3413 97.5606 78.726C96.2651 80.4201 95.4679 82.6125 95.4679 84.8049C95.3683 90.7841 98.5572 94.272 103.839 94.272ZM113.605 73.1455C114.003 73.1455 114.402 73.0458 114.801 73.0458H117.691V79.7226C117.691 80.3205 117.591 83.2104 115.797 85.9011C114.203 88.3924 111.711 89.9869 109.22 89.9869C106.729 89.9869 104.038 88.2928 104.038 83.4097C103.938 75.1385 110.017 73.4444 113.605 73.1455Z" fill="#B48D49"/>
<path d="M155.958 92.4782H149.779V67.1662C149.779 64.6749 151.274 57.4002 158.05 57.4002C160.741 57.4002 163.731 59.0943 163.731 63.8776V93.8733H179.675V92.4782H172.5V62.8811C172.5 55.5068 167.219 52.9158 162.634 52.9158C157.951 52.9158 152.171 56.005 149.779 61.2867V53.414H133.835V54.8092H141.01V92.4782H133.835V93.8733H155.958V92.4782Z" fill="#B48D49"/>
<path d="M197.712 70.4549C197.114 70.4549 196.715 70.8535 196.715 71.4515C196.715 71.8501 196.915 72.149 197.114 72.448C197.313 72.7469 197.513 73.0459 197.513 73.5442C197.513 74.3414 196.915 74.6404 196.217 74.6404C194.822 74.6404 194.025 73.9428 193.028 72.9463C191.733 71.7504 190.138 70.2556 186.75 70.2556C182.365 70.2556 179.276 72.9463 179.276 76.8327V77.331C179.276 78.3275 179.774 79.0251 180.472 79.0251C181.07 79.0251 181.469 78.6265 181.469 78.0286C181.469 77.63 181.269 77.331 181.07 77.032C180.871 76.6334 180.671 76.3345 180.671 75.8362C180.771 75.1386 181.17 74.8397 181.967 74.8397C183.362 74.8397 184.159 75.5372 185.156 76.5338C186.451 77.7296 188.046 79.2244 191.434 79.2244C195.819 79.2244 198.908 76.5338 198.908 72.6473V72.149C198.908 71.1525 198.41 70.4549 197.712 70.4549Z" fill="#B48D49"/>
<path d="M77.2316 153.765C78.1285 152.968 78.8261 151.971 79.3244 150.775C79.8226 149.58 80.1216 148.284 80.1216 146.789C80.1216 145.992 80.0219 145.195 79.723 144.398C79.424 143.6 79.1251 142.903 78.6268 142.305C78.1285 141.707 77.5306 141.209 76.833 140.91C76.1355 140.511 75.3382 140.411 74.4413 140.411C73.8434 140.411 73.1459 140.511 72.5479 140.71C71.95 140.91 71.3521 141.308 70.8538 141.707C70.3556 142.106 69.957 142.704 69.658 143.301C69.359 143.999 69.1597 144.697 69.1597 145.593C69.1597 146.889 69.359 147.786 69.9569 148.483C70.4552 149.081 70.9535 149.58 71.5514 149.978C72.0497 150.377 72.5479 150.676 73.0462 150.975C73.3452 151.174 73.5445 151.573 73.5445 151.971C73.5445 152.868 73.2455 153.566 72.6476 154.064C72.0497 154.662 71.3521 154.961 70.5549 155.16C70.3556 155.16 70.1563 155.26 69.9569 155.26C69.7576 155.26 69.5583 155.26 69.359 155.26C68.1632 155.26 67.1667 154.861 66.3694 154.164C65.5722 153.466 65.1736 152.569 65.1736 151.373V122.872H78.6268V121.378H65.1736V107.625H64.6753L63.8781 107.725L55.4076 113.106V121.378H47.4353V122.872H55.4076V144.796C55.4076 146.69 55.8062 148.483 56.5038 149.978C57.301 151.473 58.2975 152.769 59.4934 153.765C60.6892 154.762 62.0843 155.559 63.6788 156.057C65.1736 156.555 66.768 156.854 68.3625 156.854C69.1597 156.854 69.957 156.755 70.6545 156.655C71.95 156.456 73.1459 156.157 74.242 155.658C75.4379 155.26 76.4344 154.562 77.2316 153.765ZM74.242 149.978C73.8434 149.58 73.2455 149.281 72.7472 148.882C72.249 148.583 71.7507 148.184 71.3521 147.686C70.9535 147.288 70.8538 146.59 70.8538 145.693C70.8538 144.398 71.2524 143.501 71.95 142.903C72.7472 142.305 73.5445 142.006 74.541 142.006C75.8365 142.006 76.833 142.504 77.5306 143.401C78.3278 144.398 78.6268 145.593 78.6268 146.889C78.6268 148.882 78.1285 150.576 77.0323 151.872C76.3348 152.669 75.6372 153.366 74.7403 153.865C74.9396 153.366 75.0393 152.769 75.0393 152.071C75.0393 151.074 74.7403 150.377 74.242 149.978ZM57.002 114.003L63.6788 109.718V151.473C63.6788 152.669 63.8781 153.566 64.3764 154.363C64.476 154.562 64.5757 154.662 64.6753 154.861C64.0774 154.662 63.4795 154.463 62.8816 154.164C61.6857 153.665 60.6892 152.968 59.7923 152.071C58.8954 151.174 58.1979 150.178 57.6996 148.982C57.2013 147.786 56.9024 146.49 56.9024 144.896V114.003H57.002Z" fill="#B48D49"/>
<path d="M127.655 151.174C127.356 151.174 127.057 151.274 126.858 151.473C126.659 151.672 126.559 151.971 126.559 152.27C126.559 152.569 126.46 152.868 126.26 153.167C126.061 153.466 125.862 153.665 125.563 153.865C125.264 154.064 124.865 154.263 124.466 154.363C124.068 154.463 123.769 154.562 123.37 154.562C122.673 154.562 122.075 154.363 121.577 153.964C121.078 153.566 120.879 153.067 120.879 152.37V111.512H104.336V113.007H111.213V141.109C111.213 141.707 111.113 142.703 110.814 143.899C110.615 145.095 110.116 146.391 109.419 147.487C108.721 148.683 107.824 149.679 106.628 150.576C105.433 151.473 103.938 151.872 102.044 151.872C101.247 151.872 100.45 151.772 99.6528 151.473C98.8555 151.174 98.2576 150.775 97.6597 150.177C97.0618 149.58 96.6632 148.882 96.2645 147.985C95.9656 147.088 95.7663 145.992 95.7663 144.697V111.412H78.1276V112.907H86.0999V145.693C86.0999 147.587 86.3989 149.181 86.9968 150.576C87.5947 151.971 88.3919 153.167 89.3885 154.064C90.385 154.961 91.5808 155.658 92.8763 156.157C94.1718 156.555 95.567 156.854 96.9621 156.854C98.3573 156.854 99.8521 156.655 101.347 156.157C102.842 155.658 104.336 154.961 105.732 154.064C107.127 153.167 108.323 151.971 109.419 150.576C110.116 149.679 110.714 148.683 111.213 147.587C111.312 148.782 111.512 149.879 112.01 150.875C112.508 152.071 113.206 153.067 114.103 153.964C114.999 154.861 115.996 155.559 117.192 156.057C118.388 156.555 119.683 156.854 121.078 156.854C122.374 156.854 123.669 156.555 124.965 156.057C126.161 155.559 127.257 154.762 128.154 153.765C128.652 153.267 128.851 152.768 128.851 152.27C128.851 151.573 128.453 151.174 127.655 151.174ZM117.79 154.662C116.793 154.263 115.896 153.665 115.099 152.868C114.302 152.071 113.704 151.174 113.305 150.177C112.907 149.181 112.608 148.085 112.608 146.989V113.007H119.284V152.37C119.284 153.466 119.583 154.263 120.281 154.961C120.381 155.061 120.58 155.16 120.68 155.359C119.783 155.26 118.786 155.061 117.79 154.662ZM87.5947 113.007H94.2715V144.697C94.2715 146.092 94.4708 147.387 94.8694 148.483C95.268 149.58 95.8659 150.476 96.5635 151.174C97.2611 151.971 98.0583 152.47 99.0548 152.868C99.9517 153.167 100.948 153.366 102.044 153.366C102.742 153.366 103.44 153.267 104.038 153.167C103.34 153.566 102.742 153.865 102.044 154.164C100.251 154.861 98.6562 155.16 97.0618 155.16C95.7663 155.16 94.5704 154.961 93.4743 154.562C92.3781 154.164 91.3815 153.566 90.4846 152.868C89.6874 152.071 88.9898 151.074 88.3919 149.879C87.8937 148.683 87.5947 147.288 87.5947 145.593V113.007Z" fill="#B48D49"/>
<path d="M179.276 151.174C178.977 151.174 178.678 151.274 178.479 151.473C178.28 151.673 178.18 151.971 178.18 152.27C178.18 152.569 178.08 152.868 177.881 153.167C177.682 153.466 177.483 153.666 177.184 153.965C176.885 154.164 176.486 154.363 176.187 154.463C175.788 154.562 175.489 154.662 175.091 154.662C174.393 154.662 173.795 154.463 173.297 154.064C172.799 153.666 172.599 153.167 172.599 152.47V122.075C172.599 120.282 172.301 118.588 171.703 117.192C171.105 115.797 170.307 114.601 169.311 113.705C168.314 112.808 167.119 112.11 165.823 111.711C164.528 111.313 163.132 111.014 161.737 111.014C160.342 111.014 158.847 111.213 157.352 111.711C155.858 112.21 154.363 112.907 152.968 113.804C151.573 114.701 150.277 115.897 149.281 117.292C148.583 118.189 147.985 119.185 147.487 120.282V111.612H129.848V113.107H137.82V154.762H129.848V156.356H154.263V154.762H147.387V126.759C147.387 126.161 147.487 125.165 147.786 123.969C147.985 122.773 148.483 121.577 149.181 120.381C149.878 119.185 150.775 118.189 151.971 117.292C153.167 116.395 154.662 115.997 156.555 115.997C157.353 115.997 158.15 116.096 158.947 116.395C159.645 116.694 160.342 117.093 160.94 117.691C161.538 118.289 161.937 118.986 162.335 119.883C162.634 120.78 162.833 121.876 162.833 123.072V146.989C162.833 148.384 163.132 149.679 163.631 150.875C164.129 152.071 164.827 153.068 165.723 153.965C166.62 154.861 167.617 155.559 168.813 156.057C170.008 156.556 171.304 156.854 172.699 156.854C174.094 156.854 175.39 156.556 176.586 156.057C177.781 155.559 178.878 154.762 179.775 153.865C180.273 153.367 180.472 152.868 180.472 152.37C180.472 151.573 179.974 151.174 179.276 151.174ZM169.411 154.662C168.414 154.263 167.517 153.666 166.72 152.868C165.923 152.071 165.325 151.174 164.926 150.178C164.528 149.181 164.328 148.085 164.328 146.989V123.072C164.328 121.677 164.129 120.381 163.73 119.285C163.332 118.189 162.734 117.292 162.036 116.595C161.339 115.897 160.541 115.299 159.545 114.9C158.648 114.502 157.651 114.402 156.555 114.402C155.858 114.402 155.16 114.502 154.463 114.601C155.16 114.203 155.858 113.804 156.655 113.505C158.349 112.808 160.043 112.409 161.638 112.409C162.933 112.409 164.129 112.608 165.225 113.007C166.321 113.406 167.318 114.004 168.215 114.701C169.012 115.498 169.71 116.495 170.307 117.691C170.806 118.887 171.105 120.282 171.105 121.976V152.47C171.105 153.466 171.404 154.263 172.002 154.861C172.101 154.961 172.201 155.16 172.4 155.26C171.304 155.26 170.307 155.061 169.411 154.662ZM145.892 113.007V154.662H139.216V113.007H145.892Z" fill="#B48D49"/>
<path d="M61.9842 183.063C59.5925 183.063 57.8984 181.27 57.8984 178.679C57.8984 176.088 59.4928 174.294 61.9842 174.294C63.2797 174.294 64.2762 174.892 64.9738 175.689L66.2693 174.194C65.1731 172.998 63.778 172.4 61.9842 172.4C58.3967 172.4 55.8057 175.091 55.8057 178.679C55.8057 182.266 58.3967 184.957 61.9842 184.957C63.6783 184.957 65.1731 184.359 66.3689 183.163L65.0735 181.668C64.3759 182.465 63.3793 183.063 61.9842 183.063Z" fill="#B48D49"/>
<path d="M76.9327 172.5L71.2525 184.757H73.4449L74.4414 182.565H79.5237L80.5203 184.757H82.7126L76.9327 172.5ZM75.139 180.871L76.9327 176.685L78.7265 180.871H75.139Z" fill="#B48D49"/>
<path d="M88.3922 184.757H90.3852V179.775H94.8696V177.881H90.3852V174.593H95.7665V172.699H88.3922V184.757Z" fill="#B48D49"/>
<path d="M101.547 184.757H103.64V179.775H108.124V177.881H103.64V174.593H108.921V172.699H101.547V184.757Z" fill="#B48D49"/>
<path d="M116.794 179.575H121.677V177.782H116.794V174.593H122.375V172.699H114.801V184.757H122.474V182.864H116.794V179.575Z" fill="#B48D49"/>
<path d="M117.591 170.208H115.199L117.691 172.102H119.784L117.591 170.208Z" fill="#B48D49"/>
<path d="M143.302 178.38C143.9 177.981 144.597 177.184 144.597 175.988C144.597 173.995 143.202 172.799 140.81 172.799H136.326V184.857H141.608C143.9 184.857 145.594 183.662 145.594 181.369C145.594 179.576 144.597 178.779 143.302 178.38ZM138.419 174.593H140.611C141.907 174.593 142.604 175.191 142.604 176.188C142.604 177.084 141.907 177.782 140.711 177.782H138.419V174.593ZM141.408 182.864H138.419V179.476H141.309C142.803 179.476 143.601 180.074 143.601 181.17C143.601 182.266 142.704 182.864 141.408 182.864Z" fill="#B48D49"/>
<path d="M156.057 172.5L150.377 184.757H152.569L153.566 182.565H158.648L159.645 184.757H161.837L156.057 172.5ZM154.264 180.871L156.057 176.685L157.851 180.871H154.264Z" fill="#B48D49"/>
<path d="M176.188 176.486C176.188 173.995 174.294 172.699 171.902 172.699H167.518V184.757H169.511V180.373H171.603L174.294 184.857H176.686L173.796 180.074C175.191 179.476 176.188 178.28 176.188 176.486ZM171.703 178.579H169.61V174.493H171.703C173.098 174.493 174.095 175.191 174.095 176.486C174.095 177.881 173.198 178.579 171.703 178.579Z" fill="#B48D49"/>
</svg>
