<svg width="160" height="160" viewBox="0 0 160 160" fill="none" xmlns="http://www.w3.org/2000/svg">
<path d="M80 0C35.9099 0 0 35.9099 0 80C0 124.09 35.9099 160 80 160C124.09 160 160 124.09 160 80C160 35.9099 124.159 0 80 0Z" fill="#B48D49"/>
<path d="M48.3881 64.3327H44.5752V52.3397L53.5874 64.3327H49.6359V65.3033H66.0657V64.3327H60.9357L48.3187 47.695L57.4002 38.1282H62.4608V37.0884H51.5076V38.1282H56.0137L44.5752 50.26V38.1282H48.8733V37.0884H33.4141V38.1282H38.4054V64.3327H33.4141V65.3033H48.3881V64.3327Z" fill="white"/>
<path d="M72.2357 65.5805C75.7019 65.5805 80.1386 63.1542 81.8718 59.48C82.0104 62.1143 82.9116 65.6498 87.4177 65.6498C89.1508 65.6498 90.5373 65.0259 91.8544 63.6395C91.9931 63.4315 92.201 63.1542 92.201 62.8076C92.201 62.3916 91.9238 62.1143 91.5078 62.1143C91.0919 62.1143 90.8146 62.4609 90.8146 62.8076C90.8146 63.7088 89.9827 64.2634 89.1508 64.2634C88.4576 64.2634 87.9723 63.7088 87.9723 62.8769V45.2686C87.9723 39.6533 84.7834 36.7417 78.4055 36.7417C74.87 36.7417 68.2149 38.7521 68.2149 43.6741C68.2149 45.8925 69.4627 47.3483 71.4038 47.3483C73.0676 47.3483 74.662 45.8232 74.662 44.1594C74.662 43.2582 74.1768 42.4956 73.7608 41.8024C73.4142 41.3171 73.1369 40.8318 73.1369 40.4159C73.1369 38.8907 75.3553 38.1975 76.2565 37.9895C76.9497 37.8509 77.5737 37.7816 78.1282 37.7816C81.3172 37.8509 81.8718 39.5147 81.8718 42.8422V49.9133H80.1386C79.9307 49.9133 79.2374 49.9133 79.0295 49.9133C73.9688 50.1212 70.2946 51.7157 67.8683 54.766C66.9671 55.9445 66.4125 57.4696 66.4125 58.9947C66.3431 63.1542 68.5615 65.5805 72.2357 65.5805ZM79.0295 50.8838C79.3068 50.8838 79.5841 50.8145 79.8613 50.8145H81.8718V55.4592C81.8718 55.8751 81.8024 57.8855 80.5546 59.7573C79.4454 61.4904 77.7123 62.5996 75.9792 62.5996C74.2461 62.5996 72.3743 61.4211 72.3743 58.0242C72.305 52.2703 76.5338 51.0918 79.0295 50.8838Z" fill="white"/>
<path d="M108.492 64.3327H104.194V46.7244C104.194 44.9913 105.234 39.9306 109.948 39.9306C111.82 39.9306 113.9 41.1091 113.9 44.4367V65.3033H124.991V64.3327H120V43.7434C120 38.6135 116.326 36.811 113.137 36.811C109.879 36.811 105.858 38.9601 104.194 42.6343V37.1577H93.1023V38.1282H98.0936V64.3327H93.1023V65.3033H108.492V64.3327Z" fill="white"/>
<path d="M137.539 49.0122C137.123 49.0122 136.846 49.2895 136.846 49.7054C136.846 49.9827 136.984 50.1907 137.123 50.3987C137.262 50.6066 137.4 50.8146 137.4 51.1612C137.4 51.7158 136.984 51.9238 136.499 51.9238C135.529 51.9238 134.974 51.4385 134.281 50.7453C133.38 49.9134 132.27 48.8735 129.913 48.8735C126.863 48.8735 124.714 50.7453 124.714 53.4489V53.7955C124.714 54.4888 125.061 54.9741 125.546 54.9741C125.962 54.9741 126.239 54.6968 126.239 54.2808C126.239 54.0035 126.101 53.7955 125.962 53.5876C125.823 53.3103 125.685 53.1023 125.685 52.7557C125.754 52.2704 126.031 52.0624 126.586 52.0624C127.556 52.0624 128.111 52.5477 128.804 53.241C129.705 54.0728 130.815 55.1127 133.172 55.1127C136.222 55.1127 138.371 53.241 138.371 50.5373V50.1907C138.371 49.4975 138.024 49.0122 137.539 49.0122Z" fill="white"/>
<path d="M53.7262 106.967C54.3501 106.413 54.8354 105.719 55.182 104.887C55.5286 104.056 55.7366 103.154 55.7366 102.114C55.7366 101.56 55.6673 101.005 55.4593 100.451C55.2513 99.8961 55.0434 99.4109 54.6967 98.9949C54.3501 98.579 53.9342 98.2323 53.4489 98.0244C52.9636 97.7471 52.409 97.6777 51.7851 97.6777C51.3692 97.6777 50.8839 97.7471 50.468 97.8857C50.052 98.0244 49.6361 98.3017 49.2895 98.579C48.9428 98.8563 48.6655 99.2722 48.4576 99.6881C48.2496 100.173 48.1109 100.659 48.1109 101.283C48.1109 102.184 48.2496 102.808 48.6655 103.293C49.0122 103.709 49.3588 104.056 49.7747 104.333C50.1213 104.61 50.468 104.818 50.8146 105.026C51.0226 105.165 51.1612 105.442 51.1612 105.719C51.1612 106.343 50.9532 106.829 50.5373 107.175C50.1213 107.591 49.6361 107.799 49.0815 107.938C48.9428 107.938 48.8042 108.007 48.6655 108.007C48.5269 108.007 48.3882 108.007 48.2496 108.007C47.4177 108.007 46.7245 107.73 46.1699 107.244C45.6153 106.759 45.338 106.135 45.338 105.303V85.4767H54.6967V84.4368H45.338V74.8701H44.9914L44.4368 74.9394L38.5442 78.6829V84.4368H32.9983V85.4767H38.5442V100.728C38.5442 102.045 38.8215 103.293 39.3068 104.333C39.8614 105.373 40.5546 106.274 41.3865 106.967C42.2184 107.66 43.1889 108.215 44.2981 108.562C45.338 108.908 46.4472 109.116 47.5564 109.116C48.1109 109.116 48.6655 109.047 49.1508 108.978C50.052 108.839 50.8839 108.631 51.6465 108.284C52.4784 108.007 53.1716 107.522 53.7262 106.967ZM51.6465 104.333C51.3692 104.056 50.9532 103.848 50.6066 103.57C50.26 103.362 49.9134 103.085 49.6361 102.738C49.3588 102.461 49.2895 101.976 49.2895 101.352C49.2895 100.451 49.5668 99.8268 50.052 99.4108C50.6066 98.9949 51.1612 98.7869 51.8545 98.7869C52.7557 98.7869 53.4489 99.1335 53.9342 99.7575C54.4888 100.451 54.6967 101.283 54.6967 102.184C54.6967 103.57 54.3501 104.749 53.5876 105.65C53.1023 106.205 52.617 106.69 51.9931 107.036C52.1317 106.69 52.2011 106.274 52.2011 105.789C52.2011 105.095 51.9931 104.61 51.6465 104.333ZM39.6534 79.3069L44.2981 76.3259V105.373C44.2981 106.205 44.4368 106.829 44.7834 107.383C44.8527 107.522 44.922 107.591 44.9914 107.73C44.5754 107.591 44.1595 107.452 43.7435 107.244C42.9116 106.898 42.2184 106.413 41.5945 105.789C40.9706 105.165 40.4853 104.472 40.1387 103.64C39.7921 102.808 39.5841 101.907 39.5841 100.797V79.3069H39.6534Z" fill="white"/>
<path d="M88.8042 105.165C88.5962 105.165 88.3882 105.234 88.2496 105.373C88.1109 105.511 88.0416 105.719 88.0416 105.927C88.0416 106.135 87.9723 106.343 87.8336 106.551C87.695 106.759 87.5563 106.898 87.3484 107.036C87.1404 107.175 86.8631 107.314 86.5858 107.383C86.3085 107.452 86.1005 107.522 85.8232 107.522C85.338 107.522 84.922 107.383 84.5754 107.106C84.2288 106.828 84.0901 106.482 84.0901 105.997V77.5737H72.5823V78.6136H77.3657V98.163C77.3657 98.5789 77.2964 99.2722 77.0884 100.104C76.9497 100.936 76.6031 101.837 76.1179 102.6C75.6326 103.432 75.0087 104.125 74.1768 104.749C73.3449 105.373 72.305 105.65 70.9879 105.65C70.4333 105.65 69.8787 105.581 69.3241 105.373C68.7695 105.165 68.3536 104.887 67.9376 104.471C67.5217 104.056 67.2444 103.57 66.9671 102.946C66.7591 102.322 66.6205 101.56 66.6205 100.659V77.5044H54.3501V78.5443H59.896V101.352C59.896 102.669 60.104 103.778 60.5199 104.749C60.9359 105.719 61.4905 106.551 62.1837 107.175C62.877 107.799 63.7088 108.284 64.6101 108.631C65.5113 108.908 66.4818 109.116 67.4523 109.116C68.4229 109.116 69.4627 108.978 70.5026 108.631C71.5425 108.284 72.5823 107.799 73.5529 107.175C74.5234 106.551 75.3553 105.719 76.1179 104.749C76.6031 104.125 77.0191 103.432 77.3657 102.669C77.435 103.501 77.5737 104.263 77.9203 104.957C78.2669 105.789 78.7522 106.482 79.3761 107.106C80 107.73 80.6932 108.215 81.5251 108.562C82.357 108.908 83.2582 109.116 84.2288 109.116C85.13 109.116 86.0312 108.908 86.9324 108.562C87.7643 108.215 88.5269 107.66 89.1508 106.967C89.4974 106.621 89.6361 106.274 89.6361 105.927C89.6361 105.442 89.3588 105.165 88.8042 105.165ZM81.9411 107.591C81.2478 107.314 80.6239 106.898 80.0693 106.343C79.5147 105.789 79.0988 105.165 78.8215 104.471C78.5442 103.778 78.3362 103.016 78.3362 102.253V78.6136H82.9809V105.997C82.9809 106.759 83.1889 107.314 83.6742 107.799C83.7435 107.868 83.8821 107.938 83.9515 108.076C83.3276 108.007 82.6343 107.868 81.9411 107.591ZM60.9359 78.6136H65.5806V100.659C65.5806 101.629 65.7192 102.53 65.9965 103.293C66.2738 104.056 66.6898 104.679 67.1751 105.165C67.6603 105.719 68.2149 106.066 68.9082 106.343C69.5321 106.551 70.2253 106.69 70.9879 106.69C71.4731 106.69 71.9584 106.621 72.3744 106.551C71.8891 106.828 71.4731 107.036 70.9879 107.244C69.74 107.73 68.6309 107.938 67.5217 107.938C66.6205 107.938 65.7886 107.799 65.026 107.522C64.2634 107.244 63.5702 106.828 62.9463 106.343C62.3917 105.789 61.9064 105.095 61.4905 104.263C61.1439 103.432 60.9359 102.461 60.9359 101.283V78.6136Z" fill="white"/>
<path d="M124.714 105.165C124.506 105.165 124.298 105.234 124.16 105.373C124.021 105.511 123.952 105.719 123.952 105.927C123.952 106.135 123.882 106.343 123.744 106.551C123.605 106.759 123.466 106.898 123.258 107.106C123.05 107.244 122.773 107.383 122.565 107.452C122.288 107.522 122.08 107.591 121.802 107.591C121.317 107.591 120.901 107.452 120.555 107.175C120.208 106.898 120.069 106.551 120.069 106.066V84.922C120.069 83.6742 119.861 82.4957 119.445 81.5251C119.03 80.5546 118.475 79.7227 117.782 79.0988C117.088 78.4749 116.257 77.9896 115.355 77.7123C114.454 77.435 113.484 77.2271 112.513 77.2271C111.543 77.2271 110.503 77.3657 109.463 77.7123C108.423 78.0589 107.383 78.5442 106.413 79.1681C105.442 79.792 104.541 80.6239 103.848 81.5945C103.362 82.2184 102.946 82.9116 102.6 83.6742V77.643H90.3293V78.6829H95.8753V107.66H90.3293V108.77H107.314V107.66H102.53V88.1803C102.53 87.7643 102.6 87.0711 102.808 86.2392C102.946 85.4073 103.293 84.5754 103.778 83.7435C104.263 82.9116 104.887 82.2184 105.719 81.5945C106.551 80.9705 107.591 80.6933 108.908 80.6933C109.463 80.6933 110.017 80.7626 110.572 80.9706C111.057 81.1785 111.543 81.4558 111.958 81.8718C112.374 82.2877 112.652 82.773 112.929 83.3969C113.137 84.0208 113.276 84.7834 113.276 85.6153V102.253C113.276 103.224 113.484 104.125 113.83 104.957C114.177 105.789 114.662 106.482 115.286 107.106C115.91 107.73 116.603 108.215 117.435 108.562C118.267 108.908 119.168 109.116 120.139 109.116C121.109 109.116 122.01 108.908 122.842 108.562C123.674 108.215 124.437 107.66 125.061 107.036C125.407 106.69 125.546 106.343 125.546 105.997C125.546 105.442 125.199 105.165 124.714 105.165ZM117.851 107.591C117.158 107.314 116.534 106.898 115.979 106.343C115.425 105.789 115.009 105.165 114.731 104.471C114.454 103.778 114.315 103.016 114.315 102.253V85.6153C114.315 84.6447 114.177 83.7435 113.9 82.9809C113.622 82.2184 113.206 81.5945 112.721 81.1092C112.236 80.6239 111.681 80.208 110.988 79.9307C110.364 79.6534 109.671 79.5841 108.908 79.5841C108.423 79.5841 107.938 79.6534 107.452 79.7227C107.938 79.4454 108.423 79.1681 108.978 78.9602C110.156 78.4749 111.335 78.1976 112.444 78.1976C113.345 78.1976 114.177 78.3362 114.939 78.6135C115.702 78.8908 116.395 79.3068 117.019 79.792C117.574 80.3466 118.059 81.0399 118.475 81.8718C118.822 82.7037 119.03 83.6742 119.03 84.8527V106.066C119.03 106.759 119.238 107.314 119.653 107.73C119.723 107.799 119.792 107.938 119.931 108.007C119.168 108.007 118.475 107.868 117.851 107.591ZM101.491 78.6135V107.591H96.8458V78.6135H101.491Z" fill="white"/>
<path d="M43.1196 127.348C41.4559 127.348 40.2773 126.101 40.2773 124.298C40.2773 122.496 41.3865 121.248 43.1196 121.248C44.0208 121.248 44.7141 121.664 45.1994 122.218L46.1006 121.179C45.338 120.347 44.3675 119.931 43.1196 119.931C40.624 119.931 38.8215 121.802 38.8215 124.298C38.8215 126.794 40.624 128.666 43.1196 128.666C44.2981 128.666 45.338 128.25 46.1699 127.418L45.2687 126.378C44.7834 126.932 44.0902 127.348 43.1196 127.348Z" fill="white"/>
<path d="M53.5181 120L49.5667 128.527H51.0918L51.785 127.002H55.3206L56.0138 128.527H57.5389L53.5181 120ZM52.2703 125.823L53.5181 122.912L54.766 125.823H52.2703Z" fill="white"/>
<path d="M61.4905 128.527H62.877V125.061H65.9966V123.744H62.877V121.456H66.6205V120.139H61.4905V128.527Z" fill="white"/>
<path d="M70.6414 128.527H72.0972V125.061H75.2167V123.744H72.0972V121.456H75.7713V120.139H70.6414V128.527Z" fill="white"/>
<path d="M81.2478 124.922H84.6447V123.674H81.2478V121.456H85.13V120.139H79.8613V128.527H85.1993V127.21H81.2478V124.922Z" fill="white"/>
<path d="M81.8025 118.406H80.1387L81.8718 119.723H83.3276L81.8025 118.406Z" fill="white"/>
<path d="M99.6881 124.09C100.104 123.813 100.589 123.258 100.589 122.426C100.589 121.04 99.6188 120.208 97.955 120.208H94.8354V128.596H98.5096C100.104 128.596 101.283 127.764 101.283 126.17C101.283 124.922 100.589 124.367 99.6881 124.09ZM96.2912 121.456H97.8164C98.7176 121.456 99.2029 121.872 99.2029 122.565C99.2029 123.189 98.7176 123.674 97.8857 123.674H96.2912V121.456ZM98.371 127.21H96.2912V124.853H98.3017C99.3415 124.853 99.8961 125.269 99.8961 126.031C99.8961 126.794 99.2722 127.21 98.371 127.21Z" fill="white"/>
<path d="M108.562 120L104.61 128.527H106.135L106.828 127.002H110.364L111.057 128.527H112.582L108.562 120ZM107.314 125.823L108.562 122.912L109.809 125.823H107.314Z" fill="white"/>
<path d="M122.565 122.773C122.565 121.04 121.248 120.139 119.584 120.139H116.534V128.527H117.92V125.477H119.376L121.248 128.596H122.912L120.901 125.269C121.872 124.853 122.565 124.021 122.565 122.773ZM119.445 124.229H117.989V121.387H119.445C120.416 121.387 121.109 121.872 121.109 122.773C121.109 123.744 120.485 124.229 119.445 124.229Z" fill="white"/>
</svg>
