<svg width="16" height="16" viewBox="0 0 16 16" fill="none" xmlns="http://www.w3.org/2000/svg">
<path d="M0.731384 5.50537H3.91425V15.1152H0.731384V5.50537Z" fill="#ffffff"/>
<path d="M2.35345 0.884277C1.25169 0.884277 0.547791 1.58818 0.547791 2.53692C0.547791 3.45505 1.25169 4.18956 2.32285 4.18956H2.35345C3.45521 4.18956 4.15911 3.45505 4.15911 2.53692C4.12851 1.58818 3.45521 0.884277 2.35345 0.884277Z" fill="#ffffff"/>
<path d="M11.7796 5.2915C10.0964 5.2915 9.33126 6.20964 8.9028 6.88294V5.50574H5.68933V15.1155H8.87219V9.75975C8.87219 9.48431 8.9028 9.17827 8.96401 8.99464C9.20884 8.41316 9.72912 7.83167 10.6166 7.83167C11.7796 7.83167 12.2387 8.7192 12.2387 10.0046V15.1461H15.4215V9.63733C15.4521 6.6687 13.8913 5.2915 11.7796 5.2915Z" fill="#ffffff"/>
</svg>
