<svg width="14" height="18" viewBox="0 0 14 18" fill="none" xmlns="http://www.w3.org/2000/svg">
<path d="M11.9503 2.18875C10.6271 0.775862 8.86807 0 6.99809 0C5.12811 0 3.37285 0.775862 2.04971 2.18875C0.726577 3.60163 0 5.47595 0 7.47278C0 11.4828 3.49522 14.7659 5.37285 16.5299C5.62524 16.7668 5.84321 16.971 6.01912 17.1466C6.26768 17.3916 6.90631 17.9224 6.93308 17.9428L6.99809 17.9959L7.0631 17.9428C7.08986 17.9224 7.73231 17.3916 7.97705 17.1466C8.14914 16.975 8.36711 16.7709 8.61568 16.534L8.62332 16.5259C10.501 14.7618 13.9923 11.4828 13.9923 7.46869C14 5.47595 13.2696 3.60163 11.9503 2.18875ZM6.35946 15.3294C4.66157 13.7328 1.49904 10.7641 1.49904 7.47278C1.49904 4.23457 3.96558 1.60073 6.99809 1.60073C10.0306 1.60073 12.4971 4.23457 12.4971 7.47278C12.4971 10.76 9.33461 13.7328 7.63671 15.3294C7.57552 15.3866 7.50287 15.456 7.43021 15.5254C7.28107 15.6642 7.09369 15.8439 6.99809 15.9297C6.90248 15.8439 6.7151 15.6642 6.56596 15.5254C6.49331 15.456 6.42065 15.3866 6.35946 15.3294Z" fill="white"/>
<path d="M10.2405 7.20327C10.2405 5.2922 8.78739 3.74048 6.99771 3.74048C5.20804 3.74048 3.75488 5.2922 3.75488 7.20327C3.75488 9.11434 5.20804 10.6661 6.99771 10.6661C8.78739 10.6661 10.2405 9.11434 10.2405 7.20327ZM6.99771 5.3412C7.96139 5.3412 8.7415 6.17832 8.7415 7.20327C8.7415 8.23231 7.95756 9.06534 6.99771 9.06534C6.03787 9.06534 5.25393 8.22823 5.25393 7.20327C5.25393 6.17424 6.03787 5.3412 6.99771 5.3412Z" fill="white"/>
</svg>
