<svg width="116" height="29" viewBox="0 0 116 29" fill="none" xmlns="http://www.w3.org/2000/svg">
<path d="M19.0638 12.005H15.2557V7.32072L9.55484 18.996L3.85404 7.36779V18.9019H0.0458984V0.306107H5.0398L9.55484 9.65107L14.0927 0.306107H19.0638V12.005Z" fill="white"/>
<path d="M15.2324 16.9245C15.2324 18.0073 16.0989 18.9018 17.1479 18.9018C18.1968 18.9018 19.0634 18.0073 19.0634 16.9245C19.0634 15.8417 18.1968 14.9472 17.1479 14.9472C16.0989 14.9472 15.2324 15.8182 15.2324 16.9245Z" fill="white"/>
<path d="M31.2409 19.2313C29.8955 19.2313 28.6414 18.9724 27.5012 18.431C26.361 17.9132 25.3805 17.207 24.5368 16.3125C23.7159 15.4416 23.0546 14.4058 22.5985 13.2524C22.1196 12.099 21.8916 10.875 21.8916 9.6039C21.8916 8.35633 22.1196 7.13231 22.5757 5.9789C23.0318 4.82549 23.6703 3.78977 24.4912 2.89529C25.3121 2.00081 26.3154 1.29464 27.4328 0.776786C28.6186 0.258929 29.8727 0 31.2409 0C32.5635 0 33.7949 0.258929 34.935 0.776786C36.0752 1.2711 37.0557 1.97727 37.8995 2.84821C38.7432 3.71916 39.4045 4.75487 39.8605 5.93182C40.3166 7.10877 40.5674 8.35633 40.5674 9.67451C40.5674 10.9456 40.3394 12.1696 39.8605 13.3231C39.4045 14.4765 38.7432 15.4886 37.8995 16.3596C37.0557 17.2305 36.0752 17.9367 34.935 18.4545C33.8177 18.9724 32.5635 19.2313 31.2409 19.2313ZM31.2409 3.71916C30.2832 3.71916 29.4623 3.90747 28.7782 4.28409C28.0941 4.66071 27.5012 5.15503 27.0451 5.74351C26.5891 6.33198 26.247 6.96753 26.019 7.6737C25.791 8.37987 25.6769 9.03896 25.6769 9.62744C25.6769 10.2394 25.791 10.9221 26.019 11.6282C26.247 12.3344 26.5891 12.97 27.0451 13.5584C27.5012 14.1234 28.0713 14.6177 28.7782 14.9943C29.4623 15.3709 30.2832 15.5593 31.2409 15.5593C32.1987 15.5593 33.0196 15.3709 33.7037 14.9943C34.3878 14.6177 34.9807 14.1234 35.4139 13.5584C35.87 12.97 36.212 12.3344 36.4401 11.6518C36.6681 10.9692 36.7821 10.3101 36.7821 9.69805C36.7821 9.01542 36.6681 8.30925 36.4173 7.60308C36.1892 6.89692 35.8244 6.23782 35.3683 5.67289C34.9122 5.10795 34.3422 4.63718 33.6353 4.26055C32.974 3.90747 32.1531 3.71916 31.2409 3.71916Z" fill="white"/>
<path d="M29.3252 9.62745C29.3252 10.7102 30.1917 11.6047 31.2407 11.6047C32.2896 11.6047 33.1561 10.7102 33.1561 9.62745C33.1561 8.54466 32.2896 7.65018 31.2407 7.65018C30.1917 7.65018 29.3252 8.52112 29.3252 9.62745Z" fill="white"/>
<path d="M48.6853 0.282349C49.9851 0.282349 51.2392 0.47066 52.3338 0.917901C54.3633 1.74176 55.7999 3.43657 55.7999 6.30832C55.7999 7.76774 55.4122 9.10946 54.5457 10.1216C54.1808 10.5689 53.702 10.969 53.1547 11.275L55.6403 18.0307L56.0051 18.9958H51.9917L51.6269 18.0307C50.92 16.1005 50.2131 14.1703 49.5062 12.2166C49.415 12.2166 49.3238 12.2166 49.2553 12.2166H47.5679V18.9958H43.7598V8.52099H49.2553C49.9851 8.52099 50.692 8.37975 51.1936 8.02667C51.6725 7.69712 51.9917 7.15573 51.9917 6.33186C51.9917 5.31969 51.4901 4.73121 50.806 4.40167C50.1903 4.09566 49.3922 4.02504 48.6625 4.02504V0.282349H48.6853Z" fill="white"/>
<path d="M43.7598 2.28338C43.7598 3.36617 44.6263 4.26065 45.6752 4.26065C46.7242 4.26065 47.5907 3.36617 47.5907 2.28338C47.5907 1.20059 46.7242 0.306107 45.6752 0.306107C44.6035 0.306107 43.7598 1.20059 43.7598 2.28338Z" fill="white"/>
<path d="M59.6299 18.996V0.306107H69.9825V4.11942H63.438V15.2298H69.9825V18.996H59.6299Z" fill="white"/>
<path d="M64.2363 9.62745C64.2363 10.7102 65.1029 11.6047 66.1518 11.6047C67.2008 11.6047 68.0673 10.7102 68.0673 9.62745C68.0673 8.54466 67.2008 7.65018 66.1518 7.65018C65.1029 7.65018 64.2363 8.52112 64.2363 9.62745Z" fill="white"/>
<path d="M89.0237 18.996H85.4436L78.2378 7.76796V11.9108H74.4297V0.306107H78.1466L78.3518 0.635652L85.2156 11.2046V0.353184H89.0009V7.29718H89.0237V18.996Z" fill="white"/>
<path d="M74.4072 16.9245C74.4072 18.0073 75.2738 18.9018 76.3227 18.9018C77.3717 18.9018 78.2382 18.0073 78.2382 16.9245C78.2382 15.8417 77.3717 14.9472 76.3227 14.9472C75.2738 14.9472 74.4072 15.8417 74.4072 16.9245Z" fill="white"/>
<path d="M96.6861 6.04944H92.8779V18.9959H96.6861V6.04944Z" fill="white"/>
<path d="M92.9004 2.28338C92.9004 3.36617 93.7669 4.26065 94.8159 4.26065C95.8648 4.26065 96.7313 3.36617 96.7313 2.28338C96.7313 1.20059 95.8648 0.306107 94.8159 0.306107C93.7669 0.306107 92.9004 1.20059 92.9004 2.28338Z" fill="white"/>
<path d="M113.788 13.9586H104.712L102.865 19.0195H98.8291L105.67 0.329575H108.794L113.788 13.9586ZM106.035 10.2395H108.406L107.221 6.5674L106.035 10.2395Z" fill="white"/>
<path d="M111.462 17.0187C111.462 18.1015 112.328 18.996 113.377 18.996C114.426 18.996 115.293 18.1015 115.293 17.0187C115.293 15.9359 114.426 15.0415 113.377 15.0415C112.306 15.0415 111.462 15.9359 111.462 17.0187Z" fill="white"/>
<path d="M115.042 27.3287L113.971 24.2451L112.899 27.3287H115.042ZM116 28.9529H115.59L115.156 27.6818H112.785L112.351 28.9529H111.941L113.811 23.7037H114.153L116 28.9529ZM111.189 28.3409C110.96 28.5527 110.732 28.7175 110.527 28.8352C110.299 28.9529 110.048 28.9999 109.775 28.9999C109.524 28.9999 109.296 28.9529 109.091 28.8587C108.863 28.7646 108.68 28.6233 108.521 28.4586C108.361 28.2938 108.27 28.129 108.201 27.9642C108.133 27.7995 108.087 27.5876 108.087 27.3758C108.064 27.1639 108.064 26.8108 108.064 26.34C108.064 25.8693 108.064 25.5162 108.087 25.3043C108.11 25.0925 108.156 24.8806 108.201 24.7159C108.27 24.5511 108.384 24.3863 108.521 24.2215C108.68 24.0568 108.885 23.9155 109.091 23.8214C109.319 23.7272 109.547 23.6801 109.775 23.6801C110.071 23.6801 110.322 23.7272 110.55 23.8449C110.778 23.9626 111.006 24.1274 111.211 24.3392L110.96 24.5982C110.778 24.4099 110.596 24.2686 110.413 24.1745C110.231 24.0803 110.026 24.0332 109.775 24.0332C109.592 24.0332 109.41 24.0568 109.25 24.1274C109.091 24.198 108.931 24.2922 108.817 24.4334C108.726 24.5275 108.657 24.6217 108.612 24.7159C108.566 24.81 108.521 24.9512 108.498 25.0925C108.475 25.2573 108.452 25.422 108.452 25.6103C108.452 25.7987 108.452 26.034 108.452 26.3165C108.452 26.7402 108.452 27.0462 108.475 27.2581C108.498 27.4699 108.521 27.6582 108.589 27.7995C108.635 27.9407 108.726 28.0819 108.84 28.1996C108.954 28.3173 109.113 28.435 109.273 28.5056C109.433 28.5762 109.615 28.5998 109.798 28.5998C109.957 28.5998 110.117 28.5762 110.254 28.5292C110.39 28.4821 110.504 28.4115 110.618 28.3409C110.732 28.2702 110.846 28.1525 110.983 28.0349L111.189 28.3409ZM106.217 27.3287L105.146 24.2451L104.074 27.3287H106.217ZM107.175 28.9529H106.765L106.331 27.6818H103.96L103.527 28.9529H103.116L104.986 23.7037H105.328L107.175 28.9529ZM101.885 26.2694V26.0576C101.885 25.681 101.862 25.3749 101.816 25.116C101.771 24.8571 101.657 24.6452 101.497 24.4805C101.246 24.198 100.881 24.0803 100.403 24.0803H99.194V28.6233H100.425C100.904 28.6233 101.269 28.4821 101.52 28.2232C101.68 28.0584 101.794 27.823 101.839 27.5405C101.885 27.2581 101.908 26.905 101.908 26.5048V26.2694H101.885ZM102.272 26.2694V26.4342C102.272 26.905 102.25 27.3051 102.181 27.6347C102.113 27.9878 101.976 28.2467 101.771 28.4821C101.68 28.5762 101.566 28.6704 101.429 28.741C101.292 28.8116 101.155 28.8587 100.995 28.9058C100.836 28.9529 100.676 28.9529 100.494 28.9529H98.7836V23.7037H100.494C100.676 23.7037 100.836 23.7272 100.995 23.7508C101.155 23.7978 101.292 23.8449 101.429 23.9155C101.566 23.9862 101.68 24.0803 101.771 24.1745C101.976 24.3863 102.113 24.6452 102.181 24.9512C102.25 25.2573 102.272 25.6339 102.272 26.0811V26.2694ZM96.9137 26.34C96.9137 25.9163 96.9137 25.6103 96.8909 25.3985C96.8681 25.1866 96.8453 24.9983 96.7769 24.8571C96.7313 24.7159 96.6401 24.5746 96.526 24.4569C96.3892 24.3157 96.2524 24.2215 96.0928 24.1509C95.9332 24.0803 95.7507 24.0568 95.5683 24.0568C95.3859 24.0568 95.2035 24.0803 95.0438 24.1509C94.8842 24.2215 94.7246 24.3157 94.6106 24.4569C94.5194 24.5511 94.451 24.6452 94.4053 24.7394C94.3597 24.8336 94.3141 24.9748 94.2913 25.116C94.2685 25.2808 94.2457 25.4456 94.2457 25.6339C94.2457 25.8222 94.2457 26.0576 94.2457 26.34C94.2457 26.7637 94.2457 27.0698 94.2685 27.2816C94.2913 27.4935 94.3141 27.6818 94.3825 27.823C94.4281 27.9642 94.5194 28.1055 94.6334 28.2232C94.7702 28.3644 94.907 28.4586 95.0666 28.5292C95.2263 28.5998 95.4087 28.6233 95.5911 28.6233C95.7735 28.6233 95.956 28.5998 96.1156 28.5292C96.2752 28.4586 96.4348 28.3644 96.5488 28.2232C96.6629 28.1055 96.7541 27.9642 96.8225 27.823C96.8909 27.6818 96.9137 27.4935 96.9365 27.2816C96.8909 27.0698 96.9137 26.7402 96.9137 26.34ZM97.3014 26.34C97.3014 26.8108 97.3014 27.1639 97.2785 27.3758C97.2557 27.5876 97.2329 27.7995 97.1645 27.9642C97.0961 28.129 96.9821 28.2938 96.8453 28.4586C96.6857 28.6233 96.4804 28.7646 96.2752 28.8587C96.0472 28.9529 95.8191 28.9999 95.5911 28.9999C95.3403 28.9999 95.1122 28.9529 94.907 28.8587C94.679 28.7646 94.4966 28.6233 94.3369 28.4586C94.1773 28.2938 94.0861 28.129 94.0177 27.9642C93.9493 27.7995 93.9037 27.5876 93.9037 27.3758C93.8809 27.1639 93.8809 26.8108 93.8809 26.34C93.8809 25.8693 93.8809 25.5162 93.9037 25.3043C93.9265 25.0925 93.9493 24.8806 94.0177 24.7159C94.0861 24.5511 94.2001 24.3863 94.3369 24.2215C94.4966 24.0568 94.7018 23.9155 94.907 23.8214C95.135 23.7272 95.3631 23.6801 95.5911 23.6801C95.8419 23.6801 96.07 23.7272 96.2752 23.8214C96.5032 23.9155 96.6857 24.0568 96.8453 24.2215C97.0049 24.3863 97.0961 24.5511 97.1645 24.7159C97.2329 24.8806 97.2785 25.0925 97.2785 25.3043C97.2785 25.5162 97.3014 25.8693 97.3014 26.34ZM92.3759 25.2337C92.3759 24.8571 92.2618 24.5511 92.0566 24.3628C91.8514 24.1745 91.5549 24.0803 91.1901 24.0803H89.7535V26.3871H91.1901C91.5549 26.3871 91.8514 26.293 92.0566 26.1047C92.2846 25.8928 92.3759 25.6103 92.3759 25.2337ZM92.7635 25.2337C92.7635 25.7045 92.6267 26.0576 92.3302 26.34C92.0338 26.599 91.669 26.7402 91.2357 26.7402H89.7535V28.9529H89.3658V23.7037H91.2357C91.4637 23.7037 91.669 23.7272 91.8514 23.7978C92.0338 23.8685 92.1934 23.9626 92.3302 24.0803C92.4671 24.2215 92.5811 24.3628 92.6495 24.5511C92.7407 24.7865 92.7635 24.9983 92.7635 25.2337ZM79.15 24.0568H77.6222V28.9529H77.2345V24.0568H75.7295V23.7037H79.15V24.0568ZM74.4753 25.1396C74.4753 24.7865 74.3841 24.5275 74.1789 24.3392C73.9737 24.1509 73.7 24.0803 73.358 24.0803H71.853V26.1988H73.358C73.5176 26.1988 73.6772 26.1753 73.814 26.1282C73.9509 26.0811 74.0649 26.0105 74.1561 25.9399C74.2473 25.8457 74.3385 25.7516 74.3841 25.6103C74.4525 25.4691 74.4753 25.3043 74.4753 25.1396ZM74.9086 28.9529H74.4525L73.244 26.5284H71.853V28.9529H71.4653V23.7037H73.4036C73.6772 23.7037 73.9281 23.7508 74.1561 23.8685C74.3841 23.9862 74.5437 24.1274 74.6806 24.3392C74.7946 24.5511 74.863 24.81 74.863 25.0925C74.863 25.4691 74.749 25.7987 74.5437 26.034C74.3385 26.2694 74.0421 26.4342 73.6772 26.5048L74.9086 28.9529ZM69.5726 26.34C69.5726 25.9163 69.5726 25.6103 69.5498 25.3985C69.527 25.1866 69.5042 24.9983 69.4358 24.8571C69.3902 24.7159 69.299 24.5746 69.185 24.4569C69.0482 24.3157 68.9113 24.2215 68.7517 24.1509C68.5921 24.0803 68.4097 24.0568 68.2272 24.0568C68.0448 24.0568 67.8624 24.0803 67.7028 24.1509C67.5431 24.2215 67.3835 24.3157 67.2695 24.4569C67.1783 24.5511 67.1099 24.6452 67.0643 24.7394C67.0187 24.8336 66.9731 24.9748 66.9503 25.116C66.9275 25.2808 66.9047 25.4456 66.9047 25.6339C66.9047 25.8222 66.9047 26.0576 66.9047 26.34C66.9047 26.7637 66.9047 27.0698 66.9275 27.2816C66.9503 27.4935 66.9731 27.6818 67.0415 27.823C67.0871 27.9642 67.1783 28.1055 67.2923 28.2232C67.4291 28.3644 67.5659 28.4586 67.7256 28.5292C67.8852 28.5998 68.0676 28.6233 68.25 28.6233C68.4325 28.6233 68.6149 28.5998 68.7745 28.5292C68.9341 28.4586 69.0938 28.3644 69.2078 28.2232C69.3218 28.1055 69.413 27.9642 69.4814 27.823C69.527 27.6818 69.5726 27.4935 69.5954 27.2816C69.5726 27.0698 69.5726 26.7402 69.5726 26.34ZM69.9603 26.34C69.9603 26.8108 69.9603 27.1639 69.9375 27.3758C69.9147 27.5876 69.8919 27.7995 69.8235 27.9642C69.7551 28.129 69.641 28.2938 69.5042 28.4586C69.3446 28.6233 69.1394 28.7646 68.9341 28.8587C68.7061 28.9529 68.4781 28.9999 68.25 28.9999C67.9992 28.9999 67.7712 28.9529 67.5659 28.8587C67.3379 28.7646 67.1555 28.6233 66.9959 28.4586C66.8362 28.2938 66.745 28.129 66.6766 27.9642C66.6082 27.7995 66.5626 27.5876 66.5626 27.3758C66.5398 27.1639 66.5398 26.8108 66.5398 26.34C66.5398 25.8693 66.5398 25.5162 66.5626 25.3043C66.5854 25.0925 66.6082 24.8806 66.6766 24.7159C66.745 24.5511 66.859 24.3863 66.9959 24.2215C67.1555 24.0568 67.3607 23.9155 67.5659 23.8214C67.794 23.7272 68.022 23.6801 68.25 23.6801C68.5009 23.6801 68.7289 23.7272 68.9341 23.8214C69.1622 23.9155 69.3446 24.0568 69.5042 24.2215C69.6638 24.3863 69.7551 24.5511 69.8235 24.7159C69.8919 24.8806 69.9375 25.0925 69.9375 25.3043C69.9603 25.5162 69.9603 25.8693 69.9603 26.34ZM65.3312 27.5405C65.3312 27.7524 65.2856 27.9642 65.2172 28.129C65.1488 28.3173 65.0348 28.4586 64.8752 28.5998C64.7383 28.7175 64.5559 28.8116 64.3279 28.8823C64.1227 28.9529 63.8718 28.9764 63.621 28.9764C63.3702 28.9764 63.1649 28.9529 62.9597 28.9058C62.7545 28.8587 62.572 28.7881 62.4124 28.6704C62.2528 28.5762 62.0932 28.435 61.9336 28.2702L62.2072 27.9878C62.3668 28.1525 62.5036 28.2702 62.6405 28.3644C62.7773 28.4586 62.9369 28.5292 63.0965 28.5527C63.2561 28.5998 63.4386 28.5998 63.6438 28.5998C63.9174 28.5998 64.1455 28.5527 64.3279 28.4821C64.5331 28.3879 64.6699 28.2702 64.784 28.1055C64.898 27.9407 64.9436 27.7524 64.9436 27.517C64.9436 27.1875 64.8524 26.9521 64.6699 26.7873C64.5787 26.7167 64.4875 26.6461 64.3735 26.6225C64.2595 26.5754 64.1227 26.5519 63.9174 26.5284L63.3246 26.4342C62.9369 26.3636 62.6405 26.2459 62.4124 26.0576C62.1388 25.8222 62.002 25.5162 62.002 25.0925C62.002 24.8806 62.0476 24.6688 62.116 24.504C62.1844 24.3157 62.2984 24.1745 62.4352 24.0568C62.572 23.9391 62.7317 23.8449 62.9369 23.7743C63.1421 23.7037 63.3474 23.6801 63.5982 23.6801C63.9174 23.6801 64.1683 23.7272 64.3963 23.8214C64.6243 23.9155 64.8296 24.0568 65.0576 24.2451L64.8068 24.504C64.6243 24.3392 64.4419 24.2215 64.2595 24.1274C64.0771 24.0568 63.849 24.0097 63.5754 24.0097C63.2105 24.0097 62.9141 24.1038 62.7089 24.2922C62.5036 24.4805 62.3896 24.7394 62.3896 25.0925C62.3896 25.3985 62.4808 25.6339 62.6405 25.7751C62.7317 25.8457 62.8457 25.9163 62.9825 25.987C63.1193 26.034 63.2561 26.0811 63.393 26.1047L63.9402 26.1988C64.1683 26.2459 64.3507 26.2694 64.4875 26.3165C64.6243 26.3636 64.7383 26.4342 64.8524 26.5284C64.9892 26.6461 65.1032 26.7873 65.1716 26.9756C65.3084 27.1404 65.3312 27.3522 65.3312 27.5405ZM61.0214 28.9529H57.943V23.7037H61.0214V24.0568H58.3306V26.1282H60.6338V26.4813H58.3306V28.5998H61.0214V28.9529ZM56.1187 25.1396C56.1187 24.7865 56.0275 24.5275 55.8223 24.3392C55.6171 24.1509 55.3434 24.0803 55.0014 24.0803H53.4964V26.1988H55.0014C55.161 26.1988 55.3206 26.1753 55.4574 26.1282C55.5943 26.0811 55.7083 26.0105 55.7995 25.9399C55.8907 25.8457 55.9819 25.7516 56.0275 25.6103C56.0959 25.4691 56.1187 25.3043 56.1187 25.1396ZM56.5748 28.9529H56.1187L54.9102 26.5284H53.5192V28.9529H53.1315V23.7037H55.0698C55.3434 23.7037 55.5943 23.7508 55.8223 23.8685C56.0503 23.9862 56.2099 24.1274 56.3468 24.3392C56.4608 24.5511 56.5292 24.81 56.5292 25.0925C56.5292 25.4691 56.4152 25.7987 56.2099 26.034C56.0047 26.2694 55.7083 26.4342 55.3434 26.5048L56.5748 28.9529ZM49.9847 28.9529H46.9062V23.7037H49.9847V24.0568H47.2939V26.1282H49.597V26.4813H47.2939V28.5998H49.9847V28.9529ZM45.9029 23.7037L44.2383 28.9529H43.919L42.2544 23.7037H42.6648L44.1014 28.2467L45.5152 23.7037H45.9029ZM41.251 28.9529H40.8634V23.7037H41.251V28.9529ZM39.518 27.5405C39.518 27.7524 39.4724 27.9642 39.404 28.129C39.3356 28.3173 39.2215 28.4586 39.0619 28.5998C38.9251 28.7175 38.7427 28.8116 38.5146 28.8823C38.3094 28.9529 38.0586 28.9764 37.8077 28.9764C37.5569 28.9764 37.3517 28.9529 37.1465 28.9058C36.9412 28.8587 36.7588 28.7881 36.5992 28.6704C36.4396 28.5762 36.2799 28.435 36.1203 28.2702L36.3939 27.9878C36.5536 28.1525 36.6904 28.2702 36.8272 28.3644C36.964 28.4586 37.1236 28.5292 37.2833 28.5527C37.4429 28.5998 37.6253 28.5998 37.8305 28.5998C38.1042 28.5998 38.3322 28.5527 38.5146 28.4821C38.7199 28.3879 38.8567 28.2702 38.9707 28.1055C39.0847 27.9407 39.1303 27.7524 39.1303 27.517C39.1303 27.1875 39.0391 26.9521 38.8567 26.7873C38.7655 26.7167 38.6743 26.6461 38.5603 26.6225C38.4462 26.5754 38.3094 26.5519 38.1042 26.5284L37.5113 26.4342C37.1236 26.3636 36.8272 26.2459 36.5992 26.0576C36.3255 25.8222 36.1887 25.5162 36.1887 25.0925C36.1887 24.8806 36.2343 24.6688 36.3027 24.504C36.3711 24.3157 36.4852 24.1745 36.622 24.0568C36.7588 23.9391 36.9184 23.8449 37.1236 23.7743C37.3289 23.7037 37.5341 23.6801 37.7849 23.6801C38.1042 23.6801 38.355 23.7272 38.5831 23.8214C38.8111 23.9155 39.0163 24.0568 39.2443 24.2451L38.9935 24.504C38.8111 24.3392 38.6287 24.2215 38.4462 24.1274C38.2638 24.0568 38.0358 24.0097 37.7621 24.0097C37.3973 24.0097 37.1008 24.1038 36.8956 24.2922C36.6904 24.4805 36.5764 24.7394 36.5764 25.0925C36.5764 25.3985 36.6676 25.6339 36.8272 25.7751C36.9184 25.8457 37.0324 25.9163 37.1693 25.987C37.3061 26.034 37.4429 26.0811 37.5797 26.1047L38.127 26.1988C38.355 26.2459 38.5374 26.2694 38.6743 26.3165C38.8111 26.3636 38.9251 26.4342 39.0391 26.5284C39.1759 26.6461 39.29 26.7873 39.3584 26.9756C39.4724 27.1404 39.518 27.3522 39.518 27.5405ZM34.8889 27.2581C34.8889 27.5876 34.8205 27.8936 34.6609 28.1525C34.5241 28.4115 34.3189 28.6233 34.0452 28.7646C33.7716 28.9058 33.4751 28.9764 33.1559 28.9764C32.8138 28.9764 32.5174 28.9058 32.2438 28.7646C31.9701 28.6233 31.7649 28.4115 31.6281 28.1525C31.4913 27.8936 31.4 27.5876 31.4 27.2581V23.7272H31.7877V27.211C31.7877 27.4935 31.8333 27.7524 31.9473 27.9642C32.0613 28.1761 32.221 28.3409 32.4262 28.4586C32.6314 28.5762 32.8594 28.6469 33.1331 28.6469C33.3839 28.6469 33.6348 28.5762 33.84 28.4586C34.0452 28.3409 34.2048 28.1761 34.3189 27.9642C34.4329 27.7524 34.4785 27.4935 34.4785 27.211V23.7272H34.8661V27.2581H34.8889ZM30.3511 28.9529H27.2727V23.7037H27.6603V28.5998H30.3511V28.9529ZM25.8361 28.3409C25.608 28.5527 25.38 28.7175 25.1748 28.8352C24.9467 28.9529 24.6959 28.9999 24.4223 28.9999C24.1714 28.9999 23.9434 28.9529 23.7382 28.8587C23.5101 28.7646 23.3277 28.6233 23.1681 28.4586C23.0085 28.2938 22.9172 28.129 22.8488 27.9642C22.7804 27.7995 22.7348 27.5876 22.7348 27.3758C22.712 27.1639 22.712 26.8108 22.712 26.34C22.712 25.8693 22.712 25.5162 22.7348 25.3043C22.7576 25.0925 22.7804 24.8806 22.8488 24.7159C22.9172 24.5511 23.0313 24.3863 23.1681 24.2215C23.3277 24.0568 23.5329 23.9155 23.7382 23.8214C23.9662 23.7272 24.1942 23.6801 24.4223 23.6801C24.7187 23.6801 24.9695 23.7272 25.1976 23.8449C25.4256 23.9626 25.6536 24.1274 25.8589 24.3392L25.608 24.5982C25.4256 24.4099 25.2432 24.2686 25.0607 24.1745C24.8783 24.0803 24.6731 24.0332 24.4223 24.0332C24.2398 24.0332 24.0574 24.0568 23.8978 24.1274C23.7382 24.198 23.5785 24.2922 23.4645 24.4334C23.3733 24.5275 23.3049 24.6217 23.2593 24.7159C23.2137 24.81 23.1681 24.9512 23.1453 25.0925C23.1225 25.2573 23.0997 25.422 23.0997 25.6103C23.0997 25.7987 23.0997 26.034 23.0997 26.3165C23.0997 26.7402 23.0997 27.0462 23.1225 27.2581C23.1453 27.4699 23.1681 27.6582 23.2365 27.7995C23.2821 27.9407 23.3733 28.0819 23.4873 28.1996C23.6013 28.3173 23.761 28.435 23.9206 28.5056C24.0802 28.5762 24.2626 28.5998 24.4451 28.5998C24.6047 28.5998 24.7643 28.5762 24.9011 28.5292C25.0379 28.4821 25.152 28.4115 25.266 28.3409C25.38 28.2702 25.494 28.1525 25.6308 28.0349L25.8361 28.3409ZM21.1614 28.9529H20.7737L17.8321 24.3863V28.9529H17.4445V23.7037H17.8321L20.7737 28.2467V23.7037H21.1614V28.9529ZM15.757 28.9529H15.3694V23.7037H15.757V28.9529ZM12.405 28.9529H9.32652V23.7037H9.71417V28.5998H12.405V28.9529ZM8.18636 28.9529H5.10792V23.7037H5.49558V28.5998H8.18636V28.9529ZM3.10124 27.3287L2.02949 24.2451L0.957735 27.3287H3.10124ZM4.08178 28.9529H3.67132L3.23806 27.6818H0.843719L0.410458 28.9529H0L1.86986 23.7037H2.21191L4.08178 28.9529Z" fill="white"/>
<path d="M82.4795 26.3401C82.4795 27.4229 83.346 28.3174 84.395 28.3174C85.4439 28.3174 86.3104 27.4229 86.3104 26.3401C86.3104 25.2573 85.4439 24.3629 84.395 24.3629C83.346 24.3629 82.4795 25.2338 82.4795 26.3401Z" fill="white"/>
</svg>
