<svg width="81" height="69" viewBox="0 0 81 69" fill="none" xmlns="http://www.w3.org/2000/svg">
<g clip-path="url(#clip0)">
<path d="M13.1606 14.5916L13.3856 15.3403C12.9806 15.4084 12.5531 15.6126 12.2831 16.0437C11.7656 16.8606 12.0131 17.8135 12.8681 18.3581C13.7006 18.9027 14.6906 18.7211 15.2306 17.8816C15.4331 17.5639 15.5006 17.2463 15.5006 16.9059L14.7131 16.3841L14.1056 17.337L13.4981 16.9967L14.5556 15.3403L16.2881 16.4521C16.4006 17.0648 16.2656 17.7001 15.8831 18.29C15.0956 19.538 13.6331 19.8329 12.4406 19.0615C11.2481 18.29 10.9106 16.8379 11.6756 15.6353C12.0356 15.0227 12.5306 14.705 13.1606 14.5916ZM18.4706 9.96283C18.9656 10.4393 19.0331 11.0519 18.8081 11.5965L20.9681 12.1184L20.2931 12.7991L18.2906 12.3226L17.7281 12.9125L18.9881 14.1605L18.4256 14.7504L15.0056 11.3469L16.2206 10.1217C16.8731 9.41827 17.7731 9.25945 18.4706 9.96283ZM16.0631 11.2562L17.2106 12.3907L17.7956 11.778C18.2006 11.3696 18.2681 10.9158 17.8856 10.5301C17.5256 10.167 17.0531 10.2351 16.6481 10.6208L16.0631 11.2562ZM26.1656 8.37454L25.4231 8.87372L24.6356 8.35185L22.9706 9.46365L23.1281 10.3939L22.3856 10.8931L21.5756 5.5383L21.5981 5.51561L26.1656 8.37454ZM22.8356 8.76027L24.0506 7.94343L22.5206 6.94508L22.8356 8.76027ZM31.7456 6.06017H31.7231L27.8981 4.24498L28.9781 7.03584L28.2131 7.3308L26.4581 2.74745H26.4806L30.3056 4.56264L29.2256 1.77178L29.9906 1.47681L31.7456 6.06017ZM38.0006 2.24827C38.2256 3.7458 37.4156 4.78954 35.7956 5.03912L34.3331 5.26602L33.5906 0.478456L35.0531 0.251557C36.6956 0.0246582 37.7756 0.750735 38.0006 2.24827ZM34.5356 1.13646L35.0306 4.40381L35.6606 4.31305C36.8081 4.13153 37.3481 3.42814 37.1906 2.38441C37.0331 1.34067 36.3131 0.841494 35.1656 1.02301L34.5356 1.13646ZM48.0131 5.44754L47.2256 5.3114L47.5856 3.24662L45.4256 2.86089L45.0656 4.92568L44.2556 4.78954L45.1106 0.0246582L45.9206 0.160798L45.5606 2.11213L47.7206 2.49786L48.0806 0.546526L48.868 0.682665L48.0131 5.44754ZM55.753 5.81058C55.1905 7.14928 53.818 7.69384 52.5355 7.14928C51.253 6.58204 50.713 5.22064 51.2755 3.88194C51.838 2.56593 53.2105 1.99868 54.493 2.54324C55.7755 3.08779 56.3155 4.49457 55.753 5.81058ZM52.0406 4.1996C51.6355 5.12988 51.973 6.06017 52.8505 6.4459C53.7055 6.80894 54.6055 6.42321 55.0105 5.49292C55.4155 4.56264 55.078 3.60966 54.223 3.24662C53.323 2.86089 52.423 3.24662 52.0406 4.1996ZM62.1205 8.0115L60.793 7.05853L58.4305 10.4166L57.7555 9.94014L60.118 6.58204L58.7905 5.62906L59.218 5.03912L62.5255 7.42156L62.1205 8.0115ZM66.5305 12.3907L65.0005 10.7797L64.078 11.6646L65.4055 13.0713L64.888 13.5705L63.5605 12.1638L62.593 13.094L64.1455 14.7504L63.6055 15.2723L61.4905 13.026L64.9555 9.69055L67.048 11.8915L66.5305 12.3907ZM66.238 17.5413L67.4305 19.3791L66.823 19.7876L65.1805 17.2463L69.1855 14.5916L69.6355 15.2723L66.238 17.5413ZM14.3081 52.1433C14.0156 52.3249 13.7456 52.2795 13.5881 52.1887C13.6781 52.5291 13.6106 52.8921 13.2281 53.119C12.7331 53.414 12.2156 53.2098 11.9006 52.6879L11.1806 51.4853L13.9256 49.829L14.5331 50.85C14.8481 51.3719 14.7581 51.8711 14.3081 52.1433ZM12.6656 51.2131L11.9006 51.6895L12.3056 52.3702C12.4856 52.6652 12.7331 52.7787 12.9806 52.6198C13.2281 52.461 13.2506 52.2114 13.0481 51.8711L12.6656 51.2131ZM13.7681 50.5324L13.0481 50.9635L13.3631 51.4853C13.5206 51.7576 13.7681 51.8257 13.9706 51.6895C14.1956 51.5534 14.2406 51.3038 14.0606 51.0089L13.7681 50.5324ZM15.0731 57.1124L14.7131 56.6359L15.0056 56.0687L14.1731 55.0023L13.5656 55.1611L13.2056 54.6846L16.6931 53.8451V53.8678L15.0731 57.1124ZM14.6456 54.8888L15.2531 55.6603L15.8156 54.5939L14.6456 54.8888ZM19.6181 57.6116L19.1006 57.7251C19.0781 57.4755 18.9881 57.2032 18.7406 56.9536C18.5156 56.7267 18.2681 56.6813 18.0656 56.8855C17.8856 57.0671 17.9306 57.2259 18.2231 57.6797C18.6731 58.3604 18.6731 58.7688 18.3131 59.1091C17.8856 59.5402 17.3006 59.4949 16.7831 58.9957C16.4456 58.6553 16.2656 58.2469 16.2206 57.8385L16.7381 57.7251C16.7381 58.0427 16.8956 58.4058 17.1206 58.6553C17.3906 58.9276 17.6606 58.973 17.8631 58.7688C18.0206 58.61 17.9981 58.3831 17.7056 57.952C17.2556 57.2486 17.3006 56.8628 17.6381 56.5225C18.0431 56.1141 18.6056 56.1595 19.0781 56.6133C19.3931 56.9309 19.5731 57.2939 19.6181 57.6116ZM19.1456 56.5679L19.1006 55.5922L19.4156 55.9099L19.4381 56.2729L19.7981 56.2956L20.1131 56.6133L19.1456 56.5679ZM21.0356 60.4932L20.9231 62.5353L20.4056 62.1269L20.4956 60.6974L19.1906 61.1739L18.8531 60.9016L20.8331 58.3831L21.2606 58.7234L19.9556 60.3798L22.2056 59.4722L22.7006 59.8806L21.0356 60.4932ZM24.5231 64.827L24.0056 64.5093L24.0956 63.874L22.9481 63.1706L22.4306 63.5337L21.9356 63.216L24.9056 61.1966H24.9281L24.5231 64.827ZM23.3531 62.8984L24.1856 63.3975L24.3431 62.195L23.3531 62.8984ZM29.0006 66.9145L28.6856 63.3068L29.2481 63.511L29.3831 65.8253L30.9806 64.169L31.5431 64.3732L29.0006 66.9145ZM35.1431 66.9145C34.9406 67.8674 34.0856 68.3893 33.1856 68.1851C32.2631 67.9809 31.7456 67.1414 31.9706 66.1884C32.1731 65.2581 33.0056 64.7135 33.9281 64.9178C34.8281 65.122 35.3681 65.9842 35.1431 66.9145ZM32.5106 66.3018C32.3531 66.9598 32.6906 67.5271 33.2981 67.6859C33.9056 67.8221 34.4456 67.459 34.6031 66.801C34.7606 66.143 34.4231 65.5531 33.8156 65.4169C33.2081 65.2808 32.6681 65.6438 32.5106 66.3018ZM39.3056 67.3683C39.2156 68.3893 38.5406 68.9112 37.4381 68.8204L36.4481 68.7297L36.7406 65.5077L37.7306 65.5984C38.8106 65.7119 39.3956 66.3472 39.3056 67.3683ZM37.2356 66.0749L37.0331 68.2759L37.4606 68.3212C38.2256 68.3893 38.6981 68.0263 38.7431 67.3229C38.8106 66.6195 38.4281 66.1884 37.6406 66.1203L37.2356 66.0749ZM43.4681 68.9339L42.8831 68.9566L42.6131 68.3893L41.2631 68.4347L41.0156 69.0246L40.4306 69.0473L41.8481 65.7346H41.8706L43.4681 68.9339ZM41.4431 67.9355L42.4106 67.9128L41.8931 66.801L41.4431 67.9355ZM47.2931 67.2094C47.3381 67.391 47.2256 67.5725 47.0231 67.5952C46.8431 67.6405 46.6631 67.5044 46.6406 67.3229C46.5956 67.1414 46.7081 66.9598 46.9106 66.9372C47.1131 66.9145 47.2705 67.0279 47.2931 67.2094ZM52.108 64.1463L50.713 64.6455L50.9831 65.4396L52.198 65.0085L52.3555 65.4623L51.1405 65.8934L51.433 66.7329L52.8505 66.2338L53.008 66.7103L51.073 67.391L50.0155 64.3505L51.928 63.6698L52.108 64.1463ZM55.123 62.5353L55.0555 63.0572C54.808 62.9891 54.5155 62.9891 54.223 63.1479C53.9305 63.2841 53.7955 63.511 53.9305 63.7606C54.043 63.9875 54.223 64.0102 54.718 63.874C55.5055 63.6698 55.888 63.8286 56.0905 64.2598C56.338 64.8043 56.113 65.3489 55.4605 65.6665C55.033 65.8707 54.583 65.9161 54.2005 65.8027L54.268 65.2581C54.5605 65.3716 54.943 65.3489 55.258 65.19C55.5955 65.0312 55.7305 64.7816 55.618 64.5093C55.5055 64.3051 55.303 64.2597 54.7855 64.3959C53.998 64.5774 53.638 64.4186 53.4355 63.9875C53.188 63.4656 53.413 62.9437 53.998 62.6488C54.403 62.5126 54.7855 62.4672 55.123 62.5353ZM58.543 60.6974L57.6205 61.2874L59.0605 63.6017L58.6105 63.8967L57.1705 61.5823L56.248 62.1723L56.0005 61.7639L58.2955 60.3117L58.543 60.6974ZM63.6505 60.0621L63.2455 60.4025L61.693 58.6327L61.4905 59.1999L60.9955 58.9957L61.4455 57.5889H61.468L63.6505 60.0621ZM64.6855 55.8645C64.8655 56.046 64.978 56.2502 65.023 56.4544L65.473 58.2469L65.068 58.678L64.7305 57.362C64.3255 57.7931 63.673 57.8385 63.223 57.4301C62.773 56.999 62.773 56.341 63.178 55.9099C63.583 55.4788 64.2355 55.4334 64.6855 55.8645ZM63.583 57.0444C63.853 57.2939 64.168 57.2713 64.393 57.0671C64.5955 56.8402 64.573 56.4998 64.3255 56.2729C64.0555 56.0233 63.7405 56.046 63.538 56.2502C63.313 56.4544 63.3355 56.7948 63.583 57.0444ZM66.553 53.2551C66.823 53.4594 66.8905 53.7316 66.8455 53.9812C67.1155 53.8224 67.4305 53.8224 67.723 54.0266C68.1955 54.3896 68.263 54.9569 67.8805 55.4561C67.543 55.9099 67.093 56.0006 66.5755 55.7964L66.778 55.3426C67.0705 55.4561 67.318 55.4334 67.5205 55.1838C67.7005 54.9342 67.6555 54.6619 67.408 54.4577C67.183 54.2762 66.868 54.3216 66.688 54.5939L66.4855 54.8661L66.1255 54.5939L66.328 54.3216C66.463 54.1401 66.4855 53.8678 66.238 53.6863C66.013 53.5047 65.7655 53.5501 65.608 53.777C65.4505 53.9812 65.473 54.2081 65.653 54.435L65.2255 54.6846C64.978 54.2989 64.933 53.8905 65.248 53.482C65.5855 53.0056 66.1255 52.9375 66.553 53.2551ZM69.0505 50.6458C69.928 51.1677 70.243 51.8711 69.883 52.4837C69.523 53.0963 68.7355 53.119 67.8805 52.5971C67.0255 52.0753 66.688 51.3719 67.048 50.7593C67.4305 50.1466 68.1955 50.1239 69.0505 50.6458ZM68.1505 52.1433C68.758 52.5291 69.2755 52.5971 69.478 52.2341C69.6805 51.8711 69.388 51.4626 68.7805 51.0996C68.173 50.7366 67.678 50.6458 67.453 51.0089C67.2505 51.3719 67.543 51.7803 68.1505 52.1433ZM9.26808 28.8635L8.25558 30.4518C7.37808 29.7257 6.23058 29.1812 4.79058 29.1812C3.30558 29.1812 2.22558 29.8619 2.22558 31.3367C2.22558 32.562 3.01308 33.0158 5.30808 33.5149C8.63808 34.241 9.87558 35.3982 9.87558 37.5084C9.87558 40.0042 8.00808 41.6833 4.99308 41.6833C2.96808 41.6833 1.28059 41.048 -0.0244141 39.9135L1.03309 38.3252C2.00058 39.3009 3.55308 39.9135 5.03808 39.9135C6.74808 39.9135 7.96308 39.1193 7.96308 37.6445C7.96308 36.4419 7.06308 35.852 4.76808 35.3528C1.43809 34.6267 0.313086 33.4469 0.313086 31.4048C0.313086 28.977 2.09058 27.4114 4.79058 27.4114C6.65808 27.4114 8.18808 28.0013 9.26808 28.8635ZM18.2456 39.732V27.6383H16.3556V41.4337H22.9031L23.6681 39.732H18.2456ZM62.818 41.4337H60.928V27.6383H62.818V41.4337ZM48.778 41.6606H48.7106L42.2756 27.6383H44.3456L48.7556 37.4403L53.1655 27.6383H55.213L48.778 41.6606ZM40.1156 41.4337H38.0681L33.6581 31.6317L29.2481 41.4337H27.1781L33.6131 27.4114H33.6806L40.1156 41.4337ZM80.998 41.4337H78.9505L74.5405 31.6317L70.1305 41.4337H68.0605L74.4955 27.4114H74.563L80.998 41.4337Z" fill="white"/>
</g>
<defs>
<clipPath id="clip0">
<rect width="81" height="69" fill="white"/>
</clipPath>
</defs>
</svg>
