<svg width="119" height="59" viewBox="0 0 119 59" fill="none" xmlns="http://www.w3.org/2000/svg">
<g clip-path="url(#clip0)">
<path fill-rule="evenodd" clip-rule="evenodd" d="M55.2578 55.537L55.6612 56.7181L56.8981 56.7449L55.9032 57.4965L56.2527 58.6776L55.2309 57.9797L54.2091 58.6776L54.5587 57.4965L53.5638 56.7449L54.8007 56.7181L55.2578 55.537ZM47.6481 55.537L48.0515 56.7181L49.2884 56.7449L48.2935 57.4965L48.643 58.6776L47.6212 57.9797L46.5994 58.6776L46.949 57.4965L45.9541 56.7449L47.191 56.7181L47.6481 55.537ZM70.531 55.537L70.9343 56.7181L72.1713 56.7449L71.1763 57.4965L71.5259 58.6776L70.5041 57.9797L69.4823 58.6776L69.8319 57.4965L68.837 56.7449L70.0739 56.7181L70.531 55.537ZM62.8944 55.537L63.2978 56.7181L64.5347 56.7449L63.5398 57.4965L63.8893 58.6776L62.8675 57.9797L61.8457 58.6776L62.1953 57.4965L61.2004 56.7449L62.4373 56.7181L62.8944 55.537Z" fill="white"/>
<path fill-rule="evenodd" clip-rule="evenodd" d="M78.033 51.7254C79.5657 51.4301 81.2059 50.3833 82.9268 48.5312C84.4595 46.8938 85.32 45.3369 85.4813 43.78C86.046 45.7395 85.4544 47.6185 83.7335 49.4706C82.0395 51.3228 80.1303 52.0475 78.033 51.7254ZM78.0061 36.7742C76.3389 37.2037 74.7256 38.2237 73.1929 39.8611C71.7946 41.3374 70.9342 42.9479 70.5577 44.639C70.0737 42.6527 70.6922 40.7469 72.3862 38.9216C74.134 37.0694 75.9894 36.3447 78.0061 36.7742ZM81.2059 47.2696C83.9755 44.3169 84.2982 41.8206 82.147 39.8074C80.0228 37.821 77.5489 38.3579 74.6987 41.3911C72.0097 44.2632 71.7408 46.679 73.892 48.6654C76.0163 50.6517 78.4632 50.1954 81.2059 47.2696ZM43.023 43.8606C43.5877 43.0016 43.8566 42.0353 43.8566 40.9884C43.8566 40.0221 43.5339 39.0826 42.8885 38.1163C44.3406 38.7337 45.0666 39.7 45.0666 41.0421C45.0935 42.3574 44.4212 43.2969 43.023 43.8606ZM35.2789 37.6331V51.0275H34.7411C34.526 51.0275 34.2033 51.0543 33.7462 51.108C33.3428 51.1617 32.8857 51.1886 32.3748 51.1886V50.947C32.9126 50.8933 33.3697 50.6249 33.7193 50.1417C34.0688 49.6585 34.2571 48.7459 34.2571 47.4038V40.8811C34.2571 39.0289 33.6386 37.9821 32.3748 37.7137V37.4721C32.8857 37.5258 33.8806 37.5794 35.2789 37.6331ZM37.2687 41.1226V43.8874C37.7796 44.0216 38.3174 44.0753 38.9089 44.0753C40.8181 44.0753 41.7592 43.0821 41.7592 41.0958C41.7592 39.2437 40.8181 38.3042 38.9089 38.3042C38.2905 38.3042 37.8333 38.4384 37.4838 38.68C37.3493 39.0021 37.2687 39.8342 37.2687 41.1226ZM24.2004 51.7254C25.7331 51.4301 27.3734 50.3833 29.0943 48.5312C30.627 46.8938 31.4875 45.3369 31.6757 43.78C32.2404 45.7395 31.6488 47.6185 29.9279 49.4706C28.1801 51.3228 26.2978 52.0475 24.2004 51.7254ZM24.1735 36.7742C22.5064 37.2037 20.893 38.2237 19.3603 39.8611C17.9621 41.3374 17.0748 42.9479 16.7252 44.639C16.2412 42.6527 16.8596 40.7469 18.5537 38.9216C20.2746 37.0694 22.1568 36.3447 24.1735 36.7742ZM27.3734 47.2696C30.143 44.3169 30.4657 41.8206 28.3145 39.8074C26.1902 37.821 23.7164 38.3579 20.8662 41.3911C18.1772 44.2632 17.9083 46.679 20.0595 48.6654C22.1837 50.6517 24.6307 50.1954 27.3734 47.2696ZM2.71583 37.6331V51.0275L0 51.1617V50.9201C0.403341 50.8128 0.752902 50.598 1.04869 50.2491C1.31758 49.927 1.5058 49.5512 1.58647 49.1217C1.66714 48.6922 1.72092 47.9675 1.72092 46.9206V41.069C1.72092 39.8342 1.55958 38.9753 1.23691 38.5189C0.914239 38.0626 0.510898 37.7942 0 37.6868V37.4452C0.537787 37.5526 1.42514 37.5794 2.71583 37.6331ZM13.1489 51.0275V37.6331C14.0631 37.6331 14.9774 37.5794 15.9185 37.4721V37.7137C14.8429 38.0089 14.2783 39.0558 14.2245 40.8005L14.1976 42.0084V47.7527C14.1976 49.6585 14.7623 50.7322 15.9185 50.9738V51.2154C14.3051 51.0812 13.3909 51.0275 13.1489 51.0275ZM12.2078 37.6331V51.0275C11.8313 51.0275 10.8902 51.0812 9.41128 51.1886V50.947C9.92218 50.8396 10.3524 50.5443 10.6751 50.0612C10.9978 49.578 11.1591 48.6654 11.1591 47.3232V44.639H4.70564V47.7259C4.70564 48.907 4.86698 49.7122 5.21654 50.1417C5.5661 50.5712 5.99633 50.8396 6.48034 50.947V51.1886C5.43165 51.108 4.49053 51.0543 3.65695 51.0275V37.6331C4.40986 37.6331 5.35099 37.5794 6.48034 37.4721V37.7137C5.8081 37.9016 5.35099 38.2505 5.08209 38.7605C4.8132 39.2705 4.70564 40.1832 4.70564 41.4448V43.5653H11.186V41.1495C11.186 40.1026 11.0515 39.2974 10.7557 38.7337C10.46 38.1968 10.0028 37.8479 9.41128 37.7137V37.4721C10.3255 37.5794 11.2666 37.6331 12.2078 37.6331ZM28.2607 48.0748C27.1852 49.2022 26.1096 50.0075 25.034 50.4638C23.9584 50.9201 22.9366 51.0543 21.9686 50.8396C21.0006 50.6517 20.1133 50.1685 19.3066 49.417C18.0159 48.2091 17.4512 46.8132 17.6125 45.2295C17.7739 43.6458 18.6074 42.0621 20.1133 40.4247C21.6728 38.7605 23.2593 37.7942 24.8189 37.5794C26.3785 37.3647 27.7767 37.8479 29.0136 39.0021C30.2774 40.1832 30.869 41.579 30.7883 43.1358C30.7077 44.7195 29.8472 46.3569 28.2607 48.0748ZM36.5695 51.0275H36.1931V37.6331C36.704 37.6331 37.2418 37.6063 37.8333 37.5794C38.5056 37.5258 39.0434 37.4989 39.4467 37.4989C40.603 37.4989 41.4634 37.8479 42.0281 38.5726C42.5928 39.2705 42.8885 40.1295 42.8885 41.1763C42.8885 42.9211 42.1356 44.0485 40.6567 44.5585C41.3827 44.6658 42.0281 44.8806 42.5121 45.2295C43.0499 45.6053 43.8566 46.3301 44.9321 47.4038C46.5993 49.0949 47.9438 49.927 48.9655 49.927C49.1807 49.927 49.3958 49.8464 49.6109 49.7122L49.6647 49.9538C49.3151 50.3833 48.858 50.6249 48.2664 50.6249C47.6211 50.6249 46.9488 50.3833 46.2497 49.9001C45.5775 49.4438 44.6095 48.558 43.2919 47.2159C41.7054 45.5785 40.1727 44.7732 38.6938 44.7732C39.608 45.0685 40.8718 46.0348 42.4583 47.6722C43.5608 48.8264 44.475 49.6585 45.1473 50.1954C45.8195 50.7322 46.4648 50.9738 47.0833 50.9738V51.0812C46.7875 51.1886 46.5186 51.2422 46.2228 51.2422C45.3893 51.2422 44.6901 51.0275 44.0717 50.6249C43.749 50.3833 43.3457 50.0343 42.8348 49.578C42.3239 49.0948 41.7323 48.5043 41.0332 47.7527C40.0114 46.679 39.2585 45.9274 38.7745 45.5516C38.2367 45.149 37.7258 44.8806 37.2418 44.7195V47.7259C37.2418 49.7391 37.8602 50.8396 39.0703 51.0275V51.2691C38.0754 51.0812 37.2418 51.0275 36.5695 51.0275ZM53.483 51.0275V37.6331C54.5316 37.6331 55.4728 37.5794 56.2795 37.4721V37.7137C55.7686 37.7942 55.3652 38.0895 55.0425 38.5189C54.693 38.9753 54.5316 39.9416 54.5316 41.3911V47.4575C54.5316 48.7727 54.7199 49.6317 55.0694 50.088C55.419 50.5443 55.8223 50.8128 56.2795 50.947V51.1886C55.4997 51.0812 54.5585 51.0275 53.483 51.0275ZM52.5418 37.6331V51.0275C51.9234 51.0275 51.0091 51.0812 49.7453 51.1886V50.947C50.3907 50.7859 50.8478 50.4101 51.1167 49.8464C51.3856 49.2827 51.4931 48.2627 51.4931 46.8132V41.1226C51.4931 40.0221 51.3587 39.2168 51.0898 38.68C50.8209 38.17 50.3907 37.8479 49.7453 37.6868V37.4452C50.7671 37.5526 51.7083 37.6063 52.5418 37.6331ZM59.1297 51.0275L69.025 37.6331H70.2619L61.0927 50.088H65.1798C66.7932 50.088 67.9226 49.8196 68.5948 49.3096C69.2401 48.7996 69.751 48.1554 70.1006 47.3501H70.3964C70.3695 47.7259 70.235 48.3701 69.9393 49.3096C69.6435 50.1954 69.509 50.8128 69.4552 51.1617C68.3259 51.0543 67.2772 51.0007 66.3361 51.0007H59.1297V51.0275ZM67.815 37.6331L57.9466 51.0275H56.7097L65.9327 38.5726H61.4691C60.0709 38.5726 59.1028 38.7337 58.5113 39.0289C57.9197 39.351 57.4895 39.9953 57.1668 40.9347H56.871C56.871 40.5321 56.9517 39.8611 57.0861 38.9216C57.1399 38.4652 57.1937 38.1431 57.1937 37.9552C57.1937 37.9284 57.1937 37.7673 57.1668 37.4989C58.0273 37.6063 59.1835 37.66 60.6624 37.66H67.815V37.6331ZM82.0932 48.0748C81.0177 49.2022 79.9421 50.0075 78.8665 50.4638C77.7909 50.9201 76.7692 51.0543 75.8011 50.8396C74.8331 50.6517 73.9458 50.1685 73.1391 49.417C71.8484 48.2091 71.2837 46.8132 71.4451 45.2295C71.6064 43.6458 72.44 42.0621 73.9458 40.4247C75.5054 38.7605 77.0918 37.7942 78.6245 37.5794C80.1841 37.3647 81.5824 37.8479 82.8193 39.0021C84.0831 40.1832 84.6746 41.579 84.594 43.1358C84.5402 44.7195 83.6797 46.3569 82.0932 48.0748ZM100.97 48.8801L87.74 37.6331H89.2458L99.9478 46.7327V41.4448C99.9478 40.559 99.894 39.8879 99.7596 39.4047C99.652 38.9484 99.41 38.5726 99.0336 38.2774C98.6571 37.9821 98.2 37.7942 97.6353 37.6868V37.4452C97.6353 37.4452 97.7966 37.4452 98.0924 37.4721C99.1949 37.5526 99.9478 37.5794 100.351 37.5794C100.728 37.5794 101.588 37.5258 102.959 37.4184V37.66C102.529 37.7137 102.126 37.9016 101.803 38.1968C101.48 38.4921 101.265 38.841 101.131 39.2705C101.023 39.7 100.943 40.3174 100.943 41.0958V48.8801H100.97ZM86.288 37.6331L100.943 50.1417V51.1886H100.701L89.1652 41.3911V47.2964C89.1652 48.5848 89.3265 49.4706 89.6492 49.9806C89.9718 50.4907 90.5096 50.8128 91.2088 50.9738V51.2154C89.9181 51.108 89.0576 51.0543 88.6005 51.0543C88.0896 51.0543 87.3098 51.108 86.2611 51.2154V50.9738C86.9871 50.8128 87.498 50.4638 87.74 49.9538C88.0089 49.4438 88.1434 48.5312 88.1434 47.2159V40.5858L87.2291 39.8074C85.9653 38.7337 84.8897 38.0358 84.0024 37.7405V37.4989L86.288 37.6331ZM111.43 51.0275H111.107V37.6331H115.705C116.539 37.6331 117.372 37.5794 118.179 37.4721C118.179 37.6331 118.179 37.9284 118.152 38.3579C118.125 38.7605 118.125 39.2437 118.125 39.8074C118.125 40.1832 118.098 40.559 118.071 40.9347H117.749C117.722 40.2368 117.56 39.6732 117.238 39.19C116.888 38.7337 116.189 38.4921 115.087 38.4921H112.209V47.5917C112.209 48.6385 112.344 49.417 112.666 49.9538C112.962 50.4907 113.419 50.8128 114.038 50.947V51.1886C112.451 51.0812 111.618 51.0275 111.43 51.0275ZM105.944 37.6331H110.139V51.0275H109.762C109.225 51.0275 108.391 51.0812 107.289 51.1886V50.947C107.988 50.7591 108.472 50.4101 108.741 49.8733C109.01 49.3364 109.117 48.4506 109.117 47.2159V38.5458H105.863C105.03 38.5458 104.465 38.7068 104.116 39.0558C103.766 39.4047 103.497 40.0489 103.255 40.9884H102.986C102.986 40.8811 102.986 40.7469 102.986 40.6395C102.986 40.4784 103.013 40.2637 103.04 39.9953C103.148 39.0826 103.201 38.2773 103.201 37.5258C103.659 37.5794 104.223 37.6331 104.895 37.6331H105.944Z" fill="white"/>
<path fill-rule="evenodd" clip-rule="evenodd" d="M68.5414 8.13331C68.4608 9.12648 68.0574 9.71701 67.6003 9.98543C67.2508 9.55595 66.9012 9.15332 66.4979 8.77752C67.0625 8.56278 67.2776 7.35487 67.7348 6.57644C68.3801 5.52959 69.6439 4.5901 70.8808 4.85853C70.8002 4.91221 68.7297 5.79801 68.5414 8.13331ZM70.4237 10.8712C70.0741 11.8107 69.5632 12.267 69.0523 12.4281C68.8372 11.9181 68.5683 11.4349 68.2994 10.9786C68.9179 10.9249 69.4019 9.79754 70.0741 9.18016C70.9615 8.3212 72.4404 7.75751 73.5698 8.34805C73.4622 8.34805 71.2035 8.64331 70.4237 10.8712ZM71.5262 14.0118C70.9615 14.8439 70.343 15.1392 69.8053 15.1392C69.7246 14.6023 69.617 14.0655 69.4557 13.5286C70.0741 13.6092 70.827 12.6697 71.6337 12.2402C72.7093 11.6497 74.2958 11.4886 75.21 12.3207C75.1293 12.3476 72.8706 12.0523 71.5262 14.0118ZM71.7951 17.3134C71.0422 17.9576 70.343 18.0918 69.8321 17.9576C69.8859 17.5282 69.9128 17.0987 69.9128 16.6692C69.9128 16.5618 69.9128 16.4276 69.9128 16.3202C70.4775 16.5618 71.4724 15.8371 72.3329 15.6492C73.5429 15.3539 75.0756 15.5955 75.7747 16.6692C75.694 16.6424 73.5967 15.7834 71.7951 17.3134ZM71.2035 20.5882C70.2893 21.0177 69.617 20.964 69.133 20.6956C69.3481 20.1856 69.5095 19.6756 69.617 19.1387C70.101 19.5145 71.2304 19.085 72.1446 19.1119C73.3815 19.1387 74.8067 19.7829 75.21 20.9908C75.1293 20.9371 73.3278 19.5682 71.2035 20.5882ZM69.7784 23.5677C68.7835 23.7556 68.1381 23.514 67.7348 23.1382C68.0574 22.7087 68.3532 22.2524 68.6221 21.7693C68.9717 22.2524 70.2086 22.1451 71.069 22.3866C72.2522 22.7356 73.4622 23.7288 73.5429 24.9904C73.4891 24.9367 72.0908 23.1382 69.7784 23.5677ZM49.6113 25.2051C49.692 24.2119 50.0953 23.6214 50.5524 23.353C50.902 23.7824 51.2516 24.1851 51.6549 24.5609C51.0902 24.7756 50.8751 25.9835 50.418 26.762C49.7727 27.8088 48.5089 28.7483 47.2719 28.4799C47.3526 28.4262 49.4231 27.5404 49.6113 25.2051ZM47.7291 22.4672C48.0786 21.5277 48.5895 21.0714 49.1004 20.9103C49.3155 21.4203 49.5844 21.9035 49.8533 22.3598C49.2349 22.4135 48.7509 23.5409 48.0786 24.1582C47.1913 25.0172 45.7124 25.5809 44.583 24.9904C44.6906 24.9904 46.9493 24.6682 47.7291 22.4672ZM46.6266 19.3266C47.1913 18.4945 47.8097 18.1992 48.3475 18.1992C48.4282 18.7361 48.5357 19.2729 48.6971 19.8098C48.0786 19.7292 47.3257 20.6687 46.519 21.0982C45.4435 21.6887 43.857 21.8498 42.9428 21.0177C43.0234 20.9908 45.2821 21.2593 46.6266 19.3266ZM46.3577 16.025C47.1106 15.3808 47.8097 15.2465 48.3206 15.3808C48.2668 15.8102 48.24 16.2397 48.24 16.6692C48.24 16.7766 48.24 16.8839 48.24 17.0182C47.6753 16.7766 46.6804 17.5013 45.8199 17.6892C44.6099 17.9845 43.0772 17.7429 42.3781 16.6692C42.4587 16.696 44.5561 17.555 46.3577 16.025ZM46.9493 12.7502C47.8635 12.3207 48.5357 12.3744 49.0198 12.6428C48.8046 13.1528 48.6433 13.6628 48.5357 14.1997C48.0517 13.8239 46.9224 14.2534 46.0081 14.2265C44.7712 14.1997 43.3461 13.5555 42.9428 12.3476C43.0234 12.4013 44.825 13.7702 46.9493 12.7502ZM48.3744 9.74385C49.3693 9.55595 50.0147 9.79754 50.418 10.1733C50.0953 10.6028 49.7995 11.0591 49.5307 11.5423C49.1542 11.0591 47.9442 11.1665 47.0837 10.9249C45.9006 10.576 44.6906 9.5828 44.6099 8.3212C44.6637 8.40173 46.0619 10.1733 48.3744 9.74385ZM50.5256 7.22066C51.5205 7.30119 52.112 7.70383 52.3809 8.16015C51.9507 8.5091 51.5474 8.85805 51.1709 9.26069C50.9558 8.697 49.7458 8.48226 48.966 8.02594C47.9173 7.38172 46.9762 6.12012 47.2451 4.88537C47.2988 4.9659 48.1862 7.03277 50.5256 7.22066ZM53.2683 5.34169C54.2094 5.69064 54.6665 6.20065 54.8279 6.71066C54.317 6.9254 53.833 7.19382 53.3758 7.46224C53.3221 6.84487 52.1927 6.3617 51.5742 5.69064C50.7138 4.80484 50.1491 3.32851 50.7407 2.20113C50.7407 2.3085 51.0633 4.56326 53.2683 5.34169ZM56.4143 4.21431C57.2479 4.778 57.5437 5.39538 57.5437 5.93223C57.0059 6.01275 56.4681 6.12012 55.9303 6.28118C56.011 5.6638 55.0699 4.91221 54.6396 4.10694C54.0481 3.03324 53.8867 1.47638 54.7203 0.536897C54.7472 0.644266 54.4783 2.89903 56.4143 4.21431ZM59.7217 3.94589C60.3671 4.69747 60.5015 5.39538 60.3671 5.90538C59.9368 5.8517 59.5066 5.82486 59.0764 5.82486C58.9688 5.82486 58.8613 5.82486 58.7268 5.82486C58.9688 5.26117 58.2428 4.26799 58.0546 3.40904C57.7588 2.20113 58.0008 0.671109 59.0764 -0.0267944C59.0495 0.0805753 58.189 2.17429 59.7217 3.94589ZM63.0022 4.56326C63.4325 5.4759 63.3787 6.14697 63.1098 6.63013C62.5989 6.41539 62.088 6.25433 61.5502 6.14697C61.9267 5.6638 61.4964 4.53642 61.5233 3.62378C61.5502 2.38902 62.1955 0.966376 63.4056 0.563739C63.3518 0.617424 61.9804 2.44271 63.0022 4.56326ZM37.8338 30.9494C39.0976 30.9225 40.6034 30.7615 42.4587 30.4394C55.6614 28.0235 68.9986 24.5877 82.5239 25.5272C89.6496 26.0104 90.8327 28.1578 89.9723 30.5199C89.7572 29.6609 89.2194 28.9093 88.4665 28.292C88.4127 28.2383 88.3589 28.1846 88.2783 28.1309C87.848 27.8088 87.2833 27.433 86.0464 27.1646C85.8851 27.1377 85.7238 27.0841 85.5624 27.0572C84.8633 26.923 83.976 26.8425 82.8197 26.762C68.7835 26.0372 58.5924 28.6946 45.309 31.2715C39.6085 32.372 33.6928 33.4994 27.9385 29.2583C29.4712 29.9562 31.219 30.4931 33.1281 30.7883C34.7415 31.0567 36.328 31.0836 37.8338 30.9494ZM35.8708 33.0968C36.086 33.0699 38.264 33.2041 41.5445 32.8552C54.7472 30.332 68.0843 26.762 81.6097 27.5404C88.7354 27.9699 89.9185 30.0904 89.0581 32.4794C88.8429 31.6204 88.3051 30.8688 87.5522 30.2783C87.4985 30.2246 87.4447 30.1709 87.364 30.1173C86.9338 29.7951 86.3691 29.4194 85.1322 29.1778C84.9709 29.1509 84.8095 29.1241 84.6482 29.0972C83.9491 28.9899 83.0617 28.8825 81.9055 28.8288C67.8692 28.2383 57.6781 31.0031 44.3948 33.7141C43.8032 33.8484 42.2167 33.9826 41.6252 34.1168C37.1078 34.3852 36.57 33.4457 35.8708 33.0968ZM66.0138 5.98591C66.2021 6.97908 65.9601 7.6233 65.5836 8.02594C65.1534 7.70383 64.6963 7.40856 64.2123 7.14014C64.6963 6.76434 64.5887 5.55643 64.8307 4.69747C65.1803 3.51641 66.1752 2.28166 67.439 2.22797C67.3583 2.28166 65.5836 3.67746 66.0138 5.98591Z" fill="white"/>
</g>
<defs>
<clipPath id="clip0">
<rect width="118.152" height="58.7044" fill="white"/>
</clipPath>
</defs>
</svg>
