<svg width="500" height="500" viewBox="0 0 500 500" fill="none" xmlns="http://www.w3.org/2000/svg">
<g clip-path="url(#clip0)">
<path fill-rule="evenodd" clip-rule="evenodd" d="M498.623 0V43.4483L496.786 42.2988L451.561 16.3218V0H448.806V16.3218L401.286 43.4483V0H399.908H398.531V43.4483L396.694 42.2988L351.699 16.3218V0H348.944V16.3218L301.423 43.4483V0H300.275H298.898V43.4483L297.061 42.2988L251.607 16.3218V0H248.852V16.3218L201.331 43.4483V0H199.954H198.577V43.4483L196.74 42.2988L151.515 16.3218V0H148.76V16.3218L101.24 43.4483V0H99.8623H98.7144V43.4483L96.8779 42.2988L51.6529 16.3218V0H48.8981V16.3218L1.37741 43.4483V0H0V44.1379V46.8965V100.46L1.37741 101.149L47.9798 127.816L0 154.943V157.701V166.667V210.805V213.563V267.126L1.37741 267.816L47.9798 294.483L0 321.609V324.368V333.333V377.471V380.23V433.793L1.37741 434.483L47.9798 461.149L0 488.276V491.034V500H1.37741V490.345L48.8981 463.448V500H51.6529V463.218L98.7144 490.115V500H100.092H101.469V490.345L148.99 463.448V500H151.515V463.218L198.577 490.345V500.23H199.954H201.331V490.575L248.852 463.678V500.23H251.607V463.448L298.668 490.575V500.46H300.046H301.423V490.805L348.944 463.908V500.46H351.699V463.678L398.76 490.805V500.69H400.138H401.515V491.034L449.036 464.138V500.69H451.791V463.908L498.852 491.034V500.92H500.229V491.954V489.425L453.168 462.299L498.852 435.862L500.229 435.172V431.724V381.609V378.621V333.333V324.368V321.839L453.168 294.713L498.852 268.276L500.229 267.586V264.138V213.563V210.575V166.667V157.701V155.172L453.168 128.046L498.852 101.609L500.229 100.92V97.4713V47.1264V44.1379V0H498.623ZM450.413 18.3908L496.097 44.8276L449.954 71.0345L404.27 44.5977L450.413 18.3908ZM352.847 294.483L398.531 268.046L399.908 267.356L401.286 268.046L447.888 294.713L400.138 321.609L352.847 294.483ZM252.984 294.483L298.668 268.046L300.046 267.356L301.194 268.046L347.796 294.713L300.046 321.609L252.984 294.483ZM152.893 294.483L198.577 268.046L199.954 267.356V267.126L201.331 267.816L247.934 294.483L200.184 321.379L152.893 294.483ZM52.8007 294.483L98.7144 268.046L100.092 267.356L101.24 268.046L147.842 294.713L100.092 321.609L52.8007 294.483ZM96.4187 211.494L50.0459 237.931L4.13223 211.264L50.505 184.828L96.4187 211.494ZM51.6529 182.988V166.667V129.885L98.7144 156.782V166.437V209.655L96.8779 208.506L51.6529 182.988ZM50.9642 240L98.7144 212.874V213.793V265.287L50.9642 292.874V240ZM51.6529 296.322L98.7144 323.448V376.552L51.6529 349.655V296.322ZM101.24 265.517V213.563V212.644L148.531 239.54V292.644L101.24 265.517ZM101.24 323.448L148.76 296.552V349.425L101.24 376.552V323.448ZM104.224 211.264L150.597 184.828L196.281 211.494L149.908 237.931L104.224 211.264ZM101.24 210.115V166.667V157.012L148.76 130.115V166.667V182.988L101.24 210.115ZM151.515 182.988V166.667V129.885L198.577 157.012V166.667V209.885L196.74 208.736L151.515 182.988ZM150.826 240L198.577 212.874V213.793V265.287L150.826 292.874V240ZM151.515 296.322L198.577 323.448V376.552L151.515 349.655V296.322ZM201.331 265.517V213.563V212.644L248.623 239.54V292.644L201.331 265.517ZM201.331 323.448L248.852 296.552V349.425L201.331 376.552V323.448ZM204.086 211.264L250.459 184.828L296.373 211.494L250 237.931L204.086 211.264ZM201.331 210.115V166.667V157.012L248.852 130.115V166.667V182.988L201.331 210.115ZM251.607 182.988V166.667V129.885L298.668 157.012V166.667V209.885L296.832 208.736L251.607 182.988ZM250.918 240L298.668 212.874V213.793V265.287L250.918 292.874V240ZM251.607 296.322L298.668 323.448V376.552L251.607 349.655V296.322ZM301.194 265.517V213.563V212.644L348.485 239.54V292.644L301.194 265.517ZM301.423 323.448L348.944 296.552V349.425L301.423 376.552V323.448ZM304.178 211.264L350.551 184.828L396.235 211.494L349.862 237.931L304.178 211.264ZM301.423 210.115V166.667V157.012L348.944 130.115V166.667V182.988L301.423 210.115ZM351.699 182.988V166.667V129.885L398.76 157.012V166.667V209.885L396.924 208.736L351.699 182.988ZM350.78 240L398.531 212.874V213.793V265.287L350.78 292.874V240ZM351.699 296.322L398.76 323.448V376.552L396.924 375.402L351.699 349.425V296.322ZM401.286 265.517V213.563V212.644L448.577 239.54V292.644L401.286 265.517ZM401.286 323.678L448.806 296.782V349.655L401.286 376.782V323.678ZM404.27 211.264L450.643 184.828L496.327 211.494L449.954 237.701L404.27 211.264ZM401.286 210.115V166.667V157.012L448.806 130.115V164.368V166.667V182.988L401.286 210.115ZM401.286 47.1264V46.2069L448.577 73.1034V126.207L401.286 99.0805V47.1264ZM399.908 100.69L401.286 101.379L447.888 128.046L400.138 154.943L353.076 127.816L398.76 101.379L399.908 100.69ZM398.76 46.2069V47.1264V98.6207L351.01 126.207V73.3333L398.76 46.2069ZM350.551 18.3908L396.235 44.8276L349.862 71.2644L304.178 44.8276L350.551 18.3908ZM301.194 47.1264V46.2069L348.485 73.1034V126.207L301.194 99.0805V47.1264ZM300.046 100.69L301.423 101.379L348.026 128.046L300.275 154.943L253.214 127.816L298.898 101.379L300.046 100.69ZM298.668 46.2069V47.1264V98.6207L250.918 126.207V73.3333L298.668 46.2069ZM250.459 18.3908L296.143 44.8276L249.77 71.2644L204.086 44.5977L250.459 18.3908ZM201.331 47.1264V46.2069L248.623 73.1034V126.207L201.331 99.0805V47.1264ZM199.954 100.69L201.331 101.379L247.934 128.046L199.954 154.943L152.893 127.816L198.577 101.379L199.954 100.69ZM198.577 46.2069V47.1264V98.6207L150.826 126.207V73.3333L198.577 46.2069ZM150.597 18.3908L196.281 44.8276L149.908 71.0345L104.224 44.5977L150.597 18.3908ZM101.24 47.1264V46.2069L148.531 73.1034V126.207L101.24 99.0805V47.1264ZM100.092 100.69L101.469 101.379L148.072 128.046L100.092 154.943L52.8007 127.816L98.7144 101.379L100.092 100.69ZM98.7144 46.2069V47.1264V98.6207L50.9642 126.207V73.3333L98.7144 46.2069ZM50.505 18.3908L96.4187 44.8276L50.0459 71.0345L4.13223 44.5977L50.505 18.3908ZM1.37741 99.0805V47.1264V45.977L48.6685 72.8736V125.977L1.37741 99.0805ZM1.37741 166.667V157.012L48.8981 130.115V166.667V182.988L1.37741 210.115V166.667ZM1.37741 265.517V213.563V212.644L48.6685 239.54V292.644L1.37741 265.517ZM1.37741 333.333V323.678L48.8981 296.782V349.655L1.37741 376.782V333.333ZM48.4389 459.31L1.37741 432.184V380.23V379.31L48.6685 406.207V459.31H48.4389ZM4.13223 377.931L50.505 351.494L96.4187 378.161L50.0459 404.598L4.13223 377.931ZM50.9642 459.31V406.667L98.7144 379.54V431.724L50.9642 459.31ZM100.092 488.276L52.8007 461.149L98.7144 434.713L100.092 434.023L101.469 434.713L148.072 461.379L100.092 488.276ZM148.531 459.31L101.24 432.184V379.31L148.531 406.207V459.31ZM104.224 377.931L150.597 351.494L196.281 377.931L149.908 404.368L104.224 377.931ZM150.826 459.31V406.667L198.577 379.54V380.46V431.954L150.826 459.31ZM199.954 488.276L152.893 461.149L199.954 434.023L247.704 461.379L199.954 488.276ZM248.623 459.31L201.331 432.184V380.23V379.31L248.623 406.207V459.31ZM204.086 377.931L250.459 351.494L296.143 377.931L249.77 404.368L204.086 377.931ZM250.918 459.31V406.667L298.668 379.54V380.46V431.954L250.918 459.31ZM300.046 488.276L252.984 461.149L298.668 434.713L300.046 434.023V433.793L301.423 434.483L348.026 461.149L300.046 488.276ZM348.485 459.31L301.194 432.184V380.23V379.31L348.485 406.207V459.31ZM304.178 377.931L350.551 351.494L396.235 377.931L349.862 404.368L304.178 377.931ZM350.78 459.31V406.667L398.531 379.54V380.46V431.954L350.78 459.31ZM399.908 488.276L352.847 461.149L398.531 434.713L399.908 434.023V433.793L401.286 434.483L447.888 461.149L399.908 488.276ZM448.577 459.31L401.286 432.184V380.23V379.31L448.577 406.207V459.31ZM404.27 377.931L450.643 351.494L496.327 377.931L449.954 404.368L404.27 377.931ZM498.623 431.724L450.872 459.31V406.667L498.623 379.54V380.46V431.724ZM498.623 323.448V333.103V376.322L496.786 375.172L451.561 349.195V296.552L498.623 323.448ZM498.623 265.057L450.872 292.644V240L498.623 212.874V213.793V265.057ZM498.623 156.782V166.667V210.115L496.786 208.966L451.561 182.988V166.667V164.368V129.885L498.623 156.782ZM498.623 98.3908L450.872 125.977V73.3333L498.623 46.2069V47.1264V98.3908Z" fill="#F8F8F8"/>
</g>
<defs>
<clipPath id="clip0">
<rect width="500" height="500" fill="white"/>
</clipPath>
</defs>
</svg>
