<svg width="230" height="230" viewBox="0 0 230 230" fill="none" xmlns="http://www.w3.org/2000/svg">
<circle cx="115" cy="115" r="113.5" fill="white" stroke="#782620" stroke-width="3"/>
<g clip-path="url(#clip0)">
<path d="M73.3445 121.517C73.3445 120.622 73.0889 119.856 72.7056 118.961C70.5334 115 67.7223 120.367 67.0834 122.539C66.3167 124.711 66.4445 128.034 69.6389 125.989C70.7889 125.35 73.3445 122.922 73.3445 121.517ZM65.1667 120.239C66.5723 118.45 68.3612 116.789 70.5334 115.128C70.4056 114.234 69.8945 113.084 70.6612 112.317C71.6834 111.295 73.9834 112.061 74.8778 113.467C75.5167 114.489 76.0278 115.639 76.4112 117.045C76.7945 118.45 77.1778 119.728 77.5612 121.134C77.9445 122.539 78.4556 123.561 79.2223 124.2C79.8612 124.839 82.8001 127.011 82.8001 127.778C82.8001 129.056 81.5223 129.822 80.5001 129.822C77.3056 129.822 76.7945 127.906 75.1334 125.861C72.7056 127.906 70.1501 130.334 66.8278 130.334C65.9334 130.334 65.1667 130.078 64.5278 129.439C61.7167 127.139 63.3778 122.539 65.1667 120.239Z" fill="#6B2B2B"/>
<path d="M78.3278 106.694C79.9889 105.544 82.4167 105.928 82.8 103.628C83.3111 100.561 83.1834 98.5167 84.2056 95.3222C84.4611 94.6833 84.7167 94.0444 84.9723 93.5333C85.4834 92.7667 86.1223 92 87.1445 92C88.0389 92 87.9111 93.4056 87.9111 93.9167L87.1445 104.522C87.1445 106.439 88.9334 106.567 90.4667 106.056C93.4056 105.161 96.2167 104.139 98.9 102.733C102.222 101.072 102.478 100.178 99.9223 98.5167C99.4111 98.2611 99.9223 97.2389 100.817 97.2389C101.967 97.2389 102.606 97.4944 103.372 98.2611C104.139 99.0278 104.394 99.7944 104.394 100.561C104.394 101.839 102.989 102.989 102.094 103.628C100.561 104.522 98.9 105.417 97.1111 106.056C94.6834 107.078 92.1278 108.1 89.7 108.994C88.4223 109.506 87.2723 110.144 86.7611 111.422C86.3778 112.317 86.3778 113.339 86.3778 114.233C86.5056 115.767 86.6334 117.3 87.1445 118.706C87.4 119.472 87.7834 120.111 88.1667 120.75C88.55 121.261 89.1889 121.772 89.9556 121.9C90.4667 122.028 91.1056 122.028 91.6167 122.156C92.1278 122.156 92.5111 122.539 92.5111 123.306C92.5111 125.35 90.7223 125.606 89.0611 125.606C87.5278 125.606 86.25 125.094 85.3556 124.2C84.4611 123.306 83.8223 122.156 83.3111 120.878C82.8 119.6 82.5445 118.194 82.2889 116.661C82.1611 115.256 82.0334 111.806 81.0111 111.039C80.1167 110.4 79.0945 109.889 78.3278 108.994C77.5611 108.611 77.4334 107.333 78.3278 106.694Z" fill="#6B2B2B"/>
<path d="M99.0278 126.5C99.0278 125.989 99.0278 125.222 99.0278 124.328C99.0278 123.433 99.0278 122.539 98.9001 121.644C98.9001 120.75 98.7723 119.728 98.6445 118.833C98.5167 117.556 98.2612 116.278 97.7501 115.128C96.9834 113.211 95.3223 117.428 94.9389 118.322C94.8112 118.833 94.3001 119.344 93.7889 119.089C92.6389 118.706 93.2778 116.789 93.5334 116.022C93.7889 115.256 94.0445 114.489 94.5556 113.722C94.9389 112.956 95.45 112.317 95.9612 111.678C96.4723 111.167 96.9834 110.911 97.4945 110.911C98.1334 110.911 98.6445 111.167 99.0278 111.55C99.4112 112.061 99.7945 112.572 100.178 113.083C100.433 113.594 100.689 114.106 100.944 114.617C101.456 115.894 102.733 114.744 103.372 113.85C103.756 113.339 104.65 112.317 105.289 112.317C105.8 112.444 106.311 112.7 106.567 113.083C106.822 113.467 107.078 113.85 107.206 114.489C107.333 115 107.461 115.511 107.589 116.15C107.717 116.661 107.844 117.172 107.972 117.556C108.1 117.939 108.356 118.322 108.739 118.706C109.122 119.089 109.25 119.472 109.25 119.983C109.25 120.239 109.25 120.494 109.122 120.75C108.995 121.006 108.867 121.133 108.611 121.133C108.356 121.133 108.1 121.006 107.844 120.75C107.589 120.494 107.206 120.239 106.822 119.983C106.439 119.728 106.183 119.472 105.8 119.217C104.906 118.45 104.394 118.578 103.883 119.728C103.628 120.367 103.5 120.878 103.372 121.261L102.094 129.311C102.094 129.694 101.839 129.95 101.583 130.078C101.328 130.333 101.072 130.461 100.817 130.461C99.9223 130.461 99.4112 130.078 99.2834 129.311C99.1556 128.289 99.0278 127.394 99.0278 126.5Z" fill="#6B2B2B"/>
<path d="M115.128 105.417C114.617 105.161 114.361 104.778 114.361 104.139C114.361 102.222 116.15 100.945 117.811 100.306C118.45 100.05 118.961 99.9224 119.6 99.9224C120.239 99.9224 120.622 100.05 120.878 100.178C121.772 100.817 121.133 103.883 120.239 104.65C119.217 105.8 116.533 106.056 115.128 105.417Z" fill="#6B2B2B"/>
<path d="M119.856 130.333C117.939 130.333 116.022 129.567 114.617 128.289C113.85 127.65 113.339 126.883 112.828 125.989C111.678 123.944 112.189 121.261 112.7 118.961C113.211 116.917 113.978 115.383 115.639 114.106C116.15 113.722 117.044 113.339 117.683 113.594C118.578 113.85 117.556 116.661 117.3 117.044L116.533 119.217C116.278 119.983 116.15 120.622 116.15 121.389C116.15 124.328 118.578 125.861 121.006 126.883C121.389 127.011 121.644 127.394 121.644 127.906C121.644 128.544 121.517 129.056 121.133 129.567C120.878 130.078 120.367 130.333 119.856 130.333Z" fill="#6B2B2B"/>
<path d="M135.061 115C136.722 115.128 137.745 115.767 138.256 116.661C138.639 117.556 138.895 118.706 138.895 120.111C138.895 121.389 138.639 122.667 138.128 123.944C137.617 125.222 136.978 126.244 136.083 127.267C135.189 128.289 134.295 129.056 133.145 129.567C131.995 130.078 130.845 130.461 129.695 130.461C126.372 130.461 124.711 128.544 124.711 124.711C124.711 122.411 125.606 119.6 126.756 117.556C127.906 115.511 130.461 112.189 133.017 114.233C133.656 114.489 134.295 114.744 135.061 115ZM132.633 119.983C131.867 119.089 131.611 118.067 131.867 116.789C131.995 116.406 132.122 116.15 132.378 115.894C132.25 115.767 132.122 115.767 131.995 115.767C131.611 115.767 131.1 115.894 130.717 116.278C127.906 118.706 127.65 127.522 131.739 125.733C135.572 123.944 134.039 121.389 132.633 119.983Z" fill="#6B2B2B"/>
<path d="M161.511 112.061C161.511 113.339 161.767 113.978 162.15 113.978C162.406 113.978 163.811 113.211 164.067 112.956C165.856 111.806 169.178 111.039 171.095 112.189C174.417 114.234 174.545 117.3 170.967 119.217C170.328 119.6 169.689 119.856 169.178 120.239C167.261 121.389 167.772 121.517 168.922 122.795C170.839 124.839 174.672 126.117 175.695 127.906C176.717 129.567 173.139 131.1 171.733 130.206C170.711 129.439 165.856 123.561 165.089 122.667C163.172 120.495 165.856 119.472 167.645 117.939C168.156 117.556 168.283 117.172 168.283 116.917C168.283 116.534 168.156 116.278 167.9 115.895C167.006 114.872 161.511 116.022 161.256 119.728C161.128 121.261 161 123.306 161.639 124.584C162.15 125.861 162.917 126.628 163.683 127.65C163.939 128.034 164.195 128.417 164.195 128.928C164.195 129.184 164.067 129.439 163.683 129.695C163.3 129.95 162.917 130.078 162.278 130.078C161.256 130.078 160.489 129.695 159.978 128.928C159.467 128.161 159.083 127.267 158.828 126.117C158.572 124.967 158.445 123.817 158.445 122.539C158.445 118.322 158.572 114.234 158.828 110.017C159.083 105.545 161 83.1835 158.956 85.7391C158.445 86.378 157.933 87.9113 157.167 88.4224C156.528 88.9335 155.25 88.678 155.506 87.0169C155.889 85.4835 156.783 84.3335 157.55 83.3113C158.445 82.4169 159.083 81.9058 159.85 81.9058C160.872 81.9058 161.639 82.5447 162.022 83.8224C163.811 89.0613 161.511 104.395 161.511 112.061Z" fill="#6B2B2B"/>
<path d="M189.367 121.517C189.367 120.622 189.111 119.856 188.728 118.961C186.556 115 183.744 120.367 183.106 122.539C182.339 124.711 182.467 128.034 185.661 125.989C186.811 125.35 189.367 122.922 189.367 121.517ZM181.189 120.239C182.594 118.45 184.383 116.789 186.556 115.128C186.428 114.234 185.917 113.084 186.683 112.317C187.706 111.295 190.006 112.061 190.9 113.467C191.539 114.489 192.05 115.639 192.433 117.045C192.817 118.45 193.2 119.728 193.583 121.134C193.967 122.539 194.478 123.561 195.244 124.2C195.883 124.839 198.822 127.011 198.822 127.778C198.822 129.056 197.544 129.822 196.522 129.822C193.328 129.822 192.944 127.906 191.156 125.861C188.6 127.778 186.172 130.334 182.85 130.334C181.956 130.334 181.189 130.078 180.55 129.439C177.867 127.139 179.4 122.539 181.189 120.239Z" fill="#6B2B2B"/>
<path d="M149.117 103.628C148.222 103.628 147.456 103.117 146.689 102.478C146.433 102.222 145.283 101.072 144.389 99.7946C142.728 97.6223 141.45 94.939 143.111 94.939C143.75 94.939 145.028 95.0668 146.178 96.9834C146.561 97.6223 148.733 100.178 149.372 100.178C150.011 100.178 154.483 94.4279 155.761 93.9168C156.272 93.6612 157.422 93.9168 157.422 94.5557C157.422 94.8112 157.295 95.1946 157.039 95.5779C155.633 97.8779 151.544 103.5 149.117 103.628Z" fill="#6B2B2B"/>
<path d="M151.928 114.234C149.5 114.106 146.561 117.811 146.561 119.856C146.561 120.495 146.817 120.878 147.328 121.389C148.989 122.667 151.289 123.178 153.078 124.456C153.844 124.967 154.228 125.861 154.228 126.884C154.228 129.695 150.906 131.1 148.478 131.484C148.222 131.484 147.839 131.611 147.583 131.611C146.944 131.484 146.561 131.228 146.561 130.845C146.433 129.695 147.583 128.928 148.478 129.056C149.628 129.184 151.161 127.906 150.394 126.756C149.883 126.117 145.283 124.967 143.75 123.434C142.728 122.411 142.089 121.261 142.089 119.856C142.089 118.578 142.472 117.428 143.367 116.278C144.261 115.128 145.283 114.106 146.433 113.211C147.583 112.317 148.861 111.55 150.267 111.039C151.544 110.528 152.694 110.272 153.589 110.272C154.356 110.272 154.867 110.528 155.122 111.167C155.378 111.806 155.506 112.189 155.506 112.572C155.761 115.128 153.589 114.361 151.928 114.234Z" fill="#6B2B2B"/>
<path d="M53.4121 113.339C53.2843 113.083 53.1565 112.828 53.0287 112.828C52.2621 112.828 51.4954 120.367 51.2398 121.517C50.8565 123.433 49.9621 130.206 47.2787 130.206C46.1287 130.206 45.3621 129.695 44.7232 128.8C44.0843 127.906 43.5732 126.756 43.1898 125.478C41.4009 120.367 41.4009 107.333 41.4009 101.583C41.4009 99.9223 41.4009 98.0056 40.8898 96.3445C40.7621 95.7056 40.3787 95.4501 39.9954 95.4501C39.6121 95.4501 39.1009 95.9612 38.7176 96.9834C36.4176 102.35 34.8843 112.189 34.2454 118.195C34.1176 119.728 34.5009 124.839 32.2009 124.839C27.4732 124.839 35.1398 97.8779 36.0343 94.8112C36.9287 91.6167 37.8232 88.6779 38.5898 85.8667C38.9732 84.589 40.2509 81.7779 41.9121 81.7779C44.8509 81.7779 45.1065 88.4223 45.1065 90.339C45.1065 92.639 45.1065 94.939 44.9787 97.239C44.9787 99.4112 44.8509 101.839 44.8509 104.522C44.8509 105.672 44.5954 113.722 46.1287 113.722C46.8954 113.722 47.5343 112.828 47.9176 111.039C48.3009 109.25 48.6843 106.95 48.8121 104.139C48.9398 101.456 49.1954 98.389 49.3232 95.1945C49.4509 92.0001 49.7065 89.0612 49.9621 86.2501C50.2176 84.0779 50.8565 76.6667 53.7954 76.6667C56.3509 76.6667 56.6065 83.5667 56.7343 85.2279C57.5009 99.9223 55.8398 127.778 64.0176 140.045C65.1676 141.706 66.7009 142.728 68.4898 141.45C69.5121 140.683 71.9398 136.85 71.9398 139.406C71.9398 142.217 69.3843 145.539 66.4454 145.539C64.9121 145.539 63.5065 144.9 62.3565 143.622C59.1621 140.3 56.7343 133.528 55.9676 129.183C55.3287 125.222 54.6898 117.045 53.4121 113.339Z" fill="#6B2B2B"/>
<path d="M170.328 145.156C170.328 145.283 170.2 145.283 170.072 145.411C169.944 145.411 169.689 145.539 169.561 145.539H169.433H169.306C169.178 145.539 169.178 145.539 169.178 145.539C169.178 145.539 169.05 145.539 169.05 145.411V141.833V141.45C169.05 141.195 169.05 141.067 168.922 140.939C168.794 140.811 168.794 140.683 168.667 140.556C168.539 140.428 168.411 140.3 168.283 140.3C168.156 140.172 167.9 140.172 167.772 140.172C167.644 140.172 167.389 140.172 167.261 140.3C167.133 140.428 167.006 140.428 166.878 140.556C166.75 140.683 166.622 140.811 166.622 140.939C166.494 141.067 166.494 141.322 166.494 141.45V141.833V145.283C166.494 145.411 166.367 145.411 166.239 145.539C166.111 145.539 165.856 145.667 165.728 145.667H165.6H165.472C165.344 145.667 165.344 145.667 165.344 145.667C165.344 145.667 165.217 145.667 165.217 145.539V139.278C165.217 139.022 165.217 138.895 165.344 138.895C165.472 138.895 165.6 138.895 165.856 138.895C165.983 138.895 165.983 138.895 166.111 138.895C166.111 138.895 166.111 138.895 166.239 138.895C166.239 138.895 166.239 138.895 166.239 139.022L166.367 139.15C166.878 138.767 167.389 138.639 167.9 138.639C168.283 138.639 168.539 138.767 168.922 138.895C169.178 139.022 169.561 139.278 169.689 139.533C169.944 139.789 170.072 140.045 170.2 140.428C170.328 140.811 170.456 141.067 170.456 141.45V145.156H170.328ZM163.556 145.156C163.556 145.283 163.428 145.283 163.3 145.411C163.172 145.411 162.917 145.411 162.789 145.411H162.661H162.533C162.406 145.411 162.406 145.411 162.406 145.411C162.406 145.411 162.278 145.411 162.278 145.283V139.022C162.278 138.895 162.278 138.767 162.406 138.767C162.406 138.767 162.533 138.767 162.661 138.767H163.3C163.428 138.767 163.556 138.767 163.556 138.767C163.556 138.767 163.556 138.895 163.556 139.022V145.156ZM163.683 136.339C163.683 136.595 163.683 136.722 163.556 136.85C163.428 136.978 163.3 137.106 162.917 137.106C162.406 137.106 162.15 136.85 162.15 136.339C162.15 135.828 162.406 135.572 162.917 135.572C163.044 135.572 163.3 135.572 163.428 135.7C163.556 135.956 163.683 136.083 163.683 136.339ZM161.256 136.083C161.256 136.083 161.256 136.211 161.128 136.467C161.128 136.722 161 137.106 160.872 137.489C160.744 137.872 160.617 138.383 160.489 138.895C160.361 139.406 160.233 140.045 160.106 140.556C159.85 141.833 159.467 143.367 159.083 145.156C159.083 145.283 158.956 145.283 158.956 145.411C158.828 145.411 158.828 145.411 158.7 145.411H157.806C157.678 145.411 157.678 145.411 157.55 145.411C157.422 145.411 157.422 145.283 157.422 145.283L155.889 138.895L154.356 145.283C154.356 145.411 154.228 145.539 153.972 145.539H153.844H153.206H152.822C152.694 145.539 152.567 145.411 152.567 145.283L150.394 136.211C150.394 136.083 150.394 135.956 150.394 135.828C150.394 135.7 150.522 135.7 150.778 135.7H151.289C151.417 135.7 151.544 135.7 151.544 135.7L151.672 135.828L153.461 143.367L155.122 135.828C155.122 135.7 155.25 135.7 155.25 135.572C155.378 135.572 155.378 135.572 155.506 135.572H156.017C156.144 135.572 156.272 135.572 156.272 135.572C156.4 135.572 156.4 135.7 156.4 135.7L158.061 143.239L159.85 135.828C159.85 135.7 159.978 135.572 159.978 135.572C159.978 135.572 160.106 135.572 160.233 135.572H160.744C161 135.572 161.128 135.572 161.128 135.572C161.256 135.7 161.256 135.828 161.256 136.083ZM145.922 140.556C145.922 140.683 145.922 140.683 145.922 140.811C145.922 140.939 145.922 140.939 145.922 141.067C145.922 141.195 145.794 141.195 145.794 141.195C145.794 141.195 145.667 141.322 145.539 141.322H144.9C144.517 141.322 144.261 141.45 144.006 141.706C143.75 141.961 143.622 142.217 143.622 142.6V142.856C143.622 143.239 143.494 143.495 143.367 143.878C143.239 144.133 142.983 144.517 142.856 144.645C142.6 144.9 142.344 145.028 142.089 145.156C141.833 145.283 141.45 145.411 141.067 145.411H140.044C139.661 145.411 139.406 145.283 139.022 145.156C138.767 145.028 138.383 144.772 138.256 144.645C138 144.389 137.872 144.133 137.744 143.878C137.617 143.622 137.489 143.239 137.489 142.856V142.472V142.089C137.489 141.706 137.617 141.195 137.744 140.939C137.872 140.556 138.128 140.3 138.511 140.045C138.256 139.789 138.128 139.533 137.872 139.278C137.744 139.022 137.617 138.639 137.617 138.256C137.617 137.872 137.744 137.617 137.872 137.233C138 136.978 138.256 136.595 138.383 136.467C138.639 136.211 138.894 136.083 139.15 135.956C139.406 135.828 139.789 135.7 140.172 135.7H140.683C141.067 135.7 141.45 135.828 141.833 135.956C142.217 136.083 142.472 136.339 142.728 136.595C142.856 136.722 142.856 136.722 142.856 136.85C142.856 136.978 142.856 136.978 142.728 137.106C142.728 137.233 142.6 137.233 142.6 137.361C142.472 137.489 142.472 137.489 142.344 137.489C142.217 137.489 142.217 137.617 142.089 137.617C141.961 137.617 141.961 137.617 141.833 137.489C141.706 137.361 141.706 137.361 141.578 137.233C141.45 137.106 141.322 137.106 141.194 136.978C141.067 136.85 140.939 136.85 140.683 136.85H140.172C139.789 136.85 139.533 136.978 139.278 137.233C139.022 137.489 138.894 137.745 138.894 138.128C138.894 138.511 139.022 138.767 139.278 139.022C139.533 139.278 139.789 139.406 140.172 139.406H141.194C141.322 139.406 141.322 139.406 141.45 139.533L141.578 139.661C141.578 139.661 141.578 139.789 141.706 139.917C141.706 140.045 141.706 140.045 141.706 140.045C141.706 140.172 141.706 140.172 141.706 140.3C141.706 140.428 141.706 140.428 141.706 140.556C141.706 140.683 141.578 140.683 141.578 140.683C141.578 140.683 141.45 140.811 141.322 140.811H140.044C139.917 140.811 139.661 140.811 139.533 140.939C139.406 141.067 139.278 141.067 139.15 141.195C139.022 141.322 138.894 141.45 138.894 141.578C138.767 141.706 138.767 141.961 138.767 142.089V142.472V142.856C138.767 143.239 138.894 143.495 139.15 143.75C139.406 144.006 139.661 144.133 140.044 144.133H141.067C141.45 144.133 141.706 144.006 141.961 143.75C142.217 143.495 142.344 143.239 142.344 142.856V142.6C142.344 142.089 142.472 141.706 142.6 141.45C142.856 141.067 143.111 140.811 143.367 140.556C143.494 140.428 143.622 140.428 143.75 140.3C143.878 140.3 144.133 140.172 144.261 140.172C144.389 140.172 144.644 140.045 144.772 140.045C144.9 140.045 145.028 140.045 145.156 140.045C145.411 140.045 145.539 140.045 145.667 140.172C145.794 140.172 145.922 140.3 145.922 140.556ZM132.25 144.9C132.25 144.9 132.25 145.028 132.25 145.156C132.25 145.283 132.122 145.283 131.994 145.411C131.867 145.411 131.739 145.539 131.611 145.539C131.483 145.539 131.356 145.539 131.228 145.539C130.844 145.539 130.589 145.411 130.333 145.283C130.078 145.156 129.822 145.028 129.694 144.772C129.567 144.517 129.439 144.261 129.311 144.006C129.183 143.75 129.183 143.367 129.183 143.111V140.172H128.672C128.544 140.172 128.417 140.172 128.417 140.045C128.417 139.917 128.417 139.789 128.417 139.661C128.417 139.533 128.417 139.278 128.544 139.15C128.544 139.022 128.672 138.895 128.8 138.895H129.311V137.489C129.311 137.361 129.439 137.361 129.567 137.233C129.694 137.233 129.95 137.233 130.078 137.233H130.206H130.333C130.461 137.233 130.461 137.233 130.461 137.233C130.461 137.233 130.589 137.233 130.589 137.361V138.895H132.25C132.378 138.895 132.506 138.895 132.506 139.022C132.506 139.15 132.506 139.278 132.506 139.406C132.506 139.533 132.506 139.789 132.506 139.917C132.506 140.045 132.378 140.172 132.25 140.172H130.717V143.111C130.717 143.495 130.844 143.75 130.972 144.006C131.1 144.261 131.356 144.261 131.611 144.261C131.739 144.261 131.739 144.261 131.867 144.261H131.994C131.994 144.261 131.994 144.261 132.122 144.261C132.25 144.261 132.25 144.261 132.378 144.389C132.506 144.389 132.506 144.517 132.506 144.645C132.506 144.772 132.633 144.772 132.633 144.9C132.25 144.772 132.25 144.772 132.25 144.9ZM127.522 145.156C127.522 145.283 127.394 145.283 127.267 145.411C127.139 145.411 126.883 145.539 126.756 145.539H126.628H126.5C126.372 145.539 126.372 145.539 126.372 145.539C126.372 145.539 126.244 145.539 126.244 145.411V141.833V141.45C126.244 141.195 126.244 141.067 126.117 140.939C125.989 140.811 125.989 140.683 125.861 140.556C125.733 140.428 125.606 140.3 125.478 140.3C125.35 140.172 125.094 140.172 124.967 140.172C124.839 140.172 124.583 140.172 124.456 140.3C124.328 140.428 124.2 140.428 124.072 140.556C123.944 140.683 123.817 140.811 123.817 140.939C123.689 141.067 123.689 141.322 123.689 141.45V141.833V145.283C123.689 145.411 123.561 145.411 123.433 145.539C123.306 145.539 123.05 145.667 122.922 145.667H122.794H122.667C122.539 145.667 122.539 145.667 122.539 145.667C122.539 145.667 122.411 145.667 122.411 145.539V139.278C122.411 139.022 122.411 138.895 122.539 138.895C122.667 138.895 122.794 138.895 123.05 138.895C123.178 138.895 123.178 138.895 123.306 138.895C123.306 138.895 123.306 138.895 123.433 138.895C123.433 138.895 123.433 138.895 123.433 139.022L123.561 139.15C124.072 138.767 124.583 138.639 125.094 138.639C125.478 138.639 125.733 138.767 126.117 138.895C126.372 139.022 126.756 139.278 126.883 139.533C127.011 139.789 127.267 140.045 127.394 140.428C127.522 140.811 127.65 141.067 127.65 141.45V145.156H127.522ZM119.6 142.728H117.683C117.556 142.728 117.428 142.856 117.3 142.983C117.172 143.111 117.044 143.239 117.044 143.495V143.75C117.044 143.878 117.172 144.133 117.3 144.261C117.428 144.389 117.556 144.517 117.683 144.517H118.194C118.322 144.517 118.578 144.517 118.706 144.389C118.833 144.261 118.961 144.261 119.089 144.133C119.217 144.006 119.344 143.878 119.344 143.75C119.472 143.622 119.472 143.367 119.472 143.239V142.728H119.6ZM120.878 145.283C120.878 145.411 120.878 145.539 120.75 145.539C120.622 145.539 120.622 145.539 120.494 145.539C120.367 145.539 120.367 145.539 120.239 145.539H120.111L119.983 145.411C119.983 145.283 119.856 145.283 119.856 145.156V145.028C119.344 145.411 118.833 145.539 118.322 145.539H117.811C117.556 145.539 117.3 145.539 117.044 145.411C116.789 145.283 116.661 145.156 116.406 145.028C116.278 144.9 116.15 144.645 116.022 144.389C115.894 144.133 115.894 143.878 115.894 143.622V143.367C115.894 143.239 115.894 143.111 115.894 142.983C115.894 142.856 116.022 142.728 116.022 142.728C116.15 142.345 116.406 142.089 116.661 141.833C116.917 141.578 117.3 141.45 117.683 141.45H119.6C119.6 140.939 119.472 140.683 119.344 140.428C119.217 140.172 118.961 140.045 118.706 140.045C118.578 140.045 118.578 140.045 118.45 140.045C118.322 140.045 118.322 140.045 118.194 140.045C117.939 140.045 117.811 140.045 117.811 140.045C117.683 140.045 117.556 140.172 117.556 140.3C117.556 140.428 117.428 140.428 117.428 140.428C117.428 140.428 117.3 140.556 117.172 140.556C117.044 140.556 117.044 140.556 116.917 140.556C116.789 140.556 116.789 140.428 116.661 140.428C116.533 140.428 116.533 140.3 116.406 140.172C116.406 140.045 116.278 140.045 116.278 139.917C116.278 139.789 116.278 139.789 116.278 139.661C116.406 139.406 116.533 139.278 116.789 139.15C116.917 139.022 117.172 138.895 117.3 138.895C117.428 138.895 117.683 138.767 117.939 138.767C118.194 138.767 118.322 138.767 118.578 138.767C119.344 138.767 119.856 139.022 120.239 139.533C120.622 140.045 120.878 140.683 120.878 141.45V144.006V145.283ZM115.639 139.278C115.639 139.278 115.639 139.406 115.639 139.533C115.639 139.661 115.639 139.789 115.511 139.917C115.511 140.045 115.383 140.172 115.128 140.172C115 140.172 114.872 140.172 114.872 140.045C114.744 140.045 114.744 139.917 114.617 139.917C114.489 139.917 114.361 139.917 114.233 140.045C114.106 140.172 113.978 140.172 113.85 140.428C113.722 140.556 113.722 140.683 113.594 140.939C113.594 141.067 113.467 141.322 113.467 141.45V141.833V145.156C113.467 145.283 113.339 145.283 113.211 145.411C113.083 145.411 112.828 145.539 112.7 145.539H112.572H112.444C112.317 145.539 112.317 145.539 112.317 145.539C112.317 145.539 112.189 145.539 112.189 145.411V139.406C112.189 139.278 112.189 139.278 112.189 139.15C112.189 139.15 112.189 139.022 112.317 139.022H112.444C112.572 139.022 112.572 139.022 112.7 139.022H112.828C112.828 139.022 112.828 139.022 112.956 139.022C112.956 139.022 112.956 139.15 113.083 139.15C113.083 139.15 113.211 139.278 113.211 139.406C113.467 139.278 113.594 139.15 113.85 139.022C114.106 138.895 114.233 138.895 114.489 138.895C114.617 138.895 114.744 138.895 114.872 138.895C115 138.895 115.128 139.022 115.256 139.022C115.383 139.022 115.383 139.15 115.511 139.15C115.511 139.022 115.639 139.15 115.639 139.278ZM110.656 145.411C110.656 145.539 110.656 145.667 110.528 145.667C110.528 145.667 110.4 145.667 110.144 145.667C110.017 145.667 110.017 145.667 109.889 145.667C109.889 145.667 109.761 145.667 109.761 145.539L109.633 145.411C109.633 145.283 109.506 145.283 109.506 145.028C108.994 145.411 108.611 145.539 107.972 145.539C107.589 145.539 107.333 145.411 106.95 145.283C106.567 145.156 106.311 144.9 106.183 144.645C105.928 144.389 105.8 144.133 105.672 143.75C105.544 143.367 105.417 143.111 105.417 142.728V138.895C105.417 138.767 105.417 138.639 105.544 138.639C105.544 138.639 105.672 138.639 105.8 138.639H106.439C106.567 138.639 106.694 138.639 106.694 138.639C106.694 138.639 106.822 138.767 106.822 138.895V142.728C106.822 142.856 106.822 143.111 106.95 143.239C107.078 143.367 107.078 143.495 107.206 143.622C107.333 143.75 107.461 143.878 107.589 143.878C107.717 144.006 107.972 144.006 108.1 144.006C108.228 144.006 108.483 144.006 108.611 143.878C108.739 143.75 108.867 143.75 108.994 143.622C109.122 143.495 109.25 143.367 109.25 143.239C109.378 143.111 109.378 142.856 109.378 142.728V138.895C109.378 138.767 109.378 138.639 109.506 138.639C109.506 138.639 109.633 138.639 109.761 138.639H110.4C110.528 138.639 110.656 138.639 110.656 138.639C110.656 138.639 110.783 138.767 110.783 138.895V145.411H110.656ZM102.861 142.728H100.944C100.817 142.728 100.689 142.856 100.561 142.983C100.433 143.111 100.306 143.239 100.306 143.495V143.75C100.306 143.878 100.433 144.133 100.561 144.261C100.689 144.389 100.817 144.517 100.944 144.517H101.456C101.583 144.517 101.839 144.517 101.967 144.389C102.094 144.261 102.222 144.261 102.35 144.133C102.478 144.006 102.606 143.878 102.606 143.75C102.733 143.622 102.733 143.367 102.733 143.239V142.728H102.861ZM104.139 145.283C104.139 145.411 104.139 145.539 104.011 145.539C103.883 145.539 103.883 145.539 103.756 145.539C103.628 145.539 103.628 145.539 103.5 145.539H103.372L103.244 145.411C103.244 145.283 103.117 145.283 103.117 145.156V145.028C102.606 145.411 102.094 145.539 101.583 145.539H100.944C100.689 145.539 100.433 145.539 100.178 145.411C99.9222 145.283 99.7945 145.156 99.5389 145.028C99.4111 144.9 99.2834 144.645 99.1556 144.389C99.0278 144.133 99.0278 143.878 99.0278 143.622V143.367C99.0278 143.239 99.0278 143.111 99.0278 142.983C99.0278 142.856 99.1556 142.728 99.1556 142.728C99.2834 142.345 99.5389 142.089 99.7945 141.833C100.05 141.578 100.433 141.45 100.817 141.45H102.733C102.733 140.939 102.606 140.683 102.478 140.428C102.35 140.172 102.094 140.045 101.839 140.045C101.711 140.045 101.711 140.045 101.583 140.045C101.456 140.045 101.456 140.045 101.328 140.045C101.072 140.045 100.944 140.045 100.944 140.045C100.817 140.045 100.689 140.172 100.689 140.3C100.689 140.428 100.561 140.428 100.561 140.428C100.561 140.428 100.433 140.556 100.306 140.556C100.178 140.556 100.178 140.556 100.05 140.556C99.9222 140.556 99.9222 140.428 99.7945 140.428C99.6667 140.428 99.6667 140.3 99.5389 140.172C99.5389 140.045 99.4111 140.045 99.4111 139.917C99.4111 139.789 99.4111 139.789 99.4111 139.661C99.5389 139.406 99.6667 139.278 99.9222 139.15C100.05 139.022 100.306 138.895 100.433 138.895C100.561 138.895 100.817 138.767 101.072 138.767C101.328 138.767 101.456 138.767 101.711 138.767C102.478 138.767 102.989 139.022 103.372 139.533C103.756 140.045 104.011 140.683 104.011 141.45V144.006V145.283H104.139ZM98.5167 144.9C98.5167 144.9 98.5167 145.028 98.5167 145.156C98.5167 145.283 98.3889 145.283 98.2611 145.411C98.1334 145.411 98.0056 145.539 97.8778 145.539C97.75 145.539 97.6222 145.539 97.4945 145.539C97.1111 145.539 96.8556 145.411 96.6 145.283C96.3445 145.156 96.0889 145.028 95.9611 144.772C95.8334 144.517 95.7056 144.261 95.5778 144.006C95.45 143.75 95.45 143.367 95.45 143.111V140.172H94.9389C94.8111 140.172 94.6834 140.172 94.6834 140.045C94.6834 139.917 94.6834 139.789 94.6834 139.661C94.6834 139.533 94.6834 139.278 94.8111 139.15C94.8111 139.022 94.9389 138.895 95.0667 138.895H95.5778V137.489C95.5778 137.361 95.7056 137.361 95.8334 137.233C95.9611 137.233 96.2167 137.233 96.3445 137.233H96.4722H96.6C96.7278 137.233 96.7278 137.233 96.7278 137.233C96.7278 137.233 96.8556 137.233 96.8556 137.361V138.895H98.3889C98.5167 138.895 98.6445 138.895 98.6445 139.022C98.6445 139.15 98.6445 139.278 98.6445 139.406C98.6445 139.533 98.6445 139.789 98.6445 139.917C98.6445 140.045 98.5167 140.172 98.3889 140.172H96.8556V143.111C96.8556 143.495 96.9834 143.75 97.1111 144.006C97.2389 144.261 97.4945 144.261 97.75 144.261C97.8778 144.261 97.8778 144.261 98.0056 144.261H98.1334C98.1334 144.261 98.1334 144.261 98.2611 144.261C98.3889 144.261 98.3889 144.261 98.5167 144.389C98.6445 144.389 98.6445 144.517 98.6445 144.645C98.6445 144.772 98.7722 144.772 98.7722 144.9C98.5167 144.772 98.5167 144.772 98.5167 144.9ZM94.1722 143.622C94.1722 143.878 94.1722 144.133 94.0445 144.389C93.9167 144.645 93.7889 144.772 93.6611 145.028C93.5334 145.156 93.2778 145.283 93.0222 145.411C92.7667 145.539 92.5111 145.539 92.2556 145.539H91.4889C91.2334 145.539 90.9778 145.539 90.7222 145.411C90.4667 145.283 90.2111 145.156 90.0834 144.9C89.9556 144.772 89.9556 144.645 89.9556 144.517C89.9556 144.389 90.0834 144.133 90.2111 144.006C90.3389 143.878 90.4667 143.75 90.7222 143.75C90.85 143.75 90.85 143.75 90.9778 143.75L91.1056 143.878L91.2334 144.006L91.3611 144.133C91.3611 144.133 91.4889 144.133 91.6167 144.133H92.3834C92.5111 144.133 92.6389 144.133 92.7667 144.006C92.8945 143.878 92.8945 143.75 92.8945 143.622V143.367C92.8945 143.239 92.8945 143.111 92.7667 142.983C92.6389 142.856 92.5111 142.728 92.3834 142.728C92.2556 142.728 92.2556 142.728 92.1278 142.728C92 142.728 92 142.728 91.8722 142.728C91.3611 142.728 90.85 142.472 90.5945 142.089C90.2111 141.706 90.0834 141.322 90.0834 140.811C90.0834 140.556 90.0834 140.3 90.2111 140.045C90.3389 139.789 90.4667 139.533 90.5945 139.406C90.7222 139.278 90.9778 139.022 91.2334 139.022C91.4889 138.895 91.7445 138.895 92 138.895H92.5111C92.7667 138.895 93.0222 139.022 93.2778 139.15C93.5334 139.278 93.7889 139.406 93.9167 139.661C94.0445 139.789 94.0445 139.917 94.0445 140.045C94.0445 140.172 93.9167 140.428 93.7889 140.556C93.6611 140.683 93.5334 140.811 93.2778 140.811C93.15 140.811 93.15 140.811 93.0222 140.683C92.8945 140.683 92.8945 140.556 92.7667 140.556L92.6389 140.428C92.5111 140.428 92.5111 140.3 92.3834 140.3H91.8722C91.6167 140.3 91.4889 140.428 91.3611 140.556C91.2334 140.683 91.2334 140.811 91.2334 141.067C91.2334 141.195 91.2334 141.45 91.3611 141.45C91.4889 141.578 91.6167 141.578 91.7445 141.706C91.8722 141.706 91.8722 141.706 92 141.706C92.1278 141.706 92.1278 141.706 92.2556 141.706C92.5111 141.706 92.7667 141.833 92.8945 141.961C93.15 142.089 93.2778 142.217 93.5334 142.345C93.6611 142.472 93.7889 142.728 93.9167 142.983C94.0445 143.239 94.0445 143.495 94.0445 143.75V143.622H94.1722ZM87.5278 141.322C87.5278 140.939 87.4 140.683 87.1445 140.3C86.8889 140.045 86.6334 139.917 86.25 139.917C85.9945 139.917 85.8667 139.917 85.7389 140.045C85.6111 140.172 85.4834 140.172 85.3556 140.428C85.2278 140.556 85.1 140.683 85.1 140.939C84.9722 141.067 84.9722 141.322 84.9722 141.45L87.5278 141.322ZM88.8056 142.217C88.8056 142.345 88.8056 142.472 88.8056 142.472C88.8056 142.472 88.6778 142.6 88.55 142.6H84.9722V142.856C84.9722 142.983 84.9722 143.239 85.1 143.367C85.2278 143.495 85.2278 143.75 85.3556 143.878C85.4834 144.006 85.6111 144.133 85.7389 144.133C85.8667 144.261 86.1222 144.261 86.25 144.261C86.5056 144.261 86.6334 144.261 86.8889 144.133C87.1445 144.006 87.2722 144.006 87.4 143.878C87.4 143.878 87.4 143.878 87.4 143.75C87.4 143.75 87.4 143.75 87.4 143.622C87.4 143.495 87.5278 143.495 87.5278 143.495C87.5278 143.495 87.6556 143.495 87.7834 143.495C87.9111 143.495 87.9111 143.495 88.0389 143.495C88.1667 143.495 88.1667 143.622 88.2945 143.622C88.4222 143.622 88.4222 143.75 88.55 143.878C88.55 144.006 88.6778 144.006 88.6778 144.133C88.6778 144.133 88.6778 144.261 88.6778 144.389C88.4222 144.9 88.0389 145.156 87.6556 145.411C87.2722 145.539 86.7611 145.667 86.25 145.667C85.8667 145.667 85.4834 145.539 85.2278 145.411C84.9722 145.283 84.5889 145.028 84.4611 144.772C84.2056 144.517 84.0778 144.261 83.95 143.878C83.8222 143.495 83.6945 143.239 83.6945 142.856V141.45C83.6945 141.067 83.8222 140.683 83.95 140.428C84.0778 140.045 84.2056 139.789 84.4611 139.533C84.7167 139.278 84.9722 139.022 85.2278 138.895C85.4834 138.767 85.8667 138.639 86.25 138.639C86.6334 138.639 87.0167 138.767 87.2722 138.895C87.5278 139.022 87.9111 139.278 88.0389 139.533C88.2945 139.789 88.4222 140.045 88.55 140.428C88.6778 140.811 88.8056 141.067 88.8056 141.45V142.217ZM81.5222 138.256C81.5222 137.872 81.3945 137.617 81.1389 137.361C80.8834 137.106 80.6278 136.978 80.2445 136.978H77.9445V140.045H80.2445C80.6278 140.045 80.8834 139.917 81.1389 139.661C81.3945 139.406 81.5222 139.15 81.5222 138.767V138.256ZM82.8 138.639C82.8 139.278 82.6722 139.789 82.2889 140.172C82.0334 140.556 81.5222 140.939 81.0111 141.195C81.0111 141.322 81.1389 141.45 81.2667 141.706C81.3945 141.961 81.5222 142.217 81.65 142.472C81.7778 142.728 81.9056 143.111 82.0334 143.367C82.1611 143.622 82.2889 144.006 82.4167 144.261C82.5445 144.517 82.6722 144.772 82.6722 144.9C82.8 145.028 82.8 145.156 82.8 145.283C82.8 145.411 82.8 145.411 82.6722 145.411C82.5445 145.411 82.5445 145.411 82.4167 145.539C82.2889 145.539 82.1611 145.539 82.0334 145.539C81.9056 145.539 81.7778 145.539 81.7778 145.539C81.65 145.539 81.65 145.539 81.65 145.539C81.65 145.539 81.5222 145.539 81.5222 145.411L79.6056 141.322H77.8167V145.156C77.8167 145.283 77.8167 145.283 77.6889 145.283C77.6889 145.283 77.5611 145.411 77.4334 145.411C77.3056 145.411 77.3056 145.411 77.1778 145.411C77.05 145.411 77.05 145.411 76.9222 145.411C76.7945 145.411 76.6667 145.411 76.5389 145.411C76.4111 145.411 76.4111 145.411 76.4111 145.156V135.828C76.4111 135.572 76.5389 135.445 76.7945 135.445H80.1167C80.5 135.445 80.7556 135.572 81.1389 135.7C81.3945 135.828 81.7778 136.083 81.9056 136.211C82.1611 136.467 82.2889 136.722 82.4167 136.978C82.5445 137.233 82.6722 137.617 82.6722 138V138.639H82.8Z" fill="#6B2B2B"/>
<path d="M199.461 139.278C199.461 139.278 199.461 139.406 199.461 139.533C199.461 139.661 199.461 139.789 199.333 139.917C199.333 140.044 199.206 140.172 198.95 140.172C198.822 140.172 198.695 140.172 198.695 140.044C198.567 140.044 198.567 139.917 198.439 139.917C198.311 139.917 198.183 139.917 198.056 140.044C197.928 140.172 197.8 140.172 197.672 140.428C197.545 140.556 197.545 140.683 197.417 140.939C197.417 141.067 197.289 141.322 197.289 141.45V141.833V145.156C197.289 145.283 197.161 145.283 197.033 145.411C196.906 145.411 196.65 145.539 196.522 145.539H196.395H196.267C196.139 145.539 196.139 145.539 196.139 145.539C196.139 145.539 196.011 145.539 196.011 145.411V139.406C196.011 139.278 196.011 139.278 196.011 139.15C196.011 139.15 196.011 139.022 196.139 139.022H196.267C196.395 139.022 196.395 139.022 196.522 139.022H196.65C196.65 139.022 196.65 139.022 196.778 139.022C196.778 139.022 196.778 139.15 196.906 139.15C196.906 139.15 197.033 139.278 197.033 139.406C197.289 139.278 197.417 139.15 197.672 139.022C197.928 138.894 198.056 138.894 198.311 138.894C198.439 138.894 198.567 138.894 198.695 138.894C198.822 138.894 198.95 139.022 199.078 139.022C199.206 139.022 199.206 139.15 199.333 139.15C199.461 139.022 199.461 139.15 199.461 139.278ZM193.328 142.728H191.411C191.283 142.728 191.156 142.856 191.028 142.983C190.9 143.111 190.772 143.239 190.772 143.494V143.75C190.772 143.878 190.9 144.133 191.028 144.261C191.156 144.389 191.283 144.517 191.411 144.517H191.922C192.05 144.517 192.306 144.517 192.433 144.389C192.561 144.261 192.689 144.261 192.817 144.133C192.945 144.006 193.072 143.878 193.072 143.75C193.2 143.622 193.2 143.367 193.2 143.239V142.728H193.328ZM194.606 145.283C194.606 145.411 194.606 145.539 194.478 145.539C194.35 145.539 194.35 145.539 194.222 145.539C194.095 145.539 194.095 145.539 193.967 145.539H193.839L193.711 145.411C193.711 145.283 193.583 145.283 193.583 145.156V145.028C193.072 145.411 192.561 145.539 192.05 145.539H191.539C191.283 145.539 191.028 145.539 190.772 145.411C190.517 145.283 190.389 145.156 190.133 145.028C190.006 144.9 189.878 144.644 189.75 144.389C189.622 144.133 189.622 143.878 189.622 143.622V143.367C189.622 143.239 189.622 143.111 189.622 142.983C189.622 142.856 189.75 142.728 189.75 142.728C189.878 142.344 190.133 142.089 190.389 141.833C190.645 141.578 191.028 141.45 191.411 141.45H193.328C193.328 140.939 193.2 140.683 193.072 140.428C192.945 140.172 192.689 140.044 192.433 140.044C192.306 140.044 192.306 140.044 192.178 140.044C192.05 140.044 192.05 140.044 191.922 140.044C191.667 140.044 191.539 140.044 191.539 140.044C191.411 140.044 191.283 140.172 191.283 140.3C191.283 140.428 191.156 140.428 191.156 140.428C191.156 140.428 191.028 140.556 190.9 140.556C190.772 140.556 190.772 140.556 190.645 140.556C190.517 140.556 190.517 140.428 190.389 140.428C190.261 140.428 190.261 140.3 190.133 140.172C190.133 140.044 190.006 140.044 190.006 139.917C190.006 139.789 190.006 139.789 190.006 139.661C190.133 139.406 190.261 139.278 190.517 139.15C190.645 139.022 190.9 138.894 191.028 138.894C191.156 138.894 191.411 138.767 191.667 138.767C191.922 138.767 192.05 138.767 192.306 138.767C193.072 138.767 193.583 139.022 193.967 139.533C194.35 140.044 194.606 140.683 194.606 141.45V144.006V145.283ZM187.578 142.344C187.578 141.961 187.45 141.706 187.195 141.45C186.939 141.194 186.683 141.067 186.3 141.067H183.745V144.261H186.3C186.683 144.261 186.939 144.133 187.195 143.878C187.45 143.622 187.578 143.367 187.578 142.983V142.344ZM187.322 138.256C187.322 138.128 187.322 137.872 187.195 137.744C187.067 137.617 187.067 137.489 186.939 137.361C186.811 137.233 186.683 137.106 186.556 137.106C186.428 136.978 186.172 136.978 186.045 136.978H183.745V139.789H186.045C186.172 139.789 186.428 139.789 186.556 139.661C186.683 139.533 186.811 139.533 186.939 139.278C187.067 139.15 187.195 139.022 187.195 138.767C187.322 138.639 187.322 138.511 187.322 138.256ZM188.856 142.856C188.856 143.239 188.728 143.494 188.6 143.878C188.472 144.133 188.217 144.517 188.089 144.644C187.833 144.9 187.578 145.028 187.322 145.156C187.067 145.283 186.683 145.411 186.3 145.411H182.85C182.595 145.411 182.467 145.283 182.467 145.028V135.956C182.467 135.7 182.595 135.572 182.85 135.572H186.045C186.428 135.572 186.683 135.7 187.067 135.828C187.322 135.956 187.706 136.211 187.833 136.339C188.089 136.594 188.217 136.85 188.345 137.233C188.472 137.489 188.6 137.872 188.6 138.256C188.6 138.639 188.472 138.894 188.345 139.278C188.217 139.661 187.961 139.917 187.706 140.172C188.089 140.556 188.472 140.811 188.6 141.322C188.728 141.706 188.856 142.217 188.856 142.6V142.856ZM175.567 141.322C175.567 140.939 175.439 140.683 175.183 140.3C174.928 140.044 174.672 139.917 174.289 139.917C174.033 139.917 173.906 139.917 173.778 140.044C173.65 140.172 173.522 140.172 173.395 140.428C173.267 140.556 173.139 140.683 173.139 140.939C173.011 141.067 173.011 141.322 173.011 141.45L175.567 141.322ZM176.845 142.217C176.845 142.344 176.845 142.472 176.845 142.472C176.845 142.472 176.717 142.6 176.589 142.6H173.011V142.856C173.011 142.983 173.011 143.239 173.139 143.367C173.267 143.494 173.267 143.75 173.395 143.878C173.522 144.006 173.65 144.133 173.778 144.133C173.906 144.261 174.161 144.261 174.289 144.261C174.545 144.261 174.672 144.261 174.928 144.133C175.183 144.006 175.311 144.006 175.439 143.878C175.439 143.878 175.439 143.878 175.439 143.75C175.439 143.75 175.439 143.75 175.439 143.622C175.439 143.494 175.567 143.494 175.567 143.494C175.567 143.494 175.695 143.494 175.822 143.494C175.95 143.494 175.95 143.494 176.078 143.494C176.206 143.494 176.206 143.622 176.333 143.622C176.461 143.622 176.461 143.75 176.589 143.878C176.589 144.006 176.717 144.006 176.717 144.133C176.717 144.133 176.717 144.261 176.717 144.389C176.461 144.9 176.078 145.156 175.695 145.411C175.311 145.539 174.8 145.667 174.289 145.667C173.906 145.667 173.522 145.539 173.267 145.411C173.011 145.283 172.628 145.028 172.5 144.772C172.245 144.517 172.117 144.261 171.989 143.878C171.861 143.494 171.733 143.239 171.733 142.856V141.45C171.733 141.067 171.861 140.683 171.989 140.428C172.117 140.044 172.245 139.789 172.5 139.533C172.756 139.278 173.011 139.022 173.267 138.894C173.522 138.767 173.906 138.639 174.289 138.639C174.672 138.639 175.056 138.767 175.311 138.894C175.567 139.022 175.95 139.278 176.078 139.533C176.333 139.789 176.461 140.044 176.589 140.428C176.717 140.811 176.845 141.067 176.845 141.45V142.217Z" fill="#6B2B2B"/>
</g>
<defs>
<clipPath id="clip0">
<rect width="168.794" height="69" fill="white" transform="translate(30.6667 76.6667)"/>
</clipPath>
</defs>
</svg>
