<svg width="276" height="251" viewBox="0 0 276 251" fill="none" xmlns="http://www.w3.org/2000/svg">
<path d="M203.302 17.7149C200.116 17.7149 197.248 17.0465 194.38 16.0438C188.007 13.37 183.546 7.35398 182.271 0.335266H184.183C185.458 6.68553 189.281 11.6989 195.017 14.0385C197.566 15.0411 200.434 15.7096 203.302 15.7096C212.543 15.7096 220.828 10.0278 224.334 1.00372C224.334 0.669491 224.334 0.669491 224.652 0.335266H226.564C226.245 0.669491 226.245 1.00372 225.927 1.67216C222.422 11.3647 213.499 17.7149 203.302 17.7149Z" fill="#F8F8F8"/>
<path d="M193.743 123.997C184.502 123.997 175.579 119.652 169.844 111.965C161.558 100.936 163.47 84.893 173.986 76.2032C177.491 73.1952 181.634 71.8583 186.095 71.8583C186.732 71.8583 187.688 71.8583 188.644 71.8583C193.743 72.5267 198.523 75.2005 201.709 79.5454C207.126 86.8984 205.852 97.2593 199.16 102.941C196.929 104.947 194.061 105.949 191.193 105.949C190.556 105.949 190.238 105.949 189.6 105.949C186.095 105.615 183.227 103.61 180.996 100.936C179.403 98.5962 178.447 95.5882 178.766 92.9144C179.085 89.9064 180.359 87.2326 182.59 85.5615C184.183 84.2246 186.095 83.5561 188.007 83.5561C188.326 83.5561 188.644 83.5561 188.963 83.5561C191.193 83.8904 193.424 84.893 194.699 86.8984C196.929 89.9064 196.611 94.5855 193.743 96.9251L192.468 95.254C194.38 93.2486 194.699 90.2406 193.105 87.901C191.831 86.2299 189.919 85.2273 187.688 85.2273C186.095 85.2273 184.82 85.8957 183.546 86.8984C181.634 88.2353 180.678 90.5748 180.359 92.9144C180.041 95.254 180.678 97.5936 182.271 99.5989C184.183 101.938 186.732 103.61 189.6 103.944C189.919 103.944 190.556 103.944 190.875 103.944C193.424 103.944 195.655 102.941 197.567 101.604C203.621 96.5909 204.577 87.2326 199.797 80.8823C196.929 76.8716 192.787 74.5321 188.007 73.8636C187.37 73.8636 186.414 73.8636 185.776 73.8636C181.634 73.8636 178.129 75.2005 174.942 77.8743C165.064 85.8957 163.47 100.936 171.118 110.963C176.535 118.315 184.82 122.326 193.424 122.326C199.797 122.326 205.852 119.987 210.95 115.976C218.598 109.96 223.059 100.936 224.334 90.9091C225.608 80.8823 222.74 71.1898 217.005 63.1684C209.675 53.4759 198.841 47.1257 186.732 45.7888C185.139 45.4545 183.546 45.4545 181.952 45.4545C171.437 45.4545 161.877 49.131 153.592 55.8155C145.944 66.5107 135.429 73.1952 123.32 74.8663C121.408 75.2005 119.815 75.2005 117.903 75.2005C99.4206 75.2005 83.4878 60.4946 80.6199 41.4438C80.3013 39.7727 80.3013 38.4358 80.3013 36.7647C80.3013 29.746 82.5319 23.3957 86.3557 17.7139C91.1356 11.0294 98.146 6.68449 106.112 5.34759C107.387 5.01337 108.343 5.01337 109.618 5.01337C115.035 5.01337 119.815 6.68449 124.276 10.0267C129.374 14.0374 132.879 20.0535 133.835 26.738C135.429 38.1016 127.781 48.4626 117.265 50.1337C116.628 50.1337 115.672 50.4679 115.035 50.4679C107.068 50.4679 100.377 44.4519 99.4206 36.0962C98.7833 32.4198 99.7393 29.0775 101.97 26.0695C104.2 23.0615 107.068 21.3904 110.574 20.7219C111.211 20.7219 111.53 20.7219 112.167 20.7219C114.397 20.7219 116.628 21.3904 118.54 23.0615C120.771 24.7326 122.364 27.4064 122.682 30.4144C123.001 32.754 122.364 35.0936 121.089 37.0989C119.815 39.1043 117.584 40.4412 115.353 40.7754C115.035 40.7754 114.716 40.7754 114.397 40.7754C112.804 40.7754 111.53 40.1069 110.255 39.4385C108.98 38.4358 108.024 36.7647 107.706 35.0936L109.618 34.7593C109.936 36.0962 110.574 37.0989 111.53 37.7674C112.485 38.4358 113.441 38.77 114.716 38.77C115.035 38.77 115.353 38.77 115.353 38.77C117.265 38.4358 118.859 37.4331 119.815 36.0962C120.771 34.7594 121.408 32.754 121.089 30.7487C120.771 28.4091 119.496 26.0695 117.584 24.7326C115.991 23.3957 114.397 23.0615 112.485 23.0615C112.167 23.0615 111.53 23.0615 111.211 23.0615C108.343 23.3957 105.794 25.0668 103.882 27.7406C101.97 30.0802 101.333 33.4225 101.651 36.4305C102.607 43.7834 108.662 49.131 115.672 49.131C116.309 49.131 116.947 49.131 117.584 49.131C127.462 47.7941 134.154 38.1016 132.561 28.0749C131.605 21.7246 128.737 16.377 123.638 12.3663C119.815 9.35829 115.035 7.68716 110.255 7.68716C109.299 7.68716 108.024 7.68716 107.068 8.02139C99.4206 9.02406 93.0475 13.369 88.2677 19.7192C83.8065 26.0695 81.8945 33.7567 82.8505 41.7781C85.3998 60.1604 100.695 73.8636 118.221 73.8636C119.815 73.8636 121.727 73.8636 123.32 73.5294C135.11 71.8583 145.626 65.1738 152.636 54.8128C159.647 44.7861 162.514 32.0856 160.921 19.7192C158.372 13.0348 157.097 6.68449 157.097 0H159.009C159.009 6.68449 160.284 12.7005 162.833 18.7166V19.0508C167.932 30.4144 176.535 39.1043 187.688 43.7834C200.116 45.4545 210.95 51.8048 218.598 61.8315C224.652 70.1871 227.52 80.5481 226.246 90.9091C224.971 101.27 220.191 110.628 212.225 117.313C207.126 121.658 200.753 123.997 193.743 123.997ZM163.152 25.7353C163.152 34.0909 161.24 42.4465 157.416 50.1337L156.779 51.8048L158.053 50.8021C165.064 46.4572 173.03 44.1176 180.996 43.7834H182.59L180.996 42.7807C173.986 38.4358 167.932 32.4198 163.789 25.4011L162.833 24.0642L163.152 25.7353Z" fill="#F8F8F8"/>
<path d="M201.391 4.00981C200.116 4.00981 198.841 3.67558 197.567 3.34136C195.974 2.67291 194.699 1.67023 193.743 -0.000888944H195.974C196.611 0.66756 197.248 1.00178 198.204 1.33601C199.16 1.67023 200.435 2.00446 201.391 2.00446C203.303 2.00446 205.533 1.33601 207.126 -0.335114H209.676C207.764 2.67291 204.577 4.00981 201.391 4.00981Z" fill="#F8F8F8"/>
<path d="M0 243.984C1.59328 242.981 3.18656 241.979 4.46118 240.976C12.1089 234.96 16.5701 225.936 17.8447 215.909C19.1194 205.882 16.2514 196.19 10.5156 188.169C7.64774 184.158 4.14253 180.816 0 178.142V175.802C4.46118 178.81 8.60371 182.487 11.7903 186.832C17.8447 195.187 20.7126 205.548 19.438 215.909C18.1634 226.27 13.3835 235.628 5.41715 242.313C3.82387 243.984 1.91194 245.321 0 246.324V243.984Z" fill="#F8F8F8"/>
<path d="M0 125.669C1.27462 124.666 2.23059 123.329 2.54925 121.992C4.46118 117.313 3.18656 112.3 0 108.957V106.284C4.77984 109.96 6.69177 116.644 4.46118 122.326C3.50521 124.666 1.91194 126.337 0 127.674V125.669Z" fill="#F8F8F8"/>
<path d="M124.913 249.332C115.672 249.332 106.75 244.987 101.014 237.3C96.8716 231.952 95.2783 225.267 95.9156 218.583C96.5529 211.898 100.058 205.882 105.157 201.538C108.662 198.53 112.804 197.193 117.266 197.193C117.903 197.193 118.859 197.193 119.815 197.193C124.913 197.861 129.693 200.535 132.88 204.88C138.297 212.233 137.022 222.594 130.33 228.275C128.1 230.281 125.232 231.284 122.364 231.284C118.222 231.284 114.716 229.278 112.167 226.27C110.574 223.931 109.618 220.923 109.936 218.249C110.255 215.241 111.53 212.567 113.76 210.896C115.354 209.559 117.266 208.89 119.178 208.89C121.727 208.89 124.276 210.227 125.869 212.233C128.1 215.241 127.781 219.92 124.913 222.259L123.957 220.588C125.869 218.583 126.188 215.575 124.595 213.235C123.32 211.564 121.408 210.562 119.178 210.562C117.584 210.562 116.31 211.23 115.035 212.233C113.123 213.904 112.167 215.909 111.848 218.249C111.53 220.588 112.167 222.928 113.76 224.933C115.991 227.607 119.178 229.278 122.364 229.278C124.913 229.278 127.144 228.275 129.056 226.939C131.924 224.599 133.836 220.923 134.473 217.246C134.792 213.235 133.836 209.559 131.605 206.217C128.737 202.206 124.595 199.866 119.815 199.198C119.177 199.198 118.222 199.198 117.584 199.198C113.442 199.198 109.936 200.535 106.75 203.209C101.97 207.219 99.1022 212.567 98.1462 218.917C97.5089 225.267 99.1022 231.284 102.926 236.297C108.343 243.65 116.628 247.661 125.232 247.661C131.605 247.661 137.66 245.321 142.758 241.31C158.372 228.61 160.921 204.88 148.812 188.837C141.483 179.144 130.649 172.794 118.54 171.457H118.222C116.628 171.123 115.354 171.123 113.76 171.123C103.563 171.123 93.3664 174.8 85.0813 181.484C77.4336 192.179 66.9179 198.864 54.809 200.535C52.8971 200.869 51.3038 200.869 49.3919 200.869C41.1068 200.869 33.4591 198.195 27.086 192.848C19.1196 186.497 13.7024 177.473 12.4278 166.778C12.1091 165.107 12.1091 163.77 12.1091 162.099C12.1091 155.08 14.3397 148.73 18.1636 143.048C22.9434 136.364 29.9539 132.019 37.9203 130.682C39.1949 130.348 40.1508 130.348 41.4255 130.348C46.8426 130.348 51.6225 132.019 56.0836 135.361C61.1821 139.372 64.6874 145.388 65.6433 152.072C67.2366 163.436 59.5889 173.797 49.0732 175.468C48.4359 175.468 47.4799 175.802 46.8426 175.802C43.3374 175.802 40.1508 174.8 37.2829 172.46C33.7777 169.786 31.5471 165.776 30.9098 161.431C30.2725 157.754 31.2285 154.412 33.4591 151.404C35.6897 148.396 38.5576 146.725 42.0628 146.056C42.7001 146.056 43.0187 146.056 43.6561 146.056C48.7546 146.056 53.2157 150.067 54.1717 155.415C54.4904 157.754 53.8531 160.094 52.5784 162.099C51.3038 164.104 49.0732 165.441 46.8426 165.775C46.524 165.775 46.2053 165.775 45.8867 165.775C44.2934 165.775 43.0188 165.107 41.7441 164.439C39.5135 163.77 38.5576 162.099 38.2389 160.428L40.1508 160.094C40.4695 161.431 41.1068 162.433 42.0628 163.102C43.0187 163.77 43.9747 164.104 45.2493 164.104C45.568 164.104 45.8867 164.104 45.8867 164.104C47.7986 163.77 49.3919 162.767 50.3478 161.431C51.3038 159.759 51.9411 158.088 51.6225 156.083C50.9851 151.738 47.4799 148.396 43.0187 148.396C42.7001 148.396 42.0628 148.396 41.7441 148.396C38.8762 148.73 36.327 150.401 34.415 153.075C32.5031 155.415 31.8658 158.757 32.1845 161.765C32.8218 165.776 34.7337 169.118 37.6016 171.457C40.1508 173.463 43.0187 174.465 45.8867 174.465C46.524 174.465 47.1613 174.465 47.7986 174.465C52.5784 173.797 56.721 171.123 59.5889 167.112C62.4568 163.102 63.7314 158.088 63.0941 153.075C62.1381 146.725 59.2702 141.377 54.1717 137.366C50.3478 134.358 45.568 132.687 40.7882 132.687C39.8322 132.687 38.5576 132.687 37.6016 133.021C29.9539 134.024 23.5807 138.369 18.8009 144.719C14.3397 151.07 12.4278 158.757 13.3838 166.778C14.6584 176.805 19.7569 185.495 27.4046 191.511C33.7777 196.524 41.1068 198.864 48.7546 198.864C50.3478 198.864 52.2598 198.864 53.853 198.53C65.6433 196.858 76.159 190.174 83.1694 179.813C90.1798 169.452 93.0477 157.086 91.4544 144.719C88.9052 138.369 87.6306 131.685 87.6306 125.334C87.6306 119.318 88.5865 113.302 90.8171 107.62C96.5529 92.5803 110.255 82.8878 125.869 82.8878C130.649 82.8878 135.429 83.8905 139.89 85.5616C147.538 88.5696 153.274 94.5857 156.46 102.607C159.647 110.294 159.647 118.984 156.779 127.005C152.955 136.698 144.033 143.048 134.154 143.048C130.968 143.048 128.1 142.38 125.232 141.377C115.035 137.032 110.255 125 114.398 114.639C116.947 108.289 122.683 104.278 129.056 104.278C130.968 104.278 133.198 104.612 135.11 105.615C138.297 106.952 140.846 109.626 142.121 112.968C143.395 116.31 143.395 119.987 142.121 123.329C141.165 126.003 138.934 128.342 136.385 129.345C135.11 130.013 133.517 130.348 132.242 130.348C130.968 130.348 129.693 130.013 128.419 129.679C126.188 128.677 124.595 127.005 123.639 125C122.683 122.661 122.683 120.321 123.639 117.981C124.595 115.308 127.463 113.302 130.33 113.302C130.968 113.302 131.924 113.302 132.561 113.636L131.924 115.308C131.286 115.308 130.968 114.973 130.33 114.973C128.1 114.973 126.188 116.31 125.551 118.316C124.913 119.987 124.913 121.992 125.551 123.663C126.188 125.334 127.463 126.671 129.374 127.34C130.33 127.674 131.605 128.008 132.561 128.008C133.836 128.008 134.792 127.674 136.066 127.34C138.297 126.337 139.89 124.666 140.846 122.326C141.802 119.318 141.802 116.31 140.846 113.302C139.571 110.294 137.66 108.289 134.792 106.952C133.198 106.284 131.286 105.949 129.693 105.949C123.957 105.949 118.859 109.626 116.628 115.308C113.123 125 117.266 135.695 126.507 139.706C129.056 140.709 131.924 141.377 134.792 141.377C144.033 141.377 152.318 135.695 155.823 126.671C158.691 119.318 158.691 111.297 155.504 103.944C152.636 96.591 146.901 90.9092 139.89 87.9012C135.748 86.2301 131.286 85.2274 126.507 85.2274C111.848 85.2274 98.7835 94.5857 93.3664 108.623C88.9052 120.321 89.2239 133.021 94.0037 144.719L94.3223 145.054C99.1022 156.417 108.025 165.107 118.859 169.786C131.286 171.457 142.439 177.808 150.087 187.834C162.833 204.88 159.965 229.612 143.714 242.981C137.978 246.992 131.605 249.332 124.913 249.332ZM94.3223 151.07C94.3223 159.425 92.4104 167.781 88.5865 175.468L87.6306 177.139L89.2239 176.136C96.2343 171.792 104.201 169.452 112.167 169.118H113.76L112.486 168.115C105.475 163.77 99.7395 158.088 95.2783 150.735L94.3223 149.399V151.07Z" fill="#F8F8F8"/>
<path d="M65.3245 17.7149C62.1379 17.7149 59.27 17.0465 56.4021 16.0438C50.029 13.37 45.5678 7.35398 44.2932 0.335266H46.2051C47.4798 6.68553 51.3036 11.6989 57.0394 14.0385C59.5887 15.0411 62.4566 15.7096 65.3245 15.7096C74.5655 15.7096 82.8506 10.0278 86.3558 1.00372C86.3558 0.669491 86.6745 0.335266 86.6745 0.335266H88.5864C88.2677 1.00372 88.2677 1.33794 88.2677 1.67216C84.4439 11.3647 75.5215 17.7149 65.3245 17.7149Z" fill="#F8F8F8"/>
<path d="M55.7648 123.997C54.4902 123.997 53.2155 123.997 51.9409 123.663C43.9745 122.66 36.6454 118.315 31.8656 111.631C27.7231 106.283 26.1298 99.5989 26.7671 92.9144C27.4044 86.2299 30.9096 80.2139 36.0081 75.869C39.5133 72.861 43.6559 71.524 48.117 71.524C48.7543 71.524 49.7103 71.524 50.6663 71.524C55.7648 72.1925 60.5446 74.8663 63.7312 79.2112C69.1483 86.5642 67.8737 96.9251 61.1819 102.607C58.9513 104.612 56.0834 105.615 53.2155 105.615C49.073 105.615 45.5678 103.61 43.0185 100.602C41.4253 98.262 40.4693 95.254 40.7879 92.5802C41.1066 89.5722 42.3812 86.8984 44.6118 85.2273C46.2051 83.8904 48.117 83.2219 50.029 83.2219C52.5782 83.2219 55.1275 84.5588 56.7207 86.5642C58.9513 89.5722 58.6327 94.2513 55.7648 96.5909L54.4902 94.9198C56.4021 92.9144 56.7207 89.9064 55.1275 87.5668C53.8528 85.8957 51.9409 84.893 49.7103 84.893C48.117 84.893 46.8424 85.5615 45.5678 86.5642C43.6559 87.9011 42.6999 90.2406 42.3812 92.5802C42.0626 94.9198 42.6999 97.2593 44.2932 99.2647C46.5238 101.938 49.7103 103.61 52.8969 103.61C55.4461 103.61 57.6767 102.607 59.5886 101.27C65.6431 96.2567 66.5991 86.8984 61.8192 80.5481C58.9513 76.5374 54.8088 74.1978 50.029 73.5294C49.3917 73.5294 48.4357 73.5294 47.7984 73.5294C43.6559 73.5294 40.1506 74.8663 36.9641 77.5401C32.1842 81.5508 29.3163 86.8984 28.3604 93.2486C27.7231 99.5989 29.3163 105.615 33.1402 110.628C37.92 116.979 44.6118 120.989 51.9409 121.658C53.2155 121.658 54.1715 121.992 55.4461 121.992C61.8192 121.992 67.8737 119.652 72.9722 115.642C80.6199 109.626 85.0811 100.602 86.3557 90.5749C87.6304 80.5481 84.7625 70.8556 79.0266 62.8342C71.6976 53.1417 60.8633 46.7914 48.7543 45.4545H48.4357C46.8424 45.1203 45.5678 45.1203 43.9745 45.1203C33.7775 45.1203 23.5805 48.7968 15.2955 55.4813C11.4716 62.1658 6.37312 66.8449 0 70.1871V67.8476C5.73581 64.5053 10.8343 59.8262 14.6582 54.1444C21.6686 44.1176 24.5365 31.4171 22.9432 19.0508C20.394 13.0348 19.1194 6.68449 19.1194 0H21.0313C21.0313 6.68449 22.3059 13.0348 24.8552 18.7166V19.0508C29.635 30.4144 38.5574 39.1043 49.3917 43.7834C61.8192 45.1203 72.9722 51.8048 80.6199 61.8315C86.6744 70.1871 89.5423 80.5481 88.2677 90.9091C86.993 101.27 82.2132 110.628 74.2468 117.313C69.1483 121.658 62.7752 123.997 55.7648 123.997ZM25.4925 25.7353C25.4925 34.0909 23.5805 42.7807 19.7567 50.1337L19.1194 51.8048L20.394 50.8021C27.4044 46.4572 35.3708 44.1176 43.3372 43.7834H44.9305L43.6558 42.7807C36.6454 38.77 30.9096 32.754 26.4484 25.4011L25.4925 24.0642V25.7353Z" fill="#F8F8F8"/>
<path d="M63.7312 4.00981C62.4566 4.00981 61.182 3.67558 59.9074 3.34136C58.3141 2.67291 57.0395 1.67023 56.0835 -0.000888944H58.6327C59.2701 0.66756 59.9074 1.00178 60.8633 1.33601C61.8193 1.67023 63.0939 2.00446 64.0499 2.00446C65.9618 2.00446 68.1924 1.33601 69.7857 -0.335114H72.3349C69.7857 2.67291 66.9178 4.00981 63.7312 4.00981Z" fill="#F8F8F8"/>
<path d="M0 140.709C7.9664 139.372 14.3395 134.024 17.5261 126.337C23.2619 110.963 16.2514 93.5829 1.91194 87.5669C1.27462 87.2327 0.637312 86.8984 0 86.8984V84.8931C0.637312 85.2273 1.59328 85.5615 2.23059 85.8958C17.8447 92.246 25.4925 110.628 19.1194 126.671C15.9328 135.027 8.60371 141.043 0 142.38V140.709Z" fill="#F8F8F8"/>
<path d="M256.199 75.5349C237.717 75.5349 221.784 60.829 218.917 41.7782C218.598 40.4413 218.598 38.7701 218.598 37.099C218.598 30.0803 220.828 23.73 224.652 18.0482C229.432 11.3637 236.443 7.01881 244.409 5.68191C245.684 5.34769 246.64 5.34769 247.914 5.34769C253.331 5.34769 258.111 7.01881 262.572 10.3611C267.671 14.3717 271.176 20.3878 272.132 27.0723C272.769 32.4199 271.495 38.1017 268.308 42.4466C265.122 46.7915 260.66 49.7996 255.243 50.468C254.606 50.468 253.65 50.8022 253.013 50.8022C245.046 50.8022 238.355 44.7862 237.399 36.4306C236.443 29.0776 241.222 22.0589 248.233 21.0562C248.87 21.0562 249.189 21.0562 249.826 21.0562C254.925 21.0562 259.386 25.0669 260.342 30.4145C260.979 35.4279 257.793 39.7728 253.013 40.7755C252.694 40.7755 252.375 40.7755 252.057 40.7755C250.463 40.7755 249.189 40.107 247.914 39.4386C246.64 38.4359 245.684 36.7648 245.365 35.0937L247.277 34.7594C247.596 36.0963 248.233 37.099 249.189 37.7675C250.145 38.4359 251.101 38.7701 252.375 38.7701C252.694 38.7701 253.013 38.7701 253.013 38.7701C254.925 38.4359 256.518 37.4332 257.474 36.0963C258.43 34.4252 259.067 32.7541 258.749 30.7488C258.111 26.4038 254.606 23.0616 250.145 23.0616C249.826 23.0616 249.189 23.0616 248.87 23.0616C246.002 23.3958 243.453 25.0669 241.541 27.7407C239.629 30.0803 238.992 33.4225 239.311 36.4306C240.266 43.7835 246.321 49.1311 253.331 49.1311C253.969 49.1311 254.606 49.1311 255.243 49.1311C260.023 48.4627 264.166 45.7889 267.034 41.7782C269.901 37.7675 271.176 32.7541 270.539 28.075C269.583 21.7247 266.715 16.3771 261.616 12.3664C257.793 9.35838 253.013 7.68726 248.233 7.68726C247.277 7.68726 246.002 7.68726 245.046 8.02148C237.399 9.02416 231.025 13.3691 226.246 19.7193C221.466 26.0696 219.873 33.7568 220.829 41.7782C223.378 60.1605 238.355 73.8637 256.199 73.8637C257.793 73.8637 259.704 73.8637 261.298 73.5295C266.078 72.8611 270.539 71.1899 275 68.8504V71.1899C270.539 73.5295 266.078 74.8664 261.616 75.5349C259.704 75.5349 258.111 75.5349 256.199 75.5349Z" fill="#F8F8F8"/>
<path d="M272.451 142.714C269.264 142.714 266.396 142.046 263.528 141.043C253.331 136.698 248.551 124.666 252.694 114.305C255.243 107.955 260.979 103.944 267.352 103.944C269.264 103.944 271.495 104.278 273.407 105.281C274.044 105.615 274.681 105.949 275.319 106.284V108.623C274.363 107.955 273.725 107.286 272.769 106.952C271.176 106.284 269.264 105.949 267.671 105.949C261.935 105.949 256.837 109.626 254.606 115.308C251.101 125 255.562 135.695 264.484 139.706C267.034 140.709 269.901 141.377 272.769 141.377C273.725 141.377 274.681 141.377 275.319 141.043V143.048C274.044 142.714 273.088 142.714 272.451 142.714Z" fill="#F8F8F8"/>
<path d="M270.539 129.345C269.264 129.345 267.989 129.011 266.715 128.677C264.484 127.674 262.891 126.003 261.935 123.997C260.979 121.658 260.979 119.318 261.935 116.979C262.891 114.305 265.44 112.3 268.627 112.3C269.264 112.3 270.22 112.3 270.857 112.634L270.22 114.305C269.583 114.305 269.264 113.971 268.627 113.971C266.396 113.971 264.484 115.308 263.847 117.313C263.21 118.984 263.21 120.989 263.847 122.661C264.484 124.332 265.759 125.669 267.671 126.337C268.627 126.671 269.901 127.005 270.857 127.005C272.451 127.005 274.044 126.671 275.319 125.669V128.008C273.407 129.011 272.132 129.345 270.539 129.345Z" fill="#F8F8F8"/>
<path d="M262.573 249.332C253.332 249.332 244.409 244.987 238.673 237.299C234.531 231.952 232.938 225.267 233.575 218.583C234.212 211.898 237.717 205.882 242.816 201.537C246.321 198.529 250.464 197.193 254.925 197.193C255.562 197.193 256.518 197.193 257.474 197.193C262.573 197.861 267.352 200.535 270.539 204.88C275.956 212.233 274.681 222.594 267.99 228.275C265.759 230.281 262.891 231.283 260.023 231.283C255.881 231.283 252.376 229.278 249.826 225.936C248.233 223.596 247.277 220.588 247.596 217.914C247.914 214.906 249.189 212.233 251.42 210.561C253.013 209.225 254.925 208.556 256.837 208.556C259.386 208.556 261.935 209.893 263.528 211.898C265.759 214.906 265.44 219.586 262.573 221.925L261.617 220.588C263.529 218.583 263.847 215.575 262.254 213.235C260.979 211.564 259.067 210.561 256.837 210.561C255.243 210.561 253.969 211.23 252.694 212.233C248.87 215.241 248.233 220.922 251.101 224.933C253.332 227.607 256.518 229.278 259.705 229.278C262.254 229.278 264.484 228.275 266.396 226.938C272.451 221.925 273.407 212.567 268.627 206.217C265.759 202.206 261.617 199.866 256.837 199.198C256.199 199.198 255.243 199.198 254.606 199.198C250.464 199.198 246.958 200.535 243.772 203.209C238.992 207.219 236.124 212.567 235.168 218.917C234.531 225.267 236.124 231.283 239.948 236.297C245.365 243.65 253.65 247.66 262.254 247.66C266.396 247.66 270.858 246.658 274.363 244.652V246.658C271.176 248.329 267.034 249.332 262.573 249.332Z" fill="#F8F8F8"/>
<path d="M187.37 200.869C168.888 200.869 152.955 186.163 150.087 167.112C149.768 165.441 149.768 164.104 149.768 162.433C149.768 155.414 151.999 149.064 155.823 143.382C160.603 136.698 167.613 132.353 175.579 131.016C176.854 130.682 177.81 130.682 179.085 130.682C184.502 130.682 189.282 132.353 193.743 135.695C198.841 139.706 202.347 145.722 203.302 152.406C204.896 163.77 197.248 174.131 186.732 175.802C186.095 175.802 185.139 176.136 184.502 176.136C176.535 176.136 169.844 170.12 168.888 161.765C168.25 158.088 169.206 154.746 171.437 151.738C173.667 148.73 176.535 147.059 180.041 146.39C180.678 146.39 180.997 146.39 181.634 146.39C183.864 146.39 186.095 147.059 188.007 148.73C190.238 150.401 191.831 153.075 192.15 156.083C192.468 158.422 191.831 160.762 190.556 162.767C189.282 164.773 187.051 166.11 184.82 166.444C184.502 166.444 184.183 166.444 183.864 166.444C182.271 166.444 180.997 165.775 179.722 165.107C178.447 164.104 177.491 162.433 177.173 160.762L179.085 160.428C179.403 161.765 180.041 162.767 180.997 163.436C181.953 164.104 182.909 164.438 184.183 164.438C184.502 164.438 184.82 164.438 184.82 164.438C186.732 164.104 188.326 163.102 189.282 161.765C190.238 160.094 190.875 158.422 190.556 156.417C189.282 153.743 188.007 151.738 186.414 150.401C184.82 149.064 183.227 148.73 181.315 148.73C180.997 148.73 180.359 148.73 180.041 148.73C177.173 149.064 174.623 150.735 172.712 153.409C170.8 155.749 170.162 159.091 170.481 162.099C171.437 169.452 177.491 174.799 184.502 174.799C185.139 174.799 185.776 174.799 186.414 174.799C191.194 174.131 195.336 171.457 198.204 167.447C201.072 163.436 202.347 158.422 201.709 153.409C200.753 147.059 197.885 141.711 192.787 137.701C188.963 134.693 184.183 133.021 179.403 133.021C178.447 133.021 177.173 133.021 176.217 133.356C168.569 134.358 162.196 138.703 157.416 145.053C152.955 151.404 151.043 159.091 151.999 167.112C154.548 185.495 169.844 199.198 187.37 199.198C188.963 199.198 190.875 199.198 192.468 198.864C204.258 197.192 214.774 190.508 221.785 180.147C228.795 170.12 231.663 157.42 230.07 145.053C227.52 138.703 226.246 132.019 226.246 125.668C226.246 119.652 227.202 113.636 229.432 107.955C233.256 98.262 240.267 90.5749 249.508 86.5642C254.287 84.5588 259.067 83.5562 264.166 83.5562C267.671 83.5562 271.495 84.2246 275 85.2273V87.2326C271.495 85.8957 267.671 85.5615 264.166 85.5615C259.386 85.5615 254.606 86.5642 250.145 88.5695C241.223 92.5802 234.531 99.9331 231.026 108.957C226.564 120.655 226.883 133.356 231.663 145.053V145.388C236.761 156.751 245.365 165.441 256.518 170.12C263.21 170.789 269.264 173.128 274.681 176.471V178.81C268.946 175.134 262.572 172.794 255.881 172.126C254.287 171.791 252.694 171.791 251.101 171.791C240.585 171.791 230.707 175.468 222.741 182.152C215.093 192.848 204.577 199.532 192.468 201.203C190.875 200.535 188.963 200.869 187.37 200.869ZM232.3 151.07C232.3 159.425 230.388 167.781 226.564 175.468L225.927 177.139L227.202 176.136C234.212 171.791 242.178 169.452 250.145 169.118H251.738L250.145 168.115C243.134 163.77 237.08 157.754 232.937 150.735L231.982 149.398L232.3 151.07Z" fill="#F8F8F8"/>
<path d="M55.446 249.666C55.1274 249.332 55.1274 249.332 55.1274 248.997C54.1714 246.658 54.1714 244.318 55.1274 241.979C56.0833 239.305 58.9512 237.299 61.8191 237.299C62.4564 237.299 63.4124 237.299 64.0497 237.634L63.4124 239.305C62.7751 239.305 62.4564 238.971 61.8191 238.971C59.5885 238.971 57.6766 240.307 57.0393 242.313C56.402 243.984 56.402 245.989 57.0393 247.66C57.358 247.995 57.358 248.663 57.6766 248.997H55.446V249.666Z" fill="#F8F8F8"/>
<path d="M70.1045 249.666C70.7418 248.997 71.3791 247.995 71.6977 246.992C72.6537 243.984 72.6537 240.976 71.6977 237.968C70.4231 234.96 68.5112 232.955 65.6433 231.618C64.05 230.949 62.1381 230.615 60.5448 230.615C58.6329 230.615 56.7209 230.949 55.1276 231.952C51.6224 233.623 49.0732 236.297 47.4799 239.973C46.2053 242.981 45.8866 246.324 46.5239 249.666H44.612C44.2933 246.324 44.612 242.647 45.8866 239.305C47.4799 235.294 50.3478 231.952 54.4903 230.281C56.4023 229.278 58.6329 228.944 60.8634 228.944C62.7754 228.944 65.006 229.278 66.9179 230.281C70.1045 231.618 72.6537 234.291 73.9283 237.634C75.203 240.976 75.203 244.652 73.9283 247.995C73.6097 248.663 73.291 249.332 72.9724 250H70.1045V249.666Z" fill="#F8F8F8"/>
<path d="M86.9931 249.666C89.2237 242.647 88.905 235.294 86.3558 228.61C83.4879 221.257 77.7521 215.575 70.7416 212.567C66.5991 210.896 62.1379 209.893 57.3581 209.893C52.5782 209.893 47.7984 210.896 43.3372 212.901C34.4149 216.912 27.7231 224.265 24.2179 233.289C22.3059 238.302 21.35 243.984 21.0313 249.666H19.1194C19.1194 243.984 20.394 237.968 22.3059 232.62C26.1298 222.928 33.1402 215.241 42.3813 211.23C47.1611 209.225 51.9409 207.888 57.0394 207.888C61.8193 207.888 66.5991 208.89 71.0603 210.896C78.708 213.904 84.4438 219.92 87.6304 227.941C90.4983 234.96 90.8169 242.647 88.5863 250H86.9931V249.666Z" fill="#F8F8F8"/>
<path d="M208.082 249.666C208.72 248.997 209.357 247.995 209.676 246.992C211.906 240.976 209.038 234.292 203.621 231.952C202.028 231.284 200.116 230.949 198.523 230.949C196.611 230.949 194.699 231.284 193.105 232.286C189.6 233.957 187.051 236.631 185.458 240.308C184.183 243.316 183.864 246.658 184.502 250H182.59C182.271 246.324 182.59 242.981 183.864 239.639C185.458 235.628 188.326 232.286 192.468 230.615C194.38 229.612 196.611 229.278 198.841 229.278C200.753 229.278 202.984 229.612 204.896 230.615C211.587 233.289 214.774 241.31 212.225 248.329C211.906 248.997 211.587 249.666 211.269 250.334H208.082V249.666Z" fill="#F8F8F8"/>
<path d="M224.971 249.666C229.751 234.626 222.741 218.583 208.72 212.567C204.577 210.896 200.116 209.893 195.336 209.893C190.556 209.893 185.776 210.896 181.315 212.901C172.393 216.912 165.701 224.265 162.196 233.289C160.284 238.302 159.328 243.984 159.009 249.666H157.097C157.097 243.65 158.372 237.968 160.284 232.62C164.108 222.928 171.118 215.241 180.359 211.23C185.139 209.225 189.919 207.888 195.017 207.888C199.797 207.888 204.577 208.89 209.038 210.896C223.696 216.912 231.344 233.957 226.564 249.666H224.971Z" fill="#F8F8F8"/>
<path d="M193.105 249.666C192.787 249.332 192.787 249.332 192.787 248.997C191.831 246.658 191.831 244.318 192.787 241.979C193.743 239.305 196.292 237.299 199.479 237.299C200.116 237.299 201.072 237.299 201.709 237.634L201.072 239.305C200.435 239.305 200.116 238.971 199.479 238.971C197.248 238.971 195.336 240.307 194.699 242.313C194.061 243.984 194.061 245.989 194.699 247.66C195.017 247.995 195.017 248.663 195.336 248.997H193.105V249.666Z" fill="#F8F8F8"/>
</svg>
