<svg width="601" height="600" viewBox="0 0 601 600" fill="none" xmlns="http://www.w3.org/2000/svg">
<path d="M599.555 600V582.453C597.299 567.286 592.285 552.872 585.016 540.088C592.411 527.303 597.424 512.889 599.68 497.723V462.628C597.424 447.462 592.411 433.048 585.141 420.263C592.536 407.479 597.55 393.065 599.806 377.898V342.803C597.55 327.637 592.536 313.223 585.266 300.439C592.661 287.654 597.675 273.24 599.931 258.074V222.979C597.675 207.813 592.661 193.399 585.392 180.614C592.787 167.83 597.8 153.415 600.056 138.249V103.154C597.8 87.9883 592.787 73.5743 585.517 60.7896C592.912 48.005 597.926 33.591 600.182 18.4249V0.877376H582.634C567.468 3.13349 553.054 8.14707 540.269 15.4168C527.234 7.64571 512.945 2.63213 497.654 0.376018H462.559C447.393 2.63213 432.979 7.64571 420.194 14.9154C407.284 7.52037 392.996 2.50679 377.83 0.250679H342.734C327.443 2.50679 313.154 7.52037 300.244 14.7901C287.46 7.52037 273.046 2.38145 257.88 0.250679H222.785C207.619 2.50679 193.204 7.52037 180.42 14.7901C167.51 7.39503 153.221 2.38145 137.93 0.125339H102.835C87.6687 2.25611 73.2546 7.39503 60.47 14.6647C47.5601 7.26969 33.2714 2.25611 18.1053 0H0.557754V17.5475C2.68853 32.8389 7.7021 47.1276 15.0971 59.9123C7.7021 72.8222 2.68853 87.1109 0.432415 102.277V137.372C2.68853 152.538 7.7021 166.952 14.9718 179.737C7.7021 192.647 2.56319 207.061 0.307075 222.227V257.322C2.56319 272.613 7.57676 286.902 14.8465 299.812C7.57676 312.597 2.43785 326.885 0.307075 342.177V377.272C2.56319 392.438 7.57676 406.852 14.8465 419.637C7.45142 432.421 2.43785 446.835 0.181736 462.001V497.096C2.43785 512.262 7.45142 526.676 14.7211 539.461C7.32608 552.371 2.31251 566.66 0.0563965 581.951V599.499H17.6039C32.77 597.242 47.184 592.229 59.9687 584.959C72.8786 592.354 87.1673 597.368 102.333 599.624H137.428C152.595 597.368 167.009 592.354 179.793 585.085C192.578 592.48 206.992 597.493 222.158 599.749H257.253C272.419 597.493 286.833 592.48 299.618 585.21C312.528 592.605 326.816 597.619 341.982 599.875H377.077C392.244 597.619 406.658 592.605 419.442 585.335C432.352 592.73 446.641 597.744 461.807 600H496.902C512.068 597.744 526.482 592.73 539.267 585.461C552.051 592.856 566.465 597.869 581.631 600.125L599.555 600ZM583.512 537.456C573.359 520.535 559.07 506.371 542.275 496.094C558.945 486.818 578.122 481.554 598.427 481.304C598.051 501.609 592.787 520.785 583.512 537.456ZM118.878 238.646C98.5732 238.396 79.3963 233.006 62.7261 223.731C79.647 213.578 93.8103 199.415 104.088 182.494C113.363 199.164 118.753 218.216 118.878 238.646ZM62.8515 136.119C79.5216 126.844 98.6986 121.579 119.004 121.329C118.753 141.634 113.363 160.811 104.088 177.481C93.9357 160.435 79.7723 146.271 62.8515 136.119ZM118.878 358.471C98.5732 358.22 79.3963 352.831 62.7261 343.555C79.647 333.403 93.8103 319.114 104.088 302.319C113.363 318.989 118.628 338.166 118.878 358.471ZM62.8515 255.943C79.5216 246.668 98.6986 241.404 119.004 241.153C118.753 261.458 113.363 280.635 104.088 297.305C93.9357 280.384 79.6469 266.221 62.8515 255.943ZM105.592 299.812C112.987 287.027 118.001 272.613 120.257 257.447C122.513 272.613 127.527 287.027 134.796 299.812C127.401 312.597 122.388 327.011 120.132 342.177C118.001 327.011 112.862 312.722 105.592 299.812ZM180.044 345.185C192.828 352.58 207.243 357.593 222.409 359.85C207.243 362.106 192.828 367.119 180.044 374.389C167.259 366.994 152.845 361.98 137.679 359.724C152.971 357.593 167.259 352.58 180.044 345.185ZM121.385 358.471C121.636 338.166 127.025 318.989 136.3 302.319C146.453 319.24 160.616 333.403 177.537 343.681C160.867 352.956 141.815 358.346 121.385 358.471ZM137.804 299.812C148.082 282.39 162.747 267.725 180.169 257.447C197.591 267.725 212.256 282.39 222.534 299.812C212.256 317.234 197.591 331.899 180.169 342.177C162.622 332.024 148.082 317.359 137.804 299.812ZM137.804 239.9C152.971 237.644 167.385 232.63 180.169 225.36C192.954 232.755 207.368 237.769 222.534 240.025C207.368 242.281 192.954 247.295 180.169 254.564C167.385 247.169 152.971 242.156 137.804 239.9ZM182.676 256.069C199.346 246.793 218.523 241.529 238.828 241.278C238.577 261.583 233.188 280.76 223.913 297.431C213.76 280.51 199.597 266.221 182.676 256.069ZM182.801 223.856C199.722 213.704 213.886 199.415 224.163 182.62C233.438 199.29 238.703 218.467 238.953 238.772C218.523 238.396 199.346 233.131 182.801 223.856ZM182.801 136.119C199.471 126.844 218.648 121.579 238.953 121.329C238.703 141.634 233.313 160.811 224.038 177.481C213.886 160.56 199.722 146.396 182.801 136.119ZM222.659 179.987C212.381 197.41 197.717 212.074 180.295 222.352C162.872 212.074 148.208 197.41 137.93 179.987C148.208 162.565 162.872 147.901 180.295 137.623C197.717 147.901 212.381 162.565 222.659 179.987ZM177.662 223.856C160.992 233.131 141.815 238.396 121.51 238.646C121.761 218.341 127.151 199.164 136.426 182.494C146.578 199.415 160.742 213.578 177.662 223.856ZM177.662 256.069C160.742 266.221 146.578 280.384 136.3 297.305C127.025 280.635 121.761 261.458 121.51 241.153C141.815 241.404 160.992 246.793 177.662 256.069ZM177.537 375.893C160.616 386.046 146.453 400.209 136.175 417.13C126.9 400.46 121.636 381.283 121.385 360.978C141.815 361.354 160.867 366.743 177.537 375.893ZM177.412 463.631C160.742 472.906 141.69 478.17 121.26 478.421C121.51 458.116 126.9 438.939 136.175 422.269C146.453 439.189 160.616 453.353 177.412 463.631ZM137.679 419.762C147.957 402.34 162.622 387.675 180.044 377.397C197.466 387.675 212.131 402.34 222.409 419.762C212.131 437.184 197.466 451.849 180.044 462.127C162.496 451.849 147.957 437.184 137.679 419.762ZM182.676 375.893C199.346 366.618 218.523 361.354 238.828 361.103C238.577 381.408 233.188 400.585 223.913 417.255C213.635 400.334 199.471 386.171 182.676 375.893ZM182.676 343.681C199.597 333.528 213.76 319.365 224.038 302.444C233.313 319.114 238.577 338.291 238.828 358.596C218.398 358.346 199.346 352.956 182.676 343.681ZM225.417 299.937C232.812 287.153 237.825 272.739 240.081 257.573C242.338 272.739 247.351 287.153 254.621 299.937C247.226 312.722 242.212 327.136 239.956 342.302C237.825 327.136 232.812 312.722 225.417 299.937ZM299.994 345.31C312.904 352.705 327.192 357.719 342.358 359.975C327.192 362.231 312.778 367.245 299.994 374.514C287.209 367.119 272.795 362.106 257.629 359.85C272.795 357.719 287.209 352.58 299.994 345.31ZM241.335 358.596C241.586 338.291 246.975 319.114 256.25 302.444C266.403 319.365 280.566 333.528 297.487 343.806C280.817 353.081 261.64 358.346 241.335 358.596ZM257.629 299.937C267.907 282.515 282.572 267.85 299.994 257.573C317.416 267.85 332.081 282.515 342.358 299.937C332.081 317.36 317.416 332.024 299.994 342.302C282.572 332.024 267.907 317.485 257.629 299.937ZM257.629 240.025C272.795 237.769 287.209 232.755 299.994 225.486C312.778 232.881 327.192 237.894 342.358 240.15C327.192 242.407 312.778 247.42 299.994 254.69C287.209 247.295 272.92 242.281 257.629 240.025ZM302.626 256.194C319.296 246.919 338.473 241.654 358.778 241.404C358.527 261.709 353.138 280.886 343.863 297.556C333.71 280.51 319.421 266.346 302.626 256.194ZM302.626 223.856C319.547 213.704 333.71 199.54 343.988 182.62C353.263 199.29 358.527 218.467 358.778 238.772C338.348 238.521 319.296 233.131 302.626 223.856ZM302.751 136.244C319.421 126.969 338.598 121.705 358.903 121.454C358.653 141.759 353.263 160.936 343.988 177.606C333.71 160.685 319.547 146.522 302.751 136.244ZM342.484 180.113C332.206 197.535 317.541 212.2 300.119 222.478C282.697 212.2 268.032 197.535 257.754 180.113C268.032 162.691 282.697 148.026 300.119 137.748C317.667 148.026 332.206 162.565 342.484 180.113ZM297.487 223.856C280.817 233.131 261.64 238.396 241.335 238.646C241.586 218.341 246.975 199.164 256.25 182.494C266.528 199.415 280.691 213.704 297.487 223.856ZM297.487 256.194C280.566 266.346 266.403 280.51 256.125 297.431C246.85 280.76 241.586 261.583 241.335 241.278C261.765 241.529 280.817 246.919 297.487 256.194ZM297.362 376.018C280.441 386.171 266.277 400.46 256 417.255C246.724 400.585 241.46 381.408 241.21 361.103C261.64 361.354 280.817 366.743 297.362 376.018ZM297.362 463.756C280.691 473.031 261.514 478.295 241.21 478.546C241.46 458.241 246.85 439.064 256.125 422.394C266.277 439.315 280.441 453.478 297.362 463.756ZM257.629 419.887C267.907 402.465 282.572 387.8 299.994 377.522C317.416 387.8 332.081 402.465 342.358 419.887C332.081 437.309 317.416 451.974 299.994 462.252C282.446 451.974 267.781 437.309 257.629 419.887ZM302.501 376.018C319.171 366.743 338.348 361.479 358.653 361.228C358.402 381.533 353.012 400.71 343.737 417.38C333.585 400.46 319.421 386.296 302.501 376.018ZM302.501 343.806C319.421 333.654 333.585 319.49 343.863 302.569C353.138 319.24 358.402 338.417 358.653 358.722C338.348 358.471 319.171 353.081 302.501 343.806ZM345.367 300.063C352.762 287.278 357.775 272.864 360.031 257.698C362.287 272.864 367.301 287.278 374.571 300.063C367.176 312.847 362.162 327.261 359.906 342.427C357.775 327.136 352.636 312.847 345.367 300.063ZM419.944 345.436C432.728 352.831 447.142 357.844 462.308 360.1C447.142 362.356 432.728 367.37 419.944 374.64C407.159 367.245 392.745 362.231 377.579 359.975C392.745 357.719 407.034 352.705 419.944 345.436ZM361.285 358.722C361.535 338.417 366.925 319.24 376.2 302.569C386.353 319.49 400.516 333.654 417.437 343.931C400.641 353.081 381.59 358.471 361.285 358.722ZM377.579 300.063C387.857 282.64 402.521 267.976 419.944 257.698C437.366 267.976 452.03 282.64 462.308 300.063C452.03 317.485 437.366 332.15 419.944 342.427C402.396 332.15 387.857 317.485 377.579 300.063ZM377.579 240.025C392.745 237.769 407.159 232.755 419.944 225.486C432.728 232.881 447.142 237.894 462.308 240.15C447.142 242.407 432.728 247.42 419.944 254.69C407.159 247.42 392.87 242.281 377.579 240.025ZM422.576 256.194C439.246 246.919 458.423 241.654 478.728 241.404C478.477 261.709 473.088 280.886 463.812 297.556C453.535 280.635 439.371 266.472 422.576 256.194ZM422.576 223.982C439.497 213.829 453.66 199.666 463.938 182.745C473.213 199.415 478.477 218.592 478.728 238.897C458.297 238.646 439.246 233.257 422.576 223.982ZM422.576 136.369C439.246 127.094 458.423 121.83 478.728 121.579C478.477 141.884 473.088 161.061 463.812 177.731C453.66 160.811 439.497 146.522 422.576 136.369ZM462.434 180.238C452.156 197.66 437.491 212.325 420.069 222.603C402.647 212.325 387.982 197.66 377.704 180.238C387.982 162.816 402.647 148.151 420.069 137.873C437.491 148.026 452.156 162.691 462.434 180.238ZM417.437 223.982C400.767 233.257 381.715 238.521 361.285 238.772C361.535 218.467 366.925 199.29 376.2 182.62C386.353 199.54 400.516 213.829 417.437 223.982ZM417.437 256.194C400.516 266.346 386.353 280.51 376.075 297.431C366.8 280.76 361.535 261.583 361.285 241.278C381.59 241.654 400.767 246.919 417.437 256.194ZM417.311 376.144C400.391 386.296 386.227 400.585 375.949 417.38C366.674 400.71 361.41 381.533 361.159 361.228C381.59 361.479 400.641 366.869 417.311 376.144ZM417.311 463.756C400.641 473.031 381.464 478.295 361.159 478.546C361.41 458.241 366.8 439.064 376.075 422.394C386.227 439.315 400.391 453.604 417.311 463.756ZM377.454 419.887C387.731 402.465 402.396 387.8 419.818 377.522C437.24 387.8 451.905 402.465 462.183 419.887C451.905 437.309 437.24 451.974 419.818 462.252C402.396 452.099 387.731 437.435 377.454 419.887ZM422.45 376.144C439.121 366.869 458.297 361.604 478.602 361.354C478.352 381.659 472.962 400.836 463.687 417.38C453.535 400.585 439.246 386.296 422.45 376.144ZM422.45 343.931C439.371 333.779 453.535 319.616 463.812 302.695C473.088 319.365 478.352 338.542 478.602 358.847C458.172 358.471 439.121 353.207 422.45 343.931ZM465.316 300.063C472.712 287.278 477.725 272.864 479.981 257.698C482.237 272.864 487.251 287.278 494.521 300.063C487.126 312.847 482.112 327.261 479.856 342.427C477.6 327.261 472.586 312.973 465.316 300.063ZM481.235 241.404C501.54 241.654 520.717 247.044 537.387 256.319C520.466 266.472 506.302 280.76 496.025 297.556C486.75 280.886 481.36 261.834 481.235 241.404ZM537.261 343.931C520.591 353.207 501.414 358.471 481.109 358.722C481.36 338.417 486.75 319.24 496.025 302.569C506.177 319.49 520.341 333.779 537.261 343.931ZM537.261 376.269C520.341 386.422 506.177 400.71 495.899 417.506C486.624 400.836 481.36 381.659 481.109 361.354C501.414 361.604 520.591 366.994 537.261 376.269ZM537.136 463.881C520.466 473.156 501.289 478.421 480.984 478.671C481.235 458.366 486.624 439.189 495.899 422.645C506.052 439.44 520.341 453.604 537.136 463.881ZM497.403 420.013C507.681 402.59 522.346 387.926 539.768 377.648C557.19 387.926 571.855 402.59 582.133 420.013C571.855 437.435 557.19 452.099 539.768 462.377C522.221 452.099 507.681 437.56 497.403 420.013ZM497.403 360.1C512.569 357.844 526.984 352.831 539.768 345.561C552.553 352.956 566.967 357.969 582.133 360.226C566.967 362.482 552.553 367.495 539.768 374.765C526.984 367.37 512.569 362.356 497.403 360.1ZM497.403 300.063C507.681 282.64 522.346 267.976 539.768 257.698C557.19 267.976 571.855 282.64 582.133 300.063C571.855 317.485 557.19 332.15 539.768 342.427C522.346 332.275 507.681 317.61 497.403 300.063ZM497.529 240.15C512.695 237.894 527.109 232.881 539.893 225.611C552.678 233.006 567.092 238.02 582.258 240.276C567.092 242.532 552.678 247.545 539.893 254.815C526.984 247.42 512.695 242.407 497.529 240.15ZM481.235 238.897C481.485 218.592 486.875 199.415 496.15 182.745C506.302 199.666 520.466 213.829 537.387 224.107C520.717 233.382 501.54 238.646 481.235 238.897ZM497.529 180.238C507.807 162.816 522.471 148.151 539.893 137.873C557.316 148.151 571.98 162.816 582.258 180.238C571.98 197.66 557.316 212.325 539.893 222.603C522.471 212.325 507.807 197.66 497.529 180.238ZM497.529 120.326C512.695 118.07 527.109 113.056 539.893 105.787C552.678 113.182 567.092 118.195 582.258 120.451C567.092 122.707 552.678 127.721 539.893 134.991C527.109 127.596 512.82 122.457 497.529 120.326ZM481.36 118.947C481.611 98.6422 487 79.4652 496.275 62.7951C506.428 79.7159 520.716 93.8793 537.512 104.157C520.716 113.432 501.665 118.822 481.36 118.947ZM537.387 136.369C520.466 146.522 506.302 160.685 496.025 177.606C486.75 160.936 481.485 141.759 481.235 121.454C501.665 121.83 520.717 127.094 537.387 136.369ZM494.521 180.238C487.126 193.023 482.112 207.437 479.856 222.603C477.6 207.437 472.586 193.023 465.316 180.238C472.712 167.454 477.725 153.039 479.981 137.873C482.237 153.039 487.251 167.328 494.521 180.238ZM422.576 104.157C439.497 94.0046 453.66 79.8412 463.938 62.9204C473.213 79.5906 478.477 98.7675 478.728 119.072C458.423 118.696 439.246 113.307 422.576 104.157ZM462.434 120.201C447.268 122.457 432.854 127.47 420.069 134.74C407.284 127.345 392.87 122.331 377.704 120.075C392.87 117.819 407.284 112.806 420.069 105.536C432.979 112.931 447.268 118.07 462.434 120.201ZM361.41 118.822C361.661 98.5168 367.05 79.3399 376.325 62.6697C386.478 79.5906 400.641 93.7539 417.562 104.032C400.892 113.307 381.715 118.696 361.41 118.822ZM417.562 136.369C400.641 146.522 386.478 160.811 376.2 177.606C366.925 160.936 361.661 141.759 361.41 121.454C381.715 121.705 400.892 127.094 417.562 136.369ZM374.696 180.113C367.301 192.897 362.287 207.311 360.031 222.478C357.775 207.311 352.762 192.897 345.492 180.113C352.887 167.328 357.901 152.914 360.157 137.748C362.287 152.914 367.301 167.328 374.696 180.113ZM302.751 104.032C319.672 93.8793 333.835 79.7159 344.113 62.7951C353.388 79.4652 358.653 98.6422 358.903 118.947C338.473 118.696 319.421 113.307 302.751 104.032ZM342.484 120.201C327.318 122.457 312.904 127.47 300.119 134.74C287.334 127.345 272.92 122.331 257.754 120.075C273.046 117.819 287.334 112.806 300.119 105.536C313.029 112.806 327.318 117.944 342.484 120.201ZM241.46 118.822C241.711 98.5168 247.1 79.3399 256.376 62.6697C266.528 79.5906 280.691 93.7539 297.612 104.032C280.942 113.182 261.891 118.571 241.46 118.822ZM297.612 136.244C280.691 146.396 266.528 160.685 256.25 177.481C246.975 160.811 241.711 141.634 241.46 121.329C261.891 121.579 280.942 126.969 297.612 136.244ZM254.746 179.987C247.351 192.772 242.338 207.186 240.081 222.352C237.825 207.186 232.812 192.772 225.542 179.987C232.937 167.203 237.951 152.789 240.207 137.623C242.463 152.914 247.476 167.203 254.746 179.987ZM182.801 103.906C199.722 93.7539 213.886 79.4652 224.163 62.6697C233.438 79.3399 238.703 98.5168 238.953 118.822C218.648 118.571 199.471 113.182 182.801 103.906ZM222.659 120.075C207.493 122.331 193.079 127.345 180.295 134.615C167.51 127.22 153.096 122.206 137.93 119.95C153.096 117.694 167.51 112.68 180.295 105.41C193.079 112.806 207.368 117.819 222.659 120.075ZM121.636 118.696C121.886 98.3915 127.276 79.2145 136.551 62.5444C146.704 79.4652 160.867 93.6286 177.788 103.906C161.118 113.182 141.941 118.446 121.636 118.696ZM177.662 136.119C160.742 146.271 146.578 160.56 136.3 177.355C127.151 160.685 121.761 141.634 121.636 121.329C141.941 121.579 160.992 126.844 177.662 136.119ZM134.922 179.987C127.527 192.772 122.513 207.186 120.257 222.352C118.001 207.186 112.987 192.772 105.718 179.987C113.113 167.203 118.126 152.789 120.382 137.623C122.513 152.789 127.527 167.078 134.922 179.987ZM62.9768 103.781C79.8976 93.6286 94.061 79.4652 104.339 62.5444C113.614 79.2145 118.878 98.3915 119.129 118.696C98.6986 118.446 79.647 113.056 62.9768 103.781ZM102.709 119.95C87.5433 122.206 73.1293 127.22 60.3447 134.489C47.5601 127.094 33.146 122.081 17.9799 119.825C33.146 117.568 47.5601 112.555 60.3447 105.285C73.2546 112.68 87.5433 117.694 102.709 119.95ZM102.709 179.862C92.4316 197.284 77.7669 211.949 60.3447 222.227C42.9225 211.949 28.2578 197.284 17.9799 179.862C28.2578 162.44 42.9225 147.775 60.3447 137.497C77.7669 147.775 92.4316 162.44 102.709 179.862ZM102.709 239.9C87.5433 242.156 73.1293 247.169 60.3447 254.439C47.5601 247.044 33.146 242.031 17.9799 239.774C33.146 237.518 47.5601 232.505 60.3447 225.235C73.1293 232.63 87.418 237.644 102.709 239.9ZM102.584 299.812C92.3062 317.234 77.6415 331.899 60.2193 342.177C42.7972 331.899 28.1324 317.234 17.8546 299.812C28.1324 282.39 42.7972 267.725 60.2193 257.447C77.7669 267.725 92.3062 282.39 102.584 299.812ZM102.584 359.724C87.418 361.98 73.004 366.994 60.2193 374.264C47.4347 366.869 33.0207 361.855 17.8546 359.599C33.0207 357.343 47.4347 352.329 60.2193 345.06C73.004 352.455 87.2927 357.593 102.584 359.724ZM118.878 361.103C118.628 381.408 113.238 400.585 103.963 417.255C93.8103 400.334 79.5216 386.171 62.7261 375.893C79.3963 366.618 98.5732 361.228 118.878 361.103ZM102.459 419.762C92.1809 437.184 77.5162 451.849 60.094 462.127C42.6718 451.849 28.0071 437.184 17.7293 419.762C28.0071 402.214 42.6718 387.55 60.2193 377.272C77.6415 387.55 92.3062 402.214 102.459 419.762ZM102.459 479.674C87.2927 481.93 72.8786 486.944 60.094 494.213C47.3094 486.818 32.8953 481.805 17.7293 479.549C32.8953 477.293 47.3094 472.279 60.094 465.009C73.004 472.404 87.2927 477.418 102.459 479.674ZM118.753 480.928C118.502 501.233 113.113 520.409 103.837 537.08C93.685 520.159 79.5216 505.995 62.6008 495.718C79.2709 486.568 98.4479 481.178 118.753 480.928ZM62.6008 463.505C79.5216 453.353 93.685 439.064 103.963 422.269C113.238 438.939 118.502 458.116 118.753 478.421C98.4479 478.17 79.2709 472.78 62.6008 463.505ZM105.467 419.762C112.862 406.977 117.875 392.563 120.132 377.397C122.388 392.563 127.401 406.977 134.671 419.762C127.276 432.546 122.262 446.961 120.006 462.127C117.875 446.835 112.862 432.546 105.467 419.762ZM177.412 495.843C160.491 505.995 146.328 520.159 136.05 537.08C126.775 520.409 121.51 501.233 121.26 480.928C141.69 481.178 160.742 486.568 177.412 495.843ZM137.554 479.674C152.72 477.418 167.134 472.404 179.919 465.135C192.703 472.53 207.117 477.543 222.283 479.799C207.117 482.056 192.703 487.069 179.919 494.339C167.134 486.944 152.845 481.93 137.554 479.674ZM238.703 481.053C238.452 501.358 233.062 520.535 223.787 537.205C213.635 520.284 199.346 506.121 182.551 495.843C199.221 486.568 218.272 481.303 238.703 481.053ZM182.551 463.631C199.471 453.478 213.635 439.315 223.913 422.394C233.188 439.064 238.452 458.241 238.703 478.546C218.272 478.295 199.221 472.906 182.551 463.631ZM225.417 419.762C232.812 406.977 237.825 392.563 240.081 377.397C242.338 392.563 247.351 406.977 254.621 419.762C247.226 432.546 242.212 446.961 239.956 462.127C237.7 446.961 232.686 432.672 225.417 419.762ZM297.362 495.968C280.441 506.121 266.277 520.284 256 537.205C246.724 520.535 241.46 501.358 241.21 481.053C261.514 481.303 280.691 486.693 297.362 495.968ZM257.504 479.799C272.67 477.543 287.084 472.53 299.868 465.26C312.653 472.655 327.067 477.669 342.233 479.925C327.067 482.181 312.653 487.194 299.868 494.464C287.084 487.069 272.67 482.056 257.504 479.799ZM358.527 481.178C358.277 501.483 352.887 520.66 343.612 537.33C333.459 520.409 319.296 506.246 302.375 495.968C319.171 486.693 338.222 481.304 358.527 481.178ZM302.501 463.756C319.421 453.604 333.585 439.315 343.863 422.519C353.138 439.189 358.402 458.366 358.653 478.671C338.222 478.295 319.171 473.031 302.501 463.756ZM345.241 419.887C352.636 407.103 357.65 392.689 359.906 377.522C362.162 392.689 367.176 407.103 374.445 419.887C367.05 432.672 362.037 447.086 359.781 462.252C357.65 447.086 352.636 432.797 345.241 419.887ZM417.186 495.968C400.265 506.121 386.102 520.284 375.824 537.205C366.549 520.535 361.285 501.358 361.034 481.053C381.464 481.429 400.516 486.818 417.186 495.968ZM377.454 479.925C392.62 477.669 407.034 472.655 419.818 465.385C432.603 472.78 447.017 477.794 462.183 480.05C447.017 482.306 432.603 487.32 419.818 494.59C406.908 487.194 392.62 482.056 377.454 479.925ZM478.477 481.304C478.226 501.609 472.837 520.785 463.562 537.456C453.409 520.535 439.121 506.371 422.325 496.094C438.995 486.818 458.172 481.429 478.477 481.304ZM422.325 463.756C439.246 453.604 453.409 439.44 463.687 422.519C472.962 439.189 478.226 458.366 478.477 478.671C458.172 478.421 438.995 473.031 422.325 463.756ZM465.191 420.013C472.586 407.103 477.6 392.814 479.856 377.648C482.112 392.814 487.126 407.228 494.395 420.013C487 432.797 481.987 447.211 479.731 462.377C477.6 447.211 472.461 432.797 465.191 420.013ZM537.136 496.094C520.215 506.246 506.052 520.409 495.774 537.33C486.499 520.66 481.235 501.483 480.984 481.178C501.414 481.429 520.466 486.818 537.136 496.094ZM497.278 479.925C512.444 477.669 526.858 472.655 539.643 465.385C552.427 472.78 566.841 477.794 582.008 480.05C566.841 482.306 552.427 487.32 539.643 494.59C526.858 487.32 512.569 482.181 497.278 479.925ZM598.302 478.797C577.997 478.546 558.82 473.156 542.15 463.881C559.07 453.729 573.234 439.44 583.512 422.645C592.787 439.315 598.176 458.366 598.302 478.797ZM583.512 417.506C573.359 400.585 559.07 386.422 542.275 376.144C558.945 366.869 578.122 361.604 598.427 361.354C598.176 381.784 592.787 400.836 583.512 417.506ZM598.427 358.847C578.122 358.596 558.945 353.207 542.275 343.931C559.196 333.779 573.359 319.616 583.637 302.695C592.912 319.365 598.176 338.542 598.427 358.847ZM583.637 297.681C573.484 280.76 559.321 266.597 542.4 256.319C559.07 247.044 578.122 241.78 598.552 241.529C598.302 261.834 592.912 281.011 583.637 297.681ZM598.552 238.897C578.247 238.646 559.07 233.257 542.4 223.982C559.321 213.829 573.484 199.666 583.762 182.745C593.037 199.54 598.302 218.592 598.552 238.897ZM583.762 177.731C573.61 160.811 559.446 146.647 542.526 136.369C559.196 127.094 578.373 121.83 598.678 121.579C598.427 142.01 593.037 161.061 583.762 177.731ZM598.678 119.072C578.373 118.822 559.196 113.432 542.526 104.157C559.446 94.0046 573.61 79.8412 583.888 62.9204C593.037 79.5906 598.427 98.7675 598.678 119.072ZM598.678 1.75475C598.427 22.0597 593.037 41.2367 583.762 57.9068C573.61 40.986 559.321 26.8226 542.526 16.5448C559.196 7.26969 578.373 2.00543 598.678 1.75475ZM582.384 60.4136C572.106 77.8358 557.441 92.5005 540.019 102.778C522.597 92.5005 507.932 77.8358 497.654 60.4136C507.932 42.9914 522.597 28.3267 540.019 18.0489C557.441 28.3267 572.106 42.8661 582.384 60.4136ZM537.512 16.5448C520.591 26.6973 506.428 40.8607 496.15 57.7815C486.875 41.1113 481.611 21.9344 481.36 1.62941C501.665 1.88009 520.842 7.26969 537.512 16.5448ZM494.646 60.2883C487.251 73.0729 482.237 87.4869 479.981 102.653C477.725 87.4869 472.711 73.0729 465.442 60.2883C472.837 47.5037 477.85 33.0896 480.107 17.9235C482.237 33.215 487.376 47.5037 494.646 60.2883ZM478.853 1.62941C478.602 21.9344 473.213 41.1113 463.938 57.7815C453.785 40.8607 439.622 26.6973 422.701 16.4195C439.371 7.14435 458.423 1.88009 478.853 1.62941ZM462.434 60.2883C452.156 77.7105 437.491 92.3752 420.069 102.653C402.647 92.3752 387.982 77.7105 377.704 60.2883C387.982 42.8661 402.647 28.2014 420.069 17.9235C437.616 28.2014 452.156 42.8661 462.434 60.2883ZM417.562 16.4195C400.641 26.572 386.478 40.8607 376.2 57.6562C366.925 40.986 361.661 21.8091 361.41 1.50407C381.84 1.75475 400.892 7.14435 417.562 16.4195ZM374.821 60.2883C367.426 73.0729 362.413 87.4869 360.157 102.653C357.901 87.4869 352.887 73.0729 345.617 60.2883C353.012 47.5037 358.026 33.0896 360.282 17.9235C362.413 33.0896 367.426 47.3783 374.821 60.2883ZM358.903 1.50407C358.653 21.8091 353.263 40.986 343.988 57.6562C333.835 40.7353 319.547 26.572 302.751 16.2941C319.421 7.14435 338.598 1.75475 358.903 1.50407ZM342.609 60.1629C332.331 77.5851 317.667 92.2498 300.244 102.528C282.822 92.2498 268.158 77.5851 257.88 60.1629C268.158 42.7408 282.822 28.076 300.244 17.7982C317.667 28.076 332.331 42.7408 342.609 60.1629ZM297.738 16.2941C280.817 26.4466 266.653 40.61 256.376 57.5308C247.1 40.8607 241.836 21.6837 241.586 1.37873C261.891 1.75475 281.067 7.01901 297.738 16.2941ZM254.872 60.1629C247.477 72.9476 242.463 87.3616 240.207 102.528C237.951 87.3616 232.937 72.9476 225.667 60.1629C233.062 47.3783 238.076 32.9643 240.332 17.7982C242.463 32.9643 247.602 47.253 254.872 60.1629ZM238.953 1.50407C238.703 21.8091 233.313 40.986 224.038 57.6562C213.886 40.7353 199.597 26.572 182.801 16.2941C199.597 7.01901 218.648 1.62941 238.953 1.50407ZM222.659 60.1629C212.381 77.5851 197.717 92.2498 180.295 102.528C162.872 92.2498 148.208 77.5851 137.93 60.1629C148.208 42.7408 162.872 28.076 180.295 17.7982C197.842 27.9507 212.381 42.6154 222.659 60.1629ZM177.788 16.2941C160.867 26.4466 146.704 40.61 136.426 57.5308C127.151 40.8607 121.886 21.6837 121.636 1.37873C142.066 1.62941 161.118 7.01901 177.788 16.2941ZM135.047 60.0376C127.652 72.8222 122.638 87.2363 120.382 102.402C118.126 87.2363 113.113 72.8222 105.843 60.0376C113.238 47.253 118.252 32.8389 120.508 17.6729C122.638 32.8389 127.652 47.253 135.047 60.0376ZM119.129 1.37873C118.878 21.6837 113.489 40.8607 104.213 57.5308C94.061 40.61 79.7723 26.4466 62.9768 16.1688C79.647 6.89367 98.8239 1.62941 119.129 1.37873ZM102.835 60.0376C92.5569 77.4598 77.8922 92.1245 60.47 102.402C43.0478 92.1245 28.3831 77.4598 18.1053 60.0376C28.3831 42.6154 43.0478 27.9507 60.47 17.6729C77.8922 27.9507 92.5569 42.4901 102.835 60.0376ZM1.81115 1.25339C22.1161 1.50407 41.2931 6.89367 57.9632 16.1688C41.0424 26.3213 26.879 40.4846 16.6012 57.4055C7.32608 40.7353 2.06183 21.5584 1.81115 1.25339ZM16.6012 62.5444C26.7537 79.4652 40.9171 93.6286 57.8379 103.906C41.1677 113.056 21.9908 118.446 1.68581 118.571C1.93649 98.2661 7.32608 79.2145 16.6012 62.5444ZM1.68581 121.203C21.9908 121.454 41.1677 126.844 57.8379 136.119C40.9171 146.271 26.7537 160.435 16.4759 177.355C7.20075 160.685 1.93649 141.508 1.68581 121.203ZM16.4759 182.369C26.6284 199.29 40.9171 213.453 57.7125 223.731C41.0424 233.006 21.8655 238.27 1.56047 238.521C1.81115 218.216 7.20075 199.039 16.4759 182.369ZM1.56047 241.153C21.8655 241.404 41.0424 246.793 57.7125 256.069C40.7917 266.221 26.6284 280.51 16.3505 297.305C7.20075 280.51 1.81115 261.458 1.56047 241.153ZM16.3505 302.319C26.503 319.24 40.6664 333.403 57.5872 343.681C40.9171 352.956 21.7401 358.22 1.43513 358.471C1.81115 338.041 7.07541 318.989 16.3505 302.319ZM1.56047 360.978C21.8655 361.228 41.0424 366.618 57.7125 375.893C40.7917 386.046 26.6284 400.334 16.3505 417.13C7.07541 400.46 1.68581 381.283 1.56047 360.978ZM16.3505 422.269C26.503 439.189 40.7917 453.353 57.5872 463.631C40.9171 472.906 21.7401 478.17 1.43513 478.421C1.68581 457.99 7.07541 438.813 16.3505 422.269ZM1.43513 480.928C21.7401 481.178 40.9171 486.568 57.5872 495.843C40.6664 505.995 26.503 520.159 16.2252 537.08C6.95007 520.284 1.68581 501.233 1.43513 480.928ZM1.30979 598.245C1.56047 577.94 6.95007 558.763 16.2252 542.093C26.3777 559.014 40.6664 573.177 57.4619 583.455C40.7917 592.605 21.6148 597.995 1.30979 598.245ZM17.7293 539.586C28.0071 522.164 42.6718 507.499 60.094 497.222C77.5162 507.499 92.1809 522.164 102.459 539.586C92.1809 557.009 77.5162 571.673 60.094 581.951C42.5465 571.673 28.0071 557.009 17.7293 539.586ZM62.6008 583.455C79.5216 573.303 93.685 559.139 103.963 542.219C113.238 558.889 118.502 578.066 118.753 598.371C98.3225 597.995 79.2709 592.73 62.6008 583.455ZM105.342 539.586C112.737 526.802 117.75 512.388 120.006 497.222C122.262 512.388 127.276 526.802 134.546 539.586C127.151 552.371 122.137 566.785 119.881 581.951C117.75 566.785 112.737 552.496 105.342 539.586ZM121.26 598.245C121.51 577.94 126.9 558.763 136.175 542.093C146.328 559.014 160.491 573.177 177.412 583.455C160.742 592.73 141.565 598.12 121.26 598.245ZM137.554 539.586C147.832 522.164 162.496 507.499 179.919 497.222C197.341 507.499 212.005 522.164 222.283 539.586C212.005 557.009 197.341 571.673 179.919 581.951C162.496 571.799 147.832 557.134 137.554 539.586ZM182.425 583.455C199.346 573.303 213.509 559.139 223.787 542.219C233.062 558.889 238.327 578.066 238.577 598.371C218.272 598.12 199.095 592.73 182.425 583.455ZM225.291 539.712C232.686 526.927 237.7 512.513 239.956 497.347C242.212 512.513 247.226 526.927 254.495 539.712C247.1 552.496 242.087 566.91 239.831 582.076C237.7 566.91 232.561 552.622 225.291 539.712ZM241.21 598.371C241.46 578.066 246.85 558.889 256.125 542.219C266.277 559.139 280.566 573.303 297.362 583.581C280.566 592.856 261.514 598.12 241.21 598.371ZM257.504 539.712C267.781 522.29 282.446 507.625 299.868 497.347C317.291 507.625 331.955 522.29 342.233 539.712C331.955 557.134 317.291 571.799 299.868 582.076C282.321 571.799 267.781 557.259 257.504 539.712ZM302.375 583.581C319.296 573.428 333.459 559.265 343.737 542.344C353.012 559.014 358.277 578.191 358.527 598.496C338.097 598.245 319.045 592.856 302.375 583.581ZM345.241 539.837C352.636 527.052 357.65 512.638 359.906 497.472C362.162 512.638 367.176 527.052 374.445 539.837C367.05 552.622 362.037 567.036 359.781 582.202C357.525 567.036 352.511 552.622 345.241 539.837ZM361.034 598.496C361.285 578.191 366.674 559.014 375.949 542.344C386.102 559.265 400.265 573.428 417.186 583.706C400.516 592.981 381.339 598.245 361.034 598.496ZM377.328 539.837C387.606 522.415 402.271 507.75 419.693 497.472C437.115 507.75 451.78 522.415 462.058 539.837C451.78 557.259 437.115 571.924 419.693 582.202C402.271 571.924 387.606 557.259 377.328 539.837ZM422.325 583.706C439.246 573.553 453.409 559.39 463.687 542.469C472.962 559.139 478.226 578.316 478.477 598.621C458.047 598.371 438.87 592.981 422.325 583.706ZM465.066 539.837C472.461 527.052 477.474 512.638 479.731 497.472C481.987 512.638 487 527.052 494.27 539.837C486.875 552.622 481.861 567.036 479.605 582.202C477.474 567.036 472.461 552.747 465.066 539.837ZM480.984 598.496C481.235 578.191 486.624 559.014 495.899 542.344C506.052 559.265 520.341 573.428 537.136 583.706C520.341 592.981 501.289 598.371 480.984 598.496ZM497.278 539.962C507.556 522.54 522.221 507.875 539.643 497.598C557.065 507.875 571.73 522.54 582.008 539.962C571.73 557.385 557.065 572.049 539.643 582.327C522.095 572.049 507.556 557.385 497.278 539.962ZM542.15 583.831C559.07 573.679 573.234 559.515 583.512 542.595C592.787 559.265 598.051 578.442 598.302 598.747C577.871 598.371 558.82 593.106 542.15 583.831Z" fill="#f8f8f8"/>
</svg>
