<svg width="13" height="13" viewBox="0 0 13 13" fill="none" xmlns="http://www.w3.org/2000/svg">
<g clip-path="url(#clip0)">
<path d="M6.68748 7.02536C8.62409 7.02536 10.2002 5.44929 10.2002 3.51268C10.2002 1.57607 8.62409 0 6.68748 0C4.75087 0 3.1748 1.57607 3.1748 3.51268C3.1748 5.44929 4.75087 7.02536 6.68748 7.02536ZM6.68748 0.844691C8.15797 0.844691 9.35547 2.04219 9.35547 3.51268C9.35547 4.98316 8.15797 6.18067 6.68748 6.18067C5.217 6.18067 4.0195 4.98316 4.0195 3.51268C4.0195 2.04219 5.217 0.844691 6.68748 0.844691Z" fill="black"/>
<path d="M11.0401 8.97737C10.0821 8.00392 8.80988 7.46826 7.46043 7.46826H5.91527C4.56582 7.46826 3.29621 8.00392 2.33563 8.97737C1.38278 9.94568 0.857422 11.2256 0.857422 12.5776C0.857422 12.812 1.04799 13 1.27977 13H12.0959C12.3303 13 12.5183 12.8094 12.5183 12.5776C12.5183 11.2256 11.9929 9.94568 11.0401 8.97737ZM1.72272 12.1553C1.82315 11.1149 2.29958 10.1517 3.06701 9.43835C3.84732 8.71212 4.8594 8.31295 5.91527 8.31295H7.46043C8.51887 8.31295 9.52838 8.71212 10.3087 9.43835C11.0735 10.1517 11.55 11.1149 11.653 12.1553H1.72272Z" fill="black"/>
</g>
<defs>
<clipPath id="clip0">
<rect width="11.6609" height="13" fill="white" transform="translate(0.857422)"/>
</clipPath>
</defs>
</svg>
