<svg width="16" height="16" viewBox="0 0 16 16" fill="none" xmlns="http://www.w3.org/2000/svg">
<g clip-path="url(#clip0)">
<path d="M15.9886 12.5227C15.9336 11.9835 15.6438 11.4993 15.1927 11.1985L12.3903 9.3315C12.0932 9.13342 11.7484 9.03072 11.3889 9.03072C10.9047 9.03072 10.4499 9.21779 10.1088 9.55892L9.4265 10.2412C9.01202 10.1678 8.05099 9.90005 7.07529 8.92435C6.09959 7.94865 5.83182 6.98762 5.75846 6.57313L6.44072 5.89088C7.04594 5.28565 7.14131 4.32462 6.66814 3.61302L4.8011 0.810637C4.50032 0.352132 4.01614 0.0623567 3.47694 0.00733608C3.41825 0.00366804 3.35589 0 3.29721 0C2.81669 0 2.36186 0.18707 2.02073 0.528198L0.85429 1.6983C0.267403 2.28519 -0.0443804 3.08849 0.00330419 3.9028C0.0913372 5.42137 0.747917 8.47684 4.13719 11.8624C7.52646 15.2517 10.5783 15.9083 12.0968 15.9963C12.1519 16 12.2069 16 12.2619 16C13.0138 16 13.7585 15.6882 14.3013 15.1453L15.4678 13.9789C15.8529 13.5938 16.0437 13.0619 15.9886 12.5227ZM5.44668 4.88583L4.52967 5.80284C4.39762 5.93489 4.32426 6.11463 4.32426 6.3017C4.32426 6.37873 4.3426 8.16873 6.08859 9.91472C7.83091 11.657 9.62458 11.679 9.70161 11.679C9.88868 11.679 10.0684 11.6057 10.2005 11.4736L11.1175 10.5566C11.1908 10.4833 11.2899 10.4429 11.3962 10.4429C11.4733 10.4429 11.5503 10.4649 11.6127 10.5089L14.415 12.376C14.5141 12.442 14.5764 12.5484 14.5874 12.6657C14.5984 12.7831 14.5581 12.9005 14.4737 12.9849L13.3073 14.1513C13.0285 14.4301 12.647 14.5915 12.2656 14.5915C12.2399 14.5915 12.2105 14.5915 12.1849 14.5878C10.868 14.5108 8.19771 13.9239 5.13856 10.8647C2.07942 7.80559 1.49253 5.13526 1.4155 3.81843C1.38982 3.40761 1.55122 3.00046 1.85567 2.69601L3.0221 1.52957C3.09546 1.45621 3.1945 1.41586 3.30087 1.41586C3.43292 1.41586 3.55764 1.48189 3.631 1.59193L5.49803 4.39431C5.59707 4.5447 5.57873 4.75378 5.44668 4.88583Z" fill="#B48D49"/>
</g>
<defs>
<clipPath id="clip0">
<rect width="16" height="16" fill="white"/>
</clipPath>
</defs>
</svg>
