<svg width="17" height="19" viewBox="0 0 17 19" fill="none" xmlns="http://www.w3.org/2000/svg">
<g clip-path="url(#clip0)">
<path d="M11 18.7202C10.634 18.5982 10.268 18.4762 9.90194 18.3542C8.92586 17.9881 8.0718 17.3781 7.33974 16.768C5.5096 15.3039 4.16749 13.4738 2.82538 11.5216C1.97132 10.1795 1.23926 8.71541 0.751222 7.2513C0.385193 6.27522 0.141174 5.29915 0.263184 4.20106C0.385193 3.22498 0.751222 2.37092 1.60529 1.76087C2.33735 1.27283 3.0694 0.662782 3.80146 0.174744L3.92347 0.0527344C5.26558 1.63886 6.48567 3.34699 7.82778 5.05513C6.8517 5.78718 5.87562 6.51924 4.89955 7.2513C6.11964 9.44747 7.58376 11.6436 9.53591 13.3518C10.512 12.6197 11.4881 11.8877 12.4641 11.1556C13.8062 12.8637 15.0263 14.5719 16.2464 16.28C16.2464 16.28 16.1244 16.28 16.1244 16.402C15.3924 17.0121 14.6603 17.5001 13.8062 18.1101C13.3182 18.4762 12.8302 18.5982 12.3421 18.7202C12.0981 18.7202 11.9761 18.7202 11.7321 18.7202C11.3661 18.8422 11.244 18.8422 11 18.7202Z" fill="#B48D49"/>
</g>
<defs>
<clipPath id="clip0">
<rect width="15.9833" height="18.7895" fill="white" transform="translate(0.263184 0.0527344)"/>
</clipPath>
</defs>
</svg>
