<svg width="18" height="18" viewBox="0 0 18 18" fill="none" xmlns="http://www.w3.org/2000/svg">
<path d="M17.9879 14.088C17.926 13.4814 17.6 12.9367 17.0924 12.5983L13.9397 10.4979C13.6055 10.2751 13.2176 10.1596 12.8132 10.1596C12.2685 10.1596 11.7568 10.37 11.373 10.7538L10.6055 11.5213C10.1392 11.4388 9.05803 11.1376 7.96037 10.0399C6.86271 8.94223 6.56147 7.86107 6.47894 7.39477L7.24648 6.62724C7.92736 5.94635 8.03465 4.8652 7.50232 4.06465L5.40191 0.911967C5.06353 0.396149 4.51883 0.0701513 3.91223 0.00825309C3.8462 0.00412655 3.77605 0 3.71003 0C3.16945 0 2.65776 0.210454 2.27399 0.594223L0.961747 1.91059C0.3015 2.57084 -0.0492565 3.47455 0.0043886 4.39065C0.103426 6.09904 0.842078 9.53645 4.65501 13.3453C8.46794 17.1582 11.9012 17.8968 13.6096 17.9959C13.6715 18 13.7334 18 13.7953 18C14.6413 18 15.4789 17.6492 16.0897 17.0385L17.4019 15.7263C17.8352 15.293 18.0498 14.6946 17.9879 14.088ZM6.12818 5.49656L5.09655 6.5282C4.94799 6.67675 4.86546 6.87895 4.86546 7.08941C4.86546 7.17607 4.88609 9.18982 6.85033 11.1541C8.81044 13.1142 10.8283 13.1389 10.915 13.1389C11.1254 13.1389 11.3276 13.0564 11.4762 12.9078L12.5078 11.8762C12.5904 11.7937 12.7018 11.7483 12.8214 11.7483C12.9081 11.7483 12.9948 11.773 13.0649 11.8226L16.2176 13.923C16.329 13.9972 16.3992 14.1169 16.4115 14.249C16.4239 14.381 16.3785 14.5131 16.2836 14.608L14.9714 15.9202C14.6578 16.2338 14.2286 16.4154 13.7994 16.4154C13.7705 16.4154 13.7375 16.4154 13.7087 16.4113C12.2272 16.3246 9.22309 15.6644 5.78155 12.2228C2.34001 8.78129 1.67977 5.77717 1.59311 4.29574C1.56422 3.83356 1.74579 3.37552 2.08829 3.03301L3.40054 1.72077C3.48307 1.63824 3.59448 1.59285 3.71415 1.59285C3.86271 1.59285 4.00301 1.66713 4.08554 1.79092L6.18596 4.9436C6.29737 5.11279 6.27674 5.34801 6.12818 5.49656Z" fill="white"/>
</svg>
