<svg width="130" height="130" viewBox="0 0 130 130" fill="none" xmlns="http://www.w3.org/2000/svg">
<path d="M65.2253 128.592C100.346 128.592 128.817 100.121 128.817 65.0001C128.817 29.8792 100.346 1.4082 65.2253 1.4082C30.1045 1.4082 1.63348 29.8792 1.63348 65.0001C1.63348 100.121 30.1045 128.592 65.2253 128.592Z" fill="#857B5D"/>
<path d="M65 0C29.1768 0 0 29.1768 0 65C0 100.823 29.1768 130 65 130C100.823 130 130 100.823 130 65C130 29.1768 100.88 0 65 0ZM65 128.029C30.247 128.029 1.9714 99.753 1.9714 65C1.9714 30.247 30.247 1.9714 65 1.9714C99.753 1.9714 128.029 30.247 128.029 65C128.029 99.753 99.753 128.029 65 128.029Z" fill="#857B5D"/>
<g clip-path="url(#clip0)">
<path fill-rule="evenodd" clip-rule="evenodd" d="M101.304 46.7837V47.137C100.392 47.3333 99.7181 47.8044 99.282 48.5896C98.846 49.3748 98.6081 50.5133 98.6081 52.0445V65.3534H102.85C104.475 65.3534 105.506 65.0001 106.021 64.3327C106.497 63.6653 106.775 62.8408 106.775 61.8201H107.211C107.25 62.3697 107.29 62.9193 107.29 63.469C107.29 64.3327 107.29 65.0393 107.33 65.589C107.369 66.2171 107.369 66.649 107.369 66.8845C106.18 66.7275 104.951 66.649 103.722 66.649H96.9431V47.0192H97.4188C97.8152 47.0192 99.0838 46.9407 101.304 46.7837Z" fill="white"/>
<path fill-rule="evenodd" clip-rule="evenodd" d="M54.9603 67.3556C57.1011 66.963 59.4004 65.4711 61.8583 62.9193C63.9991 60.6422 65.228 58.4437 65.4659 56.2844C66.2588 58.9933 65.4262 61.663 63.008 64.2148C60.5897 66.7667 57.9336 67.8267 54.9603 67.3556ZM54.9207 46.4696C52.5817 47.0584 50.322 48.4718 48.1416 50.7881C46.199 52.8688 44.9304 55.0674 44.4151 57.4622C43.7411 54.6748 44.6133 52.0051 46.9919 49.4925C49.4895 46.8622 52.106 45.8807 54.9207 46.4696ZM59.44 61.1133C63.3648 56.9911 63.8009 53.497 60.7483 50.7096C57.775 47.9614 54.2864 48.7073 50.2823 52.9474C46.5162 56.9126 46.1594 60.2889 49.1723 63.0763C52.1456 65.8637 55.5946 65.1963 59.44 61.1133ZM60.7086 62.2126C59.2022 63.8222 57.6957 64.9215 56.1496 65.5497C54.6432 66.1778 53.216 66.3741 51.8681 66.06C50.5202 65.7852 49.2516 65.1178 48.1416 64.097C46.318 62.4089 45.5251 60.4852 45.763 58.2474C46.0008 56.0489 47.1505 53.8111 49.2913 51.5733C51.5113 49.2177 53.6917 47.9222 55.9118 47.6081C58.0525 47.3333 60.0347 48.0007 61.779 49.6103C63.563 51.2592 64.3955 53.1829 64.2766 55.3815C64.118 57.58 62.9287 59.857 60.7086 62.2126Z" fill="white"/>
<path fill-rule="evenodd" clip-rule="evenodd" d="M39.3011 56.0488C40.1336 54.7533 40.53 53.3792 40.53 51.8481C40.53 50.4347 40.0543 49.0606 39.1028 47.6473C41.2436 48.5503 42.314 49.9636 42.314 51.9266C42.3536 53.8503 41.3229 55.2636 39.3011 56.0488ZM27.8837 46.9406V66.5311H27.0908C26.7736 66.5311 26.2979 66.5704 25.624 66.6489C25.0293 66.6881 24.3554 66.7274 23.5625 66.7274V66.3741C24.3554 66.2955 25.0293 65.903 25.5447 65.1963C26.0997 64.5289 26.3376 63.194 26.3376 61.2311V51.6518C26.3376 48.9821 25.4258 47.4117 23.5625 47.0584V46.7051C24.3554 46.7836 25.8222 46.8621 27.8837 46.9406ZM30.8173 52.0444V56.0881C31.5705 56.2844 32.3634 56.3629 33.2356 56.3629C36.0503 56.3629 37.4378 54.9103 37.4378 52.0051C37.4378 49.2962 36.0503 47.9221 33.2356 47.9221C32.3238 47.9221 31.6498 48.1184 31.1344 48.4718C30.9362 48.9821 30.8173 50.1599 30.8173 52.0444ZM29.7866 66.5311H29.2316V46.9406C29.9848 46.9406 30.7777 46.9014 31.6498 46.8621C32.6409 46.7836 33.4338 46.7443 34.0284 46.7443C35.7331 46.7443 37.0017 47.2547 37.8342 48.3147C38.6668 49.3355 39.1028 50.5918 39.1028 52.1229C39.1028 54.3999 38.2307 55.9703 36.526 56.7555C36.2881 56.8733 36.0899 56.9518 35.8124 57.0303C35.8124 57.0303 34.1474 57.6192 32.1255 57.4229C31.6102 57.3836 31.0552 57.2659 30.7777 57.1874V61.5844C30.7777 64.5289 31.6895 66.1385 33.4734 66.4133V66.7274C32.0066 66.6096 30.7777 66.5311 29.7866 66.5311Z" fill="white"/>
<path fill-rule="evenodd" clip-rule="evenodd" d="M78.8258 67.3556C80.9666 66.963 83.2659 65.4711 85.7239 62.9193C87.8646 60.6422 89.0936 58.4437 89.3314 56.2844C90.1243 58.9933 89.2918 61.663 86.8735 64.2148C84.4553 66.7667 81.7595 67.8267 78.8258 67.3556ZM78.7862 46.4696C76.4472 47.0584 74.1875 48.4718 72.0071 50.7881C70.0646 52.8688 68.796 55.0674 68.2806 57.4622C67.6067 54.6748 68.4788 52.0051 70.8575 49.4925C73.3154 46.8622 75.9715 45.8807 78.7862 46.4696ZM83.3056 61.1133C87.2303 56.9911 87.6664 53.497 84.6138 50.7096C81.6405 47.9614 78.1519 48.7073 74.1479 52.9474C70.3817 56.9518 69.9853 60.3281 72.9982 63.1156C76.0111 65.8637 79.4205 65.1963 83.3056 61.1133ZM84.5345 62.2126C83.0281 63.8222 81.5216 64.9215 79.9755 65.5497C78.4691 66.1778 77.0419 66.3741 75.694 66.06C74.3461 65.7852 73.0775 65.1178 71.9675 64.097C70.1439 62.4089 69.351 60.4852 69.5889 58.2474C69.8267 56.0489 70.9764 53.8111 73.1171 51.5733C75.3372 49.2177 77.5176 47.9222 79.7376 47.6081C81.9181 47.3333 83.9002 47.9614 85.6446 49.6103C87.4285 51.2592 88.261 53.1829 88.1421 55.3815C87.9835 57.58 86.7942 59.857 84.5345 62.2126Z" fill="white"/>
<path fill-rule="evenodd" clip-rule="evenodd" d="M95.5555 47.0192V66.6097L91.5515 66.8453V66.4919C92.1461 66.3349 92.6615 66.0208 93.0976 65.5105C93.494 65.0393 93.7715 64.4897 93.8904 63.8616C94.0094 63.2334 94.0887 62.1734 94.0887 60.6423V52.0445C94.0887 50.2385 93.8508 48.9822 93.3751 48.3148C92.8993 47.6474 92.3047 47.2548 91.5515 47.0978V46.7837C92.3047 46.9015 93.6526 46.9407 95.5555 47.0192Z" fill="white"/>
<path d="M48.6966 73.4016H52.8988C53.8899 73.4016 54.6828 73.6372 55.2775 74.1083C55.8721 74.5794 56.1893 75.2468 56.1893 76.032C56.1893 76.5816 56.0307 77.0135 55.7532 77.4061C55.4757 77.7987 55.0792 78.1127 54.6035 78.309C55.2378 78.5053 55.7135 78.8194 56.0703 79.2513C56.4271 79.6831 56.6253 80.1935 56.6253 80.7824C56.6253 81.6854 56.3082 82.3528 55.6342 82.9024C54.9999 83.4128 54.1278 83.6876 53.0574 83.6876H48.6966V73.4016ZM52.8592 74.3831H49.8463V77.8772H52.8592C53.5331 77.8772 54.0881 77.7201 54.4846 77.4061C54.881 77.092 55.0792 76.6601 55.0792 76.1498C55.0792 75.6001 54.881 75.2075 54.4846 74.8935C54.0881 74.5401 53.5331 74.3831 52.8592 74.3831ZM53.0178 82.7061C53.771 82.7061 54.3656 82.5098 54.8017 82.1565C55.2378 81.8031 55.4757 81.332 55.4757 80.7431C55.4757 80.1542 55.2378 79.6831 54.8017 79.3298C54.3656 78.9765 53.771 78.7802 53.0178 78.7802H49.8463V82.6668H53.0178V82.7061Z" fill="white"/>
<path d="M60.1933 83.6876L64.5145 73.4016H65.902L70.1835 83.7269H68.9149L67.6067 80.4683H62.6909L61.3826 83.7269H60.1933V83.6876ZM63.0873 79.4868H67.2102L65.1884 74.4616L63.0873 79.4868Z" fill="white"/>
<path d="M74.3461 83.6876V73.4016H78.8258C79.8565 73.4016 80.6494 73.6764 81.2837 74.2261C81.918 74.7757 82.2352 75.4824 82.2352 76.3853C82.2352 77.0527 82.0369 77.6416 81.6405 78.152C81.2441 78.6624 80.6891 78.9765 80.0151 79.1727L82.3541 83.7661H81.0855L78.8654 79.3298H75.4957V83.7661H74.3461V83.6876ZM78.7465 74.3831H75.4957V78.309H78.7465C79.4601 78.309 80.0151 78.1127 80.4116 77.7594C80.8476 77.4061 81.0459 76.935 81.0459 76.3461C81.0459 75.7572 80.8476 75.2861 80.4116 74.9327C80.0151 74.5794 79.4601 74.3831 78.7465 74.3831Z" fill="white"/>
</g>
<defs>
<clipPath id="clip0">
<rect width="83.8861" height="37.375" fill="white" transform="translate(23.5625 46.3125)"/>
</clipPath>
</defs>
</svg>
