<svg width="151" height="150" viewBox="0 0 151 150" fill="none" xmlns="http://www.w3.org/2000/svg">
<path d="M149.011 75C149.011 115.869 115.88 149 75.0107 149C34.1417 149 1.01074 115.869 1.01074 75C1.01074 34.1309 34.1417 1 75.0107 1C115.88 1 149.011 34.1309 149.011 75Z" fill="white" stroke="#857B5D" stroke-width="2"/>
<path fill-rule="evenodd" clip-rule="evenodd" d="M117.561 61.1816V61.5984C116.486 61.8299 115.691 62.3855 115.177 63.3116C114.662 64.2376 114.382 65.5804 114.382 67.3862V83.0827H119.385C121.302 83.0827 122.517 82.666 123.125 81.8788C123.686 81.0917 124.013 80.1193 124.013 78.9155H124.528C124.574 79.5637 124.621 80.212 124.621 80.8602C124.621 81.8788 124.621 82.7123 124.668 83.3605C124.715 84.1014 124.715 84.6107 124.715 84.8885C123.312 84.7033 121.863 84.6107 120.413 84.6107H112.418V61.4595H112.979C113.447 61.4595 114.943 61.3669 117.561 61.1816Z" fill="#857B5D"/>
<path fill-rule="evenodd" clip-rule="evenodd" d="M62.9039 85.4441C65.4287 84.9811 68.1405 83.2216 71.0394 80.2119C73.5642 77.5264 75.0136 74.9334 75.2941 72.3868C76.2293 75.5817 75.2474 78.7302 72.3953 81.7399C69.5432 84.7496 66.4106 85.9997 62.9039 85.4441ZM62.8571 60.8112C60.0985 61.5057 57.4335 63.1726 54.8619 65.9045C52.5709 68.3585 51.0747 70.9514 50.4669 73.7759C49.672 70.4884 50.7007 67.3398 53.506 64.3765C56.4516 61.2742 59.5375 60.1167 62.8571 60.8112ZM68.1873 78.082C72.8161 73.2202 73.3304 69.0993 69.7302 65.8119C66.2235 62.5707 62.109 63.4504 57.3867 68.4511C52.9449 73.1276 52.5241 77.1097 56.0776 80.3971C59.5842 83.6846 63.652 82.8975 68.1873 78.082ZM69.6835 79.3785C67.9067 81.2769 66.13 82.5733 64.3066 83.3142C62.5298 84.055 60.8466 84.2865 59.2569 83.9161C57.6673 83.592 56.1711 82.8049 54.8619 81.601C52.7112 79.61 51.776 77.3412 52.0566 74.7019C52.3371 72.109 53.693 69.4697 56.2178 66.8305C58.8361 64.0524 61.4077 62.5244 64.026 62.154C66.5508 61.8298 68.8886 62.617 70.9459 64.5154C73.0499 66.4601 74.0317 68.7289 73.8915 71.3218C73.7044 73.9148 72.3018 76.6003 69.6835 79.3785Z" fill="#857B5D"/>
<path fill-rule="evenodd" clip-rule="evenodd" d="M44.4355 72.1091C45.4174 70.5811 45.885 68.9605 45.885 67.1547C45.885 65.4878 45.3239 63.8673 44.2018 62.2004C46.7266 63.2653 47.989 64.9322 47.989 67.2473C48.0357 69.5162 46.8201 71.183 44.4355 72.1091ZM30.9699 61.3669V84.4719H30.0348C29.6607 84.4719 29.0997 84.5182 28.3048 84.6108C27.6035 84.6571 26.8086 84.7034 25.8735 84.7034V84.2866C26.8086 84.194 27.6035 83.731 28.2113 82.8976C28.8659 82.1104 29.1464 80.5361 29.1464 78.221V66.9232C29.1464 63.7747 28.0711 61.9226 25.8735 61.5058V61.0891C26.8086 61.1817 28.5386 61.2743 30.9699 61.3669ZM34.4298 67.3862V72.1554C35.3182 72.3869 36.2533 72.4795 37.2819 72.4795C40.6016 72.4795 42.238 70.7663 42.238 67.3399C42.238 64.1451 40.6016 62.5245 37.2819 62.5245C36.2065 62.5245 35.4117 62.756 34.8039 63.1727C34.5701 63.7747 34.4298 65.1637 34.4298 67.3862ZM33.2142 84.4719H32.5596V61.3669C33.448 61.3669 34.3831 61.3206 35.4117 61.2743C36.5806 61.1817 37.5157 61.1354 38.217 61.1354C40.2275 61.1354 41.7237 61.7373 42.7056 62.9875C43.6874 64.1914 44.2018 65.6731 44.2018 67.4789C44.2018 70.1644 43.1731 72.0165 41.1626 72.9425C40.8821 73.0814 40.6483 73.1741 40.321 73.2667C40.321 73.2667 38.3573 73.9612 35.9728 73.7297C35.3649 73.6834 34.7104 73.5445 34.3831 73.4519V78.6377C34.3831 82.1104 35.4584 84.0088 37.5624 84.3329V84.7034C35.8325 84.5645 34.3831 84.4719 33.2142 84.4719Z" fill="#857B5D"/>
<path fill-rule="evenodd" clip-rule="evenodd" d="M91.0509 85.4441C93.5757 84.9811 96.2875 83.2216 99.1863 80.2119C101.711 77.5264 103.161 74.9334 103.441 72.3868C104.376 75.5817 103.394 78.7302 100.542 81.7399C97.6902 84.7496 94.5108 85.9997 91.0509 85.4441ZM91.0041 60.8112C88.2455 61.5057 85.5804 63.1726 83.0089 65.9045C80.7179 68.3585 79.2217 70.9514 78.6139 73.7759C77.819 70.4884 78.8476 67.3398 81.653 64.3765C84.5518 61.2742 87.6845 60.1167 91.0041 60.8112ZM96.3342 78.082C100.963 73.2202 101.477 69.0993 97.8772 65.8119C94.3705 62.5707 90.256 63.4504 85.5337 68.4511C81.0919 73.1739 80.6243 77.156 84.1778 80.4434C87.7312 83.6846 91.7522 82.8975 96.3342 78.082ZM97.7837 79.3785C96.007 81.2769 94.2302 82.5733 92.4068 83.3142C90.6301 84.055 88.9469 84.2865 87.3572 83.9161C85.7675 83.592 84.2713 82.8049 82.9621 81.601C80.8114 79.61 79.8763 77.3412 80.1568 74.7019C80.4373 72.109 81.7932 69.4697 84.318 66.8305C86.9364 64.0524 89.5079 62.5244 92.1262 62.154C94.6978 61.8298 97.0356 62.5707 99.0928 64.5154C101.197 66.4601 102.179 68.7289 102.038 71.3218C101.851 73.9148 100.449 76.6003 97.7837 79.3785Z" fill="#857B5D"/>
<path fill-rule="evenodd" clip-rule="evenodd" d="M110.782 61.4595V84.5644L106.06 84.8422V84.4255C106.761 84.2403 107.369 83.8699 107.883 83.2679C108.351 82.7123 108.678 82.0641 108.818 81.3232C108.958 80.5824 109.052 79.3322 109.052 77.5264V67.3862C109.052 65.2563 108.771 63.7746 108.21 62.9874C107.649 62.2003 106.948 61.7373 106.06 61.5521V61.1816C106.948 61.3205 108.538 61.3669 110.782 61.4595Z" fill="#857B5D"/>
<path d="M55.5166 92.5747H60.4727C61.6416 92.5747 62.5767 92.8525 63.278 93.4082C63.9794 93.9638 64.3534 94.7509 64.3534 95.677C64.3534 96.3252 64.1664 96.8345 63.8391 97.2976C63.5118 97.7606 63.0443 98.131 62.4832 98.3625C63.2313 98.594 63.7924 98.9644 64.2132 99.4738C64.634 99.9831 64.8677 100.585 64.8677 101.28C64.8677 102.345 64.4937 103.132 63.6988 103.78C62.9508 104.382 61.9221 104.706 60.6597 104.706H55.5166V92.5747ZM60.4259 93.7323H56.8725V97.8532H60.4259C61.2208 97.8532 61.8754 97.668 62.3429 97.2976C62.8105 96.9271 63.0443 96.4178 63.0443 95.8159C63.0443 95.1676 62.8105 94.7046 62.3429 94.3342C61.8754 93.9175 61.2208 93.7323 60.4259 93.7323ZM60.613 103.548C61.5013 103.548 62.2027 103.317 62.717 102.9C63.2313 102.483 63.5118 101.928 63.5118 101.233C63.5118 100.539 63.2313 99.9831 62.717 99.5664C62.2027 99.1497 61.5013 98.9181 60.613 98.9181H56.8725V103.502H60.613V103.548Z" fill="#857B5D"/>
<path d="M69.0762 104.706L74.1725 92.5747H75.809L80.8586 104.752H79.3624L77.8195 100.909H72.0218L70.4788 104.752H69.0762V104.706ZM72.4893 99.7516H77.3519L74.9674 93.8249L72.4893 99.7516Z" fill="#857B5D"/>
<path d="M85.7681 104.706V92.5747H91.0514C92.2671 92.5747 93.2022 92.8988 93.9503 93.5471C94.6984 94.1953 95.0724 95.0287 95.0724 96.0937C95.0724 96.8808 94.8387 97.5754 94.3711 98.1773C93.9035 98.7792 93.249 99.1497 92.4541 99.3812L95.2127 104.799H93.7165L91.0982 99.5664H87.124V104.799H85.7681V104.706ZM90.9579 93.7323H87.124V98.3625H90.9579C91.7995 98.3625 92.4541 98.131 92.9217 97.7143C93.436 97.2976 93.6698 96.7419 93.6698 96.0474C93.6698 95.3529 93.436 94.7972 92.9217 94.3805C92.4541 93.9638 91.7995 93.7323 90.9579 93.7323Z" fill="#857B5D"/>
</svg>
