<svg width="190" height="190" viewBox="0 0 190 190" fill="none" xmlns="http://www.w3.org/2000/svg">
<g filter="url(#filter0_d)">
<circle cx="95" cy="95" r="70" fill="white"/>
</g>
<path d="M60.7615 70.3926L61.0475 71.3516C60.5326 71.4387 59.9892 71.7003 59.6459 72.2524C58.9881 73.2986 59.3027 74.5192 60.3896 75.2166C61.4479 75.9141 62.7065 75.6816 63.3929 74.6064C63.6504 74.1995 63.7362 73.7927 63.7362 73.3567L62.7351 72.6883L61.9628 73.9089L61.1905 73.473L62.5349 71.3516L64.7373 72.7755C64.8803 73.5602 64.7087 74.3739 64.2224 75.1294C63.2213 76.7278 61.3621 77.1056 59.8462 76.1175C58.3302 75.1294 57.9011 73.2696 58.8736 71.7293C59.3313 70.9447 59.9606 70.5379 60.7615 70.3926ZM67.5118 64.4642C68.1411 65.0744 68.2269 65.8591 67.9408 66.5565L70.6868 67.2249L69.8287 68.0968L67.283 67.4865L66.5679 68.2421L68.1697 69.8404L67.4546 70.596L63.1069 66.2369L64.6515 64.6676C65.481 63.7667 66.6251 63.5633 67.5118 64.4642ZM64.4513 66.1206L65.91 67.5737L66.6537 66.789C67.1686 66.2659 67.2544 65.6847 66.7681 65.1907C66.3105 64.7257 65.7098 64.8129 65.1949 65.3069L64.4513 66.1206ZM77.2941 62.4299L76.3502 63.0693L75.3491 62.4009L73.2324 63.8248L73.4327 65.0163L72.4888 65.6557L71.459 58.7973L71.4876 58.7683L77.2941 62.4299ZM73.0608 62.924L74.6054 61.8778L72.6604 60.5991L73.0608 62.924ZM84.3877 59.4657H84.3591L79.4965 57.1409L80.8695 60.7153L79.897 61.0931L77.6659 55.2229H77.6945L82.5571 57.5477L81.1841 53.9733L82.1566 53.5955L84.3877 59.4657ZM92.3394 54.5835C92.6254 56.5015 91.5957 57.8383 89.5362 58.158L87.677 58.4486L86.7331 52.3168L88.5923 52.0262C90.6804 51.7356 92.0533 52.6655 92.3394 54.5835ZM87.9345 53.1596L88.5637 57.3443L89.3646 57.2281C90.8234 56.9956 91.5099 56.0947 91.3096 54.7579C91.1094 53.4211 90.1941 52.7818 88.7354 53.0143L87.9345 53.1596ZM105.068 58.6811L104.067 58.5067L104.524 55.8622L101.778 55.3682L101.321 58.0127L100.291 57.8383L101.378 51.7356L102.408 51.91L101.95 54.4092L104.696 54.9032L105.154 52.404L106.155 52.5784L105.068 58.6811ZM114.907 59.1461C114.192 60.8607 112.447 61.5581 110.817 60.8607C109.187 60.1341 108.5 58.3905 109.215 56.6759C109.93 54.9904 111.675 54.2639 113.305 54.9613C114.936 55.6588 115.622 57.4606 114.907 59.1461ZM110.188 57.0828C109.673 58.2742 110.102 59.4657 111.217 59.9598C112.304 60.4247 113.448 59.9307 113.963 58.7392C114.478 57.5477 114.049 56.3272 112.962 55.8622C111.818 55.3682 110.674 55.8622 110.188 57.0828ZM123.002 61.965L121.314 60.7444L118.311 65.0454L117.453 64.4351L120.456 60.1341L118.769 58.9136L119.312 58.158L123.517 61.2094L123.002 61.965ZM128.608 67.5737L126.663 65.5104L125.49 66.6437L127.178 68.4455L126.52 69.0848L124.833 67.2831L123.603 68.4746L125.576 70.596L124.89 71.2644L122.201 68.3874L126.606 64.1154L129.266 66.9343L128.608 67.5737ZM128.236 74.1704L129.752 76.5244L128.98 77.0474L126.892 73.7927L131.983 70.3926L132.555 71.2644L128.236 74.1704ZM62.2202 118.488C61.8484 118.72 61.5051 118.662 61.3049 118.546C61.4193 118.982 61.3335 119.447 60.8473 119.738C60.218 120.115 59.5601 119.854 59.1597 119.185L58.2444 117.645L61.734 115.524L62.5062 116.832C62.9067 117.5 62.7923 118.139 62.2202 118.488ZM60.1322 117.296L59.1597 117.907L59.6745 118.779C59.9034 119.156 60.218 119.302 60.5326 119.098C60.8473 118.895 60.8759 118.575 60.6184 118.139L60.1322 117.296ZM61.5337 116.425L60.6184 116.977L61.0189 117.645C61.2191 117.994 61.5337 118.081 61.7912 117.907C62.0772 117.732 62.1344 117.413 61.9056 117.035L61.5337 116.425ZM63.1927 124.852L62.7351 124.242L63.1069 123.515L62.0486 122.15L61.2763 122.353L60.8187 121.743L65.2522 120.668V120.697L63.1927 124.852ZM62.6493 122.004L63.4216 122.992L64.1366 121.627L62.6493 122.004ZM68.9706 125.492L68.3127 125.637C68.2841 125.317 68.1697 124.969 67.855 124.649C67.569 124.358 67.2544 124.3 66.9969 124.562C66.7681 124.794 66.8253 124.998 67.1972 125.579C67.7692 126.451 67.7692 126.974 67.3116 127.41C66.7681 127.962 66.0244 127.904 65.3666 127.264C64.9375 126.828 64.7087 126.305 64.6515 125.782L65.3094 125.637C65.3094 126.044 65.5096 126.509 65.7956 126.828C66.1388 127.177 66.4821 127.235 66.7395 126.974C66.9397 126.77 66.9111 126.48 66.5393 125.928C65.9672 125.027 66.0244 124.533 66.4535 124.097C66.9683 123.574 67.6834 123.632 68.2841 124.213C68.6845 124.62 68.9134 125.085 68.9706 125.492ZM68.3699 124.155L68.3127 122.905L68.7131 123.312L68.7417 123.777L69.1994 123.806L69.5998 124.213L68.3699 124.155ZM70.7726 129.182L70.6295 131.798L69.9717 131.275L70.0861 129.444L68.4271 130.054L67.9981 129.705L70.5151 126.48L71.0586 126.916L69.3996 129.037L72.2599 127.875L72.8892 128.398L70.7726 129.182ZM75.2061 134.733L74.5482 134.326L74.6626 133.512L73.2038 132.611L72.546 133.076L71.9167 132.67L75.6923 130.083H75.7209L75.2061 134.733ZM73.7187 132.263L74.777 132.902L74.9772 131.362L73.7187 132.263ZM80.8981 137.406L80.4976 132.786L81.2127 133.047L81.3843 136.012L83.4152 133.89L84.1302 134.152L80.8981 137.406ZM88.7067 137.406C88.4493 138.627 87.3624 139.295 86.2183 139.034C85.0455 138.772 84.3877 137.697 84.6737 136.477C84.9311 135.285 85.9895 134.588 87.1622 134.849C88.3063 135.111 88.9928 136.215 88.7067 137.406ZM85.3602 136.622C85.16 137.465 85.589 138.191 86.3613 138.395C87.1336 138.569 87.8201 138.104 88.0203 137.261C88.2205 136.418 87.7915 135.663 87.0192 135.488C86.2469 135.314 85.5604 135.779 85.3602 136.622ZM93.9983 137.988C93.8839 139.295 93.0258 139.964 91.6243 139.848L90.3657 139.731L90.7376 135.605L91.9961 135.721C93.3691 135.866 94.1127 136.68 93.9983 137.988ZM91.3668 136.331L91.1094 139.15L91.6529 139.208C92.6254 139.295 93.2261 138.83 93.2833 137.93C93.3691 137.029 92.8828 136.477 91.8817 136.389L91.3668 136.331ZM99.2899 139.993L98.5462 140.022L98.203 139.295L96.4868 139.354L96.1722 140.109L95.4285 140.138L97.2305 135.895H97.2591L99.2899 139.993ZM96.7156 138.714L97.9456 138.685L97.2877 137.261L96.7156 138.714ZM104.152 137.784C104.21 138.017 104.067 138.249 103.809 138.278C103.58 138.336 103.352 138.162 103.323 137.93C103.266 137.697 103.409 137.465 103.666 137.436C103.924 137.406 104.124 137.552 104.152 137.784ZM110.274 133.861L108.5 134.5L108.843 135.518L110.388 134.965L110.588 135.547L109.044 136.099L109.415 137.174L111.217 136.535L111.418 137.145L108.958 138.017L107.613 134.123L110.045 133.251L110.274 133.861ZM114.106 131.798L114.021 132.466C113.706 132.379 113.334 132.379 112.962 132.582C112.59 132.757 112.419 133.047 112.59 133.367C112.733 133.658 112.962 133.687 113.592 133.512C114.593 133.251 115.079 133.454 115.336 134.006C115.651 134.704 115.365 135.401 114.535 135.808C113.992 136.07 113.42 136.128 112.934 135.983L113.019 135.285C113.391 135.43 113.878 135.401 114.278 135.198C114.707 134.994 114.879 134.675 114.736 134.326C114.593 134.065 114.335 134.006 113.677 134.181C112.676 134.413 112.219 134.21 111.961 133.658C111.646 132.989 111.933 132.321 112.676 131.943C113.191 131.769 113.677 131.711 114.106 131.798ZM118.454 129.444L117.281 130.199L119.112 133.164L118.54 133.541L116.709 130.577L115.537 131.333L115.222 130.81L118.139 128.95L118.454 129.444ZM124.947 128.63L124.432 129.066L122.458 126.799L122.201 127.526L121.572 127.264L122.144 125.463H122.172L124.947 128.63ZM126.263 123.254C126.492 123.486 126.635 123.748 126.692 124.01L127.264 126.305L126.749 126.857L126.32 125.172C125.805 125.724 124.976 125.782 124.404 125.259C123.831 124.707 123.831 123.864 124.346 123.312C124.861 122.76 125.691 122.702 126.263 123.254ZM124.861 124.765C125.204 125.085 125.605 125.056 125.891 124.794C126.148 124.504 126.12 124.068 125.805 123.777C125.462 123.457 125.061 123.486 124.804 123.748C124.518 124.01 124.547 124.445 124.861 124.765ZM128.637 119.912C128.98 120.174 129.066 120.522 129.009 120.842C129.352 120.638 129.752 120.638 130.124 120.9C130.725 121.365 130.811 122.092 130.324 122.731C129.895 123.312 129.323 123.428 128.665 123.167L128.923 122.586C129.295 122.731 129.609 122.702 129.867 122.382C130.096 122.062 130.038 121.714 129.724 121.452C129.438 121.22 129.037 121.278 128.808 121.627L128.551 121.975L128.093 121.627L128.351 121.278C128.522 121.045 128.551 120.697 128.236 120.464C127.95 120.232 127.636 120.29 127.435 120.58C127.235 120.842 127.264 121.132 127.493 121.423L126.949 121.743C126.635 121.249 126.577 120.726 126.978 120.203C127.407 119.592 128.093 119.505 128.637 119.912ZM131.812 116.57C132.927 117.238 133.328 118.139 132.87 118.924C132.412 119.709 131.411 119.738 130.324 119.069C129.237 118.401 128.808 117.5 129.266 116.715C129.752 115.931 130.725 115.902 131.812 116.57ZM130.668 118.488C131.44 118.982 132.098 119.069 132.355 118.604C132.613 118.139 132.241 117.616 131.468 117.151C130.696 116.686 130.067 116.57 129.781 117.035C129.523 117.5 129.895 118.023 130.668 118.488ZM55.8131 88.6717L54.526 90.706C53.4104 89.776 51.9517 89.0786 50.1211 89.0786C48.2333 89.0786 46.8603 89.9504 46.8603 91.8393C46.8603 93.4086 47.8614 93.9898 50.779 94.6292C55.0122 95.5591 56.5854 97.0412 56.5854 99.7438C56.5854 102.941 54.2113 105.091 50.3785 105.091C47.8042 105.091 45.659 104.277 44 102.824L45.3443 100.79C46.5743 102.04 48.5479 102.824 50.4357 102.824C52.6096 102.824 54.1541 101.807 54.1541 99.9182C54.1541 98.378 53.01 97.6224 50.0925 96.9831C45.8592 96.0531 44.429 94.542 44.429 91.9265C44.429 88.817 46.6887 86.8118 50.1211 86.8118C52.4951 86.8118 54.4402 87.5674 55.8131 88.6717ZM67.2258 102.592V87.1024H64.8231V104.771H73.1466L74.1191 102.592H67.2258ZM123.889 104.771H121.486V87.1024H123.889V104.771ZM106.04 105.062H105.954L97.774 87.1024H100.405L106.012 99.6567L111.618 87.1024H114.221L106.04 105.062ZM95.028 104.771H92.4252L86.8189 92.2171L81.2127 104.771H78.5812L86.7617 86.8118H86.8475L95.028 104.771ZM147 104.771H144.397L138.791 92.2171L133.185 104.771H130.553L138.734 86.8118H138.819L147 104.771Z" fill="#857B5D"/>
<defs>
<filter id="filter0_d" x="0" y="0" width="190" height="190" filterUnits="userSpaceOnUse" color-interpolation-filters="sRGB">
<feFlood flood-opacity="0" result="BackgroundImageFix"/>
<feColorMatrix in="SourceAlpha" type="matrix" values="0 0 0 0 0 0 0 0 0 0 0 0 0 0 0 0 0 0 127 0"/>
<feOffset/>
<feGaussianBlur stdDeviation="12.5"/>
<feColorMatrix type="matrix" values="0 0 0 0 0 0 0 0 0 0 0 0 0 0 0 0 0 0 0.05 0"/>
<feBlend mode="normal" in2="BackgroundImageFix" result="effect1_dropShadow"/>
<feBlend mode="normal" in="SourceGraphic" in2="effect1_dropShadow" result="shape"/>
</filter>
</defs>
</svg>
