<svg width="190" height="190" viewBox="0 0 190 190" fill="none" xmlns="http://www.w3.org/2000/svg">
<g filter="url(#filter0_d)">
<circle cx="95" cy="95" r="70" fill="white"/>
<g clip-path="url(#clip0)">
<path fill-rule="evenodd" clip-rule="evenodd" d="M111.133 110.531C112.413 110.284 113.782 109.41 115.218 107.864C116.498 106.498 117.216 105.198 117.35 103.899C117.822 105.534 117.328 107.103 115.892 108.648C114.478 110.194 112.884 110.799 111.133 110.531ZM111.111 98.0509C109.719 98.4094 108.373 99.2607 107.093 100.627C105.926 101.86 105.208 103.204 104.894 104.616C104.49 102.958 105.006 101.367 106.42 99.8433C107.879 98.2973 109.428 97.6924 111.111 98.0509ZM113.782 106.811C116.094 104.347 116.363 102.263 114.567 100.583C112.794 98.9247 110.729 99.3728 108.35 101.905C106.106 104.302 105.881 106.318 107.677 107.976C109.45 109.634 111.492 109.253 113.782 106.811ZM81.9109 103.966C82.3822 103.249 82.6067 102.442 82.6067 101.568C82.6067 100.762 82.3373 99.9777 81.7987 99.1711C83.0107 99.6864 83.6166 100.493 83.6166 101.613C83.6391 102.711 83.078 103.495 81.9109 103.966ZM75.4469 98.7678V109.948H74.998C74.8185 109.948 74.5491 109.97 74.1676 110.015C73.8309 110.06 73.4494 110.082 73.0229 110.082V109.881C73.4718 109.836 73.8534 109.612 74.1452 109.209C74.4369 108.805 74.594 108.044 74.594 106.923V101.479C74.594 99.9329 74.0778 99.0591 73.0229 98.835V98.6334C73.4494 98.6782 74.2798 98.723 75.4469 98.7678ZM77.1078 101.68V103.988C77.5342 104.1 77.9831 104.145 78.4769 104.145C80.0704 104.145 80.856 103.316 80.856 101.658C80.856 100.112 80.0704 99.328 78.4769 99.328C77.9607 99.328 77.5791 99.44 77.2874 99.6416C77.1751 99.9105 77.1078 100.605 77.1078 101.68ZM66.1999 110.531C67.4792 110.284 68.8483 109.41 70.2847 107.864C71.5641 106.498 72.2823 105.198 72.4394 103.899C72.9107 105.534 72.4169 107.103 70.9805 108.648C69.5216 110.194 67.9505 110.799 66.1999 110.531ZM66.1774 98.0509C64.7859 98.4094 63.4392 99.2607 62.1599 100.627C60.9928 101.86 60.2521 103.204 59.9604 104.616C59.5564 102.958 60.0726 101.367 61.4866 99.8433C62.923 98.2973 64.4941 97.6924 66.1774 98.0509ZM68.8483 106.811C71.1601 104.347 71.4294 102.263 69.6338 100.583C67.8607 98.9247 65.7959 99.3728 63.4168 101.905C61.1723 104.302 60.9479 106.318 62.7434 107.976C64.5165 109.634 66.559 109.253 68.8483 106.811ZM48.2669 98.7678V109.948L46 110.06V109.858C46.3367 109.769 46.6284 109.589 46.8753 109.298C47.0998 109.029 47.2569 108.716 47.3242 108.357C47.3915 107.999 47.4364 107.394 47.4364 106.52V101.636C47.4364 100.605 47.3018 99.8881 47.0324 99.5072C46.7631 99.1263 46.4264 98.9023 46 98.8126V98.611C46.4489 98.7006 47.1895 98.723 48.2669 98.7678ZM56.9753 109.948V98.7678C57.7384 98.7678 58.5015 98.723 59.287 98.6334V98.835C58.3893 99.0815 57.9179 99.9553 57.873 101.412L57.8506 102.42V107.215C57.8506 108.805 58.3219 109.702 59.287 109.903V110.105C57.9404 109.993 57.1773 109.948 56.9753 109.948ZM56.1897 98.7678V109.948C55.8755 109.948 55.0899 109.993 53.8555 110.082V109.881C54.2819 109.791 54.6411 109.545 54.9104 109.141C55.1797 108.738 55.3144 107.976 55.3144 106.856V104.616H49.9278V107.192C49.9278 108.178 50.0624 108.85 50.3542 109.209C50.646 109.567 51.0051 109.791 51.4091 109.881V110.082C50.5337 110.015 49.7482 109.97 49.0524 109.948V98.7678C49.6809 98.7678 50.4664 98.723 51.4091 98.6334V98.835C50.848 98.9919 50.4664 99.2831 50.242 99.7088C50.0175 100.135 49.9278 100.896 49.9278 101.949V103.719H55.3368V101.703C55.3368 100.829 55.2246 100.157 54.9777 99.6864C54.7308 99.2383 54.3493 98.9471 53.8555 98.835V98.6334C54.6186 98.723 55.4042 98.7678 56.1897 98.7678ZM69.589 107.483C68.6912 108.424 67.7934 109.097 66.8956 109.477C65.9979 109.858 65.145 109.97 64.337 109.791C63.529 109.634 62.7883 109.231 62.115 108.604C61.0377 107.595 60.5663 106.43 60.701 105.108C60.8357 103.787 61.5315 102.465 62.7883 101.098C64.0901 99.7088 65.4143 98.9023 66.7161 98.723C68.0179 98.5438 69.185 98.9471 70.2174 99.9105C71.2723 100.896 71.7661 102.061 71.6987 103.361C71.6314 104.683 70.9132 106.049 69.589 107.483ZM76.5242 109.948H76.21V98.7678C76.6365 98.7678 77.0854 98.7454 77.5791 98.723C78.1402 98.6782 78.5891 98.6558 78.9258 98.6558C79.8909 98.6558 80.6091 98.9471 81.0804 99.552C81.5518 100.135 81.7987 100.852 81.7987 101.725C81.7987 103.182 81.1702 104.123 79.9358 104.548C80.5418 104.638 81.0804 104.817 81.4844 105.108C81.9333 105.422 82.6067 106.027 83.5044 106.923C84.896 108.335 86.0182 109.029 86.8711 109.029C87.0506 109.029 87.2302 108.962 87.4097 108.85L87.4546 109.052C87.1628 109.41 86.7813 109.612 86.2875 109.612C85.7489 109.612 85.1877 109.41 84.6042 109.007C84.0431 108.626 83.2351 107.887 82.1353 106.766C80.8111 105.4 79.5318 104.728 78.2973 104.728C79.0605 104.974 80.1153 105.781 81.4395 107.147C82.3598 108.111 83.1229 108.805 83.684 109.253C84.2451 109.702 84.7837 109.903 85.3 109.903V109.993C85.0531 110.082 84.8286 110.127 84.5817 110.127C83.886 110.127 83.3024 109.948 82.7862 109.612C82.5169 109.41 82.1802 109.119 81.7538 108.738C81.3273 108.335 80.8336 107.842 80.25 107.215C79.3971 106.318 78.7687 105.691 78.3647 105.377C77.9158 105.041 77.4894 104.817 77.0854 104.683V107.192C77.0854 108.873 77.6016 109.791 78.6116 109.948V110.15C77.7811 109.993 77.0854 109.948 76.5242 109.948ZM90.6417 109.948V98.7678C91.517 98.7678 92.3026 98.723 92.9759 98.6334V98.835C92.5495 98.9023 92.2128 99.1487 91.9435 99.5072C91.6517 99.8881 91.517 100.695 91.517 101.905V106.968C91.517 108.066 91.6741 108.783 91.9659 109.164C92.2577 109.545 92.5944 109.769 92.9759 109.881V110.082C92.325 109.993 91.5395 109.948 90.6417 109.948ZM89.8562 98.7678V109.948C89.3399 109.948 88.5768 109.993 87.522 110.082V109.881C88.0606 109.746 88.4422 109.433 88.6666 108.962C88.8911 108.492 88.9808 107.64 88.9808 106.43V101.68C88.9808 100.762 88.8686 100.09 88.6442 99.6416C88.4197 99.2159 88.0606 98.9471 87.522 98.8126V98.611C88.3748 98.7006 89.1604 98.7454 89.8562 98.7678ZM95.355 109.948L103.615 98.7678H104.647L96.9934 109.164H100.405C101.752 109.164 102.694 108.94 103.255 108.514C103.794 108.088 104.221 107.551 104.512 106.878H104.759C104.737 107.192 104.625 107.73 104.378 108.514C104.131 109.253 104.019 109.769 103.974 110.06C103.031 109.97 102.156 109.926 101.37 109.926H95.355V109.948ZM102.605 98.7678L94.3675 109.948H93.335L101.033 99.552H97.3077C96.1406 99.552 95.3326 99.6864 94.8388 99.9329C94.345 100.202 93.9859 100.739 93.7166 101.524H93.4697C93.4697 101.188 93.537 100.627 93.6492 99.8433C93.6941 99.4624 93.739 99.1935 93.739 99.0367C93.739 99.0143 93.739 98.8799 93.7166 98.6558C94.4348 98.7454 95.3999 98.7902 96.6343 98.7902H102.605V98.7678ZM114.522 107.483C113.625 108.424 112.727 109.097 111.829 109.477C110.931 109.858 110.078 109.97 109.27 109.791C108.462 109.634 107.722 109.231 107.048 108.604C105.971 107.595 105.5 106.43 105.635 105.108C105.769 103.787 106.465 102.465 107.722 101.098C109.024 99.7088 110.348 98.9023 111.627 98.723C112.929 98.5438 114.096 98.9471 115.128 99.9105C116.183 100.896 116.677 102.061 116.61 103.361C116.565 104.683 115.847 106.049 114.522 107.483ZM130.278 108.156L119.236 98.7678H120.493L129.425 106.363V101.949C129.425 101.21 129.381 100.65 129.268 100.247C129.179 99.8657 128.977 99.552 128.662 99.3056C128.348 99.0591 127.967 98.9023 127.495 98.8126V98.611C127.495 98.611 127.63 98.611 127.877 98.6334C128.797 98.7006 129.425 98.723 129.762 98.723C130.076 98.723 130.795 98.6782 131.939 98.5886V98.7902C131.58 98.835 131.243 98.9919 130.974 99.2383C130.705 99.4848 130.525 99.7761 130.413 100.135C130.323 100.493 130.256 101.008 130.256 101.658V108.156H130.278ZM118.024 98.7678L130.256 109.209V110.082H130.054L120.425 101.905V106.834C120.425 107.909 120.56 108.648 120.829 109.074C121.099 109.5 121.548 109.769 122.131 109.903V110.105C121.054 110.015 120.336 109.97 119.954 109.97C119.528 109.97 118.877 110.015 118.001 110.105V109.903C118.607 109.769 119.034 109.477 119.236 109.052C119.46 108.626 119.572 107.864 119.572 106.766V101.232L118.809 100.583C117.754 99.6864 116.857 99.1039 116.116 98.8575V98.6558L118.024 98.7678ZM139.009 109.948H138.74V98.7678H142.578C143.274 98.7678 143.969 98.723 144.643 98.6334C144.643 98.7678 144.643 99.0143 144.62 99.3728C144.598 99.7088 144.598 100.112 144.598 100.583C144.598 100.896 144.575 101.21 144.553 101.524H144.284C144.261 100.941 144.126 100.471 143.857 100.067C143.565 99.6864 142.982 99.4848 142.062 99.4848H139.66V107.08C139.66 107.954 139.772 108.604 140.042 109.052C140.288 109.5 140.67 109.769 141.186 109.881V110.082C139.862 109.993 139.166 109.948 139.009 109.948ZM134.431 98.7678H137.932V109.948H137.618C137.169 109.948 136.473 109.993 135.553 110.082V109.881C136.136 109.724 136.54 109.433 136.765 108.985C136.989 108.536 137.079 107.797 137.079 106.766V99.5296H134.363C133.667 99.5296 133.196 99.664 132.904 99.9553C132.613 100.247 132.388 100.784 132.186 101.568H131.962C131.962 101.479 131.962 101.367 131.962 101.277C131.962 101.143 131.984 100.964 132.007 100.739C132.096 99.9777 132.141 99.3056 132.141 98.6782C132.523 98.723 132.994 98.7678 133.555 98.7678H134.431Z" fill="#857B5D"/>
<path fill-rule="evenodd" clip-rule="evenodd" d="M103.21 74.1445C103.143 74.9735 102.806 75.4664 102.425 75.6905C102.133 75.332 101.841 74.9959 101.505 74.6823C101.976 74.503 102.156 73.4948 102.537 72.845C103.076 71.9712 104.131 71.1871 105.163 71.4111C105.096 71.4559 103.368 72.1953 103.21 74.1445ZM104.782 76.4299C104.49 77.214 104.063 77.5949 103.637 77.7294C103.457 77.3037 103.233 76.9004 103.008 76.5195C103.525 76.4747 103.929 75.5337 104.49 75.0183C105.23 74.3014 106.465 73.8309 107.408 74.3238C107.318 74.3238 105.432 74.5702 104.782 76.4299ZM105.702 79.0513C105.23 79.7458 104.714 79.9923 104.265 79.9923C104.198 79.5442 104.108 79.0961 103.974 78.648C104.49 78.7152 105.118 77.931 105.792 77.5725C106.689 77.0796 108.014 76.9452 108.777 77.6397C108.709 77.6621 106.824 77.4157 105.702 79.0513ZM105.926 81.8071C105.298 82.3448 104.714 82.4568 104.288 82.3448C104.333 81.9863 104.355 81.6278 104.355 81.2694C104.355 81.1797 104.355 81.0677 104.355 80.9781C104.826 81.1797 105.657 80.5748 106.375 80.418C107.385 80.1715 108.664 80.3732 109.248 81.2694C109.181 81.247 107.43 80.53 105.926 81.8071ZM105.432 84.5405C104.669 84.899 104.108 84.8542 103.704 84.6301C103.884 84.2044 104.018 83.7787 104.108 83.3306C104.512 83.6443 105.455 83.2858 106.218 83.3082C107.25 83.3306 108.44 83.8684 108.777 84.8766C108.709 84.8318 107.206 83.6891 105.432 84.5405ZM104.243 87.0275C103.412 87.1843 102.874 86.9827 102.537 86.669C102.806 86.3105 103.053 85.9296 103.278 85.5263C103.57 85.9296 104.602 85.84 105.32 86.0417C106.308 86.3329 107.318 87.1619 107.385 88.215C107.34 88.1701 106.173 86.669 104.243 87.0275ZM87.4097 88.3942C87.477 87.5652 87.8137 87.0723 88.1952 86.8482C88.487 87.2067 88.7788 87.5428 89.1155 87.8565C88.6441 88.0357 88.4646 89.0439 88.083 89.6937C87.5444 90.5675 86.4895 91.3517 85.457 91.1276C85.5244 91.0828 87.2526 90.3434 87.4097 88.3942ZM85.8386 86.1089C86.1304 85.3247 86.5568 84.9438 86.9833 84.8094C87.1628 85.2351 87.3872 85.6384 87.6117 86.0193C87.0955 86.0641 86.6915 87.0051 86.1304 87.5204C85.3897 88.2374 84.1553 88.7079 83.2126 88.215C83.3024 88.215 85.1877 87.9461 85.8386 86.1089ZM84.9184 83.4875C85.3897 82.7929 85.9059 82.5465 86.3548 82.5465C86.4221 82.9946 86.5119 83.4427 86.6466 83.8908C86.1304 83.8236 85.5019 84.6077 84.8286 84.9662C83.9308 85.4591 82.6066 85.5936 81.8435 84.899C81.9108 84.8766 83.7962 85.1006 84.9184 83.4875ZM84.6939 80.7316C85.3224 80.1939 85.9059 80.0819 86.3324 80.1939C86.2875 80.5524 86.265 80.9109 86.265 81.2694C86.265 81.359 86.265 81.4486 86.265 81.5606C85.7937 81.359 84.9633 81.9639 84.245 82.1208C83.2351 82.3672 81.9557 82.1656 81.3722 81.2694C81.4395 81.2918 83.1902 82.0087 84.6939 80.7316ZM85.1877 77.9982C85.9508 77.6397 86.5119 77.6845 86.9159 77.9086C86.7364 78.3343 86.6017 78.76 86.5119 79.2081C86.1079 78.8944 85.1653 79.2529 84.4022 79.2305C83.3697 79.2081 82.1802 78.6704 81.8435 77.6621C81.9108 77.7069 83.4146 78.8496 85.1877 77.9982ZM86.3773 75.4888C87.2077 75.332 87.7464 75.5337 88.083 75.8473C87.8137 76.2058 87.5668 76.5867 87.3424 76.99C87.0281 76.5867 86.0182 76.6763 85.2999 76.4747C84.3124 76.1834 83.3024 75.3544 83.2351 74.3014C83.2799 74.3686 84.447 75.8473 86.3773 75.4888ZM88.1728 73.3828C89.0032 73.45 89.497 73.7861 89.7215 74.1669C89.3624 74.4582 89.0257 74.7495 88.7115 75.0855C88.5319 74.615 87.5219 74.4358 86.871 74.0549C85.9957 73.5172 85.2102 72.4641 85.4346 71.4335C85.4795 71.5007 86.2201 73.2259 88.1728 73.3828ZM90.4621 71.8144C91.2477 72.1057 91.6292 72.5314 91.7639 72.9571C91.3374 73.1363 90.9335 73.3604 90.5519 73.5844C90.507 73.0691 89.5644 72.6658 89.0481 72.1057C88.3299 71.3663 87.8586 70.134 88.3524 69.193C88.3524 69.2826 88.6217 71.1647 90.4621 71.8144ZM93.0881 70.8734C93.7839 71.3439 94.0308 71.8592 94.0308 72.3073C93.5819 72.3745 93.133 72.4641 92.6841 72.5986C92.7514 72.0833 91.9659 71.4559 91.6068 70.7838C91.113 69.8876 90.9783 68.5881 91.6741 67.8039C91.6966 67.8935 91.4721 69.7755 93.0881 70.8734ZM95.8488 70.6493C96.3874 71.2767 96.4996 71.8592 96.3874 72.2849C96.0283 72.2401 95.6692 72.2177 95.3101 72.2177C95.2203 72.2177 95.1305 72.2177 95.0183 72.2177C95.2203 71.7472 94.6143 70.9182 94.4572 70.2012C94.2103 69.193 94.4123 67.9159 95.3101 67.3334C95.2876 67.423 94.5694 69.1706 95.8488 70.6493ZM98.587 71.1647C98.9461 71.9264 98.9012 72.4866 98.6767 72.8898C98.2503 72.7106 97.8239 72.5762 97.375 72.4866C97.6892 72.0833 97.3301 71.1422 97.3525 70.3805C97.375 69.3498 97.9136 68.1624 98.9236 67.8263C98.8787 67.8711 97.7341 69.3946 98.587 71.1647ZM77.5791 93.1889C78.634 93.1665 79.8908 93.0321 81.4395 92.7632C92.4597 90.7467 103.592 87.8789 114.882 88.6631C120.829 89.0664 121.817 90.8588 121.099 92.8304C120.919 92.1134 120.47 91.4861 119.842 90.9708C119.797 90.926 119.752 90.8812 119.685 90.8364C119.326 90.5675 118.854 90.2538 117.822 90.0298C117.687 90.0074 117.552 89.9626 117.418 89.9402C116.834 89.8281 116.094 89.7609 115.128 89.6937C103.412 89.0888 94.9061 91.3069 83.8186 93.4578C79.0604 94.3764 74.1227 95.3174 69.3196 91.7774C70.5989 92.3599 72.0578 92.808 73.6513 93.0545C74.998 93.2785 76.3222 93.3009 77.5791 93.1889ZM75.9407 94.9813C76.1202 94.9589 77.9382 95.0709 80.6764 94.7797C91.6966 92.6736 102.829 89.6937 114.118 90.3434C120.066 90.7019 121.054 92.4719 120.336 94.466C120.156 93.749 119.707 93.1217 119.079 92.6288C119.034 92.584 118.989 92.5391 118.922 92.4943C118.562 92.2255 118.091 91.9118 117.059 91.7102C116.924 91.6877 116.789 91.6653 116.655 91.6429C116.071 91.5533 115.33 91.4637 114.365 91.4189C102.649 90.926 94.143 93.2337 83.0555 95.4966C82.5617 95.6086 81.2375 95.7207 80.7437 95.8327C76.9731 96.0568 76.5242 95.2726 75.9407 94.9813ZM101.101 72.3521C101.258 73.1811 101.056 73.7188 100.742 74.0549C100.383 73.7861 100.001 73.5396 99.597 73.3155C100.001 73.0019 99.9112 71.9936 100.113 71.2767C100.405 70.2909 101.235 69.2602 102.29 69.2154C102.223 69.2602 100.742 70.4253 101.101 72.3521Z" fill="#857B5D"/>
</g>
</g>
<defs>
<filter id="filter0_d" x="0" y="0" width="190" height="190" filterUnits="userSpaceOnUse" color-interpolation-filters="sRGB">
<feFlood flood-opacity="0" result="BackgroundImageFix"/>
<feColorMatrix in="SourceAlpha" type="matrix" values="0 0 0 0 0 0 0 0 0 0 0 0 0 0 0 0 0 0 127 0"/>
<feOffset/>
<feGaussianBlur stdDeviation="12.5"/>
<feColorMatrix type="matrix" values="0 0 0 0 0 0 0 0 0 0 0 0 0 0 0 0 0 0 0.05 0"/>
<feBlend mode="normal" in2="BackgroundImageFix" result="effect1_dropShadow"/>
<feBlend mode="normal" in="SourceGraphic" in2="effect1_dropShadow" result="shape"/>
</filter>
<clipPath id="clip0">
<rect width="98.6202" height="49" fill="white" transform="translate(46 67.3558)"/>
</clipPath>
</defs>
</svg>
