<svg width="190" height="190" viewBox="0 0 190 190" fill="none" xmlns="http://www.w3.org/2000/svg">
<g filter="url(#filter0_d)">
<circle cx="95" cy="95" r="70" fill="white"/>
</g>
<g clip-path="url(#clip0)">
<path fill-rule="evenodd" clip-rule="evenodd" d="M97.8224 84.0598C97.1991 84.0598 96.6942 83.5549 96.6942 82.9316C96.6942 82.3083 97.1991 81.8028 97.8224 81.8028C98.4457 81.8028 98.9506 82.3083 98.9506 82.9316C98.9506 83.5549 98.4457 84.0598 97.8224 84.0598Z" fill="#79756C"/>
<path fill-rule="evenodd" clip-rule="evenodd" d="M86.9949 116.859C89.0369 116.859 90.6917 115.204 90.6917 113.163C90.6917 111.12 89.0369 109.466 86.9949 109.466C84.9535 109.466 83.298 111.12 83.298 113.163C83.298 115.204 84.9528 116.859 86.9949 116.859Z" fill="#79756C"/>
<path fill-rule="evenodd" clip-rule="evenodd" d="M104.457 119.357C103.304 119.357 102.37 118.423 102.37 117.271C102.37 116.119 103.305 115.185 104.457 115.185C105.609 115.185 106.543 116.119 106.543 117.271C106.543 118.423 105.609 119.357 104.457 119.357Z" fill="#79756C"/>
<path fill-rule="evenodd" clip-rule="evenodd" d="M90.9343 85.5387C93.6424 85.5387 95.8374 83.3437 95.8374 80.6355C95.8374 77.9274 93.6424 75.7324 90.9343 75.7324C88.2261 75.7324 86.0311 77.928 86.0311 80.6355C86.0318 83.3437 88.2267 85.5387 90.9343 85.5387Z" fill="#D2C8B4"/>
<path fill-rule="evenodd" clip-rule="evenodd" d="M98.7952 79.8574C97.7636 79.8574 96.9272 79.021 96.9272 77.9894C96.9272 76.9579 97.7636 76.1215 98.7952 76.1215C99.8268 76.1215 100.663 76.9579 100.663 77.9894C100.663 79.021 99.8268 79.8574 98.7952 79.8574Z" fill="#CAB999"/>
<path fill-rule="evenodd" clip-rule="evenodd" d="M95.2545 74.7981C94.6312 74.7981 94.1256 74.2926 94.1256 73.6699C94.1256 73.0466 94.6312 72.5417 95.2545 72.5417C95.8777 72.5417 96.3827 73.0466 96.3827 73.6699C96.3827 74.2932 95.8777 74.7981 95.2545 74.7981Z" fill="#EDE0C6"/>
<path fill-rule="evenodd" clip-rule="evenodd" d="M105.973 82.2046C104.877 82.2046 103.989 81.3158 103.989 80.2202C103.989 79.124 104.878 78.2358 105.973 78.2358C107.069 78.2358 107.958 79.124 107.958 80.2202C107.958 81.3164 107.069 82.2046 105.973 82.2046Z" fill="#CAB999"/>
<path fill-rule="evenodd" clip-rule="evenodd" d="M101.898 76.0012C100.413 76.0012 99.2085 74.7968 99.2085 73.3115C99.2085 71.8263 100.413 70.6219 101.898 70.6219C103.383 70.6219 104.588 71.8263 104.588 73.3115C104.587 74.7975 103.383 76.0012 101.898 76.0012Z" fill="#D2C8B4"/>
<path fill-rule="evenodd" clip-rule="evenodd" d="M106.929 111.923C105.832 111.923 104.944 111.035 104.944 109.939C104.944 108.842 105.832 107.954 106.929 107.954C108.025 107.954 108.913 108.843 108.913 109.939C108.913 111.035 108.025 111.923 106.929 111.923Z" fill="#79756C"/>
<path fill-rule="evenodd" clip-rule="evenodd" d="M113.08 123.736C115.922 123.736 118.227 121.432 118.227 118.589C118.227 115.745 115.922 113.441 113.08 113.441C110.236 113.441 107.932 115.746 107.932 118.589C107.932 121.431 110.236 123.736 113.08 123.736Z" fill="#D2C8B4"/>
<path fill-rule="evenodd" clip-rule="evenodd" d="M95.3036 63.1974C94.2721 63.1974 93.4357 62.3611 93.4357 61.3295C93.4357 60.2979 94.2721 59.4615 95.3036 59.4615C96.3352 59.4615 97.1716 60.2979 97.1716 61.3295C97.1716 62.3611 96.3352 63.1974 95.3036 63.1974Z" fill="#CAB999"/>
<path fill-rule="evenodd" clip-rule="evenodd" d="M94.1327 124.034C91.6536 124.034 89.6436 122.024 89.6436 119.545C89.6436 117.066 91.6536 115.056 94.1327 115.056C96.6117 115.056 98.6218 117.066 98.6218 119.545C98.6218 122.024 96.6117 124.034 94.1327 124.034Z" fill="#EDE0C6"/>
<path fill-rule="evenodd" clip-rule="evenodd" d="M113.207 111.499C112.143 111.499 111.28 110.636 111.28 109.572C111.28 108.508 112.143 107.645 113.207 107.645C114.271 107.645 115.134 108.508 115.134 109.572C115.134 110.636 114.271 111.499 113.207 111.499Z" fill="#79756C"/>
<path fill-rule="evenodd" clip-rule="evenodd" d="M88.2625 74.8429C89.8572 74.8429 91.1505 73.5502 91.1505 71.9549C91.1505 70.3602 89.8572 69.0669 88.2625 69.0669C86.6672 69.0669 85.3745 70.3602 85.3745 71.9549C85.3745 73.5502 86.6678 74.8429 88.2625 74.8429Z" fill="#EDE0C6"/>
<path fill-rule="evenodd" clip-rule="evenodd" d="M110.218 78.6089C108.005 78.6089 106.21 76.8145 106.21 74.6004C106.21 72.3868 108.004 70.5925 110.218 70.5925C112.432 70.5925 114.226 72.3868 114.226 74.6004C114.227 76.8139 112.432 78.6089 110.218 78.6089Z" fill="#79756C"/>
<path fill-rule="evenodd" clip-rule="evenodd" d="M108.794 84.7298C108.171 84.7298 107.665 84.2243 107.665 83.601C107.665 82.9777 108.171 82.4728 108.794 82.4728C109.417 82.4728 109.923 82.9783 109.923 83.601C109.922 84.2243 109.417 84.7298 108.794 84.7298Z" fill="#79756C"/>
<path fill-rule="evenodd" clip-rule="evenodd" d="M104.797 128.109C106.839 128.109 108.494 126.455 108.494 124.412C108.494 122.371 106.839 120.716 104.797 120.716C102.755 120.716 101.1 122.371 101.1 124.412C101.1 126.455 102.756 128.109 104.797 128.109Z" fill="#CAB999"/>
<path fill-rule="evenodd" clip-rule="evenodd" d="M98.3638 129.462C97.2996 129.462 96.437 128.599 96.437 127.535C96.437 126.471 97.2996 125.608 98.3638 125.608C99.428 125.608 100.291 126.471 100.291 127.535C100.291 128.599 99.4287 129.462 98.3638 129.462Z" fill="#79756C"/>
<path fill-rule="evenodd" clip-rule="evenodd" d="M120.77 117.947C119.947 117.947 119.281 117.28 119.281 116.457C119.281 115.634 119.947 114.967 120.77 114.967C121.593 114.967 122.26 115.634 122.26 116.457C122.26 117.28 121.593 117.947 120.77 117.947Z" fill="#79756C"/>
<path fill-rule="evenodd" clip-rule="evenodd" d="M99.7576 116.755C99.2635 116.755 98.8623 116.354 98.8623 115.86C98.8623 115.366 99.2629 114.965 99.7576 114.965C100.252 114.965 100.653 115.365 100.653 115.86C100.653 116.354 100.252 116.755 99.7576 116.755Z" fill="#CAB999"/>
<path fill-rule="evenodd" clip-rule="evenodd" d="M91.4852 129.422C90.1016 129.422 88.9805 128.301 88.9805 126.918C88.9805 125.534 90.1016 124.413 91.4852 124.413C92.8687 124.413 93.9899 125.535 93.9899 126.918C93.9899 128.301 92.8681 129.422 91.4852 129.422Z" fill="#79756C"/>
<path fill-rule="evenodd" clip-rule="evenodd" d="M100.797 120.915C100.014 120.915 99.3794 120.28 99.3794 119.497C99.3794 118.713 100.014 118.078 100.797 118.078C101.581 118.078 102.216 118.713 102.216 119.497C102.216 120.28 101.581 120.915 100.797 120.915Z" fill="#CAB999"/>
<path fill-rule="evenodd" clip-rule="evenodd" d="M83.1296 109.108C82.5492 109.108 82.0789 108.638 82.0789 108.057C82.0789 107.477 82.5492 107.006 83.1296 107.006C83.71 107.006 84.1804 107.477 84.1804 108.057C84.1797 108.638 83.7094 109.108 83.1296 109.108Z" fill="#79756C"/>
<path fill-rule="evenodd" clip-rule="evenodd" d="M74.5706 115.152C73.7323 115.152 73.0527 114.472 73.0527 113.634C73.0527 112.796 73.7323 112.116 74.5706 112.116C75.409 112.116 76.0879 112.796 76.0879 113.634C76.0886 114.472 75.409 115.152 74.5706 115.152Z" fill="#D2C8B4"/>
<path fill-rule="evenodd" clip-rule="evenodd" d="M119.188 113.183C118.027 113.183 117.086 112.242 117.086 111.081C117.086 109.921 118.027 108.98 119.188 108.98C120.348 108.98 121.289 109.921 121.289 111.081C121.289 112.242 120.349 113.183 119.188 113.183Z" fill="#EDE0C6"/>
<path fill-rule="evenodd" clip-rule="evenodd" d="M84.467 127.545C82.5492 127.545 80.9941 125.99 80.9941 124.071C80.9941 122.154 82.5492 120.599 84.467 120.599C86.3849 120.599 87.9399 122.154 87.9399 124.071C87.9406 125.99 86.3855 127.545 84.467 127.545Z" fill="#CAB999"/>
<path fill-rule="evenodd" clip-rule="evenodd" d="M79.843 119.556C78.2311 119.556 76.9243 118.249 76.9243 116.637C76.9243 115.025 78.2311 113.719 79.843 113.719C81.455 113.719 82.7618 115.025 82.7618 116.637C82.7618 118.249 81.455 119.556 79.843 119.556Z" fill="#EDE0C6"/>
<path fill-rule="evenodd" clip-rule="evenodd" d="M78.4249 123.35C77.6416 123.35 77.0068 122.715 77.0068 121.931C77.0068 121.148 77.6416 120.513 78.4249 120.513C79.2082 120.513 79.843 121.148 79.843 121.931C79.843 122.715 79.2082 123.35 78.4249 123.35Z" fill="#CAB999"/>
<path fill-rule="evenodd" clip-rule="evenodd" d="M73.8871 121.976C73.3931 121.976 72.9918 121.575 72.9918 121.081C72.9918 120.587 73.3924 120.186 73.8871 120.186C74.3818 120.186 74.7823 120.586 74.7823 121.081C74.7823 121.575 74.3811 121.976 73.8871 121.976Z" fill="#CAB999"/>
<path fill-rule="evenodd" clip-rule="evenodd" d="M75.0217 119.201C74.4413 119.201 73.9709 118.731 73.9709 118.15C73.9709 117.57 74.4413 117.099 75.0217 117.099C75.6021 117.099 76.0725 117.57 76.0725 118.15C76.0725 118.73 75.6021 119.201 75.0217 119.201Z" fill="#79756C"/>
<path fill-rule="evenodd" clip-rule="evenodd" d="M70.8615 118.811C69.7653 118.811 68.8771 117.923 68.8771 116.827C68.8771 115.731 69.7659 114.842 70.8615 114.842C71.9577 114.842 72.8459 115.731 72.8459 116.827C72.8466 117.923 71.9577 118.811 70.8615 118.811Z" fill="#79756C"/>
<path fill-rule="evenodd" clip-rule="evenodd" d="M79.3707 112.572C78.5874 112.572 77.9526 111.937 77.9526 111.154C77.9526 110.371 78.5874 109.736 79.3707 109.736C80.154 109.736 80.7888 110.371 80.7888 111.154C80.7888 111.937 80.154 112.572 79.3707 112.572Z" fill="#CAB999"/>
<path fill-rule="evenodd" clip-rule="evenodd" d="M104.682 70.4773C101.967 70.4773 99.7659 68.2766 99.7659 65.5613C99.7659 62.8468 101.967 60.6454 104.682 60.6454C107.396 60.6454 109.598 62.8461 109.598 65.5613C109.598 68.2766 107.397 70.4773 104.682 70.4773Z" fill="#CAB999"/>
<path fill-rule="evenodd" clip-rule="evenodd" d="M124.182 113.145C123.343 113.145 122.664 112.465 122.664 111.627C122.664 110.788 123.343 110.109 124.182 110.109C125.02 110.109 125.7 110.788 125.7 111.627C125.7 112.465 125.02 113.145 124.182 113.145Z" fill="#D2C8B4"/>
<path fill-rule="evenodd" clip-rule="evenodd" d="M120.159 73.9367C119.186 73.9367 118.397 73.1484 118.397 72.175C118.397 71.2017 119.186 70.4133 120.159 70.4133C121.132 70.4133 121.921 71.2023 121.921 72.175C121.921 73.1477 121.132 73.9367 120.159 73.9367Z" fill="#CAB999"/>
<path fill-rule="evenodd" clip-rule="evenodd" d="M115.605 71.6068C114.119 71.6068 112.914 70.4018 112.914 68.9152C112.914 67.4287 114.119 66.2237 115.605 66.2237C117.092 66.2237 118.297 67.4287 118.297 68.9152C118.297 70.4018 117.092 71.6068 115.605 71.6068Z" fill="#79756C"/>
<path fill-rule="evenodd" clip-rule="evenodd" d="M111.868 65.841C111.244 65.841 110.739 65.3354 110.739 64.7122C110.739 64.0889 111.244 63.584 111.868 63.584C112.491 63.584 112.996 64.0889 112.996 64.7122C112.996 65.3354 112.491 65.841 111.868 65.841Z" fill="#EDE0C6"/>
<path fill-rule="evenodd" clip-rule="evenodd" d="M98.2531 70.5662C97.6298 70.5662 97.1249 70.0613 97.1249 69.438C97.1249 68.8147 97.6298 68.3098 98.2531 68.3098C98.8764 68.3098 99.3813 68.8147 99.3813 69.438C99.3813 70.0613 98.8764 70.5662 98.2531 70.5662Z" fill="#79756C"/>
<path fill-rule="evenodd" clip-rule="evenodd" d="M78.3551 69.4022C76.8539 69.4022 75.6367 68.1851 75.6367 66.6838C75.6367 65.1825 76.8539 63.9654 78.3551 63.9654C79.8564 63.9654 81.0736 65.1825 81.0736 66.6838C81.0736 68.1851 79.8564 69.4022 78.3551 69.4022Z" fill="#79756C"/>
<path fill-rule="evenodd" clip-rule="evenodd" d="M88.1972 68.1147C85.985 68.1147 84.1919 66.3209 84.1919 64.1093C84.1919 61.8971 85.985 60.104 88.1972 60.104C90.4094 60.104 92.2025 61.8971 92.2025 64.1093C92.2025 66.3209 90.4094 68.1147 88.1972 68.1147Z" fill="#79756C"/>
<path fill-rule="evenodd" clip-rule="evenodd" d="M85.2069 77.6183C84.6053 77.6183 84.1171 77.13 84.1171 76.5285C84.1171 75.9263 84.6047 75.4387 85.2069 75.4387C85.809 75.4387 86.2967 75.9263 86.2967 76.5285C86.2967 77.13 85.8084 77.6183 85.2069 77.6183Z" fill="#79756C"/>
<path fill-rule="evenodd" clip-rule="evenodd" d="M94.1608 70.9105C92.9603 70.9105 91.9863 69.9372 91.9863 68.736C91.9863 67.5349 92.9597 66.5616 94.1608 66.5616C95.362 66.5616 96.3353 67.5349 96.3353 68.736C96.3353 69.9372 95.3613 70.9105 94.1608 70.9105Z" fill="#CAB999"/>
<path fill-rule="evenodd" clip-rule="evenodd" d="M97.5076 66.518C96.9271 66.518 96.4568 66.0477 96.4568 65.4673C96.4568 64.8869 96.9271 64.4165 97.5076 64.4165C98.088 64.4165 98.5583 64.8869 98.5583 65.4673C98.5583 66.0477 98.088 66.518 97.5076 66.518Z" fill="#D2C8B4"/>
<path fill-rule="evenodd" clip-rule="evenodd" d="M116.394 74.9318C115.813 74.9318 115.343 74.4615 115.343 73.8811C115.343 73.3007 115.813 72.8303 116.394 72.8303C116.974 72.8303 117.445 73.3007 117.445 73.8811C117.445 74.4615 116.974 74.9318 116.394 74.9318Z" fill="#D2C8B4"/>
<path opacity="0.77" d="M132.704 85.5163H57.9043V105.65H132.704V85.5163Z" fill="white"/>
<path d="M62.6167 97.545H59.4004V93.7067L54.5689 103.272L49.7547 93.7419V103.18H46.5385V88.0479H50.7479L54.5689 95.6169L58.4079 88.0479H62.6167V97.545Z" fill="#79756C"/>
<path d="M59.3799 101.562C59.3799 102.455 60.1043 103.18 60.9976 103.18C61.8916 103.18 62.6166 102.455 62.6166 101.562C62.6166 100.668 61.8916 99.9435 60.9976 99.9435C60.1043 99.9435 59.3799 100.668 59.3799 101.562Z" fill="#D2C8B4"/>
<path d="M72.9118 103.461C71.783 103.461 70.722 103.242 69.7583 102.81C68.8009 102.383 67.9607 101.801 67.26 101.08C66.5612 100.361 66.007 99.5167 65.6115 98.5702C65.216 97.6257 65.0157 96.6203 65.0157 95.5824C65.0157 94.5623 65.2122 93.564 65.6006 92.6169C65.9884 91.6718 66.5349 90.8245 67.2286 90.0982C67.9255 89.368 68.7638 88.7812 69.7205 88.3537C70.6855 87.923 71.76 87.7048 72.9125 87.7048C74.0253 87.7048 75.078 87.916 76.0405 88.3326C76.9972 88.746 77.8406 89.3181 78.5496 90.0335C79.26 90.7509 79.8199 91.6001 80.2135 92.5587C80.6083 93.5173 80.8092 94.5476 80.8092 95.6208C80.8092 96.6568 80.6083 97.6589 80.2122 98.6009C79.818 99.5391 79.2593 100.378 78.5509 101.093C77.8432 101.808 77.001 102.385 76.0469 102.811C75.0831 103.242 74.0285 103.461 72.9118 103.461ZM72.9118 90.7503C72.1017 90.7503 71.4016 90.9058 70.8321 91.2129C70.2459 91.5284 69.7557 91.929 69.3756 92.4038C68.9923 92.8838 68.7024 93.4136 68.5142 93.98C68.3261 94.5521 68.2308 95.0909 68.2308 95.5836C68.2308 96.0898 68.3261 96.6395 68.5149 97.2167C68.7017 97.7869 68.991 98.3161 69.3737 98.7897C69.7519 99.2562 70.2433 99.651 70.8353 99.9595C71.4131 100.263 72.1107 100.416 72.9112 100.416C73.7233 100.416 74.4246 100.263 74.9955 99.9614C75.581 99.6517 76.0699 99.2575 76.4481 98.7897C76.834 98.3136 77.1232 97.7901 77.3082 97.2334C77.497 96.6677 77.5923 96.1333 77.5923 95.6412C77.5923 95.0877 77.4912 94.5118 77.2915 93.9281C77.0925 93.3522 76.7956 92.8185 76.4052 92.343C76.0206 91.8752 75.5311 91.4887 74.9468 91.1918C74.3728 90.8987 73.6881 90.7503 72.9118 90.7503Z" fill="#79756C"/>
<path d="M71.2935 95.583C71.2935 96.4764 72.0179 97.2014 72.9119 97.2014C73.8058 97.2014 74.5302 96.4764 74.5302 95.583C74.5302 94.689 73.8058 93.964 72.9119 93.964C72.0179 93.964 71.2935 94.689 71.2935 95.583Z" fill="#CAB999"/>
<path d="M87.6514 88.6315V88.0491H88.1352C89.0317 88.0491 89.8317 88.1643 90.5145 88.3928C91.2139 88.6257 91.8058 88.9617 92.2724 89.3904C92.7427 89.8249 93.0998 90.3529 93.3334 90.9589C93.5605 91.5508 93.677 92.1997 93.677 92.887C93.677 93.5884 93.5605 94.2417 93.3327 94.8266C93.0991 95.4275 92.7421 95.9516 92.2724 96.3829C92.0317 96.6043 91.7578 96.8008 91.4532 96.971L93.5458 102.481L93.8453 103.27H90.4473L90.1478 102.481C89.5443 100.893 88.9473 99.3119 88.3553 97.7223C88.2824 97.7236 88.2094 97.7249 88.1352 97.7249H86.7043V103.273H83.488V94.6814H88.1352C88.6388 94.6814 89.0471 94.6186 89.3517 94.4945C89.6486 94.3735 89.8829 94.227 90.046 94.0581C90.2015 93.8974 90.3046 93.7291 90.3615 93.5391C90.4281 93.3157 90.4613 93.0975 90.4613 92.8876C90.4613 92.6784 90.4281 92.4595 90.3615 92.2355C90.3046 92.0461 90.2015 91.8765 90.046 91.7153C89.8809 91.5463 89.6474 91.3992 89.3524 91.2795C89.0477 91.1566 88.6388 91.0939 88.1358 91.0939H87.6521V88.6315H87.6514Z" fill="#79756C"/>
<path d="M83.4873 89.5779C83.4873 90.4713 84.2117 91.1957 85.1057 91.1957C85.999 91.1957 86.7241 90.4713 86.7241 89.5779C86.7241 88.6833 85.999 87.9595 85.1057 87.9595C84.2117 87.9595 83.4873 88.6839 83.4873 89.5779Z" fill="#D2C8B4"/>
<path d="M100.132 103.271H97.4744H96.917V88.0478L105.661 88.0261V91.0709H100.132V100.18H105.661V103.271H100.132Z" fill="#79756C"/>
<path d="M100.877 95.6489C100.877 96.5423 101.602 97.2673 102.496 97.2673C103.39 97.2673 104.114 96.5423 104.114 95.6489C104.114 94.7549 103.39 94.0299 102.496 94.0299C101.602 94.0299 100.877 94.7549 100.877 95.6489Z" fill="#D2C8B4"/>
<path d="M121.763 103.183H118.735L118.564 102.914L112.643 94.0709V97.4657H109.427V87.9595H112.57L112.742 88.2277L118.534 96.8782V87.9954H121.749V93.676H121.763V103.183Z" fill="#79756C"/>
<path d="M109.407 101.565C109.407 102.458 110.132 103.183 111.025 103.183C111.919 103.183 112.644 102.458 112.644 101.565C112.644 100.671 111.919 99.9467 111.025 99.9467C110.132 99.9467 109.407 100.671 109.407 101.565Z" fill="#79756C"/>
<path d="M128.227 92.6656H125.012V103.183H128.227V92.6656Z" fill="#79756C"/>
<path d="M125.044 89.5786C125.044 90.4719 125.769 91.1969 126.662 91.1969C127.556 91.1969 128.281 90.4719 128.281 89.5786C128.281 88.6846 127.556 87.9595 126.662 87.9595C125.769 87.9595 125.044 88.6846 125.044 89.5786Z" fill="#79756C"/>
<path d="M142.692 99.1295H139.262H135.015L133.598 102.894L133.456 103.271H130.045L130.344 102.482L135.683 88.4241L135.825 88.0485H138.471L138.613 88.4241L142.692 99.1295ZM136.142 96.0847H138.155L137.154 93.0706L136.142 96.0847Z" fill="#79756C"/>
<path d="M140.832 101.561C140.832 102.455 141.557 103.18 142.451 103.18C143.344 103.18 144.07 102.455 144.07 101.561C144.07 100.667 143.344 99.9422 142.451 99.9422C141.557 99.9422 140.832 100.667 140.832 101.561Z" fill="#D2C8B4"/>
<path fill-rule="evenodd" clip-rule="evenodd" d="M81.3506 85.5163C82.658 83.91 83.4445 81.8623 83.4445 79.6296C83.4445 74.4749 79.2657 70.2968 74.1117 70.2968C68.9571 70.2968 64.7783 74.4756 64.7783 79.6296C64.7783 81.8623 65.5642 83.91 66.8722 85.5163H81.3506Z" fill="#D2C8B4"/>
<path fill-rule="evenodd" clip-rule="evenodd" d="M86.785 85.5163C86.8016 85.4216 86.8144 85.3256 86.8144 85.2264C86.8144 84.2863 86.0529 83.5248 85.1128 83.5248C84.1728 83.5248 83.4113 84.2863 83.4113 85.2264C83.4113 85.3256 83.4241 85.4216 83.4407 85.5163H86.785Z" fill="#CAB999"/>
<path fill-rule="evenodd" clip-rule="evenodd" d="M101.672 85.5163H104.092C104.424 85.1976 104.633 84.7516 104.633 84.255C104.633 83.288 103.849 82.5035 102.882 82.5035C101.915 82.5035 101.13 83.2874 101.13 84.255C101.13 84.7516 101.34 85.1976 101.672 85.5163Z" fill="#79756C"/>
<path fill-rule="evenodd" clip-rule="evenodd" d="M127.822 85.5163C128.079 84.7445 128.224 83.9216 128.224 83.0634C128.224 78.7765 124.748 75.3011 120.461 75.3011C116.174 75.3011 112.699 78.7765 112.699 83.0634C112.699 83.9216 112.843 84.7445 113.101 85.5163H127.822Z" fill="#D2C8B4"/>
<path fill-rule="evenodd" clip-rule="evenodd" d="M62.6992 105.65C62.6634 105.909 62.639 106.171 62.639 106.441C62.639 109.631 65.225 112.217 68.415 112.217C71.6051 112.217 74.191 109.631 74.191 106.441C74.191 106.172 74.1661 105.909 74.1309 105.65H62.6992Z" fill="#D2C8B4"/>
<path fill-rule="evenodd" clip-rule="evenodd" d="M85.6587 105.65C86.0382 106.13 86.6192 106.443 87.2784 106.443C87.9381 106.443 88.5185 106.13 88.898 105.65H85.6587Z" fill="#EDE0C6"/>
<path fill-rule="evenodd" clip-rule="evenodd" d="M77.2436 105.65C77.0945 105.908 77.0023 106.203 77.0023 106.522C77.0023 107.489 77.7862 108.273 78.7532 108.273C79.7201 108.273 80.5047 107.489 80.5047 106.522C80.5047 106.203 80.4131 105.908 80.2634 105.65H77.2436Z" fill="#79756C"/>
<path fill-rule="evenodd" clip-rule="evenodd" d="M91.4206 105.65C91.1083 106.381 90.9342 107.186 90.9342 108.032C90.9342 111.384 93.652 114.102 97.0052 114.102C100.358 114.102 103.076 111.384 103.076 108.032C103.076 107.186 102.902 106.381 102.589 105.65H91.4206Z" fill="#79756C"/>
<path fill-rule="evenodd" clip-rule="evenodd" d="M121.853 105.65C122.03 107.358 123.457 108.696 125.213 108.696C126.969 108.696 128.396 107.359 128.572 105.65H121.853Z" fill="#CAB999"/>
<path fill-rule="evenodd" clip-rule="evenodd" d="M64.6977 85.5163C64.4769 84.8015 63.8191 84.278 63.032 84.278C62.2448 84.278 61.5863 84.8008 61.3662 85.5163H64.6977Z" fill="#79756C"/>
</g>
<defs>
<filter id="filter0_d" x="0" y="0" width="190" height="190" filterUnits="userSpaceOnUse" color-interpolation-filters="sRGB">
<feFlood flood-opacity="0" result="BackgroundImageFix"/>
<feColorMatrix in="SourceAlpha" type="matrix" values="0 0 0 0 0 0 0 0 0 0 0 0 0 0 0 0 0 0 127 0"/>
<feOffset/>
<feGaussianBlur stdDeviation="12.5"/>
<feColorMatrix type="matrix" values="0 0 0 0 0 0 0 0 0 0 0 0 0 0 0 0 0 0 0.05 0"/>
<feBlend mode="normal" in2="BackgroundImageFix" result="effect1_dropShadow"/>
<feBlend mode="normal" in="SourceGraphic" in2="effect1_dropShadow" result="shape"/>
</filter>
<clipPath id="clip0">
<rect width="97.5311" height="70" fill="white" transform="translate(46.5385 59.4615)"/>
</clipPath>
</defs>
</svg>
