<svg width="55" height="53" viewBox="0 0 55 53" fill="none" xmlns="http://www.w3.org/2000/svg">
<g clip-path="url(#clip0)">
<path d="M27.5 52.9428C42.6878 52.9428 55 41.0912 55 26.4714C55 11.8517 42.6878 0 27.5 0C12.3122 0 0 11.8517 0 26.4714C0 41.0912 12.3122 52.9428 27.5 52.9428Z" fill="#99C32F"/>
<path d="M13.6807 18.4576C14.6211 18.9817 15.512 19.3343 16.5217 19.2771C16.7692 19.258 17.0167 19.2294 17.2345 19.1056C17.8086 18.7911 17.8482 18.105 17.3137 17.7239C16.9969 17.5047 16.6207 17.438 16.2644 17.3237C15.2249 16.9997 14.2845 16.5137 13.9578 15.4369C13.4233 13.6741 14.3835 12.016 16.7098 11.8445C17.5018 11.7873 18.2838 11.9303 19.0361 12.1971C19.2935 12.2924 19.4321 12.4067 19.2935 12.6831C19.2638 12.7402 19.2737 12.8069 19.2638 12.8736C19.1648 13.2548 19.1945 13.7789 18.947 13.9885C18.6699 14.2267 18.2343 13.8075 17.8383 13.7598C17.4127 13.7027 16.987 13.6455 16.5712 13.7884C16.2842 13.8837 16.0961 14.0743 16.0466 14.3697C16.007 14.6746 16.1654 14.9033 16.4326 15.0367C16.6801 15.1606 16.9375 15.2559 17.2048 15.3416C17.6107 15.4655 18.0165 15.5989 18.3927 15.7895C19.6598 16.447 20.1943 17.5333 19.9469 18.934C19.7489 20.0775 18.8481 20.8494 17.482 21.0685C16.3634 21.2496 15.2843 21.1066 14.2449 20.6969C14.0271 20.6111 13.8786 20.5063 13.849 20.2681C13.7995 19.6964 13.7401 19.1246 13.6807 18.4576Z" fill="#13133B"/>
<path d="M28.975 18.677C28.975 18.0385 28.9552 17.4096 28.9849 16.7712C29.0047 16.4281 28.9057 16.2566 28.5196 16.3233C28.0841 16.3995 27.9059 16.228 27.9851 15.8087C28.0049 15.6849 27.9851 15.5515 27.9851 15.4276C27.995 15.1798 27.9257 14.8749 28.0445 14.6843C28.1732 14.4747 28.4998 14.6081 28.7374 14.5986C28.9948 14.589 28.975 14.4366 28.975 14.2746C28.975 13.9125 28.9849 13.5504 29.0542 13.1883C29.2819 11.9686 30.153 11.13 31.43 10.9871C32.014 10.9204 32.608 10.9395 33.202 11.0538C33.5187 11.111 33.5781 11.2634 33.4989 11.5207C33.4692 11.616 33.4395 11.7018 33.4197 11.7971C33.3405 12.102 33.3504 12.4831 33.1624 12.7023C32.9545 12.9596 32.5882 12.6451 32.2813 12.6642C31.6379 12.7023 31.2221 13.0072 31.133 13.6266C31.1033 13.8267 31.1231 14.0364 31.1033 14.246C31.0736 14.5128 31.1726 14.6176 31.4597 14.6081C31.8557 14.589 32.2516 14.6176 32.6476 14.5986C32.9644 14.5795 33.0238 14.6939 32.9149 14.9511C32.8951 15.0083 32.8951 15.075 32.8753 15.1417C32.7763 15.5133 32.7862 15.9612 32.5585 16.2185C32.311 16.5044 31.8161 16.3138 31.43 16.3233C31.1033 16.3328 31.1033 16.4948 31.1033 16.7235C31.1033 18.0099 31.0934 19.2963 31.1132 20.5732C31.1231 20.9544 30.9845 21.0782 30.6084 21.0497C30.2025 21.0211 29.7867 21.0306 29.371 21.0497C29.0443 21.0687 28.9453 20.9448 28.9552 20.6304C28.9849 19.9729 28.975 19.3249 28.975 18.677Z" fill="#13133B"/>
<path d="M7.97883 28.6252C7.97883 28.1964 7.95903 27.7676 7.98873 27.3388C8.00853 27.0148 7.87984 26.9386 7.56306 26.9481C6.87012 26.9576 6.87012 26.9386 6.87012 26.262C6.87012 26.1858 6.87012 26.1 6.87012 26.0238C6.87012 25.2805 6.87012 25.271 7.66205 25.2329C7.92933 25.2234 7.97883 25.1185 7.98873 24.8898C8.02832 23.8226 8.03822 23.8226 9.08754 23.4605C10.1567 23.0889 10.1567 23.0889 10.1567 24.1752C10.1567 25.2329 10.1567 25.2329 11.2654 25.2329C12.2751 25.2329 12.2751 25.2329 12.0573 26.1858C12.0276 26.3287 11.9781 26.4621 11.9583 26.605C11.9385 26.8814 11.79 26.9957 11.5029 26.9576C11.4733 26.9576 11.4337 26.9576 11.404 26.9576C10.9981 26.9957 10.4833 26.7861 10.226 27.0529C9.98837 27.2911 10.1666 27.7771 10.1567 28.1583C10.1468 28.4727 10.1567 28.7967 10.1567 29.1112C10.1567 29.8449 10.3843 30.0831 11.1169 30.0259C11.5425 29.9878 11.592 30.1403 11.5326 30.4643C11.5029 30.6358 11.4733 30.8073 11.4535 30.9788C11.3743 31.6554 11.3248 31.703 10.612 31.7221C10.127 31.7411 9.6617 31.7221 9.20633 31.541C8.42429 31.2266 8.01843 30.6739 7.97883 29.8639C7.96893 29.4542 7.97883 29.0445 7.97883 28.6252Z" fill="#13133B"/>
<path d="M43.8931 29.473C44.5266 29.797 45.0909 30.1019 45.7541 30.121C45.9224 30.1305 46.0907 30.1305 46.2491 30.1019C46.4372 30.0638 46.5758 29.959 46.5956 29.7494C46.6055 29.5588 46.4966 29.4444 46.3382 29.3777C46.1105 29.2824 45.8729 29.2157 45.6452 29.1395C44.3979 28.7107 43.8634 27.9484 44.0218 26.8049C44.1504 25.8615 45.0216 25.1755 46.2095 25.0802C46.8727 25.0325 47.5162 25.1469 48.1596 25.3279C48.4071 25.4042 48.516 25.4994 48.417 25.7758C48.3081 26.0902 48.2388 26.4238 48.1794 26.7477C48.1398 26.9669 48.0408 27.005 47.8429 26.9097C47.4766 26.7573 47.1004 26.6524 46.6945 26.6715C46.4471 26.681 46.2194 26.7287 46.1897 27.0145C46.16 27.2718 46.3481 27.3766 46.5659 27.4433C46.8628 27.5386 47.1697 27.6149 47.4568 27.7387C48.4269 28.1294 48.9417 28.9013 48.8625 29.8161C48.7734 30.7594 48.1794 31.4264 47.1598 31.6742C46.2392 31.8934 45.3285 31.7981 44.4474 31.4741C44.2692 31.4074 44.1009 31.3407 44.0812 31.1311C44.002 30.607 43.9525 30.0733 43.8931 29.473Z" fill="#13133B"/>
<path d="M28.8265 28.7585C29.1928 27.796 29.5096 26.9099 29.8659 26.0332C30.252 25.0517 29.9649 25.2518 31.0538 25.2328C32.212 25.2232 32.212 25.2328 31.7963 26.2809C31.133 27.9485 30.4599 29.6161 29.8065 31.2932C29.6778 31.6172 29.5096 31.722 29.1631 31.7124C28.0049 31.7029 28.0049 31.7124 27.5891 30.6738C26.9358 29.0157 26.2824 27.3577 25.6093 25.7092C25.4509 25.328 25.5103 25.2042 25.9458 25.2328C26.4705 25.2709 27.0942 25.0994 27.4901 25.3185C27.896 25.5472 27.9158 26.2047 28.1039 26.6716C28.3712 27.3291 28.6384 27.9866 28.8265 28.7585Z" fill="#13133B"/>
<path d="M40.0523 25.8903C40.0523 24.5944 40.0622 23.2889 40.0424 21.993C40.0424 21.669 40.1216 21.5356 40.4779 21.5547C40.9036 21.5832 41.3391 21.5832 41.7648 21.5547C42.1509 21.5261 42.2301 21.6785 42.2301 22.0216C42.2202 24.3657 42.2301 26.7193 42.2202 29.0635C42.2202 29.578 42.2796 30.0259 42.9131 30.1498C43.1012 30.1879 43.0814 30.3022 43.022 30.4356C42.8339 30.8549 42.6359 31.2742 42.4578 31.703C42.3786 31.8936 42.24 31.9031 42.0618 31.884C40.8343 31.7506 40.0919 30.9978 40.0721 29.7972C40.0424 28.4917 40.0622 27.1863 40.0523 25.8903Z" fill="#13133B"/>
<path d="M16.1159 26.3955C16.502 25.6236 17.0069 25.1948 17.779 25.1091C17.878 25.0995 17.977 25.0805 18.076 25.09C18.6204 25.1186 18.66 25.1758 18.5412 25.6808C18.4224 26.1572 18.2938 26.6337 18.1948 27.1101C18.1453 27.3293 18.1255 27.4246 17.8285 27.3674C16.7495 27.1578 16.1852 27.6247 16.1753 28.6729C16.1654 29.5305 16.1654 30.3881 16.1852 31.2457C16.1951 31.5602 16.0763 31.6554 15.7596 31.6364C15.2844 31.6173 14.7993 31.6173 14.3242 31.6364C14.0569 31.6459 13.948 31.5792 13.948 31.2933C13.9579 29.3876 13.9579 27.4913 13.948 25.5855C13.948 25.2711 14.0767 25.2139 14.3638 25.2234C14.8092 25.2425 15.2547 25.252 15.7002 25.2234C16.0565 25.2043 16.1753 25.3282 16.1357 25.6617C16.0961 25.8523 16.1159 26.0524 16.1159 26.3955Z" fill="#13133B"/>
<path d="M38.3397 18.3907C38.8841 18.3907 39.7256 17.6189 39.7553 17.0948C39.8246 15.8846 39.0128 14.8078 37.7358 14.5029C36.3796 14.1789 35.1224 14.4267 34.1721 15.4558C33.1822 16.523 33.0535 17.819 33.5683 19.1149C34.4592 21.3637 37.1518 21.5924 38.9237 20.8873C39.0524 20.8396 39.1019 20.7539 39.1118 20.6395C39.1712 20.125 39.2306 19.6104 39.29 19.0768C37.0429 19.6676 36.0332 19.4961 35.5382 18.4002C36.4984 18.3907 37.4191 18.3907 38.3397 18.3907ZM36.5776 16.9709C36.3004 16.9709 36.0233 16.9709 35.7362 16.9709C35.5778 16.9709 35.5184 16.9137 35.5877 16.7708C35.7758 16.3515 36.0926 16.0752 36.5677 15.9989C37.0231 15.9322 37.3795 16.0847 37.5972 16.4754C37.7952 16.828 37.716 16.9614 37.3102 16.9709C37.0726 16.9709 36.8251 16.9709 36.5776 16.9709Z" fill="#13133B"/>
<path d="M34.766 29.0919C34.7957 29.0729 34.8155 29.0443 34.8452 29.0443C35.7064 29.0348 36.5578 29.0348 37.419 29.0348C38.2109 29.0348 39.0425 28.1581 38.9534 27.3958C38.8445 26.481 38.3792 25.7854 37.5279 25.3566C36.1618 24.6705 34.3106 24.9945 33.3207 26.0999C32.2714 27.2624 32.1922 29.1682 33.1326 30.4355C34.3304 32.065 36.5974 32.065 38.0525 31.5218C38.1614 31.4837 38.2703 31.4361 38.2802 31.3027C38.3495 30.7595 38.4089 30.2259 38.4881 29.6542C36.5578 30.3593 35.1719 30.1306 34.766 29.0919ZM34.8749 27.1957C35.1224 26.805 35.5085 26.5858 35.9737 26.5954C36.3499 26.6049 36.6568 26.805 36.8151 27.1576C36.9537 27.453 36.9339 27.6435 36.5182 27.615C36.2707 27.5959 36.0232 27.615 35.7856 27.615C35.5579 27.615 35.3303 27.6245 35.1026 27.615C34.9838 27.6054 34.8155 27.6817 34.7561 27.5387C34.6967 27.4148 34.8056 27.3005 34.8749 27.1957Z" fill="#13133B"/>
<path d="M26.7674 18.6769C26.7971 18.0289 26.7773 17.3714 26.7674 16.7235C26.7476 15.6372 26.1735 14.8939 25.0944 14.5699C24.154 14.2841 23.2037 14.3317 22.2732 14.5795C21.3723 14.8272 21.3525 14.8558 21.5604 15.7134C21.7485 16.4853 21.7485 16.4853 22.5009 16.247C22.6394 16.1994 22.7879 16.1517 22.9265 16.1327C23.372 16.0755 23.8174 16.0183 24.2431 16.1613C24.5005 16.247 24.6589 16.4281 24.6193 16.7044C24.5797 16.9712 24.3322 16.8664 24.1837 16.895C23.5403 17.0093 22.8671 16.9712 22.2633 17.2762C21.501 17.6668 21.0556 18.2672 21.0655 19.1057C21.0655 19.9633 21.4713 20.6589 22.3029 21.0115C23.1344 21.3641 23.9857 21.3545 24.7282 20.7923C24.9955 20.5922 25.0747 20.6113 25.2726 20.84C25.6983 21.345 25.9854 21.345 26.51 20.9448C26.8466 20.6875 27.1733 20.4302 27.5693 20.1253C26.906 19.8109 26.7476 19.2963 26.7674 18.6769ZM23.8076 19.6584C23.4017 19.6775 23.1344 19.525 23.1047 19.1057C23.0651 18.5912 23.4215 18.3243 24.2728 18.2767C24.4411 18.2481 24.6391 18.1909 24.6391 18.534C24.6589 19.2201 24.3817 19.6298 23.8076 19.6584Z" fill="#13133B"/>
<path d="M24.9064 29.349C24.8965 28.701 24.9064 28.0435 24.9064 27.3955C24.9064 26.2044 24.3125 25.4612 23.1147 25.1562C22.1842 24.918 21.2536 24.9657 20.3429 25.242C19.5114 25.4898 19.5114 25.4993 19.7193 26.2807C19.7688 26.4617 19.838 26.6428 19.8578 26.8333C19.8875 27.1287 19.9964 27.1668 20.2637 27.0334C20.7884 26.7762 21.3427 26.6618 21.9367 26.6904C22.204 26.6999 22.4613 26.7571 22.6593 26.9477C22.7781 27.062 22.8573 27.2145 22.8177 27.3765C22.7682 27.5671 22.59 27.5194 22.4514 27.5385C22.0555 27.5861 21.6595 27.6052 21.2734 27.6528C20.135 27.8053 19.3134 28.5771 19.254 29.5491C19.1847 30.6544 19.7787 31.5311 20.8379 31.7693C21.709 31.9694 22.5405 31.8837 23.184 31.1785C23.3622 31.4072 23.5206 31.6359 23.7878 31.7598C23.9858 31.8551 24.164 32.0076 24.4115 31.7979C24.8173 31.4549 25.2529 31.1404 25.7479 30.7497C25.0648 30.4543 24.9163 29.9302 24.9064 29.349ZM22.3227 30.1971C21.9169 30.4067 21.4813 30.2923 21.313 29.9398C21.1447 29.5967 21.3328 29.1489 21.7387 28.9964C22.0159 28.8916 22.3128 28.8725 22.6098 28.8725C22.9662 28.863 22.7781 29.1393 22.8375 29.2823C22.8177 29.673 22.6989 30.0065 22.3227 30.1971Z" fill="#13133B"/>
<path d="M45.8036 35.7241H27.8563V53.0001H45.8036V35.7241Z" fill="#13123A"/>
<path d="M30.4598 41.2412C30.5687 41.2412 30.6974 41.2508 30.8162 41.2508C30.935 41.2508 31.0538 41.2508 31.1726 41.2412V41.3175H31.1231C31.0538 41.3175 30.9944 41.3365 30.9944 41.4127C30.9944 41.4413 31.0142 41.4794 31.034 41.5366L31.4399 42.6324H31.4498L31.915 41.2222H32.0041L32.4991 42.6229H32.509L32.8554 41.6414C32.8752 41.5938 32.9049 41.489 32.9049 41.4318C32.9049 41.3556 32.8653 41.327 32.7762 41.327H32.707V41.2508C32.7861 41.2508 32.9049 41.2603 33.0039 41.2603C33.1029 41.2603 33.2019 41.2603 33.3009 41.2508V41.327H33.2613C33.1524 41.327 33.093 41.3556 33.0435 41.489L32.4991 43.0041H32.41L31.915 41.6033H31.9051L31.4399 43.0041H31.3508L30.7667 41.4985C30.7172 41.3556 30.6281 41.327 30.5291 41.327H30.4796L30.4598 41.2412Z" fill="white"/>
<path d="M34.1919 41.2129C34.7363 41.2129 35.2115 41.6036 35.2115 42.1086C35.2115 42.5374 34.8353 43.0043 34.182 43.0043C33.588 43.0043 33.1624 42.6136 33.1624 42.1277C33.1723 41.5845 33.6573 41.2129 34.1919 41.2129ZM34.1919 41.3177C33.8058 41.3177 33.4494 41.5273 33.4494 42.0895C33.4494 42.4802 33.7365 42.909 34.2117 42.909C34.7165 42.909 34.9541 42.585 34.9541 42.1372C34.9442 41.7465 34.667 41.3177 34.1919 41.3177Z" fill="white"/>
<path d="M35.2709 42.8992H35.3204C35.4491 42.8992 35.4986 42.8611 35.4986 42.6991V41.5176C35.4986 41.3556 35.4491 41.3174 35.3204 41.3174H35.2709V41.2412C35.3699 41.2412 35.4986 41.2507 35.6272 41.2507C35.8054 41.2507 35.944 41.2412 36.0628 41.2412C36.5479 41.2412 36.637 41.5747 36.637 41.6891C36.637 42.0035 36.3895 42.1083 36.241 42.1369L36.6073 42.6706C36.7558 42.8897 36.8053 42.8992 37.023 42.9183V42.966C36.9735 42.966 36.924 42.966 36.8647 42.966C36.6271 42.966 36.5083 42.9374 36.3697 42.7277L36.0529 42.2608C35.9836 42.175 35.9539 42.1655 35.746 42.156V42.6134C35.746 42.8421 35.7955 42.8707 35.9044 42.8707H35.9836V42.9469C35.8648 42.9469 35.746 42.9374 35.6272 42.9374C35.5085 42.9374 35.3699 42.9374 35.2709 42.9469V42.8992ZM35.746 42.0702C35.7955 42.0798 35.8648 42.0893 35.9341 42.0893C36.1816 42.0893 36.3796 41.9845 36.3796 41.7367C36.3796 41.6319 36.3004 41.3365 35.9143 41.3365C35.845 41.3365 35.7955 41.3365 35.746 41.346V42.0702Z" fill="white"/>
<path d="M37.1121 42.8992H37.1616C37.2902 42.8992 37.3397 42.8611 37.3397 42.6991V41.5176C37.3397 41.3556 37.2902 41.3174 37.1616 41.3174H37.1121V41.2412C37.2111 41.2412 37.3397 41.2507 37.4684 41.2507C37.5872 41.2507 37.706 41.2507 37.8347 41.2412V41.3174H37.7654C37.6367 41.3174 37.5872 41.3556 37.5872 41.5176V42.642C37.5872 42.823 37.6268 42.8897 37.9634 42.8897C38.4089 42.8897 38.4683 42.823 38.5177 42.5467H38.6068L38.587 42.9755C38.3495 42.9755 38.0327 42.9659 37.7951 42.9659C37.4783 42.9659 37.2111 42.966 37.1121 42.9755V42.8992Z" fill="white"/>
<path d="M38.7157 42.8993H38.7652C38.8939 42.8993 38.9434 42.8611 38.9434 42.6991V41.5176C38.9434 41.3556 38.8939 41.3174 38.7652 41.3174H38.7157V41.2412C38.8147 41.2412 38.9434 41.2507 39.0721 41.2507C39.2899 41.2507 39.5175 41.2412 39.7353 41.2412C40.4778 41.2412 40.7351 41.7748 40.7351 42.0798C40.7351 42.4323 40.4778 42.9564 39.6363 42.9564C39.468 42.9564 39.2701 42.9469 39.0721 42.9469C38.9533 42.9469 38.8147 42.9469 38.7157 42.9564V42.8993ZM39.181 42.6515C39.181 42.8421 39.2701 42.8707 39.5769 42.8707C40.062 42.8707 40.458 42.6896 40.458 42.1465C40.458 41.7939 40.2105 41.3174 39.5274 41.3174C39.4086 41.3174 39.2997 41.327 39.181 41.3365V42.6515Z" fill="white"/>
<path d="M31.0242 45.1007H31.0934C31.2419 45.1007 31.2716 45.0721 31.2716 44.872V43.5474H30.9549C30.6579 43.5474 30.6282 43.6999 30.6084 43.8905H30.5193V43.4521C30.5985 43.4521 31.0341 43.4617 31.3904 43.4617C31.7171 43.4617 32.1725 43.4617 32.2616 43.4521V43.8905H32.1725C32.1527 43.6999 32.123 43.5474 31.826 43.5474H31.5092V44.872C31.5092 45.0721 31.5389 45.1007 31.6874 45.1007H31.7567V45.1769C31.6478 45.1769 31.5389 45.1674 31.4003 45.1674C31.2617 45.1674 31.1429 45.1674 31.044 45.1769L31.0242 45.1007Z" fill="white"/>
<path d="M32.4001 45.1007H32.4496C32.5783 45.1007 32.6278 45.0625 32.6278 44.9006V43.719C32.6278 43.557 32.5783 43.5189 32.4496 43.5189H32.4001V43.4521C32.4991 43.4521 32.6278 43.4617 32.7565 43.4617C32.9347 43.4617 33.0733 43.4521 33.1921 43.4521C33.6771 43.4521 33.7662 43.7857 33.7662 43.9C33.7662 44.2145 33.5188 44.3193 33.3703 44.3479L33.7365 44.8815C33.885 45.1007 33.9345 45.0816 34.1523 45.1007V45.1483C34.1127 45.1578 34.0236 45.1674 33.9741 45.1674C33.7761 45.1769 33.6475 45.1483 33.5089 44.9387L33.1921 44.4717C33.1228 44.386 33.0931 44.3765 32.8852 44.3669V44.8243C32.8852 45.053 32.9347 45.0816 33.0436 45.0816H33.1228V45.1578C33.004 45.1578 32.8852 45.1483 32.7664 45.1483C32.6476 45.1483 32.509 45.1483 32.41 45.1578V45.1007H32.4001ZM32.8753 44.2812C32.9248 44.2907 32.9941 44.3002 33.0634 44.3002C33.3109 44.3002 33.5089 44.1954 33.5089 43.9477C33.5089 43.8428 33.4297 43.5474 33.0436 43.5474C32.9743 43.5474 32.9248 43.5474 32.8753 43.557V44.2812Z" fill="white"/>
<path d="M33.974 45.1007H34.0037C34.1522 45.1007 34.2116 45.0435 34.3007 44.8339L34.9244 43.376H34.9739L35.6767 44.8625C35.746 45.0054 35.8252 45.1007 35.9539 45.1007H36.0133V45.1769C35.9044 45.1769 35.7856 45.1674 35.6371 45.1674C35.4886 45.1674 35.3599 45.1674 35.2609 45.1769V45.1007H35.3302C35.4193 45.1007 35.4688 45.0721 35.4688 45.0245C35.4688 44.9864 35.4391 44.9197 35.4292 44.9006L35.2312 44.4623H34.5878L34.4393 44.8434C34.4195 44.8911 34.3898 44.9673 34.3898 45.015C34.3898 45.0626 34.4195 45.0912 34.4987 45.0912H34.5581V45.1674C34.4591 45.1674 34.3502 45.1579 34.2215 45.1579C34.1126 45.1579 34.0136 45.1579 33.9443 45.1674L33.974 45.1007ZM34.8947 43.7095L34.6373 44.3765H35.2015L34.8947 43.7095Z" fill="white"/>
<path d="M35.4589 43.4521C35.5678 43.4521 35.7064 43.4617 35.8351 43.4617C35.9637 43.4617 36.0924 43.4617 36.2112 43.4521V43.5284H36.1716C36.0429 43.5284 36.0033 43.576 36.0033 43.6332C36.0033 43.6808 36.0231 43.719 36.0627 43.8142L36.5676 44.9196L37.1022 43.7952C37.1319 43.7285 37.1616 43.6523 37.1616 43.6046C37.1616 43.557 37.1121 43.5379 37.0527 43.5379H37.0032V43.4521C37.0923 43.4521 37.1913 43.4617 37.2902 43.4617C37.3892 43.4617 37.4882 43.4617 37.5773 43.4521V43.5284H37.5278C37.4288 43.5284 37.3595 43.557 37.2605 43.7571L36.5478 45.215H36.4389L35.7361 43.7285C35.6668 43.576 35.6173 43.5284 35.4886 43.5284H35.4391L35.4589 43.4521Z" fill="white"/>
<path d="M37.6665 45.1007H37.716C37.8447 45.1007 37.8942 45.0625 37.8942 44.9006V43.719C37.8942 43.557 37.8447 43.5189 37.716 43.5189H37.6665V43.4521C37.7556 43.4521 38.0724 43.4617 38.3397 43.4617C38.6663 43.4617 38.795 43.4617 38.9831 43.4521C38.993 43.6046 38.993 43.7285 39.0128 43.8619H38.9336C38.9039 43.6904 38.8841 43.5474 38.399 43.5474H38.1417V44.2335H38.3792C38.7158 44.2335 38.7257 44.1859 38.7356 44.0429H38.8148C38.8148 44.1001 38.8049 44.1764 38.8049 44.2812C38.8049 44.3765 38.8049 44.4527 38.8148 44.5003H38.7356C38.7257 44.3765 38.7158 44.3288 38.4089 44.3288H38.1516V44.9101C38.1516 45.053 38.211 45.0911 38.3891 45.0911H38.4683C38.9237 45.0911 39.0524 45.0149 39.092 44.7481H39.1712C39.1514 44.9006 39.1316 45.034 39.1217 45.1864C38.9534 45.1864 38.6663 45.1769 38.3693 45.1769C38.0328 45.1769 37.7853 45.1769 37.6962 45.1864V45.1102H37.6665V45.1007Z" fill="white"/>
<path d="M39.2701 45.1007H39.3196C39.4483 45.1007 39.4978 45.0625 39.4978 44.9006V43.719C39.4978 43.557 39.4483 43.5189 39.3196 43.5189H39.2701V43.4521C39.3691 43.4521 39.4978 43.4617 39.6265 43.4617C39.7453 43.4617 39.8641 43.4617 39.9928 43.4521V43.5284H39.9235C39.7948 43.5284 39.7453 43.5665 39.7453 43.7285V44.8529C39.7453 45.034 39.7849 45.1007 40.1215 45.1007C40.5669 45.1007 40.6263 45.034 40.6758 44.7576H40.7649L40.755 45.1864C40.5174 45.1864 40.2007 45.1769 39.9631 45.1769C39.6463 45.1769 39.379 45.1769 39.28 45.1864L39.2701 45.1007Z" fill="white"/>
<path d="M42.329 44.2524C42.4082 44.2524 42.4676 44.2619 42.5765 44.2619C42.7447 44.2619 42.8338 44.2619 42.913 44.2524V44.3286C42.7249 44.3286 42.6952 44.3476 42.6754 44.5287C42.6655 44.5859 42.6259 44.7479 42.5765 44.8527C42.7942 45.0909 42.8635 45.11 43.1011 45.11V45.1862C43.0417 45.1862 42.9724 45.1767 42.9031 45.1767C42.7843 45.1767 42.6952 45.1767 42.616 45.1862L42.4478 45.0242C42.3686 45.11 42.1805 45.2148 41.8736 45.2148C41.5172 45.2148 41.2896 45.0051 41.2896 44.7669C41.2896 44.5763 41.438 44.4334 41.6954 44.2905C41.5667 44.1666 41.438 44.0522 41.438 43.8712C41.438 43.6044 41.6855 43.4233 41.933 43.4233C42.1409 43.4233 42.3785 43.5472 42.3785 43.7664C42.3785 43.957 42.23 44.0618 41.933 44.2238L42.5171 44.786C42.5567 44.7193 42.5765 44.5954 42.5765 44.5001C42.5765 44.3476 42.4874 44.3381 42.3389 44.3381L42.329 44.2524ZM41.7449 44.3286C41.5667 44.4334 41.5073 44.5573 41.5073 44.6907C41.5073 44.8717 41.6954 45.11 42.0122 45.11C42.1706 45.11 42.329 45.0337 42.3884 44.9575L41.7449 44.3286ZM41.8538 43.5091C41.7251 43.5091 41.5667 43.6234 41.5865 43.7854C41.5964 43.9093 41.8439 44.138 41.8736 44.1666C42.0419 44.0618 42.1607 43.976 42.1607 43.8236C42.1706 43.6997 42.0815 43.5091 41.8538 43.5091Z" fill="white"/>
<path d="M31.0242 47.3111H31.0934C31.2419 47.3111 31.2716 47.2825 31.2716 47.0824V45.7579H30.9549C30.6579 45.7579 30.6282 45.9103 30.6084 46.1009H30.5193V45.6626C30.5985 45.6626 31.0341 45.6721 31.3904 45.6721C31.7171 45.6721 32.1725 45.6721 32.2616 45.6626V46.1009H32.1725C32.1527 45.9103 32.123 45.7579 31.826 45.7579H31.5092V47.0824C31.5092 47.2825 31.5389 47.3111 31.6874 47.3111H31.7567V47.3873C31.6478 47.3873 31.5389 47.3778 31.4003 47.3778C31.2617 47.3778 31.1429 47.3778 31.044 47.3873L31.0242 47.3111Z" fill="white"/>
<path d="M33.3108 45.6245C33.8552 45.6245 34.3304 46.0152 34.3304 46.5202C34.3304 46.949 33.9542 47.416 33.3009 47.416C32.7069 47.416 32.2812 47.0253 32.2812 46.5393C32.2812 45.9961 32.7762 45.6245 33.3108 45.6245ZM33.3009 45.7293C32.9148 45.7293 32.5584 45.939 32.5584 46.4916C32.5584 46.8823 32.8455 47.3111 33.3207 47.3111C33.8255 47.3111 34.0631 46.9872 34.0631 46.5393C34.0631 46.1581 33.7859 45.7293 33.3009 45.7293Z" fill="white"/>
<path d="M35.0432 45.7293H34.9937C34.8848 45.7293 34.8254 45.7674 34.8254 45.9675C34.8254 46.2248 34.8155 46.4821 34.8155 46.7299C34.8155 46.9395 34.8551 47.0348 34.9244 47.1205C35.0135 47.2349 35.1521 47.3111 35.3797 47.3111C35.6272 47.3111 35.8252 47.1872 35.8945 47.1015C35.9836 46.9871 36.0232 46.8442 36.0232 46.6727V46.4154C36.0232 46.0914 35.9935 45.8341 35.9737 45.7865C35.944 45.7293 35.9143 45.7198 35.845 45.7198H35.7856V45.6436C35.8648 45.6436 35.9737 45.6531 36.0727 45.6531C36.1717 45.6531 36.2707 45.6531 36.3697 45.6436V45.7198H36.3301C36.2311 45.7198 36.1618 45.7579 36.1618 45.9866V46.6155C36.1618 46.8728 36.0925 47.0729 35.944 47.2158C35.8252 47.3302 35.5876 47.4159 35.3698 47.4159C35.1719 47.4159 35.0135 47.3683 34.8353 47.2539C34.6472 47.1301 34.5779 46.93 34.5779 46.6822V45.9199C34.5779 45.7674 34.4987 45.7293 34.3997 45.7293H34.3502V45.6531C34.4591 45.6531 34.5779 45.6626 34.7066 45.6626C34.8254 45.6626 34.9442 45.6626 35.0531 45.6531L35.0432 45.7293Z" fill="white"/>
<path d="M36.5182 47.3114H36.5677C36.6964 47.3114 36.7459 47.2732 36.7459 47.1112V45.9297C36.7459 45.7677 36.6964 45.7296 36.5677 45.7296H36.5182V45.6533C36.6172 45.6533 36.7459 45.6628 36.8746 45.6628C37.0527 45.6628 37.1913 45.6533 37.3101 45.6533C37.7952 45.6533 37.8843 45.9868 37.8843 46.1012C37.8843 46.4156 37.6368 46.5205 37.4883 46.549L37.8546 47.0827C38.0031 47.3018 38.0526 47.3114 38.2704 47.3304V47.3781C38.2209 47.3781 38.1714 47.3781 38.112 47.3781C37.8744 47.3781 37.7556 47.3495 37.617 47.1398L37.3002 46.6729C37.2309 46.5872 37.2012 46.5776 36.9934 46.5681V47.0255C36.9934 47.2542 37.0428 47.2828 37.1517 47.2828H37.2309V47.359C37.1121 47.359 36.9934 47.3495 36.8746 47.3495C36.7558 47.3495 36.6172 47.3495 36.5182 47.359V47.3114ZM36.9934 46.4823C37.0428 46.4919 37.1121 46.5014 37.1814 46.5014C37.4289 46.5014 37.6269 46.3966 37.6269 46.1488C37.6269 46.044 37.5477 45.7486 37.1616 45.7486C37.0923 45.7486 37.0428 45.7486 36.9934 45.7581V46.4823Z" fill="white"/>
<path d="M38.3396 47.3114H38.3891C38.5178 47.3114 38.5673 47.2733 38.5673 47.1113V45.9297C38.5673 45.7677 38.5178 45.7296 38.3891 45.7296H38.3396V45.6533C38.4386 45.6533 38.5673 45.6628 38.696 45.6628C38.8148 45.6628 38.9336 45.6628 39.0523 45.6533V45.7296H39.0028C38.8742 45.7296 38.8247 45.7677 38.8247 45.9297V47.1113C38.8247 47.2637 38.8742 47.3114 39.0028 47.3114H39.0523V47.3876C38.9336 47.3876 38.8247 47.3781 38.696 47.3781C38.5673 47.3781 38.4386 47.3781 38.3396 47.3876V47.3114Z" fill="white"/>
<path d="M40.3888 46.1012H40.2997C40.2997 46.025 40.27 45.72 39.8641 45.72C39.6364 45.72 39.4879 45.8439 39.4879 46.0059C39.4879 46.1488 39.5671 46.2441 39.7948 46.3394L40.0423 46.4442C40.2403 46.5205 40.4482 46.6539 40.4482 46.8921C40.4482 47.197 40.2205 47.4162 39.7651 47.4162C39.7255 47.4162 39.4781 47.4162 39.2702 47.359L39.2603 46.9588H39.3395C39.3593 47.178 39.577 47.34 39.8047 47.34C40.0423 47.34 40.2403 47.2161 40.2403 47.016C40.2403 46.8063 40.0522 46.7206 39.9037 46.6539L39.6067 46.53C39.3989 46.4442 39.2504 46.3108 39.2504 46.1107C39.2504 45.863 39.4879 45.6343 39.8641 45.6343C40.0324 45.6343 40.2106 45.6724 40.3789 45.701L40.3888 46.1012Z" fill="white"/>
<path d="M40.656 47.3111H40.7055C40.8342 47.3111 40.8837 47.2539 40.8936 46.9585C40.9035 46.625 40.9233 46.282 40.9233 45.9389C40.9233 45.7769 40.8738 45.7388 40.7253 45.7388H40.6758V45.6626C40.7649 45.6626 40.8243 45.6721 40.9134 45.6721C40.9926 45.6721 41.1015 45.6721 41.1312 45.6626L41.8835 47.0824L42.5468 45.6626C42.6359 45.6626 42.7151 45.6721 42.7943 45.6721C42.8734 45.6721 42.9625 45.6721 43.0417 45.6626V45.7388H43.0021C42.8735 45.7388 42.7943 45.7674 42.7943 45.9389C42.7943 46.0628 42.8042 46.6727 42.8141 47.0348C42.8141 47.273 42.8438 47.3206 43.0021 47.3206H43.0516V47.3969C42.9625 47.3969 42.8438 47.3873 42.6953 47.3873C42.5468 47.3873 42.4379 47.3873 42.3389 47.3969V47.3206H42.3785C42.5369 47.3206 42.5567 47.2825 42.5567 47.0634V45.8341L41.8241 47.4064H41.7647L41.0124 45.9771H41.0025V46.9681C41.0025 47.2349 41.0322 47.3111 41.1807 47.3111H41.2203V47.3873C41.151 47.3873 41.052 47.3778 40.9332 47.3778C40.8144 47.3778 40.7253 47.3778 40.6362 47.3873V47.3111H40.656Z" fill="white"/>
<path d="M32.41 48.2926H32.3704C32.3011 48.1687 32.1625 47.9305 31.6478 47.9305C31.0934 47.9305 30.9152 48.3784 30.9152 48.7405C30.9152 49.3217 31.3805 49.5123 31.6676 49.5123C32.1031 49.5123 32.2912 49.3027 32.4298 49.1502H32.4496V49.3313C32.3506 49.4075 32.1229 49.6076 31.6973 49.6076C31.0736 49.6076 30.6479 49.2646 30.6479 48.7786C30.6479 48.3117 31.0142 47.8257 31.6676 47.8257C31.9447 47.8257 32.2021 47.9019 32.2912 47.9305C32.3407 47.94 32.4001 47.9591 32.4298 47.9686L32.41 48.2926Z" fill="white"/>
<path d="M33.5781 47.8354C34.1226 47.8354 34.5977 48.2261 34.5977 48.7312C34.5977 49.16 34.2215 49.6269 33.5682 49.6269C32.9743 49.6269 32.5486 49.2362 32.5486 48.7502C32.5486 48.2071 33.0435 47.8354 33.5781 47.8354ZM33.5781 47.9307C33.192 47.9307 32.8357 48.1404 32.8357 48.6931C32.8357 49.0837 33.1227 49.5125 33.5979 49.5125C34.1028 49.5125 34.3403 49.1886 34.3403 48.7407C34.3304 48.3595 34.0533 47.9307 33.5781 47.9307Z" fill="white"/>
<path d="M35.3105 47.9403H35.261C35.1521 47.9403 35.0927 47.9784 35.0927 48.1785C35.0927 48.4358 35.0828 48.693 35.0828 48.9408C35.0828 49.1409 35.1224 49.2457 35.1917 49.3315C35.2808 49.4458 35.4194 49.5221 35.6471 49.5221C35.8945 49.5221 36.0925 49.3982 36.1618 49.3124C36.2509 49.1981 36.2905 49.0551 36.2905 48.8836V48.6263C36.2905 48.3024 36.2608 48.0451 36.241 47.9974C36.2113 47.9403 36.1816 47.9307 36.1123 47.9307H36.0529V47.8545C36.1321 47.8545 36.241 47.864 36.34 47.864C36.439 47.864 36.538 47.8545 36.637 47.8545V47.9307H36.5974C36.4984 47.9307 36.4291 47.9688 36.4291 48.1975V48.8169C36.4291 49.0742 36.3598 49.2743 36.2113 49.4172C36.0925 49.5316 35.855 49.6174 35.6372 49.6174C35.4392 49.6174 35.2808 49.5697 35.1026 49.4554C34.9145 49.3315 34.8452 49.1314 34.8452 48.8836V48.1213C34.8452 47.9688 34.766 47.9307 34.667 47.9307H34.6176V47.8545C34.7264 47.8545 34.8452 47.864 34.9739 47.864C35.0927 47.864 35.2115 47.8545 35.3204 47.8545V47.9403H35.3105Z" fill="white"/>
<path d="M36.7359 49.5128H36.7755C36.924 49.5128 36.9438 49.4651 36.9537 49.2078C36.9636 48.8934 36.9636 48.4265 36.9636 48.1501C36.9636 47.9786 36.9042 47.9405 36.7656 47.9405H36.6864V47.8643C36.7656 47.8643 36.8448 47.8738 36.924 47.8738C37.0032 47.8738 37.0725 47.8643 37.1418 47.8643L38.4386 49.265L38.4188 48.274C38.4089 47.9977 38.3693 47.9405 38.2208 47.9405H38.1911V47.8643C38.2802 47.8643 38.3891 47.8738 38.4881 47.8738C38.5871 47.8738 38.686 47.8643 38.785 47.8643V47.9405H38.7454C38.6564 47.9405 38.5772 47.9691 38.5772 48.2073L38.5277 49.6176H38.4485L37.0923 48.1501H37.0824C37.0824 48.5313 37.0923 48.8934 37.1022 49.2745C37.1121 49.4747 37.1517 49.5318 37.2804 49.5318H37.3299V49.6081C37.2408 49.6081 37.1319 49.5985 37.0329 49.5985C36.924 49.5985 36.8151 49.5985 36.7359 49.6081V49.5128Z" fill="white"/>
<path d="M40.5868 48.2926H40.5472C40.4779 48.1687 40.3492 47.9305 39.8245 47.9305C39.2702 47.9305 39.092 48.3784 39.092 48.7405C39.092 49.3217 39.5573 49.5123 39.8344 49.5123C40.27 49.5123 40.4581 49.3027 40.5967 49.1502H40.6165V49.3313C40.5175 49.4075 40.2898 49.6076 39.8641 49.6076C39.2405 49.6076 38.8148 49.2646 38.8148 48.7786C38.8148 48.3117 39.1811 47.8257 39.8344 47.8257C40.1116 47.8257 40.369 47.9019 40.4581 47.9305C40.5076 47.94 40.567 47.9591 40.5967 47.9686L40.5868 48.2926Z" fill="white"/>
<path d="M40.7749 49.5125H40.8244C40.9531 49.5125 41.0026 49.4744 41.0026 49.3124V48.1308C41.0026 47.9688 40.9531 47.9307 40.8244 47.9307H40.7749V47.8545C40.8739 47.8545 41.0026 47.864 41.1313 47.864C41.2501 47.864 41.3689 47.8545 41.4876 47.8545V47.9307H41.4382C41.3095 47.9307 41.26 47.9688 41.26 48.1308V49.3124C41.26 49.4649 41.3095 49.5125 41.4382 49.5125H41.4876V49.5888C41.3689 49.5888 41.26 49.5792 41.1313 49.5792C41.0026 49.5792 40.8739 49.5792 40.7749 49.5888V49.5125Z" fill="white"/>
<path d="M41.7152 49.5125H41.7647C41.8934 49.5125 41.9429 49.4744 41.9429 49.3124V48.1308C41.9429 47.9688 41.8934 47.9307 41.7647 47.9307H41.7152V47.8545C41.8142 47.8545 41.9429 47.864 42.0716 47.864C42.1904 47.864 42.3092 47.8545 42.4378 47.8545V47.9307H42.3686C42.2399 47.9307 42.1904 47.9688 42.1904 48.1308V49.2553C42.1904 49.4363 42.23 49.503 42.5665 49.503C43.012 49.503 43.0714 49.4363 43.1209 49.16H43.21L43.1902 49.5888C42.9526 49.5888 42.6358 49.5792 42.3982 49.5792C42.0815 49.5792 41.8142 49.5792 41.7152 49.5888V49.5125Z" fill="white"/>
<path d="M43.0615 40.2599C43.111 40.117 43.1407 39.9645 43.1407 39.812C43.1407 39.631 43.1011 39.4595 43.0318 39.307C42.9328 39.0783 42.7546 38.8782 42.5467 38.7353C42.3289 38.5923 42.0715 38.5161 41.7944 38.5161C41.6162 38.5161 41.4578 38.5447 41.2994 38.6019C41.2697 38.6114 41.2499 38.6209 41.2301 38.6305V39.0307C41.2994 38.983 41.3588 38.9544 41.438 38.9259C41.5469 38.8877 41.6756 38.8592 41.7944 38.8592C41.9329 38.8592 42.0616 38.8877 42.1705 38.9354C42.3487 39.0116 42.4972 39.126 42.6061 39.2784C42.715 39.4309 42.7744 39.6119 42.7744 39.8025C42.7744 39.9073 42.7546 40.0217 42.715 40.1265C42.6754 40.2313 42.6259 40.3171 42.5566 40.4124L42.5467 40.4219L41.2301 42.3182V42.9471L42.8536 40.622C42.9427 40.5267 43.012 40.4028 43.0615 40.2599Z" fill="white"/>
<path d="M42.5765 39.8216C42.5765 40.2409 42.2301 40.5744 41.7945 40.5744C41.3589 40.5744 41.0125 40.2409 41.0125 39.8216C41.0125 39.4024 41.3589 39.0688 41.7945 39.0688C42.2301 39.0688 42.5765 39.4024 42.5765 39.8216Z" fill="#9AC330"/>
</g>
<defs>
<clipPath id="clip0">
<rect width="55" height="53" fill="white"/>
</clipPath>
</defs>
</svg>
