<svg width="118" height="100" viewBox="0 0 118 100" fill="none" xmlns="http://www.w3.org/2000/svg">
<path d="M19.1668 21.7177L19.4939 22.7911C18.9052 22.8887 18.2837 23.1815 17.8912 23.7995C17.139 24.9705 17.4987 26.3367 18.7416 27.1174C19.9518 27.8981 21.391 27.6379 22.176 26.4343C22.4703 25.9789 22.5685 25.5235 22.5685 25.0356L21.4237 24.2874L20.5406 25.6536L19.6575 25.1657L21.1947 22.7911L23.7132 24.385C23.8768 25.2633 23.6805 26.1741 23.1245 27.0198C21.9797 28.8089 19.8537 29.2318 18.1202 28.1258C16.3867 27.0198 15.8961 24.938 17.0081 23.214C17.5314 22.3357 18.251 21.8803 19.1668 21.7177ZM26.8859 15.0819C27.6055 15.765 27.7036 16.6433 27.3765 17.424L30.5165 18.1721L29.5353 19.148L26.6243 18.4649L25.8066 19.3106L27.6382 21.0997L26.8205 21.9454L21.8489 17.0661L23.6151 15.3096C24.5637 14.3012 25.872 14.0735 26.8859 15.0819ZM23.3862 16.936L25.0543 18.5624L25.9047 17.6842C26.4934 17.0987 26.5915 16.4481 26.0355 15.8951C25.5122 15.3747 24.8253 15.4722 24.2366 16.0252L23.3862 16.936ZM38.072 12.8049L36.9927 13.5205L35.8479 12.7724L33.4275 14.3663L33.6565 15.6999L32.5771 16.4156L31.3996 8.73887L31.4323 8.70634L38.072 12.8049ZM33.2313 13.3579L34.9975 12.1869L32.7733 10.7556L33.2313 13.3579ZM46.1836 9.48703H46.1509L40.5905 6.88475L42.1605 10.8857L41.0484 11.3086L38.4972 4.73788H38.5299L44.0903 7.34015L42.5203 3.33916L43.6324 2.91629L46.1836 9.48703ZM55.2764 4.02226C55.6035 6.16913 54.426 7.66544 52.071 8.02325L49.945 8.34853L48.8656 1.48504L50.9917 1.15976C53.3793 0.834473 54.9493 1.87538 55.2764 4.02226ZM50.2394 2.42836L50.959 7.11245L51.8748 6.98234C53.5429 6.72211 54.3279 5.71373 54.0989 4.21743C53.87 2.72112 52.8233 2.00549 51.1552 2.26572L50.2394 2.42836ZM69.8314 8.60876L68.6866 8.41359L69.21 5.4535L66.07 4.90052L65.5467 7.86061L64.3692 7.66544L65.6121 0.834473L66.7896 1.02964L66.2663 3.82708L69.4062 4.38007L69.9296 1.58263L71.0743 1.7778L69.8314 8.60876ZM81.083 9.12921C80.2653 11.0484 78.2701 11.8291 76.4057 11.0484C74.5414 10.2352 73.7564 8.28347 74.5741 6.3643C75.3918 4.47765 77.387 3.66444 79.2513 4.44512C81.1157 5.22581 81.9007 7.24257 81.083 9.12921ZM75.6861 6.8197C75.0974 8.15336 75.588 9.48703 76.8636 10.04C78.1065 10.5605 79.4148 10.0075 80.0036 8.67382C80.5923 7.34015 80.1017 5.97396 78.8588 5.4535C77.5505 4.90052 76.2422 5.4535 75.6861 6.8197ZM90.3393 12.2845L88.4095 10.9183L84.9752 15.7325L83.994 15.0494L87.4283 10.2352L85.4985 8.86899L86.12 8.02325L90.928 11.4387L90.3393 12.2845ZM96.7501 18.5624L94.5259 16.2529L93.1849 17.5215L95.1147 19.5383L94.3624 20.2539L92.4326 18.2372L91.0262 19.5708L93.283 21.9454L92.498 22.6936L89.4235 19.4732L94.4605 14.6916L97.5023 17.8468L96.7501 18.5624ZM96.3248 25.9464L98.0584 28.5812L97.1753 29.1667L94.7876 25.5235L100.61 21.7177L101.264 22.6936L96.3248 25.9464ZM20.8349 75.5522C20.4097 75.8124 20.0173 75.7474 19.7883 75.6172C19.9191 76.1052 19.821 76.6256 19.265 76.9509C18.5454 77.3738 17.7931 77.081 17.3352 76.3329L16.2885 74.6089L20.2789 72.2343L21.162 73.6981C21.6199 74.4462 21.4891 75.1618 20.8349 75.5522ZM18.4473 74.2185L17.3352 74.9016L17.9239 75.8775C18.1856 76.3003 18.5454 76.463 18.9052 76.2353C19.265 76.0076 19.2977 75.6498 19.0033 75.1619L18.4473 74.2185ZM20.05 73.2427L19.0033 73.8607L19.4612 74.6089C19.6902 74.9992 20.05 75.0968 20.3443 74.9016C20.6714 74.7065 20.7368 74.3486 20.4752 73.9258L20.05 73.2427ZM21.947 82.6759L21.4237 81.9928L21.8489 81.1796L20.6387 79.6508L19.7556 79.8785L19.2323 79.1954L24.302 77.9918V78.0243L21.947 82.6759ZM21.3256 79.4881L22.2087 80.5941L23.0264 79.0653L21.3256 79.4881ZM28.554 83.3915L27.8017 83.5542C27.769 83.1964 27.6382 82.806 27.2784 82.4482C26.9513 82.1229 26.5915 82.0579 26.2972 82.3506C26.0355 82.6109 26.1009 82.8386 26.5261 83.4891C27.1803 84.465 27.1803 85.0505 26.657 85.5384C26.0355 86.1564 25.1851 86.0914 24.4328 85.3758C23.9422 84.8878 23.6805 84.3023 23.6151 83.7168L24.3674 83.5542C24.3674 84.0096 24.5964 84.53 24.9234 84.8878C25.3159 85.2782 25.7084 85.3432 26.0028 85.0505C26.2318 84.8228 26.199 84.4975 25.7738 83.8795C25.1197 82.8711 25.1851 82.3181 25.6757 81.8302C26.2645 81.2447 27.0822 81.3097 27.769 81.9603C28.2269 82.4157 28.4886 82.9361 28.554 83.3915ZM27.8672 81.8952L27.8017 80.4965L28.2596 80.9519L28.2924 81.4724L28.8157 81.5049L29.2736 81.9603L27.8672 81.8952ZM30.6146 87.5226L30.4511 90.4502L29.6988 89.8647L29.8296 87.8154L27.9326 88.4985L27.442 88.1082L30.3202 84.4975L30.9417 84.9854L29.0446 87.36L32.3154 86.0589L33.035 86.6444L30.6146 87.5226ZM35.6843 93.7356L34.9321 93.2802L35.0629 92.3694L33.3948 91.361L32.6425 91.8814L31.9229 91.426L36.2404 88.531H36.2731L35.6843 93.7356ZM33.9835 90.9707L35.1937 91.6863L35.4227 89.9623L33.9835 90.9707ZM42.1932 96.7282L41.7353 91.5562L42.553 91.8489L42.7493 95.1668L45.0715 92.7922L45.8892 93.085L42.1932 96.7282ZM51.1225 96.7282C50.8281 98.0944 49.5852 98.8425 48.2769 98.5498C46.9359 98.257 46.1836 97.0535 46.5107 95.6873C46.805 94.3536 48.0152 93.5729 49.3563 93.8657C50.6646 94.1584 51.4496 95.3945 51.1225 96.7282ZM47.2957 95.8499C47.0667 96.7932 47.5573 97.6064 48.4404 97.8341C49.3236 98.0293 50.1085 97.5089 50.3375 96.5655C50.5665 95.6222 50.0758 94.7765 49.1927 94.5813C48.3096 94.3861 47.5246 94.9066 47.2957 95.8499ZM57.1735 97.3787C57.0426 98.8425 56.0614 99.5907 54.4587 99.4606L53.0196 99.3304L53.4448 94.7114L54.8839 94.8415C56.4539 95.0042 57.3043 95.915 57.1735 97.3787ZM54.1643 95.5246L53.87 98.6799L54.4914 98.7449C55.6035 98.8425 56.2903 98.3221 56.3558 97.3137C56.4539 96.3053 55.8979 95.6873 54.7531 95.5897L54.1643 95.5246ZM63.2244 99.6232L62.374 99.6557L61.9815 98.8425L60.019 98.9076L59.6593 99.7533L58.8089 99.7858L60.8695 95.0367H60.9022L63.2244 99.6232ZM60.2807 98.192L61.6872 98.1594L60.9349 96.5655L60.2807 98.192ZM68.7848 97.1511C68.8502 97.4113 68.6866 97.6715 68.3923 97.704C68.1306 97.7691 67.8689 97.5739 67.8362 97.3137C67.7708 97.0535 67.9344 96.7932 68.2287 96.7607C68.5231 96.7282 68.7521 96.8908 68.7848 97.1511ZM75.7843 92.7597L73.7564 93.4753L74.1489 94.6138L75.9151 93.9958L76.1441 94.6464L74.3778 95.2644L74.803 96.4679L76.8636 95.7523L77.0926 96.4354L74.2797 97.4113L72.7424 93.0525L75.5226 92.0766L75.7843 92.7597ZM80.1671 90.4502L80.069 91.1983C79.7092 91.1008 79.284 91.1008 78.8588 91.3285C78.4336 91.5236 78.2374 91.8489 78.4336 92.2067C78.5971 92.532 78.8588 92.5645 79.5784 92.3694C80.7232 92.0766 81.2792 92.3043 81.5736 92.9224C81.9334 93.703 81.6063 94.4837 80.6577 94.9391C80.0363 95.2319 79.3821 95.2969 78.8261 95.1343L78.9242 94.3536C79.3494 94.5163 79.9055 94.4837 80.3634 94.256C80.854 94.0283 81.0502 93.6705 80.8867 93.2802C80.7232 92.9874 80.4288 92.9223 79.6765 93.1175C78.5317 93.3777 78.0084 93.1501 77.714 92.532C77.3542 91.7839 77.6813 91.0357 78.5317 90.6128C79.1205 90.4177 79.6765 90.3526 80.1671 90.4502ZM85.1387 87.8154L83.7977 88.6611L85.891 91.979L85.2369 92.4019L83.1436 89.084L81.8025 89.9297L81.4427 89.3442L84.779 87.2624L85.1387 87.8154ZM92.5634 86.9046L91.9747 87.3925L89.7178 84.8553L89.4235 85.6685L88.7039 85.3758L89.3581 83.359H89.3908L92.5634 86.9046ZM94.068 80.8868C94.3297 81.1471 94.4932 81.4398 94.5586 81.7326L95.2128 84.3023L94.624 84.9204L94.1334 83.0337C93.5447 83.6518 92.5961 83.7168 91.942 83.1313C91.2878 82.5133 91.2878 81.5699 91.8766 80.9519C92.4653 80.3339 93.4138 80.2688 94.068 80.8868ZM92.4653 82.5783C92.8578 82.9361 93.3157 82.9036 93.6428 82.6109C93.9372 82.2856 93.9045 81.7976 93.5447 81.4724C93.1522 81.1145 92.6943 81.1471 92.3999 81.4398C92.0728 81.7326 92.1055 82.2205 92.4653 82.5783ZM96.7828 77.1461C97.1752 77.4388 97.2734 77.8292 97.208 78.187C97.6005 77.9593 98.0584 77.9593 98.4836 78.2521C99.1704 78.7725 99.2686 79.5857 98.7125 80.3013C98.2219 80.9519 97.5677 81.082 96.8155 80.7893L97.1098 80.1387C97.535 80.3013 97.8948 80.2688 98.1892 79.911C98.4509 79.5532 98.3854 79.1628 98.0257 78.8701C97.6986 78.6099 97.2407 78.6749 96.979 79.0653L96.6846 79.4556L96.1613 79.0653L96.4557 78.6749C96.6519 78.4147 96.6846 78.0244 96.3248 77.7641C95.9978 77.5039 95.638 77.569 95.409 77.8942C95.1801 78.187 95.2128 78.5123 95.4744 78.8376L94.853 79.1954C94.4932 78.6424 94.4278 78.0569 94.8857 77.4714C95.3763 76.7883 96.1613 76.6907 96.7828 77.1461ZM100.413 73.4053C101.689 74.1535 102.147 75.1618 101.624 76.0401C101.1 76.9184 99.9554 76.9509 98.7125 76.2028C97.4696 75.4546 96.979 74.4462 97.5023 73.568C98.0584 72.6897 99.1704 72.6572 100.413 73.4053ZM99.105 75.5522C99.9881 76.1052 100.74 76.2028 101.035 75.6823C101.329 75.1618 100.904 74.5763 100.021 74.0559C99.1377 73.5354 98.4182 73.4053 98.0911 73.9258C97.7967 74.4462 98.2219 75.0317 99.105 75.5522ZM13.5084 42.1781L12.0365 44.455C10.7609 43.4141 9.0928 42.6335 6.9995 42.6335C4.84077 42.6335 3.27079 43.6093 3.27079 45.7237C3.27079 47.4802 4.41557 48.1308 7.75178 48.8464C12.5926 49.8873 14.3915 51.5462 14.3915 54.5714C14.3915 58.1495 11.6767 60.5566 7.29387 60.5566C4.35015 60.5566 1.89706 59.6458 0 58.0194L1.53727 55.7424C2.94371 57.1411 5.20056 58.0194 7.35928 58.0194C9.84509 58.0194 11.6113 56.8809 11.6113 54.7665C11.6113 53.0425 10.303 52.1968 6.96679 51.4812C2.12602 50.4403 0.490619 48.7488 0.490619 45.8212C0.490619 42.3407 3.07454 40.0962 6.9995 40.0962C9.71425 40.0962 11.9384 40.942 13.5084 42.1781ZM26.5588 57.7592V40.4215H23.8114V60.1988H33.3294L34.4414 57.7592H26.5588ZM91.3532 60.1988H88.6058V40.4215H91.3532V60.1988ZM70.9435 60.5241H70.8454L61.4909 40.4215H64.5L70.9108 54.4738L77.3215 40.4215H80.298L70.9435 60.5241ZM58.3509 60.1988H55.3745L48.9638 46.1465L42.553 60.1988H39.5439L48.8983 40.0962H48.9965L58.3509 60.1988ZM117.781 60.1988H114.805L108.394 46.1465L101.983 60.1988H98.9742L108.329 40.0962H108.427L117.781 60.1988Z" fill="white"/>
</svg>
