<svg width="57" height="55" viewBox="0 0 57 55" fill="none" xmlns="http://www.w3.org/2000/svg">
<g clip-path="url(#clip0)">
<path fill-rule="evenodd" clip-rule="evenodd" d="M35.4667 54.5571C36.3043 54.2417 37.1215 54.2838 38 54.6412C37.1828 55.1248 36.4269 55.1248 35.4667 54.5571ZM44.9462 52.8331C45.028 53.1064 44.8032 53.1275 44.6602 53.1905C43.5979 53.6951 42.5151 54.1156 41.371 54.3469C41.1667 54.3889 41.0237 54.3469 40.8806 54.2628C40.8602 54.2838 40.8398 54.3048 40.7989 54.3048C40.043 54.5151 39.2667 54.6833 38.4903 54.5361C38.4699 54.5361 38.4495 54.473 38.3882 54.3889C39.2667 53.9054 40.2065 53.9684 41.1258 53.9264L41.1054 53.9474L42.8011 53.4428L44.9462 52.8331ZM34.1796 -0.00136685C34.2409 -0.0223913 34.3634 0.0196576 34.4043 0.082731C34.7312 0.419122 35.1194 0.292976 35.5075 0.166829C35.8344 0.0617065 36.1613 -0.148538 36.5495 0.187853C36.2839 0.419122 36.0387 0.629367 35.7935 0.839612C35.8753 0.818587 35.9366 0.818587 36.0183 0.797563L35.9774 0.965758L35.7935 0.839612C35.0581 1.00781 35.0581 1.00781 34.3634 0.650392C34.3226 0.776538 34.2613 0.881661 34.2204 0.986783C34.2 1.07088 34.1796 1.15498 34.1591 1.30215C34.0978 1.32317 34.0161 1.3442 33.9548 1.38625C33.9957 1.38625 34.057 1.38625 34.0978 1.38625L34.0366 1.40727L34.057 1.4283C34.0366 1.4283 34.0161 1.4283 33.9957 1.4283L33.5871 1.61752C33.6075 1.55444 33.628 1.51239 33.6484 1.49137L32.5452 1.91186C32.5452 1.93288 32.5247 1.95391 32.5247 1.95391C32.7495 2.01698 32.9742 2.1221 33.2194 2.14313C33.8323 2.18518 34.4452 2.18518 35.0581 2.2062C35.1806 2.2062 35.3645 2.2903 35.4462 2.22723C36.2634 1.53342 37.0194 2.08006 37.7957 2.16415C37.8774 2.16415 37.9796 2.16415 38.0613 2.18518C38.429 2.33235 38.7355 2.41645 38.7151 2.98411C38.7151 3.19435 38.8172 3.4046 38.9602 3.59382C39.1237 3.63587 39.3075 3.65689 39.471 3.69894C39.4914 3.93021 39.3892 3.99328 39.2871 4.03533C39.3688 4.16148 39.5731 4.1825 39.7366 4.2666C39.9204 3.65689 40.043 3.50972 40.3903 3.63587C41.0441 3.82509 41.6978 4.07738 42.3516 4.28762C42.4333 4.30865 42.5559 4.32967 42.5763 4.39275C42.8828 5.10758 43.6387 5.35987 44.0677 5.92753C44.1903 6.09573 44.2925 6.30597 44.3333 6.51622C44.3742 6.72646 44.4151 6.93671 44.4355 7.12593C44.7419 7.25207 45.0484 7.39924 45.3344 7.54642C45.3548 7.52539 45.3753 7.50437 45.3957 7.46232C45.4978 7.16798 45.5591 6.87363 45.6613 6.57929C45.7021 6.49519 45.8656 6.49519 46.0086 6.45314C46.2129 6.76851 46.4989 7.06285 46.4581 7.50437C46.2946 7.67256 46.1516 7.81973 46.0699 7.92486C46.3355 8.07203 46.5806 8.24022 46.8462 8.38739L46.8667 8.36637C46.8667 8.38739 46.8667 8.38739 46.8667 8.40842C47.4591 8.80788 48.0516 9.22837 48.6441 9.62784C48.9301 9.81706 49.2161 10.0273 49.4409 10.3006C50.8097 11.9195 52.4237 13.2861 53.6495 15.0732C54.0581 15.6619 54.4462 16.2505 54.8344 16.8182C54.6301 17.1125 54.4054 16.9654 54.2828 16.8182C53.9151 16.3767 53.5473 15.9352 53.2409 15.4516C52.7505 14.6317 52.2194 13.8748 51.5247 13.244C51.3613 13.0969 51.1978 12.9287 51.0753 12.7395C50.2785 11.457 48.9914 10.9103 47.8677 10.1324C47.7656 10.0694 47.6226 10.0273 47.5 10.0483C47.357 10.0694 47.2957 10.1534 47.2957 10.2375L47.1323 10.3006C47.1527 10.3847 47.1731 10.4478 47.1935 10.5319C47.2344 10.4898 47.2957 10.4478 47.3366 10.4268C48.1538 11.0155 48.9301 11.6462 49.5022 12.5082C49.543 12.5923 49.6043 12.6554 49.6656 12.7184C51.3613 14.1481 52.1989 16.2295 53.2 18.1848C53.2409 18.2689 53.2613 18.374 53.3022 18.4371C54.2011 19.5093 54.4054 20.8759 54.6301 22.2215C54.671 22.5369 54.7936 22.8312 54.8957 23.1255C54.7731 23.2937 54.528 23.4619 54.528 23.6091C54.5484 24.345 54.6097 25.0808 54.7323 25.7957C54.7323 25.8377 54.7527 25.8797 54.7527 25.9218C55.0183 27.1202 55.2634 28.3186 55.4677 29.517C55.529 29.9164 55.4269 30.358 55.386 30.7995C55.2839 30.5262 55.1204 30.2739 55.1 30.0005C55.0591 29.3278 54.9774 28.676 54.8548 28.0453C54.8344 28.4027 54.814 28.7391 54.7731 29.0965C54.7118 29.7693 54.5688 30.4631 54.5688 31.1359C54.5892 32.4184 54.0989 33.5957 53.8742 34.8151H53.8946V34.8992L53.8742 34.8782C53.8538 34.9833 53.8333 35.0674 53.8333 35.1726C53.7516 35.6561 53.3226 36.0135 53.4043 36.5602C53.772 36.6863 53.9559 36.371 54.0376 36.2028C54.4258 35.2987 55.1817 34.6049 55.2839 33.5537C55.3043 33.4275 55.3247 33.2804 55.4065 33.1752C55.4882 33.0701 55.5495 32.944 55.6108 32.8388C55.5903 32.4814 55.5495 32.124 55.5495 31.7666C55.5495 31.4933 55.6516 31.1989 55.7129 30.9046C55.8355 31.1989 55.9172 31.4933 55.9581 31.7876C56.1215 30.9466 56.0398 30.0636 56.0602 29.2016C56.0602 29.1175 56.0602 29.0124 56.0602 28.9283C56.0602 28.8862 56.1011 28.8442 56.1215 28.8021C56.3871 28.7181 56.5301 28.8862 56.5505 29.1385C56.6527 30.2108 56.4893 31.241 56.2237 32.2712C55.9989 33.1122 55.7333 33.9321 55.4473 34.7521C55.3452 35.0464 55.2226 35.3408 55.0387 35.5931C54.528 36.3289 53.9559 37.0017 53.629 37.8637C53.5677 38.0529 53.3634 38.2421 53.1796 38.3052C52.7097 38.4524 52.5462 38.8729 52.3624 39.2934C52.3215 39.3775 52.3011 39.4405 52.2806 39.5036C52.4032 39.9241 52.7914 40.2815 52.5667 40.8912C52.4441 41.2486 52.3419 41.543 51.9742 41.7532C51.8108 41.8373 51.7495 42.1106 51.6677 42.2999C51.4226 42.7834 51.2387 43.3301 50.9118 43.7295C50.4011 44.3603 50.1763 45.1802 49.543 45.7689C49.1548 46.1263 48.3376 46.6099 47.786 46.8411C47.7247 46.9042 47.6634 46.9463 47.5817 46.9883C47.2548 47.1355 46.9484 47.3247 46.6828 47.535C46.7237 47.535 46.7849 47.577 46.8054 47.598C46.8667 47.6401 46.9075 47.7662 46.8871 47.8293C46.7645 48.0606 46.6624 48.3549 46.4785 48.5231C46.0495 48.9015 45.6409 49.3431 45.0892 49.5743C44.7828 49.7215 44.4968 49.9528 44.1699 50.163L43.8839 49.8056C43.8022 49.7846 43.7204 49.7425 43.6387 49.7635C42.9237 49.9738 42.2086 50.184 41.4935 50.4153C41.371 50.4573 41.2484 50.5835 41.228 50.7096C41.1871 50.9199 41.3505 51.004 41.5548 51.025C41.6366 51.046 41.6978 51.0881 41.8204 51.1512C41.3301 51.5296 40.6151 51.4665 40.2473 52.0552C40.186 52.1393 39.7161 51.9711 39.6548 52.0552C39.3075 52.5808 38.8581 52.4126 38.3882 52.4757C37.9796 52.5388 37.5914 52.8962 37.1828 52.9803C36.8151 53.0644 36.386 52.8541 36.0387 52.9803C35.6301 53.1275 35.2624 53.0644 34.8742 53.0223C33.7505 52.9382 32.4226 53.4008 31.2172 53.2957L30.9516 54.2628C30.7473 54.2628 30.543 54.2838 30.3387 54.2417C29.9914 54.1787 29.6645 54.0946 29.3376 53.9474C28.929 53.7792 28.6839 54.0525 28.4183 54.2628C27.8258 54.2207 27.3151 54.0315 26.9677 53.569C26.5387 53.7792 26.886 54.0946 26.743 54.3258C26.6613 54.3469 26.5591 54.4099 26.4978 54.3889C26.1914 54.2628 25.8645 54.1366 25.5376 54.0105C24.9247 54.1366 24.2914 54.0525 23.4333 54.0736C23.8215 53.9264 24.1688 53.7792 24.5161 53.6531C23.8011 53.4218 23.0656 53.2536 22.3301 53.0854C22.0645 53.0223 21.7785 52.9382 21.5538 52.7911C21.0634 52.4757 20.5527 52.1603 20.0419 51.866H19.8172C19.5516 51.866 19.3677 51.8029 19.2043 51.5086C19.1021 51.3404 18.7753 51.2563 18.5505 51.2353C17.7129 51.1091 17.0796 50.4994 16.2419 50.3522C15.6495 50.2681 15.0774 50.121 14.6688 49.5743L14.6484 49.5953L14.5871 49.5533L14.6688 49.5743C14.7914 49.3431 14.914 49.1328 15.0774 48.8385C15.2204 48.8385 15.4452 48.7964 15.629 48.8385C15.9968 48.9226 16.3849 49.0067 16.7527 49.1118C16.6914 49.0487 16.6301 48.9856 16.5892 48.9015C16.1194 48.6913 15.6903 48.418 15.2817 48.1026V48.1447C15.1183 48.1447 14.9344 48.2288 14.8118 48.1657C14.5871 48.0606 14.3828 47.8713 14.1581 47.7242C14.4441 47.7872 14.7301 47.8503 15.0161 47.9134C14.4645 47.4508 13.9742 46.9252 13.5452 46.3576C13.5452 46.3576 13.5452 46.3366 13.5247 46.3366L13.443 46.3155C13.157 46.2525 12.8914 46.1684 12.6462 46.0212C12.6462 46.0212 12.6667 46.0422 12.6871 46.0422C12.6667 46.0422 12.6258 46.0422 12.6054 46.0422H12.6258H12.6054L12.6462 46.0002C12.6462 46.0002 12.6462 46.0002 12.6667 46.0212C12.5441 45.9581 12.4419 45.874 12.3398 45.7689C12.7484 45.7268 13.1161 45.832 13.3817 46.1263C13.2387 45.9581 13.1161 45.7689 12.9935 45.5797L12.0946 45.2433C12.1968 45.3904 12.2785 45.5376 12.3194 45.7689C12.1355 45.9371 12.0946 46.1473 12.2581 46.3366C12.4624 46.5678 12.7075 46.736 12.9527 46.9042C13.3204 47.1775 13.7086 47.4088 14.0763 47.6821C13.7699 47.7031 13.443 47.7452 13.0957 47.7662C12.2376 47.1775 11.829 46.0422 10.7258 45.3694C10.9097 46.1053 10.8484 46.6729 11.2366 47.1565C11.3796 47.3247 11.2774 47.7452 11.257 48.0395C11.257 48.1026 11.0731 48.1657 10.8892 48.2498C10.828 48.0395 10.7462 47.8924 10.7258 47.7452C10.6645 47.2616 10.5011 46.9042 10.0312 46.736C9.92903 46.694 9.86774 46.4627 9.80645 46.2945C9.5 46.1473 9.25484 46.0002 9.15269 45.5797C8.90753 44.5705 8.66236 43.5403 8.19247 42.6152C7.98817 42.2158 7.90645 41.7953 7.49785 41.5009C7.23226 41.3117 7.10968 40.8071 7.02796 40.4287C6.7828 39.5036 6.57849 38.5575 6.39462 37.6324C6.25161 36.9807 6.1086 36.3079 6.37419 35.6561C6.3129 35.4669 6.23118 35.2777 6.16989 35.0885L6.12903 35.1095L6.08817 34.8151C6.02688 34.6049 5.94516 34.3736 5.9043 34.1424C5.61828 34.4577 5.59785 34.5629 5.59785 35.8453C5.59785 36.5392 5.7 37.2119 5.78172 37.9057C5.84301 38.5365 5.92473 39.1462 6.00645 39.84C5.82258 39.9031 5.61828 40.0292 5.45484 39.9872C5.23011 39.9451 5.14839 39.6928 5.20968 39.4405C5.45484 38.2421 4.98495 37.0858 5.00538 35.8874C5.00538 35.7192 4.84194 35.572 4.80108 35.4038C4.67849 35.0674 4.59677 34.731 4.47419 34.3947C4.18817 34.1003 4.31075 33.7219 4.29032 33.3855C4.26989 32.5235 4.24946 31.6615 3.90215 30.8205C3.61613 30.1477 3.82043 28.9283 4.29032 27.9822C4.55591 28.676 4.29032 29.3067 4.39247 29.9164C4.49462 30.5051 4.67849 31.0518 4.82151 31.5774C5.06667 31.6825 5.23011 31.6615 5.31183 31.5143C5.23011 31.4092 5.14839 31.283 5.0871 31.1779C4.8828 30.7995 4.80108 30.379 5.10753 30.0636C5.35269 29.7903 5.45484 29.517 5.45484 29.2437V29.1385C5.45484 28.9073 5.37312 28.676 5.31183 28.4447C5.23011 28.1924 5.06667 27.9822 5.02581 27.7299C4.98495 27.5407 5.0871 27.3094 5.12796 27.0992C5.02581 26.994 4.92366 26.8889 4.82151 26.7838L4.96452 26.6787L5.16882 27.0781C5.25054 26.8259 5.35269 26.5946 5.41398 26.3213C5.59785 25.3962 5.76129 24.4921 5.94516 23.5671C6.02688 22.663 6.12903 21.7379 6.63978 20.939V20.8339C6.63978 20.7077 6.66022 20.6026 6.68065 20.4975C6.63979 20.5816 6.57849 20.6657 6.5172 20.7498L6.33333 20.6447C6.37419 20.5185 6.37419 20.3713 6.43548 20.2452C6.47634 20.1611 6.59892 20.056 6.66021 20.077C6.70108 20.098 6.72151 20.119 6.74194 20.1401C6.82366 19.7827 6.96667 19.4252 7.13011 19.0888C6.86452 19.5304 6.84409 19.5093 6.55806 19.236C6.59892 18.8996 6.74194 19.0468 6.84409 19.0468C6.96667 19.0258 7.06882 19.0258 7.1914 19.0047H7.17097C7.1914 18.9837 7.1914 18.9627 7.21183 18.9207C7.25269 18.7945 7.29355 18.6894 7.35484 18.5843C7.35484 18.5632 7.37527 18.5632 7.3957 18.5632L7.51828 18.332C7.74301 17.9115 8.0086 17.512 8.15161 17.0074C8.29462 16.5028 8.64194 16.1034 9.17312 15.9772L9.21398 15.8301L9.23441 15.788C8.94839 15.4306 8.96882 15.3675 9.19355 15.0732L9.2957 14.926L9.21398 14.905C8.96882 15.4306 8.92796 15.4726 8.62151 15.2834C9.45914 14.1481 10.5624 13.244 11.114 11.8354C10.6441 11.5411 10.4806 12.319 10.0312 12.2138C10.0516 12.1718 10.0516 12.1297 10.0516 12.0877C9.9086 12.1297 9.74516 12.1508 9.56129 12.1297C9.80645 11.6672 9.80645 11.6672 10.7054 11.0785L10.7258 11.0996C11.1957 10.595 11.7065 10.1324 12.2581 9.73296C12.871 9.31247 13.4634 8.89198 14.0968 8.45047C14.1785 8.34535 14.2602 8.26125 14.3828 8.24022L15.057 7.77768C15.057 7.75666 15.0774 7.73564 15.0774 7.71461C15.1796 7.56744 15.2817 7.46232 15.4656 7.48334L15.6086 7.37822C15.0978 7.21002 14.771 7.69359 14.3624 7.71461L13.9333 7.88281C14.0559 7.79871 14.1785 7.71461 14.3011 7.63051C14.4645 7.25207 14.7301 7.0208 15.0978 6.89466C15.2817 6.83158 15.4452 6.68441 15.6086 6.57929L15.8946 6.45314L15.8129 6.43212C15.8333 6.39007 15.8333 6.327 15.8538 6.327C15.9151 6.327 15.9968 6.34802 16.0581 6.36905V6.39007L16.2419 6.30597L15.6086 6.327C15.7925 6.09573 16.0172 6.09573 16.2624 6.13778C16.3849 5.54909 16.8753 5.42294 17.2839 5.2127C18.3258 4.70811 19.4086 4.32967 20.4097 3.76201C21.329 3.2364 22.2484 3.06821 23.2495 3.21538C23.5355 3.11025 23.8215 3.00513 24.0871 2.94206C23.9645 3.04718 23.8624 3.1523 23.7398 3.25743C24.6591 3.0682 25.5581 2.87898 26.4774 2.68976C26.6409 2.60567 26.8247 2.52157 27.0495 2.39542C26.8247 2.26928 26.6204 2.10108 26.5796 2.1221C26.171 2.54259 25.6398 2.39542 25.0677 2.60567C25.1495 2.39542 25.1699 2.24825 25.2312 2.18518C25.5581 1.95391 25.9054 1.74366 26.2935 1.47035C26.8452 1.74366 27.3968 1.59649 28.0097 1.3442C28.6022 1.09191 29.2763 1.02883 29.9097 0.860636C30.0731 0.818587 30.2366 0.713465 30.4 0.650392H30.3591L30.972 0.482196H30.9312C31.3602 0.377073 31.8301 0.356049 32.2183 0.166829C32.8925 -0.0854647 33.5462 0.292976 34.1796 -0.00136685ZM30.4 53.59C30.4 53.59 30.3387 53.611 30.3183 53.632C30.3387 53.6741 30.3387 53.7161 30.3591 53.7372C30.3591 53.7372 30.4204 53.7161 30.4409 53.6951C30.4204 53.6531 30.4204 53.611 30.4 53.59ZM29.7054 53.4008C29.6849 53.4008 29.6441 53.4218 29.6237 53.4428C29.6237 53.4428 29.6441 53.4849 29.6441 53.5269L29.7462 53.4849C29.7258 53.4428 29.7258 53.4008 29.7054 53.4008ZM45.8656 52.2234C45.9473 52.2024 46.0699 52.1603 46.1108 52.1814C46.172 52.2234 46.1516 52.3285 46.172 52.4336C46.1108 52.4757 46.0495 52.5388 45.9882 52.6018L45.8656 52.2234ZM24.5978 51.9291C24.5774 51.908 24.4957 51.9501 24.4753 51.9711C24.4548 52.0342 24.414 52.1603 24.4548 52.2024C24.5978 52.3285 24.7613 52.4336 24.9247 52.5388C24.9656 52.5598 25.0677 52.4757 25.129 52.4336C25.129 52.3495 25.1495 52.2234 25.1086 52.2024C24.9656 52.0762 24.7817 52.0132 24.5978 51.9291ZM47.4183 51.2983L47.5 51.3614L47.2548 51.7398C47.1936 51.6978 47.1323 51.6557 47.071 51.6347L47.4183 51.2983ZM17.0183 51.4245L17.1817 51.5506L16.9774 51.6137L17.0183 51.4245ZM43.4548 51.0881C43.4753 51.0671 43.6183 51.1722 43.7 51.2142L43.557 51.5296C43.4548 51.5296 43.3731 51.5086 43.271 51.5086C43.3323 51.3614 43.3731 51.2142 43.4548 51.0881ZM15.2817 51.0881C15.3839 51.1512 15.5065 51.2142 15.6086 51.2983C15.5269 51.3824 15.4452 51.4665 15.343 51.5296C15.3021 51.5506 15.1796 51.4665 15.1796 51.4455C15.2 51.3194 15.2613 51.2142 15.2817 51.0881ZM34.1183 51.1932L34.0366 51.2773L34.1387 51.2983L34.1183 51.1932ZM11.829 49.5743C12.6667 49.6584 12.6667 49.6584 13.5247 50.8989C13.4839 50.9619 13.4022 51.1091 13.3817 51.0881C12.8097 50.7096 12.3194 50.2261 11.829 49.5743ZM39.8183 49.301C39.7978 49.301 39.7774 49.322 39.7774 49.322C39.1849 49.5953 38.6129 49.8476 38.0204 50.0999L36.8355 50.6045C37.6323 50.5414 38.429 50.4573 39.2258 50.3522C39.5731 50.3102 39.9 50.142 40.2269 49.9948C40.3086 49.9528 40.4108 49.7635 40.3903 49.6584C40.3903 49.5533 40.2882 49.3851 40.186 49.3641C40.0839 49.3641 39.9613 49.322 39.8183 49.301ZM38.2247 49.5953C38.2043 49.5953 38.1839 49.5953 38.1839 49.5953C37.6323 49.6584 37.0602 49.7846 36.5086 49.9107C36.4065 49.9317 36.3043 50.0789 36.243 50.184C36.2226 50.2471 36.2634 50.3522 36.3043 50.4784C36.4065 50.4994 36.5086 50.5625 36.6312 50.6045C36.7129 50.4994 36.7946 50.4153 36.8968 50.3522C37.3258 50.0999 37.7753 49.8476 38.2247 49.5953ZM6.25161 50.121L6.39462 50.142L6.3129 50.3102L6.25161 50.121ZM12.871 48.9226C13.157 49.0908 13.443 49.28 13.729 49.4482C14.0151 49.6374 14.2806 49.8056 14.5667 49.9948C14.0968 49.8687 13.6269 49.7635 13.157 49.5953C12.9935 49.5323 12.8914 49.259 12.871 48.9226ZM42.086 48.5441C41.8 48.418 41.3301 48.7123 41.3097 49.0487C41.3097 49.0908 41.3301 49.1538 41.3505 49.1749C41.4323 49.2379 41.5753 49.2379 41.7183 49.1749L41.7387 49.0487L41.8613 49.1328C42.0452 49.0487 42.1882 48.9015 42.229 48.7544C42.229 48.7123 42.2086 48.6703 42.2086 48.6282C42.1473 48.6072 42.1269 48.5651 42.086 48.5441ZM43.7 48.7333C43.5774 48.7754 43.4753 48.7964 43.3731 48.8385C43.3527 48.8385 43.3527 48.9646 43.3527 48.9646C43.4548 48.9856 43.5774 49.0067 43.6796 49.0277L43.7 48.7333ZM45.6613 46.9673C45.3548 47.0934 45.0688 47.2196 44.7624 47.3668C44.7215 47.3878 44.6806 47.3878 44.6398 47.4088C44.4968 47.5349 44.3333 47.6611 44.1699 47.7872C43.8839 47.9975 43.843 48.3969 44.0269 48.6282C44.2108 48.8595 44.4968 48.9015 44.7419 48.7544C44.7624 48.7544 44.7624 48.7333 44.7624 48.7333C44.6398 48.5862 44.5785 48.3759 44.6806 48.1657C44.8849 47.7662 45.1914 47.4508 45.4978 47.1355C45.5591 47.0724 45.6 47.0093 45.6613 46.9673ZM9.00968 47.4929L9.17312 47.6401L8.96882 47.7452L9.00968 47.4929ZM14.3419 47.577C14.3828 47.598 14.4237 47.6401 14.4645 47.6611L14.3011 47.619L14.2398 47.577C14.2806 47.577 14.3011 47.577 14.3419 47.577ZM4.35161 46.757C4.39247 47.0304 4.4129 47.2196 4.43333 47.4088C3.96344 47.2827 3.82043 47.1145 4.35161 46.757ZM7.51828 42.8465L8.84624 47.1775C8.56021 46.9883 8.39677 46.9252 8.31505 46.7991C8.04946 46.4207 7.78387 46.0422 7.55914 45.6427C7.45699 45.4535 7.37527 45.2012 7.37527 44.991C7.3957 44.3392 7.47742 43.6664 7.51828 42.8465ZM9.58172 45.033C9.66344 45.4745 9.74516 45.9161 9.82688 46.3366C9.94946 46.3786 10.0925 46.4207 10.3989 46.5047C10.0516 45.895 9.92903 45.3904 9.58172 45.033ZM53.2 44.8018C53.1591 44.9069 53.1387 45.012 53.0978 45.0751C53.0366 45.1382 52.9344 45.1592 52.7914 45.2223C52.8731 45.0541 52.8936 44.9069 52.9548 44.8438C52.9957 44.8018 53.0978 44.8228 53.2 44.8018ZM49.0323 43.246C49.0118 43.267 48.9914 43.288 48.9914 43.309C48.8892 43.4772 48.6849 43.6664 48.4602 43.8977C48.5624 43.8977 48.6849 43.8977 48.7871 43.8977C48.8075 43.8977 48.9505 43.8767 49.0323 43.8767C49.0731 43.8346 49.0935 43.8136 49.1344 43.7716C49.2774 43.6244 49.4 43.4772 49.543 43.3301C49.5634 43.309 49.5839 43.267 49.6043 43.246C49.4613 43.267 49.2978 43.267 49.1344 43.246C49.0935 43.246 49.0527 43.246 49.0323 43.246ZM10.5624 43.5613C10.6032 43.6454 10.6645 43.7085 10.7054 43.7716L10.9505 43.8557C10.828 43.7716 10.6849 43.6664 10.5624 43.5613ZM53.4656 43.0988L53.7925 43.246L53.6699 43.4982C53.5882 43.4562 53.5269 43.4142 53.4452 43.3721C53.4452 43.267 53.4452 43.1829 53.4656 43.0988ZM53.057 42.4681C53.0774 42.5522 53.0978 42.6362 53.0978 42.7203C53.0161 42.7414 52.9548 42.7624 52.8731 42.7834C52.9344 42.6783 52.9957 42.5732 53.057 42.4681ZM50.5237 41.6691C50.4419 41.8163 50.3806 42.0055 50.3194 42.2368L50.6667 42.1106C50.6258 41.9635 50.5645 41.8163 50.5237 41.6691ZM6.47634 40.8912L6.76237 41.9424C6.68064 41.9635 6.61935 41.9635 6.53763 41.9845C6.47634 41.6271 6.39462 41.2907 6.33333 40.9333C6.37419 40.9333 6.43548 40.9122 6.47634 40.8912ZM53.5269 41.4379L53.3839 41.6481L53.2817 41.4799L53.5269 41.4379ZM53.6086 40.9963L53.7516 41.1856L53.486 41.2697L53.6086 40.9963ZM10.1538 39.6928C10.1538 39.7769 10.1538 39.861 10.1742 39.9451C10.2559 40.1343 10.3785 40.3025 10.4806 40.4918C10.4602 40.3866 10.4398 40.3025 10.4194 40.1974C10.3989 40.0082 10.2968 39.84 10.1538 39.6928ZM53.6086 39.9451L53.7108 40.0713L53.5269 40.1133L53.6086 39.9451ZM7.49785 39.819V39.9241L7.6 39.882L7.49785 39.819ZM7.33441 38.4734C7.25269 38.4944 7.17097 38.5995 7.17097 38.6626C7.21183 38.8518 7.27312 39.0411 7.33441 39.2303C7.41613 39.2093 7.51828 39.1882 7.6 39.1462C7.55914 38.957 7.53871 38.7467 7.49785 38.5575C7.49785 38.5154 7.37527 38.4524 7.33441 38.4734ZM4.45376 37.7375L4.51505 37.9898L4.33118 37.9688L4.45376 37.7375ZM53.057 37.3801C52.9957 37.3801 52.8935 37.3381 52.8731 37.3801C52.8323 37.4432 52.7914 37.5483 52.771 37.6324C52.771 37.6745 52.7505 37.6955 52.7505 37.7375C52.771 37.7586 52.8731 37.8006 52.9957 37.8637C53.0161 37.6745 53.0366 37.5273 53.057 37.3801ZM3.16667 33.7429C3.26882 33.869 3.41183 33.9952 3.47312 34.1424C3.8 35.1305 4.02473 36.1607 4.63763 37.0648C4.67849 37.1278 4.6172 37.4012 4.53548 37.4012C4.39247 37.4432 4.16774 37.4432 4.04516 37.3801C3.90215 37.296 3.77957 37.1068 3.75914 36.9386C3.55484 35.8664 3.35054 34.7941 3.16667 33.7429ZM7.33441 34.6049L7.37527 34.731C7.3957 34.8151 7.43656 34.8782 7.45699 34.9623L7.53871 35.1515C7.57957 35.0885 7.55914 35.0044 7.47742 34.8572C7.41613 34.7731 7.37527 34.689 7.33441 34.6049ZM5.00538 32.4604C4.96452 32.4184 4.80107 32.3973 4.78064 32.4184C4.69892 32.5445 4.55591 32.7127 4.57634 32.8599C4.63763 33.3855 4.84194 33.9321 4.47419 34.4367C4.63763 34.5418 4.80108 34.6469 5.00538 34.7941C5.27097 34.1424 4.92366 33.4486 5.27097 32.8809C5.2914 32.8178 5.10753 32.5866 5.00538 32.4604ZM7.43656 34.2054C7.3957 34.2265 7.29355 34.2475 7.29355 34.2895C7.27312 34.3526 7.29355 34.4157 7.29355 34.4998C7.33441 34.4577 7.3957 34.3947 7.41613 34.3316C7.43656 34.2895 7.43656 34.2475 7.43656 34.2054ZM7.47742 33.1752C7.41613 33.2173 7.31398 33.2593 7.31398 33.2804C7.33441 33.3855 7.3957 33.4696 7.43656 33.5537L7.55914 33.3855L7.47742 33.1752ZM6.61936 31.1989H6.5172C6.49677 31.4092 6.47634 31.5984 6.45591 31.8086C6.45591 31.8297 6.5172 31.8507 6.55806 31.8717C6.59892 31.8507 6.66021 31.8297 6.66021 31.8086C6.66021 31.5984 6.63979 31.3882 6.61936 31.1989ZM55.7129 30.5892C55.7333 30.6313 55.7538 30.6733 55.7538 30.7154C55.7538 30.7574 55.7333 30.7785 55.7333 30.8205C55.7129 30.7785 55.7129 30.7574 55.6925 30.7154C55.6925 30.6733 55.7129 30.6313 55.7129 30.5892ZM0 30.6944H0.102151L0.0408602 30.8205L0 30.6944ZM6.5172 29.7903V30.2739C6.59892 30.1477 6.66022 30.0216 6.72151 29.8954C6.63979 29.8744 6.57849 29.8323 6.5172 29.7903ZM6.00645 26.6156C5.98602 26.931 5.96559 27.2674 5.96559 27.5827C5.96559 27.7509 6.08817 27.9191 6.1086 28.0873C6.12903 28.2765 6.21075 28.4868 6.21075 28.697H6.23118C6.12903 28.1504 6.06774 27.5827 6.02688 27.0151C6.00645 26.8889 6.00645 26.7418 6.00645 26.6156ZM56.3667 25.7116C56.7753 26.5105 57 27.3725 57 28.3186C56.714 27.4776 56.3871 26.6577 56.3667 25.7116ZM53.2613 25.3541C53.0979 25.3541 52.9753 25.4172 52.8731 25.4803C53.2204 26.1531 53.2613 26.7838 53.4247 27.5197C53.4452 27.6458 53.4656 27.793 53.486 27.9191C53.6495 27.0781 53.629 26.2161 53.2613 25.3541ZM55.6312 24.408C55.7333 24.9967 55.8355 25.5644 55.9376 26.1531C55.6107 25.6275 55.3656 25.1018 55.6312 24.408ZM5.41398 24.408C5.43441 24.6183 5.47527 24.8075 5.4957 25.0598C4.94409 24.8496 4.94409 24.8496 5.41398 24.408ZM56.0398 24.7234L56.2645 24.8706L56.0602 24.9967C56.0602 24.9757 56.0398 24.7234 56.0398 24.7234ZM52.771 24.1137C52.7301 24.1768 52.6688 24.2819 52.6892 24.3239C52.7301 24.408 52.8118 24.4921 52.8935 24.5552L53.0366 24.3029C52.9344 24.2398 52.8527 24.1768 52.771 24.1137ZM52.5258 22.9573C52.5054 22.9784 52.4645 22.9994 52.4645 23.0414C52.4645 23.0625 52.4849 23.1045 52.5054 23.1466L52.5667 23.0625C52.5667 23.0414 52.5462 22.9994 52.5258 22.9573ZM52.1785 21.9061C52.1581 21.8851 52.1172 21.9061 52.0763 21.9061L52.1376 22.0323L52.2194 21.9692C52.2194 21.9482 52.1989 21.9061 52.1785 21.9061ZM8.45807 17.7643C7.92688 18.8366 7.37527 19.9088 6.74194 20.939L6.61936 20.918L6.74194 20.939C6.74194 21.0021 6.74194 21.0651 6.74194 21.1072C7.15054 20.2242 7.66129 19.4042 8.17204 18.5843C8.19247 18.5632 8.2129 18.5422 8.2129 18.5212C8.31505 18.2899 8.37634 18.0166 8.45807 17.7643ZM51.0957 19.9298C51.0753 19.9929 51.0344 20.077 51.0548 20.119C51.0753 20.1611 51.1774 20.1611 51.2387 20.1821C51.2183 20.119 51.2183 20.0349 51.1978 19.9719C51.1978 19.9508 51.1366 19.9298 51.0957 19.9298ZM55.9376 19.4252L56.4688 19.9719L56.571 20.077C56.0806 19.7827 56.0602 19.7616 55.9376 19.4252ZM55.672 19.0678C55.6925 19.0888 55.6925 19.1099 55.7129 19.1519L55.7333 19.194C55.7538 19.215 55.7538 19.236 55.7538 19.2781C55.7538 19.3201 55.7538 19.3411 55.7538 19.3832L55.7129 19.2781C55.6925 19.2991 55.6925 19.3201 55.6925 19.2991C55.6925 19.236 55.6925 19.194 55.6925 19.1309V19.215L55.672 19.194L55.6925 19.1729L55.672 19.0678ZM55.4473 17.9115C55.5495 17.9746 55.6925 17.9956 55.7333 18.0797C55.7538 18.1427 55.6516 18.2479 55.6108 18.353C55.5086 18.2899 55.4065 18.2479 55.3043 18.1848C55.3452 18.0797 55.4064 17.9956 55.4473 17.9115ZM4.8828 17.3648L4.94409 17.5961L4.76021 17.5541L4.8828 17.3648ZM6.25161 16.5028C6.29247 16.4608 6.39462 16.4818 6.47634 16.4818C6.49677 16.5659 6.49677 16.65 6.5172 16.7341C6.39462 16.7341 6.27204 16.7341 6.12903 16.7341C6.16989 16.65 6.19032 16.5449 6.25161 16.5028ZM8.09032 16.2085C8.11075 16.2926 8.15161 16.3767 8.17204 16.4818C8.09032 16.5028 7.98817 16.5869 7.94731 16.5659C7.88602 16.5239 7.86559 16.3977 7.84516 16.3136C7.92688 16.2716 8.0086 16.2505 8.09032 16.2085ZM5.27097 16.2926L5.35269 16.4818H5.18925L5.27097 16.2926ZM6.84409 15.788C6.94624 15.8301 7.06882 15.8931 7.17097 15.9352C7.10968 15.9983 7.02796 16.0613 6.96667 16.1244C6.88495 16.1034 6.82366 16.0823 6.74194 16.0613C6.7828 15.9772 6.82366 15.8721 6.84409 15.788ZM7.33441 14.6527C7.41613 14.6737 7.57957 14.6947 7.57957 14.6947C7.55914 14.8209 7.49785 14.947 7.45699 15.0732L7.1914 14.9891C7.25269 14.884 7.29355 14.7788 7.33441 14.6527ZM7.51828 13.6435C7.57957 13.6856 7.64086 13.7276 7.70215 13.7697L7.6 13.9379C7.55914 13.8327 7.53871 13.7486 7.51828 13.6435ZM9.21398 12.9287C9.23441 12.9287 9.2957 12.9707 9.2957 12.9918C9.33656 13.3492 8.94839 13.3912 8.76452 13.5804C8.70323 13.4963 8.66237 13.4543 8.6828 13.4543C8.78495 13.223 8.84624 12.9497 9.21398 12.9287ZM8.60108 11.8564C8.64194 11.8354 8.76452 11.8775 8.86667 11.8985C8.76452 12.0246 8.6828 12.1508 8.56021 12.2769C8.53979 12.2979 8.39677 12.2349 8.23333 12.1928C8.37634 12.0667 8.47849 11.9405 8.60108 11.8564ZM12.3398 8.91301V9.12325L12.1355 9.01813L12.3398 8.91301ZM13.9333 7.77768C13.872 7.88281 13.8108 7.98793 13.729 8.09305C13.7086 8.11408 13.586 8.051 13.5247 8.02998C13.6473 7.94588 13.7903 7.86178 13.9333 7.77768L13.729 7.90383L13.7495 7.88281L13.9333 7.77768ZM14.4849 7.86178C14.4032 7.92486 14.3215 7.96691 14.2398 8.02998L14.1989 7.98793C14.3011 7.92486 14.4032 7.88281 14.4849 7.86178ZM43.1688 6.0747C43.128 6.09573 43.0667 6.13778 43.0258 6.1588C43.0462 6.17983 43.0667 6.22187 43.1075 6.2429C43.1484 6.22187 43.1892 6.22187 43.1892 6.17983C43.1892 6.1588 43.1892 6.11675 43.1688 6.0747ZM41.4731 4.53992C41.5753 5.23372 41.8204 5.40192 42.5968 5.44397L41.4731 4.53992ZM20.9817 4.75016C20.9613 4.77119 20.9204 4.79221 20.9 4.81324C20.9 4.83426 20.9204 4.85528 20.9204 4.87631H20.9409C20.9817 4.85528 21.0021 4.81324 21.043 4.79221C21.0634 4.77119 20.9817 4.75016 20.9817 4.75016ZM22.8409 4.20353C22.5753 4.22455 22.3301 4.22455 22.0849 4.28762L21.9828 4.32967C21.8806 4.39275 21.7785 4.45582 21.6559 4.58197C22.1462 4.68709 22.4731 4.53992 22.8409 4.20353ZM24.3527 2.2903C24.4753 2.35337 24.5978 2.41645 24.7 2.50054C24.7204 2.50054 24.6387 2.64772 24.5978 2.71079C24.4957 2.64772 24.3731 2.58464 24.271 2.50054C24.2505 2.50054 24.3323 2.3744 24.3527 2.2903ZM30.0527 1.95391C30.0118 1.86981 29.828 1.82776 29.7258 1.84879C29.5828 1.89084 29.4398 1.95391 29.2968 2.01698C29.5215 1.97493 29.7667 1.95391 29.971 1.99596C29.9914 1.99596 30.0323 1.99596 30.0527 2.01698C30.0527 1.99596 30.0527 1.97493 30.0527 1.95391ZM30.829 1.53342C30.9516 1.68059 31.0538 1.82776 31.1151 1.93288C31.2376 1.89083 31.3398 1.86981 31.4624 1.80674C31.5237 1.78571 31.6054 1.76469 31.6667 1.74366L30.829 1.53342ZM38.3269 1.80674L38.2043 1.93288L38.0817 1.80674H38.3269ZM34.6086 1.51239C34.8946 1.11293 35.2011 1.13395 35.671 1.47035C35.2419 1.82776 34.9355 1.55444 34.6086 1.51239ZM27.2946 0.986783C27.4172 1.02883 27.5398 1.07088 27.6419 1.13395C27.6624 1.13395 27.6215 1.30215 27.6011 1.38625C27.4785 1.40727 27.3559 1.40727 27.2129 1.4283C27.2538 1.28113 27.2742 1.13395 27.2946 0.986783Z" fill="#00386C"/>
<path fill-rule="evenodd" clip-rule="evenodd" d="M21.186 40.4094C21.0839 40.4515 21.1247 40.5987 20.9817 40.6828C20.5731 40.935 20.1032 41.2504 19.7559 41.3555C19.6742 41.3976 19.5721 41.5027 19.429 41.5868L19.5108 41.6919C19.5312 41.6919 19.5312 41.6919 19.5516 41.6709C19.5721 41.6709 19.5721 41.6499 19.6129 41.6499C19.4086 41.734 19.0613 41.9652 18.9387 41.9652C18.8366 41.9652 18.4075 41.8811 18.3054 41.8811C18.2032 41.9022 18.1624 41.9022 17.8559 41.776C17.8151 41.734 17.6312 41.755 17.5495 41.6709C17.0591 41.2294 16.7323 40.6828 16.5075 40.1361C16.3032 39.5895 16.2419 38.7906 16.2419 38.2649C16.2419 37.1717 16.6097 35.742 17.5903 34.88C18.1419 34.4175 19.1635 33.7026 19.5312 33.7026C19.7355 33.7026 19.8581 33.9549 19.9807 33.997C20.3893 34.2282 20.9409 34.8169 21.1452 35.1743C21.2678 35.4056 21.2678 35.7 21.2269 35.7C21.1043 35.6789 21.186 35.9523 21.1452 36.0363C21.043 36.2045 20.9204 36.4148 20.757 36.562C20.5527 36.7512 20.0624 37.1927 19.9398 37.1927C19.7764 37.1927 19.4903 36.9614 19.4903 36.8143C19.4903 36.7302 19.8581 36.1415 19.8172 35.8682C19.8172 35.8051 19.8785 35.742 19.8785 35.6579C19.8785 35.5528 19.8376 35.2795 19.7968 35.0902C19.1839 35.5107 18.9183 36.0574 18.6527 36.5199C18.2645 37.2137 17.9785 38.0337 17.8559 38.7275C17.8559 38.8116 17.7742 38.9377 17.7333 39.0428C17.7129 39.148 17.6925 39.2951 17.6516 39.5264C17.6312 39.7367 17.6108 39.8628 17.6108 39.9049C17.6108 40.01 17.6108 40.3043 17.6516 40.4725C17.6516 40.5776 17.8968 41.2294 18.1011 41.2294C18.2032 41.2294 18.4688 41.1032 18.6118 41.0612C19.8376 40.7248 20.5323 40.3884 21.4925 40.073C21.4721 40.1992 21.2678 40.3253 21.186 40.4094Z" fill="#FEFEFE"/>
<path fill-rule="evenodd" clip-rule="evenodd" d="M24.557 38.6222L24.5162 38.5801C24.4958 38.5591 24.4753 38.5591 24.4753 38.5171C24.4753 38.1597 24.4549 37.8022 24.414 37.4028C23.3721 37.9915 22.8613 39.2529 22.5345 40.0519C22.4119 40.3672 22.2076 40.7457 22.1259 41.1031C22.0441 41.4815 22.1463 41.8389 22.1463 42.2594C22.1054 42.2594 22.0441 42.3435 21.942 42.3435C21.8398 42.3435 21.8194 42.2384 21.8194 42.2594C21.799 42.3015 21.799 42.3435 21.8194 42.3856C21.6968 42.3435 21.5538 42.3646 21.513 42.2805C21.4721 42.3225 21.4312 42.3225 21.3904 42.3646C21.0431 41.881 20.9409 41.6497 20.9409 41.2503C20.9409 40.2621 21.4108 37.7392 21.513 37.1084C21.5538 37.0243 21.4925 36.9192 21.4925 36.8351V36.6038C21.5947 36.6038 21.6764 36.5408 21.7581 36.5408C21.8603 36.5408 21.9829 36.751 22.085 36.751C22.1667 36.751 22.0646 36.709 22.1667 36.709C22.2689 36.709 22.2689 36.7931 22.2893 36.8351C22.7388 36.9402 22.5958 37.3607 22.6979 37.6971C23.2699 37.0454 23.556 36.73 24.0667 36.73C24.1689 36.73 24.3323 36.751 24.557 36.8141C24.7818 36.8561 24.9452 36.9192 25.0678 37.0033C25.1291 37.0454 25.1495 37.1084 25.1495 37.2346C25.1291 37.4028 24.6796 38.1597 24.557 38.6222ZM27.1312 38.0335C27.0904 37.8022 27.0087 37.5289 26.9065 37.3397C26.3549 38.2858 26.2119 39.0847 26.0484 39.7575C26.0076 39.9257 25.885 40.1149 25.8646 40.199C25.7624 40.4934 25.7011 41.2082 25.7011 41.2923C25.6807 41.3974 25.742 41.6077 25.8033 41.7548C26.2936 41.5866 27.0904 40.178 27.1312 39.4001C27.1517 39.295 27.1312 38.496 27.1312 38.0335ZM27.8054 41.2923C27.7646 41.3344 27.7237 41.4185 27.7033 41.5025C27.6624 41.5025 27.6216 41.5236 27.6011 41.5446C27.499 41.7338 27.2334 42.0282 26.9474 42.1753C26.6613 42.2805 26.1506 42.4066 26.0689 42.4066C25.9667 42.4066 25.7624 42.3435 25.6807 42.3015C24.7205 41.9441 24.7205 41.1031 24.7205 40.5985C24.7818 39.2109 25.6398 37.4869 26.5796 36.3936C26.6818 36.2885 27.0495 36.3095 27.1312 36.3095C27.2334 36.3095 27.2947 36.4146 27.3764 36.4987C27.2947 36.6038 27.1925 36.772 27.1517 36.8561C27.2742 36.8982 27.4581 36.8772 27.6011 36.8982C27.8872 36.9823 27.8667 37.2556 27.928 37.3818C28.071 37.592 28.1732 37.7812 28.3162 38.0756C28.3366 38.1176 28.3162 38.2438 28.3162 38.3489L28.3979 38.475C28.4592 38.7273 28.5001 39.316 28.5001 39.4001C28.4592 40.0939 28.0506 40.9349 27.8054 41.2923ZM31.442 37.7812C31.4011 37.7392 31.442 37.6971 31.4011 37.6971C31.1151 38.0335 30.5839 38.7694 30.4818 39.1899C30.4409 39.274 30.3592 39.4211 30.3183 39.5683C30.3388 39.5473 30.3388 39.5262 30.3388 39.5262L30.3592 39.5473C30.1753 39.9678 30.0732 40.157 29.8484 40.8718C30.8495 39.5262 31.442 38.412 31.7484 37.592C31.6667 37.613 31.585 37.6761 31.442 37.7812ZM32.6678 39.1058C32.6269 39.4211 32.5656 39.8416 32.4635 40.2411C32.4022 40.6195 32.3205 41.1031 32.3205 41.1451C32.3205 41.2292 32.3613 41.6918 32.4226 41.9651H32.4022C32.3818 41.9651 32.3818 41.9861 32.3613 42.0071C32.4431 42.0912 32.5248 42.1753 32.6678 42.2384C32.5861 42.2384 32.4635 42.3435 32.3818 42.3435C32.157 42.3435 31.442 41.7969 31.3194 41.3344C31.1764 40.9139 31.1764 40.5354 31.1764 40.3883C31.1968 40.2201 31.2173 40.0939 31.1968 39.8837C31.0334 40.0519 30.9312 40.3042 30.7474 40.4724C30.5839 40.6826 30.4205 40.9139 30.257 41.3133C30.2162 41.3554 30.2366 41.5236 30.1753 41.6077C30.0323 41.86 29.9097 42.1123 29.7259 42.2805C29.6441 42.3646 29.4398 42.4487 29.3377 42.4487H29.1538C29.0925 42.4487 29.0108 42.3015 28.9291 42.2594C28.4796 41.9441 28.4796 41.6287 28.4796 41.3764C28.4796 41.0821 28.5818 40.5354 28.6839 40.3672C28.8269 40.0098 29.0312 39.5473 29.256 39.1688C29.5829 38.6012 30.257 37.3818 31.0334 36.6038C31.0742 36.5618 31.156 36.5828 31.2581 36.5828C31.6054 36.5828 31.9732 36.73 32.2796 36.8141V36.9613C32.1366 37.1925 31.9323 37.2766 31.9732 37.4448C32.157 37.4028 32.4226 37.4448 32.6678 37.4869C32.6269 37.6761 32.7087 38.0756 32.7087 38.1597C32.7087 38.2017 32.7087 38.8535 32.6678 39.1058ZM37.1216 37.3818C36.7538 37.571 36.1409 37.8443 35.8958 37.8022C35.814 37.8022 35.4054 37.8863 35.3237 38.0335C35.2624 38.1176 35.1398 38.7063 35.0785 39.0006C34.9764 39.4842 34.6904 40.178 34.6904 40.7667C34.6904 41.2292 34.7721 41.5446 35.3237 41.5446C35.9162 41.5446 36.7334 40.8718 37.2237 40.4724C37.1828 40.5775 37.1624 40.8508 37.0398 40.998C36.9581 41.1451 36.7947 41.3133 36.6312 41.4185C36.6312 41.4605 36.6721 41.4815 36.6721 41.5236C36.5904 41.6707 36.5495 41.86 36.5291 42.0071C36.4474 42.0492 36.4065 42.1123 36.3656 42.1543C36.2431 42.2805 35.814 42.4066 35.5893 42.4066C35.3441 42.4066 35.0377 42.3015 34.7721 42.1333C34.7108 42.0702 34.5882 41.923 34.4656 41.8389C34.4248 41.7969 34.3635 41.8389 34.2818 41.7969C33.5463 41.019 33.4646 40.2411 33.4646 39.4632C33.4646 39.4211 33.4441 39.3581 33.4441 39.2529C33.4033 39.1688 33.5871 37.9704 33.5871 37.8863C33.5871 37.8233 33.5667 37.7602 33.5054 37.6971C33.4646 37.6761 33.4237 37.592 33.4237 37.4448C33.4237 37.3607 33.2807 37.2766 33.1785 37.2346C33.1377 37.1295 33.1173 37.0874 33.1173 37.0033C33.1173 36.7931 33.342 36.8351 33.4237 36.8351C33.5259 36.8351 33.5667 36.8561 33.6484 36.8561C33.7506 36.8561 33.771 36.8772 33.8119 36.772C34.2205 35.6157 34.6291 35.048 35.3237 34.186C35.9366 34.9429 35.8345 35.91 35.7119 36.772C36.0183 36.8141 36.4474 36.8141 36.8151 36.8561C37.1828 36.8982 37.4484 36.9402 37.7549 37.0664C37.5097 37.2556 37.2646 37.2977 37.1216 37.3818Z" fill="#FEFEFE"/>
<path fill-rule="evenodd" clip-rule="evenodd" d="M38.4291 35.5734C38.3473 35.5524 38.1635 35.4472 38 35.3421C38.0409 34.8165 38.3269 34.375 38.7968 34.375C38.9398 34.375 39.3689 34.5432 39.4301 34.6063C39.471 34.6693 39.471 34.7745 39.471 34.8796C39.471 35.3211 38.6334 35.5734 38.4291 35.5734ZM38.9602 41.7966C38.9602 42.07 38.4904 42.4484 38.3678 42.4063C38.2656 42.4063 38.2861 42.2802 38.2043 42.2802C38.1022 42.2802 38.2043 42.3012 38.1022 42.3012C38 42.2802 37.8162 42.091 37.7344 42.091C37.6323 42.07 37.7549 42.133 37.6527 42.112C37.6119 42.112 37.3054 41.6495 37.2033 41.4182C37.1011 41.271 37.0194 40.9977 36.9785 40.7875C36.9172 40.5141 36.9172 40.0306 36.9172 39.9255C36.9172 39.8414 36.9785 39.4839 37.0194 39.3158C37.0807 38.3696 37.4076 37.0872 38.1839 36.2462C38.6129 36.2882 38.8581 37.0031 38.8581 37.3395C38.8581 37.4446 38.0613 40.8505 38.0613 40.9767L38.0409 41.7756C38.0818 41.8177 38.1022 41.7966 38.2043 41.7966C38.4291 41.7966 38.6538 41.6284 38.9602 41.4813V41.7966ZM42.0043 37.781C41.9635 37.7389 42.0043 37.6969 41.9635 37.6969C41.6775 38.0333 41.1463 38.7691 41.0441 39.1896C41.0033 39.2737 40.9215 39.4209 40.8807 39.568C40.9011 39.547 40.9011 39.526 40.9011 39.526L40.9215 39.547C40.7377 39.9675 40.6355 40.1567 40.4108 40.8716C41.4119 39.526 42.0043 38.4117 42.3108 37.5917C42.2086 37.6128 42.1474 37.6758 42.0043 37.781ZM43.2301 39.1055C43.1893 39.4209 43.128 39.8414 43.0258 40.2408C42.9646 40.6193 42.8828 41.1028 42.8828 41.1449C42.8828 41.229 42.9237 41.6915 42.985 41.9648H42.9646C42.9441 41.9648 42.9441 41.9859 42.9237 42.0069C43.0054 42.091 43.0871 42.1751 43.2301 42.2382C43.1484 42.2382 43.0258 42.3433 42.9441 42.3433C42.7194 42.3433 42.0043 41.7966 41.8818 41.3341C41.7387 40.9136 41.7387 40.5352 41.7387 40.388C41.7592 40.2198 41.7796 40.0937 41.7592 39.8834C41.5957 40.0516 41.4936 40.3039 41.3097 40.4721C41.1463 40.6823 40.9828 40.9136 40.8194 41.3131C40.7785 41.3551 40.799 41.5233 40.7377 41.6074C40.5947 41.8597 40.4721 42.112 40.2882 42.2802C40.2065 42.3643 40.0022 42.4484 39.9 42.4484H39.7162C39.6549 42.4484 39.5732 42.3012 39.4914 42.2592C39.042 41.9438 39.042 41.6284 39.042 41.3761C39.042 41.0818 39.1441 40.5352 39.2463 40.367C39.3893 40.0096 39.5936 39.547 39.8183 39.1686C40.1452 38.6009 40.8194 37.3815 41.5957 36.6036C41.6366 36.5615 41.7183 36.5826 41.8205 36.5826C42.1678 36.5826 42.5355 36.7297 42.842 36.8138V36.961C42.699 37.1923 42.4947 37.2764 42.5355 37.4446C42.7194 37.4025 42.985 37.4446 43.2301 37.4866C43.1893 37.6758 43.271 38.0753 43.271 38.1594C43.271 38.2015 43.2506 38.8532 43.2301 39.1055Z" fill="#FEFEFE"/>
<path fill-rule="evenodd" clip-rule="evenodd" d="M14.0967 27.5424C14.015 27.5004 13.9128 27.3532 13.7902 27.3322C13.6064 27.2691 13.3408 27.206 13.2795 27.206C13.0139 27.206 12.7891 27.4373 12.7891 27.6055C12.7891 27.6685 13.0343 28.3624 13.1569 28.6777C13.2795 29.0562 13.3612 29.3715 13.4225 29.7079C13.4225 29.771 13.6268 30.1284 13.6268 30.2756C13.6268 30.3597 13.6268 30.591 13.5451 30.7171C13.4838 30.8432 13.3203 30.9484 13.1773 31.0325C13.0547 31.1166 12.83 31.1376 12.7687 31.1376H12.5848C11.9515 31.1376 11.7881 30.5069 11.5838 30.0233C11.5429 29.8971 11.3999 29.7289 11.3999 29.6449C11.3999 29.4977 11.5633 29.3085 11.7676 29.0982C11.9515 29.1823 11.8289 29.3295 11.8289 29.4556C11.8289 29.5397 11.8085 29.6238 11.8289 29.7289C12.0741 30.0023 12.4623 30.1494 12.7687 30.1494C12.9322 30.1494 12.9322 30.1705 13.0956 30.0443C13.0956 30.0023 13.0956 29.9602 13.0956 29.9392C12.9117 29.6659 11.9719 27.7316 11.9719 27.0378C11.9719 26.5332 12.3397 26.1548 12.83 26.1548C13.3203 26.1548 14.158 26.7014 14.158 27.3742C14.1375 27.4583 14.1171 27.5004 14.0967 27.5424Z" fill="#00AEEF"/>
<path fill-rule="evenodd" clip-rule="evenodd" d="M17.1817 27.6263C16.8753 27.7945 16.3849 28.0257 16.1806 28.0047C16.0989 28.0047 15.772 28.0678 15.7107 28.1939C15.6494 28.278 15.5473 28.7826 15.5064 29.0349C15.4247 29.4554 15.2 30.0441 15.2 30.5697C15.2 30.9692 15.2613 31.2425 15.7312 31.2425C16.2215 31.2425 16.8957 30.6538 17.2839 30.3174C17.243 30.4015 17.2226 30.6538 17.1408 30.7799C17.0591 30.9061 16.9365 31.0533 16.814 31.1584C16.814 31.2004 16.8548 31.2215 16.8548 31.2425C16.7731 31.3686 16.7527 31.5368 16.7322 31.663C16.6505 31.705 16.6301 31.7681 16.5892 31.7891C16.4871 31.8942 16.1398 31.9994 15.9559 31.9994C15.7516 31.9994 15.5064 31.8942 15.3021 31.7681C15.2408 31.705 15.1591 31.5999 15.0365 31.5158C14.9957 31.4737 14.9548 31.5158 14.8731 31.4737C14.2602 30.801 14.2193 30.1282 14.2193 29.4554C14.2193 29.4134 14.1989 29.3713 14.1989 29.2872C14.158 29.2031 14.3215 28.1729 14.3215 28.0888C14.3215 28.0257 14.3011 27.9837 14.2398 27.9206C14.1989 27.8996 14.1785 27.8365 14.158 27.7104C14.158 27.6263 14.0355 27.5632 13.9537 27.5422C13.9129 27.4581 13.8925 27.416 13.8925 27.3319C13.8925 27.1637 14.0763 27.1848 14.158 27.1848C14.2398 27.1848 14.2806 27.2058 14.3419 27.2058C14.4236 27.2058 14.4441 27.2268 14.4849 27.1217C14.8118 26.1125 15.1387 25.629 15.7312 24.8721C16.2419 25.5238 16.1602 26.3648 16.0376 27.1217C16.2828 27.1637 16.6505 27.1637 16.9365 27.1848C17.243 27.2268 17.4473 27.2689 17.6925 27.353C17.5086 27.5212 17.3043 27.5632 17.1817 27.6263Z" fill="#00AEEF"/>
<path fill-rule="evenodd" clip-rule="evenodd" d="M19.3881 27.6264C19.3472 27.5844 19.3881 27.5634 19.3472 27.5634C19.1021 27.8577 18.6526 28.4884 18.5709 28.8248C18.53 28.9089 18.4687 29.0351 18.4279 29.1402C18.4483 29.1192 18.4483 29.0981 18.4483 29.0981L18.4687 29.1192C18.3053 29.4766 18.2236 29.6448 18.0397 30.2545C18.8774 29.0981 19.3881 28.152 19.6537 27.4582C19.572 27.5003 19.5107 27.5423 19.3881 27.6264ZM20.43 28.7618C20.3892 29.0351 20.3279 29.3925 20.2666 29.7289C20.2053 30.0653 20.144 30.4437 20.144 30.5068C20.144 30.5909 20.1849 30.9693 20.2462 31.2006H20.2257C20.2053 31.2006 20.2053 31.2216 20.1849 31.2426C20.2462 31.3267 20.3279 31.3898 20.4505 31.4529C20.3687 31.4529 20.2666 31.537 20.2053 31.537C20.001 31.537 19.4085 31.0744 19.286 30.675C19.1634 30.3176 19.1634 30.0022 19.1634 29.855C19.1838 29.7079 19.2042 29.6027 19.1838 29.4135C19.0408 29.5607 18.9591 29.7709 18.7956 29.9181C18.6526 30.0863 18.5096 30.2965 18.387 30.6329C18.3462 30.675 18.3666 30.8222 18.3257 30.8852C18.2032 31.1165 18.101 31.3267 17.9376 31.4529C17.8558 31.537 17.6924 31.6001 17.6107 31.6001H17.4472C17.386 31.6001 17.3247 31.4739 17.2634 31.4319C16.8956 31.1585 16.8956 30.8852 16.8956 30.675C16.8956 30.4227 16.9978 29.9602 17.0795 29.813C17.2021 29.4976 17.386 29.1192 17.5698 28.8038C17.8354 28.3202 18.4279 27.29 19.0817 26.6173C19.1225 26.5752 19.1838 26.5962 19.2655 26.5962C19.5515 26.5962 19.8784 26.7224 20.1236 26.8065V26.9326C20.001 27.1429 19.8376 27.2059 19.858 27.3321C20.0214 27.29 20.2257 27.3321 20.4505 27.3741C20.4096 27.5423 20.4913 27.8787 20.4913 27.9418C20.4709 27.9839 20.4709 28.5305 20.43 28.7618ZM24.6386 28.152C24.4548 28.993 24.3118 29.9181 24.1075 30.5699C24.0666 30.696 24.087 30.9063 24.0666 31.0744C24.0257 31.2006 23.9236 31.4739 23.8827 31.6842C23.7193 32.441 23.5354 33.8287 23.5354 33.9127C23.5354 34.165 23.6376 34.4804 23.6989 34.6276V34.7537C23.6784 34.7117 23.6784 34.7117 23.5967 34.7117C23.5558 34.7117 23.515 34.7537 23.515 34.8168C22.9429 34.5225 22.6569 33.6394 22.6569 33.0718C22.6569 32.7774 22.6569 32.399 22.7182 31.9995L22.7999 31.3898C22.8408 31.1796 22.9021 30.8852 22.9838 30.4858C23.0451 30.2124 23.1472 29.855 23.2494 29.5186C23.372 29.1612 23.5558 28.8038 23.6171 28.5095L23.6376 28.4464C23.6376 28.5305 23.5354 28.5095 23.4741 28.5936C23.2494 29.0561 22.9429 29.5607 22.6774 30.0863C22.5956 30.2335 22.4118 30.5068 22.33 30.7381C22.1666 31.0744 21.9623 31.4949 21.6558 31.4949C21.4924 31.4949 21.5537 31.4319 21.4107 31.3057C21.3698 31.2637 21.2472 31.2637 21.186 31.2216C20.9612 31.0114 20.8795 30.3386 20.8795 30.0863C20.8795 29.0771 21.3085 27.5844 21.7171 26.8275C21.8193 26.7434 22.5139 26.9537 22.5139 27.227C22.5139 27.3111 22.4731 27.3531 22.4322 27.3741C22.2075 28.3833 21.7989 30.3386 21.7989 30.4437V30.5278H21.8193C22.33 29.7709 23.0655 28.6566 23.5354 27.7105C23.6376 27.4793 23.944 26.9326 24.0053 26.9326C24.087 26.9326 24.3731 27.0167 24.4956 27.0167C24.4956 27.0798 24.5978 27.1218 24.6182 27.2059C24.6795 27.3321 24.6591 27.5634 24.6591 27.6264C24.6999 27.7105 24.6795 27.9839 24.6386 28.152ZM28.2956 25.9655C28.2139 25.9655 28.03 25.8604 27.8666 25.7973C27.9075 25.3978 28.1935 25.0615 28.6634 25.0825C28.8064 25.0825 29.2354 25.2086 29.2967 25.2507C29.3376 25.2927 29.3376 25.3768 29.3376 25.4609C29.3376 25.7763 28.4999 25.9655 28.2956 25.9655ZM28.8268 30.675C28.8268 30.8852 28.3569 31.1585 28.2343 31.1375C28.1322 31.1375 28.1526 31.0534 28.0709 31.0534C27.9892 31.0534 28.0709 31.0744 27.9688 31.0744C27.8666 31.0744 27.6827 30.9063 27.601 30.9063C27.4989 30.9063 27.6214 30.9273 27.5193 30.9273C27.4784 30.9273 27.172 30.5909 27.0698 30.4017C26.9677 30.2965 26.886 30.0863 26.8451 29.9181C26.7838 29.7079 26.7838 29.3504 26.7838 29.2663C26.7838 29.2033 26.8451 28.93 26.886 28.8038C26.9472 28.089 27.2741 27.1008 28.0505 26.4911C28.4795 26.5121 28.7247 27.0588 28.7247 27.3111C28.7247 27.3952 27.9279 29.9812 27.9279 30.0653L27.9075 30.675C27.9483 30.696 27.9688 30.696 28.0709 30.696C28.2956 30.696 28.5204 30.5699 28.8268 30.4437V30.675Z" fill="#00AEEF"/>
<path fill-rule="evenodd" clip-rule="evenodd" d="M32.4838 31.0533C32.3817 31.1374 32.2795 31.3267 32.1774 31.4108C32.0957 31.4528 31.9322 31.4318 31.8505 31.4318C31.401 31.4318 31.0742 31.1795 30.8494 30.8641C30.6247 30.5488 30.5225 30.2124 30.5634 29.6237C30.5634 29.056 30.829 28.4043 30.7677 27.9628C30.5634 28.2571 30.3387 28.6566 30.2365 28.9299L30.2161 28.9509C30.1957 28.9719 30.2161 28.9719 30.257 28.9719C30.1752 29.1611 30.1957 29.0981 30.2161 29.0981C30.1139 29.2873 29.9914 29.5396 29.8279 30.0021C29.6645 30.4647 29.5215 30.738 29.4193 31.0113C29.3785 31.1374 29.5419 31.2636 29.4397 31.4108C29.358 31.3897 29.2967 31.4949 29.2559 31.579C29.1742 31.579 29.1537 31.4528 29.072 31.4528C28.9903 31.4528 29.0516 31.4738 28.9699 31.4738C28.9086 31.4738 28.643 31.2426 28.5817 31.0954C28.4795 30.9062 28.5 30.4016 28.5 30.3385C28.5 29.876 28.643 29.1401 28.786 28.5725C28.929 28.0258 29.1129 27.4371 29.2763 26.8695C29.2967 26.8274 29.2967 26.7644 29.2559 26.7223C29.3989 26.6803 29.5828 26.6172 29.6645 26.6172C29.9096 26.6172 30.1752 26.6803 30.1752 26.9326C30.1752 27.0167 30.0731 27.8156 29.9709 28.3202C30.2161 27.8997 30.5021 27.353 30.829 26.9326C30.8903 26.8485 31.115 26.8485 31.1967 26.8485C31.2785 26.8485 31.5645 26.9115 31.7483 26.9536C31.8709 27.1218 31.9731 27.6264 31.9731 27.9417C31.9731 28.0048 31.9118 28.6566 31.8505 29.014C31.8096 29.1611 31.7075 29.3504 31.6666 29.5606C31.6258 29.6868 31.5645 30.1283 31.5236 30.2965C31.5032 30.4647 31.4828 30.6118 31.4828 30.6749C31.4828 30.8431 31.5236 31.0533 31.6871 31.0533C31.9527 31.0533 32.729 30.6329 33.158 30.4016C32.9537 30.5488 32.6881 30.8431 32.4838 31.0533Z" fill="#00AEEF"/>
<path fill-rule="evenodd" clip-rule="evenodd" d="M30.3183 15.3692C30.2366 15.159 29.2764 14.297 28.786 14.297C28.0505 14.297 24.7409 14.4862 24.7409 15.8528C24.7409 16 24.7204 16.3994 24.8634 16.5886C25.2312 17.0302 26.028 17.6399 26.6409 18.2286C26.7634 18.3967 27.0495 18.7121 27.2742 19.0065C28.0505 19.9736 28.643 21.2561 28.643 22.2863C28.643 22.4124 28.6022 22.6437 28.5613 22.7909C28.5 23.0011 28.3366 23.3585 28.0301 23.5688C27.7237 23.8841 26.8656 23.9893 26.7226 23.9893C26.028 23.9893 24.843 23.8 24.414 23.5688C24.414 23.5057 24.3731 23.4847 24.3118 23.4636C24.1688 23.4006 23.8419 23.2744 23.6172 22.9801C23.4742 22.7698 23.2699 22.5175 23.229 22.2863C23.1677 22.2232 23.1473 22.1181 23.1065 22.076C23.3312 21.7607 22.7591 21.0038 22.5957 20.289C22.8613 20.4571 24.3731 21.3191 24.9656 21.3191C25.4151 21.3191 26.2731 21.3822 26.8452 21.151V20.9828C26.8452 20.8566 25.5376 19.5321 24.7204 18.6701C24.7204 18.6911 24.7204 18.6911 24.7409 18.7121C24.7613 18.7331 24.7409 18.7752 24.8022 18.7752C24.8226 18.7752 24.8226 18.7752 24.8226 18.7542V18.7121C24.557 18.2496 24.2505 17.745 24.0258 17.2194C23.9441 17.0512 23.8828 16.7779 23.8011 16.5466C23.4742 15.4533 23.4742 15.7266 23.4742 14.8857C23.4742 14.7595 23.4742 14.1078 23.6172 13.7924C24.271 12.552 26.028 12.0474 27.3151 12.0474C27.8667 12.0474 29.2151 12.4468 29.5215 12.8042C29.828 13.1406 30.1344 13.7293 30.2161 14.0237C30.2979 14.1919 30.3796 14.4021 30.4409 14.6123C30.4 15.201 30.3183 15.3062 30.3183 15.3692Z" fill="#FEFEFE"/>
<path fill-rule="evenodd" clip-rule="evenodd" d="M32.6269 17.0091C32.5656 16.946 32.6269 16.904 32.5656 16.904C32.157 17.3875 31.4215 18.4177 31.2989 19.0064C31.2376 19.1326 31.1355 19.3428 31.0742 19.532C31.0946 19.49 31.1151 19.4689 31.1151 19.4689L31.1355 19.49C30.8699 20.0787 30.7473 20.352 30.4204 21.3611C31.8097 19.4479 32.6473 17.8921 33.0763 16.7358C32.9333 16.7988 32.8312 16.8829 32.6269 17.0091ZM34.343 18.9013C34.2817 19.3428 34.1796 19.9315 34.057 20.4781C33.9753 21.0248 33.8731 21.6765 33.8731 21.7396C33.8731 21.8657 33.9344 22.5175 34.0366 22.8749H34.0161C33.9957 22.8749 33.9753 22.8959 33.9548 22.938C34.057 23.0641 34.2 23.1693 34.3839 23.2744C34.2613 23.2744 34.0979 23.4215 33.9753 23.4215C33.6484 23.4215 32.6473 22.6647 32.4839 22.0129C32.3 21.4242 32.3 20.8776 32.3 20.6673C32.3204 20.4361 32.3613 20.2469 32.3409 19.9525C32.1161 20.1838 31.9527 20.5412 31.7075 20.7725C31.4828 21.0458 31.2376 21.4032 31.0129 21.9498C30.9516 22.0129 30.972 22.2442 30.9108 22.3703C30.7065 22.7488 30.543 23.0852 30.2774 23.2954C30.1548 23.4215 29.8688 23.5267 29.7258 23.5267H29.4194C29.3376 23.5267 29.2355 23.3374 29.1129 23.2534C28.5 22.7908 28.5 22.3493 28.5 22.0129C28.5 21.6134 28.6634 20.8355 28.786 20.6043C28.9699 20.0997 29.2763 19.4479 29.5828 18.9223C30.0323 18.1024 30.9925 16.4204 32.0753 15.3061C32.1366 15.243 32.2387 15.2851 32.3817 15.2851C32.872 15.2851 33.3828 15.4743 33.8118 15.6215V15.8107C33.6075 16.1471 33.3215 16.2732 33.3828 16.4835C33.6484 16.4204 33.9957 16.4835 34.343 16.5465C34.2817 16.8199 34.4043 17.3665 34.4043 17.4926C34.4043 17.6398 34.3839 18.5228 34.343 18.9013ZM39.0011 15.3902C39.2871 14.6333 39.5323 13.5821 39.7366 12.9514C39.8591 12.615 40.0634 12.0053 40.1247 11.8791C40.2065 11.6899 40.7581 10.5756 41.0441 10.1341L41.1462 10.071C41.1667 10.05 41.1871 10.05 41.2075 10.05C41.2075 11.6899 40.7376 13.4139 40.1043 14.9066C39.8387 15.5374 39.4505 16.4835 38.572 17.3875C38.6333 17.2404 38.6333 17.1983 38.6742 17.1352C38.6333 16.6306 38.8785 15.8317 39.0011 15.3902ZM42.9849 18.1234C42.9237 18.0183 42.9032 18.0393 42.8419 18.0183C42.3108 17.5347 41.4323 17.4296 40.5129 17.5137C40.0634 17.5557 39.614 17.5978 39.1849 17.7029C38.9602 17.7449 39.0419 17.7029 39.0419 17.7029C39.8183 16.7147 41.1258 14.9907 41.371 14.2339C41.4323 14.0446 41.8 13.6031 41.8613 13.477C41.9226 13.3298 41.9226 13.1826 41.9634 13.0355C42.0452 12.7411 42.2903 12.2996 42.372 11.9842C42.4742 11.2904 42.6172 10.5966 42.7602 9.96589C42.7806 9.90281 42.7194 9.79769 42.6989 9.67155C42.8011 9.14593 42.5763 8.83057 42.2495 8.83057C42.1065 8.83057 41.657 8.99876 41.3301 9.12491C40.0634 9.6295 39.1032 11.0171 38.6946 11.816C38.4903 12.1945 37.9591 13.2667 37.8979 13.3929C37.8366 13.54 37.714 14.0026 37.571 14.339C37.0806 15.5584 36.7333 16.9881 36.4882 18.4387C36.4473 18.4598 36.386 18.4598 36.3452 18.4808C36.1 18.5649 35.4462 18.7331 35.3849 18.7751C35.3237 18.8172 35.3032 18.9013 35.3237 18.9644C35.6301 19.1326 35.9978 19.2587 36.3452 19.3218C36.0591 21.3401 35.957 23.2954 35.9366 24.5569C35.8548 24.8722 35.7527 25.2297 35.6914 25.566C35.5484 26.0917 35.3645 26.7434 35.3237 26.8065C35.2624 26.9116 34.9355 27.4793 34.7108 27.7736H34.7312C34.7516 27.7736 34.7516 27.7946 34.772 27.8577C34.629 27.9208 34.4656 27.9628 34.2613 27.9628C34.3634 28.0259 34.4656 28.2151 34.5677 28.2782C34.8538 28.4254 36.0591 28.1941 36.4882 27.6685C36.8968 27.227 37.1215 26.7224 37.2237 26.5332C37.3054 26.3229 37.3462 26.1337 37.4892 25.8604C37.5301 25.9865 37.7548 24.8302 38 24.1574C37.9796 23.7579 38.1022 23.4426 38.1226 23.1062C38.1022 23.0221 38.1634 22.6647 38.143 22.5595C38.143 22.5175 38.1634 22.4754 38.1634 22.4544C38.143 21.5924 38.2247 20.7094 38.4086 20.1207C38.3882 19.9735 38.4699 19.4479 38.5516 19.2167C39.1645 19.0485 40.2677 18.7121 40.2677 18.691C41.1667 18.5018 42.0247 17.829 43.1075 18.4177C43.128 18.3336 43.128 18.2916 43.1688 18.2706C42.9849 18.2075 43.0462 18.2075 42.9849 18.1234Z" fill="#FEFEFE"/>
<path fill-rule="evenodd" clip-rule="evenodd" d="M42.8012 19.8475C43.5162 18.8593 44.2108 17.724 44.2721 16.6517C43.5366 17.724 43.1076 18.7962 42.8012 19.8475ZM43.4141 23.5478C43.1893 23.5898 42.2087 23.2114 42.1883 23.1904C42.0657 23.1904 42.1474 23.1483 42.0044 23.1693C41.4528 23.1693 40.7786 21.7397 40.7786 21.5925C40.7581 21.3822 40.7173 21.0669 40.7173 20.9407C40.7173 20.7725 40.7786 20.1418 40.8399 19.7634C40.9829 19.2167 41.2689 18.628 41.5549 17.9342C41.5549 17.8712 42.9646 15.3482 43.4345 15.2852C43.5775 15.2852 43.7818 15.3482 43.9248 15.4323C44.2108 15.4954 44.5377 15.8528 44.8442 16.1261C44.9259 16.1892 45.1506 16.2523 45.2732 16.4415C45.3958 16.6097 45.5388 16.9251 45.5388 17.0302C45.5388 17.1774 45.3141 17.9342 45.1098 18.2076C44.1087 19.6793 43.7614 20.3731 42.6173 21.193C42.4947 21.2771 42.4743 21.7817 42.4743 21.8868L42.4947 22.5806C43.9657 22.3073 45.1506 21.2351 46.3969 20.4782C46.2538 21.0879 44.2313 23.5267 43.4141 23.5478Z" fill="#FEFEFE"/>
</g>
<defs>
<clipPath id="clip0">
<rect width="57" height="55" fill="white"/>
</clipPath>
</defs>
</svg>
