<svg width="19" height="11" viewBox="0 0 19 11" fill="none" xmlns="http://www.w3.org/2000/svg">
<g clip-path="url(#clip0)">
<path d="M18.1687 4.97721C18.0291 4.77311 14.6453 0 9.16675 0C3.68823 0 0.304443 4.77311 0.164795 4.97721C-0.0536296 5.29232 -0.0536296 5.70768 0.164795 6.02279C0.308024 6.22689 3.68823 11 9.16675 11C14.6453 11 18.0291 6.22689 18.1687 6.02279C18.3871 5.70768 18.3871 5.29232 18.1687 4.97721ZM9.16675 10.0833C4.1036 10.0833 0.916748 5.5 0.916748 5.5C0.916748 5.5 4.1036 0.916667 9.16675 0.916667C14.2299 0.916667 17.4167 5.5 17.4167 5.5C17.4167 5.5 14.2299 10.0833 9.16675 10.0833Z" fill="black"/>
<path d="M9.16667 1.83337C7.14355 1.83337 5.5 3.47335 5.5 5.50004C5.5 7.52674 7.13997 9.16671 9.16667 9.16671C11.1934 9.16671 12.8333 7.52674 12.8333 5.50004C12.8333 3.47335 11.1934 1.83337 9.16667 1.83337ZM9.16667 8.25004C7.64844 8.25004 6.41667 7.01827 6.41667 5.50004C6.41667 3.98181 7.64844 2.75004 9.16667 2.75004C10.6849 2.75004 11.9167 3.98181 11.9167 5.50004C11.9167 7.01827 10.6849 8.25004 9.16667 8.25004Z" fill="black"/>
</g>
<defs>
<clipPath id="clip0">
<rect width="18.3333" height="11" fill="white"/>
</clipPath>
</defs>
</svg>
